<svg xmlns="http://www.w3.org/2000/svg" width="143.283" height="216.133" viewBox="0 0 143.283 216.133">
  <g id="Group_5" data-name="Group 5" transform="translate(-869.168 -620.625)">
    <g id="Group_2" data-name="Group 2">
      <path id="Path_1" data-name="Path 1" d="M980.459,627.319l.5.233a7.052,7.052,0,0,0-1.139-.852c.631.332,1.277.694,1.929,1.081l.49.294.447.356.9.736c.595.5,1.2,1.015,1.777,1.552.524.6,1.042,1.205,1.546,1.814a22.752,22.752,0,0,1,2.6,3.84l.546.947c.176.313.3.661.443.98.276.649.529,1.27.758,1.856.225.375.433.75.614,1.1a6.815,6.815,0,0,1,.389,1.047,2.384,2.384,0,0,1,.174,1.287c-.093.167-.333-.006-.646-.42s-.669-1.093-1.148-1.816c-.223-.31-.469-.682-.65-.89-.409-.463-.825-.961-1.247-1.489s-.951-1-1.434-1.538l-1.5-1.67-1.724-1.611,1.465,1.213c-.681-.64-1.352-1.269-2.042-2.042l.363.144c-.579-.559-1.3-1.066-1.985-1.633-.344-.284-.685-.579-1.018-.88a10.741,10.741,0,0,0-1.011-.872c-1.421-1.034-2.558-2.237-3.408-2.939-.8-.778-.908-1.247-.422-1.358a2.864,2.864,0,0,1,1.168.1q.4.094.9.259a4.76,4.76,0,0,1,1.05.467Z" fill="#2b7a78"/>
      <path id="Path_2" data-name="Path 2" d="M986.457,629.97c-.78-.649-1.625-1.192-2.415-1.774l-1.2-.848-1.3-.708-.381-.139.423-.3.011.046c.3.341.675.711,1.1,1.1l1.259,1.372c.449.477.926.965,1.413,1.451s.888,1.077,1.333,1.6l.6.777a1.82,1.82,0,0,1,.39.83c-.022.329-.752-.149-1.619-1.063l-1-1.057c-.672-.575-1.485-1.178-2.271-1.866-.407-.326-.773-.718-1.212-1.019s-.862-.619-1.273-.932c-1.584-1.332-3.192-2.311-3.813-3.143-.282-.372.206-.376.424-.507.063-.32,1.449.1,3.048.986,1.487,1.039,2.6,2.121,2.478,2.436a4.765,4.765,0,0,1,.759.526,4.513,4.513,0,0,0-.473-.55,19.192,19.192,0,0,0,2.167,2.587l.649.633.578.706c-.414-.072-.8-.166-1.23-.214l-.626-.7c.075.025.211.082.2.072l-1.759-1.99a7.257,7.257,0,0,0-.984-.931l-1.092-.914a15.933,15.933,0,0,0-1.9-1.585c-.509-.44-.323-.579.417-.322a6.46,6.46,0,0,1,1.053.457l-.471-.215,3.337,2.1,3.067,2.42a2.3,2.3,0,0,1,.716.844C986.935,630.325,986.756,630.257,986.457,629.97Z" fill="#2b7a78"/>
      <g id="Group_1" data-name="Group 1">
        <path id="Path_3" data-name="Path 3" d="M979.435,624.281a8.286,8.286,0,0,1-1.315-.6l-.188-.171.8.293C979.309,624.012,979.533,624.215,979.435,624.281Z" fill="#2b7a78"/>
        <path id="Path_4" data-name="Path 4" d="M977.932,623.507l-.333-.122.243.053.056.038Z" fill="#2b7a78"/>
        <path id="Path_5" data-name="Path 5" d="M975.417,746.334a185.019,185.019,0,0,1-22.9,26.981,2.659,2.659,0,0,1-.584.481,1.95,1.95,0,0,1,.44-.5,185.3,185.3,0,0,0,22.852-26.894,3.313,3.313,0,0,1,.478-.606C975.745,745.8,975.617,746.034,975.417,746.334Z" fill="#2b7a78"/>
        <path id="Path_6" data-name="Path 6" d="M911.534,808.7c.249-.129.252-.09.01.092a7.331,7.331,0,0,1-.835.531c-.209.108-.215.063-.009-.093A7.178,7.178,0,0,1,911.534,808.7Z" fill="#2b7a78"/>
        <path id="Path_7" data-name="Path 7" d="M980.257,623.506c.1.04.2.086.3.135A.28.28,0,0,0,980.257,623.506Zm.177.518.223.389-.035-.313C980.56,624.076,980.508,624.05,980.434,624.024Zm14.45,84.092q-.616,2.011-1.307,4.019c-.642,2.079-1.337,4.163-2.1,6.245s-1.589,4.171-2.477,6.252A103.343,103.343,0,0,0,994.884,708.116Zm1.5-66.174c.121.2.249.412.4.643l.089.1a8.073,8.073,0,0,1,.61.661c-.01-.019-.028-.045-.052-.087-.05-.073-.121-.177-.216-.291-.189-.238-.445-.546-.7-.859C996.463,642.043,996.423,641.988,996.383,641.942ZM976.559,622.3c.345.377.345.377.33.423a1.869,1.869,0,0,0,.2.206c.478.324.675.449.753.507,1.342.3,1.351.295,1.351.295l.158.241c.234,0,.319,0,.35,0-.143.034-.192.041-.215.051.13.055.237.089.314.127l-.438-.137c.342.172.6.291.8.4s.315.209.42.282c.215.151.336.238.578.412.523.344.93.684.981.72a.239.239,0,0,0-.1.037c.673.437,1.012.657,1.343.87l1.208.991c.132.067.242.114.342.163a2.561,2.561,0,0,0,.524.545l.625.525c.041.046.078.088.114.131l-.01.011a5.257,5.257,0,0,1,.445.524c.077.119.081.123.081.123l0,0c.283.391.683.956,1.741,2.457a10.288,10.288,0,0,1,.924.99c-.094-.094-.193-.182-.284-.272-.2-.167-.159.11-.261.019-.622-.581-1.25-1.178-1.875-1.793-.307-.313-.62-.62-.936-.931s-.688-.57-1.03-.853c-.528-.428-1.058-.868-1.594-1.3l-.007-.007a1.208,1.208,0,0,0-.12-.1l-.019-.017c-.114-.1-.23-.194-.35-.29-.732-.529-1.522-1-2.277-1.5a5.344,5.344,0,0,0-.9-.559.638.638,0,0,0-.316-.08c-.141.046.165.4.689.792.588.521,1.188,1.044,1.824,1.557l.015.014c.091.081.183.162.28.238.653.689,1.331,1.381,2.032,2.064.082.092.173.173.26.26l.007.006c.159.151.319.293.468.455a3.12,3.12,0,0,1,.294.342c.324.377.647.764.969,1.15.141.155.281.319.42.483l0,0,.571.658c.167.187.342.373.5.571l.446.627q.858,1.2,1.751,2.365l.015.014.065.087c.573.85,1.085,1.756,1.645,2.6.278.427.546.856.82,1.279.239.453.475.9.715,1.346.481.888.957,1.752,1.421,2.6l1.158,2.924c.194.493.4.97.575,1.473l.472,1.553-.147-.261c.182.522.358,1.05.539,1.572l.051.176c-.182-.372-.369-.739-.556-1.106-.1-.268-.2-.539-.3-.815a28.464,28.464,0,0,0-1.258-3.384,23.042,23.042,0,0,0-1.453-3.115c-.54-.981-1.052-1.977-1.613-2.936q-.54-.81-1.088-1.627l-.007-.006c-.255-.377-.505-.759-.76-1.135-.175-.246-.321-.506-.508-.732s-.367-.436-.551-.649c-.364-.424-.726-.835-1.083-1.252-.363-.4-.7-.823-1.08-1.209-.4-.364-.8-.737-1.2-1.117-.4-.411-.724-.642-.761-.514a2.391,2.391,0,0,0,.649.977c.3.348.608.7.909,1.057s.549.778.828,1.166q.829,1.172,1.678,2.361c.5.854,1,1.7,1.5,2.547.243.426.529.821.743,1.271.155.319.316.632.466.956l.007.015c.064.118.124.241.179.36.434.887.914,1.724,1.31,2.6.376.9.751,1.77,1.128,2.606.192.421.376.835.565,1.244.158.421.316.841.471,1.25q.462,1.239.934,2.334c.1.367.214.711.3,1.068s.161.715.244,1.059c.17.683.352,1.316.536,1.88l.016.065c-.123-.28-.243-.547-.365-.826.259,1.1.55,1.612.793,2.62a2.469,2.469,0,0,0-.321-.254c1.07,5.574,1.27,12.084,1.443,17.676-.009.233-.01.443-.016.658-.16,1.273-.315,2.55-.452,3.874-.174,1.341-.406,2.751-.564,4.247.081-1,.158-1.988.239-2.99-.173,1.1-.336,2.191-.479,3.3s-.271,2.228-.477,3.41c-.246,1.589-.472,3.224-.673,4.832-.254,1.621-.505,3.215-.738,4.724-.478,3.008-.91,5.645-1.063,7.336a124.737,124.737,0,0,1-7.022,18.879,131.985,131.985,0,0,1-10.531,18.265,6.393,6.393,0,0,0-.779,1.316c.014.083.346-.3.774-.908a124.469,124.469,0,0,0,14.491-26.726,118.349,118.349,0,0,1-4.88,11.538,128,128,0,0,1-6.394,11.478c-.632.965-1.263,1.93-1.9,2.9-.66.95-1.289,1.9-1.91,2.851a177.2,177.2,0,0,1-22.754,26.632c-3.742,3.585-7.359,6.8-11.073,9.877s-7.525,6.02-11.658,9.017c-11.631,8.4-22.721,15.051-34.894,22.487-.981.585-1.91,1.2-2.521,1.647a3.331,3.331,0,0,0-.72.627c-.029.054-.006.074.064.066a11.815,11.815,0,0,0,2.646-1.326c12.788-7.5,25.268-15.028,37.24-23.948,1.507-1.1,2.975-2.259,4.465-3.4,1.461-1.173,2.949-2.322,4.4-3.538,2.927-2.38,5.754-4.891,8.577-7.465a189.663,189.663,0,0,0,16.042-16.739c1.086-1.294,2.161-2.568,3.18-3.872.519-.644,1.034-1.29,1.544-1.932.495-.655.994-1.306,1.489-1.961-.007.044-.014.088.007.1.071.044.335-.164.707-.546-.555.742-1.119,1.486-1.679,2.233s-1.162,1.478-1.743,2.218c-1.15,1.488-2.363,2.941-3.571,4.409a249.245,249.245,0,0,1-23.178,22.732c-5.864,5.075-11.321,9.507-17.062,13.818-7.4,5.175-14.984,9.921-22.731,14.629a4.6,4.6,0,0,0-.731.5c-.1.1.074.025.391-.156,5.375-3.1,10.834-6.386,16.262-9.9-.807.669-1.265,1.136-1.145,1.223s.829-.229,1.876-.825c-1.222.842-2.453,1.657-3.68,2.475a5.306,5.306,0,0,0-1.287,1.017,4.6,4.6,0,0,0,1.392-.763c5.025-3.33,9.983-6.79,14.846-10.424,5.872-4.285,11.6-8.832,17.128-13.709a11.917,11.917,0,0,0-1.4,1.692l0,0c-.867.747-1.711,1.514-2.592,2.238a297.811,297.811,0,0,1-25.232,18.432c-8.7,5.74-17.614,11.15-26.585,16.65a2.485,2.485,0,0,0-.629.456,1.731,1.731,0,0,0,.6-.294c5.417-3.324,10.811-6.608,16.155-9.956l-.016.016c-.209.156-.24.219,0,.093a8.163,8.163,0,0,0,.838-.53c.239-.18.2-.2-.007-.1,9.952-6.256,19.718-12.776,29.008-19.951-8.556,6.8-17.46,12.953-26.46,18.819l-3.005,1.77a5.834,5.834,0,0,0-.728.508c-.068.081.144-.012.425-.185s.563-.333.842-.5c-1.706,1.106-2.989,2.066-2.9,2.221a11.957,11.957,0,0,0,3.456-1.811c4.783-3,9.52-6.108,14.192-9.36l1.531-1.03,1.548-1.005c-7.193,5.25-14.545,10.109-21.884,14.8a4.987,4.987,0,0,0-1.154.852,3.721,3.721,0,0,0,1.176-.592,305.664,305.664,0,0,0,38.657-26.816c4.2-3.191,8.349-6.573,12.456-10.206-.491.488-1,.967-1.507,1.453a186.514,186.514,0,0,1-19.251,15.961c-3.225,2.347-6.469,4.588-9.766,6.811-3.3,2.208-6.665,4.395-10.138,6.633a3.37,3.37,0,0,0-.66.489c-.025.057.218-.068.571-.3,6.786-4.337,13.009-8.341,19.6-13.163,5.469-3.99,10.554-8.04,15.439-12.2a253.8,253.8,0,0,1-30.366,22.84c-.459.3-.914.625-1.193.849a1.054,1.054,0,0,0-.274.128c-1.338.78-2.78,1.679-4.255,2.568a5.556,5.556,0,0,0-.772.54c-.134.122.046.041.368-.146,1.443-.877,2.812-1.72,4.05-2.438a7.769,7.769,0,0,0,.666-.443c-.063.1.229-.028.748-.351a239.911,239.911,0,0,0,31.182-23.018,2.093,2.093,0,0,0,.5-.292,31.278,31.278,0,0,0,3.576-3.08l1.039-1.035c4.206-4.147,8.253-8.445,12.071-12.886.84-.86,1.808-1.879,2.779-3.035,3.427-3.763,6.712-7.694,9.852-11.852-.158.281-.237.462-.192.481a10.775,10.775,0,0,0,1.766-2.116c.4-.587.8-1.167,1.206-1.75-1.1,1.7-2.292,3.356-3.455,5.023-.174.237-.323.456-.462.664-1.362,1.782-2.7,3.606-4.179,5.386-1.567,1.971-3.209,3.866-4.834,5.757-1.661,1.848-3.3,3.7-5,5.467q-5.065,5.352-10.382,10.189a225.923,225.923,0,0,1-21.84,17.488,8.194,8.194,0,0,0-.828.63c-.127.128-.086.144.188-.044,4.757-3.186,9.178-6.28,13.679-9.714a169.181,169.181,0,0,0,13.989-11.886,204.833,204.833,0,0,0,16.565-17.64,172.246,172.246,0,0,0,14.358-19.868,150.76,150.76,0,0,0,10.861-22.1,148.063,148.063,0,0,0,6.757-22.234,132.46,132.46,0,0,0,3.189-29.2c.033-1.175-.057-2.309-.116-3.455l-.192-3.432c-.072-1.137-.25-2.238-.368-3.356-.145-1.112-.258-2.236-.427-3.339-.205-1.085-.414-2.174-.625-3.253a32.645,32.645,0,0,0-.7-3.223,63.365,63.365,0,0,0-1.862-6.248,33.073,33.073,0,0,0-3.652-7.744c-1.373-1.86-2.522-3.01-3.094-3.055-.682-.033-.4,1.525.567,3.934-.256-.428-.5-.857-.759-1.285l-1.277-1.976c-.682-.875-1.357-1.644-1.963-2.3a9.634,9.634,0,0,0-1.673-1.524l-1.376-.93a35.659,35.659,0,0,0-6.808-3.489,3.63,3.63,0,0,1,.1.469,2.149,2.149,0,0,0-.379-.185,6.117,6.117,0,0,0-2.617-.866l-.13.356a3.644,3.644,0,0,0,.85,2.058c-.131.1-.129.287,0,.549-.975-.233-1.567-.176-1.287.554-.5-.224-.536-.054-.087.384.151.144.361.3.555.473-.295-.1-.381-.137-.766-.278-.452-.27-.709-.428-.709-.428-1.175-.751-1.175-.751-2.183-1.4a9.585,9.585,0,0,0-1.2-.445c-.293-.09-.459-.136-.459-.136-1.4-.039-1.394-.033-1.409.275a1.636,1.636,0,0,0,.147.17c-.858-.359-.91-.385-1.146-.484a4.15,4.15,0,0,0-.439-.119c-.12.1-.12.1-.292.073A.169.169,0,0,0,976.559,622.3Zm14.627,12.9c.863.785,1.446,1.483,2.086,2.081.358.7.748,1.416,1.173,2.124.493,1.009.975,2.008,1.454,2.995.232.5.5.968.708,1.481s.4,1.03.6,1.544c-.2-.205,0,.288.073.548s.172.533.257.8c-.444-1.076-.854-2.182-1.34-3.235q-.795-1.533-1.591-3.087c-.12-.237-.24-.474-.366-.706s-.282-.451-.421-.675c-.288-.446-.574-.9-.857-1.352A18,18,0,0,0,991.186,635.206Zm-3.018-13.214.1.044.258,1.513Zm-5.745,2.823c.143.056.232.095.285.122A1.652,1.652,0,0,1,982.423,624.815Z" fill="#2b7a78"/>
      </g>
    </g>
    <g id="Group_4" data-name="Group 4">
      <g id="Group_3" data-name="Group 3">
        <path id="Path_8" data-name="Path 8" d="M916.107,834.348c8.259-1.436,16.545-3.192,24.747-4.942.276-.059.5-.077.508-.039a1.053,1.053,0,0,1-.467.163c-8.207,1.757-16.455,3.506-24.716,4.947a1.24,1.24,0,0,1-.529.022C915.646,834.46,915.847,834.4,916.107,834.348Z" fill="#2b7a78"/>
        <path id="Path_9" data-name="Path 9" d="M977.773,819.3c-.182-.006-.164-.049.041-.1a2.725,2.725,0,0,1,.659-.085c.152.005.133.056-.042.1A2.765,2.765,0,0,1,977.773,819.3Z" fill="#2b7a78"/>
        <path id="Path_10" data-name="Path 10" d="M884.993,835.931c1.036.026,2.077.056,3.113.082l2.469-.049c.412-.015.822-.013,1.236-.037l1.253-.093c1.674-.14,3.348-.272,5.026-.409l-6.586.36C889.337,835.81,887.171,835.856,884.993,835.931Zm8.07-19.745c-.029.054-.006.074.064.066l.6-.638.052-.055A3.331,3.331,0,0,0,893.063,816.186Zm-8.07,19.745c1.036.026,2.077.056,3.113.082l2.469-.049c.412-.015.822-.013,1.236-.037l1.253-.093c1.674-.14,3.348-.272,5.026-.409l-6.586.36C889.337,835.81,887.171,835.856,884.993,835.931Z" fill="#2b7a78"/>
        <path id="Path_11" data-name="Path 11" d="M923.532,764.366c.206-.309.442-.621.611-.853-.04.035-.114.1-.254.227a13.948,13.948,0,0,0-1.087,1.414C922.829,765.228,923.114,764.969,923.532,764.366Z" fill="#2b7a78"/>
        <path id="Path_12" data-name="Path 12" d="M924.188,763.473l.061-.066c.041-.074.087-.144.138-.229-.042.053-.13.176-.244.335Z" fill="#2b7a78"/>
        <path id="Path_13" data-name="Path 13" d="M912.857,772.55c-.831,1.059-1.517,2.015-2.219,2.988.444-.66.905-1.354,1.345-2.017-2.436,3.368-4.536,6.422-6.141,8.993-.181.291-.506.735-.775,1.119a22.536,22.536,0,0,0-1.549,2.2l-.006.005c-2.966,3.882-5.708,7.6-7.846,10.7-1.058,1.279-2.045,2.542-2.8,3.629l-.048.059c.178-.295.349-.574.532-.874-.765.988-1.093,1.54-1.779,2.436.03-.144.07-.3.1-.439-.961,1.175-1.953,2.383-2.959,3.517l-1.508,1.743q-.75.825-1.505,1.645c-1,1.147-1.951,2.053-2.875,3.04-.442.441-.823.766-1.214,1.161-.255.295-1.119.994-1.733,1.574-.243.216-.468.418-.7.617a42.374,42.374,0,0,0-4.713,4.48,23.18,23.18,0,0,0-3.742,5.471,21.661,21.661,0,0,1,2.342-3.984,20.644,20.644,0,0,0-2.707,4.343,12.118,12.118,0,0,0-1.194,4.48,7.43,7.43,0,0,0,.062,1.47l.125.693c.067.22.144.428.219.646a5.277,5.277,0,0,0,1.316,2.211,8.094,8.094,0,0,0,4.768,2.11,20.526,20.526,0,0,0,2.814.179c.448.006.892.008,1.328.013.269-.012.539-.023.8-.039a25.24,25.24,0,0,0,2.691-.263c9.8.626,20.086-.208,30.319-1.6a3.469,3.469,0,0,0,1.127-.295c.073-.085-.261-.1-.79-.028A218.758,218.758,0,0,1,892,836.093c1.544-.106,3.087-.2,4.636-.314.777-.054,1.547-.093,2.324-.156l2.35-.264,4.716-.5q2.375-.333,4.771-.666l2.444-.291c.807-.117,1.62-.269,2.425-.428,8.168-1.265,15.952-2.881,24.211-4.387,7.05-1.273,13.2-2.394,20.076-3.417,9.665-1.433,18.285-2.377,27.347-2.86a6.408,6.408,0,0,0,2.564-.435c.212-.2-.6-.345-1.806-.307a203.412,203.412,0,0,0-29.164,2.914c-10.043,1.628-20.382,3.758-31.1,5.853-2.315.436-4.588.858-6.854,1.287a.207.207,0,0,0,.075-.1c.019-.1-.171-.161-.518-.178q3.861-.746,7.773-1.545c7.169-1.168,14.347-2.458,22.007-4.114,5.233-1.159,9.984-2.213,14.842-3.293,3.005-.4,6.026-.887,8.987-1.171,1.492-.162,2.98-.327,4.467-.483,1.477-.116,2.952-.222,4.432-.334a1.928,1.928,0,0,0,.58-.1c.1-.044-.018-.077-.253-.064-1.008.039-2.024.081-3.045.119s-2.046.082-3.1.189c-2.1.188-4.211.359-6.354.6.714-.24,1.154-.441,1.14-.6s-.5-.263-1.29-.24c.994-.182,1.969-.291,2.953-.432.6-.086,1.1-.219,1.1-.306s-.451-.1-1.033-.023c-1.991.241-4.023.606-6.041.934l-3.027.5-3.042.564c-2.424.389-4.845.79-7.287,1.243s-4.872.877-7.326,1.35a5.986,5.986,0,0,0,1.5-.716c.76-.148,1.517-.3,2.272-.443,6.889-1.145,13.836-2.248,20.783-3.2,6.92-.866,13.829-1.563,20.619-1.812a1.152,1.152,0,0,0,.52-.1c.019-.043-.176-.066-.42-.051q-3.094.16-6.174.314c-2.074.188-4.151.363-6.217.548.171-.04.217-.09.042-.1a2.846,2.846,0,0,0-.657.06c-.2.046-.19.092-.041.1-7.784.834-15.633,2.021-23.406,3.275,1.824-.36,3.626-.658,5.437-.989s3.63-.663,5.428-.935l5.406-.875,5.37-.746c.768-.052,1.533-.116,2.3-.128a1.937,1.937,0,0,0,.586-.1c.075-.043-.077-.067-.29-.056l-.633.021c1.337-.139,2.419-.414,2.459-.629-.011-.211-1.121-.271-2.519-.127-3.763.446-7.515.881-11.315,1.525l-1.22.162c-.407.031-.809.065-1.215.1l4.438-.78,2.212-.386,2.2-.324c1.471-.221,2.936-.436,4.4-.655,1.463-.2,2.9-.335,4.359-.509a2.2,2.2,0,0,0,.97-.224c.028-.075-.352-.1-.846-.058a258.813,258.813,0,0,0-31.146,4.277c-3.412.386-6.841.766-10.322,1.151.445-.087.9-.189,1.346-.281,11.5-2.346,21.152-3.447,32.122-4.746a1.521,1.521,0,0,0,.555-.13c.041-.044-.143-.056-.42-.021-2.669.262-5.234.586-7.791.877-2.552.265-5.116.64-7.793,1.016-4.43.667-8.64,1.308-12.766,1.933,8.472-1.628,16.576-2.87,24.9-3.942a6.669,6.669,0,0,0,.973-.181.4.4,0,0,0,.2.026c1.015-.033,2.131-.107,3.276-.2a2.324,2.324,0,0,0,.631-.123c.124-.05,0-.069-.246-.058-1.119.092-2.179.165-3.119.185a3,3,0,0,0-.529.072c.076-.073-.127-.1-.528-.077-7.985.675-16.748,2.175-25.318,3.646a.646.646,0,0,0-.339-.07,13.2,13.2,0,0,0-3,.4l-.946.235c-3.79.863-7.572,1.7-11.317,2.526-.75.077-1.628.2-2.591.381q-2.375.288-4.768.588c-.8.106-1.6.208-2.405.316-.8.085-1.6.178-2.4.268.209-.075.35-.151.354-.207-.032-.129-.76-.113-1.642.039l-1.325.2c1.279-.24,2.562-.477,3.838-.72.181-.03.355-.067.507-.1,1.393-.22,2.831-.51,4.27-.749,12.58-2.168,24.646-4.412,36.542-5.984a2.719,2.719,0,0,0,.681-.138c.124-.05.109-.094-.106-.074-7.429.657-13.854,1.15-22.276,2.42-10.018,1.511-19.8,3-29.587,3.873-.647.079-1.29.161-1.933.252-.63.054-1.255.1-1.881.159-1.245.1-2.483.206-3.715.307-1.25.126-2.422.11-3.625.157l-3.575.09c-1.184,0-2.325-.075-3.494-.108-1.158-.054-2.339-.068-3.488-.153-1.13-.12-2.274-.241-3.425-.369l-.182-.021-.026,0-.044-.019a.315.315,0,0,1-.074-.026l-.069-.06a.193.193,0,0,1-.036-.223.527.527,0,0,1,.179-.213,1.588,1.588,0,0,1,.183-.1l.384-.321.446-.357.25-.2.43-.362.86-.732c.57-.489,1.158-.99,1.7-1.476l1.393-1.353,1.385-1.36.636-.671c-.07.008-.093-.012-.064-.066a3.331,3.331,0,0,1,.72-.627c.8-.855,1.655-1.722,2.379-2.555l2.306-2.581,2.214-2.572c2.932-3.421,5.729-6.84,8.509-10.285,4.244-5.127,7.52-10.078,7.485-11.083-.046-.593-1.282.369-3.17,2.347.327-.423.652-.837.978-1.26l1.5-2.024a43.663,43.663,0,0,0,3.12-4.718l.849-1.525c.993-2.11,2.957-5.295,3.684-7.078l-.448.224.234-.384a8.72,8.72,0,0,0,1.308-2.513l-.3-.024a6.072,6.072,0,0,0-2.11,1.32c-.064-.088-.244-.037-.524.157.425-.938.508-1.466-.258-.992.328-.521.17-.5-.351.04-.175.186-.378.418-.582.658.157-.3.21-.4.437-.786l.583-.787c1-1.3.994-1.307,1.879-2.438.72-1.008,1.108-1.667,1.108-1.667.542-1.325.565-1.335.26-1.285-.073.056-.146.112-.226.182.7-.908.75-.972.937-1.217.187-.266.306-.461.306-.461-.049-.1-.049-.1.05-.276.011-.071-.026-.084-.026-.084-.516.416-.516.416-.558.409-.118.1-.282.241-.282.241-.522.55-.736.772-.824.865-.436.7-.62,1.035-.719,1.208l-.1.173-.294.21c-.084.217-.114.3-.123.333l.032-.213c-.121.174-.2.3-.274.389.19-.292.269-.413.3-.459-1.137,1.43-1.147,1.441-1.616,2.009-.474.6-.906,1.093-.958,1.157.01-.071-.009-.088-.009-.088-1.2,1.556-1.208,1.558-2.344,3.069-.087.153-.153.276-.218.389a6.628,6.628,0,0,0-.61.7c-.2.265-.4.527-.6.792l-.149.159,0-.013c-.229.259-.384.432-.565.633l-.123.132,0,.009c-.393.434-.952,1.061-2.448,2.725-.355.468-.67.9-.974,1.324q.135-.211.254-.407c.16-.259-.1-.091-.005-.225,1.656-2.334,3.462-4.777,5.342-7.254.211-.224.4-.427.571-.587l-.238.321c.122-.123.246-.254.369-.386-1,1.429-2.016,2.868-3.047,4.342-.295.411-.376.61-.19.464a7.518,7.518,0,0,0,.874-1.031c1.449-1.986,3.008-4.046,4.569-6.093l.005-.005c.365-.419.758-.884,1.164-1.377.732-.886,1.3-1.677,1.724-2.273s.6-.966.446-.96c-.037-.193.186-.7-.324-.317a18.733,18.733,0,0,0-2.062,1.924c-.527.556-1.1,1.188-1.683,1.849.106-.157.22-.316.335-.476a16.447,16.447,0,0,0,2.092-3.412c.058-.24-.049-.3-.32-.164a6.854,6.854,0,0,0-1.3,1.006,66.838,66.838,0,0,0-8.353,9.991C912.727,772.846,912.794,772.684,912.857,772.55Zm-27.864,63.381c2.178-.075,4.344-.121,6.511-.146l6.586-.36c-1.678.137-3.352.269-5.026.409l-1.253.093c-.414.024-.824.022-1.236.037l-2.469.049C887.07,835.987,886.029,835.957,884.993,835.931Zm21.2-49.282c1.458-1.938,3.068-4.052,4.423-5.931-.747,1.164-1.283,2.093-1.774,2.983-.588.7-1.187,1.446-1.779,2.205-1.587,2.044-3.131,4.036-4.654,6,.127-.3-.237.171-.436.406s-.4.475-.6.713C902.979,790.923,904.575,788.816,906.194,786.649Zm2.667-6.083c-2.319,3.02-4.542,6.026-6.583,8.832-1.464,1.912-2.936,3.828-4.432,5.722l.174-.3c-.373.5-.749,1-1.122,1.5l-.127.159.749-1.2.576-.793c3.118-3.948,5.792-7.7,8.654-11.6C907.422,782.169,908.129,781.392,908.861,780.566Z" fill="#2b7a78"/>
      </g>
    </g>
  </g>
</svg>
