<svg xmlns="http://www.w3.org/2000/svg" width="289.467" height="300.602" viewBox="0 0 289.467 300.602">
  <g id="Group_22" data-name="Group 22" transform="translate(-320.26 -1473.347)">
    <g id="Group_19" data-name="Group 19">
      <path id="Path_675" data-name="Path 675" d="M597.407,1490.188l-1.026-.2a20.539,20.539,0,0,1,2.774.155c-1.349-.222-2.759-.426-4.212-.611l-1.1-.136-1.118-.04-2.27-.056c-1.527-.024-3.076-.044-4.628-.023-1.552.128-3.108.272-4.648.428a65.525,65.525,0,0,0-8.874,1.486l-2.055.449c-.67.152-1.315.383-1.948.568-1.265.392-2.462.776-3.575,1.147-.827.17-1.626.355-2.362.543a17.2,17.2,0,0,0-1.962.68,4.784,4.784,0,0,0-1.976,1.1c-.091.242.486.281,1.489.148s2.425-.483,4.081-.773c.734-.108,1.587-.258,2.125-.3,1.206-.1,2.47-.221,3.784-.37,1.316-.131,2.7-.148,4.116-.258l4.387-.33,4.631-.08-3.726-.082c1.835-.036,3.638-.069,5.666-.224l-.714-.173c1.579-.043,3.286.082,5.033.123.874.02,1.757.028,2.639.023s1.764-.053,2.618.024c3.422.219,6.664.03,8.824.08,2.186-.068,2.974-.428,2.426-.952a5.707,5.707,0,0,0-1.813-.9q-.7-.252-1.638-.523a12.663,12.663,0,0,0-2.13-.45Z" fill="#47aea9"/>
      <path id="Path_676" data-name="Path 676" d="M585.26,1487.6c1.987.041,3.926.242,5.839.356l2.85.207,2.808.427.732.194-.205-.653-.078.035c-.892.07-1.922.11-3.047.125l-3.644.248c-1.283.076-2.621.139-3.972.192s-2.714.28-4.048.4l-1.9.238a4.783,4.783,0,0,0-1.674.469c-.408.337,1.279.5,3.746.361l2.846-.167c1.734.02,3.708.135,5.756.144,1.022.033,2.071-.032,3.1.053s2.065.142,3.074.192c4.056.07,7.672.5,9.679.231.9-.118.209-.541.071-.856.34-.364-2.2-1.15-5.686-1.663-3.525-.272-6.566-.177-6.819.23a14.214,14.214,0,0,0-1.792-.142,13.638,13.638,0,0,1,1.414-.126,56.594,56.594,0,0,1-6.574.644l-1.777.055-1.776.188c.689.285,1.372.529,2.048.849l1.83-.134c-.141-.042-.412-.1-.389-.107l5.19-.416a21.7,21.7,0,0,1,2.657-.057l2.79.054a46.915,46.915,0,0,1,4.849.1c1.32.011,1.24-.284-.164-.67a17.211,17.211,0,0,0-2.123-.462l.963.2-7.593-.835-7.639-.292a6.715,6.715,0,0,0-2.157.2C584.1,1487.537,584.446,1487.625,585.26,1487.6Z" fill="#47aea9"/>
      <g id="Group_18" data-name="Group 18">
        <path id="Path_677" data-name="Path 677" d="M602.949,1488.125a22.273,22.273,0,0,0,2.693.547l.5-.005-1.54-.4C603.491,1487.973,602.9,1487.977,602.949,1488.125Z" fill="#47aea9"/>
        <path id="Path_678" data-name="Path 678" d="M606.141,1488.667l.641.168-.421-.157-.13-.012Z" fill="#47aea9"/>
        <path id="Path_679" data-name="Path 679" d="M444.961,1609.813a159.88,159.88,0,0,0-3.4,45.813,2.359,2.359,0,0,0,.191.967c.057.021.079-.383.037-.859a159.929,159.929,0,0,1,3.351-45.687,2.911,2.911,0,0,0,.126-1C445.212,1609.012,445.078,1609.35,444.961,1609.813Z" fill="#47aea9"/>
        <path id="Path_680" data-name="Path 680" d="M452.8,1725.11c-.183-.339-.24-.3-.137.081a6.7,6.7,0,0,0,.484,1.231c.154.285.223.246.136-.082A6.77,6.77,0,0,0,452.8,1725.11Z" fill="#47aea9"/>
        <path id="Path_681" data-name="Path 681" d="M609.68,1488.53c-.29-.12-.29-.12-.32-.33,0,0-.32-.12-.79-.26-.47-.11-.58-.12-2.29-.51.16-.01.31-.02.44-.04.39-.31.41-.31-1.65-1.48,0,0-.3-.1-.84-.26a22.437,22.437,0,0,0-2.32-.6l-5.01-.52-1.59-.19c-.74-.2-.91-.24-1.47-.39.51,0,1.02.03,1.43.02,1.23-.04,1.41-.24.39-.45,1.38-.47.61-1.03-1.1-1.64.53-.15.79-.33.73-.54a9.293,9.293,0,0,0,3.98-1.26l.29-.46c-.57-.44-2.3-.94-4.91-1.41a4.533,4.533,0,0,0-.79-.14,6.058,6.058,0,0,1,.77-.37c-3.33-1.07-10.14-1.98-14.43-2.47l-3.22-.28a28.85,28.85,0,0,0-4.44.03c-1.75.12-3.75.29-5.9.55l-4.48.82c-.94.19-1.87.39-2.81.59,4.61-1.51,7.11-2.77,6.09-3.33-.88-.44-4.07-.32-8.53.3a88.651,88.651,0,0,0-15.62,4.37c-3.81,1.25-7.4,2.93-11.05,4.45-1.84.73-3.57,1.65-5.33,2.52s-3.51,1.74-5.26,2.61c-1.72.93-3.39,1.92-5.09,2.87-1.67.98-3.4,1.9-5.03,2.94l-4.88,3.16c-1.62,1.06-3.27,2.08-4.8,3.24a207.316,207.316,0,0,0-34.61,31.03,181.988,181.988,0,0,0-20.15,27.35,138.094,138.094,0,0,0-20.18,62.32,175.182,175.182,0,0,0,.06,31.32,146.833,146.833,0,0,0,4.09,23.53c1.84,7.19,4.02,13.99,6.56,21.16.14.42.22.44.21.21a7.326,7.326,0,0,0-.34-1.32,198.441,198.441,0,0,1-7.82-35.71,166.246,166.246,0,0,1-1.2-18.79c-.07-3.18.07-6.38.17-9.59.21-3.23.4-6.48.8-9.73.27-3,.8-5.91,1.24-8.81.08-.32.16-.66.23-1.04.57-2.62,1.09-5.24,1.79-7.84-.2.92-.41,1.82-.62,2.74-.36,1.8-.5,3.39-.31,3.56.09.02.22-.22.37-.63a144.937,144.937,0,0,0-1.79,19.95,46.463,46.463,0,0,0-.09,5.33,183.37,183.37,0,0,0,0,22.85l.1,1.89a27.158,27.158,0,0,0,.99,6.06,2.069,2.069,0,0,0,.32.71,212.4,212.4,0,0,0,11.5,43.29q1.11,2.955,2.28,5.8c.31.76.55,1.14.6.98a5.432,5.432,0,0,0,.17.54c.06.15.12.31.19.46.81,1.76,1.64,3.76,2.53,5.85.21.45.36.69.33.45a4.906,4.906,0,0,0-.38-1.18c-.84-1.95-1.64-3.89-2.44-5.67l-.21-.48a1.247,1.247,0,0,0-.22-.36,14.447,14.447,0,0,0-.57-1.84c-.57-1.55-1.13-3.11-1.68-4.66-4.99-14.12-9.13-28.33-11.17-43.56a230.661,230.661,0,0,0,5.75,25.08c1.84,6.39,3.89,12.36,6.13,18.37.87,2.37,1.78,4.75,2.7,7.16.52,1.34,1.05,2.69,1.58,4.06.2.53.38.86.42.78a2.962,2.962,0,0,0-.29-1.04c-.5-1.3-.99-2.6-1.48-3.89-.9-2.39-1.79-4.76-2.64-7.11q-.765-2.07-1.5-4.14c-1.74-4.98-3.38-9.94-4.85-14.99a162.738,162.738,0,0,1-6.16-32c-.07-.9-.16-1.81-.21-2.7a189.9,189.9,0,0,0,4.15,20.59,233.2,233.2,0,0,0,9.08,33.18q1.23,3.51,2.54,6.97c2.43,6.45,5.05,12.8,7.77,19.04.39.93.79,1.64.89,1.58a4.458,4.458,0,0,0-.51-1.81c-2.52-6.48-4.96-13.02-7.21-19.64-.72-2.09-1.42-4.19-2.08-6.31q-1.155-3.57-2.2-7.19c.29.77.58,1.53.87,2.3l.81,2.31c.09.28.18.56.28.84.18.57.37,1.13.56,1.69q.975,2.91,2.01,5.8c1.55,4.34,3.2,8.65,4.92,12.93,1.01,2.65,2.15,4.71,2.52,4.73.33-.08-.22-2.11-1.18-4.65.18.4.36.8.54,1.21s.35.68.36.54a5.479,5.479,0,0,0-.36-1.12c-.65-1.44-1.29-2.86-1.93-4.29q-1.92-5.115-3.71-10.27c-.34-.98-.68-1.96-1.01-2.94-.05-.14-.1-.29-.15-.43v-.01c-.2-.6-.4-1.21-.6-1.82-.12-.35-.24-.7-.35-1.05-.07-.21-.14-.43-.21-.64-2.56-7.84-4.82-15.77-6.62-23.81,1.96,7.97,4.37,15.87,7.08,23.73.09.27.19.55.28.82s.19.53.28.8c.16.47.33.93.5,1.4.12.37.26.74.39,1.11l.93,2.58q2.55,6.93,5.32,13.81c-.16-.28-.24-.29-.14.09a7.7,7.7,0,0,0,.49,1.23c.18.34.22.25.13-.08v-.03c2.48,6.15,5.06,12.3,7.65,18.47q1.065,2.52,2.13,5.05c.19.46.4.83.46.8a2.221,2.221,0,0,0-.29-.98l-1.98-4.71c-4.74-11.27-9.43-22.46-13.57-33.74-.06-.17-.13-.35-.19-.52-.23-.64-.47-1.28-.69-1.93-.17-.44-.32-.88-.48-1.32s-.31-.87-.46-1.31c-.08-.22-.16-.45-.24-.68-.1-.3-.21-.6-.3-.9a253.846,253.846,0,0,1-9.24-33.4c-.29-1.46-.47-2.92-.71-4.39h.01a10.45,10.45,0,0,0,.27-2.84,209.286,209.286,0,0,0,6.14,28q1.725,6.33,3.76,12.6c.1.32.21.65.32.98.06.18.12.36.18.55.13.41.27.82.41,1.23.17.5.34,1.01.5,1.51.28.79.55,1.58.83,2.37.42,1.21.85,2.41,1.28,3.61.39,1.09.82,1.96.97,1.93.14-.01-.08-.94-.48-2.09-.44-1.22-.88-2.44-1.3-3.68-.23-.62-.44-1.25-.65-1.88a15.178,15.178,0,0,0,.93,1.74c.27.43.49.66.65.67.2.01.25-.4.17-1.11-.04-.3-.09-.65-.17-1.05.12.32.24.63.37.95,2.96,7.74,6.24,15.29,9.64,22.61.21.45.36.67.35.49a4.218,4.218,0,0,0-.38-1.11c-3.18-7.46-6.23-14.87-8.98-22.34-.09-.21-.16-.42-.23-.63-.43-1.13-.84-2.26-1.23-3.4-.19-.52-.38-1.05-.55-1.57-.68-1.91-1.32-3.83-1.94-5.76a272.147,272.147,0,0,1-5.9-28.05,213.07,213.07,0,0,1-2.7-41.93c.24-2.46.45-4.91.8-7.34.16-1.22.28-2.44.48-3.65s.39-2.41.59-3.6c.02.69.12,1.11.28,1.13.04.01.09-.04.14-.09-.17,1.06-.33,2.12-.5,3.18-.13,1.06-.26,2.13-.38,3.2-.29,2.14-.46,4.3-.64,6.49a162.061,162.061,0,0,0,.52,29.99c.59,4.92,1.27,9.78,2.27,14.6.44,2.43,1.03,4.82,1.55,7.21.61,2.38,1.16,4.76,1.84,7.12,1.62,5.93,3.5,11.77,5.57,17.55.18.52.37,1.04.56,1.55,4.41,12.15,9.65,24.07,15.08,36.1.35.81.71,1.54,1.03,2.12a5.21,5.21,0,0,0,.98,1.44c.09.06.15.06.18-.01a2.874,2.874,0,0,0-.19-1.23,31.1,31.1,0,0,0-1.4-3.76c-.07-.17-.14-.34-.21-.5-4.99-11.81-9.75-22.87-13.96-34.35-.15-.4-.29-.8-.44-1.2-1.85-5.11-3.59-10.31-5.2-15.71-1.9-6.46-3.42-12.57-4.6-18.76a175.539,175.539,0,0,1-2.61-19.08,152.981,152.981,0,0,1,3.14-45.35c.39-1.45.76-2.91,1.09-4.4.4-1.49.79-2.96,1.18-4.44a123.656,123.656,0,0,1,6.24-16.61,128.413,128.413,0,0,1,8.49-15.37,122.349,122.349,0,0,0-15.1,38.34c-.21.96-.24,1.61-.11,1.54a6.042,6.042,0,0,0,.65-1.94,126.44,126.44,0,0,1,9.42-26.74,142.408,142.408,0,0,1,15.27-24.33c2.05-1.76,4.97-4.69,8.32-8.02,1.69-1.66,3.47-3.42,5.28-5.21,1.87-1.73,3.74-3.5,5.52-5.25,1.29-1.33,2.62-2.52,3.89-3.72s2.51-2.39,3.74-3.6c-1.23,1.04-2.44,2.06-3.67,3.1,1.78-1.59,3.34-3.15,4.89-4.6,1.58-1.4,3.07-2.77,4.55-4.14.28-.22.56-.42.86-.65,7.75-5.27,16.77-11.41,25.78-15.89a7.126,7.126,0,0,0-.8-.03c1.7-.76,2.8-1.01,4.65-1.85-.55.16-1.08.32-1.63.48l.11-.05c1.02-.38,2.13-.84,3.29-1.36q.87-.39,1.77-.81c.6-.28,1.23-.51,1.86-.78,1.43-.44,2.92-.92,4.47-1.46.77-.26,1.56-.53,2.35-.81.82-.23,1.64-.47,2.48-.72,1.66-.48,3.37-1.01,5.11-1.55,1.74-.51,3.55-.9,5.36-1.39.24-.07.49-.14.74-.2h.03c.02,0,.03-.01.05-.01.63-.19,1.27-.34,1.9-.52.91-.25,1.85-.39,2.77-.59q2.775-.585,5.57-1.18,2.8-.42,5.57-.84c.92-.14,1.84-.32,2.75-.42s1.82-.17,2.72-.25a6.771,6.771,0,0,0,2.24-.38c.12-.16-.66-.22-1.78-.16-1.09.02-2.16.04-3.22.05-1.06.05-2.11.16-3.17.24-1.07.1-2.14.19-3.23.28-.55.05-1.1.11-1.66.16s-1.13.18-1.71.27l-2.61.45h-.02c-1.25.21-2.5.43-3.74.64-2.09.45-4.16.97-6.25,1.46a62.226,62.226,0,0,0-6.26,1.77c-2.09.69-4.24,1.28-6.34,2.19-.51.19-1.02.36-1.52.54-.76.19-1.52.39-2.28.59l.31-.12c.96-.35,1.92-.71,2.88-1.06l-.56.12,2.76-1.1c.92-.34,1.86-.62,2.8-.93q2.79-.915,5.58-1.84,2.715-.63,5.53-1.3c.94-.22,1.88-.46,2.83-.69.96-.17,1.92-.36,2.89-.53,1.94-.34,3.89-.78,5.85-1.11l.21-.03h.05c1.9-.24,3.78-.51,5.67-.79l1.48-.22c.49-.06.99-.09,1.48-.13.57-.05,1.14-.1,1.7-.14h.01c.05,0,.09-.01.14-.01.37-.04.75-.07,1.11-.1.98-.1,1.96-.2,2.93-.28a8.71,8.71,0,0,1,.88-.08h.02c.4-.03.8-.03,1.2-.04h.08c.24-.01.48-.01.72-.03,1.92-.06,3.82-.14,5.68-.25.24.01.48.01.72.01h.04c1.6.05,3.16.06,4.7.06,1.28.06,2.19-.01,2.05-.18a1.313,1.313,0,0,0-.56-.19.037.037,0,0,1-.03-.01h-.02a14.631,14.631,0,0,0-1.99-.23c-1.75-.16-3.51-.39-5.27-.5-.3-.01-.59-.02-.89-.02h-.05c-.11-.01-.2-.01-.3-.01h-.02c-1.35-.04-2.7-.07-4.03-.11-.87-.02-1.75-.08-2.62-.06s-1.73.06-2.59.1c-1.72.06-3.42.1-5.09.13-.27,0,.16-.24-.35-.25-.25.01-.51.01-.77.02.82-.1,1.7-.12,2.65-.16,3.53-.55,4.86-.75,5.79-.89h.01s.01,0,.28-.04c.43-.08.8-.08,1.34-.13v-.02l.34-.03,1.6.03a7.421,7.421,0,0,0,1.48-.08c.21.04.43.09.71.14l3.06.08c.76.07,1.54.15,3.09.31a.288.288,0,0,0-.1-.13c.12.01,1.16.03,2.37.15.58.03.87.05,1.38.09.25.02.56.05.98.09.42.06.94.17,1.64.28-.07-.02-.26-.08-.77-.23.16.03.36.09.62.14-.02-.02-.08-.07-.24-.23.04.03.17.1.5.3l.55-.09s.01.01,2.33.87c.19.01.64.06,1.76.16a5.507,5.507,0,0,0,.56-.03c.04-.06.04-.06,1.04-.13A.148.148,0,0,0,609.68,1488.53Zm-44.14,1c-1.01.19-2.03.39-3.04.57-.5.1-1.01.19-1.51.29-.49.12-.98.24-1.47.37q-3.225.825-6.42,1.62c-2.11.61-4.18,1.33-6.26,1.99.48-.19.95-.37,1.44-.56.46-.18,1.4-.49.84-.46.97-.33,1.95-.65,2.93-.99.98-.32,2-.54,3-.82q3.015-.825,6.1-1.65c1.56-.32,3.08-.68,4.53-1.05,1.72-.03,3.49-.21,5.78-.23A52.71,52.71,0,0,0,565.54,1489.53Zm25.36-9.93,2.4-1.24.21.05Zm6.48,6.35c.11.02.29.06.57.13A4.2,4.2,0,0,1,597.38,1485.95Zm-42.81,4.77c-.78.09-1.56.17-2.15.24a6.482,6.482,0,0,0-.7.09c-.09.02-.15.03-.19.04.99-.12,1.51-.09,1.76-.12l.26-.01c.52-.1.99-.2,1.43-.29C554.86,1490.68,554.73,1490.7,554.57,1490.72Zm-99.95,86.4c1.52-2.78,3.13-5.52,4.84-8.18,1.7-2.68,3.5-5.29,5.37-7.86,1.13-1.69,2.31-3.36,3.52-5.01A120.05,120.05,0,0,0,454.62,1577.12Zm146.87-90.19c-.27.16-.47.27-.47.27l.84-.18C601.72,1486.98,601.61,1486.96,601.49,1486.93Zm.71-.39c.21.04.41.08.61.13A.7.7,0,0,0,602.2,1486.54Z" fill="#47aea9"/>
      </g>
    </g>
    <g id="Group_21" data-name="Group 21">
      <g id="Group_20" data-name="Group 20">
        <path id="Path_682" data-name="Path 682" d="M409.833,1733.864c-9.9-8.731-19.415-17.805-28.814-26.8-.316-.3-.616-.52-.675-.488s.155.3.45.575c9.4,9.005,18.863,18.039,28.763,26.776a2.174,2.174,0,0,0,.728.489C410.343,1734.383,410.142,1734.14,409.833,1733.864Z" fill="#47aea9"/>
        <path id="Path_683" data-name="Path 683" d="M341.692,1664.37c.269.155.3.1.08-.14a4.346,4.346,0,0,0-.829-.666c-.226-.13-.267-.062-.079.139A4.415,4.415,0,0,0,341.692,1664.37Z" fill="#47aea9"/>
        <path id="Path_684" data-name="Path 684" d="M443.14,1757.04q-4.455-3.075-8.95-6.18c2.22,1.62,4.44,3.23,6.65,4.85l1.67,1.2c.56.39,1.15.75,1.72,1.13l3.47,2.23c1.52.89,3.05,1.78,4.57,2.67Q447.74,1759.94,443.14,1757.04Zm23.87-22.17v.1l.01,1.17c.09.07.15.07.18-.01A3.023,3.023,0,0,0,467.01,1734.87Zm-23.87,22.17q-4.455-3.075-8.95-6.18c2.22,1.62,4.44,3.23,6.65,4.85l1.67,1.2c.56.39,1.15.75,1.72,1.13l3.47,2.23c1.52.89,3.05,1.78,4.57,2.67Q447.74,1759.94,443.14,1757.04Z" fill="#47aea9"/>
        <path id="Path_685" data-name="Path 685" d="M493.082,1657.561c.12-.49.2-1.01.27-1.39.01.07.03.2.06.45a13,13,0,0,1-.34,2.37C492.932,1659.041,492.872,1658.531,493.082,1657.561Z" fill="#47aea9"/>
        <path id="Path_686" data-name="Path 686" d="M493.342,1656.091v-.12c.04-.11.07-.22.11-.35-.01.09-.05.29-.1.55Z" fill="#47aea9"/>
        <path id="Path_687" data-name="Path 687" d="M497.08,1675.74c1.25-5.45,1.95-13.12,1.44-17.34a6.486,6.486,0,0,0-.51-2.15c-.2-.38-.44-.41-.68-.12a16.381,16.381,0,0,0-1.58,5.25c-.05.26-.1.52-.16.77.06-1.17.08-2.31.07-3.33a17.036,17.036,0,0,0-.37-3.74c-.22-.83-.58-.13-.89.03-.21-.14-.44.39-.65,1.35a36.139,36.139,0,0,0-.58,3.79c-.08.85-.14,1.66-.18,2.4v.01c-.51,3.42-1.04,6.85-1.63,10.11a6.789,6.789,0,0,0-.13,1.8c.07.31.22.04.35-.63.5-2.38.98-4.71,1.46-7.02,0,.24,0,.48.01.71.03-.17.06-.35.09-.53.03.31.03.68.03,1.09-.63,4.13-1.32,8.16-2.08,11.95-.04.22-.19-.18-.31.22q-.09.3-.18.63c.13-.69.26-1.4.38-2.18.09-2.98.13-4.1.15-4.88l.01-.01v-.24c.01-.36.02-.67.04-1.13a.035.035,0,0,1-.02.01v-.29c.07-.44.13-.88.2-1.32a5.87,5.87,0,0,0,.07-1.24c.06-.17.13-.35.21-.58.4-2.51.39-2.52.76-5.13,0,0-.05,0-.13.08.01-.11.05-.98.18-2,.09-.98.09-1,.38-3.43-.02.07-.07.26-.19.72.02-.15.07-.35.13-.63l-.24.24c.03-.04.1-.15.27-.44l-.14-.47.09-.26c.09-.26.28-.76.59-1.84,0-.17-.01-.58-.02-1.59,0,0-.04-.29-.08-.49-.07-.03-.07-.03-.25-.9a.163.163,0,0,0-.15.06c-.09.26-.09.26-.3.32,0,0-.09.3-.18.73-.06.41-.07.52-.29,2.04a3.617,3.617,0,0,0-.08-.38c-.37-.32-.35-.29-1.35,1.51a23.888,23.888,0,0,0-.65,2.64c-.25,1.91-.26,1.91-.58,4.09,0,0-.08.48-.22,1.3-.2.59-.25.73-.43,1.17.03-.42.05-.83.05-1.17-.02-1-.22-1.16-.45-.35-.46-1.15-1.05-.55-1.7.76-.14-.44-.33-.65-.54-.62a6.154,6.154,0,0,0-1.25-3.18l-.46-.24a9.233,9.233,0,0,0-1.5,3.66l-.18.59-.34-.62c-1.35,2.42-2.81,7.33-4.22,10.31l-.83,2.27a42.1,42.1,0,0,0-1.86,7.46l-.57,3.34c-.1.71-.19,1.41-.29,2.12-.05-3.64-.53-5.69-1.39-5.14-1.4.97-3.35,8.8-4.15,17.66-.64,5.89-1.22,11.77-1.61,17.77l-.28,4.52-.16,4.61c-.08,1.47-.02,3.09-.02,4.65a3.023,3.023,0,0,1,.19,1.26c-.03.08-.09.08-.18.01l.01,1.23.16,2.58.18,2.58c.01.07.02.14.03.22.12.89.27,1.83.42,2.75l.22,1.31.03.18.13.74.09.42.16.75.12.66a1.577,1.577,0,0,1,.13.26.486.486,0,0,1-.03.37.4.4,0,0,1-.35.19h-.18a.814.814,0,0,1-.14-.04l-.09-.02-.04-.02-.29-.14c-1.72-.84-3.43-1.69-5.12-2.52-.09-.05-.19-.09-.28-.14-.01-.01-.03-.01-.04-.02-1.75-.93-3.44-1.95-5.16-2.91-1.72-1-3.46-1.93-5.15-2.98l-5-3.25c-1.66-1.11-3.36-2.13-4.98-3.36-1.63-1.19-3.26-2.39-4.91-3.59-.82-.61-1.65-1.21-2.48-1.82-.8-.66-1.61-1.31-2.43-1.96-1.32-.98-2.64-1.97-3.94-2.96l-.89-.68c-1.07-.81-2.13-1.63-3.19-2.47q-.6-.45-1.2-.93c-1.38-1.07-2.74-2.15-4.1-3.24-.42-.33-.83-.66-1.25-1-7.6-6.1-15.05-12.37-22.61-18.73-10.36-8.71-18.9-14.88-28.66-22.1-.28-.21-.36-.18-.25-.02a4,4,0,0,0,.79.74c14.47,11.71,28.33,24.19,42.93,37.04.46.41.92.82,1.38,1.22.18.15.35.3.52.46,1.56,1.36,3.06,2.76,4.59,4.06.17.17.37.36.59.55q1.56,1.425,3.14,2.85c.34.31.67.61,1.01.91.13.12.25.24.38.35l-.41-.34-1.06-.89-.16-.14c-1.06-.93-2.08-1.59-2.3-1.49-.07.06.03.26.23.52-1.03-.8-2.05-1.6-3.08-2.39-1.01-.82-2.02-1.63-3.02-2.44-.44-.35-.88-.7-1.31-1.04-.79-.63-1.58-1.26-2.36-1.88s-1.58-1.26-2.37-1.88c-1.14-1.03-2.23-1.93-3.2-2.67-4.26-4.13-8.55-8.31-12.82-12.52l-1.04-1.07a20.791,20.791,0,0,0-3.75-3.05,1.475,1.475,0,0,0-.58-.23c-10.3-9.04-20.84-18.28-31.37-26.01-.54-.38-.87-.53-.86-.39a4.655,4.655,0,0,0-.66-.54c-1.32-.85-2.74-1.86-4.22-2.94-.34-.23-.54-.32-.43-.16a3.364,3.364,0,0,0,.74.68c1.52,1.1,3.02,2.16,4.43,3.09a.873.873,0,0,0,.32.15,9.74,9.74,0,0,0,1.15,1.04c10.49,8.43,20.43,16.83,30.38,25.94-5.07-4.27-10.24-8.63-15.69-13.21-3.33-2.74-6.5-5.38-9.8-7.9-3.27-2.55-6.51-5.14-9.98-7.76-.35-.28-.63-.43-.63-.35a2.067,2.067,0,0,0,.62.62c13.97,10.99,26.32,20.62,39.64,33.12.52.49,1.03.99,1.55,1.47-4.47-3.46-8.87-6.87-13.24-10.27-12.47-11.29-25.26-22.26-38.87-31.79-.65-.48-1.23-.79-1.29-.69s.44.6,1.09,1.08c1.85,1.46,3.73,2.87,5.56,4.36q2.7,2.265,5.42,4.54l2.72,2.27,2.65,2.34,3.75,3.32,1.17,1.03.39.35c-.14-.1-.29-.21-.43-.32-.39-.28-.78-.56-1.18-.85l-.28-.23-1.25-1.01c-4.58-4-9.37-7.75-14.16-11.52-1.81-1.38-3.48-2.3-3.78-2.1-.23.25.95,1.48,2.68,2.8l-.88-.58c-.29-.2-.54-.31-.49-.2a2.831,2.831,0,0,0,.7.62c1.08.69,2.09,1.43,3.12,2.16l6.69,5.49,5.79,4.98.78.67c.19.16.38.32.57.49,2.01,1.71,3.98,3.48,5.95,5.24,2.15,1.93,4.33,3.82,6.46,5.79q-5.64-4.845-11.39-9.66a1.679,1.679,0,0,0-.21-.18l-1.29-1.08h-.01c-.4-.34-.79-.66-1.19-.99-4.93-4.09-9.93-8.12-15.04-12.04.23.12.3.08.08-.14a4.683,4.683,0,0,0-.86-.64c-.27-.14-.27-.05-.08.14-2.71-2.01-5.45-4.02-8.17-6.04q-4.2-2.88-8.42-5.77c-.33-.23-.64-.38-.67-.32s.25.31.61.56c9.39,6.25,18.35,13.05,27.1,20.03,1.8,1.47,3.58,2.94,5.36,4.42.32.27.64.53.96.8.4.33.79.66,1.19.99.24.2.47.4.7.59l.03.03c5.82,4.88,11.56,9.81,17.23,14.73.89.81,1.77,1.63,2.66,2.45a6.505,6.505,0,0,0,1.19,2.04c-2.88-2.64-5.78-5.23-8.68-7.82-2.89-2.61-5.82-5.15-8.77-7.68l-3.52-3.18-.08-.07-1.19-1.03-1.36-1.17-.35-.3-.77-.67c-2.45-2.11-4.87-4.27-7.4-6.27-.73-.59-1.4-.99-1.51-.89s.42.66,1.17,1.28c1.22,1.01,2.47,1.98,3.65,3.04-1.1-.72-1.92-1.07-2.17-.9-.24.15.12.74.82,1.61-2.75-2.13-5.55-4.17-8.3-6.21-1.37-1.04-2.79-1.99-4.19-2.93s-2.81-1.88-4.2-2.81c-.32-.22-.53-.29-.45-.16a2.865,2.865,0,0,0,.7.61c1.97,1.42,3.94,2.83,5.9,4.25,1.92,1.47,3.83,2.95,5.75,4.43,3.22,2.42,6.31,5.01,9.43,7.58.62.51,1.24,1.02,1.86,1.52l.01.01c5.51,5.37,10.9,10.62,16.84,16.4,5.02,4.83,9.97,9.4,14.93,13.83.79.72,1.59,1.43,2.39,2.13q3.72,3.315,7.46,6.53c.28.25.56.49.84.73.13.11.25.22.38.33,1.03.97,2.06,1.94,3.1,2.89.69.66,1.38,1.3,2.08,1.94.98.92,1.97,1.83,2.96,2.73.27.25.53.5.8.74.04.04.08.07.12.11-.07-.04-.13-.07-.19-.1-.36-.19-.62-.26-.74-.21a.214.214,0,0,0-.05.03.2.2,0,0,0-.02.16c-1.21-1.1-2.42-2.19-3.63-3.29-.68-.62-1.36-1.24-2.05-1.86-.8-.73-1.6-1.46-2.41-2.19-.27-.25-.55-.51-.82-.75-.47-.44-.94-.88-1.41-1.3-2.3-2.13-4.57-4.23-6.83-6.33-.77-.71-1.54-1.43-2.31-2.13-8.51-7.87-16.85-15.52-25.32-22.81q-5.19-4.47-10.45-8.74a297.9,297.9,0,0,0-27.41-19.94c-1.67-1.1-3.03-1.68-3-1.29s1.43,1.61,3.09,2.7c8.37,5.77,16.17,11.56,24.05,17.82a1.055,1.055,0,0,1,.12.1c3.68,2.91,7.38,5.94,11.16,9.1,8.48,7.1,15.78,13.65,24.17,21.15.85.76,1.69,1.51,2.52,2.27.8.72,1.59,1.44,2.38,2.16q3.285,2.97,6.5,5.93c.71.64,1.42,1.29,2.13,1.93.92.83,1.84,1.67,2.76,2.5l2.13,1.92c3.39,3.03,6.81,6.04,10.37,9.06.94.87,1.9,1.74,2.9,2.57.31.24.62.49.92.72.73.58,1.46,1.16,2.19,1.73.31.25.62.5.92.76,1.68,1.37,3.36,2.75,5.02,4.12q3.045,2.34,6.08,4.67l3.01,2.34c1.03.75,2.08,1.47,3.12,2.21,2.07,1.48,4.15,2.94,6.22,4.41-8.5-5.35-16.58-11.19-24.4-17.15q-1.71-1.29-3.4-2.61l-1.56-1.2c-.66-.54-1.16-.82-1.17-.67a4.638,4.638,0,0,0,1.22,1.29c.3.25.6.49.91.73q1.725,1.41,3.48,2.8a254.438,254.438,0,0,0,36.89,24.86,41.415,41.415,0,0,0,3.5,2.64c.36.25.73.5,1.1.75.63.38,1.27.77,1.92,1.16a39.945,39.945,0,0,0,4.27,2.31,20.884,20.884,0,0,0,9.66,2.11,14.343,14.343,0,0,0,4.85-1.04c.4-.15.79-.29,1.18-.45l1.11-.58a13.881,13.881,0,0,0,2.06-1.41,15.975,15.975,0,0,0,4.3-5.52,20.243,20.243,0,0,0,1.95-6.72,21.658,21.658,0,0,1-1.99,6.04,22.21,22.21,0,0,0,1.98-8.76,38.414,38.414,0,0,0-.74-8.63c-.06-.4-.11-.8-.17-1.23-.1-1.12-.4-2.58-.37-3.1-.03-.74-.14-1.4-.18-2.23,0-1.8-.14-3.54-.04-5.57.01-.99.03-1.98.05-2.97l.18-3.07c.08-2.02.28-4.1.48-6.12-.14.17-.29.36-.44.53.22-1.5.49-2.34.72-4-.14.46-.27.89-.41,1.34l.01-.1a51.884,51.884,0,0,0,.86-6.09c1.1-4.98,2.16-11.11,3.12-17.6v-.01a18.712,18.712,0,0,0,.55-2.36q.09-.57.18-1.2c.08-.38.16-.8.23-1.17.06-.24.11-.45.16-.63,1.15-3.98,2.24-8.88,3.27-14.39-.26,1.05-.53,2.15-.78,3.2.3-1.59.6-3.15.83-4.94C497.3,1675.34,497.18,1675.56,497.08,1675.74Zm-49.38,84.53-3.47-2.23c-.57-.38-1.16-.74-1.72-1.13l-1.67-1.2c-2.21-1.62-4.43-3.23-6.65-4.85q4.5,3.105,8.95,6.18,4.6,2.91,9.13,5.9C450.75,1762.05,449.22,1761.16,447.7,1760.27Zm38.69-56.6c.45-3.3.91-6.65,1.38-10.09.17-1.28.31-2.55.41-3.77.49-1.32.97-2.72,1.46-4.54-.58,3.07-1.11,6.6-1.62,9.82-.59,3.59-1.13,7.1-1.65,10.61.04-.41.07-.82.1-1.24S486.61,1703.26,486.39,1703.67Zm2.71,6.39c-.08.44-.16.87-.24,1.3l-.54,1.86.03-.27c.14-.83.27-1.66.41-2.49l-.15.45c.4-3.21.86-6.42,1.33-9.62.43-2.34.86-4.77,1.27-7.26.1-.58.2-1.17.29-1.76q.45-2.775.86-5.6c-.06,1.47-.09,2.87-.09,4.18-.08.43-.15.85-.23,1.28-.12.65-.23,1.3-.35,1.94C490.74,1699.34,489.79,1704.5,489.1,1710.06Z" fill="#47aea9"/>
      </g>
    </g>
  </g>
</svg>
