<svg xmlns="http://www.w3.org/2000/svg" width="217.539" height="145.293" viewBox="0 0 217.539 145.293">
  <g id="ngli-arr" transform="translate(-351.216 -4716.457)">
    <g id="Group_27" data-name="Group 27">
      <path id="Path_5293" data-name="Path 5293" d="M381.536,4721.5c-.181.118-.359.236-.535.351a8.781,8.781,0,0,1,1.127-1.029c-.667.47-1.342.967-2.017,1.484l-.506.392-.436.419-.864.857c-.571.579-1.146,1.166-1.689,1.764-.457.62-.9,1.245-1.33,1.866a17.312,17.312,0,0,0-1.994,3.7q-.192.446-.377.878a7.236,7.236,0,0,0-.241.862c-.138.564-.258,1.1-.358,1.6-.16.351-.3.695-.411,1.015a3.707,3.707,0,0,0-.156.89c-.04.528.016.9.179.982s.4-.128.658-.539.482-1.027.844-1.72c.178-.3.363-.659.52-.874q.534-.723,1.064-1.524c.369-.53.854-1.062,1.277-1.626l1.314-1.746,1.607-1.787-1.412,1.408c.634-.709,1.257-1.406,1.862-2.213l-.4.238c.534-.613,1.252-1.24,1.916-1.9.332-.329.657-.666.971-1a11.8,11.8,0,0,1,.964-1c1.413-1.263,2.429-2.542,3.25-3.357.733-.85.725-1.225.1-1.124a5.849,5.849,0,0,0-1.388.507q-.458.216-1.017.519a7.765,7.765,0,0,0-1.134.722Z" fill="#47aea9"/>
      <path id="Path_5294" data-name="Path 5294" d="M375.052,4725.607c.75-.751,1.613-1.451,2.4-2.159l1.2-1.047,1.361-.986.421-.24-.605-.056v.037c-.265.356-.605.758-1,1.191l-1.113,1.444c-.4.507-.833,1.031-1.277,1.558s-.752,1.1-1.137,1.631l-.491.775c-.2.378-.281.639-.223.736.126.226.868-.385,1.645-1.357l.891-1.123c.642-.659,1.448-1.39,2.194-2.171.4-.384.722-.8,1.163-1.176s.86-.76,1.266-1.135a41.193,41.193,0,0,0,3.68-3.654c.23-.369-.365-.191-.67-.2-.173-.205-1.731.606-3.4,1.832-1.493,1.292-2.513,2.474-2.273,2.654a6.28,6.28,0,0,0-.763.656,4.2,4.2,0,0,1,.408-.566,16.979,16.979,0,0,1-1.849,2.646l-.6.691-.489.717c.481-.2.926-.415,1.43-.608l.551-.727c-.085.045-.232.136-.227.126.518-.7,1.02-1.376,1.534-2.07a7.88,7.88,0,0,1,.913-1.027l1.051-1.056a18.645,18.645,0,0,1,1.828-1.834c.486-.5.217-.532-.6-.075a10.772,10.772,0,0,0-1.141.716l.508-.327-3.419,2.731-2.994,2.861a2.034,2.034,0,0,0-.613.867C374.579,4726.037,374.775,4725.923,375.052,4725.607Z" fill="#47aea9"/>
      <g id="Group_26" data-name="Group 26">
        <path id="Path_5295" data-name="Path 5295" d="M381.859,4718.951a13.513,13.513,0,0,0,1.416-.917l.176-.192-.884.506C381.931,4718.713,381.72,4718.94,381.859,4718.951Z" fill="#47aea9"/>
        <path id="Path_5296" data-name="Path 5296" d="M383.451,4717.842l.368-.21-.28.129-.056.047Z" fill="#47aea9"/>
        <path id="Path_5297" data-name="Path 5297" d="M423.755,4804.4a226.079,226.079,0,0,0,36.011,10.727,4.106,4.106,0,0,0,.854.127,2.3,2.3,0,0,0-.685-.191,226.608,226.608,0,0,1-35.925-10.684,3.922,3.922,0,0,0-.765-.254C423.194,4804.142,423.421,4804.263,423.755,4804.4Z" fill="#47aea9"/>
        <path id="Path_5298" data-name="Path 5298" d="M520.3,4825.135c-.341,0-.333.03.017.07.3.034.837.068,1.175.068.287,0,.281-.035-.018-.069C521.123,4825.164,520.584,4825.135,520.3,4825.135Z" fill="#47aea9"/>
        <path id="Path_5299" data-name="Path 5299" d="M380.3,4718.911c.107-.072.211-.141.322-.207C380.454,4718.75,380.338,4718.811,380.3,4718.911Zm.059.351c.029.136.052.236.052.236l.153-.359C380.485,4719.184,380.43,4719.223,380.362,4719.262Zm20.306,74.719c-1.711-1.154-3.358-2.333-4.906-3.535s-3.035-2.427-4.446-3.67c-.967-.78-1.9-1.576-2.807-2.378A72.8,72.8,0,0,0,400.668,4793.981Zm-34.156-56c-.21.316-.429.63-.586.87a2.835,2.835,0,0,0-.174.288c-.017.038-.03.063-.037.08a8.369,8.369,0,0,1,.54-.7l.079-.1c.108-.219.2-.419.286-.6C366.585,4737.864,366.554,4737.918,366.512,4737.983Zm18.1-21.524a.446.446,0,0,1-.376.056s-.219.1-.5.248c-.256.158-.312.2-1.245.77a1.614,1.614,0,0,0,.127-.176c-.112-.213-.105-.221-1.8.327,0,0-.188.094-.517.267s-.811.424-1.327.763c-1.027.839-1.027.839-2.226,1.809,0,0-.265.208-.732.568-.425.243-.518.3-.847.482.184-.2.392-.384.532-.543.412-.478.319-.587-.223-.241.119-.623-.617-.445-1.732.083.073-.233.016-.37-.171-.389.467-.858.607-1.453.409-1.782l-.267-.205a11.037,11.037,0,0,0-2.917,1.587,3.465,3.465,0,0,0-.4.272,1.71,1.71,0,0,1-.022-.37,55.167,55.167,0,0,0-7.214,5.009l-1.392,1.173a10.67,10.67,0,0,0-1.57,1.706c-.537.693-1.124,1.492-1.687,2.368l-.953,1.881c-.181.4-.351.8-.532,1.2.439-2.072.314-3.288-.5-3.012-.681.244-1.73,1.49-2.834,3.323a20.146,20.146,0,0,0-2.089,6.871,32.031,32.031,0,0,0-.369,5.141,15.724,15.724,0,0,0,.123,2.556c.072.847.148,1.7.227,2.55.13.847.334,1.69.494,2.536.2.841.314,1.69.571,2.527l.807,2.516a20.36,20.36,0,0,0,.907,2.5c2.676,6.665,7.022,13.19,12.731,19.619a97.088,97.088,0,0,0,14.954,13.332,127.123,127.123,0,0,0,19.9,11.714,188.663,188.663,0,0,0,23.473,8.828c8.212,2.5,16.687,4.661,25.479,6.423,7.373,1.493,14.086,2.5,20.6,3.28s12.82,1.341,19.568,1.847c.39.032.435.006.242-.039-.307-.058-.851-.115-1.2-.142-10.612-1-21.281-2.366-31.843-4.358q-7.92-1.471-15.706-3.408c-2.608-.628-5.157-1.339-7.737-2.04-2.547-.744-5.117-1.485-7.62-2.308-2.336-.72-4.515-1.522-6.711-2.287-.232-.1-.479-.2-.762-.3-1.92-.756-3.866-1.495-5.723-2.3.671.265,1.33.531,2,.8a13.326,13.326,0,0,0,2.788.852c.048-.03-.1-.13-.38-.271,5.078,1.8,10.26,3.379,15.567,4.789,1.53.464,3.015.83,4.3,1.131,5.986,1.748,12.207,3.309,18.576,4.7l1.577.351a46.625,46.625,0,0,0,5.279.868,3.718,3.718,0,0,0,.692.024,387.038,387.038,0,0,0,44.874,4.834c.728.038,1.123.024,1.014-.027.266.029.621.057.944.068,1.723.052,3.642.145,5.662.235.447.014.691,0,.49-.032a9.121,9.121,0,0,0-1.1-.1c-2.062-.086-4.087-.191-5.95-.251a2.037,2.037,0,0,0-.371.01c-.408-.056-1.06-.121-1.707-.162a405.924,405.924,0,0,1-43.827-5.01c7.2,1.15,14.6,2.149,22.46,2.963,9.471.991,18.246,1.536,27.807,2.11a2.373,2.373,0,0,0,.784,0,5.367,5.367,0,0,0-.95-.1c-4.9-.307-9.646-.619-14.33-.966s-9.3-.754-13.934-1.231a283.455,283.455,0,0,1-28.233-4.23c-.76-.159-1.528-.311-2.273-.476,6.093,1.064,12.164,1.934,18.233,2.65a507.78,507.78,0,0,0,55.107,4.768,7.053,7.053,0,0,0,1.609-.014,7.909,7.909,0,0,0-1.662-.179c-10.34-.619-20.747-1.355-31.081-2.427l2.187.142,2.172.166c6.664.584,13.362,1.038,20.084,1.4a22.224,22.224,0,0,0,4.749.009,17.353,17.353,0,0,0-4.2-.5c.389.013.778.026,1.174.042s.68.006.573-.026a9.7,9.7,0,0,0-1.039-.092c-1.412-.05-2.8-.1-4.189-.147-12.715-.841-25.4-1.921-37.86-3.593,13.464,1.665,27.31,2.689,41.3,3.455-.287,0-.324.032.02.072.294.031.886.068,1.181.066.333,0,.277-.034-.025-.067l-.023-.006c7.508.4,15.059.743,22.65,1.1a3.255,3.255,0,0,0,.814-.012,4.019,4.019,0,0,0-.9-.091c-12.569-.592-25.043-1.14-37.356-2s-24.462-2.045-36.251-3.774c-1.29-.189-2.548-.423-3.828-.633l0,0a14.393,14.393,0,0,0-2.21-.687c8.2,1.423,16.537,2.538,24.971,3.414,7.012.785,14.086,1.411,21.2,1.92a8.441,8.441,0,0,0,1.922.027,8.055,8.055,0,0,0-1.872-.247c-1.739-.127-3.482-.251-5.223-.4a8.7,8.7,0,0,0,2.53-.108c.12-.107-.578-.27-1.762-.447,7.662.491,15.292.808,22.765,1.022.439.012.675,0,.521-.033a7.86,7.86,0,0,0-1.038-.083c-10.843-.481-21.494-1.051-32.059-1.992-8.284-.942-16.26-2.075-24.924-3.516a343.58,343.58,0,0,1-35.06-7.6c-1.912-.6-3.828-1.183-5.677-1.817-.93-.311-1.882-.609-2.789-.933s-1.819-.646-2.719-.968a2.414,2.414,0,0,0,1.026.127c.022-.013,0-.043-.021-.072.8.283,1.6.563,2.4.846.815.267,1.637.537,2.463.8,1.633.551,3.326,1.06,5.039,1.579a251.435,251.435,0,0,0,24.57,5.975c4.211.787,8.407,1.527,12.687,2.137,2.126.33,4.283.6,6.414.89,2.156.257,4.29.537,6.456.763,17.252,1.914,34.7,2.647,52.516,3.249a22.1,22.1,0,0,0,3.618-.036c.087-.02.109-.043.057-.071a4.787,4.787,0,0,0-1.065-.179c-.879-.095-2.193-.186-3.563-.239-17.048-.783-32.541-1.408-49.222-3.079-5.932-.6-11.45-1.279-16.9-2.1s-10.817-1.763-16.452-2.929a217.494,217.494,0,0,1-35.726-10.534c-1.044-.449-2.1-.89-3.185-1.323q-1.6-.688-3.185-1.365a116.935,116.935,0,0,1-11.252-5.805,91.275,91.275,0,0,1-9.428-6.409,111.683,111.683,0,0,0,25.713,13.664,3.412,3.412,0,0,0,1.217.36,5.954,5.954,0,0,0-1.346-.649,123.514,123.514,0,0,1-18.336-9.1,89.785,89.785,0,0,1-14.259-10.844c-.7-1.148-2.022-2.867-3.516-4.832-.741-.988-1.529-2.031-2.329-3.091-.732-1.071-1.5-2.152-2.283-3.193-.609-.765-1.1-1.52-1.614-2.252s-1.038-1.451-1.582-2.172c.4.685.795,1.357,1.2,2.042-.645-1.007-1.354-1.926-1.972-2.816-.568-.893-1.144-1.744-1.724-2.592-.073-.151-.138-.3-.219-.463-1.486-4.048-3.217-8.759-3.608-13.126a3,3,0,0,0-.312.3c-.011-.809.189-1.279.169-2.161-.064.245-.129.479-.193.724v-.052a14.082,14.082,0,0,0,.081-1.538q-.006-.414-.025-.845c0-.286.033-.575.039-.871q.242-.955.428-2.01c.065-.348.129-.706.192-1.064.107-.362.2-.725.311-1.1.2-.734.394-1.5.58-2.273.217-.77.546-1.544.8-2.336.031-.106.066-.215.109-.323l0-.013c.084-.287.185-.569.277-.854.123-.4.351-.787.518-1.181.351-.788.706-1.579,1.054-2.372q.668-1.159,1.322-2.3c.222-.38.411-.767.653-1.137.257-.366.522-.73.784-1.09.338-.431.559-.863.492-.937-.083-.078-.412.209-.769.649-.377.421-.747.834-1.122,1.241-.343.415-.627.841-.946,1.262s-.623.856-.937,1.293c-.159.22-.31.443-.473.667s-.257.47-.395.71c-.2.362-.383.727-.579,1.09l-.007.007c-.277.522-.555,1.044-.828,1.562-.391.891-.711,1.791-1.071,2.69a13.886,13.886,0,0,0-.821,2.758,15.481,15.481,0,0,0-.5,2.876c-.034.233-.075.464-.114.691-.116.331-.232.661-.34.994l.009-.144c.062-.44.116-.881.178-1.32l-.1.24.1-1.281c.056-.422.166-.839.252-1.263q.261-1.255.521-2.511c.305-.78.622-1.572.937-2.383.157-.4.307-.813.46-1.224.2-.4.4-.808.608-1.215.424-.812.772-1.647,1.211-2.465l.052-.086.014-.015q.732-1.165,1.41-2.334l.352-.612c.13-.2.286-.4.432-.592l.494-.68,0,0c.12-.168.24-.337.364-.5.275-.4.55-.789.829-1.178a2.721,2.721,0,0,1,.254-.353c.131-.17.283-.331.43-.5l.007-.008c.079-.093.166-.185.236-.281.646-.746,1.26-1.491,1.845-2.224.094-.09.181-.181.268-.273l.014-.015c.617-.6,1.188-1.2,1.743-1.785.518-.476.783-.84.6-.82a1.178,1.178,0,0,0-.36.174,7.557,7.557,0,0,0-.926.732c-.766.635-1.583,1.262-2.312,1.911-.117.113-.229.221-.337.336l-.019.019a1.393,1.393,0,0,0-.116.113l-.007.008c-.519.508-1.03,1.018-1.541,1.518-.33.329-.695.654-.993.99s-.577.674-.856,1.011c-.573.669-1.155,1.327-1.734,1.972-.1.1-.132-.109-.324.084-.082.1-.176.2-.262.3a10.025,10.025,0,0,1,.822-1.047c.832-1.462,1.146-2.013,1.371-2.4l0,0s0,0,.062-.117a4.6,4.6,0,0,1,.381-.538l-.016,0c.032-.044.064-.089.1-.136l.6-.606a2.542,2.542,0,0,0,.471-.582c.107-.072.226-.146.367-.244l1.167-1.154c.338-.274.682-.556,1.368-1.117a.5.5,0,0,0-.139.012c.052-.044.443-.437.974-.876.241-.214.361-.321.577-.508.106-.091.242-.2.425-.356.2-.153.481-.333.843-.583l-.49.26c.082-.055.2-.12.343-.207-.031,0-.093.015-.277.044.038-.01.141-.045.426-.129l.119-.231s.012,0,1.552-.711c.077-.07.278-.232.762-.641a1.907,1.907,0,0,0,.178-.22c-.033-.027-.033-.027.273-.423A.256.256,0,0,0,384.614,4716.459ZM369.5,4733.542c-.207.426-.417.857-.631,1.281-.1.211-.206.426-.308.637-.082.211-.156.425-.23.638-.334.934-.663,1.865-1,2.789-.272.931-.434,1.87-.648,2.8.023-.222.043-.44.07-.665s.1-.637-.076-.417c.081-.439.174-.88.259-1.323s.279-.876.411-1.317c.283-.88.565-1.77.858-2.672.3-.663.558-1.318.781-1.948.6-.664,1.094-1.377,1.9-2.256A14.145,14.145,0,0,0,369.5,4733.542Zm1.084-11.739-.145-1.174.115-.07Zm7.5-1.171c.056-.038.152-.1.309-.192A2.683,2.683,0,0,1,378.081,4720.632Z" fill="#47aea9"/>
      </g>
    </g>
    <g id="Group_29" data-name="Group 29">
      <g id="Group_28" data-name="Group 28">
        <path id="Path_5300" data-name="Path 5300" d="M511.908,4843.365c-10.67,1.99-21.479,3.759-32.181,5.5a2.042,2.042,0,0,0-.639.158,2.153,2.153,0,0,0,.629-.054c10.71-1.739,21.469-3.5,32.143-5.487a2.611,2.611,0,0,0,.661-.178A1.817,1.817,0,0,0,511.908,4843.365Z" fill="#47aea9"/>
        <path id="Path_5301" data-name="Path 5301" d="M430.832,4855.117c.223-.071.187-.1-.084-.06a6.256,6.256,0,0,0-.842.18c-.187.06-.146.09.086.059A6.057,6.057,0,0,0,430.832,4855.117Z" fill="#47aea9"/>
        <path id="Path_5302" data-name="Path 5302" d="M542.766,4835.4l-8.253,2.15q3.177-.772,6.342-1.545l1.578-.391c.519-.134,1.025-.285,1.539-.425l3.065-.868,3.82-1.2C548.141,4833.865,545.451,4834.624,542.766,4835.4Zm-9.406-13.69.082.021.954.237c.09-.02.111-.043.057-.071A5.019,5.019,0,0,0,533.36,4821.709Zm9.406,13.69-8.253,2.15q3.177-.772,6.342-1.545l1.578-.391c.519-.134,1.025-.285,1.539-.425l3.065-.868,3.82-1.2C548.141,4833.865,545.451,4834.624,542.766,4835.4Z" fill="#47aea9"/>
        <path id="Path_5303" data-name="Path 5303" d="M479.93,4795.83c-.355-.146-.749-.284-1.032-.389.06.011.173.03.387.07a17.046,17.046,0,0,1,1.8.617C481.079,4796.192,480.643,4796.11,479.93,4795.83Z" fill="#47aea9"/>
        <path id="Path_5304" data-name="Path 5304" d="M478.829,4795.428l-.1-.024c-.075-.038-.154-.072-.245-.114.069.022.217.078.411.151Z" fill="#47aea9"/>
        <path id="Path_5305" data-name="Path 5305" d="M496.15,4798.042a86.128,86.128,0,0,0-13.574-4.119,11.5,11.5,0,0,0-1.932-.247c-.381,0-.492.084-.343.235a16.743,16.743,0,0,0,3.7,1.685c.193.072.386.145.568.219-.93-.264-1.849-.506-2.682-.712a28.253,28.253,0,0,0-3.173-.628c-.754-.087-.315.195-.3.346-.19.052.158.249.863.527s1.678.633,2.871,1c.662.205,1.3.4,1.886.562l.008,0c2.6.9,5.192,1.808,7.629,2.7a9.631,9.631,0,0,0,1.416.42c.278.037.112-.075-.385-.263-1.755-.681-3.475-1.344-5.18-2,.2.049.391.1.581.142l-.4-.143c.263.052.563.128.9.213,3.129,1.09,6.156,2.184,8.962,3.254.165.061-.215.036.067.164q.212.1.447.2c-.514-.192-1.044-.388-1.635-.594-2.389-.648-3.285-.894-3.912-1.062l-.005-.006-.2-.049c-.289-.078-.537-.146-.9-.248v.01l-.235-.06c-.333-.117-.669-.231-1-.348a8.406,8.406,0,0,0-.983-.282c-.116-.058-.237-.122-.395-.2-1.9-.669-1.908-.668-3.9-1.346,0,0-.018.019.018.066-.086-.027-.778-.221-1.56-.481-.764-.236-.781-.24-2.651-.851.05.022.186.081.517.221-.115-.038-.26-.1-.466-.179l.109.141c-.022-.02-.086-.069-.26-.194l-.433-.043-.179-.088c-.179-.088-.517-.264-1.282-.6-.139-.035-.475-.116-1.3-.32,0,0-.25-.044-.427-.07-.05.02-.05.02-.822-.09,0,0-.041.023-.005.07.179.088.179.088.152.18,0,0,.211.1.528.22.311.107.4.133,1.553.53-.121-.021-.229-.034-.337-.047-.394.075-.362.074.74.827,0,0,.694.332,1.911.791,1.462.489,1.459.493,3.115,1.064,0,0,.361.129.977.352.408.2.5.245.8.4-.33-.1-.656-.19-.933-.26-.82-.2-1.022-.155-.447.1-1.1-.061-.825.288.005.806-.409-.037-.648-.007-.7.079a11.059,11.059,0,0,0-3.036-.176l-.361.126a7.866,7.866,0,0,0,2.434,1.327l.414.19-.627,0c1.48,1.014,4.944,2.583,6.858,3.735l1.545.785a47.631,47.631,0,0,0,5.393,2.246l2.509.905c.541.185,1.077.363,1.618.548-2.977-.73-4.816-.969-4.679-.527.283.735,5.944,3.092,12.856,5.222,4.557,1.456,9.127,2.888,13.863,4.272l3.573,1.038,3.689,1.01c1.166.333,2.5.643,3.772.964a5.019,5.019,0,0,1,1.093.187c.054.028.033.051-.057.071l1,.249,2.154.47,2.162.462c.824.152,1.714.3,2.577.439l1.3.211.648.1.374.052.668.093.579.09c.12,0,.147-.006.259,0a.671.671,0,0,1,.29.087.1.1,0,0,1,.028.173l-.065.069a.485.485,0,0,1-.083.045l-.049.031-.031.011-.218.082q-2.07.769-4.111,1.517c-1.391.482-2.845.924-4.258,1.386-1.433.451-2.817.925-4.281,1.355l-4.446,1.243c-1.5.407-2.943.847-4.528,1.213q-2.332.567-4.69,1.138c-.791.188-1.578.382-2.374.574-.825.17-1.646.346-2.47.526-12.371,2.95-24.943,5.461-37.809,8.04-10.818,2.168-18.915,4.164-28.306,6.41-.272.064-.276.1-.106.091a5.786,5.786,0,0,0,.886-.15c15.207-3.222,30.842-6.023,47.088-9.068,1.856-.354,3.726-.672,5.518-1.023.2-.03.426-.068.66-.113,1.655-.291,3.317-.59,4.976-.886l-1.7.341a6.236,6.236,0,0,0-2.041.573c.023.039.222.042.505.019-1.022.229-2.04.455-3.054.686-1.031.217-2.053.437-3.073.653q-3.055.661-6.081,1.321c-1.248.224-2.373.456-3.325.674-4.894.779-9.84,1.559-14.8,2.325l-1.244.178a28.449,28.449,0,0,0-3.833.806,1.226,1.226,0,0,0-.4.174c-11.065,2.078-22.379,4.207-32.462,6.642-.5.128-.744.223-.627.248a6.512,6.512,0,0,0-.677.142c-1.167.329-2.5.665-3.913,1.008-.309.083-.455.141-.285.132a4.965,4.965,0,0,0,.82-.143c1.443-.355,2.845-.711,4.11-1.058a.828.828,0,0,0,.238-.092c.317-.038.8-.124,1.26-.225,10.637-2.276,21.052-4.348,32.047-6.278-5.3,1.06-10.709,2.139-16.4,3.281-3.429.709-6.718,1.378-9.958,2.121-3.252.725-6.527,1.431-9.908,2.219-.354.076-.577.152-.512.169a3.3,3.3,0,0,0,.727-.11c13.975-3.08,26.259-5.82,41.225-8.34.586-.1,1.177-.19,1.755-.29-4.426,1-8.785,1.977-13.126,2.948-13.676,2.445-27.208,5.078-39.866,8.32-.625.15-1.086.308-1.026.351a4.628,4.628,0,0,0,1.271-.194c1.854-.407,3.679-.836,5.55-1.229q2.815-.565,5.646-1.138l2.827-.573,2.858-.531,5.737-1.063c-.512.126-1.021.248-1.532.375l-1.56.329c-4.9.928-9.681,1.988-14.474,3.044-1.775.408-3.125.857-3.071,1.013a10.069,10.069,0,0,0,3.243-.449l-.789.217c-.267.07-.447.143-.339.147a4.18,4.18,0,0,0,.756-.14c.951-.271,1.917-.505,2.882-.749l6.876-1.428,6.964-1.349c2.309-.462,4.662-.885,7.01-1.314s4.667-.869,7.037-1.278c-10.01,1.942-20.092,3.96-29.979,6.209.181-.064.174-.1-.084-.06a6.3,6.3,0,0,0-.831.2c-.211.075-.138.093.085.06-2.612.622-5.234,1.256-7.858,1.881q-3.856,1.012-7.728,2.031c-.306.079-.54.167-.5.191a2.4,2.4,0,0,0,.675-.118c8.469-2.3,17.229-4.331,26.06-6.24,8.892-1.856,17.833-3.6,26.716-5.3.979-.174,1.963-.342,2.951-.513a11.685,11.685,0,0,0,2.088-.035c-3.186.558-6.337,1.133-9.489,1.709s-6.286,1.166-9.407,1.773l-3.941.708-3.9.75c-2.6.5-5.228.984-7.767,1.539a3.38,3.38,0,0,0-1.268.395,4.966,4.966,0,0,0,1.463-.184c1.261-.259,2.5-.537,3.788-.77-.982.272-1.563.514-1.515.644s.645.107,1.605.018c-2.724.613-5.392,1.264-8.043,1.9-1.34.309-2.624.657-3.894,1s-2.542.687-3.8,1.027c-.294.077-.427.143-.293.139a4.17,4.17,0,0,0,.749-.142c1.865-.461,3.722-.924,5.583-1.381q2.832-.647,5.676-1.287c3.75-.879,7.639-1.638,11.483-2.446,6.353-1,12.565-1.982,19.407-3.063,10-1.613,19.288-3.312,28.524-5.095q5.091-.85,10.105-1.733c-.423.139-.639.25-.581.317a.24.24,0,0,0,.123.04c-2.939.521-5.885,1.05-8.886,1.583-13.921,2.416-27.386,4.668-40.323,7.171s-25.347,5.25-36.974,8.574c-1.5.412-2.459.813-2.131.881a13.755,13.755,0,0,0,3.31-.625c11.35-2.968,22.306-5.442,34.711-7.948,8.832-1.781,16.79-3.224,25.914-4.889,10.692-1.94,20.834-3.626,31.335-5.7,1.046-.181,2.1-.369,3.135-.58l3.114-.685q3.065-.639,6.11-1.267l5.99-1.364,2.988-.669c.981-.239,1.946-.493,2.922-.738,1.95-.487,3.888-.982,5.829-1.471-8.995,2.607-18.352,4.828-27.631,6.913-.677.141-1.085.274-.967.309a7.355,7.355,0,0,0,1.489-.2,331.484,331.484,0,0,0,37.972-9.941c.947-.182,2.112-.455,3.409-.795.333-.086.67-.176,1.007-.266.536-.163,1.084-.327,1.635-.495,1.12-.333,2.313-.722,3.419-1.158a12.857,12.857,0,0,0,5.2-3.259,3.572,3.572,0,0,0,.905-2.068c.022-.184.049-.362.06-.544l-.071-.544a3.523,3.523,0,0,0-.4-1.078,8,8,0,0,0-2.935-2.78,21.6,21.6,0,0,0-4.758-2.129,21.811,21.811,0,0,1,4.191,2,26,26,0,0,0-6.406-2.56,63.088,63.088,0,0,0-7.281-1.493c-.347-.059-.69-.122-1.061-.188-.947-.192-2.242-.378-2.653-.5-.613-.141-1.189-.235-1.878-.391-1.463-.37-2.928-.675-4.542-1.131-.8-.207-1.6-.419-2.4-.63l-2.43-.7c-1.613-.446-3.232-.95-4.8-1.443.087.089.188.185.272.278-1.14-.393-1.725-.669-2.992-1.1.324.148.626.287.942.433l-.078-.025c-1.285-.5-2.916-1.051-4.64-1.582-3.651-1.445-8.25-3.112-13.179-4.815l-.008,0a25.948,25.948,0,0,0-2.63-1.012c-.458-.177-1-.377-1.323-.519-2.82-1.259-6.409-2.684-10.516-4.212.76.315,1.556.645,2.319.957-1.184-.442-2.343-.878-3.715-1.335C495.9,4797.876,496.04,4797.967,496.15,4798.042Zm50.887,36.278-3.065.868c-.514.14-1.02.291-1.539.425l-1.578.391q-3.171.768-6.342,1.545l8.253-2.15c2.685-.775,5.375-1.534,8.091-2.277Zm-30.4-26.017c-.319-.1-.641-.2-.972-.293s-.925-.3-.671-.132l-7.7-2.6c-.979-.329-1.961-.644-2.916-.933-.9-.459-1.861-.931-3.163-1.493,2.286.854,4.964,1.783,7.4,2.641C511.314,4806.453,513.972,4807.382,516.637,4808.3Zm-9.941-5.312c4.807,1.757,9.332,3.472,14.47,5.166.329.121.65.24.97.359l1.317.589-.208-.067c-.625-.224-1.252-.444-1.876-.669l.311.15c-2.465-.813-4.908-1.65-7.339-2.488-3.436-1.268-7.161-2.614-11.01-3.934C504.5,4802.422,505.631,4802.722,506.7,4802.991Z" fill="#47aea9"/>
      </g>
    </g>
  </g>
</svg>
