<svg xmlns="http://www.w3.org/2000/svg" width="38.039" height="32.914" viewBox="0 0 38.039 32.914">
  <g id="ok" transform="translate(-639.811 -5183.489)">
    <path id="Path_16258" data-name="Path 16258" d="M671.949,5194.6c-.079-.991.709,0,.788,3.968v-2.976c.079-.992.236,0,.394,0a9.575,9.575,0,0,0,.079,1.984h.314l-.021-1.994c.079,0,.336.01.415.01.079,1.984.236,1.984.236,0,.079.993.158.993.316.993.078,2.974.078,8.978.078,7.987a27.13,27.13,0,0,1,.2,4.585l-.042,2.8-.007.676,0,1.013c0,.737,0,1.439.013,2.1l.007.5-5.231.067c-1.278.015-2.581.024-3.9.027-2.639.008-5.345,0-8.052-.015s-5.417-.022-8.063-.017q-1.986,0-3.915.024l-5.375.064h-.057l-.042-3-.009-.689-.01-.414-.018-.83-.065-3.345c-.038-2.242-.068-4.5-.091-6.776s-.04-4.552-.051-6.829l-.014-3.411-.009-5.335,11.541,0c0,.157-.992.393,0,.472,3.966.236,3.966.551,3.966.866,0,.158-2.974,0-1.984.158-2.974,0-3.134.079-.156.236a6.009,6.009,0,0,1,1.147.236c.993.237-.991.473,0,.709h1.182c.989.158-.321,1-.931,1,0,0-3.975.031-6.186.043l-3.318.018-.83.005-.416,0h-.13l-.13.01.01.134v.159l0,.422.005.844.018,3.379.035,6.764.032,6.77.014,3.385.007,1.419.007.02.024-.008,1.971-.006,3.942-.013,7.879-.017,7.868-.008h5.88l-.023,0,0,.015v.007l0-.553.005-2.522.017-5.037c.018-3.353.036-6.153.053-9.489Z" fill="#2b7a78"/>
    <path id="Path_16259" data-name="Path 16259" d="M676.1,5186.254l-.458.265-.229.132c-.076.045-.15.094-.225.14l-.9.564a51.47,51.47,0,0,0-6.746,5.25q-1.586,1.457-3.079,3.017t-2.882,3.219q-1.392,1.653-2.684,3.382l-.319.433-.159.217-.27.379-.284.4-.143.2c-.047.067-.093.13-.148.213l-.633.939c-.054.077-.106.16-.157.243l-.156.248-.312.5-.628,1.011-1.229,1.985-1.288-3.4-.161-.424c-.026-.075-.055-.13-.083-.193l-.084-.185-.168-.37-.085-.185-.042-.093-.021-.046-.024-.04-.386-.639c-.064-.107-.128-.215-.2-.316l-.142-.2a21.473,21.473,0,0,0-1.668-2.072,39.284,39.284,0,0,0-4-3.792c-.158-.139-.278-.251-.364-.338a.712.712,0,0,1-.153-.19c-.028-.049-.026-.078,0-.09a.139.139,0,0,1,.06-.007c.015,0,.021,0,.036,0a.386.386,0,0,1,.046.008,6.869,6.869,0,0,1,1.433.671c-.381-.214-.231-.4-.616-.607.073-.092.341-.082.765.09a6.679,6.679,0,0,1,1.679,1.07q-.486-.444-.987-.873c-.284-.345.153-.181.256-.3.338.288.667.584.72.525l.21-.235c-.332-.3-1.012-.883-1.36-1.164.346.284.686.574.737.515l.2-.24a10.652,10.652,0,0,1,1.182,1.05c.4.4.794.8,1.142,1.1l.167-.167a11.847,11.847,0,0,0-1.129-1.125c-.424-.379-.863-.739-1.208-1.034.4.236.447.18.551.06a15.394,15.394,0,0,1,1.5,1.407,14.927,14.927,0,0,0,1.521,1.415q-.471-.511-.96-1a5.094,5.094,0,0,1,1.613,1.435c.14.17.282.343.417.523l.205.266.2.267c.132.174.255.351.378.514.061.082.12.163.177.242l.086.115.043.055.011.014.007.009h0a1.308,1.308,0,0,1,.345.442l.013.03c0,.009.006,0,.009-.006l.01-.017.039-.066c.026-.043.052-.084.079-.125l.082-.119.093-.125.64-.849c.3-.4.61-.792.922-1.181,1.236-1.563,2.513-3.052,3.672-4.452.867-1.057,1.8-2.1,2.788-3.111l.37-.381.381-.372c.256-.247.509-.5.77-.742l.791-.725.2-.181.2-.176.407-.352c.538-.474,1.1-.92,1.66-1.371.282-.222.571-.436.855-.654l.428-.323c.144-.106.291-.208.436-.312l.873-.617.887-.587.442-.29c.149-.095.3-.185.45-.277l.9-.546c.079.136-.193.579.24.407a4.1,4.1,0,0,1,1.593-.435.454.454,0,0,1,.419.3c.069.13-1.182,1-.715.916a2.424,2.424,0,0,1,.621-.147c.5-.009-.156.63.34.622.1-.053.213-.124.347-.192l.425-.217.776-.4c.455-.055-.007,1.112.378.914Z" fill="#2b7a78"/>
  </g>
</svg>
