<svg xmlns="http://www.w3.org/2000/svg" width="8.5" height="7.276" viewBox="0 0 8.5 7.276">
  <path id="Path_4314" data-name="Path 4314" d="M113.666,1812.952l-.012.027c.014-.033.025-.055.014-.031l-.059.109-.013.018.008-.011-.048.06c-.012.013-.022.022-.012.013l-.018.019c-.006.005,0,0,0,0l-.027.022h0l-.01.007s0,0,0,0l0,0h0l-.032.019h0l0,0h0l.037-.022-.037.022.021-.01-.009,0,.042-.016c-.006,0-.05.02-.025.009l.03-.011.035-.009h0l.036-.007.043-.005.024,0a.787.787,0,0,1,.108,0c.023,0,0,0,0,0l.019,0h0c-.01,0,.056.011-.031-.007-.172-.035-.194-.043-.144-.034l.219.05.018.006h0l-.281-.141c.1.043.324.165.258.13l-.551-.312a4.585,4.585,0,0,1-.614-.437c-.205-.109-.39-.2-.481-.234a3.019,3.019,0,0,1-.212-.307,3.855,3.855,0,0,1,.478.352l-.115-.1a5.576,5.576,0,0,1,.787.556l-.341-.2c.313.232.678.46,1,.654l-.145-.094c.068.045.213.137.177.114l-.153-.1.143.1,0,0,0,0h0a.4.4,0,0,1-.046-.035l-.026-.023-.062-.061-.207-.219a1.952,1.952,0,0,1-.473-.744c.138.224.267.394.4.576l.21.286c.052.072.051.072.046.065h0a.6.6,0,0,0,.066.078l-.008-.008-.047-.055-.019-.027a.5.5,0,0,1-.035-.057l.015.027a.44.44,0,0,1-.027-.054l0,.01-.008-.022h0l0-.012c-.014-.069,0-.006,0-.019l0,.022v-.025l0-.286c0,.019-.006.437,0,.325v.011c0-.016,0,.041,0-.034l.011-.179.035-.356a8.319,8.319,0,0,1,.3-1.4c-.075.358-.159.97-.262,1.539l-.073.414-.016.088h0v0l0-.019-.011.055.08-.369-.085.39-.011.034,0-.012a3.434,3.434,0,0,1,.2-.523l-.207.558v0l-.01.026.084-.195.121-.255-.22.482-.023.045.009-.015c.013-.014-.12.177.2-.3.23-.337.5-.668.525-.612-.078.087-.3.367-.51.642l-.254.332h0l.226-.265c.193-.222.425-.473.668-.711a4.355,4.355,0,0,1,1.251-.945l-.221.245a3.865,3.865,0,0,1,.387-.118,12.119,12.119,0,0,0-1.455,1c-.254.207-.492.423-.692.623l-.143.147-.024.025h0s0,0,0,0l0,0,.013-.012.026-.021-.033.027.156-.136c.287-.249.527-.39.5-.33l-.617.435.04-.028-.018.012c.022-.016.043-.024.076-.043l.042-.018c-.77.347,1.941-.877,2.387-1.006a3.118,3.118,0,0,1-.961.617c-.283.1-.637.168-.974.258l-.4.111h0l.02,0,.021-.006s.053-.01.012,0c.082-.015.019,0,.028,0l.025,0h.013l.231-.017c.164-.01.343-.018.516-.017a2.443,2.443,0,0,1,.756.091c-.173-.01-.4,0-.5,0-.072.114-.387.094-.41.153a4.907,4.907,0,0,1-.628-.2,2.072,2.072,0,0,1,.338.149c-.334-.141-.057-.023-.456-.192h0l.138.061a2.8,2.8,0,0,1,.295.171c.544.279.141-.018-.1-.1a3.618,3.618,0,0,1,1.813,1.107c.085.263-.5-.223-.417-.134-.253.116,1.011,1.125.339.96a8.767,8.767,0,0,1-1.061-1c-.091-.194.345.13.379.054-.085-.03-.168-.062-.248-.1-.116-.14-.194-.26-.051-.189-.4-.259-.275.175-.653-.1a3.471,3.471,0,0,0,.316.491l-.009-.087c.308.313.278.54.457.659.12.293.276.767.024.63l-.329-.518c.089.156.256.273.187.095.083.268-.559-.629-.223.1l.281.333c.072.308.22.97,0,.85.308.526,0-.072.4.522-.467-.749.387-.155-.184-.9.495.667.33.213.846.717-.115-.168-.261-.289-.084-.29l-.075-.165.017.007-.021-.015c-.012-.029-.015-.034-.007-.005a1.114,1.114,0,0,1-.23-.214c-.2-.424-.049-.516-.152-.745.114.03.123.2.289.342l-.155-.339c.292.342.659.414.678.747l.158-.115c.259.1.461.035.389-.172.146-.022-.226-.511-.005-.224a4.127,4.127,0,0,0-.031-.428l.1.06c.117-.121.043-.366.032-.558s.048-.335.5-.4c-.075-.152-.181-.288-.018-.456l.39.022c-.105-.183.447-.539.034-.626.52-.093.575-.374.485-.616s-.3-.464-.26-.636l-.489.137c-.029-.2-.234-.325-.51-.426l-.4.207c-.389.035.091-.513-.118-.713.148-.09.154-.006.1.091.32-.42.047-.479-.223-.442s-.537.122-.4-.244c-.158.08-.157.009-.126-.111.006,0,.015,0,.028-.008a.043.043,0,0,0-.019-.022,2.112,2.112,0,0,0,.062-.25,1.545,1.545,0,0,0-.075.242.368.368,0,0,0-.277.021l.239-.42c-.009,0-.013,0-.024,0,.023-.2-.177.156-.34.482a1.148,1.148,0,0,0-.233.195c.338-.7-.282.142.026-.631-.22.332-.508.114-.805.912.034-.106.034-.162.067-.157-.03-.115-.085-.228-.206-.013l.117-.6a7.17,7.17,0,0,0-.332.77,1.864,1.864,0,0,1,.133-1.053c-.376.679-.287.237-.515.951l.009-.4c-.091.015-.163.547-.232.229-.118-.366-.377-.361-.64-.291a1.382,1.382,0,0,1-.937.052c.757.887-.5-.278.038.452-.194-.2-.356-.265-.443-.5-.021.368-.627-.008-.182.634-.23-.157-.271-.307-.411-.393.029.057.127.221-.017.139s-.154-.179-.214-.294c-.166.277.514.8,1.153,1.271-.363-.143-.356-.048.058.275-.237-.112-.509-.191-.52-.352-.074.025-.563.244.025.5-.158-.044-.079.072-.016.113-.086.125-.15.123-.129.284l.111-.012c.732.253.138.145.206.277l-.077-.018c-.585.184.241.119-.407.339l.479.007c.515.037.362.064.129.131s-.534.188-.331.248l.268-.08c.18.022-.169.1-.562.234a3,3,0,0,0-.886.4c-.081.05-.151-.013-.224-.043-.509.506.618-.088.821.1-.309.144-.848.177-.847.387-.112.092.193.148.466.2s.5.094.285.365a1.119,1.119,0,0,1,.621-.362c.129.043-.525.97.206.54a.814.814,0,0,1-.13.161,1.191,1.191,0,0,0,.848-.3c-.479.679-.186.64.049.53s.438-.278.116.414c.115.025.229.039.342.053l-.061.144c.18.168.361-.168.5-.508a.791.791,0,0,1-.068.32c.209.358.319.307.579-.438l-.005.5c.039-.14.126.057.272.211s.351.254.456-.053a.756.756,0,0,1,0,.224c.127-.317.391-.021.667.083s.49.045.139-.789a3.5,3.5,0,0,0-.028-.491c-.273,0-.367-.692-.593-.906-.022-.112.435.367.41.494l-.062-.068c.473.823.428.112.822.6.412-.392,1.165-.633,1.4-1.219l-.715-.167.087-.146c.176,0,.572.081.5.211.422.034-.275-.316-.434-.341.339-.187.815.279.845.213l-.029-.132-.089.01c-.276-.154-.586-.209-.529-.35.155-.077.453,0,.485-.038.052.005.078-.008.027-.064.029-.082.053-.166.074-.251q-.29.048-.579.081c-.283-.1.031-.193-.623-.107.507-.053.592-.271.566-.465s-.157-.358-.02-.447c-.445-.013-.47-.111-.494-.279-.091.089-.677.366-.648.245,1.217-.569.416-.464,1.128-1.118-.447.46-.431-.3-1.009.435,0-.157.377-.332.54-.62-.308.048-.366-.117-.446-.341s-.176-.481-.407-.5a2.4,2.4,0,0,1-.335.621,7.538,7.538,0,0,0,.178-.883c-.119.045-.434.916-.35.3a.93.93,0,0,1-.141.4c-.185-.518-.63-.418-.961-.331-.366.09-.612.1-1.3-.505.228.283.162.337.089.381a3.238,3.238,0,0,1,.25.625,3.6,3.6,0,0,0-.554-.476c.256.606-.3.222.025.773l.013-.147a6.248,6.248,0,0,0,.679,1.024,10.866,10.866,0,0,1,.732,1.182c-.1-.186-.11-.214-.08-.163l.112.225.011.029.006.017,0,.008c0,.011,0,.016-.025-.082l.028.091v0l.012.048v0a.428.428,0,0,1,.01.1h0l.022-.322-.018.278c-.008.088,0,.025,0,.044v-.008l.008-.031,0-.013,0-.005,0-.005.008-.021-.005.013.026-.06-.01.022a.534.534,0,0,1,.118-.165h0a.358.358,0,0,1-.062.043h0l-.038.02c.013-.005-.024.011-.007,0l-.039.016-.007,0,.388-.124-.354.114a2.1,2.1,0,0,1,.6-.127c-.159.022-.295.063-.444.1l-.238.054c-.026.006,0,0,0,0a.42.42,0,0,1-.075.011h0l.124-.008a.332.332,0,0,1,.091-.013c.332-.05.767-.048.666-.007a4.164,4.164,0,0,1-.663.032l-.225,0h0l.018,0,.186.044a1.236,1.236,0,0,0-.179-.042c.21.013,1.1.271.654.206l-.464-.155c-.224-.064.148.054-.082-.018a.742.742,0,0,0-.11-.034l.023.006a.445.445,0,0,1,.068.023h0l.023.009-.016-.006a.517.517,0,0,1,.07.035l-.03-.017a.525.525,0,0,1,.091.06c-.008-.007-.028-.021-.016-.013l.026.022.007.006.011.011c.08.084.016.017.031.032h0l-.027-.035.013.017-.015-.021,0,0-.032-.057c0,.007,0-.005-.012-.028l-.013-.03.015.036,0,.009a.682.682,0,0,0-.026-.064l.006.015-.018-.057c0-.009,0,0,0,.005l-.009-.036.006.027-.01-.051,0-.018a.456.456,0,0,1,0-.067v0a.085.085,0,1,0,0,.013l0,.013,0,.014-.007.021a.581.581,0,0,1-.034.083Zm-.182.238-.013.005Zm-.018-.3c.123.1.06.053-.093-.048C113.345,1812.813,113.365,1812.816,113.466,1812.888Zm2.713,2.656-.014-.02C116.374,1815.578,116.295,1815.554,116.179,1815.544Zm-.295,0a.483.483,0,0,0,.129.155c-.072-.1-.045-.135.017-.15C115.931,1815.466,115.853,1815.422,115.884,1815.541Zm1.084-2.2-.129.025C116.709,1813.27,116.831,1813.3,116.968,1813.338Z" transform="translate(-109.676 -1809.554)" fill="#438988"/>
</svg>
