<svg xmlns="http://www.w3.org/2000/svg" width="228.922" height="39.212" viewBox="0 0 228.922 39.212">
  <g id="white-space" transform="translate(-626.24 -1563.328)">
    <path id="Path_576" data-name="Path 576" d="M652.436,1564.141c.057-.019.2-.073.151-.131s-.454-.011-.422.107S652.38,1564.16,652.436,1564.141Z" fill="#fff"/>
    <path id="Path_577" data-name="Path 577" d="M644.807,1564.8c-.131.088-.336-.088-.454-.067s-.086.111-.185.138C644.3,1564.89,644.995,1565.044,644.807,1564.8Z" fill="#fff"/>
    <path id="Path_578" data-name="Path 578" d="M756.412,1601.836c-.089,0,.02.034,0,0Z" fill="#fff"/>
    <path id="Path_579" data-name="Path 579" d="M776,1601.9l.006,0h0Z" fill="#fff"/>
    <path id="Path_580" data-name="Path 580" d="M662.007,1601.03c-.036.006.006.02,0,0Z" fill="#fff"/>
    <path id="Path_581" data-name="Path 581" d="M807.432,1599.805c.524-.014,1.048-.028,1.574-.038A2.649,2.649,0,0,0,807.432,1599.805Z" fill="#fff"/>
    <path id="Path_582" data-name="Path 582" d="M776.01,1601.9l0,0v0Z" fill="#fff"/>
    <path id="Path_583" data-name="Path 583" d="M810.662,1599.876s0-.007.034-.005.358,0,.338-.068-.267-.055-.317-.056c-.573,0-1.143.008-1.711.02a12.114,12.114,0,0,0,1.206.2C810.381,1599.982,810.542,1600.049,810.662,1599.876Z" fill="#fff"/>
    <path id="Path_584" data-name="Path 584" d="M637.414,1581.663c-.017-.011-.1.018-.041,0,.022-.006.027,0,.029.005l.009,0Z" fill="#fff"/>
    <path id="Path_585" data-name="Path 585" d="M782.237,1601.817h0Z" fill="#fff"/>
    <path id="Path_586" data-name="Path 586" d="M653.228,1565.1h0Z" fill="#fff"/>
    <path id="Path_587" data-name="Path 587" d="M713.888,1564.31c.02-.013-.021,0-.018,0S713.867,1564.322,713.888,1564.31Z" fill="#fff"/>
    <path id="Path_588" data-name="Path 588" d="M807.036,1565.128h0l0,0Z" fill="#fff"/>
    <path id="Path_589" data-name="Path 589" d="M789.951,1564.867h0c.005,0,.013,0,.017,0l-.009,0-.005,0,0,0Z" fill="#fff"/>
    <path id="Path_590" data-name="Path 590" d="M636.37,1576.984h0C636.36,1576.977,636.368,1576.981,636.37,1576.984Z" fill="#fff"/>
    <path id="Path_591" data-name="Path 591" d="M796.7,1563.77c-.19,0-.55.03-.71.03a1.65,1.65,0,0,1-.33-.05c-.05-.01-.02-.01-.01-.01a.892.892,0,0,0,.26-.21c.05-.07-.03-.12-.1-.11-.51.02-.88-.11-1.43-.09-.86.04-1.83.12-2.73.19a7.269,7.269,0,0,0-1.43.21,4.076,4.076,0,0,1-1.57.08c-.59-.07-1.34-.07-1.96-.12-.06-.01-.08.1-.17.08s-.43-.07-.51-.01a2.075,2.075,0,0,1-1.32.25,15.038,15.038,0,0,0-2,.19.935.935,0,0,0,.16.04,14.58,14.58,0,0,0,1.48-.01c1.23-.05,2.44-.18,3.66-.24a1.063,1.063,0,0,1,.26.01c.06.01.08.02.06.06s-.16.06-.2.09-.05.05-.02.08,0,.01.08.04a2.246,2.246,0,0,0,.33.1,5.559,5.559,0,0,1,.55.17h.02a.435.435,0,0,0,.07.04.351.351,0,0,1,.08.05c.02.02.07.08.09.1v.01l-.01.01c-.01,0-.02.01-.04.05-.1.14.14.26.23.18.01,0,.01-.01.02-.01a.01.01,0,0,1,.01-.01h.01c.13-.03.29-.06.41-.1.03,0-.03-.05-.02-.06v-.01c.01,0,.02-.01.06-.03.1-.05.4-.17.55-.22h.03a1.281,1.281,0,0,0,.18-.01.426.426,0,0,0,.17-.1,1.184,1.184,0,0,1,.67-.18c.25,0,.63.11.86.1a6.3,6.3,0,0,1,1.21-.09c.02.01.03.02.04.02h.01l.01.01c.05,0-.03,0,.06-.03a1.362,1.362,0,0,1,.51.07,1.643,1.643,0,0,0,1.27-.02,4,4,0,0,0,1.19-.53A.1.1,0,0,0,796.7,1563.77Zm-6.78.61c-.04.02-.04.05-.03.07-.05-.03-.01-.07.06-.1-.35-.35.33-.33.58-.36C790.31,1564.09,790.14,1564.26,789.92,1564.38Zm4.1-.3a.916.916,0,0,0-.48.11c-.01-.08.04-.08.14-.1a4.221,4.221,0,0,1,.45-.11c.09-.02.14-.05.18-.04s.05.07.05.1C794.35,1564.19,794.16,1564.07,794.02,1564.08Z" fill="#fff"/>
    <path id="Path_592" data-name="Path 592" d="M789.919,1564.8h0v0h0Z" fill="#fff"/>
    <path id="Path_593" data-name="Path 593" d="M793.707,1564.293c-.02.017,0,.005,0,0h0c.026.013.066.031-.011-.008h-.005Z" fill="#fff"/>
    <path id="Path_594" data-name="Path 594" d="M790.051,1564.881c-.007-.023-.072-.016-.073-.007S790.058,1564.9,790.051,1564.881Z" fill="#fff"/>
    <path id="Path_595" data-name="Path 595" d="M628.724,1582.069c0-.005-.025-.008-.028,0l.015.006S628.724,1582.073,628.724,1582.069Z" fill="#fff"/>
    <path id="Path_596" data-name="Path 596" d="M806.293,1564.1c.126-.1-.245-.129-.323-.122a.977.977,0,0,0-.574.206C805.687,1564.213,806.062,1564.3,806.293,1564.1Z" fill="#fff"/>
    <path id="Path_597" data-name="Path 597" d="M654.225,1564.864h0Z" fill="#fff"/>
    <path id="Path_598" data-name="Path 598" d="M789.521,1564.963h0Z" fill="#fff"/>
    <path id="Path_599" data-name="Path 599" d="M775.226,1601.919c-.1-.01-.271-.029-.19.094s.408.132.519.128.21.005.165-.086S775.325,1601.928,775.226,1601.919Z" fill="#fff"/>
    <path id="Path_600" data-name="Path 600" d="M742.045,1601.853a1.141,1.141,0,0,0-.621.044c-.042.018-.011.053.021.065a1.777,1.777,0,0,0,.61.014c.135,0,.264-.035.226-.092S742.116,1601.864,742.045,1601.853Z" fill="#fff"/>
    <path id="Path_601" data-name="Path 601" d="M808.722,1600.231a1.032,1.032,0,0,0-.191,0c-.45.151-.9.226-1.339.37-.01,0-.012,0-.005,0a3.972,3.972,0,0,0,.98.03l.034,0h.016c.006,0,0,0,0,0h0s0,0,.016,0l.016,0a1.717,1.717,0,0,0,.377-.033c.082-.045.142-.218.214-.272S808.753,1600.235,808.722,1600.231Z" fill="#fff"/>
    <path id="Path_602" data-name="Path 602" d="M796.565,1601.281c-.032.014-.071.042-.057.058a.484.484,0,0,0,.171.01c.034,0,.081-.019.05-.056S796.6,1601.267,796.565,1601.281Z" fill="#fff"/>
    <path id="Path_603" data-name="Path 603" d="M809.487,1600.362c-.292.014-.267.022-.338.217.483-.027.95-.049,1.427-.082.018,0,.056-.056.024-.064A4.175,4.175,0,0,0,809.487,1600.362Z" fill="#fff"/>
    <path id="Path_604" data-name="Path 604" d="M708.38,1602.374c-.21.062-.029.1.072.09C708.48,1602.463,708.417,1602.364,708.38,1602.374Z" fill="#fff"/>
    <path id="Path_605" data-name="Path 605" d="M674.66,1600.835c0-.013-.066-.022-.065-.01S674.66,1600.848,674.66,1600.835Z" fill="#fff"/>
    <path id="Path_606" data-name="Path 606" d="M681.19,1601.77c-.48-.04-.97-.05-1.44-.05-1.22,0-2.44.07-3.65.08a1.555,1.555,0,0,1-.25-.03c-.06-.02-.06-.04-.01-.06a1.567,1.567,0,0,1,.23-.08c.04-.02.07-.04.06-.07s.01-.02-.05-.05a1.418,1.418,0,0,0-.27-.12,3.14,3.14,0,0,1-.44-.18c0-.01-.01-.01-.02-.02a.091.091,0,0,1-.05-.03c-.01-.02-.04-.03-.04-.06s-.05-.07-.03-.1c.11-.18.02-.39-.06-.26l-.02.02v.01h-.01c-.14.03-.31.04-.45.08-.03,0,0,.05-.01.06s0,.01-.01.01a.162.162,0,0,0-.05.02c-.09.03-.51.16-.6.19l-.05.01h-.03c-.04.01-.12,0-.19.01a1.018,1.018,0,0,0-.22.09,1.537,1.537,0,0,1-.73.14,3.747,3.747,0,0,1-.77-.14,2.236,2.236,0,0,0-1.21.01c-.01,0-.02.01-.03.01.01,0-.01,0-.03.01s-.01,0-.01.01h-.03a1.014,1.014,0,0,1-.47-.08,1.688,1.688,0,0,0-1.25-.01,6.481,6.481,0,0,0-1.39.46c-.01.01.01.02.02.02.19,0,.53-.02.69-.01a.784.784,0,0,1,.29.08.01.01,0,0,0-.01.01,1.9,1.9,0,0,1-.35.18.063.063,0,0,0,.03.12c.49,0,.81.14,1.34.14.85,0,1.83-.05,2.72-.08a9.268,9.268,0,0,0,1.47-.15,3.8,3.8,0,0,1,1.54-.01c.56.09,1.25.12,1.84.2.07.01.12-.1.21-.08a1.375,1.375,0,0,0,.49.04,2.6,2.6,0,0,1,1.38-.19,17.571,17.571,0,0,0,2.05-.1C681.28,1601.81,681.23,1601.78,681.19,1601.77Zm-10.5-.3c-.11.02-.4.08-.49.09a1.3,1.3,0,0,1-.19.03c-.03-.01-.01-.07,0-.1.07-.14.19-.02.34-.02a1.221,1.221,0,0,0,.53-.1C670.84,1601.46,670.8,1601.45,670.69,1601.47Zm3.72-.11c.16.38-.48.32-.75.33.27-.09.52-.25.78-.36.05-.02.07-.04.07-.07.02.01.02.02.02.02C674.53,1601.32,674.47,1601.34,674.41,1601.36Z" fill="#fff"/>
    <path id="Path_607" data-name="Path 607" d="M675.862,1600.363s.016.013.017.006S675.863,1600.36,675.862,1600.363Z" fill="#fff"/>
    <path id="Path_608" data-name="Path 608" d="M675.6,1600.44l-.007.011h0a.807.807,0,0,0-.205.069c-.021.012-.021.011.007,0s.159-.052.213-.07l.222-.074c.037-.013.017,0,.024-.01s-.026,0-.025,0l.006,0s0,0-.009,0A.336.336,0,0,0,675.6,1600.44Z" fill="#fff"/>
    <path id="Path_609" data-name="Path 609" d="M674.684,1600.844v0c-.005,0-.012,0-.016,0l.006.006.006,0-.005,0Z" fill="#fff"/>
    <path id="Path_610" data-name="Path 610" d="M658.224,1601.008c-.148.087.187.136.271.129a1.541,1.541,0,0,0,.678-.184A1.6,1.6,0,0,0,658.224,1601.008Z" fill="#fff"/>
    <path id="Path_611" data-name="Path 611" d="M810.5,1600.229c.005-.015-.1-.036-.127-.049s-.15-.033-.151.018.08.05.117.053A.4.4,0,0,0,810.5,1600.229Z" fill="#fff"/>
    <path id="Path_612" data-name="Path 612" d="M686.3,1600.623c.049.005.05-.018.04-.022S686.255,1600.619,686.3,1600.623Z" fill="#fff"/>
    <path id="Path_613" data-name="Path 613" d="M675.882,1600.359c0,.02.033.024.031.01S675.883,1600.34,675.882,1600.359Z" fill="#fff"/>
    <path id="Path_614" data-name="Path 614" d="M728.331,1601.825c-.03-.006-.054.092-.026.091C728.459,1601.913,728.52,1601.865,728.331,1601.825Z" fill="#fff"/>
    <path id="Path_615" data-name="Path 615" d="M729.841,1601.527l.106-.369C729.775,1601.268,729.712,1601.358,729.841,1601.527Z" fill="#fff"/>
    <path id="Path_616" data-name="Path 616" d="M731.2,1601.972c-.061,0-.081.088-.083.125s.012.12.062.131.2-.01.222-.087S731.261,1601.971,731.2,1601.972Z" fill="#fff"/>
    <path id="Path_617" data-name="Path 617" d="M686.373,1600.6h-.01l-.006,0h.016Z" fill="#fff"/>
    <path id="Path_618" data-name="Path 618" d="M676.772,1601.017c.119-.01.2-.058.076-.144s-.354-.055-.51-.082c.038.07-.013.1.068.164A.614.614,0,0,0,676.772,1601.017Z" fill="#fff"/>
    <path id="Path_619" data-name="Path 619" d="M676.053,1600.737c-.155-.053-.038-.257-.136-.357-.005-.005.007.015.008.02C675.94,1600.462,675.973,1600.879,676.053,1600.737Z" fill="#fff"/>
    <path id="Path_620" data-name="Path 620" d="M731.589,1602.015l-.076,0c-.021,0-.079-.022-.08-.011s.06.045.087.055.148.043.154.051-.063.027-.017.041.14.043.157.028.076-.1.067-.11a1.333,1.333,0,0,0-.227-.069C731.619,1601.99,731.615,1602.017,731.589,1602.015Z" fill="#fff"/>
    <path id="Path_621" data-name="Path 621" d="M678.827,1600.267c-.148.019-.369-.1-.5-.048-.156.055-.066.166.09.175S678.731,1600.424,678.827,1600.267Z" fill="#fff"/>
    <path id="Path_622" data-name="Path 622" d="M744.421,1601.806l.183.015Z" fill="#fff"/>
    <path id="Path_623" data-name="Path 623" d="M764.194,1601.653c0,.015.046-.021.034-.028S764.2,1601.638,764.194,1601.653Z" fill="#fff"/>
    <path id="Path_624" data-name="Path 624" d="M795.909,1600.459c.071,0,.128.009.2.013a7.3,7.3,0,0,0,.782,0A2.2,2.2,0,0,0,795.909,1600.459Z" fill="#fff"/>
    <path id="Path_625" data-name="Path 625" d="M794.38,1600.85c-.007.006.045,0,.01,0Z" fill="#fff"/>
    <path id="Path_626" data-name="Path 626" d="M688.711,1601.173l.107,0Z" fill="#fff"/>
    <path id="Path_627" data-name="Path 627" d="M797.23,1600.436c-.1.015-.233.028-.338.034a1.422,1.422,0,0,1,.439.25c.006.005-.034.013.091.037s.375-.138.631-.044c.017.006.024.008.026.007l.105.054a7.352,7.352,0,0,0,3.133-.047c.788-.145,1.9.03,2.743-.054a2.526,2.526,0,0,0,.833-.113c-2.292.019-4.589.029-6.883.047C797.769,1600.367,797.571,1600.383,797.23,1600.436Z" fill="#fff"/>
    <path id="Path_628" data-name="Path 628" d="M766.745,1601.631a.679.679,0,0,0-.288,0c-.04.018-.009.006-.009.006-.03.153.123.413.282.423.38.025.118-.266.021-.423Z" fill="#fff"/>
    <path id="Path_629" data-name="Path 629" d="M794.328,1600.854h0Z" fill="#fff"/>
    <path id="Path_630" data-name="Path 630" d="M794.321,1600.854Z" fill="#fff"/>
    <path id="Path_631" data-name="Path 631" d="M802.194,1599.259h.01l0-.005s-.014,0-.015,0h0Z" fill="#fff"/>
    <path id="Path_632" data-name="Path 632" d="M802.219,1599.253c.015,0,.07-.022.026-.024S802.205,1599.251,802.219,1599.253Z" fill="#fff"/>
    <path id="Path_633" data-name="Path 633" d="M680.308,1600.26a3.21,3.21,0,0,1-.631-.032,1.143,1.143,0,0,0-.646.038,1.261,1.261,0,0,0,.886.141c.114-.01.314.071.441,0,0,0,0,0,.007,0l.064.008c.124.015.477-.006.631.006.077.007.024.195.1.206a1.944,1.944,0,0,0,.465-.061h.015c.028,0,.077,0,.113,0a.945.945,0,0,1,.119,0,4.928,4.928,0,0,0,1.335,0c.314-.028.633.124.9-.107.006-.005.01,0,.03,0s-.087.02.132-.013c.09-.013.425-.089.552-.119-.075,0-.161-.005-.245-.008C683.147,1600.257,681.733,1600.195,680.308,1600.26Z" fill="#fff"/>
    <path id="Path_634" data-name="Path 634" d="M680.367,1600.407h0Z" fill="#fff"/>
    <path id="Path_635" data-name="Path 635" d="M803.716,1600.29c-.163.019-.384.03-.064.1a6.042,6.042,0,0,0,.653.045C804.343,1600.165,803.878,1600.271,803.716,1600.29Z" fill="#fff"/>
    <path id="Path_636" data-name="Path 636" d="M634.945,1598.283s-.025-.007-.027,0l.015.005S634.945,1598.288,634.945,1598.283Z" fill="#fff"/>
    <path id="Path_637" data-name="Path 637" d="M802.231,1600.426c.042,0,.125-.029.119-.041a1.493,1.493,0,0,0-.182-.02c-.046-.008-.191.005-.125.049S802.189,1600.427,802.231,1600.426Z" fill="#fff"/>
    <path id="Path_638" data-name="Path 638" d="M809.7,1599.294c.178.015.356.031.535.045.07-.151-.052-.171-.2-.185S809.727,1599.124,809.7,1599.294Z" fill="#fff"/>
    <path id="Path_639" data-name="Path 639" d="M773.673,1601.6c-.085,0-.13-.012-.211-.012-1.019.007-1.974.022-3.014.035s-2.169-.005-3.228,0a.779.779,0,0,0-.129.025l1.518.061.07,0h.048c1.593.07,3.28.1,4.843.125.273.005.433.081.563-.093S773.758,1601.6,773.673,1601.6Z" fill="#fff"/>
    <path id="Path_640" data-name="Path 640" d="M812.761,1598.949l-.014.008h0Z" fill="#fff"/>
    <path id="Path_641" data-name="Path 641" d="M830.241,1598.7c.012.006,0,0,0,0Z" fill="#fff"/>
    <path id="Path_642" data-name="Path 642" d="M830.2,1598.69a1.4,1.4,0,0,0-.45-.05c-.14.02-.37.05-.41-.15a.938.938,0,0,0-.55-.1c-.39.03-1.12.05-1.42.05h-.04c-.05-.01-.01-.01-.03-.03-.13-.21-.25-.17.22-.18a4.025,4.025,0,0,0,1.04-.17,18.607,18.607,0,0,0-2.47.06h-.01v-.01c0-.01-.02-.01-.03-.03-.07-.08-.25-.33-.44-.24v-.01a2.305,2.305,0,0,1-1.19.07c-.39-.04-.6-.16-.95.05,0,.01.02.03-.12.07s-.72.11-.98.2l-.27.01a1.128,1.128,0,0,0-.9.08.6.6,0,0,0-.08.01,1.735,1.735,0,0,1-.82.04,1.445,1.445,0,0,0-.84-.12c-.33.02-.62.03-.95.06s.23.15-.31.11a7.1,7.1,0,0,0-1.66.05c0,.01,0,0-.01,0a1.344,1.344,0,0,0-.46-.09,3.392,3.392,0,0,1-1.3.19c-.32.01-.3,0-.45.16a1.569,1.569,0,0,1-.8.18.921.921,0,0,0-.28.05c-.35.19-.05.26.28.27s1.02-.19,1.18.24a3.389,3.389,0,0,0-1.1.02,3.191,3.191,0,0,1-.42.1c-.56.03-1.13.08-1.7.09a4.232,4.232,0,0,0,1.38.2c.07,0,.3-.19.37-.2.01,0,.01,0,.02-.01,0,.01.01.01.03.01a.843.843,0,0,1,.36.17.871.871,0,0,0,.84.15c.01-.01-.01,0,.01-.01l.01.01h.02c.07.01.35.05.42-.03.01-.01.01,0,.01,0s0,.01.03.01.12.04.17-.01c.01-.01.01-.01.02-.01.03-.04,0-.05.15-.12a2.47,2.47,0,0,1,1.74-.05c.02.01.02-.01.02-.01h.01c.01,0,.02-.01.04-.01a5.534,5.534,0,0,0,.83-.16c.31-.04.69.04.97,0a5.114,5.114,0,0,0,.73-.32c.21-.07.16.02.34.03.18.29.72.2.97.18s.56-.03.45-.26a.134.134,0,0,0,.05-.01c.04-.01.12-.02.3-.04a21.972,21.972,0,0,1,2.83-.19.923.923,0,0,1,.46.13l.01.01c.01.01.02.03.04.04a1.054,1.054,0,0,0,.74-.02c0,.01,0,.01.03.01a2.57,2.57,0,0,0,.28.06,1.114,1.114,0,0,0,.41-.09,1.384,1.384,0,0,0,.2-.09h.01l.01-.01c0,.01.01.01.03.01h.01c.03,0,.08.01.15.02a4.213,4.213,0,0,0,1.67-.12,3.327,3.327,0,0,1,.91-.13,1.777,1.777,0,0,0,.67-.11C830.22,1598.7,830.21,1598.69,830.2,1598.69Zm-7.29.11a22.807,22.807,0,0,1-2.33.09,12.174,12.174,0,0,0-1.6.09,4.888,4.888,0,0,0-2.3.56c-.02,0-.03-.01-.04-.01a.133.133,0,0,1-.03-.05.01.01,0,0,0,.01-.01s.01.04.05-.07-.2-.27-.4-.27a17.534,17.534,0,0,1,2.4-.34c1.18-.08,2.37-.12,3.55-.24a2.1,2.1,0,0,1,.24-.06,2.873,2.873,0,0,1,1.42.28C823.56,1598.77,823.23,1598.78,822.91,1598.8Zm2.58-.27a2.542,2.542,0,0,0-.98.12c.15-.14.39-.17.48-.37.1.01.1.02.23.03s.44.03.58.03a1.761,1.761,0,0,0,.33-.04C826.12,1598.59,825.77,1598.52,825.49,1598.53Z" fill="#fff"/>
    <path id="Path_643" data-name="Path 643" d="M814.49,1599.985h0Z" fill="#fff"/>
    <path id="Path_644" data-name="Path 644" d="M812.39,1599.132c-.07-.057-.057-.109-.158-.154a.7.7,0,0,0-.4-.04c-.137.027-.136.089.015.145A1.935,1.935,0,0,0,812.39,1599.132Z" fill="#fff"/>
    <path id="Path_645" data-name="Path 645" d="M818.814,1600.7l1.135-.151A2.449,2.449,0,0,0,818.814,1600.7Z" fill="#fff"/>
    <path id="Path_646" data-name="Path 646" d="M814.487,1599.985h0Z" fill="#fff"/>
    <path id="Path_647" data-name="Path 647" d="M822.243,1599.4c.074.01.2-.036.121-.08a.787.787,0,0,0-.291-.031c-.081-.005-.187.026-.1.069A.844.844,0,0,0,822.243,1599.4Z" fill="#fff"/>
    <path id="Path_648" data-name="Path 648" d="M818.94,1599.769a19.988,19.988,0,0,0-2.43.265,2.88,2.88,0,0,1-.465.027c-1.005.035-2.054.113-3.04.163a1.8,1.8,0,0,0-.924.2,3.6,3.6,0,0,0,1.115-.075,2.462,2.462,0,0,1,.632-.068c.76.008,1.866-.107,2.5-.151a1.957,1.957,0,0,1,.244-.012h-.011c-.013.005.044,0,.043,0h.018c.405,0,.851-.034,1.276-.061,1.443-.091,2.778-.217,4.249-.322s3.092-.223,4.585-.3a1.562,1.562,0,0,0,.487-.1c-.585.013-1.225.007-1.8.031C823.248,1599.45,821.095,1599.576,818.94,1599.769Z" fill="#fff"/>
    <path id="Path_649" data-name="Path 649" d="M815.161,1599.966c0,.006.039-.033.03-.034S815.158,1599.96,815.161,1599.966Z" fill="#fff"/>
    <path id="Path_650" data-name="Path 650" d="M812.739,1598.978c.033-.017.144-.068.16-.078s.012-.005,0-.005-.128.035-.123.053,0,0,0,.005h-.006l.006,0-.01.005.008,0-.039.021Z" fill="#fff"/>
    <path id="Path_651" data-name="Path 651" d="M812.728,1598.977l.033-.018s-.007,0-.011,0-.023.018-.029.022Z" fill="#fff"/>
    <path id="Path_652" data-name="Path 652" d="M812.731,1598.978h0Z" fill="#fff"/>
    <path id="Path_653" data-name="Path 653" d="M804.329,1599.33c-.228.029-.617.111-.876.149.212,0,.427-.005.645,0a41.4,41.4,0,0,0,4.169-.109,3.3,3.3,0,0,1,.631.006.937.937,0,0,0,.606-.066,1.586,1.586,0,0,0-.935-.1c-.114.013-.316-.072-.434.019-.005,0,0,0-.018,0s.062,0-.054,0-.481.035-.613.015-.109-.18-.225-.2a1.377,1.377,0,0,0-.415.08c-.012,0,.016,0-.013,0s-.075.006-.11.005a1.137,1.137,0,0,1-.116.007,4.236,4.236,0,0,0-1.276.046c-.277.041-.548-.072-.774.1l-.164-.148c.029.041.011.124.01.193Z" fill="#fff"/>
    <path id="Path_654" data-name="Path 654" d="M803.451,1599.479c-.248,0-.495,0-.743.008A2.846,2.846,0,0,0,803.451,1599.479Z" fill="#fff"/>
    <path id="Path_655" data-name="Path 655" d="M816.973,1597.966c-.008.016.009.007.006,0Z" fill="#fff"/>
    <path id="Path_656" data-name="Path 656" d="M812.694,1598.985a.2.2,0,0,0,.048-.026.245.245,0,0,0-.042.009C812.692,1598.97,812.689,1598.985,812.694,1598.985Z" fill="#fff"/>
    <path id="Path_657" data-name="Path 657" d="M812.738,1598.979h-.008a.212.212,0,0,0-.027.014c-.005,0,.023-.014.014-.01l-.03.017a.372.372,0,0,1-.043.025C812.572,1599.065,812.652,1599.024,812.738,1598.979Z" fill="#fff"/>
    <path id="Path_658" data-name="Path 658" d="M813.434,1598.557c0,.008.076.03.069.007S813.434,1598.548,813.434,1598.557Z" fill="#fff"/>
    <path id="Path_659" data-name="Path 659" d="M813.407,1598.549v0h.016l-.009,0-.005,0,.005,0Z" fill="#fff"/>
    <path id="Path_660" data-name="Path 660" d="M829.282,1597.693c.122-.107-.251-.127-.328-.119a.93.93,0,0,0-.562.212C828.681,1597.808,829.056,1597.889,829.282,1597.693Z" fill="#fff"/>
    <path id="Path_661" data-name="Path 661" d="M802.194,1599.032l-.049.045.11.055Z" fill="#fff"/>
    <path id="Path_662" data-name="Path 662" d="M794.378,1600.85c-.061.012-.025.005,0,0l.016,0-.017,0Z" fill="#fff"/>
    <path id="Path_663" data-name="Path 663" d="M666.714,1600.746h0Z" fill="#fff"/>
    <path id="Path_664" data-name="Path 664" d="M691.63,1600.79v.02c0-.02,0-.02.01-.02Zm0,0v.02c0-.02,0-.02.01-.02Zm162.68-23.65a21.375,21.375,0,0,1-3.2,0l-3.13-.03v-.2l2.61-.33c-.15-.21-.27-.29-.39-.28-2.14.06-4.28-.02-6.43.01-.9.02-1.8.02-2.7.02a3.258,3.258,0,0,1,.8-.14,2.706,2.706,0,0,0-1.85-1.21h.04a.443.443,0,0,0-.13-.02l-.26-.06a1.036,1.036,0,0,1,.2-.01,2.91,2.91,0,0,1,.31.01c.66.05.43-.03.53-.05.08-.02-.13-.05-.08-.07.4-.07.27-.09-.51-.1v-.03c.09,0,.17-.01.26-.01.21-.01.45.01.63-.01.3-.05-.01-.06-.23-.07-.29-.02-.6-.03-.89-.04v-.01c0-.01.02-.02.15-.02.4,0,.79-.02,1.19-.01.23.04.67.01.94.03a2.4,2.4,0,0,0,.71,0c.19-.04.11-.13-.17-.14-.52-.02-1.03-.06-1.59-.07-.97-.02-1.73-.1-2.66-.13-.01-.08-.01-.15-.02-.23h.03c.18-.01.31-.02.15-.05a2.1,2.1,0,0,1,.27-.01,1.319,1.319,0,0,1,.54.09.89.89,0,0,0,.33.02,3.881,3.881,0,0,0,.72-.05c0-.03-.22-.04-.41-.04-.36-.01-.65-.03-.91-.05,0-.01-.01-.01-.03-.02a1.7,1.7,0,0,1,.24-.01c.53,0,1.04.01,1.53.04a.635.635,0,0,1,.07-.02c-.12-.01-.24-.03-.35-.05a.1.1,0,0,1-.03-.01c0-.01.02-.01.12-.02.19-.01.25-.02.03-.04h-.49c-.6.01-1.15-.02-1.72-.03a.534.534,0,0,0-.13-.01h.43c1.14,0,2.27.06,3.4.04a2.57,2.57,0,0,0,1.86-.38,36.8,36.8,0,0,1,4.51-1.15.775.775,0,0,0,.83-.44c.34-.17.69-.34,1.03-.51.24-.05.29-.22.32-.42a1.984,1.984,0,0,0,.37-.75c0-.2-.26-.22-.85-.24a21.343,21.343,0,0,1-3.2,0l-3.13-.03v-.2l2.61-.33c-.15-.21-.27-.29-.39-.29-2.14.06-4.29-.02-6.43.02-.49.01-.98.01-1.46.01.19-.19.18-.47.15-1.11-.01-.24-.05-.47-.08-.7a.249.249,0,0,0-.18-.19c.32-.61-.31-.48-.65-.52-.22-.02-.43-.03-.65-.04a4.769,4.769,0,0,0,1.45-.18c.34-.37.18-.63-.21-.86-2.1-.04-4.19.01-6.29.09-2.49.1-4.98.18-7.47.22a.266.266,0,0,0-.12-.03,1.239,1.239,0,0,0-.19-.02,1.027,1.027,0,0,1-.18-.01c-.04,0-.05-.02-.07-.02-.88-.06-1.71-.09-2.6-.12-.15,0-.27-.01-.46-.01-1.8-.05-3.29-.08-5.18-.13-2.78-.08-5.91-.14-8.75-.18.03-.01.2-.04.2-.07h.01v-.01a.076.076,0,0,1-.04-.01,1.472,1.472,0,0,0-.41-.05c-.14.01-.36.04-.38-.15a.757.757,0,0,0-.52-.1,4.684,4.684,0,0,1-1.4.02l-.04-.04c-.18-.21-.21-.17.25-.16a4.13,4.13,0,0,0,1.06-.16,10.3,10.3,0,0,0-2.48.04.01.01,0,0,0-.01-.01.252.252,0,0,1-.06-.02,2.916,2.916,0,0,1-.4-.25c-.02-.01-.02-.02-.03-.02a.314.314,0,0,1-.11,0c-.21-.01-.8.06-1.12.05s-.64-.18-.93.05c0,0-.01-.01-.01.01s.02.02-.12.07-.74.1-1.01.19a2.6,2.6,0,0,1-.28,0,1.2,1.2,0,0,0-.91.08.594.594,0,0,0-.08.01,1.784,1.784,0,0,1-.83.04,1.566,1.566,0,0,0-.87-.13c-.32.01-.68.02-.98.05-.41.03.27.15-.33.11a7.969,7.969,0,0,0-1.76.05,1.281,1.281,0,0,0-.48-.09,3.951,3.951,0,0,1-1.37.18c-.33.01-.31-.01-.47.16,0,.01-.02.02-.14.06a5.527,5.527,0,0,1-1.1-.05c-4.02-.08-8.14-.05-12.19-.07-.46,0-.92-.01-1.37-.01.05-.03.1-.09.05-.14a.454.454,0,0,0-.23-.08c-.07,0-.45.02-.28-.09s.43-.07.58-.16l.01-.01h.03c.14,0,.57.08.75-.03s.19-.2-.05-.29a4.218,4.218,0,0,0-1.27-.22c-.27-.01-.72-.11-.86.22-.04.09-.27.05-.37.04a2.545,2.545,0,0,0-1.63.21,3.307,3.307,0,0,1-1.37.3c-.47.03-.91.03-1.36.05-.91.04-1.8.07-2.71.14-3.72-.03-7.47-.06-11.19-.08-.43,0-.88,0-1.28.03s-.71.02-1.07.02c-1.47-.02-2.91-.05-4.38-.04h-.01c-.75-.01-1.5-.02-2.25-.02-.04-.02-.09-.04-.13-.06-.12-.03-.16-.01-.1.05-.71,0-1.41-.01-2.12-.02q-11.01-.15-22.02-.34c-2.4-.05-4.79-.06-7.18-.14a4.005,4.005,0,0,0-1.79.01c-.02,0-.03.02-.09.03a3.419,3.419,0,0,1-.83-.05q-8.925-.135-17.88-.2c-.46-.01-.91,0-1.38-.02h-.84c-.96-.02-1.94-.09-2.91-.07-1.56.03-3.12.04-4.68.01-.47,0-.91.05-1.39.08h-.09a1.846,1.846,0,0,0-.71-.22.567.567,0,0,0-.09.23c-.31,0-.61,0-.92.01-.11-.08-.26-.16-.47-.28-.1.07-.06.19,0,.31a4.925,4.925,0,0,0-1.07.2c-.01,0,0,0-.02-.01a.076.076,0,0,0-.05-.02.645.645,0,0,0-.54.12.157.157,0,0,0-.04.01,3.6,3.6,0,0,1-.36.04c-3.41-.01-6.81-.03-10.23-.04-.45-.01-.9-.01-1.37-.02a1.781,1.781,0,0,0-.26-.01,5.389,5.389,0,0,1-.57,0c-.95-.02-1.94-.09-2.9-.07-1.54.03-3.14.06-4.65.01-.46-.01-1.01.1-1.38.09a16.909,16.909,0,0,0-3.19.25c-.06.02-.11.04-.15.05v.01h-.01v-.01h-.06a1.43,1.43,0,0,0-.52.11.01.01,0,0,0-.01.01.176.176,0,0,0-.06.01c-.18.04-.51.08-.67.11s-.13.11-.26.11c-.01,0-.01.01-.01.03,0,.05-.03-.06-.03.1v.06c-1.41.05-2.81.11-4.18.18-1.31.07-2.65.13-3.84.22-1.18.05-2.22.12-3.17.21a3.227,3.227,0,0,0-.75.11,2.882,2.882,0,0,1-.29.04c-.25-.01-.5-.01-.73-.01a10.783,10.783,0,0,0-2.13.16,2.955,2.955,0,0,0-.38.05c-.57-.03-1.15-.07-1.72-.12a3.006,3.006,0,0,0-1.14.54c.09.01.26.03.46.05-.53.06-.68.15-.35.24.04.01.04.02.06.04-.19,0-.36.01-.55.01h-.15v.05a2.358,2.358,0,0,1,.34.03.64.64,0,0,1,.15.05c.06.05.43.09.31.14-.1.05-.05.09.17.12-.09.03-.35.05-.01.08a2.809,2.809,0,0,1,.65.09c0,.03-.17.05-.5.07-.43.05-.3.09-.02.14.05.04-.04.09.38.12.04.01.08.01.12.02-.01,0,0,.02-.03.02-.83.05-1.02.11-.71.22a4.361,4.361,0,0,0,.6.1c.02.02.16.03.16.05s-.05.02-.21.03c-.54.03-.58.09-.17.16a.037.037,0,0,1,.03.01c.07.03-.28.04-.33.06a1.516,1.516,0,0,0,.32.02c.14,0,.29-.01.42,0,.31.01.24.03-.22.07h-.43a3.125,3.125,0,0,0-.58.02c-.07.03.21.04.37.05.37.03.34.06.05.09-.75.06-.75.08-.04.13.06,0,.08.02.12.02-.16.07-.46.12-.2.19-.06.03.05.05.16.07.21.05.45.1.19.16a1.386,1.386,0,0,0-.35.03c-.21.05-.43.09.04.14s.39.08-.02.12c-.11,0-.3-.01-.28.01a1.383,1.383,0,0,0,.4.03,2.841,2.841,0,0,1,.67.07c0,.02-.08.04-.21.06h-.36c-.22.02-.66-.01-.67.02a6.165,6.165,0,0,0,.68.04c.03.01.19.02.04.03-.42.02-.22.04-.03.06.12.01.24.02.36.04a2.35,2.35,0,0,0,.86.1,3.174,3.174,0,0,1,.37.08c.09.02.16.05.12.07-.22.03-.01.05.18.06.62.04.53.09.33.14-.08.02-.33.01-.4.03-.12.01-.18.03-.18.05s.06.03.19.05c.14.05,0,.1.36.14.07.01.15.01.23.02v.01c0,.01,0,.01-.01.01-.87.06-1.08.13-.7.24.03,0,.06.01.09.01a2.32,2.32,0,0,0,.39.06c0,.02.24.04.24.06a1.2,1.2,0,0,1-.16.02c-.57.05-.63.11-.21.18a.648.648,0,0,1-.13.04.754.754,0,0,0-.17.03h.05c-.13.03-.25.06-.37.09a.418.418,0,0,0-.18.02c-.02,0-.01.01,0,.01-.23.06-.47.11-.71.16a.486.486,0,0,0-.12-.01.741.741,0,0,0-.69.46c-.35.17-.69.34-1.03.52-.24.06-.29.23-.31.42a2.071,2.071,0,0,0-.37.76c0,.19.26.21.85.23a21.39,21.39,0,0,1,3.2-.03h2.24a.64.64,0,0,0-.13.15.806.806,0,0,0-.22,0l-.03.21a.076.076,0,0,0-.04.02c-.43.06-.86.12-1.29.17a1.238,1.238,0,0,0,.18.2,1,1,0,0,1-.25.04.276.276,0,0,1,.01-.09l.01-.01c.08-.03.04-.04-.04-.04a1.839,1.839,0,0,1-.33.03c-.1,0-.2-.01-.31-.02a3.45,3.45,0,0,0-1.23.11,9.369,9.369,0,0,0-1.85.33c-.01.06.05.07.11.07.13.01.34-.02.29.07-.03.05-.18.07-.31.09l-1.55.21c-.38.02-.39.03-.28.16-.28.15-.29.19-.05.31.21.11.18.16-.14.22-.15.03-.33.04-.49.06a1.7,1.7,0,0,0-.79.15c.4-.03.71-.05,1.02-.07s.55.05.86.04l1.56-.09c.06-.01.08,0,.04.02-.08.06-.27.01-.35.08a1.86,1.86,0,0,1,.52.03c-.52.01-.96.11-1.54.16,1.03.04,1.96-.17,2.97-.19-.29.06-.52.07-.6.17-1.02.12-2.04.23-3.06.36a2.362,2.362,0,0,0-.82.22c1.73-.11,3.45-.22,5.17-.31a1.86,1.86,0,0,0-.31.06c.01,0,.02.01.03.01a.8.8,0,0,0,.22.05c-1.32.12-2.65.21-3.96.39.55-.04,1.1-.07,1.65-.11a4.43,4.43,0,0,0,.89-.01c.13,0,.33-.05.39.01.1.09.3.04.46.03a6.035,6.035,0,0,1,.73-.02,2.44,2.44,0,0,0,.54-.02.814.814,0,0,0,.34.03.01.01,0,0,1,.01-.01.662.662,0,0,0,.15.01,1.488,1.488,0,0,1-.43.06c-1.24.11-2.48.21-3.79.32a10.384,10.384,0,0,0,1.85.02c.69-.05,1.37-.07,2.05-.08a1.44,1.44,0,0,0,.42.03,5.645,5.645,0,0,0,.58.04,1.973,1.973,0,0,1-.08.26c-.27.01-.54.02-.81.02a.528.528,0,0,0,.1-.06,1.733,1.733,0,0,0-.96.06c-.16.08.21.13.26.13a.271.271,0,0,1,.09,0,3.529,3.529,0,0,1-1.17.02c-.33.2-.81.04-1.14.04-.82.01-1.55.1-2.34.17.52.05,1.03.03,1.56.04-.11.09-.14.17-.32.18a.8.8,0,0,0-.58.12,7.492,7.492,0,0,1,1.25.08,6.669,6.669,0,0,1-1.89.08,17.714,17.714,0,0,1-1.93.13,2.574,2.574,0,0,1-1.35.14,3.281,3.281,0,0,1-.81.3,5.454,5.454,0,0,1,.57.04,2.329,2.329,0,0,1-1.1.34l.21-.12a10.734,10.734,0,0,0-1.19.18c-.27.02-.45.01.16.07a24.808,24.808,0,0,1,3.25.35c-.11,0-.24,0-.36-.01l.02.01c-.04,0-.24-.01-.28-.01h-.01a13.826,13.826,0,0,0-1.82.02c.05,0,.12.01.16.01s-.01-.01.03-.01.08.02.13.02a6.426,6.426,0,0,1,1.16.11c-.2,0-.41-.01-.61-.01.45.02.91.05,1.35.07l-.03-.01c.13.01.29,0,.42.01.02,0,.03.02-.02.02.69,0,1.4.01,2.09.02a.1.1,0,0,1,.03.01c.12.01.53,0,.59.01,1.42.03,2.73.09,4.12.15-.09.15-.24.24-.31.39a.936.936,0,0,1,.76.4c-.15-.05-.24.08-.29.14,0,.01,0,.01-.01.01v.01c-.01.01-.01.01-.01,0s-.02.01-.03,0c-.06.02-.03,0-.19.01-.97.07-2.14.13-3.13.16-.24.01-.48.04-.64.05-.65.05-1.17.07-1.79.11a1.755,1.755,0,0,1-.68.07c-.17.01-.33.03-.45.04-.82.04-1.59.13-2.39.23-.34.04-.67.05-1,.12a.91.91,0,0,0-.12.02c-.11.04-.13.07.15.09s.69.15,1.01.18l.36.03c.33.01.68.01,1.02.04.06,0,.13.01.19.01a13140.05,13140.05,0,0,0,.4.02c.27.01.54,0,.82-.01h.02c.04.01.22.04.29.05s.11.01.19.02.18.01.27.01a1.7,1.7,0,0,1,.21.01c.13,0,.34,0,.52.01,1.1.07,2.24.09,3.35.11a4.031,4.031,0,0,0-.72.71c-.06-.11-.22-.04-.29-.01s0,.04-.06.04-.05-.06-.08-.09a.149.149,0,0,0-.14-.04c-.05,0-.1.03-.09.07s.08.07.08.1-.05-.01-.04,0a11.613,11.613,0,0,0,1.52.81c-.02-.02-.38.01-.28.06s.61-.05.58.18c-1.37-.14-2.7-.44-4.06-.68-.24.3-.09.44.12.71a1.324,1.324,0,0,1,1.09.41,3.021,3.021,0,0,1,1.7.49,6.974,6.974,0,0,1-2.37.13,27.725,27.725,0,0,0-2.72.67c.06.54.42.77.89,1.04a18.506,18.506,0,0,0,3.49-.13c.25.37.87.12,1.15.36s-.28.47.06.68a.929.929,0,0,1,.62-.07,7.282,7.282,0,0,1,.53,1.89,14.933,14.933,0,0,0-1.89-.18.863.863,0,0,1-.8.38,1.075,1.075,0,0,0,.07.31,1.454,1.454,0,0,0-.88.38,38.686,38.686,0,0,1-4.5,1.19.57.57,0,0,0-.13-.01.751.751,0,0,0-.69.46c-.34.17-.68.34-1.03.51a.426.426,0,0,0-.31.43,2.165,2.165,0,0,0-.36.76c0,.19.25.21.85.23a21.361,21.361,0,0,1,3.2-.03h3.13v.2c-.87.12-1.74.23-2.61.35.16.21.28.29.4.28,1.21-.04,2.43-.04,3.64-.05a1.087,1.087,0,0,1-.24.07c.19.02.38.02.57.04a2.329,2.329,0,0,1-1.1.34,2.088,2.088,0,0,1,.21-.11c-.43,0-.73.13-1.19.17-.27.03-.45.02.16.08a24.789,24.789,0,0,1,3.25.35c-.11-.01-.24-.01-.36-.01l.02.01a2.632,2.632,0,0,1-.28-.02h-.01a15.774,15.774,0,0,0-1.82.02c.05,0,.13.01.16.01h.01a.035.035,0,0,1,.02-.01,1.306,1.306,0,0,0,.13.03,5.61,5.61,0,0,1,1.16.1c-.2,0-.41,0-.61-.01.44.03.89.05,1.32.07h.42c.02,0,.03.02,0,.02.11.03.24-.04.35.02a6.9,6.9,0,0,0,1.64.78c.88.21,1.98.17,2.92.3.21.03.44.08.64.13-.62.04-1.35.06-1.94.08-.25.01-.49.04-.65.05-.65.05-1.17.08-1.79.12a1.757,1.757,0,0,1-.68.07c-.17.01-.33.03-.45.03-.82.05-1.59.14-2.39.24a8.241,8.241,0,0,0-1,.12c-.02,0,0-.02-.12.02s-.13.06.15.09.69.14,1.01.18c.11.01.24.02.36.02.33.01.68.02,1.02.04.06.01.13.01.19.02s.13.01.2.01a1.424,1.424,0,0,1,.2.01c.27,0,.54,0,.82-.02a.031.031,0,0,1,.02.01c.04,0,.22.03.3.04s.1.01.18.02a2.259,2.259,0,0,0,.27.01,1.278,1.278,0,0,0,.21.01c.13.01.34.01.52.02,2.07.11,4.17.1,6.26.14.22,0,.44.01.66.01a1.566,1.566,0,0,1,.21.01h.31c.2.01.52.01.69.02h.41a1.94,1.94,0,0,0,.22.01c.28.01.45.01.76.02s.74.01,1.08.02c.18.01.38.01.57.01,2.79.05,5.59.12,8.38.18l1.33.03h.94c.36-.01.72,0,1.08,0-.09.01-.03.06.01.06s-.01-.05.03-.06h.13a1.659,1.659,0,0,1,.24-.02c.42.03.86.05,1.29.04a2.943,2.943,0,0,1,.42.01c-.29.01-.6.04-.88.04a1.713,1.713,0,0,1-.22.01c-.06.01-.05.02-.11.01a1.31,1.31,0,0,1-.23-.06c-.1-.04-.48-.01-.48.06v.01c-.02.01,0,.01-.03.01s-.07.02-.11.02c-.22.01-.44.03-.67.03a6.381,6.381,0,0,0-1.38.05c-1.89.05-3.78.07-5.67.09-.23.15-.52.13-.66.39,2.49.05,4.95.12,7.44.16.06.2-.09.11-.39.09a5.215,5.215,0,0,0-1.12.12,17.505,17.505,0,0,0,2.51.05.01.01,0,0,1,.01.01c.03.01-.02-.01.04.02a2.365,2.365,0,0,1,.28.27l.01.01h.12c.25.02.81-.03,1.14,0s.65.21.95-.02v.01c0,.01.03-.01.01-.02.01-.02.02-.04.09-.06a5.071,5.071,0,0,1,1.16-.16,2.713,2.713,0,0,1,.28.01,1.5,1.5,0,0,0,.92-.03.037.037,0,0,1,.03-.01h.01v-.01h.02a.435.435,0,0,1,.05-.01,1.746,1.746,0,0,1,.85,0,1.156,1.156,0,0,0,.8.16c.31-.01.7,0,.96-.02.4-.03-.33-.18.32-.11a8.856,8.856,0,0,0,1.78.04c.06.02.35.13.42.1a4.972,4.972,0,0,1,1.4-.13c.36,0,.33.01.55-.13v-.01a2.442,2.442,0,0,1,.89-.14,1.054,1.054,0,0,0,.31-.03c.44-.15.3-.24-.12-.28-.26-.03-.78.09-1.04-.11,2.04-.03,4.11-.07,6.16-.08a2.122,2.122,0,0,1,.44.01c.05.01-.02.13.01.15,1.48.05,2.97.09,4.45.14l-.15.03c.44.02.9.02,1.34.04-.02,0-.03-.03-.04-.03.63.01,1.26.03,1.9.04.06-.17.48-.16.68-.15a3.656,3.656,0,0,1,.74-.01c.16.04.27.18.43.23-.6-.02-1.21-.04-1.8-.02-.08,0-.18.01-.22.01h-.01a4.354,4.354,0,0,0-.81-.07h-.87c.08,0,.13.14.16.16s.01-.01.02,0h.01c.02.02.02.06.03.07a1.794,1.794,0,0,0,.73.15h.05a.713.713,0,0,0,.31.06,1.787,1.787,0,0,0,.4-.05h.02a.01.01,0,0,1,.01-.01h.01c.17.04.33.1.48-.01h.02a1.274,1.274,0,0,0,.19.01h.02l.02.01a1.02,1.02,0,0,0,.25.06v.01l-.02.01c-.04.04-.18.16,0,.17-.17.01-.33.01-.49.02a9.822,9.822,0,0,1,1.33.12,1.453,1.453,0,0,0-.55.01c.2.02.39.03.58.06-.31,0-.61-.03-.91-.03.08,0,.09.09-.03.11a3.328,3.328,0,0,1-.54-.02c-.16-.01-.35,0-.39.14-.02.05.12.09.17.09s.42.02.23.09-.63-.02-.67.13v.02c-.02.01-.02,0-.05-.01a2.114,2.114,0,0,0-.71,0c-.19.06-.35.15-.13.28a2.664,2.664,0,0,0,1.14.29c.26.02.71.1.93-.19.05-.08.26-.04.37-.02a3.155,3.155,0,0,0,1.69-.15,4.465,4.465,0,0,1,1.46-.23c.48-.02.9-.01,1.36-.01a18.87,18.87,0,0,0,3.89-.23,2.66,2.66,0,0,1,.58-.02,15.537,15.537,0,0,1,2.26.09,2.151,2.151,0,0,0,.57-.02c.71-.09,1.54-.12,2.22-.15.5-.02.75.16,1.2.17a7.731,7.731,0,0,1,1.36-.03,2.514,2.514,0,0,1,.49.08c.13.05.17.23.27.31.05-.16-.04-.24-.18-.32a11.476,11.476,0,0,0,1.44-.11c.08-.01.17-.03.22-.03s.05.06.1.07.05-.08.09-.09a3.573,3.573,0,0,1,.92.04h-.15a.677.677,0,0,0,.48.1c1.29-.03,2.54-.01,3.8.01.06.01.13.02.18.03.19.02.21.01.19-.03h.46c.58,0,1.15.02,1.73.04.3.02.61.03.94.03h.93c.52.01,1.06.03,1.57.04.3.01.61.01.92-.01a8.116,8.116,0,0,0,2.24-.07,1.063,1.063,0,0,1,.64.05c.29.18.71.03,1.09-.01-.09-.22-.47-.21-.89-.2-.56.02-1.11.01-1.67,0a22.906,22.906,0,0,1,3.8-.27c.13,0,.26,0,.39-.01-.03.02-.05.04-.08.06a.584.584,0,0,0,.18.02.237.237,0,0,0,.12-.09c.3-.01.6-.04.9-.08a4.2,4.2,0,0,1,.49-.02c0,.01-.05.03-.07.05a.2.2,0,0,0,.07-.01c-.06.04-.09.09-.02.11.26.09.05.28.23.38h.6a1.6,1.6,0,0,0,.83-.13c-.3-.22-1-.19-1.31-.39.09,0,.18.01.23.01.07.02.08.07.12.07s.02-.05.04-.05a5.263,5.263,0,0,1,.73.14.64.64,0,0,0,.56-.01.683.683,0,0,1,.71-.07.51.51,0,0,0,.45.01,1.353,1.353,0,0,1,.45.01c.35-.02.6-.03.98-.04h.2l-.87.06c.16.15.52.12.83.09.37-.03.75-.05,1.13-.06v.21c-.29.02-.57.03-.86.06-.03.06-.04.2.08.18a4.676,4.676,0,0,1,.78-.19c0,.19.01.39.01.58.14-.02.25.07.38.06.22,0,.42-.1.59.08.27-.04.56-.14.82-.19.08-.01.06.11.07.14.26-.02.54.03.8.03.13,0,.27-.14.38-.15s.3.03.17.11c.72-.08,1.42-.22,2.14-.3.29-.27.61-.17.98-.09a.579.579,0,0,1-.09-.08c.02,0,.03-.01.04-.01-.01-.02-.02-.03-.03-.05h.02c.28,0,.58.03.87.01l.14.03a.333.333,0,0,1-.13.16c.22-.01.44-.02.65-.05a2.037,2.037,0,0,1-.33-.09,4.53,4.53,0,0,0,.64.02c0,.01.01.02.01.03l.36-.03c.2-.01.39-.02.58-.02l1.18.06c-.07.02-.11.05-.05.1.13.09.31.02.43.02.09,0,.22-.04.23-.1.48.01.96,0,1.46-.02a2.472,2.472,0,0,1-.94.09,1.6,1.6,0,0,0,.97-.09,2.807,2.807,0,0,0,.29-.01l1.42.03a.343.343,0,0,1-.12.07,1.035,1.035,0,0,0,.39-.07,1.209,1.209,0,0,0,.19.01.921.921,0,0,1,.23.09.828.828,0,0,0-.32.04,2.976,2.976,0,0,1,.84.1c.72-.04,1.42-.06,2.14-.08a1.8,1.8,0,0,0,.5-.04,4.477,4.477,0,0,1,.85-.11,2.454,2.454,0,0,0,.66-.03.01.01,0,0,0-.01.01c.01,0,.04,0,.04-.01a.01.01,0,0,0,.01-.01.926.926,0,0,0,.1-.03,2.919,2.919,0,0,0,1.05-.09h.06a.708.708,0,0,0,.14-.01c.55,0,1.1-.01,1.65-.02.34.01,1.22.01,1.71-.03a3.84,3.84,0,0,1,1.11.07c-.22-.06-.5.11-.72.01a2,2,0,0,0-.94.07.075.075,0,0,1-.01.05c-.26.01-.5.01-.76.03h-.04a2.272,2.272,0,0,0-.69.02c-.11.02-.18-.04-.26.01-.02.02.01,0-.03.01a1.638,1.638,0,0,1-.22.01h-.01a.333.333,0,0,0-.08-.02c-.13-.02-.5-.07-.65.05h-.01a.01.01,0,0,0,.01.01c.06.04-.15-.07.08.07a1.879,1.879,0,0,0,1.23-.05,2.022,2.022,0,0,1,.74-.03c.01,0,0,.01.03,0s.19-.06.22-.02v.01h.05c.19,0,.25.01.61-.01.55-.04,1.65-.11,2.26-.09.4.02.7.05,1.04.04.98-.03,1.9-.1,2.86-.1a1.6,1.6,0,0,0,.49-.01c.18-.05.3.11.47-.02l.01-.01c.02-.02,0-.05.15-.11a2.32,2.32,0,0,1,1.69.13c.02.01.01-.02.02-.02.1-.02.3.03.37-.01.08-.06.08-.04.17-.06.07-.01.08.05.15.05a2.457,2.457,0,0,0,.47,0,10.6,10.6,0,0,1,1.12-.05c.21,0,.38-.06.57-.06l4.16.06c.13.01.27.01.39.01,1.69-.01,3.37.01,5.06.05,1.54.03,3.11-.08,4.65-.14,1.42-.04,2.83-.14,4.24-.17.01,0,.01.01.02.02.02.03.02.17-.03.2a.01.01,0,0,1-.01.01.031.031,0,0,0-.02.01,1.076,1.076,0,0,1-.18.03c-.39.06-1.19.09-1.75.14-.76.06-1.74.21-2.53.2a.312.312,0,0,1-.13-.06s-.23-.09-.26-.06h-.02a.212.212,0,0,0-.14-.04c-.06,0-.11.01-.12.04-.01,0-.06,0-.19-.01a12.347,12.347,0,0,0-1.91.02,17.709,17.709,0,0,1-1.91-.05,4.981,4.981,0,0,0-.54.07c-.34,0-.66-.15-.97.05l-.02.01a.413.413,0,0,1-.19-.02c-.16-.02-.35.07-.49.03h-.01l.01.01c0,.03.01.02.04.09a.385.385,0,0,0,.3.12c.01,0,.01-.01.02,0,.01-.01.01,0,.01,0a.493.493,0,0,0,.27,0,.077.077,0,0,1,.03-.01c1.75.06,3.49-.01,5.24-.05a.031.031,0,0,1,.02.01c.03.02.12-.03.17,0s.01.03.08.06a2.024,2.024,0,0,0,1.06-.04,8.989,8.989,0,0,1,1.65-.09c1.87.07,3.6.43,5.38-.27h.01l.03.01h.02c.04,0,.11.01.22.02a15.063,15.063,0,0,0,3.24-.24c.72-.1,1.35-.02,2.05-.17a2.716,2.716,0,0,0-2.06.08v.01a.035.035,0,0,0-.02-.01h-.22c-.59,0-1.86.07-2.51.11-.44.03-.32.01-.55-.21.01,0,.01,0,.01-.01h-.01c-.01,0-.01-.01-.02-.01-.06-.03-.26-.03-.3-.12a11.457,11.457,0,0,0,1.85-.17h.04a18.77,18.77,0,0,1,2.1-.17.576.576,0,0,0,.15-.01c.02,0,0,.01.03,0s-.01.01.02,0h.03a.075.075,0,0,1,.05-.01c.22-.05,1.11-.3,1.45-.38a6.166,6.166,0,0,0-.75.04,5.051,5.051,0,0,1-.56-.02c-.71,0-1.41.03-2.12.06a5.963,5.963,0,0,0,.61-.1c.06-.01.09-.07.15-.07,1.52-.05,3.11-.08,4.61-.15s2.91-.07,4.39-.09c.8-.01,1.61,0,2.41.04.24.01.47-.04.71-.02a.321.321,0,0,1,.08.01,6.661,6.661,0,0,0,1.18-.01h.02c.06.01.11-.02.18,0s.27.05.28,0v-.02a.829.829,0,0,1,.34-.33c-1.01.03-2.03.06-3.05.06-2.67,0-5.35-.01-8.03.04-1.32.03-2.64-.02-3.95.13-.03,0-.06-.01-.09-.01a15.076,15.076,0,0,0-2.77.02,16.988,16.988,0,0,1-2.02.05c-.18,0-.1,0-.14-.11.4,0,.8.02,1.2,0,1.41-.11,2.8-.2,4.22-.28,1.75-.09,3.52-.11,5.28-.15.85-.02,1.71,0,2.56-.05a2.061,2.061,0,0,1,.21-.02h.02a4.323,4.323,0,0,0,.81.03c.31-.01.7-.02,1.03-.02a1.233,1.233,0,0,1-.43-.16c-.01-.01-.01.01-.02,0s-.06-.04-.07-.07c-.15-.23-.76-.19-.8-.15q-.03.015-.03.03h-.02a.031.031,0,0,1-.02-.01,1.824,1.824,0,0,0-.66.02.031.031,0,0,1-.02.01h-.01v.01a.01.01,0,0,0-.01-.01c-.01,0-.02,0-.03-.02s-.12-.01-.12-.04a.189.189,0,0,1,.17-.09,9.247,9.247,0,0,0,1.58-.01,2.325,2.325,0,0,1,1.18.14,1.944,1.944,0,0,0,.34-.21c.98-.08,1.97-.05,2.96-.08.59-.02,1.2-.2,1.8-.24a1.3,1.3,0,0,1-.26.14,18.384,18.384,0,0,1,2.46-.07,1.772,1.772,0,0,1,.49-.31,8.939,8.939,0,0,1-1.79-.13c-.69.03-1.38.09-2.07.16a.135.135,0,0,1,.05-.12,10.872,10.872,0,0,0-1.28.13c-1.12.03-2.25.03-3.37.12.96-.14,1.91-.28,2.87-.44,2.08-.05,4.14-.19,6.21-.38,0,.02.03.01,0,.04s-.15.06-.19.08-.05.05-.02.08.01.02.08.05a2.69,2.69,0,0,0,.32.09c.13.04.39.11.54.17a.031.031,0,0,1,.02.01.239.239,0,0,0,.07.03c.02.02.05.03.07.06a.219.219,0,0,1,.09.1h.01l-.01.01a.01.01,0,0,0-.01.01c-.08.21.2.36.22.23v-.02c.13-.04.28-.06.4-.1.02-.01-.04-.06-.03-.07h.01a.107.107,0,0,1,.05-.03c.09-.04.39-.16.52-.23h.03a1.155,1.155,0,0,0,.17-.01.391.391,0,0,0,.16-.1,1,1,0,0,1,.64-.18,6.515,6.515,0,0,1,.83.11c.42.09.83.24,1.2-.08.01-.01-.02-.01.05-.04a1.027,1.027,0,0,1,.5.08,1.5,1.5,0,0,0,1.21-.03,3.556,3.556,0,0,0,1.11-.53c.01-.01-.02-.02-.03-.01-.19,0-.51.03-.68.03a2.041,2.041,0,0,1-.32-.06.01.01,0,0,0-.01.01c0-.01.01-.01.01-.04,0-.05.2-.14.24-.19s-.03-.11-.09-.11c-.49.03-.85-.1-1.37-.07-.82.03-1.75.12-2.6.19a6.327,6.327,0,0,0-1.36.22,3.5,3.5,0,0,1-1.48.07.347.347,0,0,1-.13-.02s-.01-.06.06-.04.38.05.49.05c.1-.18-.12-.16.27-.18.06-.01.11-.05,0-.08s-.26-.16-.39-.15a3.829,3.829,0,0,1-1.47-.06c-.09-.02-.25-.03-.3-.04s-.03-.03-.04-.04-.04-.08-.01-.08c.32,0,.67.02,1.01,0l.01.01a.037.037,0,0,1,.03.01,1.032,1.032,0,0,0,.41.08c1.02-.02,2.04-.02,3.05-.09a.6.6,0,0,1,.19,0,3.869,3.869,0,0,0,.59,0,6.587,6.587,0,0,0,.77,0h1.15c.02.01-.02-.01.04.01a.913.913,0,0,0,.33,0l.01-.01H819c.31.01.64,0,.95.01.08,0,.12.03.2-.01h.02a.957.957,0,0,0,.17,0,1.414,1.414,0,0,1,.2-.04.6.6,0,0,1,.19,0,2.488,2.488,0,0,0,.72,0h.04c.02,0,.02-.01.04,0,.29.01.61.01.91,0,.67-.02,1.33-.02,1.99,0a2.069,2.069,0,0,0,.5-.05s0-.02-.03-.02a.451.451,0,0,1,.13-.01h.45a2.306,2.306,0,0,0-.37.03,3.175,3.175,0,0,0,.62.05c.79-.01,1.61-.01,2.39.01,1.1.03,2.18,0,3.28.05.11,0,.24-.01.36-.02.35-.03.69-.03,1.04-.03.02,0,.03-.01.04-.03s-.03-.03-.06-.04c-.44-.04-.89-.06-1.34-.06a1.281,1.281,0,0,0-.27.05,1.6,1.6,0,0,1,.26-.08c.12,0,.5,0,.51-.13s-.17-.04-.21-.08c.92.01,1.82.01,2.75.01.31,0,.72.04.8-.31.02-.07-.04-.11-.05-.16s-.12-.02-.12-.05c-.01-.18-.37-.11-.52-.11s-.29-.01-.44-.01a7.033,7.033,0,0,0,1.04-.05c.24-.06,0-.17-.14-.17-1.53-.01-3.07,0-4.6.01l-3.67.03v-.02c-.01,0-.01.01-.02.02h-1.75c.11-.15.27-.3.13-.45a.136.136,0,0,0,.04-.03v-.02a.01.01,0,0,0,.01.01,1.843,1.843,0,0,0,.42.03.55.55,0,0,0,.18,0,1.094,1.094,0,0,0,.18,0c.35-.01.69-.06,1.03-.06.07,0,.13-.01.2-.01a6.876,6.876,0,0,1,.9-.05c.66-.05,1.31-.07,1.97-.12a1.5,1.5,0,0,0,.66-.12h.11a.1.1,0,0,0,.11.01,2.088,2.088,0,0,1,.25-.01c.38-.01.76-.08,1.14-.08.1-.01.18-.02.18-.04s-.02-.02-.07-.04c-.15-.04-.42.02-.53-.05.38-.03.75-.05,1.13-.07h.11c.2,0,.42.03.56-.11.67-.03,1.33-.02,1.99-.1l1.74-.18a7.016,7.016,0,0,0,.95-.29c.17-.04.15-.12.19-.19-.02-.03-.05-.07-.07-.1.08-.13.16-.24-.14-.33-.17-.05.03-.11.22-.13.12-.03.22-.06.22-.11,0-.02-.01-.03-.04-.05a.117.117,0,0,1-.05-.05c.29,0,.48-.01.48-.06-.01,0,.28,0,.16-.03a1.6,1.6,0,0,0-.32-.01h-.29a.06.06,0,0,0,.01-.04.037.037,0,0,0,.01-.03c0-.03-.02-.06-.08-.07-.03-.05-.13-.05-.22-.06.44-.1.43-.1.22-.22a1.213,1.213,0,0,0-.64-.12c-.27.01-.53.01-.8.01a1.925,1.925,0,0,1-.24.01,1.183,1.183,0,0,1-.27-.02c.11-.03.22-.05.32-.08a2.9,2.9,0,0,0,.78-.08,10.106,10.106,0,0,0-1.22-.02c-.2,0-.41,0-.46-.09.11-.01.21-.01.35-.02.26,0,.52.01.77.02a2.118,2.118,0,0,0,.38-.02c.04-.01-.02-.02-.1-.02-.26-.01-.52-.01-.78-.02h-.01c-.06,0-.12-.01-.17-.01a2.86,2.86,0,0,1-.68-.04c-.13-.03.15-.05.29-.06.39-.03.43-.04-.08-.06s-.99-.03-1.51-.03h-.09c-.35-.02-.79,0-1.12-.03-.05-.02,0-.04.22-.03a10.369,10.369,0,0,0,1.23-.06,12.453,12.453,0,0,0,1.37.01.717.717,0,0,1,.17.02c-.07.02-.09.04.18.04.2-.01.33-.02.27-.05a1.81,1.81,0,0,0-.51-.04c-.46-.03-.02-.04.12-.06a2.469,2.469,0,0,0,.33-.01.01.01,0,0,0-.01-.01c-.15-.04-.07-.11-.74-.11-.33,0-.62-.02-.9-.04-.07-.04.08-.05.37-.04a1.382,1.382,0,0,0,.36,0c.05-.03-.19-.03-.37-.03h-.01v-.03h.12c.17-.01.37,0,.5-.02.23-.01.45-.03.67-.04-.13-.03-.59-.03-.39-.07a2.811,2.811,0,0,1,.51-.01c.65.06.43-.03.53-.05.08-.01-.13-.04-.08-.07.4-.06.27-.09-.51-.1v-.02c.09-.01.17-.01.26-.02a5.753,5.753,0,0,0,.59-.01h.35a1.34,1.34,0,0,0,.12-.12c.23.01.53-.01.73.01a2.382,2.382,0,0,0,.71-.01c.19-.04.11-.12-.17-.13l-1.13-.06a7.166,7.166,0,0,1,.67-.99,22.526,22.526,0,0,1-5.94-.38,1.1,1.1,0,0,0,.38-.04,3.638,3.638,0,0,1,.61-.03h.36c.48-.01.94.05,1.48.01-.26-.05-.79-.02-.98-.07-.04-.02-.1.02-.13.03a2.836,2.836,0,0,1-.62-.06c.06-.01.1-.03.2-.05.38-.05.36-.06-.25-.07-.18-.01-.36-.01-.54-.01-.28-.01-.58-.01-.88-.01-.27-.02-.58-.01-.87-.02h-.1c-.04-.01-.08-.03-.13-.04a3.448,3.448,0,0,1,.37-.01,4.8,4.8,0,0,0,.84-.04c.08-.01.16-.01.25-.02.44.03.89.03,1.36.02.08,0,.22,0,.18.02s-.14.03.08.03a1.151,1.151,0,0,0,.36-.02c.28-.06-.19-.06-.5-.07-.46-.03-.03-.03.12-.05.09,0,.18-.01.28-.01-.02-.05.06-.11-.52-.12-.39,0-.72-.02-1.07-.04-.04-.04.09-.05.36-.04a1.484,1.484,0,0,0,.39-.01,1.814,1.814,0,0,0-.41-.02c-.05-.03.1-.04.27-.04a3.1,3.1,0,0,0,.46-.02l.57-.03c-.05-.03-.51-.03-.42-.07a1.619,1.619,0,0,1,.46-.01c.47.04.47.04.62-.03l-.09-.09c.16-.02.25-.03.25-.05s-.08-.03-.28-.04l-.01-.01-.25-.03c.09,0,.19-.01.28-.01a1.876,1.876,0,0,0,.52-.03c0-.04-.27-.05-.54-.05-.16-.01-.33-.01-.49-.02-.09-.02-.48-.04.05-.05.44-.01.87-.02,1.3.01.22.02.53,0,.76.02a2.417,2.417,0,0,0,.66-.01c.19-.03.14-.13-.11-.14-.56-.02-1.07-.06-1.67-.07-.69-.02-1.31-.05-1.89-.1-.05,0-.1-.01-.16-.01,1.61-.03,3.22-.11,4.83-.26.08-.23.4-.29.54-.49a2.764,2.764,0,0,1-1.58-.34c.5.02.45-.17.5-.56.64-.06,1.34-.07,1.4-.77a5.882,5.882,0,0,0,2.67-1.28.783.783,0,0,0,.65-.06c.02-.01.01-.05.07-.04a.556.556,0,0,1,.18.08.7.7,0,0,0,.29.02c.06-.01.18-.03.16-.09s-.13-.07-.16-.1.08.01.08-.01c-1.07-.34-2.22-.28-3.31-.53-.01,0,.72-.1.55-.12s-1.15.17-1.26-.1c2.8-.06,5.63-.03,8.44-.08.51-.4.1-.48-.34-.68a3.88,3.88,0,0,1-2.24-.18,10.955,10.955,0,0,1-3.7-.22,32.889,32.889,0,0,1,4.95-.54c1.79-.4,3.6-.72,5.35-1.24a.824.824,0,0,0-.17-.29c.25-.06.51-.11.76-.16a.57.57,0,0,0,.13.01.765.765,0,0,0,.7-.46c.34-.16.69-.33,1.03-.5.24-.06.29-.23.32-.42C855.36,1577.22,855.33,1577.19,854.31,1577.14Zm-218.25-7.81h.12l.01.01A.57.57,0,0,0,636.06,1569.33Zm1.03,25.88a2.1,2.1,0,0,0-2.02,0c-.32.15-1.06.15-.81-.62.35,0,.7-.01,1.04-.01h1.75a7.561,7.561,0,0,1,.65.61C637.5,1595.2,637.3,1595.21,637.09,1595.21Zm25.78,5.39c-.08.02-.09-.02-.21-.03s-.44-.05-.57-.05-.24.02-.34.02c-.03,0,0-.06.02-.06.42-.01.86,0,1.29,0C662.97,1600.49,662.94,1600.59,662.87,1600.6Zm6.67-.22c-1.24.02-2.48.01-3.72.08a2.556,2.556,0,0,1-.27.05,6.126,6.126,0,0,1-.74-.05c.56-.02.99-.02,1.58-.05s1.32-.14,1.96-.18l.66-.03c.98-.03,2-.06,2.99-.08a1.457,1.457,0,0,1,.22.03A24.023,24.023,0,0,1,669.54,1600.38Zm5.84-34.72a.01.01,0,0,0-.01-.01h.04A.037.037,0,0,1,675.38,1565.66Zm3.77-.42a1.661,1.661,0,0,1,.63-.01C679.57,1565.24,679.36,1565.23,679.15,1565.24Zm8.62,36.56a2.471,2.471,0,0,0,.67.04A1.667,1.667,0,0,1,687.77,1601.8Zm1.65-.51c-.01,0-.03-.02-.03-.02s.07.01.1.02Zm3.65-.86c.25-.01.49-.01.74-.01-.02.03-.03.06.01.09-.77-.01-1.54-.02-2.31-.04C692.03,1600.45,692.55,1600.43,693.07,1600.43Zm-1.47.44a.328.328,0,0,1,.03-.06c0-.02,0-.02.01-.02.43,0,.88-.05,1.28-.02s.78.07,1.17.08c.02,0,0,.03-.02.03-.81.06-1.62.09-2.44.1h-.14A.289.289,0,0,0,691.6,1600.87Zm7.53.33a22.418,22.418,0,0,0-3.66.23,2,2,0,0,1-.42.01c-.13,0-.17-.01-.31-.01a5.265,5.265,0,0,1-.56-.04c-.13-.01-.18-.02-.29-.02a.884.884,0,0,0-.27.04,1.179,1.179,0,0,1-.4.09c-.37-.03-.65-.19-1.06-.22-.62-.05-1.33-.02-1.98-.01a15.384,15.384,0,0,1,1.83-.15c.69-.02,1.56-.05,2.28-.1a.465.465,0,0,1,.2.03,1.2,1.2,0,0,0,.2.03,3.674,3.674,0,0,0,.58.07c.03.01.07,0,.11.01s.07.04.11.04.09-.04.14-.04c.47,0,.94.01,1.41.02s.94-.02,1.4-.03c.25,0,.51.03.75.02a.683.683,0,0,1,.12.03Zm1.3,0c-.21,0-.47.01-.67,0-.02,0-.04-.02.02-.05a3.36,3.36,0,0,1,.45,0c.1.01.22.04.29.04A.775.775,0,0,1,700.43,1601.2Zm16.11-36.64c.02,0,.11.01.13.01-.02,0-.13.03-.14.03S716.53,1564.57,716.54,1564.56Zm-.02,36.74c-.21-.01-.43-.02-.64-.02a2.086,2.086,0,0,1,.37-.17,1.636,1.636,0,0,0,.93,0,2.021,2.021,0,0,0,.55.21C717.32,1601.32,716.92,1601.31,716.52,1601.3Zm7.04-36.1-.02-.01h.04A.035.035,0,0,1,723.56,1565.2Zm3.53-.43c-.01,0-.01-.03,0-.03a.473.473,0,0,1,.17.01S727.1,1564.77,727.09,1564.77Zm9.86,36.84v-.01H737S736.95,1601.6,736.95,1601.61Zm.61-.21v-.01c0-.02.08-.1.11-.1C737.69,1601.31,737.61,1601.41,737.56,1601.4Zm5.63.15c.26-.02.52-.05.77-.07a.782.782,0,0,1,.34.05C743.93,1601.54,743.56,1601.55,743.19,1601.55Zm2-.04h-.18c-.19.01-.39.02-.59.02-.04-.03-.1-.05-.1-.06.04-.01.44.04.69.04.15,0,.24-.02.18-.07.11.01.23.03.34.04A1.4,1.4,0,0,1,745.19,1601.51Zm4.7-36.46c0,.01-.01.01-.02.01s-.02,0-.02-.01Zm-.05,35.99c-.03-.02.12-.06.17-.06a1.705,1.705,0,0,1,.3.05C750.18,1601.05,749.93,1601.1,749.84,1601.04Zm1.64-36.01c0-.01.01-.01.02-.01l.01.01Zm24.46-.61a3.119,3.119,0,0,0-.61.01A2.087,2.087,0,0,1,775.94,1564.42Zm14.76,36.2c.1-.01.2-.01.31-.01-.15.01-.29.02-.36.02A.108.108,0,0,1,790.7,1600.62Zm2.89-1.3a.2.2,0,0,1,.06-.02l.2.01Zm3.39-.06h-.08c-.32.01-.81.07-1.18.07-.08,0-.21-.03-.29-.03.55-.03,1.06-.06,1.62-.09.74-.04,1.54-.07,2.29-.08a.052.052,0,0,1,.04.02C798.58,1599.18,797.78,1599.22,796.98,1599.26Zm3.19-.06h-.03a1.148,1.148,0,0,0-.19-.01c-.02,0,.01.01-.04,0a2.407,2.407,0,0,0-.26-.05h-.02c-.01-.01-.01,0-.01-.01h.01c.18,0,.41-.01.58,0C800.21,1599.14,800.17,1599.18,800.17,1599.2Zm.13-34.06c-1.31-.01-2.61-.03-3.91-.04.91-.05,1.81-.12,2.72-.19a2.106,2.106,0,0,1,.24-.06,3,3,0,0,1,1.45.29C800.64,1565.13,800.46,1565.14,800.3,1565.14Zm2.15-.23a2.708,2.708,0,0,0-1.01.11c.16-.14.41-.16.5-.36.11.01.11.02.24.03s.44.03.59.03a1.759,1.759,0,0,0,.33-.03C803.08,1564.98,802.74,1564.91,802.45,1564.91Zm14.49,32.85a4.032,4.032,0,0,1,.44-.11c.08-.02.13-.05.16-.04s.06.07.06.1c0,.14-.19.03-.32.03a.835.835,0,0,0-.46.12C816.81,1597.78,816.85,1597.78,816.94,1597.76Zm-3-.09a5.23,5.23,0,0,0-.57.39c-.05.03-.04.07-.01.09-.07-.04-.05-.08.03-.12C813.05,1597.69,813.68,1597.7,813.94,1597.67Zm-1.59-.49c0-.01.02-.01.03,0a.037.037,0,0,0-.03.01Zm-4.71-31.7v-.01h.01A.01.01,0,0,1,807.64,1565.48Zm18.48,31.25a.2.2,0,0,1-.08.01c-.09,0-.37,0-.49-.01Zm-1.23-1.28a.165.165,0,0,0,0,.19c-.5.01-.99.01-1.49.01a4.649,4.649,0,0,0-1.7-.25.742.742,0,0,0-.37.25c.04-.13.18-.18.27-.27a3.9,3.9,0,0,0,.48-.05,11.518,11.518,0,0,1,1.43-.07,1.491,1.491,0,0,1,.21-.02,1.427,1.427,0,0,1,.29-.03h.01a1.232,1.232,0,0,0,.4.04h.17c.09,0,.18-.01.26-.01.03,0,.06-.01.08-.01A.2.2,0,0,1,824.89,1595.45Zm9.13-3.92a.01.01,0,0,1-.02,0Zm.26.07c-.01.01-.01.02-.05.02-.12.01-.24.01-.37.01Zm7.67-15.02h-.52A.718.718,0,0,1,841.95,1576.58Zm-7.1-10.19c.35-.01.71,0,1.07.02-.52-.01-1.03-.01-1.55,0C834.53,1566.4,834.69,1566.4,834.85,1566.39Zm-.95,3.31c-.01-.01,0-.01-.01-.02a.4.4,0,0,0-.32-.28c.74,0,1.49,0,2.24-.01.3.05.59.11.89.17a.372.372,0,0,0,.24-.07,1.4,1.4,0,0,1,.16-.1h.23c.21-.06.39-.11.53-.16a.873.873,0,0,1,.5.37,2.314,2.314,0,0,1,1.57-.33.974.974,0,0,1,.25.02,2.142,2.142,0,0,0,2.15.09c.32-.15,1.05-.14.8.62-.35.01-.7.01-1.05.01-2.65-.03-5.31-.05-7.96-.08A.79.79,0,0,0,833.9,1569.7Zm13.24,7.62h-1.05c-2.43-.02-4.87-.04-7.3-.07.12-.01.24-.02.36-.04s.32-.02.18-.05c-.25,0-.39.03-.66.02-.66-.02-.71-.02-.64.03.02.01.08.02.04.03h-.44a2.884,2.884,0,0,1-.68-.1.844.844,0,0,1,.39-.04h.25a3.867,3.867,0,0,0,.85-.05c.05-.02.13-.03-.02-.05a1.089,1.089,0,0,0-.34.02,2.246,2.246,0,0,1-.69.01l.39-.03.01-.01v-.01c.07-.01.22-.03.22-.06a.327.327,0,0,0-.08-.02c.79,0,1.57-.04,2.35-.1a2.953,2.953,0,0,1,.43.08.458.458,0,0,0,.24-.08l.21-.12c.23,0,.46-.01.69-.01h.28a1.356,1.356,0,0,1,.24.24,2.371,2.371,0,0,1,1.57-.33c.08.01.19-.01.25.03a2.142,2.142,0,0,0,2.15.08C846.66,1576.55,847.4,1576.56,847.14,1577.32Z" fill="#fff"/>
    <path id="Path_665" data-name="Path 665" d="M675.307,1563.863l-.109-.056.059.1Z" fill="#fff"/>
    <path id="Path_666" data-name="Path 666" d="M746.97,1564.276l-.529.234a.557.557,0,0,0,.523.245Z" fill="#fff"/>
    <path id="Path_667" data-name="Path 667" d="M672.834,1563.544l.261.242C673.029,1563.687,673.231,1563.348,672.834,1563.544Z" fill="#fff"/>
    <path id="Path_668" data-name="Path 668" d="M639.117,1574.352c-.013-.013-.016-.035-.04-.038a.544.544,0,0,0-.108.022c.013.013.016.035.041.037A.482.482,0,0,0,639.117,1574.352Z" fill="#fff"/>
    <path id="Path_669" data-name="Path 669" d="M726.752,1601.311a2.55,2.55,0,0,0-1.166.2c-.032.019.025.066.041.1l1.413-.016C727.112,1601.451,727.038,1601.3,726.752,1601.311Z" fill="#fff"/>
    <path id="Path_670" data-name="Path 670" d="M716.643,1602.419l1.121.121A1.259,1.259,0,0,0,716.643,1602.419Z" fill="#fff"/>
    <path id="Path_671" data-name="Path 671" d="M637.184,1570.459a.83.83,0,0,0-.115-.015.649.649,0,0,0-.124.01c-.027.009,0,.02.107.019C637.1,1570.472,637.133,1570.465,637.184,1570.459Z" fill="#fff"/>
    <path id="Path_672" data-name="Path 672" d="M841.416,1574.633c0,.044.342.03.565.039.13,0,.323,0,.314-.018a2.279,2.279,0,0,0-.56-.043A.828.828,0,0,0,841.416,1574.633Z" fill="#fff"/>
    <path id="Path_673" data-name="Path 673" d="M838.146,1590.859c0,.044.341.029.564.039.13,0,.323,0,.314-.018a2.178,2.178,0,0,0-.56-.043A.817.817,0,0,0,838.146,1590.859Z" fill="#fff"/>
    <path id="Path_674" data-name="Path 674" d="M836.359,1588a1.968,1.968,0,0,0,.513.031c.144,0,.344.007.314-.019a2.5,2.5,0,0,0-.536-.037C836.487,1587.968,836.349,1587.981,836.359,1588Z" fill="#fff"/>
  </g>
</svg>
