<svg xmlns="http://www.w3.org/2000/svg" width="377.049" height="33.467" viewBox="0 0 377.049 33.467">
  <path id="yelow-bg" d="M546.58,2807.143c-.359-.042-.717.178-1.076,0l-1.052-.026v-.169l.878-.273c-.051-.173-.092-.242-.132-.239-.72.051-1.441-.016-2.162.014-.3.013-.6.015-.908.011a.631.631,0,0,1,.271-.115,1.459,1.459,0,0,0-.625-1.009l.017,0a.179.179,0,0,0-.046-.015c-.029-.017-.058-.033-.088-.048h0a.365.365,0,0,1,.171,0c.221.042.145-.025.179-.043s-.045-.036-.027-.057c.135-.054.092-.076-.171-.084v-.025l.086-.01-.012,0h0l.009,0a.92.92,0,0,0,.213-.01c.1-.034,0-.044-.079-.055-.1-.013-.2-.023-.3-.034,0-.012,0-.027.052-.026.134,0,.265-.017.4-.006.078.037.224.009.318.029a.358.358,0,0,0,.236,0c.065-.034.038-.1-.055-.116-.176-.021-.347-.047-.537-.056-.324-.02-.582-.085-.893-.113,0-.062,0-.125-.007-.187h.01c.061-.008.1-.02.052-.041a.24.24,0,0,1,.091-.014.256.256,0,0,1,.179.075.125.125,0,0,0,.112.023c.077-.018.228-.005.242-.044.008-.022-.069-.034-.139-.036a1.394,1.394,0,0,1-.3-.044s0-.007-.008-.01a.224.224,0,0,1,.08-.01,3.572,3.572,0,0,1,.513.031l.023-.013-.117-.044h0c-.01-.011-.029-.02.032-.027s.082-.019.008-.031h-.165c-.2.007-.385-.017-.577-.027h0c-.013,0-.027-.006-.042-.009h0c.429-.013.858.055,1.287.038.216-.008.446.083.624-.321a7.607,7.607,0,0,1,1.517-.956c.136.044.219-.113.277-.369h0c.116-.14.231-.281.347-.422.08-.048.1-.191.106-.351h0c.194-.769.183-.792-.159-.832-.359-.041-.717.178-1.076,0l-1.052-.026v-.169l.878-.273c-.051-.173-.092-.242-.132-.239-.72.051-1.441-.016-2.162.015-.164.007-.328.006-.492.008a2.742,2.742,0,0,0,.052-.928c0-.2-.017-.391-.026-.586a.24.24,0,0,0-.062-.158c.11-.51-.1-.4-.219-.428-.072-.018-.144-.03-.216-.041a.753.753,0,0,0,.486-.143.717.717,0,0,0-.071-.718,14.076,14.076,0,0,0-2.114.072c-.836.082-1.674.146-2.511.179a.163.163,0,0,0-.038-.022.324.324,0,0,0-.066-.016c-.019,0-.045,0-.059,0s-.017-.021-.026-.023c-.294-.045-.575-.073-.872-.1l-.157-.009c-.6-.038-1.1-.062-1.74-.108-.933-.068-1.985-.116-2.941-.146.01-.009.067-.037.068-.06l0-.007s0,0-.011-.009a.2.2,0,0,0-.14-.042c-.046.01-.119.03-.126-.127-.071-.071-.09-.115-.176-.088a.622.622,0,0,1-.47.022s0,.007,0,0l-.012-.036c-.059-.176-.07-.142.084-.134a.721.721,0,0,0,.357-.135,1.441,1.441,0,0,0-.834.032l0,0c-.01-.008.008,0-.021-.02a1.647,1.647,0,0,1-.134-.209l-.009-.015s-.011.007-.036,0c-.071-.011-.271.05-.377.038s-.214-.146-.314.043v0c0-.008-.011,0-.006.011h0c0,.006.007.019-.039.057a2.91,2.91,0,0,0-.34.16.457.457,0,0,1-.094,0c-.13-.1-.189-.045-.309.063h0l0,0c-.012.007.028-.02-.023.009s-.218.1-.279.029a.268.268,0,0,0-.292-.107c-.108.012-.229.021-.328.042-.138.029.088.126-.111.1a1.075,1.075,0,0,0-.593.034s.016.022,0,0-.137-.1-.159-.075a.61.61,0,0,1-.46.154c-.114.008-.1-.011-.164.129l0,0s.021,0-.045.048-.235-.035-.368-.041c-1.352-.062-2.737-.043-4.1-.06-.153,0-.308-.007-.46-.008a.126.126,0,0,0,.018-.113.119.119,0,0,0-.078-.069c-.023,0-.15.013-.094-.072s.143-.058.194-.138l0,0h.012c.045-.007.19.067.251-.027s.064-.166-.019-.241a.706.706,0,0,0-.424-.186c-.09-.012-.243-.093-.291.187-.012.069-.089.04-.123.031a.425.425,0,0,0-.548.174.637.637,0,0,1-.46.249c-.157.026-.3.03-.459.046-.3.03-.6.058-.908.113-1.254-.024-2.512-.051-3.764-.065a2.157,2.157,0,0,0-.428.024,1.478,1.478,0,0,1-.361.015c-.493-.013-.979-.039-1.471-.031h0c-.252-.011-.5-.016-.756-.02a.368.368,0,0,0-.046-.044c-.04-.03-.051-.009-.031.042-.239,0-.477-.008-.715-.016q-3.7-.127-7.4-.291c-.806-.035-1.609-.043-2.414-.113-.214-.019-.389-.2-.6.007a.1.1,0,0,1-.029.028c-.087.055-.179-.04-.278-.044-1.577-.061-3.159-.1-4.739-.139l-.056-.044a.092.092,0,0,1-.017-.015c-.006,0-.024.007-.078,0-.117-.008-.4.025-.623.036l-.237-.006a.969.969,0,0,0-.493-.012c-.076,0-.152,0-.23-.006a.4.4,0,0,0-.088,0,1.891,1.891,0,0,1-.2,0c-.322-.017-.653-.073-.978-.058-.523.025-1.049.032-1.572.012a1.435,1.435,0,0,0-.333.037,2,2,0,0,0,.653-.36c.007-.007-.015-.014-.023-.014-.135,0-.4.029-.507.03a1.05,1.05,0,0,1-.237-.049c-.038,0-.02,0-.012,0h0a.9.9,0,0,0,.188-.175c.037-.062-.019-.1-.071-.1-.365.017-.634-.086-1.022-.068-.62.028-1.312.1-1.952.153a5.406,5.406,0,0,0-.79.125c-.008-.028-.026-.036-.071.017-.056.014-.106.02-.164.038a2.529,2.529,0,0,1-1.123.061c-.421-.056-.958-.056-1.4-.1-.046-.005-.059.086-.124.072s-.3-.059-.365-.011a1.3,1.3,0,0,1-.942.209,8.657,8.657,0,0,0-1.429.162.848.848,0,0,0,.111.03,9.322,9.322,0,0,0,1.058-.008c.879-.046,1.748-.151,2.619-.205a1,1,0,0,1,.187.014c.045.006.061.017.04.049s-.114.052-.141.075-.038.038-.014.064,0,.013.058.038a1.745,1.745,0,0,0,.234.081,3.731,3.731,0,0,1,.393.138.047.047,0,0,1,.017.008c.009.006.034.018.051.029l.019.016-.277,0c-.154,0-.3-.008-.46-.017a.339.339,0,0,0-.088,0,1.336,1.336,0,0,1-.194,0,8.652,8.652,0,0,0-.974-.065,12.96,12.96,0,0,1-1.563.015c-.155-.011-.339.076-.463.072a2.356,2.356,0,0,0-1.073.21c-.158.136-.031.027-.036.032l-.018.014s.008-.007,0,0h0s0,0-.019,0a.279.279,0,0,0-.152.072c-1.017,0-2.035,0-3.045-.009h-.146c0-.011,0-.013,0-.027-.044.074-.113-.073-.152-.056s-.035.05-.046.081l-.636-.005c.037-.019.074-.076.038-.113a.284.284,0,0,0-.165-.069c-.05,0-.32.013-.2-.072s.305-.058.413-.137l0,0h.027c.1-.007.4.067.534-.027s.135-.166-.04-.241a2.565,2.565,0,0,0-.9-.186c-.193-.011-.518-.093-.62.187-.026.069-.191.04-.263.031a1.568,1.568,0,0,0-1.165.174,2.107,2.107,0,0,1-.98.249c-.334.026-.649.03-.976.046-.647.03-1.289.058-1.934.114-2.667-.025-5.346-.052-8.01-.066-.307,0-.63,0-.911.024a6.658,6.658,0,0,1-.768.015c-1.051-.013-2.084-.039-3.131-.031h-.009c-.536-.01-1.072-.015-1.608-.02-.033-.015-.065-.032-.1-.044-.085-.03-.108-.009-.066.042-.507,0-1.014-.008-1.521-.016q-7.875-.127-15.752-.29c-1.716-.036-3.425-.044-5.137-.114-.456-.019-.83-.2-1.281.007a.207.207,0,0,1-.062.028c-.186.055-.382-.04-.593-.044-4.255-.078-8.527-.121-12.789-.17-.329,0-.651,0-.988-.012-.062,0-.087,0-.187,0s-.277,0-.416,0c-.686-.017-1.39-.073-2.083-.057-1.113.024-2.232.031-3.345.011-.342-.007-.654.04-.995.06l-.067,0a1.135,1.135,0,0,0-.5-.179.515.515,0,0,0-.069.191c-.219,0-.437,0-.654.009-.082-.067-.192-.141-.339-.238-.068.058-.04.157,0,.262a3.411,3.411,0,0,0-.77.162s.007,0-.008,0,.045.011-.037-.019a.414.414,0,0,0-.387.1h0s-.008,0-.031,0a1.482,1.482,0,0,1-.252.04q-3.663-.015-7.32-.039c-.326,0-.645-.009-.979-.018a1.753,1.753,0,0,0-.187,0c-.1,0-.276,0-.413,0-.679-.019-1.388-.083-2.072-.065-1.1.029-2.247.049-3.326.015-.332-.011-.722.076-.987.072a10.09,10.09,0,0,0-2.283.21c-.336.136-.066.027-.078.032l-.036.014c.006,0,.016-.007,0,0h-.042a.812.812,0,0,0-.375.091h0l0,0s.006,0,0,0l-.039.011c-.021.006-.048.011-.073.017,0-.059-.189-.076-.237-.071a.637.637,0,0,0-.41.173c.047,0,.1.011.149.018a.124.124,0,0,1-.1.049h0v.007c0,.006,0,0,0,0s0,0,0,.024-.014-.021-.019.039c-.659-.018-1.317-.042-1.976-.058-.018-.014-.042-.034-.055-.043l-.018-.016c-.006,0-.024.008-.077,0-.118-.008-.4.025-.623.036l-.238-.006a.972.972,0,0,0-.493-.012c-.076,0-.151,0-.23-.006a.4.4,0,0,0-.088,0c-.047,0-.13,0-.2,0a9.681,9.681,0,0,0-.979-.058c-.523.024-1.049.032-1.571.011a1.479,1.479,0,0,0-.334.037,1.972,1.972,0,0,0,.653-.36c.007-.006-.014-.014-.022-.014-.136,0-.4.029-.508.03a1.124,1.124,0,0,1-.237-.048c-.038,0-.02,0-.011,0-.007,0,0,0,0,0a.853.853,0,0,0,.188-.175c.037-.062-.019-.1-.07-.1-.366.017-.635-.085-1.023-.068-.619.028-1.312.1-1.952.154a5.277,5.277,0,0,0-.79.124c-.008-.028-.026-.036-.071.017-.055.014-.105.02-.164.038a2.532,2.532,0,0,1-1.123.061c-.42-.056-.957-.056-1.4-.1-.047,0-.06.086-.124.073s-.3-.06-.365-.012a1.311,1.311,0,0,1-.943.21,8.427,8.427,0,0,0-1.428.162,1.067,1.067,0,0,0,.11.029,9.376,9.376,0,0,0,1.058-.008c.879-.046,1.749-.151,2.619-.2a.958.958,0,0,1,.188.013c.044.006.06.017.04.049s-.115.053-.142.075-.038.038-.014.064,0,.013.058.039a1.856,1.856,0,0,0,.234.08,3.744,3.744,0,0,1,.394.138.043.043,0,0,1,.016.008c.01.007.035.018.051.029l.02.016-.278,0c-.153,0-.3-.009-.46-.018a.344.344,0,0,0-.087,0,1.223,1.223,0,0,1-.2,0,8.539,8.539,0,0,0-.974-.065,12.893,12.893,0,0,1-1.562.015c-.156-.011-.339.076-.464.072a2.355,2.355,0,0,0-1.072.21l-.037.032-.017.014s.007-.007,0,0h0s0,0-.018,0a.27.27,0,0,0-.153.071c-1.016,0-2.035,0-3.045-.008l-.146,0c0-.011.005-.013,0-.027-.044.075-.113-.072-.153-.055s-.034.05-.046.081l-.636-.006c.038-.019.075-.076.038-.113a.282.282,0,0,0-.164-.069c-.05,0-.321.013-.2-.072s.3-.058.414-.137l0,0h.027c.1-.007.4.068.534-.027s.136-.165-.039-.241a2.576,2.576,0,0,0-.9-.186c-.193-.011-.518-.093-.62.187-.025.07-.19.04-.263.031a1.562,1.562,0,0,0-1.164.175,2.128,2.128,0,0,1-.981.248c-.333.026-.648.031-.976.046-.646.03-1.288.058-1.933.114-2.668-.024-5.347-.052-8.01-.066-.308,0-.631,0-.912.024a6.875,6.875,0,0,1-.767.016c-1.051-.014-2.084-.04-3.131-.032h-.01c-.536-.01-1.072-.015-1.608-.02-.032-.015-.064-.032-.1-.044-.086-.03-.109-.009-.067.042-.507,0-1.014-.008-1.521-.016q-6.571-.107-13.145-.242l-.011-.019-.009-.015s-.011.007-.036,0a1,1,0,0,0-.211.025l-.224,0c-.068-.027-.135-.059-.2,0-.527-.01-1.055-.018-1.582-.029a1.039,1.039,0,0,0,.292-.347c0-.007-.007-.014-.011-.014-.063,0-.187.028-.238.03s-.09-.046-.112-.049-.009,0,0,0h0a.848.848,0,0,0,.089-.175c.017-.062-.009-.1-.034-.1-.171.017-.3-.085-.48-.068-.291.028-.617.1-.917.153a1.213,1.213,0,0,0-.482.18.587.587,0,0,1-.527.06c-.2-.055-.45-.055-.659-.1-.022-.005-.028.086-.059.073s-.143-.06-.171-.012c-.151.251-.268.2-.443.209a1.93,1.93,0,0,0-.4.074c-.436-.012-.872-.018-1.309-.036a3.545,3.545,0,0,0-1.112-.041.824.824,0,0,0-.2-.048c-.082-.01-.211-.064-.271.13a2.829,2.829,0,0,0-.358-.05c-4.255-.078-8.526-.12-12.789-.17-.329,0-.651,0-.987-.012-.062,0-.087,0-.188,0s-.277,0-.416,0c-.685-.018-1.389-.073-2.083-.058-1.113.024-2.232.032-3.344.011-.342-.006-.655.04-.995.06l-.067,0a1.139,1.139,0,0,0-.5-.179.5.5,0,0,0-.069.191c-.219,0-.437,0-.655.009-.082-.067-.191-.141-.339-.238-.068.058-.04.157,0,.262-.057.006-.114.018-.171.026.018-.065-.185-.084-.235-.079a.639.639,0,0,0-.41.172l.14.018c-.031.009-.062.014-.093.025,0,0,.006,0-.009,0s.046.011-.037-.019a.416.416,0,0,0-.385.1c-.521-.013-1.042-.033-1.564-.046l-.056-.043a.16.16,0,0,1-.017-.016c-.006,0-.024.008-.078,0-.117-.008-.4.026-.623.036l-.237-.006a.972.972,0,0,0-.493-.012c-.076,0-.152,0-.23-.005a.4.4,0,0,0-.088,0c-.047,0-.13,0-.2,0a9.678,9.678,0,0,0-.978-.058c-.523.024-1.049.032-1.572.011a1.476,1.476,0,0,0-.333.037,1.978,1.978,0,0,0,.653-.36c.007-.007-.015-.014-.023-.014-.135.005-.4.029-.507.031a1.08,1.08,0,0,1-.237-.05c-.038,0-.02,0-.012,0h0a.9.9,0,0,0,.188-.176c.037-.062-.019-.1-.071-.1-.365.017-.634-.085-1.022-.068-.62.028-1.312.1-1.952.154a5.277,5.277,0,0,0-.79.124c-.008-.028-.026-.036-.071.017-.056.014-.106.02-.164.038a2.526,2.526,0,0,1-1.123.061c-.421-.056-.958-.056-1.4-.1-.047-.005-.06.087-.125.073s-.3-.06-.365-.012a1.3,1.3,0,0,1-.942.209,8.631,8.631,0,0,0-1.429.162.848.848,0,0,0,.111.03,9.32,9.32,0,0,0,1.058-.008c.879-.046,1.748-.151,2.619-.2a.911.911,0,0,1,.187.013c.045.006.061.018.04.049s-.114.053-.141.075-.038.038-.014.064.018.02.028.025c-.876.018-1.763.028-2.612,0-.332-.011-.722.076-.987.072a10.066,10.066,0,0,0-2.282.211c-.336.135-.066.026-.078.031l-.037.014c.006,0,.016-.007,0,0h0a.151.151,0,0,0-.04,0,.779.779,0,0,0-.374.091h0l0,0s.006,0,0,0l-.04.01c-.132.037-.366.071-.482.094-.087.017-.094.058-.132.079h-.546l-.146,0c0-.011,0-.013,0-.027-.044.075-.113-.072-.152-.055s-.035.05-.046.081c-.213,0-.426-.005-.636-.006.037-.019.074-.076.038-.113a.284.284,0,0,0-.165-.069c-.05,0-.32.013-.2-.072s.3-.058.413-.137l.005,0a.075.075,0,0,0,.027,0c.1-.006.4.068.534-.027s.135-.165-.04-.241a2.56,2.56,0,0,0-.9-.186c-.193-.011-.518-.093-.62.187-.026.07-.191.04-.263.031a1.565,1.565,0,0,0-1.165.175,2.118,2.118,0,0,1-.98.248c-.334.026-.649.031-.976.046-.084,0-.167.011-.25.015.014-.018.016-.043-.01-.084-.094.075-.24-.072-.325-.055s-.061.093-.132.115c.033.006.113.025.2.04-.472.022-.943.042-1.415.083-2.667-.024-5.346-.052-8.009-.066-.308,0-.631,0-.912.024a6.949,6.949,0,0,1-.768.016c-1.051-.014-2.084-.04-3.131-.032h-.009c-.536-.011-1.072-.016-1.608-.021-.033-.015-.065-.032-.1-.044-.085-.03-.108-.009-.066.042-.507,0-1.014-.008-1.521-.016q-7.875-.126-15.752-.29c-1.716-.035-3.425-.044-5.137-.114-.456-.019-.83-.2-1.281.007a.208.208,0,0,1-.062.028c-.186.055-.382-.04-.593-.044-4.255-.078-8.527-.12-12.789-.17-.329,0-.651,0-.988-.011a1.822,1.822,0,0,0-.187,0c-.1,0-.277,0-.416,0-.686-.018-1.39-.073-2.083-.058-1.113.024-2.232.032-3.344.011-.343-.006-.655.04-1,.06-.022,0-.044,0-.067,0a1.119,1.119,0,0,0-.5-.178.5.5,0,0,0-.069.19c-.219,0-.437,0-.654.009-.082-.066-.192-.141-.339-.238-.068.058-.04.157,0,.263a3.357,3.357,0,0,0-.77.161s.007,0-.008-.005.045.011-.037-.019a.416.416,0,0,0-.386.1h0s-.008,0-.031,0a1.565,1.565,0,0,1-.252.039q-3.663-.013-7.32-.039c-.326,0-.645-.008-.979-.018a1.753,1.753,0,0,0-.187,0c-.1.006-.276,0-.413,0-.679-.019-1.388-.082-2.072-.065-1.1.029-2.247.049-3.326.015-.332-.011-.722.076-.987.072a10.083,10.083,0,0,0-2.283.211c-.336.135-.066.026-.078.031l-.036.014c.006,0,.016-.007,0,0h0s0,0-.039,0a.789.789,0,0,0-.375.091h0l0,0s.006,0,0,0l-.039.01c-.132.037-.367.072-.483.094s-.09.089-.184.092h0v.006c0,.006,0,0,0,0s0,0,0,.023-.021-.057-.021.081v.047c-1.013.046-2.015.1-2.994.155-.934.055-1.9.1-2.749.184h0c-.839.037-1.586.095-2.264.173a2.051,2.051,0,0,0-.539.094l-.2.032a8.619,8.619,0,0,0-2.048.121h0a2.6,2.6,0,0,0-.273.043c-.41-.025-.818-.06-1.228-.1a2.087,2.087,0,0,0-.815.458c.064.005.186.022.328.037-.38.053-.485.127-.254.2.032.011.031.023.046.034-.171,0-.319.018-.5.013v.036a1.73,1.73,0,0,1,.244.025.518.518,0,0,1,.107.045c.042.041.3.078.222.119s-.041.069.119.1c-.068.02-.252.04-.007.06.585.067.6.092.107.141-.311.036-.212.073-.017.11.036.039-.023.081.277.107l.085.011h0c-.008.006,0,.015-.024.017-.591.042-.728.092-.505.187h0a2.682,2.682,0,0,0,.425.083h0c.03.021.261.042-.036.064-.384.028-.416.081-.121.138h0a.225.225,0,0,1,.051.009l-.051-.009c.112.032-.179.035-.214.055a1.144,1.144,0,0,0,.229.016c.1,0,.209,0,.3,0,.222.009.172.028-.16.059h-.307a1.807,1.807,0,0,0-.415.02c-.051.024.153.031.267.041.26.022.241.044.034.069-.537.057-.538.066-.028.112a.409.409,0,0,1,.085.019c-.116.052-.329.1-.145.158-.041.023.038.04.114.06.152.04.326.082.136.13a.922.922,0,0,0-.248.025c-.148.04-.3.079.029.116s.276.068-.016.1c-.075,0-.212-.007-.2.009a.836.836,0,0,0,.29.025h0c.542.045.581.057.329.108-.087,0-.188,0-.257,0a3.654,3.654,0,0,0-.484.014,2.432,2.432,0,0,0,.491.031c.022.01.134.024.023.03-.3.016-.152.031-.018.048l.256.03c0,.056.292.072.618.084h0c.174.017.144.05.269.071.062.018.115.038.082.059-.153.026,0,.042.13.05.445.028.379.071.238.118-.059.016-.233,0-.286.02h0c-.177.029-.169.059.005.088.1.036,0,.081.257.111l.165.022h0s.008.01-.006.012c-.62.05-.769.109-.5.2h0l.068.013a1.765,1.765,0,0,0,.274.047c-.027.024.352.041.059.07-.41.041-.453.085-.15.146l.015,0-.109.031c-.057.007-.115.013-.119.024h.031l-.265.07a.438.438,0,0,0-.124.018c-.013.006-.011.01,0,.014-.168.044-.337.088-.506.13h0a.534.534,0,0,0-.584.377l-.735.43c-.17.05-.208.194-.223.354h0c-.4.773-.38.8.347.828a13.081,13.081,0,0,1,2.291-.029h1.6a.738.738,0,0,0-.092.125.768.768,0,0,0-.159,0l-.018.172-.032.019-.923.146a.882.882,0,0,0,.13.163.617.617,0,0,1-.183.033l.008-.076.007,0c.061-.027.028-.035-.028-.038h0a1.345,1.345,0,0,1-.456.013,2.1,2.1,0,0,0-.878.087h0a5.772,5.772,0,0,0-1.325.28c-.006.049.039.051.081.054.092,0,.238-.014.206.058-.019.045-.132.061-.223.076l-1.108.172c-.272.024-.28.029-.2.137-.2.123-.2.156-.032.261.144.088.126.128-.1.181-.112.027-.234.036-.352.054a1.1,1.1,0,0,0-.566.12l.729-.055c.227-.02.4.042.616.034l1.118-.081c.045,0,.056,0,.03.021-.058.048-.193.006-.251.064.1.023.249-.03.369.024-.373.013-.683.1-1.1.14.74.028,1.4-.143,2.126-.162-.208.049-.373.062-.432.145-.729.1-1.459.192-2.186.3a1.621,1.621,0,0,0-.589.188c1.236-.095,2.468-.189,3.7-.264a1.248,1.248,0,0,0-.219.05c-.005,0-.018-.006.024.014a.761.761,0,0,0,.157.041c-.947.1-1.9.171-2.837.324l1.183-.09a2.535,2.535,0,0,0,.637-.012c.1,0,.232-.041.277.007.07.076.213.035.333.03a3.535,3.535,0,0,1,.522-.02,1.425,1.425,0,0,0,.385-.019.369.369,0,0,0,.242.025H178a.716.716,0,0,0,.108.007.948.948,0,0,1-.3.049l-2.716.27a6.424,6.424,0,0,0,1.328.013c.494-.04.98-.056,1.467-.069a.96.96,0,0,0,.3.031c.139.014.278.025.417.032a1.95,1.95,0,0,1-.056.216l-.58.017c.023-.017.05-.031.072-.049a1.055,1.055,0,0,0-.69.046c-.113.069.151.113.185.108s.058.008.089,0a2.35,2.35,0,0,1-.858.012c-.235.167-.581.038-.82.039a15.727,15.727,0,0,0-1.669.142c.372.041.736.025,1.111.031-.077.071-.1.143-.225.149s-.3-.02-.416.1a5.23,5.23,0,0,1,.892.061,4,4,0,0,1-1.353.07,10.53,10.53,0,0,1-1.374.107,1.61,1.61,0,0,1-.972.119,2.1,2.1,0,0,1-.577.251c.136.011.273.011.409.032a1.527,1.527,0,0,1-.786.282,1.435,1.435,0,0,1,.15-.094,7.128,7.128,0,0,0-.856.145c-.19.021-.319.012.118.064a15,15,0,0,1,2.323.292c-.079,0-.172-.005-.255-.008-.008,0,.037.008.012.007l-.2-.012c-.029,0,.013,0,0,0a9.414,9.414,0,0,0-1.312.016l.113.012c.026,0-.006-.01.018-.009s.063.017.1.019a3.592,3.592,0,0,1,.832.09c-.146,0-.293-.006-.44-.012.322.023.65.044.968.061.01,0-.035,0-.026,0,.094,0,.214,0,.305.006.014,0,.022.016-.016.015.5,0,1,.008,1.5.02l.019,0c.085.008.378.007.422.008,1.019.031,1.958.081,2.948.132-.065.118-.167.2-.223.323a.669.669,0,0,1,.549.337c-.107-.048-.178.06-.208.112l-.007.012h0l0,0-.006,0,0,0c-.005,0-.018,0-.028,0,.014,0,.018,0,.019,0-.072.019-.031,0-.159.011-.693.059-1.529.1-2.236.13-.174.007-.345.033-.464.043-.46.038-.836.061-1.278.093-.12.086-.365.052-.486.06s-.233.025-.321.03c-.588.036-1.139.109-1.711.193a6.478,6.478,0,0,0-.715.1c-.015,0,0-.013-.084.02s-.092.054.1.072.494.121.726.15c.073.01.169.018.254.021.238.008.49.016.732.035.045,0,.09.01.135.013s.094.007.141.009l.143.007c.2,0,.387,0,.587-.011l.014,0c.032.007.161.032.212.039s.073.01.13.015.131.008.2.011.061,0,.152.007.244.005.367.014c.792.051,1.6.075,2.4.086a2.824,2.824,0,0,0-.515.6c-.044-.095-.161-.04-.21-.012s0,.037-.04.036-.04-.051-.06-.081a.117.117,0,0,0-.1-.032c-.031,0-.072.028-.059.058s.055.062.054.086-.038,0-.029,0c.314.321.741.4,1.087.671-.011-.011-.27.008-.2.052s.436-.041.413.148c-.979-.112-1.935-.366-2.9-.563-.174.251-.069.364.084.591a.855.855,0,0,1,.774.338,1.993,1.993,0,0,1,1.223.409,4.324,4.324,0,0,1-1.7.11,17.121,17.121,0,0,0-1.945.565,1.092,1.092,0,0,0,.636.862,11.359,11.359,0,0,0,2.5-.1c.174.31.62.1.818.3s-.2.391.044.566a.586.586,0,0,1,.444-.057,6.707,6.707,0,0,1,.377,1.58,8.475,8.475,0,0,0-1.347-.149.593.593,0,0,1-.577.315,1.382,1.382,0,0,0,.051.258.994.994,0,0,0-.629.317,23.723,23.723,0,0,1-3.219.993h0a.535.535,0,0,0-.585.377h0l-.735.43c-.169.051-.207.194-.222.354h0c-.4.773-.381.8.347.828a12.976,12.976,0,0,1,2.29-.028h2.24l0,.169-1.866.295c.109.171.2.239.282.235.868-.039,1.736-.04,2.6-.042a1.774,1.774,0,0,1-.171.059c.137.011.273.012.409.033a1.525,1.525,0,0,1-.785.281,1.358,1.358,0,0,1,.149-.094,7.328,7.328,0,0,0-.856.145c-.19.021-.319.012.118.064a15.034,15.034,0,0,1,2.323.293c-.079,0-.172-.006-.255-.008-.007,0,.037.008.012.007s-.168-.01-.2-.013.013,0,0,0a9.567,9.567,0,0,0-1.312.015c.031,0,.087.011.113.012s-.006-.01.018-.009a.922.922,0,0,0,.1.019,3.655,3.655,0,0,1,.832.091c-.146,0-.293-.007-.44-.012.322.023.65.043.968.061.01,0-.035-.005-.025-.005.093,0,.213,0,.305.006.013,0,.021.017-.017.012.088.032.18-.035.267.014a4.755,4.755,0,0,0,1.168.657c.636.174,1.417.138,2.092.248.148.024.314.071.457.109-.444.032-.964.052-1.39.07-.178.007-.346.033-.464.042-.461.039-.836.061-1.279.094-.12.085-.365.051-.486.06s-.233.025-.32.03c-.589.035-1.139.109-1.711.193a6.254,6.254,0,0,0-.715.1c-.015,0,0-.014-.084.019s-.092.054.105.072.494.121.725.15c.074.01.169.018.254.021.239.008.491.016.733.035.044,0,.089.01.135.013s.093.007.14.009.1.005.144.006c.2,0,.387,0,.587-.011l.013,0c.032.007.162.032.213.039s.073.01.129.015l.2.011c.066,0,.061,0,.152.007s.243,0,.367.013c1.486.09,2.989.084,4.482.119.157,0,.312.006.471.009.051,0,.094,0,.152,0l.219,0,.5.012.294.008.155,0,.542.015.777.02.4.011c2,.042,4,.1,6,.145.316.008.639.017.951.023l.3,0c.08,0,.088,0,.156,0s.143,0,.214-.006c.259-.006.517,0,.777,0-.069.011-.027.046,0,.047s-.008-.043.02-.047a.7.7,0,0,1,.1,0c.045,0,.113-.021.17-.017a8.242,8.242,0,0,0,.92.034c.1,0,.2,0,.3.007-.207.012-.424.035-.628.041-.058,0-.11,0-.156.008s-.034.012-.082,0a.91.91,0,0,1-.165-.052c-.067-.026-.34-.006-.341.051v.014c-.011.007,0,0-.018.007s-.049.015-.083.016c-.156,0-.31.025-.474.021a4.044,4.044,0,0,0-.989.042c-1.352.042-2.7.065-4.056.079-.166.126-.375.11-.47.323,1.775.046,3.539.105,5.321.138.043.16-.068.086-.284.073a3.253,3.253,0,0,0-.8.1,11.031,11.031,0,0,0,1.8.041h0l.007,0c.016.01-.017-.011.028.02a1.735,1.735,0,0,1,.2.219l.007.012a.386.386,0,0,1,.088,0c.176.017.58-.028.814,0s.463.175.68-.017l0,.006c0,.01.023,0,.012-.01h-.006c.006-.008,0-.024.066-.052a3.179,3.179,0,0,1,.834-.128,1.832,1.832,0,0,1,.2,0,.9.9,0,0,0,.658-.026l.026-.008c-.012,0-.021.007,0,0s0,0,0,0h0l.007,0c.025-.008-.065.022.045-.008s.493-.1.612,0a.714.714,0,0,0,.571.132c.218-.005.5.006.684-.012.29-.029-.232-.15.229-.092a5.61,5.61,0,0,0,1.279.03v0a.786.786,0,0,0,.295.088,2.94,2.94,0,0,1,1.005-.107c.253,0,.236,0,.39-.113.012-.009-.005,0,0-.005a1.523,1.523,0,0,1,.64-.116.727.727,0,0,0,.221-.03c.315-.123.218-.194-.085-.232-.188-.023-.558.072-.743-.087,1.462-.032,2.939-.063,4.4-.076a1.925,1.925,0,0,1,.317.011c.037.007-.012.107.01.128,1.058.038,2.123.078,3.184.118l-.111.025c.316.018.645.016.959.03-.015,0-.02-.028-.037-.026.455.012.912.027,1.366.033.044-.135.348-.127.487-.124a2.535,2.535,0,0,1,.529-.006c.119.033.2.15.311.189-.431-.012-.866-.031-1.291-.016-.053,0-.126.008-.155.008h-.01a2.294,2.294,0,0,0-.575-.052c-.2,0-.417-.006-.625-.006.057,0,.093.115.114.132s.009,0,.016,0,0,0,0,0,.015.05.025.059a1.17,1.17,0,0,0,.525.124l.03,0h.005a.817.817,0,0,0,.5.008l.014,0,.01,0c.008,0,0,0,0,0,.124.027.235.077.343-.012h0l.013,0c.026,0,.111.006.138.008h.011l.012.006a.7.7,0,0,0,.178.052c.032,0,.005,0,.007,0h0l0,0s0,0-.016.012c-.029.028-.126.129,0,.137-.118.011-.232.014-.348.021a5.827,5.827,0,0,1,.95.1.88.88,0,0,0-.389.014,3.27,3.27,0,0,1,.409.05c-.216,0-.436-.026-.649-.03.06,0,.067.077-.023.091a2.492,2.492,0,0,1-.387-.016c-.112-.006-.247,0-.276.117-.011.044.083.074.125.076s.3.021.16.077-.446-.015-.478.109l0,.014c-.013.011-.014,0-.036,0a1.16,1.16,0,0,0-.508-.006c-.133.05-.244.127-.088.234a1.675,1.675,0,0,0,.813.241c.189.024.51.089.663-.158.037-.061.192-.028.266-.017a1.938,1.938,0,0,0,1.208-.119,2.877,2.877,0,0,1,1.05-.2c.338-.012.641,0,.967,0a12.033,12.033,0,0,0,2.784-.195,2.191,2.191,0,0,1,.415-.022,10.131,10.131,0,0,1,1.62.081,1.373,1.373,0,0,0,.406-.021c.512-.073,1.1-.095,1.588-.121.355-.019.534.132.859.138a5.666,5.666,0,0,1,.976-.026,1.606,1.606,0,0,1,.348.068c.089.041.118.2.2.258.031-.131-.029-.194-.132-.263a6.481,6.481,0,0,0,1.032-.1,1.253,1.253,0,0,1,.159-.024c.042,0,.035.055.067.056s.034-.064.067-.07a2.181,2.181,0,0,1,.653.028l-.1.008a.477.477,0,0,0,.345.083c.919-.031,1.815-.007,2.716,0a1.21,1.21,0,0,0,.13.025c.138.015.15.011.133-.023.111,0,.221,0,.332,0,.417,0,.826.014,1.235.029.215.015.435.023.677.023h.114c.183,0,.368,0,.552.006.373.007.757.019,1.122.03a6.474,6.474,0,0,0,.655-.008,5.087,5.087,0,0,0,1.608-.057.611.611,0,0,1,.454.039c.209.149.511.023.782-.006-.065-.181-.34-.18-.635-.167-.406.019-.8.006-1.2,0a13.689,13.689,0,0,1,2.715-.232c.094,0,.189,0,.283,0l-.062.049a.386.386,0,0,0,.131.014c.038-.011.082-.049.085-.071a5.3,5.3,0,0,0,.644-.071,3.279,3.279,0,0,1,.349-.016c.024,0-.074.045-.051.046a.185.185,0,0,0,.055-.007c-.047.032-.063.071-.018.089.191.073.039.23.167.315h.305a1.349,1.349,0,0,0,.731-.111h-.008c-.21-.181-.719-.151-.942-.325a1.159,1.159,0,0,1,.163.015c.048.011.062.055.087.058s.014-.046.032-.043a3.029,3.029,0,0,1,.516.116c.14.051.31.085.4-.006a.438.438,0,0,1,.515-.058.349.349,0,0,0,.317.009c.132-.043.2,0,.325,0,.247-.01.43-.024.7-.031h.147l-.628.051c.12.122.373.1.6.077.268-.027.537-.041.805-.056,0,.061,0,.122,0,.183-.2.013-.408.022-.612.048-.021.046-.033.168.053.148a3.084,3.084,0,0,1,.56-.155c0,.159.005.318.007.482.1-.015.178.057.273.053.154-.007.3-.085.42.066.2-.04.4-.121.59-.16.056-.011.043.09.046.119.188-.018.39.019.573.018.1,0,.2-.112.276-.12s.21.019.119.09c.512-.065,1.019-.181,1.531-.249.208-.23.438-.143.7-.08a.181.181,0,0,1-.061-.064l.031-.007c-.009-.014-.016-.029-.025-.043l.012,0c.2,0,.414.027.623.015.034.008.067.016.1.022a.247.247,0,0,1-.094.135c.157-.013.314-.019.469-.041a1.33,1.33,0,0,1-.236-.075,3.992,3.992,0,0,0,.453.017c0,.009.006.016.012.019l.258-.026c.137,0,.275-.009.41-.01q.422.027.846.046c-.049.015-.079.042-.032.082.09.078.22.017.3.018s.162-.03.164-.082c.343.008.692,0,1.047-.012a1.659,1.659,0,0,1-.674.072,1.046,1.046,0,0,0,.7-.073c.068,0,.135,0,.2-.008.339.006.678.015,1.016.022a.265.265,0,0,1-.085.058.6.6,0,0,0,.276-.055l.142,0a.638.638,0,0,1,.158.074.552.552,0,0,0-.227.038,1.591,1.591,0,0,1,.6.084c.514-.039,1.014-.055,1.532-.07a1.144,1.144,0,0,0,.353-.036,3.009,3.009,0,0,1,.61-.09,1.683,1.683,0,0,0,.493-.028l-.019.008c-.039.015.022,0,.023-.005l0,0c.02-.006.034-.014.07-.024a1.807,1.807,0,0,0,.752-.077.393.393,0,0,0,.143-.012c.393,0,.787,0,1.183-.015.245.012.874.009,1.224-.021a2.273,2.273,0,0,1,.792.055c-.156-.051-.358.088-.517.007a1.273,1.273,0,0,0-.667.059l-.008.043h0c0,.02,0,0,0,0-.182.005-.358,0-.542.022a.094.094,0,0,1-.032,0,1.445,1.445,0,0,0-.495.022c-.076.012-.123-.037-.183.01-.016.013.01-.007-.021.005a.765.765,0,0,1-.158,0h-.008a.338.338,0,0,0-.053-.014c-.094-.021-.359-.062-.467.039,0,0-.037-.025,0,.009s-.108-.057.053.061a1.161,1.161,0,0,0,.878-.041,1.27,1.27,0,0,1,.534-.03c.007,0,0,.009.021,0s.133-.052.157-.014v0h.038a2.368,2.368,0,0,0,.433-.009c.393-.033,1.182-.087,1.613-.069.293.012.505.039.745.029.7-.026,1.36-.078,2.05-.081a.97.97,0,0,0,.353-.01c.126-.044.211.1.342-.026.012-.012,0-.043.105-.093a1.451,1.451,0,0,1,1.207.109c.015.01.008-.011.013-.011s0,0,0,0c.07-.022.214.024.266-.016s.054-.032.119-.043c.049-.008.061.04.11.042a1.9,1.9,0,0,0,.336-.006,5.894,5.894,0,0,1,.8-.038c.149,0,.27-.049.407-.047.995.01,1.982.032,2.975.049.091,0,.189.009.279.008,1.21-.007,2.407.008,3.619.036,1.1.025,2.222-.067,3.327-.111,1.014-.04,2.022-.121,3.035-.144,0,0,.005,0,.012.016.016.028.016.144-.018.169l-.009.008-.02,0c-.054.013.149-.022-.129.027s-.844.074-1.245.114a16.735,16.735,0,0,1-1.815.171.22.22,0,0,1-.09-.049s-.163-.076-.19-.052l-.01,0s0,0,.006,0h0c-.045-.038-.18-.043-.189,0l0,.007-.136-.014a7.637,7.637,0,0,0-1.368.017,9.791,9.791,0,0,1-1.369-.04c-.132-.008-.248.053-.383.054-.245,0-.472-.119-.7.046-.005,0,.014-.011-.013.008s-.1-.011-.134-.015c-.114-.015-.251.056-.348.021l-.009,0h0l0,0h0l0,.009c.005.03.01.016.032.074a.246.246,0,0,0,.218.1c.04-.016.007,0,.009,0s.005,0,.01,0a.285.285,0,0,0,.19.007c.035-.011.014-.006.025-.008,1.249.048,2.5-.008,3.747-.046,0,0-.006,0,0,0s-.017-.007.01.007.091-.022.126,0,.006.028.057.055c.222.116.511.009.758-.035a5.306,5.306,0,0,1,1.181-.072,23.642,23.642,0,0,0,2.407.116c0,.02.008.037.019.037.165,0,.272.115.451.114.286,0,.615-.036.915-.063a1.282,1.282,0,0,0,.494-.129.576.576,0,0,1,.518-.009c.189.076.419.1.617.168.025.009.041-.081.073-.065s.132.067.163.03c.165-.2.287-.164.465-.157a2.032,2.032,0,0,0,.4-.025,1.986,1.986,0,0,0,.382.038c.529,0,1.125-.027,1.692-.052a.159.159,0,0,0,.031.114.562.562,0,0,0,.382.241c.089.024.239.088.311-.158.018-.061.091-.029.125-.017a.486.486,0,0,0,.568-.12.771.771,0,0,1,.493-.2c.159-.012.3,0,.455,0h.124c.387.066.838.1,1.233.158.053.008.086-.082.154-.066a.791.791,0,0,0,.349.03,1.668,1.668,0,0,1,.988-.157,9.566,9.566,0,0,0,1.359-.074c.006,0,.014.006.02.011.041.041.055.2.091.258a.328.328,0,0,0-.062-.263,1.512,1.512,0,0,0,.486-.1.3.3,0,0,1,.074-.024c.02,0,.017.055.032.056s.016-.065.031-.071a.5.5,0,0,1,.307.029l-.049.008a.151.151,0,0,0,.162.083c.432-.031.853-.008,1.276,0a.3.3,0,0,0,.062.024c.064.016.07.012.062-.022l.156,0c.195,0,.388.014.58.029a2.124,2.124,0,0,0,.318.023h.054c.086.005.172.006.259.007l.036,0a.143.143,0,0,0,.069.089,1.681,1.681,0,0,0,.813.241c.19.024.51.089.663-.158.038-.061.193-.028.266-.017a1.946,1.946,0,0,0,1.208-.119,1.826,1.826,0,0,1,.325-.093h.093c.1-.013.206.021.3-.074.106-.011.213-.025.313-.029a.349.349,0,0,0,.007.06l.007-.061h0c.339-.012.641,0,.967,0h.084a1.57,1.57,0,0,0-.2.033c-.01.047-.016.169.025.149.083-.041.171-.147.263-.155q0,.237,0,.481c.047-.014.084.058.129.054.072-.007.139-.085.2.066.092-.04.189-.121.277-.16.026-.011.02.09.022.119a1.338,1.338,0,0,1,.269.018c.045,0,.092-.112.13-.12s.1.019.056.09c.24-.065.478-.181.719-.249.1-.23.206-.143.328-.08a.181.181,0,0,1-.029-.064l.015-.007c0-.014-.007-.029-.012-.043l.006,0a2.568,2.568,0,0,0,.293.015c.016.008.031.016.047.022a.332.332,0,0,1-.044.135,2.124,2.124,0,0,0,.22-.041.417.417,0,0,1-.11-.076.785.785,0,0,0,.212.017.036.036,0,0,0,.006.02l.121-.026c.065,0,.129-.009.193-.01.132.018.264.033.4.046a.055.055,0,0,0-.016.082c.043.078.1.017.142.017a.081.081,0,0,0,.077-.082,3.265,3.265,0,0,0,.492-.011.4.4,0,0,1-.317.072c.116.03.226.057.329-.074.032,0,.063,0,.1-.007.16.006.319.015.478.022a.191.191,0,0,1-.04.058c.048.018.087-.031.129-.055l.067,0a.3.3,0,0,1,.075.073.144.144,0,0,0-.107.039.4.4,0,0,1,.284.084c.241-.039.476-.055.719-.07a.269.269,0,0,0,.166-.036.75.75,0,0,1,.287-.09c.085,0,.142.023.232-.028l-.009.008c-.019.015.01,0,.01,0l0-.005c.009-.006.016-.014.033-.025.117,0,.232.032.353-.076a.1.1,0,0,0,.067-.012c.185,0,.37,0,.556-.015a2.742,2.742,0,0,0,.575-.021.528.528,0,0,1,.372.055c-.073-.051-.168.088-.243.006s-.311.04-.313.06l0,.043h0c0,.02,0,0,0,0a1.508,1.508,0,0,0-.255.022l-.015,0a.334.334,0,0,0-.232.023c-.036.012-.058-.037-.086.01-.008.013,0-.007-.011,0s-.06,0-.074.005h0s0,0-.024-.014c-.045-.022-.169-.062-.22.039,0,0-.017-.025,0,.009s-.05-.058.025.06.3.075.413-.04c.067-.07.174-.036.25-.031,0,0,0,.01.01,0s.063-.052.074-.014v0h.017a.53.53,0,0,0,.2-.009,3.668,3.668,0,0,1,.758-.069,2.062,2.062,0,0,0,.35.029c.331-.026.639-.079.963-.081.063,0,.107.034.166-.01s.1.1.161-.027a.147.147,0,0,1,.049-.092.382.382,0,0,1,.567.109c.007.01,0-.011.006-.011h0c.033-.022.1.024.126-.016s.025-.032.055-.043.029.04.052.042a.429.429,0,0,0,.158-.007,1.4,1.4,0,0,1,.378-.038c.07,0,.127-.048.191-.047.467.011.931.033,1.4.05.043,0,.089.009.131.008.569-.008,1.131.008,1.7.036a11.931,11.931,0,0,0,1.563-.111c.225-.019.448-.047.672-.074.224.006.451.011.668.018.031,0,.064,0,.1,0a.238.238,0,0,1-.013.1l0,.008-.009,0c-.025.013.07-.022-.06.026a5.923,5.923,0,0,1-.586.115,3.87,3.87,0,0,1-.852.171c-.016,0-.043-.049-.043-.049s-.076-.076-.089-.052l-.005,0,0,0h0c-.021-.038-.084-.043-.088,0v.008l-.064-.014a1.7,1.7,0,0,0-.643.017,2.178,2.178,0,0,1-.643-.04c-.063-.008-.117.053-.18.054-.115,0-.222-.119-.327.046,0,0,.006-.011-.006.008s-.049-.011-.063-.016c-.054-.014-.119.057-.164.022l0,0h0l0,0h0v.009c0,.029.005.016.016.074s.078.122.1.1,0,0,0,0,0,0,.005,0c.022.033.072.018.089.007s.007-.006.012-.008a12.047,12.047,0,0,0,1.76-.046s0,0,0,0-.008-.007,0,.008.043-.022.059,0,.012.026.021.043a1.629,1.629,0,0,0-.172.031l.8.1a.462.462,0,0,0-.294-.142l.028-.013a1.2,1.2,0,0,1,.554-.072c.627.058,1.209.356,1.808-.229,0-.005.008,0,.015,0,.058.014-.11-.027.079.024a2.236,2.236,0,0,0,1.089-.2,4.71,4.71,0,0,1,.544-.089,1.492,1.492,0,0,0,.719-.03c-.064-.181-.34-.181-.635-.167-.4.019-.8.006-1.2,0a13.1,13.1,0,0,1,2.488-.227h.029c.066,0,.132,0,.2,0,.094,0,.188,0,.283-.005-.022.016-.041.033-.063.049a.394.394,0,0,0,.131.014c.038-.011.082-.049.085-.071a5.353,5.353,0,0,0,.644-.071,3.379,3.379,0,0,1,.35-.016c.024,0-.075.045-.051.046a.178.178,0,0,0,.054-.007c-.047.032-.063.071-.018.089.192.073.039.23.168.315h.3a1.343,1.343,0,0,0,.73-.112h-.008c-.21-.181-.719-.151-.941-.325a1.164,1.164,0,0,1,.162.015c.049.011.062.055.088.058s.013-.046.032-.043a3.051,3.051,0,0,1,.516.116c.139.051.31.085.4-.006a.435.435,0,0,1,.514-.058.351.351,0,0,0,.318.009c.131-.043.2.005.324,0,.247-.01.43-.024.7-.031h.147l-.627.052c.119.122.372.1.6.077.268-.027.537-.041.8-.056,0,.061,0,.122,0,.183-.2.013-.409.022-.613.047-.021.047-.033.169.053.149a3.107,3.107,0,0,1,.56-.155c0,.158.006.318.008.482.1-.015.177.057.273.053.153-.007.3-.085.419.066.2-.04.4-.121.59-.16.056-.011.044.09.047.119.187-.018.39.018.572.018.1,0,.2-.112.276-.12s.21.019.12.09c.511-.065,1.018-.181,1.531-.249.207-.23.438-.143.7-.08a.177.177,0,0,1-.061-.064l.031-.007c-.009-.014-.016-.029-.025-.043l.012,0c.2,0,.415.027.623.015.034.008.068.016.1.022a.252.252,0,0,1-.094.135c.156-.014.313-.019.469-.041a1.261,1.261,0,0,1-.236-.075,3.918,3.918,0,0,0,.452.017.031.031,0,0,0,.013.019l.257-.026c.138,0,.275-.009.41-.01.281.018.564.033.847.046-.049.015-.08.042-.033.082.091.078.221.017.3.018.067,0,.161-.03.163-.083q.515.014,1.047-.011a1.653,1.653,0,0,1-.674.072,1.047,1.047,0,0,0,.7-.073c.068,0,.134,0,.2-.008.34.006.678.015,1.017.022a.27.27,0,0,1-.086.058.608.608,0,0,0,.277-.055l.142,0a.626.626,0,0,1,.158.073.567.567,0,0,0-.228.039,1.576,1.576,0,0,1,.605.085c.513-.04,1.014-.056,1.531-.071a1.142,1.142,0,0,0,.354-.036,2.907,2.907,0,0,1,.609-.089,1.728,1.728,0,0,0,.494-.029l-.019.008c-.04.015.021,0,.022,0l0-.005c.02-.006.035-.014.07-.024a1.81,1.81,0,0,0,.753-.077.383.383,0,0,0,.142-.012c.394,0,.788,0,1.183-.015.245.012.874.009,1.225-.021a2.26,2.26,0,0,1,.791.055c-.156-.051-.357.088-.517.006a1.277,1.277,0,0,0-.666.06l-.009.043h0c-.005.02,0,0,0,0-.183,0-.358,0-.543.022a.1.1,0,0,1-.032,0,1.427,1.427,0,0,0-.494.022c-.077.012-.123-.037-.183.01-.016.013.01-.007-.022,0a.763.763,0,0,1-.158.005H351.2a.27.27,0,0,0-.052-.014c-.1-.021-.359-.062-.468.039,0,0-.037-.025,0,.009s-.107-.057.053.061a1.162,1.162,0,0,0,.878-.041,1.283,1.283,0,0,1,.534-.031c.008,0,0,.01.021,0s.134-.052.158-.014v0h.037a2.345,2.345,0,0,0,.433-.009c.393-.033,1.182-.087,1.614-.069.292.012.5.038.744.029.7-.026,1.361-.079,2.05-.081a.97.97,0,0,0,.353-.01c.126-.044.211.1.342-.026.012-.012,0-.043.106-.093a1.453,1.453,0,0,1,1.206.109c.015.01.009-.011.014-.011s0,0,0,0c.07-.022.214.024.267-.016s.054-.032.118-.043c.049-.008.062.04.111.042a1.91,1.91,0,0,0,.335-.006,6.024,6.024,0,0,1,.8-.039c.149,0,.27-.048.407-.047.995.011,1.982.033,2.975.05.091,0,.19.009.279.008,1.211-.007,2.407.008,3.619.036,1.1.025,2.222-.067,3.327-.111,1.014-.04,2.023-.121,3.036-.144,0,0,0,0,.012.016.015.028.015.144-.019.169l-.009.008-.02,0c-.054.013.149-.022-.128.026s-.845.075-1.246.115a16.655,16.655,0,0,1-1.814.171.218.218,0,0,1-.091-.049s-.163-.076-.189-.052l-.011,0s0,0,.006,0h0c-.044-.038-.18-.043-.188,0l0,.008-.136-.014a7.639,7.639,0,0,0-1.368.017,9.862,9.862,0,0,1-1.369-.04c-.133-.008-.248.053-.383.054-.246,0-.473-.119-.7.046-.005,0,.015-.011-.013.008s-.1-.011-.134-.015c-.114-.015-.251.056-.348.021l-.009,0h0l0,0h0l0,.009c.005.03.011.016.033.074a.243.243,0,0,0,.217.1c.04-.016.008,0,.01,0s0,0,.009,0a.279.279,0,0,0,.19.007c.036-.011.014-.006.026-.008,1.248.048,2.5-.008,3.746-.046,0,0-.006,0,0,0s-.017-.008.009.007.091-.022.126,0,.007.028.058.055c.221.116.51.009.758-.035a5.332,5.332,0,0,1,1.181-.072,23.624,23.624,0,0,0,2.406.116c0,.019.009.037.019.037.166,0,.272.115.452.114.285,0,.615-.036.914-.063a1.277,1.277,0,0,0,.494-.129.577.577,0,0,1,.518-.01c.189.077.42.1.617.169.026.009.041-.081.073-.065s.133.067.164.03c.165-.2.287-.165.464-.157a2.2,2.2,0,0,0,.689-.084c-.015-.008-.029-.031-.045-.035a1.943,1.943,0,0,0-.485-.048c-.409,0-.819.058-1.225.066a.165.165,0,0,1-.084-.025c-.021-.013-.019-.029-.005-.051s.062-.046.078-.063,0-.015.008-.021c.458-.045.932-.121,1.312-.185.519-.087.97-.019,1.469-.14-.536-.11-.983-.278-1.475.068h-.013c.019,0,.019,0-.156,0-.292,0-.814.026-1.262.053a.891.891,0,0,1-.117-.127s0,0-.007-.009-.011-.017-.015-.03a.105.105,0,0,1-.015-.049c0-.025-.017-.057-.01-.087s0-.03.006-.045a3.256,3.256,0,0,0,.322-.049h0c.014,0-.007,0,.026,0l.02,0a.146.146,0,0,0,.017.065.109.109,0,0,0,.123.052c.04-.008.068-.048.025-.12-.006-.01-.015-.008-.022-.015a13.337,13.337,0,0,1,1.341-.117c.091,0,.04,0,.106-.007a.07.07,0,0,0,.018,0c.017,0,0,0,.018,0l.017,0h0l.039-.009c.053-.012.162-.044.29-.084a.873.873,0,0,0,.329-.018c.106-.023.213.1.3-.089,0,0,0,0,.01,0s-.029.016.045-.011c.029-.011.142-.074.185-.1-.025,0-.054,0-.083-.006a6.513,6.513,0,0,0-1.431-.047.446.446,0,0,1-.213-.027.149.149,0,0,0-.069-.014l.693-.023,1.138.089c-.051.007-.1.008-.152.018.042,0,.078.006.119.009h0c.149.018.3.015.451.03-.007,0-.009-.028-.017-.026l.175.009a.422.422,0,0,1,.039.021c-.066,0-.131,0-.2,0,.027,0,.044.115.054.132s0,0,.008,0v0c.008.011.007.049.012.059.044.093.225.128.247.124l.014,0h0c.063.081.2.034.237.008l.007,0,0,0h0c.058.026.111.077.161-.012h0l.006,0a.452.452,0,0,0,.065.007h.005l.006.007c.014.012.069.056.084.052s0,0,0,0h0l0,0s0,0-.007.012c-.014.028-.06.128,0,.137-.055.011-.109.013-.163.021a1.363,1.363,0,0,1,.446.1.2.2,0,0,0-.182.014.8.8,0,0,1,.192.05c-.1,0-.205-.026-.306-.03.029,0,.032.076-.01.091a.558.558,0,0,1-.182-.016c-.053-.006-.116,0-.13.117a.073.073,0,0,0,.059.075c.02,0,.141.021.075.077s-.209-.014-.224.11l0,.013c-.006.012-.007,0-.017,0-.068-.024-.176-.057-.239-.007a.159.159,0,0,0-.041.235.553.553,0,0,0,.382.24c.089.025.24.089.312-.157.017-.061.09-.029.125-.018a.486.486,0,0,0,.567-.118.769.769,0,0,1,.494-.2c.159-.012.3,0,.454,0a2.737,2.737,0,0,0,1.308-.194.5.5,0,0,1,.195-.022,2.277,2.277,0,0,1,.761.081.3.3,0,0,0,.191-.022,4.382,4.382,0,0,1,.746-.12c.167-.019.251.132.4.137s.3-.086.459-.025a.433.433,0,0,1,.163.068c.042.041.055.2.092.258a.334.334,0,0,0-.062-.263,1.494,1.494,0,0,0,.485-.1.281.281,0,0,1,.074-.024c.02,0,.017.055.032.056s.016-.065.031-.071a.5.5,0,0,1,.308.029l-.049.008a.151.151,0,0,0,.161.083c.432-.031.854-.008,1.277,0a.28.28,0,0,0,.061.024c.065.016.07.012.062-.022l.156,0c.2,0,.388.014.58.029a2.171,2.171,0,0,0,.318.022h.054c.086,0,.173.006.259.007.176.007.356.018.528.03a1.382,1.382,0,0,0,.307-.009,1.149,1.149,0,0,0,.756-.056c.089-.038.167-.031.213.039.1.149.24.023.368-.006-.031-.181-.16-.181-.3-.167a4.594,4.594,0,0,1-.562,0,3.175,3.175,0,0,1,1.276-.231c.044,0,.088,0,.133-.006l-.03.05c.021.006.045.024.062.014a.108.108,0,0,0,.039-.071,1.3,1.3,0,0,0,.3-.071.688.688,0,0,1,.165-.016c.011,0-.035.045-.025.046a.069.069,0,0,0,.026-.007c-.022.032-.029.071-.008.089.09.073.018.23.078.315h.144c.115-.015.234.041.343-.112h0c-.1-.181-.337-.151-.442-.325a.279.279,0,0,1,.076.015c.023.011.03.055.041.057s.007-.045.015-.042a.839.839,0,0,1,.243.116c.065.051.145.085.188-.006.078-.168.165-.119.242-.059s.087.052.149.009.094.006.152,0c.116-.009.2-.023.329-.03h.069l-.3.052c.056.122.175.1.28.077.126-.027.252-.042.378-.057,0,.062,0,.123,0,.184a2.407,2.407,0,0,0-.288.047c-.01.047-.015.169.025.149.083-.041.172-.147.263-.155,0,.158,0,.318,0,.481.046-.014.083.058.128.054.072-.007.139-.085.2.066.093-.04.189-.121.277-.16.027-.011.021.09.022.119a1.337,1.337,0,0,1,.269.018c.045,0,.092-.112.13-.12s.1.019.056.09c.24-.065.479-.181.719-.249.1-.23.206-.143.328-.08a.19.19,0,0,1-.028-.064l.014-.007c0-.014-.007-.029-.011-.043l.005,0a2.569,2.569,0,0,0,.293.015c.016.007.032.016.048.022a.331.331,0,0,1-.045.135,2.079,2.079,0,0,0,.221-.041.425.425,0,0,1-.111-.076.845.845,0,0,0,.213.018.049.049,0,0,0,.005.019l.122-.026c.064-.005.128-.009.192-.01.132.018.265.033.4.046a.056.056,0,0,0-.015.082c.042.078.1.017.142.017a.081.081,0,0,0,.076-.082,3.259,3.259,0,0,0,.492-.011.4.4,0,0,1-.316.072c.116.03.225.057.328-.073.032,0,.063,0,.1-.008.159.006.318.014.477.022a.176.176,0,0,1-.04.058c.048.018.087-.031.13-.055l.067,0a.32.32,0,0,1,.074.074.146.146,0,0,0-.107.039.4.4,0,0,1,.284.084,6.9,6.9,0,0,1,.72-.07.278.278,0,0,0,.166-.036.719.719,0,0,1,.286-.09c.085,0,.143.023.232-.028l-.009.008c-.018.015.01,0,.011-.005v0c.01-.006.016-.014.033-.025.117,0,.232.032.353-.076a.1.1,0,0,0,.068-.012c.184,0,.37,0,.555-.015a2.771,2.771,0,0,0,.576-.021.523.523,0,0,1,.371.055c-.073-.051-.167.088-.242.006s-.312.039-.314.06l0,.042h0c0,.02,0,0,0,0a1.459,1.459,0,0,0-.255.022s-.005,0-.014-.005a.336.336,0,0,0-.233.023c-.036.012-.058-.037-.086.01-.008.013,0-.007-.01.005s-.06,0-.075,0h0a.114.114,0,0,0-.025-.014c-.044-.022-.169-.062-.219.039,0,0-.018-.025,0,.009s-.05-.057.025.06.3.075.413-.04c.068-.07.174-.036.251-.031,0,0,0,.01.01,0s.062-.052.074-.014v0h.018a.546.546,0,0,0,.2-.009,3.647,3.647,0,0,1,.758-.069,2.149,2.149,0,0,0,.35.029c.331-.026.639-.079.964-.081.062,0,.106.034.165-.01s.1.1.161-.026a.145.145,0,0,1,.05-.093.381.381,0,0,1,.566.109c.007.01,0-.011.007-.011h0c.033-.022.1.024.125-.016s.025-.032.056-.043.029.04.052.041a.382.382,0,0,0,.157-.006,1.39,1.39,0,0,1,.378-.038c.07,0,.127-.048.191-.047.468.011.932.033,1.4.05.043,0,.089.009.131.008.569-.008,1.131.008,1.7.036a11.915,11.915,0,0,0,1.564-.111c.476-.04.95-.121,1.426-.144l.006.016a.416.416,0,0,1-.009.169l0,.008-.009,0c-.026.013.069-.023-.061.026a5.882,5.882,0,0,1-.585.115,3.807,3.807,0,0,1-.853.17c-.016,0-.042-.048-.042-.048s-.077-.076-.089-.052l0,0,0,0h0c-.021-.039-.085-.043-.089,0v.008l-.064-.014a1.7,1.7,0,0,0-.642.017,2.2,2.2,0,0,1-.644-.04c-.062-.008-.117.053-.18.054-.115,0-.222-.119-.327.046,0,0,.007-.011-.006.008s-.048-.011-.063-.016c-.054-.014-.118.057-.164.022l0,0h0l0,0h0v.009c0,.029.005.016.015.074s.079.123.1.1,0,0,0,0,0,0,.005,0c.022.033.073.018.089.007s.007-.006.012-.008a12.057,12.057,0,0,0,1.761-.046s0,0,0,0-.008-.007.005.008.042-.022.059,0,0,.028.027.055c.1.116.239.009.356-.035a1.215,1.215,0,0,1,.555-.072c.626.058,1.208.356,1.807-.23,0,0,.008,0,.015.005.058.014-.109-.027.079.023a2.221,2.221,0,0,0,1.089-.2c.244-.087.456-.019.691-.14-.252-.11-.462-.278-.694.068h-.006c.009,0,.009,0-.073,0a7.09,7.09,0,0,0-.843.089c-.148.023-.111.008-.187-.178,0,0,.008,0,0,0s.013.012-.007-.013-.088-.021-.1-.093a1.773,1.773,0,0,0,.621-.144h0c.007,0,0,0,.012,0a2.614,2.614,0,0,1,.707-.138l.05-.007.008,0c.008,0,0,0,.009,0l.007,0h0l.019-.009c.029-.014.1-.058.171-.107.25-.012.5-.033.753-.066a.769.769,0,0,1,.044.076s-.011.01.031.031.126-.116.212-.037l.009.006.035.045c.179.229.729.109,1.053-.039.265-.121.64.025.922-.045.095-.024.192,0,.28-.095-.771.016-1.543.025-2.313.04-.005-.012-.01-.016-.014-.027.13-.022.259-.038.391-.068a2.213,2.213,0,0,1,.415-.022,10.137,10.137,0,0,1,1.62.081,1.341,1.341,0,0,0,.406-.022c.131-.018.269-.033.408-.046a1.493,1.493,0,0,0-.14.1h0a.547.547,0,0,0,.329.025l.012,0h.006s0,0,.006,0l.005,0c.02-.012.1.011.127-.027a.423.423,0,0,0,.039-.118l.157-.009a.932.932,0,0,0-.021.12c.162-.024.319-.042.479-.069.006,0,.019-.047.009-.054a.31.31,0,0,0-.062-.02l.236-.012c.355-.019.534.132.859.137a5.866,5.866,0,0,1,.976-.026,1.652,1.652,0,0,1,.348.069c.089.041.118.2.2.258.031-.132-.029-.195-.132-.263a5.015,5.015,0,0,0,.5-.027.4.4,0,0,0-.164.1l.382-.127c-.021,0-.04,0-.06,0,.124-.015.249-.03.371-.05a1.253,1.253,0,0,1,.159-.024c.041,0,.035.055.067.056s.034-.065.067-.07a2.15,2.15,0,0,1,.653.028l-.1.008a.486.486,0,0,0,.345.083c.919-.031,1.815-.008,2.716,0a.965.965,0,0,0,.13.025c.138.016.15.012.133-.022.111,0,.221,0,.332,0,.417,0,.826.014,1.235.029.215.015.435.023.677.022h.114c.183,0,.368.006.552.007.373.007.757.018,1.122.03a6.474,6.474,0,0,0,.655-.008,5.123,5.123,0,0,0,1.608-.057.611.611,0,0,1,.454.039c.209.149.511.023.782-.006-.065-.181-.34-.181-.635-.167-.406.019-.8.006-1.2,0a13.744,13.744,0,0,1,2.715-.231c.094,0,.189,0,.283-.005l-.062.049a.392.392,0,0,0,.131.014c.038-.011.082-.049.085-.071a5.841,5.841,0,0,0,.644-.071,3.1,3.1,0,0,1,.349-.016c.024,0-.074.045-.051.046a.236.236,0,0,0,.055-.007c-.047.032-.063.071-.018.089.191.073.039.23.167.315h.305a1.342,1.342,0,0,0,.731-.112h-.008c-.21-.18-.719-.15-.942-.325a1.356,1.356,0,0,1,.163.016c.048.011.062.055.087.057s.014-.045.032-.043a3.029,3.029,0,0,1,.516.117c.14.051.31.085.4-.006a.438.438,0,0,1,.515-.059.346.346,0,0,0,.317.01c.132-.043.2,0,.325,0,.247-.009.43-.023.7-.03h.147l-.628.052c.12.122.373.1.6.077.268-.027.537-.042.805-.057,0,.062,0,.123,0,.184-.2.013-.408.022-.613.047-.02.047-.032.169.054.149a3.084,3.084,0,0,1,.56-.155c0,.158.005.318.007.481.1-.014.178.058.273.053.154-.006.3-.084.42.067.2-.04.4-.121.59-.16.056-.011.043.09.046.118.188-.017.39.019.573.019.1,0,.2-.112.276-.12s.21.019.119.09c.512-.065,1.019-.181,1.531-.25.208-.229.438-.142.7-.079a.177.177,0,0,1-.061-.064l.031-.007c-.009-.014-.016-.029-.025-.043l.012,0c.2,0,.414.026.623.014.034.008.067.017.1.023a.247.247,0,0,1-.094.135c.157-.014.313-.019.469-.041a1.241,1.241,0,0,1-.236-.076,3.932,3.932,0,0,0,.453.018c0,.009.006.016.012.019l.258-.026c.137,0,.275-.01.41-.01.281.017.563.033.846.046-.049.015-.079.042-.032.082.09.078.22.017.3.017s.162-.03.164-.082q.514.013,1.047-.012a1.636,1.636,0,0,1-.674.073,1.037,1.037,0,0,0,.7-.074c.068,0,.135,0,.2-.008l1.016.023a.265.265,0,0,1-.085.058.6.6,0,0,0,.276-.055l.142,0a.643.643,0,0,1,.158.073.557.557,0,0,0-.227.039,1.591,1.591,0,0,1,.6.084c.514-.039,1.014-.055,1.532-.07a1.166,1.166,0,0,0,.353-.036,2.916,2.916,0,0,1,.61-.09,1.683,1.683,0,0,0,.493-.028l-.019.008c-.039.015.022,0,.023,0l0-.005c.02-.006.034-.014.07-.025a1.808,1.808,0,0,0,.752-.076.441.441,0,0,0,.143-.012c.393,0,.787,0,1.183-.015.245.012.874.009,1.224-.021a2.279,2.279,0,0,1,.792.055c-.156-.051-.358.088-.517.006a1.271,1.271,0,0,0-.667.06l-.008.042h0c0,.02,0,0,0,0-.182,0-.358,0-.542.022a.085.085,0,0,1-.032,0,1.47,1.47,0,0,0-.495.023c-.076.012-.123-.037-.183.01-.016.013.01-.007-.021.005a.765.765,0,0,1-.158,0h-.008a.231.231,0,0,0-.053-.014c-.094-.022-.359-.062-.467.039,0,0-.037-.025,0,.009s-.108-.058.053.061a1.16,1.16,0,0,0,.878-.041,1.29,1.29,0,0,1,.534-.031c.007,0,0,.01.021,0s.133-.052.157-.014v0c.009,0,.022,0,.038,0a2.463,2.463,0,0,0,.433-.009c.393-.033,1.182-.088,1.613-.069.293.012.505.038.745.029.7-.026,2.05-.082,2.05-.082a.979.979,0,0,0,.353-.009c.126-.044.211.1.342-.027.012-.011,0-.042.1-.092a1.451,1.451,0,0,1,1.207.109c.015.01.008-.011.013-.011s0,0,0,0c.07-.022.214.024.266-.016s.054-.032.119-.043c.049-.008.061.04.11.041a1.789,1.789,0,0,0,.336-.006,6.224,6.224,0,0,1,.8-.038c.149,0,.27-.048.407-.047.995.01,1.982.033,2.975.05.091,0,.189.009.279.008,1.21-.007,2.407.008,3.619.036,1.1.025,2.222-.067,3.327-.111,1.014-.04,2.022-.121,3.035-.144,0,0,.005,0,.012.016.016.028.016.144-.018.169l-.009.008-.02,0c-.054.013.148-.023-.129.026s-.844.075-1.245.115a16.491,16.491,0,0,1-1.815.17c-.034,0-.09-.048-.09-.048s-.163-.076-.19-.052l-.01,0,.006,0h0c-.045-.039-.18-.043-.189,0l0,.008c-.009,0-.042-.005-.136-.014a7.639,7.639,0,0,0-1.368.017,9.942,9.942,0,0,1-1.369-.04c-.132-.008-.248.053-.383.054-.245,0-.472-.119-.7.046-.005,0,.014-.011-.013.007s-.1-.01-.134-.014c-.114-.015-.251.056-.348.021l-.009,0h0l0,0h0l0,.009c.005.03.01.016.032.074a.248.248,0,0,0,.218.1c.04-.016.007,0,.009,0s.005,0,.01,0a.284.284,0,0,0,.19.007c.035-.012.014-.006.025-.008,1.249.048,2.5-.008,3.747-.046,0,0-.006,0,0,0s-.017-.007.01.008.091-.022.126,0,.006.028.057.055c.222.116.51.009.758-.035a5.306,5.306,0,0,1,1.181-.072,23.641,23.641,0,0,0,2.407.116c0,.019.008.037.019.037.165,0,.272.115.451.114.286,0,.615-.036.915-.063a1.3,1.3,0,0,0,.494-.129.579.579,0,0,1,.518-.01c.189.076.419.1.617.169.025.009.041-.081.073-.065s.132.067.163.03c.165-.2.287-.165.465-.157a2.2,2.2,0,0,0,.688-.084c-.014-.008-.028-.031-.044-.035a2,2,0,0,0-.485-.049c-.409,0-.819.059-1.226.067a.166.166,0,0,1-.083-.025c-.021-.013-.019-.029-.005-.052s.062-.046.078-.062,0-.016.007-.022c.458-.044.932-.121,1.312-.184.52-.087.971-.019,1.47-.14-.537-.11-.983-.278-1.475.068h-.014c.02,0,.019,0-.155,0-.293,0-.814.026-1.263.053a1,1,0,0,1-.116-.127.017.017,0,0,1-.007-.01.246.246,0,0,1-.016-.029.124.124,0,0,1-.014-.049c0-.025-.018-.057-.011-.087,0-.015,0-.03.007-.045a3.2,3.2,0,0,0,.321-.049h0c.015,0-.007,0,.026,0l.021,0a.135.135,0,0,0,.017.065.11.11,0,0,0,.123.052c.04-.009.067-.048.025-.12-.006-.01-.016-.008-.023-.015.439-.069.92-.095,1.342-.118.091,0,.039,0,.106-.006l.018,0c.016,0,0,0,.018,0l.016,0h0l.039-.009c.054-.012.162-.044.29-.084a.9.9,0,0,0,.33-.018c.106-.023.213.1.3-.09,0,0,0,0,.01,0s-.03.016.044-.011a1.933,1.933,0,0,0,.185-.1l-.082-.007a6.615,6.615,0,0,0-1.432-.046.451.451,0,0,1-.212-.027.151.151,0,0,0-.07-.014l.694-.023c.379.029.758.058,1.137.089-.05.007-.1.007-.152.018.042,0,.079.006.119.009h0c.149.018.3.015.451.03-.007,0-.01-.028-.018-.026l.176.009c.014.006.025.014.039.02l-.2,0c.027,0,.043.115.053.132s.005,0,.008,0,0,0,0,0,.007.049.011.059c.045.093.226.128.247.124l.014,0h0c.063.082.194.034.237.009l.006,0,0,0h0c.059.026.111.077.162-.012h0l.006,0a.513.513,0,0,0,.065.007h0l.005.007c.014.012.069.056.084.052s0,0,0,0h0v.005s0,0-.007.012c-.014.027-.06.128,0,.137-.056.011-.109.013-.164.021a1.337,1.337,0,0,1,.447.095.208.208,0,0,0-.183.014.82.82,0,0,1,.192.051c-.1-.005-.2-.026-.3-.03.028,0,.032.076-.011.091a.554.554,0,0,1-.181-.016c-.053-.006-.116,0-.13.117a.074.074,0,0,0,.059.075c.019,0,.14.021.075.077s-.21-.014-.225.11v.013c-.006.011-.007,0-.017,0-.068-.024-.177-.056-.239-.006a.158.158,0,0,0-.041.234.555.555,0,0,0,.382.241c.089.025.239.089.311-.157.018-.061.091-.029.125-.018a.485.485,0,0,0,.568-.119.77.77,0,0,1,.493-.2c.159-.012.3,0,.455,0a2.754,2.754,0,0,0,1.308-.194.5.5,0,0,1,.2-.022,2.246,2.246,0,0,1,.761.081.306.306,0,0,0,.19-.022,4.418,4.418,0,0,1,.747-.12c.167-.019.251.132.4.137s.3-.086.459-.026a.453.453,0,0,1,.164.069c.041.041.055.2.091.258a.326.326,0,0,0-.062-.263,1.539,1.539,0,0,0,.486-.1.263.263,0,0,1,.074-.024c.02,0,.017.055.032.056s.016-.065.031-.071a.489.489,0,0,1,.307.029l-.049.008a.153.153,0,0,0,.162.083c.432-.031.853-.008,1.276,0a.264.264,0,0,0,.062.025c.064.016.07.012.062-.022l.156,0c.2,0,.388.014.58.028a2,2,0,0,0,.318.023h.054c.086.005.172.006.259.007.175.007.356.018.527.03a1.376,1.376,0,0,0,.308-.009,1.153,1.153,0,0,0,.755-.056.158.158,0,0,1,.214.039c.1.149.24.023.367-.006-.03-.182-.16-.181-.3-.167a4.6,4.6,0,0,1-.562,0,3.152,3.152,0,0,1,1.275-.231c.045,0,.089,0,.133-.006-.01.016-.019.033-.029.05.021.006.045.023.061.014a.113.113,0,0,0,.04-.072,1.263,1.263,0,0,0,.3-.071.821.821,0,0,1,.164-.016c.012,0-.035.046-.024.047a.075.075,0,0,0,.026-.007c-.022.032-.03.071-.009.088.09.074.019.231.079.316h.143c.116-.015.235.041.344-.112h0c-.1-.181-.338-.15-.443-.325a.317.317,0,0,1,.077.016c.023.011.029.055.041.057s.006-.046.015-.043a.866.866,0,0,1,.242.116c.066.052.146.086.188-.005.078-.168.166-.119.242-.059s.088.052.149.009.094.006.153,0c.116-.009.2-.023.328-.03h.069l-.3.052c.057.122.176.1.28.076.126-.026.253-.041.379-.056,0,.062,0,.123,0,.184a2.157,2.157,0,0,0-.288.047c-.01.047-.016.169.025.149.083-.041.171-.147.263-.155q0,.237,0,.481c.047-.014.084.058.129.053.072-.006.139-.084.2.067.092-.04.189-.121.277-.16.026-.011.02.09.022.118a1.338,1.338,0,0,1,.269.019c.045,0,.092-.113.13-.12s.1.019.056.09c.24-.065.478-.181.719-.25.1-.229.206-.142.328-.08a.173.173,0,0,1-.029-.064l.015-.006c0-.014-.007-.029-.012-.044l.006,0a2.365,2.365,0,0,0,.293.014.463.463,0,0,0,.047.023.331.331,0,0,1-.044.135,1.8,1.8,0,0,0,.22-.042.389.389,0,0,1-.11-.075.826.826,0,0,0,.212.017.036.036,0,0,0,.006.02l.121-.026c.065,0,.129-.01.193-.01.132.017.264.033.4.046a.055.055,0,0,0-.016.082c.043.078.1.017.142.017a.082.082,0,0,0,.077-.082,3.113,3.113,0,0,0,.492-.012.4.4,0,0,1-.317.073c.116.029.226.057.329-.074.032,0,.063,0,.1-.008l.478.023a.179.179,0,0,1-.041.058c.049.018.088-.031.13-.055l.067,0a.309.309,0,0,1,.075.074.142.142,0,0,0-.107.039.393.393,0,0,1,.284.084,6.968,6.968,0,0,1,.719-.07.276.276,0,0,0,.166-.036.729.729,0,0,1,.287-.09c.085,0,.142.023.232-.028l-.009.008c-.019.015.01,0,.01,0v-.005c.01-.006.017-.014.034-.025.117,0,.232.032.353-.076a.1.1,0,0,0,.067-.012c.185,0,.37,0,.556-.015a2.742,2.742,0,0,0,.575-.021.527.527,0,0,1,.372.055c-.073-.051-.168.088-.243.006s-.311.039-.313.06l0,.042h0c0,.02,0,0,0,0a1.459,1.459,0,0,0-.255.022l-.015,0a.334.334,0,0,0-.232.023c-.036.012-.058-.037-.086.01-.008.013,0-.007-.011,0s-.06,0-.074.005h0s0-.005-.024-.014c-.045-.022-.169-.063-.22.039,0,0-.017-.025,0,.009s-.05-.058.025.06.3.075.413-.041c.067-.069.174-.036.25-.03,0,0,0,.01.01,0s.063-.052.074-.014v0h.017a.54.54,0,0,0,.2-.009,3.684,3.684,0,0,1,.758-.07,2.071,2.071,0,0,0,.35.03c.331-.026.639-.079.963-.082.063,0,.107.034.166-.009s.1.1.161-.027a.148.148,0,0,1,.049-.092.382.382,0,0,1,.567.109c.007.01,0-.011.006-.012v0c.033-.022.1.024.126-.016s.025-.032.055-.043.029.04.052.041a.4.4,0,0,0,.158-.006,1.4,1.4,0,0,1,.378-.038c.07,0,.127-.048.191-.047.467.01.931.033,1.4.049.043,0,.089.01.131.009.569-.008,1.131.008,1.7.036a11.93,11.93,0,0,0,1.563-.111c.477-.04.951-.121,1.427-.144l.005.016a.4.4,0,0,1-.009.169l0,.008-.009,0c-.025.014.07-.022-.06.027a5.849,5.849,0,0,1-.586.115,3.813,3.813,0,0,1-.852.17c-.016,0-.043-.048-.043-.048s-.076-.076-.089-.052l-.005,0,0,0h0c-.021-.039-.084-.044-.088,0v.008a.648.648,0,0,0-.064-.014,1.7,1.7,0,0,0-.643.017,2.22,2.22,0,0,1-.643-.04c-.063-.008-.117.053-.18.054-.115,0-.222-.119-.327.046,0,0,.006-.011-.006.007s-.049-.01-.063-.015c-.054-.014-.119.057-.164.022l0,0h0l0,0h0v.009a.7.7,0,0,0,.016.074c.01.059.078.122.1.1s0,0,0,0,0,0,.005,0c.022.033.072.018.089.007s.007-.006.012-.008a12.013,12.013,0,0,0,1.76-.046s0,0,0,0-.008-.007,0,.008.043-.022.059,0,0,.028.028.055c.1.115.239.009.356-.035a1.2,1.2,0,0,1,.554-.072c.627.058,1.209.356,1.808-.23,0,0,.008,0,.015,0,.058.014-.11-.027.079.023a2.22,2.22,0,0,0,1.089-.2c.244-.087.456-.02.69-.14-.252-.11-.462-.278-.693.068h-.006c.009,0,.009,0-.073,0a7.306,7.306,0,0,0-.844.088c-.148.024-.11.009-.187-.177,0,0,.009.005,0,0s.014.012-.006-.013-.088-.022-.1-.093a1.753,1.753,0,0,0,.62-.145h0c.007,0,0,0,.013,0a2.619,2.619,0,0,1,.706-.139c.043,0,.019,0,.05-.006l.009,0c.007,0,0,0,.008,0l.008,0h0l.018-.009c.075-.035.372-.246.486-.313a.7.7,0,0,0-.251.035.835.835,0,0,1-.186-.017,6.58,6.58,0,0,0-.714.048.942.942,0,0,0,.206-.083c.018-.009.03-.06.049-.061.51-.041,1.047-.068,1.551-.12s.976-.058,1.476-.076a5.1,5.1,0,0,1,.809.027c.08.01.157-.028.239-.013l.026.006a1,1,0,0,0,.4,0c.006,0,0,0,0,0h0c.021,0,.039-.023.061,0s.093.04.094,0v-.012h0a.672.672,0,0,1,.116-.273c-.341.022-.683.044-1.026.044-.9,0-1.8-.01-2.7.037a6.11,6.11,0,0,0-1.331.1c-.01,0-.018,0-.027-.007a2.124,2.124,0,0,0-.932.019,2.57,2.57,0,0,1-.679.043c-.063,0-.034,0-.048-.095a2.233,2.233,0,0,0,.4,0c.474-.085.943-.165,1.419-.227.589-.076,1.185-.1,1.776-.129a7.69,7.69,0,0,0,.859-.043c.025,0,.057-.012.071-.015h.006a.568.568,0,0,0,.275.028c.1-.008.235-.016.344-.022a.34.34,0,0,1-.143-.128c-.006-.008,0,0-.006,0h0a.414.414,0,0,1-.024-.056.185.185,0,0,0-.267-.133l-.012.028h0v0l0,0v0l-.009-.01a.262.262,0,0,0-.223.019c-.034.043,0,0-.009.009v0s-.007,0-.012-.015-.04-.012-.039-.037.028-.084.055-.077a1.22,1.22,0,0,0,.534-.005.369.369,0,0,1,.395.111.594.594,0,0,0,.113-.175,7.728,7.728,0,0,1,.994-.062c.2-.015.4-.168.606-.2a.493.493,0,0,1-.087.109,2.652,2.652,0,0,1,.828-.055.9.9,0,0,1,.164-.257,1.262,1.262,0,0,1-.574-.1,4.655,4.655,0,0,0-.722.124.231.231,0,0,1,.014-.1c-.147-.022-.283.1-.428.107a8.4,8.4,0,0,0-1.134.1c.322-.114.643-.233.964-.366a12.964,12.964,0,0,0,2.09-.318c0,.017.008,0,0,.028s-.051.053-.063.073a.062.062,0,0,0-.006.064c.011.025,0,.014.027.039a.657.657,0,0,0,.107.081,1.334,1.334,0,0,1,.18.138s0,0,.008.008.015.017.023.029a.233.233,0,0,1,.026.047.429.429,0,0,1,.029.086c0,.007,0,0-.005.014-.025.176.067.3.073.2l0-.023h0c.043-.033.1-.05.134-.083.008-.007-.012-.045-.009-.053s0,0,0,0v0l.019-.021c.032-.033.131-.138.175-.193,0,0,0,0,.009,0a.13.13,0,0,0,.059-.008c.02-.01.035-.052.054-.082.067-.1.126-.163.214-.149a.924.924,0,0,1,.278.091c.143.072.279.2.4-.066,0-.005-.007-.006.018-.035s.132.024.169.064c.148.157.264.116.4-.02a1.363,1.363,0,0,0,.374-.443c0-.006-.006-.014-.01-.013-.064,0-.171.03-.226.032s-.069-.049-.109-.05l0,0s0-.009,0-.031c0-.044.067-.115.082-.156s-.01-.1-.033-.093c-.162.025-.284-.081-.458-.062-.277.031-.591.1-.876.161a1.075,1.075,0,0,0-.456.183.511.511,0,0,1-.5.061.228.228,0,0,1-.045-.015s0-.057.02-.041a.45.45,0,0,0,.166.044c.034-.15-.04-.13.09-.149a.035.035,0,0,0,0-.066c-.036-.022-.088-.13-.133-.122a.586.586,0,0,1-.493-.049.483.483,0,0,0-.1-.04c-.019-.008-.008-.021-.011-.031s-.016-.066-.006-.066a2.642,2.642,0,0,0,.343,0h0l0,0c.008.012-.017-.022.011.018a.173.173,0,0,0,.137.061,6.822,6.822,0,0,0,1.026-.075.113.113,0,0,1,.063,0c.071.023.123,0,.2,0a.759.759,0,0,0,.256,0H534l.322,0c.005,0,0,0,0,0s-.008-.009.011.009a.128.128,0,0,0,.113-.006l0,0h0l.006,0h.011a1.074,1.074,0,0,1,.116,0c.038,0,.085,0,.127,0,.1,0,.214,0,.319,0,.025,0,.04.024.066,0h.006c.01,0,.041,0,.059,0s.045-.034.066-.035.04-.012.062,0a.358.358,0,0,0,.244,0l.013,0h.013a1.563,1.563,0,0,0,.306,0,6.016,6.016,0,0,1,.67,0,.272.272,0,0,0,.167-.04s0-.017-.01-.018.013,0,.045,0h.149a.5.5,0,0,0-.122.025.433.433,0,0,0,.208.041c.264,0,.54-.006.8.011.371.023.731,0,1.1.038a.427.427,0,0,0,.122-.012,2.2,2.2,0,0,1,.351-.028s.011-.006.011-.022-.01-.032-.017-.033a1.986,1.986,0,0,0-.451-.056c-.032,0-.061.031-.092.044.032-.019.049-.058.088-.063s.167-.006.17-.111-.055-.03-.07-.064c.309,0,.613,0,.925,0,.1,0,.242.031.269-.261a.562.562,0,0,0-.018-.134c0-.044-.039-.014-.04-.037,0-.154-.125-.1-.174-.093s-.1-.01-.146-.006c.109-.03.246.025.349-.044.079-.053,0-.141-.05-.142-.512-.012-1.029,0-1.545.01-.412.005-.823.013-1.235.02l0-.017-.009.017c-.2,0-.391,0-.586.006a.6.6,0,0,0,.042-.378.048.048,0,0,0,.012-.026l0-.014.005.008a.261.261,0,0,0,.14.026c.019,0,.04,0,.06,0s.041,0,.061,0c.115-.01.232-.052.346-.053a.564.564,0,0,0,.067-.011,1.011,1.011,0,0,1,.3-.038c.222-.04.442-.058.664-.1a.28.28,0,0,0,.222-.1.1.1,0,0,0,.034,0v0c.009.017.021.018.038,0l.084-.006a3.421,3.421,0,0,1,.384-.063c.054-.008.087-.027.035-.067s-.139.015-.177-.047l.381-.059c.077-.015.17.044.225-.088a4.227,4.227,0,0,0,.669-.081q.291-.078.583-.152c.133-.034.2-.178.319-.241.06-.032.051-.1.065-.157l-.022-.091c.026-.1.051-.2-.047-.269-.058-.041.01-.093.074-.111.054-.037.1-.078.058-.136a.073.073,0,0,1-.014-.041c.1,0,.16-.006.158-.045,0,0,.1-.008.055-.027a.236.236,0,0,0-.108-.013c-.033,0-.064,0-.1,0a.235.235,0,0,0,0-.037.079.079,0,0,0-.024-.085c-.011-.034-.043-.038-.075-.044.15-.088.147-.086.074-.184a.213.213,0,0,0-.214-.1c-.09.01-.179.007-.269.01h-.079c-.03,0-.067.01-.091-.016l.107-.064h0c.076-.016.154.013.262-.068a1.272,1.272,0,0,0-.411-.013c-.068,0-.137,0-.153-.082.035-.007.069,0,.116-.012.087,0,.174.009.26.016a.268.268,0,0,0,.125-.013c.015-.008,0-.016-.032-.018l-.261-.02h0l-.06,0a.437.437,0,0,1-.228-.033c-.044-.027.053-.042.1-.052.13-.027.141-.037-.028-.051s-.334-.021-.507-.021a.077.077,0,0,0-.031,0c-.117-.019-.266,0-.378-.026-.016-.019,0-.032.076-.03a1.234,1.234,0,0,0,.413-.048,1.843,1.843,0,0,0,.459.009c.029,0,.076.005.059.019s-.031.034.059.03c.069,0,.111-.018.091-.039a.267.267,0,0,0-.169-.036c-.157-.027-.007-.032.039-.045s.125-.005.106-.019c-.048-.037-.021-.093-.247-.093a1.878,1.878,0,0,1-.3-.032c-.023-.032.026-.04.125-.031.044,0,.11.013.121-.005s-.066-.023-.126-.024h0a.184.184,0,0,0,0-.024.255.255,0,0,1,.04-.005.738.738,0,0,0,.169-.014l.226-.03c-.045-.026-.2-.029-.132-.063a.361.361,0,0,1,.171,0c.221.042.145-.025.178-.043s-.045-.036-.026-.057c.134-.054.092-.075-.171-.084v-.024l.085-.011-.011,0h0l.008,0a1.088,1.088,0,0,0,.2-.007c.04,0,.08,0,.12,0,.014-.034.027-.069.04-.1.077.008.176,0,.246.011a.347.347,0,0,0,.235-.005c.066-.034.039-.1-.054-.116-.126-.015-.25-.032-.379-.044.076-.274.127-.58.225-.827a3.276,3.276,0,0,1-2-.316c.06,0,.108-.008.127-.034a.892.892,0,0,1,.327-.028,3.656,3.656,0,0,0,.5.009c-.086-.039-.266-.019-.329-.062-.014-.01-.035.017-.044.028a.511.511,0,0,1-.209-.047.326.326,0,0,1,.069-.042c.127-.045.121-.052-.086-.064-.058,0-.12,0-.179,0a1.957,1.957,0,0,0-.3-.012h0a2.674,2.674,0,0,0-.29-.013l-.033-.005-.045-.03a.486.486,0,0,1,.123-.012c.1,0,.239.01.284-.034l.082-.011a2.047,2.047,0,0,0,.457.01c.028,0,.075,0,.063.018s-.049.026.027.031a.238.238,0,0,0,.119-.017c.094-.053-.063-.05-.167-.058-.155-.028-.012-.032.041-.043l.092-.013c-.005-.041.022-.088-.174-.1-.131-.006-.243-.023-.359-.038-.013-.028.031-.036.12-.031.048,0,.123.018.132-.006s-.078-.022-.139-.023c-.015-.022.033-.026.091-.026a.47.47,0,0,0,.154-.02l.194-.022c-.018-.029-.174-.029-.143-.061s.1-.013.156-.013c.159.04.159.04.209-.024l-.03-.071c.1-.025.122-.05-.01-.073l-.005-.009-.085-.029c.032,0,.064-.007.1-.008.076,0,.176,0,.174-.027s-.09-.037-.183-.036l-.164-.022c-.031-.014-.162-.032.018-.039a2.351,2.351,0,0,1,.435.005c.075.017.177,0,.254.018a.343.343,0,0,0,.224,0c.064-.031.046-.11-.037-.118-.189-.018-.36-.051-.563-.057a5.493,5.493,0,0,1-.634-.087l-.054-.01a8.718,8.718,0,0,0,1.625-.216c.026-.2.134-.242.181-.411a.549.549,0,0,1-.533-.282c.169.014.154-.142.17-.471.213-.049.451-.057.469-.642a2.159,2.159,0,0,0,.9-1.062c.082.072.141.03.22-.056.005-.006,0-.04.021-.034a.178.178,0,0,1,.062.072c.021.034.073.016.1.01a.066.066,0,0,0,.055-.075c-.005-.051-.045-.052-.053-.079s.025.005.026-.008c-.36-.288-.746-.239-1.112-.446,0,0,.241-.085.186-.1s-.387.144-.424-.084c.942-.049,1.892-.02,2.837-.06.169-.334.034-.4-.115-.572-.269.071-.506.154-.752-.152a1.545,1.545,0,0,1-1.244-.181,4.875,4.875,0,0,1,1.664-.452,16.407,16.407,0,0,0,1.8-1.033,1.376,1.376,0,0,0-.06-.246c.086-.045.172-.091.258-.134h0c.136.044.22-.113.277-.37l.347-.422c.08-.048.1-.191.106-.351h0C546.933,2807.206,546.922,2807.183,546.58,2807.143Zm-4.728-2.121,0,0h0Zm-365.468-5.038.028,0h.005Zm.018,1H176.4l0,0,.005,0Zm.441.3.084,0,.01.006Zm.258.434h0Zm.357-2.547h0Zm.707,3.622Zm.794-2.774h0v0h0Zm-1.376,22.875a1.332,1.332,0,0,0-1.45,0c-.226.124-.753.124-.577-.515l.748-.014h1.25c.156.171.324.331.465.514C177.875,2822.884,177.729,2822.888,177.583,2822.893Zm1.893-23.568h0Zm.316-.242h0Zm1.1.219h0c-.036-.006.025,0,.017,0Zm2.2-.86,0,0h.011Zm1.3,3.25-.019-.007a.363.363,0,0,1,.049.007Zm10.7-3.636h0Zm.926,29.34c-.054.014-.066-.024-.151-.03s-.31-.037-.406-.04a2.015,2.015,0,0,0-.243.016c-.017,0,0-.054.018-.054.3,0,.614,0,.919,0C196.1,2827.3,196.076,2827.382,196.022,2827.4Zm4.98-29.088h0Zm-.879-.1h0Zm-1.215.156h0Zm-1.167.108h-.033l0,0Zm-.091-.433v0h-.025Zm3.142,29.163c-.886.02-1.773.014-2.659.073-.066,0-.127.038-.194.038a3.586,3.586,0,0,1-.527-.044c.4-.013.705-.016,1.13-.037s.944-.123,1.4-.152c.143-.009.312-.016.471-.023.706-.032,1.431-.05,2.14-.07a1.485,1.485,0,0,1,.161.023A14.3,14.3,0,0,1,200.792,2827.206Zm2.678-28.982h0Zm.117.048h0Zm1.386-.058,0,0h0Zm.1-.18h0Zm2.6-.171a1.013,1.013,0,0,1,.449,0Zm6.061,30.5a1.341,1.341,0,0,0,.586.065A1.022,1.022,0,0,1,213.73,2828.362Zm1.286-.391c-.008,0-.022-.02-.017-.022a.394.394,0,0,1,.083.021A.357.357,0,0,1,215.016,2827.971Zm3.28-.655h0l.048,0H218.3Zm-.666-.07.528-.007c-.016.031-.021.057.01.076q-.828-.012-1.655-.028C216.885,2827.27,217.259,2827.25,217.63,2827.246Zm-1.026.3,0,.006c-.007.017-.012.029,0,.01Zm-.027.069.025-.063c.3,0,.63-.047.923-.022s.555.066.836.069c.009,0,0,.023-.014.024-.581.049-1.162.078-1.751.082h-.1A.194.194,0,0,0,216.577,2827.616Zm-1.084-29.749,0,0h.005Zm6.473,30.029a13.345,13.345,0,0,0-2.624.189,1.256,1.256,0,0,1-.3.012c-.093,0-.118-.013-.218-.012a3.487,3.487,0,0,1-.4-.03,1.094,1.094,0,0,0-.213-.022.524.524,0,0,0-.188.035.735.735,0,0,1-.286.072c-.266-.021-.47-.154-.759-.182a13.658,13.658,0,0,0-1.415-.005,9.167,9.167,0,0,1,1.307-.131c.493-.012,1.113-.036,1.631-.081a.35.35,0,0,1,.14.023.766.766,0,0,0,.145.032,3.683,3.683,0,0,0,.412.059c.024,0,.056,0,.084,0s.046.033.077.035.066-.034.1-.034c.333,0,.668.009,1,.014s.673-.018,1.007-.021c.179,0,.361.022.537.016a.218.218,0,0,1,.082.025C222.082,2827.9,222.01,2827.9,221.966,2827.9Zm.931,0c-.15,0-.34,0-.485,0-.009,0-.023-.013.02-.036a1.259,1.259,0,0,1,.318,0c.07,0,.162.027.21.03A.255.255,0,0,1,222.9,2827.892Zm11.524-30.589c.011,0,.077,0,.094,0s.008,0,0,0,0,0-.009,0a.641.641,0,0,1-.1.024C234.4,2797.329,234.41,2797.3,234.421,2797.3Zm-.486-.1Zm.47,30.776c-.152-.008-.306-.013-.461-.018.085-.056.177-.095.266-.142a.983.983,0,0,0,.668,0,1.341,1.341,0,0,0,.39.174C234.98,2828,234.693,2827.986,234.4,2827.976Zm5.053-30.151s-.011.009-.015.009-.02-.009-.018-.01h.033Zm2.506-.347c-.007,0,0-.028,0-.031a1.03,1.03,0,0,1,.12.008Zm7.054,30.755c-.005,0,0,0,0,0s.037,0,.036,0S249.023,2828.229,249.018,2828.233Zm.438-.172c-.007,0,0,0,0-.012s.072-.1.081-.082S249.492,2828.065,249.456,2828.061Zm4.025.127c.186-.021.372-.041.557-.064a.535.535,0,0,1,.241.047Zm1.438-.032-.555.013c-.036-.025-.088-.05-.069-.053.039,0,.742.1.62-.021l.241.03A.982.982,0,0,1,254.919,2828.156Zm3.354-30.533.008,0h-.012Zm.005.089h0c-.005,0-.011.008-.015.008s-.02-.007-.018-.009Zm-.038,30.049c-.023-.017.087-.047.124-.05a.746.746,0,0,1,.213.04C258.486,2827.764,258.3,2827.811,258.24,2827.761Zm5.069.652h-.031C263.285,2828.414,263.373,2828.41,263.309,2828.413Zm18.112,0Zm0,0h0Zm0,0Zm34.133.127h0Zm8.51-.006Zm0,0Zm0,0h0Zm23.587-31,.008,0h-.012Zm.006.089h0a.038.038,0,0,1-.015.008s-.02-.007-.018-.009S347.652,2797.623,347.658,2797.623Zm-19.75-.6c.034-.02.123-.079.153-.09s.048-.041.059-.034a.18.18,0,0,1,.018.084c0,.124-.066.027-.114.031a.19.19,0,0,0-.154.089h-.007C327.864,2797.049,327.877,2797.046,327.908,2797.027Zm-1.056-.08a.913.913,0,0,0-.1.141l-.132,0C326.64,2796.961,326.786,2796.963,326.852,2796.947Zm-.856-.005a.229.229,0,0,1,.088.014c.022.006.029.017.019.049s-.047.05-.062.071c-.244,0-.488-.012-.732-.017C325.539,2797.017,325.768,2796.972,326,2796.942Zm-2.2.272a.928.928,0,0,1,.094,0c.016,0,.009,0,0,0s0,0-.009,0a.827.827,0,0,1-.1.024C323.783,2797.24,323.789,2797.217,323.8,2797.214Zm-.486-.1h0ZM296.5,2827.978c.033,0,.076.027.1.03.006,0-.021.007-.03.007-.07,0-.16.005-.228,0,0,0-.011-.013.009-.036S296.465,2827.973,296.5,2827.978Zm-8.647.064v0h0Zm6.585-.319s0,.023-.007.024c-.045.008-.091.006-.136.014-.01-.011-.025-.019-.025-.04a.062.062,0,0,0-.009-.023A.88.88,0,0,0,294.436,2827.723Zm-.193-.337h-.005l-.4,0c.086-.007.172-.018.257-.02l.248-.007c0,.01,0,.015,0,.023Zm-.828.676c.058-.034.117-.065.175-.1l.073-.01a.19.19,0,0,1,0,.118A2.062,2.062,0,0,0,293.415,2828.062Zm1.341.158c-.02,0-.032,0-.045-.007.043-.018.107-.036.134-.049s.054-.03.045-.063,0-.013-.039-.042a1.051,1.051,0,0,0-.188-.093c-.052-.021-.131-.057-.206-.1.015,0,.032,0,.046-.006a.088.088,0,0,1,.065.023.216.216,0,0,0,.068.032.914.914,0,0,0,.194.059.184.184,0,0,1,.039,0c.013.005.022.034.037.036s.031-.034.048-.034c.156,0,.314.009.471.013s.316-.017.473-.02c.084,0,.17.022.252.016.01,0,.043.024.039.025a.328.328,0,0,1-.059,0,3.05,3.05,0,0,0-1.233.189A.284.284,0,0,1,294.756,2828.22Zm12.4-.263h.069l-.293.051c-.029-.008-.06-.013-.09-.022C306.955,2827.977,307.04,2827.964,307.16,2827.957ZM289.6,2796.9c.071-.02.261-.079.325-.09s.1-.041.125-.033.039.062.039.083c0,.124-.142.028-.242.031a.574.574,0,0,0-.346.1C289.5,2796.922,289.53,2796.925,289.6,2796.9Zm-.019.146.033.019c.052.006-.016,0,.05-.019a.83.83,0,0,1,.369.057.1.1,0,0,0,.026.009H290c-.326,0-.646-.008-.98-.018l-.046,0A1.432,1.432,0,0,1,289.583,2797.05Zm-1.087.048h-.076c-.181,0-.367-.016-.551-.024a.937.937,0,0,1,.235-.032A2.233,2.233,0,0,1,288.5,2797.1Zm-1.141-.274a1.918,1.918,0,0,0-.306.221l-.166,0C286.786,2796.836,287.188,2796.843,287.355,2796.824Zm-10.25.4a1.7,1.7,0,0,0-.624-.036A1.318,1.318,0,0,1,277.105,2797.224Zm-17.678.462.011,0h0c-.006,0-.018,0-.023,0Zm28,30.441c-.022-.028-.049-.065-.1-.121,0,0,.018,0,0,0s.028.013-.014-.012-.186-.022-.216-.093c.245-.018.49-.032.733-.055-.053.042-.127.1-.149.112l-.015.012,0,0-.006,0c-.013,0-.041-.007-.064,0s-.049.049-.075.076A.536.536,0,0,1,287.427,2828.127Zm.14.3a.576.576,0,0,0,.04-.044c.052,0,.1.006.157.006A.394.394,0,0,1,287.567,2828.423Zm.253-.273c0,.012,0,.016,0,.027l-.034,0c.015-.017.03-.036.045-.052a.084.084,0,0,0,.022-.072A.09.09,0,0,1,287.82,2828.15Zm.567.364a.166.166,0,0,1-.083-.025c-.021-.012-.019-.029,0-.051s.062-.046.078-.063,0-.016.007-.021c.356-.035.709-.089,1.032-.141.032.013.057.029.091.04h0a.042.042,0,0,0-.01.011,1.26,1.26,0,0,1-.246.15.053.053,0,0,0-.025.052C288.949,2828.484,288.667,2828.508,288.387,2828.514Zm2.692-.5-.079-.017a.552.552,0,0,0,.137-.046A.1.1,0,0,1,291.079,2828.01Zm-.568.122c-.007,0-.007-.014-.008-.024.064,0,.127-.007.191-.012l-.048.009A.93.93,0,0,1,290.511,2828.132Zm.582-.289-.045.02.021-.01-.009,0h0l-.014.007-.007,0-.017.005a.688.688,0,0,1-.337-.065,1.049,1.049,0,0,0-.893-.016,5.753,5.753,0,0,0-.852.321c-.22.01-.459.023-.679.036a.875.875,0,0,1-.117-.126s0,0-.007-.01-.012-.017-.016-.03a.119.119,0,0,1-.014-.049c0-.025-.018-.057-.011-.087,0-.015,0-.03.007-.045a3.194,3.194,0,0,0,.321-.049h0c.015,0-.007,0,.026,0l.021,0a.134.134,0,0,0,.017.065.109.109,0,0,0,.123.052c.04-.008.067-.048.025-.12-.006-.01-.016-.008-.023-.015a13.311,13.311,0,0,1,1.342-.117l.106-.007.018,0c.016,0,0,0,.018,0l.016,0h0l.039-.009c.054-.012.163-.044.29-.084a.882.882,0,0,0,.33-.018c.08-.017.16.05.233,0a5.148,5.148,0,0,0,.574-.02l0,0a.772.772,0,0,0,.3.087l.007,0a.409.409,0,0,0,.207.081l.014,0h0c.063.081.194.034.237.008l.006,0,.005,0h0c.059.026.111.077.162-.012h0l.006,0c.012,0,.052.006.065.008h.005l.005.006c.014.012.069.056.084.052s0,0,0,0h0v0s0,0-.007.012c-.014.028-.06.128,0,.137-.056.011-.109.013-.164.021a1.654,1.654,0,0,1,.3.051.728.728,0,0,1-.311.039,2.586,2.586,0,0,1-.547-.118A1.39,1.39,0,0,0,291.093,2827.843Zm1.284.708.017,0a.447.447,0,0,0,.141,0A.352.352,0,0,1,292.377,2828.551Zm3.107-.266c.038-.016.075-.024.113-.042a.5.5,0,0,1,.2-.022,3.711,3.711,0,0,1,.551.041C296.056,2828.272,295.77,2828.276,295.484,2828.285Zm1.412-.036c.2-.043.412-.068.594-.089a.379.379,0,0,1,.244.08c-.086,0-.172,0-.258,0C297.283,2828.236,297.09,2828.245,296.9,2828.249Zm1.277.009a.344.344,0,0,1,.179.014h0Zm3.8-.159c-.071-.008-.144-.014-.216-.018a1.6,1.6,0,0,1,.124-.142.241.241,0,0,0,.315,0c.053.1.12.112.182.174C302.244,2828.119,302.109,2828.109,301.974,2828.1Zm6.866.257s0,0,0,0,.017,0,.017,0S308.842,2828.352,308.84,2828.356Zm2.1-.045c.087-.021.175-.041.262-.064.039-.011.076.02.113.047Zm.675-.033c-.087.006-.173.01-.26.014-.017-.025-.042-.05-.033-.053s.349.1.292-.021l.113.03A.235.235,0,0,1,311.612,2828.278Zm16.368-.138c.019,0,.035,0,.053,0a.485.485,0,0,0-.083.085h-.006c.009,0,.009,0-.073,0a7.537,7.537,0,0,0-.844.089c-.117.018-.12.009-.153-.087A4.608,4.608,0,0,0,327.98,2828.14Zm10.417,0c-.005,0,0,0,0,0s.037-.005.036,0S338.4,2828.139,338.4,2828.144Zm.438-.172c-.007,0,0,0,0-.012s.073-.1.082-.082S338.871,2827.976,338.835,2827.972Zm4.026.127c.186-.021.372-.041.557-.064a.53.53,0,0,1,.24.047Zm1.437-.032-.554.013c-.036-.025-.088-.05-.07-.053.039-.005.743.1.62-.021l.242.03A.984.984,0,0,1,344.3,2828.067Zm3.321-.395c-.022-.017.088-.048.124-.051a.782.782,0,0,1,.214.041C347.866,2827.675,347.683,2827.721,347.619,2827.672Zm1.2-30.072c-.007,0-.018,0-.023,0l.012,0,.011,0h0Zm3.871,30.724h0Zm13.8-31.189a1.7,1.7,0,0,0-.624-.036A1.3,1.3,0,0,1,366.484,2797.135Zm4.317,31.184h0Zm0,0Zm0,0Zm10.837.076a.329.329,0,0,0,.276.065A.257.257,0,0,1,381.639,2828.4Zm.6-.391-.008-.022.04.021S382.247,2828.006,382.243,2828Zm22.691.442h0Zm8.51-.005h0Zm0,0Zm0,0h0Zm24.3-31.4h0s-.011.009-.015.009-.02-.009-.018-.01ZM383.721,2827.3l-.507,0c.086-.007.172-.018.258-.02l.248-.007C383.717,2827.282,383.722,2827.288,383.721,2827.3Zm-.732.285v.006c0,.017-.006.029,0,.01Zm-.012.069.012-.063a1.416,1.416,0,0,0,.168-.016l.115-.005a.639.639,0,0,1,.151,0,2.674,2.674,0,0,0,.392.07c.005,0,0,.023-.007.024a4.919,4.919,0,0,1-.822.081h-.047A.225.225,0,0,0,382.977,2827.65Zm32.194-.743h0Zm1.48-.09c.009,0-.005.023-.014.024-.311.026-.626.03-.939.044.193-.035.386-.062.578-.093C416.4,2826.8,416.523,2826.815,416.651,2826.817Zm-2.865-29.735,0,0,0,0h.005Zm18.925-.563c.011,0,.077,0,.093,0s.009,0,.005,0l-.009,0a.783.783,0,0,1-.1.024C432.693,2796.546,432.7,2796.522,432.711,2796.519Zm-.486-.1h0Zm-25.817.662h-.449A1,1,0,0,1,406.408,2797.079Zm-3.043.171h0Zm-.079.18h-.023l0,0Zm-1.409.059Zm-.075-.05h-.042Zm-3.389-.01h0Zm-2.473-.169v0h-.025Zm-18.709,30.693v0h0Zm-.934-30.812v0l-.005-.007.005,0h0Zm2.684-.326c.072-.02.262-.079.325-.09s.1-.041.126-.033.039.061.038.083c0,.124-.141.028-.241.031a.577.577,0,0,0-.347.1C378.88,2796.833,378.91,2796.836,378.981,2796.815Zm-2.232.376a.653.653,0,0,0,.133-.008.391.391,0,0,0,.123-.081.748.748,0,0,1,.479-.15c.179,0,.449.087.612.085.258,0,.73-.154.866-.076l.033.019c.053.006-.016,0,.05-.019a.827.827,0,0,1,.369.057c.021.01.04.012.06.02a.885.885,0,0,0-.22.117s0,0,0-.005.021.01-.018-.019-.144-.007-.181.1h0s0,0-.015,0a.409.409,0,0,1-.118.039c-.774-.006-1.548-.017-2.322-.027.05-.022.1-.043.133-.057C376.736,2797.191,376.723,2797.191,376.749,2797.191Zm-.015-.456a5.159,5.159,0,0,0-.437.323.043.043,0,0,0-.016.062c-.023-.031-.012-.059.031-.089C376.064,2796.743,376.549,2796.756,376.734,2796.735Zm.072,31.3c-.022-.028-.049-.065-.1-.121,0,0,.019.005,0,0s.029.013-.014-.012-.186-.022-.216-.094c.245-.017.49-.031.733-.054-.053.042-.127.1-.148.113l-.016.011,0,0-.005,0c-.014,0-.042-.007-.065,0s-.049.049-.075.076A.476.476,0,0,1,376.806,2828.038Zm.14.3c.014-.012.027-.03.041-.044.051,0,.1.006.156.006A.392.392,0,0,1,376.946,2828.334Zm.253-.274c0,.013,0,.017,0,.028l-.034,0c.014-.017.029-.037.044-.052a.081.081,0,0,0,.022-.072A.089.089,0,0,1,377.2,2828.06Zm.233-.765,0,0,.17-.006Zm.687-.041a3.65,3.65,0,0,0,.375-.072.072.072,0,0,0,.038.059C378.395,2827.247,378.257,2827.246,378.119,2827.254Zm.7-.023-.184.006a.169.169,0,0,0,.045-.089.087.087,0,0,1-.064-.018.089.089,0,0,1,.041-.021l.175-.006a.066.066,0,1,0-.013.128Zm3.218.041a.4.4,0,0,0-.219-.126.275.275,0,0,1,.18-.039c.065,0,.181-.045.248-.006s.092.15.146.189C382.278,2827.282,382.159,2827.275,382.041,2827.272Zm3.468.658a3.07,3.07,0,0,0-1.233.188.277.277,0,0,1-.141.013.762.762,0,0,0-.1-.013.764.764,0,0,1-.188-.029.25.25,0,0,0-.1-.023c-.037,0-.047.011-.088.035s-.08.082-.134.073c-.125-.021-.221-.155-.357-.182a2.951,2.951,0,0,0-.665,0,2.135,2.135,0,0,1,.614-.131,6.227,6.227,0,0,0,.767-.081.091.091,0,0,1,.066.023.216.216,0,0,0,.068.032.9.9,0,0,0,.193.059.179.179,0,0,1,.04,0c.013,0,.021.034.036.036s.031-.034.048-.034c.157,0,.314.009.471.013s.316-.017.473-.02c.085,0,.17.022.253.016.009,0,.042.024.038.025A.323.323,0,0,1,385.509,2827.93Zm.437,0c-.07,0-.159,0-.227,0-.005,0-.011-.013.009-.036s.116,0,.149,0,.076.028.1.031C385.982,2827.919,385.956,2827.926,385.946,2827.926Zm5.408.084c-.072-.008-.145-.014-.217-.018a1.471,1.471,0,0,1,.125-.142.24.24,0,0,0,.314,0c.053.1.12.112.183.174C391.624,2828.03,391.489,2828.02,391.354,2828.01Zm6.865.257v0c0-.006.017,0,.016,0S398.221,2828.262,398.219,2828.267Zm.206-.172s0,0,0-.012.035-.1.039-.082S398.442,2828.1,398.425,2828.095Zm1.891.127c.088-.021.175-.041.262-.065.039-.01.077.021.113.048Zm.676-.032-.261.013c-.017-.025-.041-.05-.032-.053s.349.1.291-.021l.113.03A.239.239,0,0,1,400.992,2828.19Zm1.56-.4c-.01-.017.041-.048.058-.051a.191.191,0,0,1,.1.041C402.668,2827.8,402.582,2827.844,402.552,2827.795Zm17.7-.682a13.42,13.42,0,0,0-2.624.188,1.219,1.219,0,0,1-.3.012c-.093,0-.118-.012-.218-.012h-.044l.017-.007c.018-.009.031-.06.049-.061.51-.041,1.048-.068,1.552-.12.144-.015.282-.02.422-.029.218-.005.435-.011.652-.013.179,0,.361.022.537.016a.2.2,0,0,1,.082.025C420.372,2827.113,420.3,2827.113,420.256,2827.113Zm.931,0c-.15,0-.34.005-.485,0-.009,0-.023-.013.02-.036a1.2,1.2,0,0,1,.318,0c.07,0,.162.028.21.031A.261.261,0,0,1,421.187,2827.109Zm11.508.084c-.152-.008-.306-.013-.461-.018a2.832,2.832,0,0,1,.266-.142.981.981,0,0,0,.668,0,1.342,1.342,0,0,0,.39.174C433.27,2827.214,432.983,2827.2,432.7,2827.193Zm7.559-30.5c-.007,0,0-.027.005-.03a1.029,1.029,0,0,1,.12.008S440.261,2796.694,440.254,2796.694Zm7.054,30.756c-.005,0,0,0,0,0s.037,0,.036,0S447.313,2827.445,447.308,2827.45Zm.438-.172c-.008,0,0,0,0-.012s.072-.1.081-.082S447.782,2827.282,447.746,2827.278Zm4.025.127c.186-.021.372-.041.557-.064a.522.522,0,0,1,.241.047Zm1.438-.033c-.186.006-.37.01-.555.014-.036-.025-.088-.05-.069-.053.039-.005.742.1.62-.021l.241.03A.967.967,0,0,1,453.209,2827.372Zm3.354-30.533.008,0h-.012Zm.005.089h0a.041.041,0,0,1-.015.007s-.02-.007-.018-.008Zm-.038,30.05c-.023-.017.087-.048.124-.051a.716.716,0,0,1,.213.041C456.776,2826.981,456.593,2827.027,456.53,2826.978Zm1.2-30.072c-.006,0-.018,0-.023,0l.013,0,.011,0h0Zm3.872,30.724h0Zm13.8-31.189a1.684,1.684,0,0,0-.624-.036A1.308,1.308,0,0,1,475.395,2796.441Zm4.316,31.184Zm0,0h0Zm0,0h0Zm8.18-31.5c.071-.02.261-.079.325-.09s.1-.041.125-.033.039.061.039.083c0,.124-.142.027-.242.031a.565.565,0,0,0-.346.1C487.791,2796.139,487.82,2796.142,487.892,2796.121Zm-2.669.216c-.249-.288.236-.275.422-.3a5.173,5.173,0,0,0-.438.323.043.043,0,0,0-.016.061C485.168,2796.4,485.179,2796.367,485.223,2796.337Zm-.015.114-.005-.007,0,0h0Zm.509,30.893c-.022-.028-.049-.065-.1-.121,0,0,.018.005,0,0s.028.012-.014-.013-.186-.021-.216-.093c.245-.018.49-.031.733-.054-.053.042-.127.1-.149.112l-.015.011,0,0h-.006c-.013,0-.041-.006-.064,0s-.049.05-.075.077A.583.583,0,0,1,485.717,2827.344Zm.14.3a.53.53,0,0,0,.04-.044c.052,0,.1.006.157.006A.391.391,0,0,1,485.857,2827.64Zm.253-.274c0,.013,0,.016,0,.028l-.034,0c.015-.017.03-.037.045-.052a.084.084,0,0,0,.022-.072A.089.089,0,0,1,486.11,2827.366Zm.031-.11v0Zm.2-.655,0,0,.169-.006Zm.687-.042a3.432,3.432,0,0,0,.376-.071.068.068,0,0,0,.038.058C487.3,2826.553,487.168,2826.552,487.029,2826.559Zm.705-.022-.185.006a.168.168,0,0,0,.045-.089.087.087,0,0,1-.063-.018.074.074,0,0,1,.04-.021l.176-.006a.374.374,0,0,0-.084.043A.406.406,0,0,0,487.734,2826.537Zm.431-30.076s0,0,0,0,.021.01-.017-.019-.145-.007-.182.1h0s0,0-.015,0a.391.391,0,0,1-.118.04c-.775-.006-1.548-.017-2.322-.027l.132-.058c.008,0-.006,0,.021,0a.586.586,0,0,0,.133-.007.387.387,0,0,0,.122-.081.748.748,0,0,1,.479-.15c.18,0,.449.087.612.085.258,0,.73-.154.867-.076l.033.019c.052.006-.016,0,.05-.019a.814.814,0,0,1,.369.057c.021.01.039.012.06.02A.845.845,0,0,0,488.165,2796.461Zm2.385,31.241a.325.325,0,0,0,.275.065A.257.257,0,0,1,490.55,2827.7Zm.6-.392s-.01-.019-.008-.021l.039.021S491.158,2827.312,491.154,2827.31Zm-.2-.732a.41.41,0,0,0-.218-.127.276.276,0,0,1,.179-.039c.065,0,.182-.044.249-.005s.091.15.146.189C491.188,2826.588,491.07,2826.581,490.951,2826.578Zm1.431.008.248-.007c0,.009,0,.014,0,.023l-.507,0C492.211,2826.6,492.3,2826.588,492.382,2826.586Zm-.482.3v.006c0,.018,0,.03,0,.011Zm-.012.07.011-.064a1.4,1.4,0,0,0,.169-.015l.114,0a.627.627,0,0,1,.151,0,2.848,2.848,0,0,0,.393.07s0,.023-.007.024a4.956,4.956,0,0,1-.823.081h-.047A.213.213,0,0,0,491.888,2826.956Zm2.532.28a3.066,3.066,0,0,0-1.233.188.276.276,0,0,1-.141.012.767.767,0,0,0-.1-.012.757.757,0,0,1-.188-.029.25.25,0,0,0-.1-.023.144.144,0,0,0-.088.035c-.041.025-.081.082-.134.073-.125-.022-.222-.155-.357-.182a2.937,2.937,0,0,0-.665-.005,2.135,2.135,0,0,1,.614-.131,6.345,6.345,0,0,0,.767-.081.089.089,0,0,1,.065.022.208.208,0,0,0,.068.033.927.927,0,0,0,.194.059.184.184,0,0,1,.039,0c.013,0,.022.034.037.036s.031-.034.048-.034c.156,0,.314.009.471.013s.316-.017.473-.02c.084,0,.17.021.252.016.01,0,.043.023.039.025A.407.407,0,0,1,494.42,2827.236Zm.437,0c-.07,0-.16.005-.228,0,0,0-.011-.014.009-.036s.117-.005.15,0,.076.028.1.03S494.866,2827.232,494.857,2827.232Zm5.414-30.59a.205.205,0,0,1,.044,0c.008,0,.005,0,0,0s0,0-.005,0a.22.22,0,0,1-.045.025C500.263,2796.669,500.266,2796.645,500.271,2796.642Zm-.228-.1Zm.221,30.776c-.072-.008-.144-.014-.216-.018a1.319,1.319,0,0,1,.124-.142.24.24,0,0,0,.314,0c.054.1.121.112.183.174C500.534,2827.336,500.4,2827.326,500.264,2827.316Zm2.374-30.152-.005.007h0l-.006-.007Zm1.177-.347,0-.03.056.007Zm3.315,30.756s0,0,0,0,.017-.005.017,0S507.132,2827.568,507.13,2827.573Zm.206-.172s0,0,0-.012.034-.1.038-.082S507.353,2827.405,507.336,2827.4Zm1.891.127c.087-.021.175-.041.262-.065.039-.01.076.02.113.048Zm.675-.033c-.087.006-.173.009-.26.014-.017-.025-.042-.05-.033-.053s.349.1.292-.021l.113.03A.235.235,0,0,1,509.9,2827.5Zm1.576-30.533,0,0h-.006Zm0,.089h0l-.007.007-.008-.008Zm-.018,30.05c-.011-.017.041-.048.058-.051a.191.191,0,0,1,.1.041C511.579,2827.1,511.493,2827.15,511.463,2827.1Zm.562-30.072h-.01l.006,0,.005,0h0Zm1.82,30.724h0Zm6.482-31.189a.392.392,0,0,0-.294-.036A.309.309,0,0,1,520.327,2796.564Zm2.028,31.184Zm0,0Zm0,0Zm2.816-1,.027,0c.116-.017.241-.028.354-.035-.093.012-.307.034-.371.039S525.17,2826.753,525.171,2826.753Zm1-1.093c-.006,0,.012-.01.018-.01a.616.616,0,0,1,.068,0Zm1.138-.05h-.028c-.1.007-.271.062-.4.059-.026,0-.071-.02-.1-.022.187-.025.357-.053.548-.079.249-.033.516-.054.769-.065,0,0,.008.012.012.014C527.847,2825.55,527.577,2825.58,527.309,2825.61Zm1.071-.05c0,.006,0,0,0,0h-.006a.357.357,0,0,0-.067,0c-.006,0,0,0-.011-.005a.967.967,0,0,0-.089-.042l-.008,0h0v-.006c.062,0,.139,0,.2,0C528.4,2825.507,528.378,2825.552,528.38,2825.56Zm.043-28.438c-.437-.009-.875-.021-1.312-.031.3-.044.609-.1.914-.16.028,0,.054-.048.081-.047a.531.531,0,0,1,.485.235l0,0C528.538,2797.118,528.48,2797.123,528.423,2797.122Zm.725-.194a.421.421,0,0,0-.34.1c.055-.115.138-.138.17-.306a.377.377,0,0,0,.079.03,1.386,1.386,0,0,0,.2.025.292.292,0,0,0,.112-.029C529.361,2796.986,529.244,2796.927,529.148,2796.928Zm4.871,27.429c.033-.021.118-.08.146-.092s.045-.041.056-.034a.181.181,0,0,1,.018.084c0,.124-.062.028-.108.032a.173.173,0,0,0-.155.1C533.974,2824.377,533.987,2824.379,534.019,2824.357Zm-1.2.34,0-.007,0,0h0Zm0,0h0s0,0,0,0S532.819,2824.692,532.819,2824.693Zm.191-.41a3.5,3.5,0,0,0-.188.318c0-.006,0-.012,0-.019C532.711,2824.3,532.921,2824.307,533.01,2824.283Zm-.317.817h0v0S532.693,2825.1,532.693,2825.1Zm-.068-.187v0s0-.007,0,0S532.624,2824.914,532.625,2824.913Zm-.151-1.041.017,0-.029.032Zm-1.581-26.469v0h0Zm1.482,26.151h0Zm6.924-.825c.087,0,.175,0,.263,0l-.379,0Zm-2.194.773c.008,0,.026,0,.019,0a.239.239,0,0,1-.049.006,1.359,1.359,0,0,1-.164-.007Zm-.414-1.069a.321.321,0,0,0,0,.16l-.5.006a.778.778,0,0,0-.574-.211.454.454,0,0,0-.122.212h0a.646.646,0,0,1,.091-.224.748.748,0,0,0,.163-.044,1.78,1.78,0,0,1,.481-.063.416.416,0,0,0,.069-.016.394.394,0,0,1,.1-.021h0a.2.2,0,0,0,.135.031.58.58,0,0,0,.058,0,.847.847,0,0,0,.088-.008l.026,0A.4.4,0,0,1,536.691,2822.433Zm.085-.273v0l0,0Zm1.963-2.156h0Zm2.539-.083-.006,0h0Zm-1.513-.436c0-.005,0,0,0,0h0Zm-.007-.323h0Zm.088.058c0,.007,0,.014-.017.016-.039,0-.081,0-.125.006Zm-.834-3.25,0,0,0,0Zm.161.8h0Zm3.251-10.1c-.059,0-.118,0-.176,0A.124.124,0,0,1,542.424,2806.673Zm-2.388-8.5a1.516,1.516,0,0,1,.361.013c-.174-.008-.347-.006-.519,0C539.931,2798.178,539.984,2798.176,540.036,2798.169Zm-.319,2.762v-.016a.293.293,0,0,0-.111-.236l.753,0a2.009,2.009,0,0,1,.3.141c.023.013.056-.031.079-.065s.037-.054.056-.078h.077c.071-.051.129-.093.177-.133.059.034.115.127.169.3.162-.221.332-.361.526-.278.029.013.065-.007.087.025.235.342.459.371.721.071.107-.121.355-.115.269.522l-.352,0-2.677-.068A.674.674,0,0,0,539.717,2800.931Zm4.452,6.361-.352.005-2.455-.062.121-.031c.036-.009.107-.022.061-.046-.083,0-.133.029-.222.021-.222-.018-.238-.016-.217.025.008.009.029.017.015.025l-.148,0a.477.477,0,0,1-.228-.082c.017-.039.114-.036.213-.035a.564.564,0,0,0,.287-.041c.017-.013.044-.027-.005-.037a.167.167,0,0,0-.115.013.33.33,0,0,1-.231.007l.129-.026c.005,0,.006-.007,0-.011h0c.03-.022.118-.042.049-.068a4.382,4.382,0,0,0,.791-.089c.047.023.1.041.143.068.023.013.056-.031.079-.066s.048-.067.072-.1c.077,0,.155-.007.232-.011a.776.776,0,0,0,.093,0,1,1,0,0,1,.082.2c.162-.22.332-.36.526-.277.029.013.065-.007.087.025.235.342.459.371.721.071C544.007,2806.649,544.255,2806.655,544.169,2807.292Z" transform="translate(-169.816 -2795.49)" fill="#ffe04b"/>
</svg>
