<svg xmlns="http://www.w3.org/2000/svg" width="107.297" height="111.88" viewBox="0 0 107.297 111.88">
  <g id="_70" data-name="70" transform="translate(-530.127 -1291.193)">
    <g id="Group_83" data-name="Group 83">
      <path id="Path_17895" data-name="Path 17895" d="M591.488,1401.545a1.571,1.571,0,0,0,.45.015,2.2,2.2,0,0,1,1.218-.031,1.361,1.361,0,0,0,.454-.01,1.624,1.624,0,0,0,.367-.084c.258-.106-.391-.082-.618-.123a5.138,5.138,0,0,0-.969.073A5.941,5.941,0,0,0,591.488,1401.545Z" fill="#47aea9"/>
      <path id="Path_17896" data-name="Path 17896" d="M607.592,1400.279a15.5,15.5,0,0,0-2.385.611A11.349,11.349,0,0,0,607.592,1400.279Z" fill="#47aea9"/>
      <path id="Path_17897" data-name="Path 17897" d="M603.77,1400.56c-1.2.2-2.724.5-4.433.753A44.648,44.648,0,0,0,603.77,1400.56Z" fill="#47aea9"/>
      <path id="Path_17898" data-name="Path 17898" d="M609.332,1398.99c.112-.108.086-.15-.451.084a16.687,16.687,0,0,1-1.559.61,5.361,5.361,0,0,0,1.235-.334A2.5,2.5,0,0,0,609.332,1398.99Z" fill="#47aea9"/>
      <path id="Path_17899" data-name="Path 17899" d="M611.144,1399.028c.163-.309-.644.106-1.662.6A15.152,15.152,0,0,0,611.144,1399.028Z" fill="#47aea9"/>
      <path id="Path_17900" data-name="Path 17900" d="M634.464,1376.67c-.167.328.139.078-.525,1.033-.063.091.071-.055.1-.067a5.125,5.125,0,0,0,.79-1.211C635.149,1375.728,634.617,1376.542,634.464,1376.67Z" fill="#47aea9"/>
      <path id="Path_17901" data-name="Path 17901" d="M615.222,1395.842a15.329,15.329,0,0,0,1.952-1.01A13.869,13.869,0,0,0,615.222,1395.842Z" fill="#47aea9"/>
      <path id="Path_17902" data-name="Path 17902" d="M625.683,1389.358c-.328.248-.661.5-1.1.819C624.435,1390.5,624.874,1390.16,625.683,1389.358Z" fill="#47aea9"/>
      <path id="Path_17903" data-name="Path 17903" d="M629.17,1377.768a3.846,3.846,0,0,0-.4.666c-.045.137.232-.207.3-.323.661-1.14.426-.479.74-.937C629.926,1376.8,629.745,1376.954,629.17,1377.768Z" fill="#47aea9"/>
      <path id="Path_17904" data-name="Path 17904" d="M597.738,1402.984a5.757,5.757,0,0,0-2.05.089C596.6,1402.976,596.957,1403.019,597.738,1402.984Z" fill="#47aea9"/>
      <path id="Path_17905" data-name="Path 17905" d="M621.993,1391.433c.066.121.722-.357,1.405-.9a9.923,9.923,0,0,0,1.693-1.364c-.523.422-1.046.824-1.568,1.213Q622.758,1390.919,621.993,1391.433Z" fill="#47aea9"/>
      <path id="Path_17906" data-name="Path 17906" d="M632.077,1379.907a3,3,0,0,0,.209-.366c-.048-.055-.4.457-.812.974C631.54,1380.595,631.725,1380.411,632.077,1379.907Z" fill="#47aea9"/>
      <path id="Path_17907" data-name="Path 17907" d="M634.012,1370.788c.329-.565.645-1.14.953-1.712A12.647,12.647,0,0,0,634.012,1370.788Z" fill="#47aea9"/>
      <path id="Path_17908" data-name="Path 17908" d="M616.246,1396.195a48.791,48.791,0,0,1-4.946,2.3c-.041.034-.093.062-.139.094a50.181,50.181,0,0,0,4.973-2.3,9.278,9.278,0,0,0,1.751-.93C617.455,1395.556,616.608,1396.083,616.246,1396.195Z" fill="#47aea9"/>
      <path id="Path_17909" data-name="Path 17909" d="M580.74,1401.252q.73.209,1.46.4c.09,0,.185.008.27.009-.531-.127-1.056-.265-1.584-.412Z" fill="#47aea9"/>
      <path id="Path_17910" data-name="Path 17910" d="M609.044,1399.805a3.029,3.029,0,0,0-1.073.341C608.366,1400.025,608.637,1399.942,609.044,1399.805Z" fill="#47aea9"/>
      <path id="Path_17911" data-name="Path 17911" d="M585.28,1402c-.038.007.014.031.1.053a1.515,1.515,0,0,0,.488.027c.036-.008-.1-.033-.182-.059C585.526,1402.01,585.331,1401.992,585.28,1402Z" fill="#47aea9"/>
      <path id="Path_17912" data-name="Path 17912" d="M585.015,1402.193a9.579,9.579,0,0,0-1.248-.25A5.85,5.85,0,0,0,585.015,1402.193Z" fill="#47aea9"/>
      <path id="Path_17913" data-name="Path 17913" d="M606.732,1399.827c.382-.112.742-.3,1.017-.373A2.77,2.77,0,0,0,606.732,1399.827Z" fill="#47aea9"/>
      <path id="Path_17914" data-name="Path 17914" d="M594.443,1402.278c-.045.026-.011.042,0,.066.117-.015.23-.03.626-.093-.094,0-.184-.02-.315-.023A1.9,1.9,0,0,0,594.443,1402.278Z" fill="#47aea9"/>
      <path id="Path_17915" data-name="Path 17915" d="M571.547,1397.812c.1-.014-.094-.116-.409-.278C570.969,1397.545,571.2,1397.66,571.547,1397.812Z" fill="#47aea9"/>
      <path id="Path_17916" data-name="Path 17916" d="M579.595,1400.918a6.007,6.007,0,0,0-1-.292A5.276,5.276,0,0,0,579.595,1400.918Z" fill="#47aea9"/>
      <path id="Path_17917" data-name="Path 17917" d="M599.9,1402.716c-.3.085.046.022.161.013.08-.006.244-.052.472-.1a.726.726,0,0,0-.213,0A3.866,3.866,0,0,0,599.9,1402.716Z" fill="#47aea9"/>
      <path id="Path_17918" data-name="Path 17918" d="M632.373,1380.505c.042-.04.083-.072.11-.1a3.123,3.123,0,0,0,.374-.55c.025-.057-.044-.008-.086.051C632.644,1380.1,632.505,1380.311,632.373,1380.505Z" fill="#47aea9"/>
      <path id="Path_17919" data-name="Path 17919" d="M627.06,1387.528a4.44,4.44,0,0,0-.773.663A5.223,5.223,0,0,0,627.06,1387.528Z" fill="#47aea9"/>
      <path id="Path_17920" data-name="Path 17920" d="M607.006,1400.055a4.094,4.094,0,0,0,.917-.286A4.91,4.91,0,0,0,607.006,1400.055Z" fill="#47aea9"/>
      <path id="Path_17921" data-name="Path 17921" d="M592.078,1401.928a3.524,3.524,0,0,0,.89.027A3.372,3.372,0,0,0,592.078,1401.928Z" fill="#47aea9"/>
      <path id="Path_17922" data-name="Path 17922" d="M633.468,1375.088c-.02.144.1.021.361-.469.432-.84.682-1.154,1.263-2.209-.461.687-.7.976-1.139,1.736A4.435,4.435,0,0,0,633.468,1375.088Z" fill="#47aea9"/>
      <path id="Path_17923" data-name="Path 17923" d="M631.008,1378.927c.531-.67,1.1-1.513,1.477-1.975A7.841,7.841,0,0,0,631.008,1378.927Z" fill="#47aea9"/>
      <path id="Path_17924" data-name="Path 17924" d="M621.384,1389.417a7.576,7.576,0,0,0,1.255-.961A13.445,13.445,0,0,0,621.384,1389.417Z" fill="#47aea9"/>
      <path id="Path_17925" data-name="Path 17925" d="M626.584,1385.595a1.432,1.432,0,0,0,.3-.39s.049-.1-.022-.046a1.743,1.743,0,0,0-.326.394C626.464,1385.661,626.391,1385.783,626.584,1385.595Z" fill="#47aea9"/>
      <path id="Path_17926" data-name="Path 17926" d="M629.822,1377.164l-.007.01h0l0,0Z" fill="#47aea9"/>
      <path id="Path_17927" data-name="Path 17927" d="M579.28,1292.72a1.633,1.633,0,0,0-.45-.015,2.161,2.161,0,0,1-1.217.037,1.173,1.173,0,0,0-.455,0,1.946,1.946,0,0,0-.364.085c-.264.1.389.081.619.123a4.3,4.3,0,0,0,.967-.08A4.726,4.726,0,0,0,579.28,1292.72Z" fill="#47aea9"/>
      <path id="Path_17928" data-name="Path 17928" d="M531.926,1351.354a12.917,12.917,0,0,1,.187-2.672c-.158-.242-.265.592-.274,2.011-.021.329-.032.806-.1.534-.056-.19-.118-1.192-.148-.372a7.143,7.143,0,0,0,.154,1.506c-.053.305-.2-.058-.094,1.338C531.875,1354.057,531.787,1351.921,531.926,1351.354Z" fill="#47aea9"/>
      <path id="Path_17929" data-name="Path 17929" d="M549.118,1388.777c-1.27-1.494-2.627-3.089-4.687-5.835A40.88,40.88,0,0,0,549.118,1388.777Z" fill="#47aea9"/>
      <path id="Path_17930" data-name="Path 17930" d="M563.177,1293.986a14,14,0,0,0,2.385-.612A11.584,11.584,0,0,0,563.177,1293.986Z" fill="#47aea9"/>
      <path id="Path_17931" data-name="Path 17931" d="M567,1293.706c1.2-.2,2.725-.5,4.433-.753A44.415,44.415,0,0,0,567,1293.706Z" fill="#47aea9"/>
      <path id="Path_17932" data-name="Path 17932" d="M561.437,1295.281c-.109.11-.088.15.449-.083a15.246,15.246,0,0,1,1.564-.616,5.829,5.829,0,0,0-1.242.332A2.581,2.581,0,0,0,561.437,1295.281Z" fill="#47aea9"/>
      <path id="Path_17933" data-name="Path 17933" d="M534.653,1343.8c.213-.674.452-2.17.737-3.367-.171.582-.329,1.169-.489,1.762a35.112,35.112,0,0,0-.793,3.982,6.839,6.839,0,0,0-.1,1.21c.068.075.1-.594.149-.919C534.295,1345.568,534.469,1344.67,534.653,1343.8Z" fill="#47aea9"/>
      <path id="Path_17934" data-name="Path 17934" d="M552.211,1392.821c-1.35-1.21-2.607-2.443-3.786-3.716A21.568,21.568,0,0,0,552.211,1392.821Z" fill="#47aea9"/>
      <path id="Path_17935" data-name="Path 17935" d="M533.908,1355.615c.2-.16.024-2.336.139-3.273.038-.844.09-1.689.162-2.535a9.383,9.383,0,0,0-.2,1.958C533.84,1352.512,534,1354.849,533.908,1355.615Z" fill="#47aea9"/>
      <path id="Path_17936" data-name="Path 17936" d="M559.63,1295.232c-.169.314.638-.1,1.66-.591A13.2,13.2,0,0,0,559.63,1295.232Z" fill="#47aea9"/>
      <path id="Path_17937" data-name="Path 17937" d="M536.209,1364.932c-.029-.7-.3-1.94-.514-3.17A12.444,12.444,0,0,0,536.209,1364.932Z" fill="#47aea9"/>
      <path id="Path_17938" data-name="Path 17938" d="M536.308,1317.6c.166-.327-.147-.074.525-1.027.059-.1-.074.048-.1.061a5.1,5.1,0,0,0-.79,1.21C535.619,1318.538,536.152,1317.73,536.308,1317.6Z" fill="#47aea9"/>
      <path id="Path_17939" data-name="Path 17939" d="M555.546,1298.423a14.4,14.4,0,0,0-1.951,1.016A14.061,14.061,0,0,0,555.546,1298.423Z" fill="#47aea9"/>
      <path id="Path_17940" data-name="Path 17940" d="M548.391,1385.558a33.838,33.838,0,0,0-2.63-3.3C546.737,1383.583,547.451,1384.461,548.391,1385.558Z" fill="#47aea9"/>
      <path id="Path_17941" data-name="Path 17941" d="M545.087,1304.914c.326-.255.657-.5,1.1-.826C546.336,1303.768,545.9,1304.1,545.087,1304.914Z" fill="#47aea9"/>
      <path id="Path_17942" data-name="Path 17942" d="M540.95,1317.1c.319-.472.086.193.751-.94.074-.124.349-.462.3-.328a4.715,4.715,0,0,1-.4.66,2.192,2.192,0,0,0-.265.358,3.345,3.345,0,0,1-.275.339.079.079,0,0,0-.049.05C540.922,1317.34,540.892,1317.281,540.95,1317.1Z" fill="#47aea9"/>
      <path id="Path_17943" data-name="Path 17943" d="M532.863,1348.038c-.074.45-.139.831-.235,1.471C532.8,1349.861,532.881,1349.98,532.863,1348.038Z" fill="#47aea9"/>
      <path id="Path_17944" data-name="Path 17944" d="M573.031,1291.287a5.844,5.844,0,0,0,2.052-.094C574.164,1291.288,573.815,1291.247,573.031,1291.287Z" fill="#47aea9"/>
      <path id="Path_17945" data-name="Path 17945" d="M530.678,1336.672c.084-.256.177-.6.281-.942-.04-.118-.178.423-.267.677-.1.309-.124.038-.278.752a3.36,3.36,0,0,0-.059.462C530.4,1337.837,530.562,1337.029,530.678,1336.672Z" fill="#47aea9"/>
      <path id="Path_17946" data-name="Path 17946" d="M547.246,1303.887c.512-.36,1.023-.713,1.532-1.047-.071-.123-.728.355-1.411.9a10.532,10.532,0,0,0-1.684,1.367C546.2,1304.677,546.724,1304.276,547.246,1303.887Z" fill="#47aea9"/>
      <path id="Path_17947" data-name="Path 17947" d="M534.448,1364.878c-.2-.927-.372-1.846-.526-2.766,0-.045,0-.1,0-.158-.011-.412-.145-1.213-.3-2.139.039.467.076.941.12,1.409q.246,1.7.606,3.411C534.382,1364.718,534.412,1364.787,534.448,1364.878Z" fill="#47aea9"/>
      <path id="Path_17948" data-name="Path 17948" d="M532.417,1355.017a16.517,16.517,0,0,0,.059-2.319c-.132-.425-.124.237-.116.8-.038.6-.074,1.194-.1,1.832C532.4,1355.767,532.329,1354.8,532.417,1355.017Z" fill="#47aea9"/>
      <path id="Path_17949" data-name="Path 17949" d="M531.487,1334.717c.286-.756.466-1.086.89-2.284A9.69,9.69,0,0,0,531.487,1334.717Z" fill="#47aea9"/>
      <path id="Path_17950" data-name="Path 17950" d="M538.694,1314.359a1.914,1.914,0,0,0-.207.373c.042.053.394-.464.807-.981C539.228,1313.67,539.043,1313.853,538.694,1314.359Z" fill="#47aea9"/>
      <path id="Path_17951" data-name="Path 17951" d="M536.76,1323.478c-.33.565-.648,1.139-.956,1.717A13.205,13.205,0,0,0,536.76,1323.478Z" fill="#47aea9"/>
      <path id="Path_17952" data-name="Path 17952" d="M554.522,1298.07a49.79,49.79,0,0,1,4.946-2.3c.036-.028.093-.061.136-.094a50.886,50.886,0,0,0-4.969,2.3,9.4,9.4,0,0,0-1.754.936C553.313,1298.709,554.161,1298.189,554.522,1298.07Z" fill="#47aea9"/>
      <path id="Path_17953" data-name="Path 17953" d="M588.295,1292.614c.084-.006.179.008.263,0l.044.015.011.069A2.129,2.129,0,0,0,588.295,1292.614Z" fill="#47aea9"/>
      <path id="Path_17954" data-name="Path 17954" d="M542.176,1379.52a12.532,12.532,0,0,0-.976-1.951A6.015,6.015,0,0,0,542.176,1379.52Z" fill="#47aea9"/>
      <path id="Path_17955" data-name="Path 17955" d="M541.2,1377.569c-.005-.008-.013-.024-.017-.032l-.005,0C541.187,1377.545,541.189,1377.559,541.2,1377.569Z" fill="#47aea9"/>
      <path id="Path_17956" data-name="Path 17956" d="M537.819,1370.573c-.138-.143.089.471.31.924.331.662.342.527.376.485C538.239,1371.546,538.068,1370.859,537.819,1370.573Z" fill="#47aea9"/>
      <path id="Path_17957" data-name="Path 17957" d="M534.867,1367.892c-.437-1.565-.791-3.123-1.077-4.69-.021-.2-.054-.42-.061-.6a3.574,3.574,0,0,0-.2-.98c-.12-.382-.121-.2-.1.02a18.329,18.329,0,0,0,.76,4.027,13.277,13.277,0,0,0,.547,1.956,5.093,5.093,0,0,0,.462,1.593C535.344,1369.318,535,1368.41,534.867,1367.892Z" fill="#47aea9"/>
      <path id="Path_17958" data-name="Path 17958" d="M530.94,1341.36c-.078-.085-.2.645-.342,1.35C530.711,1342.727,530.817,1341.958,530.94,1341.36Z" fill="#47aea9"/>
      <path id="Path_17959" data-name="Path 17959" d="M539.521,1371.852c.071-.174-.6-1.274-.842-2.058A7.969,7.969,0,0,0,539.521,1371.852Z" fill="#47aea9"/>
      <path id="Path_17960" data-name="Path 17960" d="M533.7,1337.328c.183-.56.365-1.139.618-2.018a16.19,16.19,0,0,0-.6,1.82c-.235.779-.457,1.562-.664,2.357-.333,1.3-.619,2.623-.871,3.983,0,.067,0,.152,0,.218.244-1.356.535-2.69.863-4C533.244,1338.9,533.468,1338.109,533.7,1337.328Z" fill="#47aea9"/>
      <path id="Path_17961" data-name="Path 17961" d="M533.937,1347.915c-.107-.418-.176.218-.231,1.194C533.793,1348.638,533.859,1348.317,533.937,1347.915Z" fill="#47aea9"/>
      <path id="Path_17962" data-name="Path 17962" d="M540.812,1376.554c-.142-.389-.3-.782-.437-1.164a3.29,3.29,0,0,0-.481-.946c-.3-.468-.509-.739-.31-.279.231.542.54,1.17.829,1.758.245.541.509,1.081.77,1.614C541.33,1377.592,541.114,1377.146,540.812,1376.554Z" fill="#47aea9"/>
      <path id="Path_17963" data-name="Path 17963" d="M538.273,1371.037c-.321-.407.06.481.24.941C538.6,1371.98,538.589,1371.825,538.273,1371.037Z" fill="#47aea9"/>
      <path id="Path_17964" data-name="Path 17964" d="M538.513,1371.978c-.006,0-.006,0-.008,0s.009.01.007.016S538.509,1371.99,538.513,1371.978Z" fill="#47aea9"/>
      <path id="Path_17965" data-name="Path 17965" d="M539.346,1374.509c.269.265-.109-.431-.429-1.168A3.513,3.513,0,0,0,539.346,1374.509Z" fill="#47aea9"/>
      <path id="Path_17966" data-name="Path 17966" d="M531.205,1353.14c-.024.032-.057-.006-.062.132a3.7,3.7,0,0,0,.064.752c.045.185.079.222.064-.053C531.265,1353.765,531.225,1353.423,531.205,1353.14Z" fill="#47aea9"/>
      <path id="Path_17967" data-name="Path 17967" d="M531.474,1345.274c-.072.5-.14,1.014-.208,1.525.006.061.008.115.011.169.063-.519.128-1.019.2-1.534C531.476,1345.386,531.478,1345.321,531.474,1345.274Z" fill="#47aea9"/>
      <path id="Path_17968" data-name="Path 17968" d="M535.02,1369.424c.087-.005-.153-.663-.358-1.243A6.748,6.748,0,0,0,535.02,1369.424Z" fill="#47aea9"/>
      <path id="Path_17969" data-name="Path 17969" d="M537.057,1375.493c.264.581.541,1.164.828,1.739A8.9,8.9,0,0,0,537.057,1375.493Z" fill="#47aea9"/>
      <path id="Path_17970" data-name="Path 17970" d="M537.885,1377.232c0,.008,0,.008,0,.019l.006,0A.048.048,0,0,0,537.885,1377.232Z" fill="#47aea9"/>
      <path id="Path_17971" data-name="Path 17971" d="M561.722,1294.466a2.931,2.931,0,0,0,1.077-.353C562.4,1294.24,562.136,1294.331,561.722,1294.466Z" fill="#47aea9"/>
      <path id="Path_17972" data-name="Path 17972" d="M585.491,1292.27c.041-.006-.017-.031-.1-.053a1.792,1.792,0,0,0-.492-.028c-.035.008.107.035.183.066C585.243,1292.262,585.435,1292.278,585.491,1292.27Z" fill="#47aea9"/>
      <path id="Path_17973" data-name="Path 17973" d="M585.752,1292.073a8.821,8.821,0,0,0,1.25.249A5.927,5.927,0,0,0,585.752,1292.073Z" fill="#47aea9"/>
      <path id="Path_17974" data-name="Path 17974" d="M546.986,1387.581c-.379-.432-.753-.857-1.218-1.431A7.826,7.826,0,0,0,546.986,1387.581Z" fill="#47aea9"/>
      <path id="Path_17975" data-name="Path 17975" d="M548.028,1386.526a16.809,16.809,0,0,0,1.353,1.507c.412.431.806.837,1.456,1.47a12.24,12.24,0,0,0-1.162-1.242C549.2,1387.75,548.822,1387.325,548.028,1386.526Z" fill="#47aea9"/>
      <path id="Path_17976" data-name="Path 17976" d="M564.036,1294.437c-.379.114-.744.3-1.017.373A2.611,2.611,0,0,0,564.036,1294.437Z" fill="#47aea9"/>
      <path id="Path_17977" data-name="Path 17977" d="M530.216,1340.044a2.107,2.107,0,0,0,.083-.618c0-.06-.048.109-.081.25-.027.122-.055.351-.091.622A1.188,1.188,0,0,0,530.216,1340.044Z" fill="#47aea9"/>
      <path id="Path_17978" data-name="Path 17978" d="M576.326,1291.987c.047-.024.013-.042,0-.066-.111.017-.228.032-.623.094.089.009.178.018.315.023A2.835,2.835,0,0,0,576.326,1291.987Z" fill="#47aea9"/>
      <path id="Path_17979" data-name="Path 17979" d="M570.863,1291.555c.312-.089-.044-.028-.16-.013a4.63,4.63,0,0,0-.464.092.857.857,0,0,0,.209,0A3.916,3.916,0,0,0,570.863,1291.555Z" fill="#47aea9"/>
      <path id="Path_17980" data-name="Path 17980" d="M538.4,1313.76a.73.73,0,0,1-.11.1,2.8,2.8,0,0,0-.37.551c-.026.057.043.008.082-.052C538.13,1314.168,538.264,1313.961,538.4,1313.76Z" fill="#47aea9"/>
      <path id="Path_17981" data-name="Path 17981" d="M559.128,1396.948c.094-.127-2.243-1.5-3.266-2.363-.163.158,1.776,1.442,2.7,2.079.425.291.851.581,1.437.963C560.481,1397.784,559.343,1397.137,559.128,1396.948Z" fill="#47aea9"/>
      <path id="Path_17982" data-name="Path 17982" d="M537.173,1368.736a5.684,5.684,0,0,0,.235.551c-.036-.131-.066-.259-.109-.411a1.51,1.51,0,0,0-.188-.456C537.038,1368.323,537.075,1368.474,537.173,1368.736Z" fill="#47aea9"/>
      <path id="Path_17983" data-name="Path 17983" d="M542.2,1379.576l0-.006c-.008-.016-.022-.034-.03-.05l.008.016A.168.168,0,0,0,542.2,1379.576Z" fill="#47aea9"/>
      <path id="Path_17984" data-name="Path 17984" d="M542.966,1380.832c-.1-.245-.464-.777-.762-1.256C542.113,1379.592,542.381,1380.041,542.966,1380.832Z" fill="#47aea9"/>
      <path id="Path_17985" data-name="Path 17985" d="M538.533,1378.536c-.218-.42-.427-.851-.648-1.285C537.664,1377.061,538.192,1377.944,538.533,1378.536Z" fill="#47aea9"/>
      <path id="Path_17986" data-name="Path 17986" d="M543.709,1306.737a4.64,4.64,0,0,0,.775-.663A5.212,5.212,0,0,0,543.709,1306.737Z" fill="#47aea9"/>
      <path id="Path_17987" data-name="Path 17987" d="M533.062,1330.878c-.037.074-.1.3-.152.445a.171.171,0,0,0,.055.031c.061-.2.116-.371.162-.533C533.109,1330.834,533.1,1330.79,533.062,1330.878Z" fill="#47aea9"/>
      <path id="Path_17988" data-name="Path 17988" d="M531.272,1336.405c.043-.256.089-.5.13-.742a1.525,1.525,0,0,1-.082.171,1.5,1.5,0,0,0-.107.611C531.219,1336.467,531.254,1336.419,531.272,1336.405Z" fill="#47aea9"/>
      <path id="Path_17989" data-name="Path 17989" d="M563.76,1294.215a4.084,4.084,0,0,0-.915.282A5.058,5.058,0,0,0,563.76,1294.215Z" fill="#47aea9"/>
      <path id="Path_17990" data-name="Path 17990" d="M578.688,1292.336a3.692,3.692,0,0,0-.888-.026A3.262,3.262,0,0,0,578.688,1292.336Z" fill="#47aea9"/>
      <path id="Path_17991" data-name="Path 17991" d="M537.3,1319.172c.02-.139-.107-.016-.358.475-.433.84-.688,1.159-1.269,2.213.467-.683.706-.974,1.147-1.739A4.591,4.591,0,0,0,537.3,1319.172Z" fill="#47aea9"/>
      <path id="Path_17992" data-name="Path 17992" d="M539.763,1315.339c-.534.669-1.1,1.512-1.48,1.973A7.635,7.635,0,0,0,539.763,1315.339Z" fill="#47aea9"/>
      <path id="Path_17993" data-name="Path 17993" d="M549.382,1304.847a8.032,8.032,0,0,0-1.251.968A14.076,14.076,0,0,0,549.382,1304.847Z" fill="#47aea9"/>
      <path id="Path_17994" data-name="Path 17994" d="M544.184,1308.669a1.615,1.615,0,0,0-.3.39s-.046.1.025.048a1.718,1.718,0,0,0,.326-.394C544.3,1308.6,544.377,1308.482,544.184,1308.669Z" fill="#47aea9"/>
      <path id="Path_17995" data-name="Path 17995" d="M625.85,1367.825c.005-.015.005-.015.025-.025a33.432,33.432,0,0,0,1.68-3.436c-.129-.108-.564.771-1.072,1.774a6.881,6.881,0,0,1-.675,1.262c-.133.055.169-.62.344-1.107.083-.252.362-.754.439-1.042.123-.173.235-.367.373-.536l.039.029a7.054,7.054,0,0,0-.337.68c.025.074.188-.07.583-.978a1.446,1.446,0,0,1,.156-.328c.225-.437.445-.859.65-1.286.039-.069.083-.154.127-.238.015-.045.049-.1.064-.144a2.021,2.021,0,0,0,.077-.288c-.064.144-.137.268-.2.412-.044.085-.093.184-.137.268l-.3.017a3.3,3.3,0,0,0,.111-.392l.015-.044a10.209,10.209,0,0,0,.619-1.4l.078-.238c-.059.08-.113.144-.167.209-.088.119-.176.239-.265.358a5.385,5.385,0,0,0-.592,1.009c-.127.238-.264.506-.4.809-.122.223-.229.452-.356.69a10.964,10.964,0,0,0-.538,1.092.814.814,0,0,1-.177.189c-.059-.019-.226.239-.543.959a4.03,4.03,0,0,1-.313.507c.174-.536-.344.447-.34.234.19-.481.649-1.335.683-1.538.013-.243-.364.408-.638.9-.186.318-.362.606-.553.889l-.03.04a6.435,6.435,0,0,0-.917,1.248l1.667.741C625.292,1368.729,625.581,1368.3,625.85,1367.825Zm.225-6.544c.128-.238.171-.372.038-.268-.374.24-.375.191.04-.727.015-.045.044-.085.059-.129l-.089.119c-.156.229-.308.443-.465.671l-.191.283.486.275C626,1361.42,626.036,1361.35,626.075,1361.281ZM573.634,1292.8a28.381,28.381,0,0,0,3.428-.215c1.5-.02,2.618.1,4.341.164.95.064,1.892.206,2.837.334.615.085,1.209.18,1.794.305.337.077.753.163.991.241.1.034.164.053.184.093-.06-.019-.124-.024-.183-.043-.372-.072-.744-.144-1.11-.231a1.755,1.755,0,0,0-.719-.069c.01-.08-.431-.141-1.089-.191a2.74,2.74,0,0,0,1.1.21,4.214,4.214,0,0,0,1.144.226,2.715,2.715,0,0,0,.51.1c.06.02.11.019.169.038.352.083.7.164,1.041.241.173.024.346.048.505.066l.01-.737c-.52-.12-1.026-.236-1.541-.322a56.411,56.411,0,0,0-6.479-.928,5.475,5.475,0,0,0-1.8-.078c-.51,0-1.014-.017-1.529,0,.3.047,1.173.037,1.411.114.178.009.361,0,.535.026.272.024.935.009.812.084-.351.067.287.078.392.112l-.005.015c-.2,0-.53.008-.53.008a3.444,3.444,0,0,0,.748.079c.317.038.852.064,1,.112-.44-.011-.891-.043-1.322-.085a.244.244,0,0,1-.123.025c.446.047.881.074,1.327.121.4.032.807.1,1.2.145-.005.015-.045.035-.055.065-.7-.065-1.371-.134-2.059-.195a35.506,35.506,0,0,0-4.049-.1,1.378,1.378,0,0,1-.282.007c-.421.027-.846.02-1.267.047-.336.022-.658.049-1,.1a10.9,10.9,0,0,0-1.963.215C572.036,1293.005,572.689,1292.922,573.634,1292.8Zm58.2,72.069c.1-.2.2-.412.3-.625.053-.114.1-.214.151-.313a1.209,1.209,0,0,0,.1-.2c-.054.065-.108.13-.157.18a2.958,2.958,0,0,0-.2.3,1.723,1.723,0,0,1-.122.273,19.508,19.508,0,0,0-.986,2.115A14.866,14.866,0,0,0,631.834,1364.871Zm0,0c.1-.2.2-.412.3-.625.053-.114.1-.214.151-.313l-.059-.019a2.958,2.958,0,0,0-.2.3,1.723,1.723,0,0,1-.122.273,19.508,19.508,0,0,0-.986,2.115A14.866,14.866,0,0,0,631.834,1364.871Zm0,0c.1-.2.2-.412.3-.625.053-.114.1-.214.151-.313l-.059-.019a2.958,2.958,0,0,0-.2.3,1.723,1.723,0,0,1-.122.273,19.508,19.508,0,0,0-.986,2.115A14.866,14.866,0,0,0,631.834,1364.871Zm0,0c.1-.2.2-.412.3-.625.053-.114.1-.214.151-.313l-.059-.019a2.958,2.958,0,0,0-.2.3,1.723,1.723,0,0,1-.122.273,19.508,19.508,0,0,0-.986,2.115A14.866,14.866,0,0,0,631.834,1364.871Zm0,0c.1-.2.2-.412.3-.625.053-.114.1-.214.151-.313l-.059-.019a2.958,2.958,0,0,0-.2.3,1.723,1.723,0,0,1-.122.273,19.508,19.508,0,0,0-.986,2.115A14.866,14.866,0,0,0,631.834,1364.871Zm-90.489-48.019a1.28,1.28,0,0,0-.275.339A3.345,3.345,0,0,0,541.345,1316.852Zm90.489,48.019c.1-.2.2-.412.3-.625.053-.114.1-.214.151-.313l-.059-.019a2.958,2.958,0,0,0-.2.3,1.723,1.723,0,0,1-.122.273,19.508,19.508,0,0,0-.986,2.115A14.866,14.866,0,0,0,631.834,1364.871Zm-94.8-29.443c.219-.62.472-1.295.74-1.964a2.51,2.51,0,0,1,.121-.323c.141-.382.278-.749.438-1.141.049-.1.088-.218.137-.317l-.372-.122c-.049.1-.088.218-.136.318-.059.129-.1.248-.156.377.005.035,0,.1.03.059.049-.1.092-.233.141-.332-.106.377-.228.748-.334,1.076a2.411,2.411,0,0,1-.122.322,2.134,2.134,0,0,1-.254.576,5.963,5.963,0,0,0-.534,1.537,3.223,3.223,0,0,0-.065.7C536.662,1336.608,536.889,1335.81,537.03,1335.428Zm-5.237-1c-.077.336-.159.639-.342,1.4.426-1.408.662-1.677,1.069-2.976.142-.333.283-.665.415-.968.053-.114.087-.218.136-.317.02-.06.049-.1.068-.159.132-.3.284-.615.445-.958a2.616,2.616,0,0,0,.136-.318l-.134-.043c-.054.114-.087.218-.136.317-.161.392-.332.765-.483,1.127-.049.1-.088.218-.137.317l-.219.522a10,10,0,0,0-.687,1.7c.068-.307.135-.614.237-.926a4.681,4.681,0,0,0-.375,1.046C531.675,1334.636,531.827,1334.274,531.793,1334.428Zm.215,7.971c.077-.337.138-.729.215-1.115.411-1.562.837-2.97,1.452-5.107.375-.947.851-2.257,1.387-3.6a2.688,2.688,0,0,1,.136-.317c.132-.352.273-.685.415-1.017a.345.345,0,0,1,.053-.115c.049-.1.088-.218.137-.317l-1.577-.515a2.483,2.483,0,0,0-.122.323c-.146.4-.272.784-.393,1.155l-.107.328a8.048,8.048,0,0,0-.475,2.314,4.138,4.138,0,0,1-.187.877c-.141.432-.147.3-.08-.108.172-.932,0-.659.129-1.456-.363,1.264-.612,2.483-.99,3.743.205-.328.323-.537.426-.7-.149.808-.476,2.265-.22,1.936.284-.368.265-.308.237.835.207-1.035.453-1.992.653-3.211l.1-.3c0,.148.093-.085.042.375-.071.471.045.015.141-.431l.092-.283c0,.2.045.163.205-.377.16-.59.229-.65.192-.234-.047.4.2-.526.2-.3-.112.342-.228.7-.355,1.037-.264.556-.592,1.815-.863,2.7a7.162,7.162,0,0,0-.387,1.388c-.082.3-.15.61-.212.9-.068.209-.129.749-.184.615a1.638,1.638,0,0,0-.106.526,6.448,6.448,0,0,1-.068.916C531.889,1343.117,531.955,1342.612,532.008,1342.4Zm1.051,1.923a5.786,5.786,0,0,0-.016,1.262,10.345,10.345,0,0,0-.157,1.792l.228-.7a18.248,18.248,0,0,0,.5-2.8c.057-.327.124-.635.18-1.209.034-.054.063-.144.107-.228.079.009.142-.283.231-1.061.048-.2.077-.386.125-.584.023.534.214-.507.255-.329a15.808,15.808,0,0,0-.148,1.664c.051.247.19-.481.325-1.046l.246-1.056a11.3,11.3,0,0,0,.879-3.252,20.63,20.63,0,0,0,.954-2.619c.121-.322.253-.625.375-.9.039-.119.088-.218.122-.323.16-.392.311-.754.482-1.126a2.4,2.4,0,0,0,.137-.318l-1.622-.529c-.034.1-.087.219-.121.323-.161.392-.3.759-.424,1.146a2.5,2.5,0,0,0-.121.322c-.219.62-.443,1.206-.652,1.746a37.589,37.589,0,0,0-1.713,5.351c-.211.952-.409,2.467-.549,3.8.159.068.306-.888.477-2.017a5.944,5.944,0,0,1,.263-1.412c.108-.08.029.668,0,1.153-.013.292-.088.827-.091,1.139-.058.228-.111.441-.184.664-.03-.01-.04-.029-.055-.034a6.349,6.349,0,0,0,.114-.753c-.06-.069-.158.129-.24,1.09a3.781,3.781,0,0,0-.057.376q-.173.907-.3,1.828a2.875,2.875,0,0,0,.016.3c.086-.614.19-1.238.295-1.863C533,1343.892,533.037,1343.985,533.059,1344.322Zm30.478,53.66c.114.054.248.1.377.156.2.1.368.186.492.26a17.563,17.563,0,0,0,2,1.1c.312,0-.616-.431-1.624-.974-.507-.264-.993-.538-1.47-.842.019-.06-.82-.514-1.262-.823.138.028-.051-.1-.468-.334-.745-.49-1.173-.843-2.247-1.539.159-.031-.84-.653-1.526-1.173-.518-.383-1.129-.878-1.036-.914a2.988,2.988,0,0,0,.512.249.137.137,0,0,0-.08-.059,16.27,16.27,0,0,0-1.377-.926,33.186,33.186,0,0,1-2.713-2.531c-.165-.252-1.25-1.165-1.236-1.309,2.36,2.2,4.9,4.165,6.667,5.55-.069.01-.063.094.742.6.626.4,1.257.839,2.191,1.407-.061-.168-.5-.477-1.362-1.021-.269-.186-.527-.353-.791-.554-.105-.133-1.168-.858-.876-.8a6.584,6.584,0,0,0,1.247.818.864.864,0,0,0,.328.156c-.109-.068-.323-.22-.467-.333-.756-.559-1.894-1.309-2.988-2.094-.747-.688-1.9-1.64-3.255-2.839-.926-.944.983.419,1.071.3a7.119,7.119,0,0,1,1.342.931c1.244,1.031,2.5,1.983,2.871,2.4a13.439,13.439,0,0,1-2.017-1.234,16.592,16.592,0,0,0,2.3,1.623c1.1.656.128-.04.48.091,1.684.994,1.888,1.027,1.1.458-1.208-.838-2.525-1.8-3.625-2.714-.527-.4-1.517-1.152-1.359-1.183,1.427.975.233-.007.65.228a18.51,18.51,0,0,0,1.73,1.207,50.861,50.861,0,0,0,4.413,2.92c-.13-.207-1.764-1.1-1.725-1.221-.205-.281-3.246-2.26-2.02-1.778.263.2.5.377.76.544-.078.238,2.6,1.819,3.48,2.4a11.427,11.427,0,0,0-2.068-1.482,51.416,51.416,0,0,1-4.109-3.2c1.532,1.158,2.944,2.129,4.429,3.075-.054.065.185.29.792.752.764.282.927.286.157-.229a1.127,1.127,0,0,0-.061-.168c-1.88-1.551-4.045-3.393-6.271-5.6.209.167.423.319.632.486a56.912,56.912,0,0,0,7.346,5.688,54.3,54.3,0,0,0,6.292,3.518l.126-.387.179.058a67.9,67.9,0,0,0,6.872,2.8,49.421,49.421,0,0,0,7.381,1.9c.53.09,1.045.176,1.565.247,1.392.224,2.769.393,4.086.494a.116.116,0,0,0-.069.01,5.864,5.864,0,0,0,1.8.043c.525.006,1.01.033,1.535.039-.293-.062-1.169-.052-1.406-.129-.2,0-.362,0-.54-.012-.287-.027-.95-.013-.817-.118.41-.047-.51-.051-.382-.091.153-.016.44-.038.524-.044a6.328,6.328,0,0,0-.737-.059,6.322,6.322,0,0,1-1.031-.122c.456.017.906.048,1.357.08.03.01.069-.01.1-.015-.436-.027-.877-.089-1.308-.131-.406-.017-.817-.068-1.213-.115a.222.222,0,0,1,.059-.08c.7.065,1.372.135,2.06.2a37.5,37.5,0,0,0,4.049.1c.089-.02.183-.006.272-.026.43-.008.841-.006,1.276-.028.322-.027.663-.064,1-.1a11,11,0,0,0,1.964-.215c-.046-.114-.684-.026-1.633.109a22.433,22.433,0,0,0-3.443.21c-1.484.01-2.618-.1-4.326-.16-.941-.093-1.892-.2-2.843-.368-.109-.019-.223-.023-.332-.042-.49-.061-.971-.152-1.451-.243-.03-.01-.079-.01-.109-.019a3.184,3.184,0,0,1-1.086-.305c.372.072.728.139,1.085.206.079.009.154.034.233.043a1.816,1.816,0,0,0,.693.094.13.13,0,0,0,.08.059,5.029,5.029,0,0,0,.565.086c.128.009.287.028.46.051-.045-.064-.193-.113-.466-.136a4.422,4.422,0,0,0-.634-.074,2.839,2.839,0,0,0-.917-.217,1.12,1.12,0,0,0-.218-.038c-.173-.024-.361-.052-.53-.091-.4-.1-.793-.193-1.214-.264-.411-.052-.832-.124-1.238-.19a1.091,1.091,0,0,0-.269-.187,4.97,4.97,0,0,0-1.729-.4c-.714-.233-1.027-.434-2.039-.715a3.017,3.017,0,0,1,1.08.122c-.566-.184-.982-.32-1.419-.495a.219.219,0,0,0,.129.009,55.168,55.168,0,0,0,7.455,1.872c.525.1,1.04.191,1.555.277.2.033.491.061.729.089.95.113,1.882.235,2.852.288.233.044.535.076.609,0,.232-.007.484-.024.712-.015a45.142,45.142,0,0,0,10.987-.63,7.188,7.188,0,0,0,1.33-.241,2.615,2.615,0,0,0,1.289-.32,12.121,12.121,0,0,1,1.255-.414,32.149,32.149,0,0,0,3.891-1.331c-.578.157-1.62.574-1.68.456a54.088,54.088,0,0,0,7.225-3.174,8.778,8.778,0,0,0,1.868-1.037,3.47,3.47,0,0,0,.424-.24,21.6,21.6,0,0,0,2.337-1.411,25.977,25.977,0,0,0,2.907-2.047c1.236-.914,2.3-1.752,3.083-2.287.142-.134.28-.254.418-.374.832-.634,2.243-2.182,3.04-2.909a9.6,9.6,0,0,0,1.227-1.542c.26-.294.5-.563.752-.841.083-.154.156-.278.239-.433l.015-.044c-.723.752-1.759,1.911-2.8,3.022-.471.488-1.11,1.234-1.229,1.195-1.37,1.628-.5.231-1.525,1.347-.049.049-.114.094-.163.144-.138.021-.252.066-.823.555a25.8,25.8,0,0,1-2.215,1.8,4.712,4.712,0,0,0-1.038.962c-.055-.034.215-.357-.4.131-.173.026-.911.625-1.016.591.05-.05.084-.1.138-.169.482-.419.211-.244.221-.323a8.775,8.775,0,0,1,1.585-1.228c.164.054.562-.261,1.448-1.108a13.32,13.32,0,0,1,1.151-1.007,6.8,6.8,0,0,0,1.151-1.155c.03.009.02.039.109-.031.792-.762,1.578-1.559,2.35-2.41.545-.563,1.071-1.165,1.6-1.767.672-.8,1.33-1.607,2.1-2.656-.316.16-2.145,2.79-2.025,2.22.284-.467.234-.516.1-.4.029-.089,0-.049-.108.08-.441.6-.9,1.154-1.34,1.687a6.711,6.711,0,0,0-.472.537c-.172.174-.369.374-.545.563a33.577,33.577,0,0,1-3.111,2.672c.418-.473.787-.747,1.209-1.284-.1-.034-.88.931-1.126,1.081l.073-.224c.063-.094-.006-.083.324-.387a4.155,4.155,0,0,0,.835-.995c.206-.279-.178.09-.424.339a13.845,13.845,0,0,1-1.638,1.44,6.591,6.591,0,0,0-1.117,1.1c-.551.43-1.083.848-1.925,1.463a6.514,6.514,0,0,0,1.8-1.324c.5-.379.994-.778,1.472-1.182.359-.294.443-.3.1.133-.516.474-1.107.923-1.189,1.225-.143.135-.271.225-.409.344a5.48,5.48,0,0,0-1.019.754c-1.36.989-2.784,1.923-4.214,2.774-.793.465-1.45.761-2.569,1.417a23.206,23.206,0,0,1-2.566,1.1c-.444.2-.859.362-1.293.533-.183.056-.371.126-.548.167a3.594,3.594,0,0,1-.376.042c.489-.186.952-.4,1.426-.588.488-.285.592-.251,1.1-.547l1.085-.551c-.217.061-.291.036.043-.233a12.422,12.422,0,0,0,2.323-1.267c.444-.25.873-.506,1.3-.761a1.322,1.322,0,0,0-.143.185.217.217,0,0,0,.134-.056,1.893,1.893,0,0,0,.487-.434,8.562,8.562,0,0,0,1.069-.754.014.014,0,0,0,.019-.01,38.7,38.7,0,0,0,5.571-4.158c.92-.753,1.924-1.71,2.848-2.626a14.614,14.614,0,0,0,1.623-1.644c.2-.149.345-.2.874-1.064.7-1.024.224-.487.13-.452a8.31,8.31,0,0,0,.673-.9c-.369.323-.988,1.06-1.617,1.727.195-.348.332-.616-.08-.108-.663.82-1.106,1.219-1.75,1.931-.084.005.259-.541-.59.5-.162.194-.585.583-.36.2a.016.016,0,0,0-.01-.02.484.484,0,0,0,.1-.1l-.088.119a36.909,36.909,0,0,0,3.277-3.639c.216-.209.423-.438.649-.677.494-.859-.256.18-.281.106.122-.223.224-.437.342-.646.73-1.078,1.124-1.477,1.7-2.277a9.313,9.313,0,0,0,1.1-1.566c.366-.819-.608.855-.761.921-.025.024-.079.089-.133.154a.4.4,0,0,0,.054-.114c.088-.169.175-.387.248-.561a25.653,25.653,0,0,1-1.809,2.521c-.138.169-.285.318-.438.482.069-.159.147-.3.235-.467.019-.108,0-.148-.2.116-1.144,1.388-1.159,1.383-.416-.087a9.572,9.572,0,0,0,.892-1.322c.3-.625-.173.075-.384.32-.182.2-.354.328.072-.323.926-1.376,1.836-3.006,2.586-4.193.1-.164.215-.308.157-.13-.087.219-.362.606-.44.844.928-1.228,2.216-4.067,2.931-5.249.392-.646.831-1.54,1.261-2.453.019-.06.053-.114.068-.159a2.7,2.7,0,0,0,.137-.318,4.994,4.994,0,0,0,.242-.793c.174-.684.008-.277-.177.189-.438,1.092-.167.11-.2-.033.078-.189.141-.431.2-.625-.176.387-.313.606-.513,1.117a2.316,2.316,0,0,0-.121.322l-.2.625c-.057.327.162-.144.241-.185-.3.774-.411.755-.713,1.529-.58,1.226-.74,1.109-1.477,2.662-.279.5-.567.984-.881,1.491-.079-.01-.012-.317-.277.041-.3.512-.6.988-.9,1.451-.034.1-.083.2-.107.278q.456-.715.911-1.431a12.209,12.209,0,0,1-1.283,2.166c-.359.343-1.206,1.729-1.775,2.416a2.867,2.867,0,0,0-.226.288l-.005.015a.552.552,0,0,0-.1.115l-.005.015a1.054,1.054,0,0,1-.084.1.467.467,0,0,0-.073.124.049.049,0,0,0-.025.025,2.522,2.522,0,0,1-.265.358.893.893,0,0,1-.127.189c-.127.189-.26.343-.378.5-.324.389-.619.736-1,1.254l-.015-.005c-.339.383-.659.707-1.12,1.264a17.856,17.856,0,0,0-1.323,1.33c-.369.373-.728.718-1.106,1.071a.21.21,0,0,1-.09.02c-.393.349-.944.877-.832.585a45.386,45.386,0,0,0,3.318-3.411,55.881,55.881,0,0,0,5.82-7.649,11.027,11.027,0,0,0,.6-1.023c.1-.149.186-.318.294-.5.867-1.446,1.678-2.975,2.431-4.524.2-.412.4-.839.6-1.251a2.759,2.759,0,0,0,.137-.317c.175-.388.341-.745.5-1.122l-.149-.049c-.17.373-.346.76-.527,1.112-.054.115-.1.214-.151.313-.22.422-.426.8-.6,1.088.072-.273-.059.03-.113.094-.113.145-.29.334-.14-.177a6.635,6.635,0,0,1,.468-1.131c.039-.07.063-.144.093-.184.014-.044.044-.084.058-.129.142-.332.287-.729.438-1.141l-.824,1.015-.806,1.005c-.16.441,0-2.009-.6-1.1-.044.084-.073.173-.112.243-.265.358-.733,1.44-1.115,2.106.341-.844.535-1.587.841-2.475a2.86,2.86,0,0,1,.121-.323c.073-.223.161-.441.258-.689.068-.159-.838.5-.775.356l.141-1.288c.181-.352-.582.321-1.093.878l-.078.239a2.6,2.6,0,0,0-.122.322c-.433,1.077-.7,1.336-1.128,2.249-.2.412-.4.824-.6,1.221l-.015-.005c-.011-.118-.07-.137-.31.344-.283.616-.155.526-.2.709-.387.631-.783,1.292-1.185,1.918.087-.219.19-.432.282-.665a2.544,2.544,0,0,0,.406-.79,9.178,9.178,0,0,1,1.076-1.986c.078-.189.22-.472.249-.561.112-.342-.035-.094-.128.09.043-.183.092-.332.125-.486.137-.268.279-.551.4-.824.225-.437.434-.879.634-1.34l.152-.313c.186-.367.352-.725.512-1.117l-.476.5a1.562,1.562,0,0,1-.334.516,1.274,1.274,0,0,0-.181.3c-.166.357-.327.7-.478,1.013-.2.362-.484.978-.762,1.529a3.62,3.62,0,0,1-.652,1.038c.636-1.192,1.222-2.383,1.788-3.614.024-.074.073-.173.137-.317a6.566,6.566,0,0,0,.47-1.493c.032-.352-.107-.529-.595-.194a4.571,4.571,0,0,0-.591.5l-.326.849-.078.188-.13-.256-.767-1.534-.246,1.006-.5.033-.708.049c.039-.069.083-.154.127-.238l-.059-.02c-.044.085-.093.184-.137.268l-.3.017a3.3,3.3,0,0,0,.111-.392l-.312-.1c-.127.238-.264.506-.4.809.029-.189.136-.516.232-.863.228-.749.362-1.511-.7-.723l-.542-.308-.4-.23-.015-.1-.085-.85-.016-.154-1.091-.388-.053.163c-.117.357-.345,1.007-.515,1.478-.039.119-.093.233-.122.322a41.126,41.126,0,0,1-37.429,26.687c-.529.009-1.039.007-1.563,0a41.1,41.1,0,0,1-39.055-52.145c.034-.1.058-.228.092-.332.111-.392.218-.769.349-1.17l.107-.328-7.692-2.509a2.617,2.617,0,0,0-.137.318c-.156.377-.311.754-.452,1.136a2.518,2.518,0,0,0-.122.323,1.653,1.653,0,0,0-.1.248,40.219,40.219,0,0,0-2.5,8.582c-.1.525-.225,1.095-.321,1.64a44.117,44.117,0,0,0-.789,4.994c.1.132.117-.966.227-.9-.075,1.49-.148,2.471-.221,3.4a10.541,10.541,0,0,0,.055,3.161c.152,1.3.1,1.776.206,2.75.093,1.381.24,2.746.437,4.11a16.832,16.832,0,0,1-.309-1.928c-.058-.48-.075-.831-.235-1.8a3.454,3.454,0,0,0,.134,1.558c.08.816.164,1.618.293,2.433.073.534.17,1.043.272,1.587a.506.506,0,0,1,.046.163c-.057-.43-.1-.855-.142-1.281.031.109.076.223.121.336.144,1.528.893,4.176,1.013,5.17.228.765.495,1.511.757,2.271-.008.228.013.515.556,1.729a20.849,20.849,0,0,0,2.271,4.642c.035.094.061.168.081.207.27.533.541,1.066.832,1.588.46.809-.044.134-.484-.486a5.786,5.786,0,0,0-.686-1.278,4.886,4.886,0,0,0,.457.972c.205.331.405.676.61,1.006a31.547,31.547,0,0,0,3.235,5.17,12.529,12.529,0,0,0,1.762,2.27c-.325-.517-.984-1.325-1.513-2.024-.829-1.143-1.6-2.3-2.309-3.469.6.526-.312-.909-.6-1.595a18.79,18.79,0,0,0-.9-1.825,11.893,11.893,0,0,0-.722-1.421c-.746-1.4-1.574-3.146-.846-2.251.3.345-.087-.539-.509-1.466-.361-.76-.538-1.278-.839-2.018-.1-.361-.2-.707-.284-1.048a2.977,2.977,0,0,0-.265-1.107c-.139-.127-.078.139,0,.445.072.386.153.792.23,1.162.187.588.133.652-.173.075a5.46,5.46,0,0,1-.247-.706,50.174,50.174,0,0,1-1.57-7.952c.118.6.316,1.453.368,1.8a15.244,15.244,0,0,0,1.56,4.8c-.065-.054-.19-.276-.119.011a1.822,1.822,0,0,0,.2.508c.14.227.249.345.1-.114-.077-.371.748,1.692.324.418a12.157,12.157,0,0,0-.715-1.9,8.342,8.342,0,0,1-1.014-3.1c-.073-.435-.169-.845-.217-1.305a15.46,15.46,0,0,0-.691-2.826.539.539,0,0,1-.031-.208c-.01-.02,0-.049,0-.113-.065-.862.289.275.3-.33.018-1.014-.21-3.343-.118-4.482,0-.445-.006-.891,0-1.3a20.515,20.515,0,0,1,.221-3.253c.109-1.545.332-2.229.524-3.878.139-.778.268-1.526.436-2.294.357-1.5.809-3.44,1.357-5.171.107-.377.228-.749.345-1.106a3.612,3.612,0,0,1-.139.828c-.416,1.428-.783,2.855-1.09,4.3a.559.559,0,0,0,.044-.084c-.01.079-.039.119-.044.084a57.422,57.422,0,0,0-.963,5.727,46.791,46.791,0,0,0-.271,5.624,61.33,61.33,0,0,0,.7,8.542,22.18,22.18,0,0,0,.525,2.475,37.377,37.377,0,0,0,1.708,6.171,12.78,12.78,0,0,0,.917,2.537c.167-.06-.454-1.333-.636-1.936.01.02.035.045.045.064a7.932,7.932,0,0,1,1.432,2.574,5.483,5.483,0,0,0-.527-1.867.489.489,0,0,1-.065-.1c-.14-.128-.008.376-.54-.868a8.849,8.849,0,0,1-.656-1.876c.054-.164.741,1.262.816,1.385.3.607.456.873.531,1-.041-.178-.422-1.027-.323-.929-.07-.187.075.025.225.271.1.182.22.335.335.537.191.474.387.933.593,1.412.286.636.577,1.258.873,1.914a30.67,30.67,0,0,0,3.139,5.617,58.576,58.576,0,0,1-3.085-5.632,15.764,15.764,0,0,1-.783-1.737c-.206-.528-.383-1.047-.574-1.57.31.513.119-.011.348.295a11.848,11.848,0,0,1,1.153,2.219,47.993,47.993,0,0,0,5.4,9.383,5.808,5.808,0,0,0,.808,1,17.858,17.858,0,0,0,1.576,1.93l.03.01a1.346,1.346,0,0,0,.354.428c.494.606,1,1.181,1.54,1.737.375.517.3.656,2.341,2.36,2,1.556,3.011,2.529,2.372,2.42-.159-.019-.745-.342-.441-.062,1.029.682,2.1,1.328,3.249,1.949.348.3.711.545,1.084.814a2.8,2.8,0,0,0,.417.285c.93.632,1.869,1.235,2.848,1.818a16.571,16.571,0,0,0,2.041,1.109,13.594,13.594,0,0,0-1.624-.924C563.463,1398.007,563.5,1397.988,563.537,1397.982Zm6.23-7.8c.164.054.357.117.546.195l-.01.03-.019.059C570.115,1390.384,569.946,1390.3,569.767,1390.187Zm62.144-25.7a19.508,19.508,0,0,0-.986,2.115,14.866,14.866,0,0,0,.909-1.729c.1-.2.2-.412.3-.625.053-.114.1-.214.151-.313l-.059-.019a2.958,2.958,0,0,0-.2.3A1.723,1.723,0,0,1,631.911,1364.485Zm-.077.386c.1-.2.2-.412.3-.625.053-.114.1-.214.151-.313l-.059-.019a2.958,2.958,0,0,0-.2.3,1.723,1.723,0,0,1-.122.273,19.508,19.508,0,0,0-.986,2.115A14.866,14.866,0,0,0,631.834,1364.871Zm0,0c.1-.2.2-.412.3-.625.053-.114.1-.214.151-.313l-.059-.019a2.958,2.958,0,0,0-.2.3,1.723,1.723,0,0,1-.122.273,19.508,19.508,0,0,0-.986,2.115A14.866,14.866,0,0,0,631.834,1364.871Zm0,0c.1-.2.2-.412.3-.625.053-.114.1-.214.151-.313l-.059-.019a2.958,2.958,0,0,0-.2.3,1.723,1.723,0,0,1-.122.273,19.508,19.508,0,0,0-.986,2.115A14.866,14.866,0,0,0,631.834,1364.871Zm0,0c.1-.2.2-.412.3-.625.053-.114.1-.214.151-.313l-.059-.019a2.958,2.958,0,0,0-.2.3,1.723,1.723,0,0,1-.122.273,19.508,19.508,0,0,0-.986,2.115A14.866,14.866,0,0,0,631.834,1364.871Zm0,0c.1-.2.2-.412.3-.625.053-.114.1-.214.151-.313l-.059-.019a2.958,2.958,0,0,0-.2.3,1.723,1.723,0,0,1-.122.273,19.508,19.508,0,0,0-.986,2.115A14.866,14.866,0,0,0,631.834,1364.871Z" fill="#47aea9"/>
      <path id="Path_17996" data-name="Path 17996" d="M538.585,1331.721a47.521,47.521,0,0,1,2.427-5.118,3.266,3.266,0,0,0-.667,1.034c-.278.551-.561,1.167-.762,1.529-.386.78-.766,1.643-1.117,2.517l-.372-.122c.429-.962.854-1.911,1.318-2.829.137-.268.274-.536.406-.79.043-.183.077-.336.135-.515-.108.179-.24.432-.133.1a3.432,3.432,0,0,1,.253-.576,11.336,11.336,0,0,0,1.076-1.986,2.911,2.911,0,0,1,.386-.78c.113-.243.2-.446.3-.675-.407.641-.813,1.282-1.185,1.918-.044.184.084.094-.214.7-.229.5-.3.477-.309.344-.2.412-.416.819-.6,1.221a18.517,18.517,0,0,0-1.343,2.854c.186-.417.376-.8.592-1.206a11.981,11.981,0,0,1,.9-1.713c-.483,1.126-.732,1.637-.981,2.1-.288.581-.547,1.171-.82,1.757l-1.622-.529c.068-.158.122-.322.2-.5.575-1.409.767-2.35,1.234-3.482-.376.651-.86,1.728-1.12,2.071-.268.571-.526,1.161-.77,1.757l-1.577-.515a12.19,12.19,0,0,1,.511-1.314,7.693,7.693,0,0,0,.551-1.335c.145-.5-.012-.317-.14-.177-.059.079-.176.387-.113.094a24.288,24.288,0,0,0-1.315,2.567l-.134-.043c.39-.894.815-1.841,1.259-2.75.757-1.564,1.574-3.059,2.431-4.524.1-.164.21-.342.293-.5.211-.342.431-.765.6-1.023q1.359-2.124,2.854-4.056a.079.079,0,0,1,.049-.05,3.345,3.345,0,0,0,.275-.339,2.192,2.192,0,0,1,.265-.358c.76-.97,1.561-1.91,2.386-2.826a39,39,0,0,1,3.319-3.411c.112-.293-.454.231-.823.555a.336.336,0,0,0-.089.02c-.379.354-.748.727-1.126,1.081a12.708,12.708,0,0,1-1.328,1.345,15.277,15.277,0,0,1-1.11,1.234l-.01.03c-.755,1.005-1.218,1.413-1.963,2.537-.108.178-.206.278-.329.452-.564.672-1.412,2.058-1.766,2.387a12.871,12.871,0,0,0-1.292,2.2c.294-.5.6-.975.916-1.446a1.675,1.675,0,0,0-.1.262c-.324.488-.608.954-.921,1.461-.255.378-.2.066-.277.042-.294.5-.593,1.008-.876,1.524-.728,1.524-.907,1.417-1.488,2.643-.3.759-.406.74-.712,1.528.084-.055.323-.536.241-.184a11.355,11.355,0,0,1-.847,2.094l.218-.67c-.026-.123.25-1.12-.183-.043-.21.491-.356.888-.2.214a7.8,7.8,0,0,1,.452-1.285c.425-.9.884-1.8,1.256-2.437.725-1.213,2.018-4.017,2.93-5.25-.057.228-.347.611-.42.834-.078.189.035.044.138-.12.76-1.168,1.679-2.826,2.606-4.2.421-.636.259-.541.067-.307-.221.224-.7.939-.389.284a12.775,12.775,0,0,1,.887-1.307c.743-1.47.728-1.474-.406-.067-.216.259-.212.195-.2.1.088-.168.151-.312.234-.466-.152.164-.3.313-.437.483a30.2,30.2,0,0,0-1.825,2.515c.073-.173.176-.387.249-.56.01-.03.039-.07.049-.1-.049.05-.108.13-.133.154-.138.071-1.117,1.71-.746.926a7.539,7.539,0,0,1,1.108-1.581c.564-.82.948-1.189,1.693-2.263.107-.228.225-.436.332-.665-.015-.054-.761.97-.266.111.226-.239.432-.468.634-.682a40.826,40.826,0,0,1,3.277-3.639c-.02.01-.029.04-.034.055a.117.117,0,0,1,.049-.05l-.015-.005c.235-.367-.188.021-.345.2-.869,1.05-.507.493-.591.5-.639.7-1.086,1.11-1.749,1.931-.427.5-.29.235-.095-.113-.619.687-1.233,1.408-1.607,1.748a6.681,6.681,0,0,1,.677-.916c-.094.036-.58.569.111-.44.534-.88.7-.941.874-1.065a18.351,18.351,0,0,1,1.628-1.659c.924-.916,1.923-1.858,2.848-2.626a39.379,39.379,0,0,1,5.58-4.138l.015-.045a11.728,11.728,0,0,1,1.059-.724,2.106,2.106,0,0,1,.492-.449c.271-.175.1,0,.006.134.414-.26.858-.511,1.282-.751a10.614,10.614,0,0,1,2.322-1.267c.35-.264.276-.289.063-.243.439-.235.75-.381,1.066-.541.517-.325.631-.271,1.1-.547.478-.205.962-.426,1.436-.617-.119.01-.243.036-.361.046-.188.071-.386.122-.573.192-.425.142-.849.332-1.269.508a23.4,23.4,0,0,0-2.585,1.115c-1.11.676-1.766.972-2.575,1.432-1.424.836-2.834,1.775-4.213,2.774a12.287,12.287,0,0,1-1,.759,4.262,4.262,0,0,0-.419.324c-.067.307-.663.771-1.18,1.245-.348.413-.264.407.1.113.492-.4.989-.813,1.467-1.167a6.14,6.14,0,0,1,1.818-1.334c-.862.625-1.394,1.044-1.921,1.448a6.513,6.513,0,0,1-1.141,1.126,15.192,15.192,0,0,0-1.639,1.44c-.221.225-.614.623-.4.315a3.718,3.718,0,0,1,.81-.97c.349-.314.265-.309.334-.418a1.068,1.068,0,0,0,.087-.219c-.251.165-1.022,1.115-1.141,1.077.413-.508.8-.793,1.219-1.265a31.35,31.35,0,0,0-3.11,2.672c-.187.17-.374.389-.56.558-.167.209-.31.393-.457.543q-.678.791-1.34,1.686c-.054.064-.084.1-.118.109l.009-.029c-.147.1-.187.07.1-.4.12-.57-1.714,2.075-2.04,2.215.776-1.014,1.439-1.835,2.1-2.641.53-.617,1.066-1.2,1.6-1.782.767-.836,1.578-1.658,2.365-2.4.069-.06.074-.025.089-.02a6.374,6.374,0,0,1,1.15-1.156c.36-.294.759-.609,1.167-1,.871-.852,1.284-1.161,1.438-1.128a6.9,6.9,0,0,0,1.585-1.227c.02-.06-.266.11.236-.319.054-.064.088-.119.142-.184-.1-.034-.862.575-1.02.6-.626.505-.346.151-.42.127a4.859,4.859,0,0,1-1.023.967,20.8,20.8,0,0,0-2.216,1.795c-.575.5-.7.545-.837.55a.9.9,0,0,1-.168.16c-1.012,1.085-.14-.277-1.52,1.331-.119-.039-.738.7-1.22,1.215-1.027,1.081-2.054,2.211-2.777,2.962.079-.138.157-.278.24-.432l.732-.831a8.644,8.644,0,0,1,1.242-1.537c.8-.743,2.207-2.276,3.04-2.91.142-.134.28-.254.423-.388.783-.535,1.842-1.358,3.068-2.292a30.2,30.2,0,0,1,2.9-2.032,22.2,22.2,0,0,1,2.336-1.411,3.894,3.894,0,0,1,.444-.25,8.249,8.249,0,0,1,1.854-1.041,55.609,55.609,0,0,1,7.24-3.17c-.075-.123-1.1.3-1.68.457a29.407,29.407,0,0,1,3.886-1.317c.425-.141,1.028-.323,1.254-.414a2.839,2.839,0,0,1,1.28-.34,7.9,7.9,0,0,1,1.329-.241,44.014,44.014,0,0,1,11-.61c.237-.021.47-.028.717-.029a1.448,1.448,0,0,1,.614-.014c.945.078,1.9.175,2.827.313.258.018.545.046.748.079.8.114,1.625.267,2.447.42.511.1,1.031.221,1.552.341l-.282,11.662c-.51-.052-1.044-.078-1.554-.08a41.085,41.085,0,0,0-40.452,28.186Z" fill="#47aea9"/>
      <path id="Path_17997" data-name="Path 17997" d="M629.813,1377.18l0-.005h0Z" fill="#47aea9"/>
      <path id="Path_17998" data-name="Path 17998" d="M562.357,1323.243a.99.99,0,0,1,.149-.071C562.5,1323.136,562.434,1323.189,562.357,1323.243Z" fill="#47aea9"/>
      <path id="Path_17999" data-name="Path 17999" d="M559.243,1341.367c0-.031.008-.063.011-.094,0,.031-.011.075-.017.113Z" fill="#47aea9"/>
      <path id="Path_18000" data-name="Path 18000" d="M608.417,1371.025a1.23,1.23,0,0,1-.159.072C608.271,1371.128,608.337,1371.077,608.417,1371.025Z" fill="#47aea9"/>
      <path id="Path_18001" data-name="Path 18001" d="M558.839,1341.841l.018.006c0-.026.009-.049.011-.075C558.86,1341.8,558.846,1341.818,558.839,1341.841Z" fill="#47aea9"/>
      <path id="Path_18002" data-name="Path 18002" d="M576.632,1376.61l.013,0a.33.33,0,0,0-.078-.045Z" fill="#47aea9"/>
      <path id="Path_18003" data-name="Path 18003" d="M559.61,1347.348a.107.107,0,0,1,.012.043c0-.027.006-.057,0-.091Z" fill="#47aea9"/>
      <path id="Path_18004" data-name="Path 18004" d="M611.157,1346.911a.14.14,0,0,1-.008-.036.453.453,0,0,1,0,.091A.337.337,0,0,0,611.157,1346.911Z" fill="#47aea9"/>
      <path id="Path_18005" data-name="Path 18005" d="M610.02,1353.072a.186.186,0,0,1,0-.086c0,.039,0,.065,0,.091Z" fill="#47aea9"/>
      <path id="Path_18006" data-name="Path 18006" d="M560.749,1341.193a.166.166,0,0,1,0,.086.322.322,0,0,0,0-.091Z" fill="#47aea9"/>
      <path id="Path_18007" data-name="Path 18007" d="M611.531,1352.9l-.02.092c.006-.03.017-.073.026-.109Z" fill="#47aea9"/>
      <path id="Path_18008" data-name="Path 18008" d="M611.912,1352.488a.14.14,0,0,1,.009-.079l.015,0Z" fill="#47aea9"/>
    </g>
    <path id="Path_18009" data-name="Path 18009" d="M615.931,1339.765a16.1,16.1,0,0,1-.953,4.21.642.642,0,0,0-.109.078c-.11.423-.172.376-.266.031.093-.359.156-.5.265-.516.063-.8.094-1.612.093-2.519-.093.892-.234,1.674-.359,2.472-.078.626-.187,1.08-.312,1.143.156-.47.155-1.878.359-1.91.016-.156.031-.3.047-.438-.251-.547-.266,1.1-.422,1.252-.094,0-.125.845-.235.955.047-1.127.235-1.408.234-2.363-.063-.391.015-.6-.031-.955-.063-.187-.094.517-.2-.25-.094,0-.094.548-.125.845a17.578,17.578,0,0,1-.328,2.019c-.078.407-.14.344-.125-.485-.063-.141-.157.375-.2-.141a6.151,6.151,0,0,1,.125-1.221c.047.36-.047.8.079.986a5.173,5.173,0,0,0,.312-1.69,1.066,1.066,0,0,0-.11-.7c-.109.047-.329-.939-.423-.329a8.127,8.127,0,0,1-.2,1.91,8.4,8.4,0,0,1-.156,1.549c-.031.141-.078.47-.109.094,0-.266.062-.423.062-.626-.094-.078-.125.438-.2.516-.016.141-.047.267-.063.392-.078.407-.156.626-.265.688.078-.422.14-.735.187-1.048.031-.376.094-.391.141-.392a13.711,13.711,0,0,0,.342-3.74c-.094.063-.046.689-.14.83-.031.751-.219.767-.266,1.627a2.418,2.418,0,0,1,.016.673c-.031.188-.062-.031-.109-.172-.063,0-.125.329-.188.595-.047.344-.078.8-.187.767a5.337,5.337,0,0,1-.282,1.064c-.031.188-.062.282-.109.235-.047.2-.141.563-.188.563-.062.2-.125.423-.2.626-.078.407-.171.767-.266.673a4.4,4.4,0,0,1,.266-.813c0-.063.047-.126.047-.2v-.141c-.047-.016-.063-.016-.078-.031a2.487,2.487,0,0,1-.2.673,5.694,5.694,0,0,1,.187-.83c.141-.422.25-.845.36-1.267,0-.063.031-.126.03-.188.047-.188.11-.36.173-.548a14.137,14.137,0,0,0-.142-1.424c.094-.172.172.063.235.11.235.187.485-.423.453-1.472a2.715,2.715,0,0,1,.172-1.471c.031-.344.062-.7.093-1.064a1.261,1.261,0,0,1,0-.25c0-.016,0-.016.016-.016v-.063a6.739,6.739,0,0,1-.016-1.111,1.746,1.746,0,0,1-.063-.5v-.078A26.466,26.466,0,0,0,611.7,1331a2.183,2.183,0,0,0-.563-1.111c-.126-.14-.047.141-.251-.078a7.829,7.829,0,0,1,.251.861c.125.329.219.657.313.986a12.317,12.317,0,0,1,.565,2.582c-.22-1-.549-2.019-.612-2.661-.125-.328-.235-.657-.345-1-.094-.235-.188-.485-.281-.72a2.665,2.665,0,0,1-.2-.234c-.125-.094-.2-.188-.188-.063-.062-.078.58,1.111-.125,0-.031-.047-.532-.673-.564-.547.188.36,0,.36.361.923.329.688.25.235.391.422a2.812,2.812,0,0,1-.47-1.017c.125.407.532.876.47,1.017a1.449,1.449,0,0,1,.126,1c-.376-.971-.58-1.08-.752-1.142a.033.033,0,0,1-.031-.032c.094.3.407.892.235,1a10.279,10.279,0,0,1-.423-1.268c-.329-.954-1-2.127-1.347-2.925-.282-.407-.548-.783-.72-1.095a20.257,20.257,0,0,0-2.913-3.661c-.72-.767-1.643-1.549-2.364-2.19a29.846,29.846,0,0,0-2.8-2.112c-.016,0-.016-.015-.032-.015a27.918,27.918,0,0,0-2.426-1.392,1.554,1.554,0,0,0-.516-.156c.2.125.454.25.657.375a17.9,17.9,0,0,1,2.817,1.814c.376.266.752.563,1.127.845a18.439,18.439,0,0,1,1.723,1.517,15.7,15.7,0,0,0,1.283,1.33c.157.172.345.344.486.516a18.015,18.015,0,0,1,1.5,1.924c.125.313-.391,0-.125.376.015.031.015.047.031.062a.354.354,0,0,1,.063.078,2.491,2.491,0,0,1,1.049,1.017c.125.188.219.376.36.579.3.454.532,1,1,1.2a2.183,2.183,0,0,1,.61.782c.282.594-.313-.282-.25-.094.094.219.031.188-.078.11a.8.8,0,0,1-.188-.2c-.032-.141.062-.062.125-.062a6.539,6.539,0,0,1-1.55-1.909c-.094-.156-.376-.485-.564-.719a24.171,24.171,0,0,1,1.833,3.582c.063.125,0,.125.141.329.219.2.266.14.156-.141a4.1,4.1,0,0,0-.172-.579c-.031-.156-.094-.282,0-.25.236.328.236.438.22.516.047.172.11.344.172.516.173.313.267.564.439.908.234.407.36.845.2.719-.423-.3-.031.486.188,1.143.125.282.282.641.219.688.032.313.2.8.126.923,0,.361.141,1.065-.11.861.079.579.157,1.158.22,1.737,0,.094.016.188.016.282a2.568,2.568,0,0,1,.016.767,3.746,3.746,0,0,1-.11-.736c-.016-.172.016-.282,0-.438-.094-.939-.314-1.956-.345-2.582-.063-.156-.11-.313-.172-.469-.017-.157-.126-.407-.079-.47a1.14,1.14,0,0,1,.172.611c.157.281.3.578.22.172a7.857,7.857,0,0,0-.189-.767.583.583,0,0,1-.015-.094,12.3,12.3,0,0,1-.862-2.128c-.3-.516-.3-.673-.282-.813-.141-.329-.3-.673-.47-1a12.05,12.05,0,0,0-1.128-2.347.723.723,0,0,0-.125-.109c.079.2.188.391.282.594-.031-.031-.047-.031-.062-.062-.141-.219-.282-.454-.423-.673-.2-.36-.439-.7-.658-1.048-.313-.313-.47-.5-.47-.626a2.056,2.056,0,0,1,.564.688c.235.251.3.438.611.767-.376-.579-.783-1.158-1.206-1.721v-.016a9.288,9.288,0,0,0-.97-1.063,4.685,4.685,0,0,1-1.206-1.158,8.3,8.3,0,0,0-1.393-1.267c-.078.063.438.407.313.454-.642-.673-1.534-1.377-2.129-1.924-.282-.188-.532-.376-.8-.563-1.66-1.048-3.366-1.908-4.759-2.659a35.409,35.409,0,0,0-4.9-1.688c.125.2,1.361.407,1.878.641a30.524,30.524,0,0,1,4.022,1.657c.219.125.7.313.423.329a1.45,1.45,0,0,1-.423-.047,3.277,3.277,0,0,1-.908-.422,3.2,3.2,0,0,0-1.221-.485c.079.047.141.079.2.11l-.062.031c-.752-.328-1.5-.625-2.317-.907-.172-.062-.36-.125-.548-.172h-.313c.11.047.3.11.079.11-.079-.016-.3-.063-.423-.094a3.58,3.58,0,0,0-1.456-.359c-.281.047-.375-.063-.563-.078-.188,0-.328-.016-.485-.015.5.124.97.25,1.44.39.141-.031.062-.109.5-.031.344.062.344.125.265.172.3.078.58.14.861.218a18.3,18.3,0,0,0,1.91.657,5.483,5.483,0,0,0-.814-.328,10.3,10.3,0,0,1-1.174-.454,6.061,6.061,0,0,1,1.455.438c.924.375,1.879.8,2.755,1.235.5.266,1.472.625,1.472.829a3.167,3.167,0,0,1,1.722.954c.172.109.328.219.516.344.266.172.626.406.485.422a6.1,6.1,0,0,1-.861-.344c-.14.032.407.329.11.266a2.222,2.222,0,0,0,.282.188c.375.172.516.281.485.36a.78.78,0,0,1,.094.125,2.365,2.365,0,0,1,.532.344,3.954,3.954,0,0,1,1.159,1.016c.078.126.141.251.219.376a5.636,5.636,0,0,1-.752-.547,2.064,2.064,0,0,1-.594-.266c-.172-.047-.235-.016-.141.094.266.2.5.406.752.625-.032-.015-.079-.031-.126-.047-.266-.219-.517-.422-.767-.625-.047-.032-.11-.063-.172-.11-.438-.219-.5-.328-.438-.375a2.307,2.307,0,0,1,.328.219v-.016s.032-.015.032-.031a1.561,1.561,0,0,0-.282-.266c-.141-.031-.407-.188-.532-.219-.266-.078-.642-.2-.595-.109.031.109.423.234.658.375.516.282.923.579.829.7-.6-.344-1.3-.673-1.737-.938-1.018-.626-1.8-1.158-2.614-1.642a14.057,14.057,0,0,0-2.286-.97,9.856,9.856,0,0,0-2.081-.39,6.044,6.044,0,0,1,1.283.547c.423.172.861.344,1.268.532a13.521,13.521,0,0,1,2.567,1.423,12.545,12.545,0,0,1,2.317,1.548c.141.11.329.219.454.328.109.063.3.188.2.188-.078-.015-.266-.187-.407-.2-.078,0-.219-.109-.219-.156.063-.016-.172-.141-.282-.2a3.018,3.018,0,0,0-.36-.266,2.315,2.315,0,0,1-.61-.453c-.391-.282-1.018-.579-1.268-.814-.188-.093-.344-.2-.532-.3-.109.016.344.2.156.188-.234-.031-.2.031.11.172.25.11.282.157.157.172a1.3,1.3,0,0,1,.141.063c.218.093.438.187.2.14s-.125.032-.188.048a.916.916,0,0,1,.126.093,5.875,5.875,0,0,1,1.517.673c-.563-.094-.594-.11-.469.172.094.25-.563-.109-.939-.234a4.278,4.278,0,0,1,.282.391,9.1,9.1,0,0,0-1.737-.782c.391.062.25-.094.735.015.188.063.251.032.047-.078a1.123,1.123,0,0,0-.422-.125,3.029,3.029,0,0,1-1.221-.25c-.532-.2-1.127-.359-1.55-.547a2.154,2.154,0,0,0-.72-.234c-.266-.016-.156.094-.078.172.047.031.2.094.063.094.517.313,1.393.688,1.988,1.063.219.125.469.266.688.407.6.265.705.469,1.331.813-.345-.157-.485-.2-.657-.266-.063,0,.109.109-.094.031a2.01,2.01,0,0,1-.47-.25l.423.141c-.251-.172-.721-.375-.767-.485a15.7,15.7,0,0,0-2.567-1.235q-1.243-.492-2.583-.891c-.125-.031-.2-.047-.313-.078-.219-.047-.453-.094-.641-.141-.611-.156-1.236-.3-1.863-.422-.109-.015-.234-.046-.344-.062-.407-.078-.8-.141-1.221-.187-.109-.016-.219-.031-.344-.047-.579-.094-1.174-.141-1.768-.187-.36,0-.7-.016-1-.031-.563-.015-1.033-.031-1.6-.031a2.959,2.959,0,0,0-.376.016c-.125.11.141.125.407.125a1.324,1.324,0,0,0,.251.016c0,.015.031.031.046.047.345,0,.674.015.987.031h.328a2.621,2.621,0,0,1,.83.094,5.834,5.834,0,0,1,1,.093,6.885,6.885,0,0,1,.892.063c.11.015.219.031.344.046a3.719,3.719,0,0,0,.627.047c-.3-.015.031-.172-.627-.109h-.062c-.063.015-.313-.031-.251-.063a.836.836,0,0,1,.313-.031h.126c.578.031.719.109.532.2a2.094,2.094,0,0,0,.3.063c.078.015.172.047.266.062a2.566,2.566,0,0,1,.344.063,3.777,3.777,0,0,1,1.049.265,7.068,7.068,0,0,0,1.377.25c-.3-.078-.626-.156-.939-.25a.624.624,0,0,0,.172-.016c.313.078.6.172.893.25.265.094.093.157.093.219.329.094.626.188.924.3.861.188.814.376,1.471.594.423.094.423.188.829.3-.047-.062-.3-.172-.125-.187a2.468,2.468,0,0,1,1.08.39,2.507,2.507,0,0,0-.36-.078c-.047.047-.532-.015,0,.188.266.094.454.172.094.141a2.082,2.082,0,0,1-.61-.172c-.47-.219-.955-.406-1.315-.594a23.526,23.526,0,0,0-3.036-.844c.125-.031.375.063.5.047.094-.016.015-.047-.094-.078a9.478,9.478,0,0,0-2-.3l-.345-.031-.313-.016c-.422-.031-.312.047-.172.094.2.047.642.094.282.157a3.692,3.692,0,0,1-.861-.063c-.062.016-.109.032-.156.047a2.475,2.475,0,0,0-.344.1c-.172.046-.172.078,0,.109a2.9,2.9,0,0,0,.344.078c.094.016.187.031.3.047.172.031.157.078.11.11-.11.015-.172.031-.25.047.109.031.234.078.344.109a3.827,3.827,0,0,0,.72.14c.109.016.234.032.344.047a2.993,2.993,0,0,1,.579.094l-.313.047c-.031,0-.062,0-.062.016.031,0,.093.015.093.031.094.078,1.064.187.627.219a2.653,2.653,0,0,1-.924-.2c-.016,0-.063-.016-.078-.016-.094-.016-.188-.031-.266-.047a5.513,5.513,0,0,0-1.205-.171h-.016c-.125.031-.235.047-.344.078-.016.063.641.094.14.156a.463.463,0,0,0-.14-.031l-.376-.093c-.751-.016-1.361-.078-1.956-.125-.25-.016-.469-.031-.735-.031-.235.094.094.125.234.11.673-.079.439.031.439.093h.094c.469.016.813.078,1.314.094.391.015.235.078.032.125a6.264,6.264,0,0,1,.954.171.742.742,0,0,1,.3.094,1.872,1.872,0,0,1-.3-.015,1.487,1.487,0,0,1-.266-.016c.031.063.423.109-.188.157-.532.094-.579.016-.72-.047-.344-.031-.751-.047-1.033-.093-.093-.016-.172-.032-.25-.047-.423-.047-.907-.062-1.361-.078-.266,0-.532-.015-.783-.015-1.314-.047-2.973.157-4.131.22h-.016a6.924,6.924,0,0,1-.766.173,1.073,1.073,0,0,1-.36.172c-.172.047-.047-.047,0-.094-.282.047-.595.11-.892.173a11.026,11.026,0,0,1-1.627.423c-.235.157-.157.188,0,.188-.3.094-.517.172-.751.25-.329.173-.408.11-.72.282-.329.11-.626.22-.939.345h.266c.125-.031.251-.063.36-.094.313-.094.595-.172.876-.251.36,0,1.314-.376,1.753-.392a8.239,8.239,0,0,1,1.768-.36,28.2,28.2,0,0,1,2.958-.377,3.309,3.309,0,0,1,.751-.032,1.753,1.753,0,0,0,.281-.016c.078-.172.532-.187.892-.2.3-.094.235-.141-.031-.141-.36-.016-.72,0-1.08,0a3.232,3.232,0,0,1-1.314.063c.625-.047,1.017-.078,1.408-.094a1.882,1.882,0,0,1,.86-.157,10.17,10.17,0,0,0,1.237.015h.015c.172-.015.47-.016.3.047a1.691,1.691,0,0,1-.267.094,1.454,1.454,0,0,1-.406.047c-.266-.015-.219.047-.266.063l-.094.094c.141.047.642-.079.783-.032.031-.015.062,0,.062.016,0,0-.031,0-.031.016-.329.062-.579.015-.876.094.3.031.578.062.907.109.392.031.829.078,1.346.125a1.679,1.679,0,0,0,.266.015c.063,0,.11.016.157.016h1.439c.094.016.11.016.078.032.094.062.094.109-.156.156-.109.11.2.141.563.188l.345.046a1.127,1.127,0,0,1,.6.141c-.2-.031-.408-.047-.6-.078-.125-.016-.235-.031-.344-.047-.251-.015-.47-.031-.705-.046q-.61-.07-1.22-.094h-.079c-.547-.031-1.064-.031-1.612-.031h-.077c-.032,0-.032-.031-.063-.046a2.127,2.127,0,0,1-.83.094,3.019,3.019,0,0,0-.829.031c-.626.126-.908.173-1.017.064a1.956,1.956,0,0,0-1.111.156c0,.032.188.032-.141.141a1.047,1.047,0,0,0-.109.063c.062.062.579-.047.7,0,.422-.063.235.047.266.093a1.367,1.367,0,0,1,.72-.188c.391.031,1.032-.047,1.533-.047.407,0,.485.047.548.109h.125c.266-.031.36,0,.407.031.063.063.031.172.657.062.063.094.532.047.892.063h.063a9.469,9.469,0,0,1,1.878.281c.015,0,.031.015.047.015a.056.056,0,0,0-.047.016.58.58,0,0,0-.172.031c-.172-.015-.36-.046-.532-.062a3.292,3.292,0,0,1-.955.016c-.047-.016-.109-.031-.172-.047-.454-.047-1.111-.046-1.6-.078a2.253,2.253,0,0,1-.345-.015,1.663,1.663,0,0,1-.281-.016,9.381,9.381,0,0,0-2.082-.093c-.657.032-1.47.189-1.956.189-.453.032-1.2.235-1.533.22l-.3.047a5.278,5.278,0,0,1-1.2.3,23.29,23.29,0,0,0-4.444,1.66c.078.094.688-.235,1.064-.313-.985.5-1.565.72-2.269,1.112a5.608,5.608,0,0,0-.688.469,1.313,1.313,0,0,1-.7.455,5.314,5.314,0,0,1-.751.438,27.61,27.61,0,0,0-5.632,4.838c-.078.125-.187.266-.265.407a.849.849,0,0,1-.219.36c-.423.532-.845,1.064-1.236,1.628-.109.156-.188.344-.281.469a29.525,29.525,0,0,0-2.627,4.915c-.063.36-.125.736-.188,1.1a.091.091,0,0,1,.016.062,10.471,10.471,0,0,1,.688-1.487,2.9,2.9,0,0,1,.531-1.22.527.527,0,0,1,.188-.157c.125-.282.235-.579.36-.861.156-.266.3-.532.453-.783.047-.109.141-.219.2-.344a1.559,1.559,0,0,1,.485-.673c.219-.454.375-.642.454-.658-.219.423-.391.689-.454.658a.825.825,0,0,1-.25.438c-.157.282-.328.548-.5.83.109-.016.36-.423.547-.72.235-.36.469-.7.7-1.065.375-.548.782-1.08,1.188-1.6a20.342,20.342,0,0,1,1.94-2.223,6.117,6.117,0,0,1,1.6-1.581c.453-.454.766-.7.876-.642a8.144,8.144,0,0,1-.954.845c-.157.157-.329.3-.47.47-.2.172-.406.375-.626.563a.428.428,0,0,0-.109.126c-.641.626-1.3,1.44-1.846,2.019-.3.36-.578.72-.86,1.111a.088.088,0,0,0,.031.079c.172-.219.329-.439.532-.658.188-.235.375-.469.548-.689v.063c-.2.251-.391.485-.579.72.094,0,.3-.329.485-.516.125-.141.281-.36.344-.376,0,0-.125.2-.188.313,0,.094.329-.407.251-.157.015.11.25-.25.391-.376a2.026,2.026,0,0,1,.25-.266c.156-.078.516-.516.673-.61-.2.235-.454.485-.657.72a3.814,3.814,0,0,1-.751.923c0-.015.015-.031.015-.046a28.852,28.852,0,0,0-4.754,8.029,30.115,30.115,0,0,0-1.2,3.412c-.078,1.127-.109,2.285-.108,3.474h-.986c-.156.532-.266,1.033-.391,1.534a28.123,28.123,0,0,0-.749,4.6,3.429,3.429,0,0,0,.031.391,17.466,17.466,0,0,1,.953-4.226.956.956,0,0,1,.141-.062c.078-.438.156-.376.251-.032-.094.345-.157.5-.251.5-.078.814-.109,1.612-.108,2.52.109-.877.234-1.675.359-2.458.062-.641.187-1.095.312-1.158-.156.47-.156,1.878-.343,1.925a4.065,4.065,0,0,0-.047.423c.235.548.25-1.1.406-1.252.094,0,.109-.845.235-.939-.047,1.127-.234,1.393-.234,2.347.063.407,0,.61.032.955.062.188.093-.517.2.25.094,0,.094-.548.125-.845.094-.657.171-1.377.328-2.019.094-.407.125-.328.125.485.063.141.172-.375.188.141a4.426,4.426,0,0,1-.125,1.221c-.031-.36.078-.8-.063-.986a5.883,5.883,0,0,0-.312,1.69,1.319,1.319,0,0,0,.094.7c.063,0,.157.188.22.344.093.188.172.313.218-.015v-.047a7.154,7.154,0,0,1,.2-1.863,8.065,8.065,0,0,1,.156-1.533c.031-.141.078-.47.11-.11a3.251,3.251,0,0,1-.063.626c.078.094.125-.438.188-.516.031-.141.046-.266.078-.391.078-.407.156-.627.25-.689-.062.438-.125.735-.172,1.048-.031.376-.094.392-.156.392a13.757,13.757,0,0,0-.328,2.957c-.015.251-.015.532-.015.8.11-.078.078-.688.156-.845.031-.751.219-.751.265-1.627a2.452,2.452,0,0,1-.015-.673c.046-.188.078.031.109.172.079,0,.125-.313.188-.595.062-.344.078-.8.187-.767a5.438,5.438,0,0,1,.281-1.064c.032-.172.079-.266.11-.235.063-.2.125-.563.2-.563.063-.2.109-.407.172-.611.11-.422.188-.782.281-.688a2.807,2.807,0,0,1-.265.814.735.735,0,0,0-.031.2v.156c.031,0,.047.016.062.016a2.691,2.691,0,0,1,.2-.673,4.4,4.4,0,0,1-.188.845c-.141.407-.234.83-.344,1.253-.015.062-.031.125-.047.2a3.429,3.429,0,0,1-.172.532c.032.485.079.954.126,1.424-.094.172-.156-.063-.219-.109-.251-.172-.485.422-.453,1.486v.36a2.312,2.312,0,0,1-.156,1.1c-.031.188-.047.391-.063.595-.015.156-.031.312-.046.469v.266c0,.454.031.939,0,1.174a2.344,2.344,0,0,1,.062.579,24.926,24.926,0,0,0,.879,5.351,2.363,2.363,0,0,0,.564,1.127c.125.14.031-.141.234.093-.094-.3-.172-.578-.235-.876-.109-.328-.2-.657-.329-.985a12.607,12.607,0,0,1-.549-2.629c.22,1.017.549,2.05.612,2.707.125.328.235.673.329,1,.109.25.2.485.313.72.079.094.125.156.2.235.109.109.2.187.172.078.063.062-.58-1.127.125-.016.031.047.532.673.579.547-.188-.359-.031-.344-.376-.907-.328-.689-.234-.25-.375-.422a3.059,3.059,0,0,1,.47,1c-.157-.391-.564-.861-.47-1a1.431,1.431,0,0,1-.142-1.018c.361.971.6,1.1.752,1.142.015.016.015.016.031.016-.094-.3-.391-.876-.235-.97a7.572,7.572,0,0,1,.408,1.252c.344.97,1.033,2.128,1.362,2.926.282.406.548.782.736,1.11a21.388,21.388,0,0,0,2.881,3.661c.751.767,1.644,1.533,2.4,2.19a28.538,28.538,0,0,0,2.8,2.1c.8.5,1.6.969,2.426,1.407a1.754,1.754,0,0,0,.532.156c-.219-.125-.454-.25-.657-.359a21,21,0,0,1-2.818-1.83c-.375-.266-.751-.547-1.111-.844a19.353,19.353,0,0,1-1.738-1.5,18.292,18.292,0,0,0-1.283-1.345c-.157-.173-.329-.345-.486-.517a17.8,17.8,0,0,1-1.487-1.924c-.141-.313.376,0,.109-.376,0-.015,0-.031-.031-.047a.1.1,0,0,0-.063-.078,2.8,2.8,0,0,1-1.049-1.016c-.125-.2-.234-.392-.344-.579-.329-.47-.564-1.017-1.033-1.22a2.443,2.443,0,0,1-.6-.783c-.3-.594.314.282.266.094-.109-.2-.031-.188.079-.109a.684.684,0,0,1,.156.2c.063.156-.047.078-.109.063a6.489,6.489,0,0,1,1.55,1.908c.094.157.391.485.579.72a23.558,23.558,0,0,1-1.848-3.583c-.062-.125,0-.11-.141-.313-.219-.2-.266-.156-.156.125.047.188.11.391.172.579.047.157.094.3,0,.266-.234-.344-.234-.438-.2-.532-.063-.172-.11-.344-.173-.516-.188-.313-.281-.563-.454-.908-.235-.406-.36-.845-.219-.719.454.312.062-.47-.189-1.143-.109-.266-.266-.626-.2-.688a3.293,3.293,0,0,1-.126-.923c0-.36-.157-1.064.125-.861-.094-.579-.173-1.142-.251-1.737a4.88,4.88,0,0,1-.032-1.049,3.481,3.481,0,0,1,.126,1.174c.094.939.329,1.972.345,2.582.063.156.11.313.157.469s.141.423.079.47a1.428,1.428,0,0,1-.157-.6c-.157-.281-.3-.594-.235-.187.062.25.109.516.188.766.016.032.016.063.031.094a11.853,11.853,0,0,1,.878,2.128c.281.516.281.688.25.814.172.344.313.672.5,1a12.071,12.071,0,0,0,1.112,2.363c.047.031.094.078.141.109-.094-.2-.188-.407-.3-.594a.17.17,0,0,0,.078.047,5.506,5.506,0,0,0,.423.688c.188.344.423.7.642,1.048.329.3.469.5.469.626a4.015,4.015,0,0,1-.579-.689,8.248,8.248,0,0,0-.611-.782,18.475,18.475,0,0,0,1.237,1.737,6.359,6.359,0,0,0,.971,1.063,4.528,4.528,0,0,1,1.19,1.158,7.665,7.665,0,0,0,1.393,1.267c.079-.063-.438-.391-.313-.454.626.673,1.534,1.377,2.145,1.924.266.188.532.391.782.563,1.675,1.048,3.35,1.924,4.774,2.659a34.033,34.033,0,0,0,4.884,1.7c-.126-.2-1.346-.407-1.863-.657a28.812,28.812,0,0,1-4.022-1.641c-.251-.126-.705-.329-.439-.345a1.4,1.4,0,0,1,.423.047,2.759,2.759,0,0,1,.908.438,3.111,3.111,0,0,0,1.22.469c-.078-.031-.14-.078-.187-.094-.047-.031.015-.031.031-.047.767.344,1.534.626,2.316.907.172.062.376.125.564.188a2.26,2.26,0,0,1,.329-.016c-.11-.047-.314-.11-.079-.094a3.552,3.552,0,0,1,.407.078,3.742,3.742,0,0,0,1.456.359c.265-.047.375.063.563.078.172.016.344.016.485.016q-.728-.165-1.455-.375c-.141.015-.032.109-.486.031-.344-.078-.344-.14-.25-.172v-.015c-.3-.063-.579-.141-.877-.219a15.754,15.754,0,0,0-1.909-.641c.25.109.532.219.8.328a9.565,9.565,0,0,1,1.19.438,5.879,5.879,0,0,1-1.44-.438c-.955-.375-1.863-.781-2.755-1.235-.516-.25-1.455-.61-1.487-.813-1.142-.375-1.534-.7-1.706-.97-.188-.093-.344-.218-.532-.328-.266-.188-.626-.422-.47-.422.11-.032.579.25.861.344.125-.032-.423-.344-.109-.282l-.282-.188c-.376-.171-.532-.281-.5-.344a.666.666,0,0,1-.079-.141,1.556,1.556,0,0,1-.547-.344,3.942,3.942,0,0,1-1.159-1.016c-.062-.11-.141-.235-.2-.36a4.987,4.987,0,0,1,.751.547,2.916,2.916,0,0,1,.6.25q.258.07.141-.094a7.254,7.254,0,0,1-.767-.625.455.455,0,0,0,.125.062q.4.306.751.61a1.78,1.78,0,0,1,.172.11c.454.219.532.328.486.375a1.474,1.474,0,0,1-.345-.2c-.015.016-.031.016-.047.047.094.078.172.172.266.25a5.953,5.953,0,0,1,.564.235c.25.078.61.2.6.109-.047-.125-.439-.25-.658-.391-.516-.282-.923-.579-.845-.7.595.344,1.315.688,1.737.954,1.018.61,1.8,1.142,2.614,1.627a13.4,13.4,0,0,0,2.285.969,11.1,11.1,0,0,0,2.082.406,7.443,7.443,0,0,1-1.283-.547c-.423-.188-.846-.36-1.253-.548a13.212,13.212,0,0,1-2.582-1.407,12.442,12.442,0,0,1-2.3-1.564c-.156-.109-.343-.219-.469-.328-.094-.063-.3-.188-.2-.172s.251.187.407.187a.406.406,0,0,1,.235.157c-.062.031.141.141.266.219s.235.172.376.266a2.542,2.542,0,0,1,.611.438c.391.281,1,.594,1.252.828.172.094.344.188.532.282.11-.016-.344-.2-.157-.172.235.015.2-.047-.093-.172-.282-.126-.282-.173-.173-.188a.461.461,0,0,1-.125-.063c-.235-.078-.454-.187-.2-.14.219.047.109-.032.172-.047a.435.435,0,0,0-.125-.079,5.529,5.529,0,0,1-1.5-.688c.563.094.595.11.454-.172-.094-.235.547.109.939.25a2.544,2.544,0,0,1-.266-.407,9.621,9.621,0,0,0,1.721.8c-.391-.063-.25.078-.72-.031-.188-.047-.266-.031-.078.078a1.417,1.417,0,0,0,.423.125,3.153,3.153,0,0,1,1.252.25c.516.2,1.1.375,1.549.547a1.782,1.782,0,0,0,.689.234c.3.016.188-.093.109-.172-.062-.031-.219-.078-.078-.078-.516-.313-1.393-.688-1.988-1.063-.219-.141-.454-.282-.673-.423-.594-.265-.72-.453-1.346-.8.36.141.485.187.642.25.093.016-.079-.109.109-.031a1.635,1.635,0,0,1,.485.266,4.266,4.266,0,0,0-.422-.141c.235.156.72.359.751.485a17.714,17.714,0,0,0,2.551,1.219c.846.344,1.722.625,2.6.891l.329.094a6.187,6.187,0,0,1,.626.125,30.646,30.646,0,0,0,3.49.687c.11.016.235.031.344.047a10.623,10.623,0,0,0,1.221.125,2.44,2.44,0,0,0,.344.031.557.557,0,0,0,.157.015c1.142,0,1.909.093,2.973.046.141-.141-.344-.125-.657-.14-.031-.016-.031-.032-.063-.032l-1-.046a4.574,4.574,0,0,1-1.142-.094,1.506,1.506,0,0,1-.267-.015,2.44,2.44,0,0,1-.344-.031,3.075,3.075,0,0,1-.391-.047,6.055,6.055,0,0,1-.83-.062,2.287,2.287,0,0,0-.344-.032c-.2-.031-.438-.046-.7-.062.329.016-.047.172.7.109.063,0,.329.031.25.063a.908.908,0,0,1-.25.031h-.2c-.564-.031-.705-.109-.5-.2-.094-.016-.219-.047-.313-.063a8.467,8.467,0,0,1-1.659-.374,5.766,5.766,0,0,0-1.377-.266c.3.094.626.172.939.25-.063,0-.126.016-.188.016-.282-.078-.579-.156-.892-.25-.251-.094-.078-.157-.078-.219-.313-.094-.626-.188-.924-.282-.845-.187-.814-.39-1.471-.594-.407-.093-.407-.2-.814-.312.031.062.266.172.11.188a2.287,2.287,0,0,1-1.08-.391,2.835,2.835,0,0,0,.344.078c.047-.031.548.031.016-.188-.267-.094-.439-.156-.094-.125a1.952,1.952,0,0,1,.61.172c.47.2.955.406,1.315.578a23.375,23.375,0,0,0,3.036.86c-.141.031-.36-.078-.5-.047-.094,0,0,.047.094.078a14.639,14.639,0,0,0,2.676.343c.423.031.313-.062.157-.109-.188-.047-.642-.094-.266-.157.391-.062.532.078.861.063.077-.016.14-.032.2-.047a3.2,3.2,0,0,0,.344-.11c.094-.031.094-.063,0-.094-.063-.016-.172-.047-.344-.078-.094-.016-.2-.031-.345-.047-.188-.031-.172-.062-.141-.094a2.519,2.519,0,0,1,.282-.063,3.085,3.085,0,0,1-.36-.109c-.344-.125-1.173-.14-1.627-.265.093-.032.2-.032.313-.063h.062a.384.384,0,0,0-.109-.031c-.079-.094-1.049-.188-.626-.235a3.024,3.024,0,0,1,1,.219,10.246,10.246,0,0,0,1.487.234c.015,0,.047-.015.062-.015.11-.032.2-.048.282-.079,0-.031-.188-.047-.282-.062-.047-.032-.062-.047,0-.063a.338.338,0,0,1,.157-.031c.063.015.109.031.188.047a2.931,2.931,0,0,0,.3.078c.344.015.642.031.923.046.126.016.235.016.345.031.485.032.923.063,1.423.078h.017c.218-.094-.094-.125-.235-.109-.736.078-.392-.047-.439-.094-.281,0-.532-.031-.767-.047-.109-.015-.218-.015-.344-.031a1.956,1.956,0,0,0-.313-.015c-.36-.016-.219-.078-.015-.126a6.06,6.06,0,0,1-.893-.156,1.47,1.47,0,0,1-.344-.109,1.252,1.252,0,0,1,.344.015.949.949,0,0,0,.2.016c-.047-.062-.423-.109.2-.157.5-.094.579-.015.7.047a.261.261,0,0,1,.11.016,2.727,2.727,0,0,1,.344.031,4.817,4.817,0,0,1,.814.093c.7.063,1.471.078,2.16.093,1.314.062,2.973-.157,4.131-.22h.016c.359-.126.485-.079.766-.173a1.025,1.025,0,0,1,.344-.156c.188-.047.063.031,0,.093.3-.062.61-.125.923-.188a10.891,10.891,0,0,1,1.612-.423c.234-.141.171-.188,0-.172.312-.11.516-.172.751-.251.328-.172.422-.125.719-.3.329-.11.626-.22.939-.345h-.25c-.141.031-.251.063-.376.094a8.349,8.349,0,0,1-.892.251c-.329,0-1.283.376-1.737.392a9.539,9.539,0,0,1-1.768.376c-.986.173-1.987.283-2.957.361-.266.016-.657.094-.736.032-.094,0-.2.016-.313.016-.062.172-.5.188-.892.2-.281.11-.219.157.063.157.344,0,.7,0,1.064-.016a3.171,3.171,0,0,1,1.3-.063c-.595.063-.986.078-1.377.094a1.912,1.912,0,0,1-.877.157,10.083,10.083,0,0,0-1.236-.015c-.172.016-.485.016-.313-.047a1.477,1.477,0,0,1,.673-.125c.266,0,.219-.047.282-.079.031-.031.047-.063.078-.094-.172-.031-.8.126-.845.016.328-.078.594-.031.939-.11-.736-.062-1.409-.156-2.285-.234-.125,0-.266-.015-.423-.015a1.856,1.856,0,0,1-.3-.016h-1.142c-.094,0-.11-.016-.079-.031-.078-.063-.078-.11.173-.157.078-.094-.188-.141-.517-.188-.11-.015-.235-.015-.344-.031-.313-.031-.6-.062-.657-.156.234.031.453.047.657.078.125.016.234.031.344.047.2.015.438.047.658.062.187.016.375.031.563.031a2.486,2.486,0,0,0,.344.032c.11,0,.2.015.3.015.595.031,1.174.047,1.769.031.062,0,.047.031.062.047a1.875,1.875,0,0,1,.845-.079,3.7,3.7,0,0,0,.814-.047c.642-.126.923-.173,1.033-.063a1.691,1.691,0,0,0,1.095-.142c0-.046-.2-.046.157-.156l.093-.047c-.062-.063-.578.047-.688-.016-.438.079-.235-.046-.282-.093a1.341,1.341,0,0,1-.7.188c-.391-.031-1.049.047-1.549.063-.391,0-.47-.062-.548-.125h-.125c-.767.094-.047-.25-1.064-.078-.047-.109-.517-.046-.892-.078-.11,0-.2-.015-.313-.015-.125-.016-.235-.016-.345-.031a7.47,7.47,0,0,1-1.22-.219.134.134,0,0,1-.094-.031.53.53,0,0,1,.094-.016c.031-.016.078-.016.109-.031.188.031.376.047.548.078a2.345,2.345,0,0,1,.563-.047,1.825,1.825,0,0,1,.345.031h.031c.547.125,1.565.062,2.128.124a1.668,1.668,0,0,0,.282.016,8.319,8.319,0,0,0,2.066.093c.626-.032,1.408-.173,1.893-.173h.063c.485-.032,1.2-.235,1.549-.22.078-.015.187-.047.281-.063a4.515,4.515,0,0,1,1.205-.282,23.483,23.483,0,0,0,4.428-1.676c-.062-.094-.673.235-1.033.329.986-.517,1.565-.736,2.269-1.128a5.251,5.251,0,0,0,.673-.469,1.306,1.306,0,0,1,.7-.454,4.839,4.839,0,0,1,.751-.423,28.159,28.159,0,0,0,5.632-4.838c.078-.141.187-.266.281-.423-.031-.062.11-.219.2-.375.438-.5.845-1.049,1.252-1.613.078-.141.187-.328.25-.454a27.713,27.713,0,0,0,2.643-4.93c.062-.36.124-.72.171-1.1a.055.055,0,0,0-.016-.046,7.5,7.5,0,0,1-.672,1.487,2.617,2.617,0,0,1-.532,1.2.676.676,0,0,1-.187.156c-.11.282-.234.579-.344.861l-.469.8c-.063.094-.141.219-.2.329-.2.391-.36.626-.47.673-.234.454-.375.642-.484.658.234-.407.406-.689.469-.658a.89.89,0,0,1,.25-.438c.156-.266.313-.548.5-.83-.109.016-.344.423-.547.72-.219.36-.469.72-.7,1.065-.375.548-.782,1.095-1.189,1.612a21.688,21.688,0,0,1-1.939,2.207,5.527,5.527,0,0,1-1.611,1.581c-.454.454-.767.721-.877.642.423-.438.673-.548.986-.845.141-.141.313-.3.454-.454.2-.188.407-.376.61-.579.047-.032.094-.079.141-.11.641-.642,1.282-1.44,1.83-2.035.281-.344.594-.72.876-1.111,0-.032-.016-.047-.032-.079a7.818,7.818,0,0,1-.547.658,8.62,8.62,0,0,1-.563.689c.016-.016.016-.032.031-.063.188-.235.376-.469.547-.72-.078,0-.3.344-.469.517-.109.141-.266.36-.344.375,0-.015.125-.2.188-.3.015-.11-.344.391-.235.125-.031-.094-.266.266-.391.392-.094.094-.172.172-.25.266-.172.078-.532.516-.7.61.219-.235.454-.469.688-.72a3.5,3.5,0,0,1,.735-.923c0,.015-.016.031-.016.047a28.836,28.836,0,0,0,4.77-8.03,35.979,35.979,0,0,0,1.188-3.412c.078-1.127.125-2.285.124-3.474h.97c.157-.516.282-1.033.391-1.518a30,30,0,0,0,.749-4.617A3.225,3.225,0,0,0,615.931,1339.765Zm-8.675-13.689a4.869,4.869,0,0,1,.783,1.47A5.232,5.232,0,0,1,607.256,1326.076Zm1.6,3.254c-.063-.125-.079-.188-.032-.172a.539.539,0,0,1,.125.2c.016.063.063.125.079.2A1.364,1.364,0,0,1,608.854,1329.33Zm.783,1.455c-.032.031-.048.125-.22-.156-.14-.2-.25-.485-.172-.454.188.078.251.438.392.61-.063-.235-.3-.641-.079-.5C609.715,1330.66,609.7,1330.754,609.637,1330.785Zm.235,1.3a.892.892,0,0,1-.126-.595C609.887,1331.849,610.028,1332.178,609.872,1332.084ZM588.788,1319.7a2.9,2.9,0,0,1,.986.329C589.461,1319.917,589.116,1319.808,588.788,1319.7Zm-12.175,1.3a3.143,3.143,0,0,1,.908-.078A3.873,3.873,0,0,1,576.613,1321Zm4.007.233a.357.357,0,0,1-.251.063c-.14,0-.078-.031-.016-.063a.6.6,0,0,1,.267-.047C580.682,1321.2,580.62,1321.235,580.62,1321.235Zm-19.917,9.726a.7.7,0,0,1-.2.219c-.187.079-.328.173-.516.627a.785.785,0,0,1-.2.234c-.047-.031.2-.391.265-.563a2.393,2.393,0,0,1,.376-.532c.156-.079.453-.407.391-.219A1.009,1.009,0,0,1,560.7,1330.961Zm-.391.986a2.509,2.509,0,0,1,.422-.422A2.068,2.068,0,0,1,560.312,1331.947Zm-6.442,13.79c.078-.266.141-.423.172-.36C553.964,1345.674,553.917,1345.862,553.87,1345.737Zm2.173-5.572a2.4,2.4,0,0,1,.313-.673A5.067,5.067,0,0,1,556.043,1340.165Zm4.267,28.01a4.719,4.719,0,0,1-.783-1.471A6.5,6.5,0,0,1,560.31,1368.175Zm-1.612-3.255c.062.125.094.2.046.172a.315.315,0,0,1-.14-.187c-.016-.079-.047-.141-.063-.2A1.464,1.464,0,0,1,558.7,1364.92Zm-.783-1.439c.046-.047.062-.125.234.156.126.188.251.469.157.454-.188-.094-.235-.438-.391-.61.062.219.3.626.062.485C557.836,1363.606,557.852,1363.5,557.915,1363.481Zm-.236-1.315a1.155,1.155,0,0,1,.126.595C557.679,1362.417,557.538,1362.088,557.679,1362.166Zm21.1,12.4a2.69,2.69,0,0,1-.986-.344C578.106,1374.333,578.419,1374.458,578.779,1374.567Zm12.158-1.3a3.748,3.748,0,0,1-.907.063A3.528,3.528,0,0,1,590.937,1373.264Zm-4.006-.249a.46.46,0,0,1,.251-.063c.141,0,.078.047.015.063a.591.591,0,0,1-.265.047C586.885,1373.046,586.931,1373.015,586.931,1373.015Zm19.918-9.711c.094-.14.156-.2.2-.219.188-.094.313-.188.532-.642a1.038,1.038,0,0,1,.187-.234c.063.047-.187.391-.266.563a1.741,1.741,0,0,1-.391.532c-.14.094-.438.407-.375.22A.928.928,0,0,1,606.849,1363.3Zm.375-1a1.6,1.6,0,0,1-.407.438A1.9,1.9,0,0,1,607.224,1362.3Zm4.341-22.99a2.067,2.067,0,0,1-.047.72c.016-.376.016-.611.016-.861.015-.266-.016-.595.014-.782A3.678,3.678,0,0,1,611.565,1339.313Zm.75-2.786a2.811,2.811,0,0,1,.032,1.252c-.017-.438-.048-.814-.095-1.236-.016-.219-.031-.438-.063-.689C612.236,1336.1,612.283,1336.324,612.315,1336.527Zm-1.66-2.19a1,1,0,0,1-.015.219c-.126-.485-.22-.923-.111-1.033A3.08,3.08,0,0,1,610.655,1334.337Zm.079.908c-.126-.407-.173-.642-.094-.658A2.319,2.319,0,0,1,610.734,1335.245Zm-.628-3.443c-.046-.235.063-.125.2.078a.724.724,0,0,1,.172.469c0,.2.016.423.032.626.094.3.109.532,0,.532-.032-.265-.094-.547-.125-.829C610.294,1332.381,610.2,1332.068,610.106,1331.8Zm.128,6.291v.688C610.187,1338.515,610.14,1338.187,610.234,1338.093Zm-7.516,26.762c-.032.047-.141.126-.172.173a.425.425,0,0,1-.125.047,1.311,1.311,0,0,1,.187-.173C602.671,1364.855,602.843,1364.715,602.718,1364.855Zm-.454-39.45a2.856,2.856,0,0,1,.3.234c.094.094.032.094-.031.063a.711.711,0,0,1-.266-.2C602.233,1325.452,602.264,1325.436,602.264,1325.405Zm1.267-.016c-.188-.266-.344-.517-.516-.767-.188-.188-.423-.407-.2-.36.266.313.72.735.72.892C603.406,1325.138,603.719,1325.467,603.531,1325.389Zm3.445,4.771c.157.235.282.485.235.532A2.3,2.3,0,0,1,606.976,1330.16Zm1.128,4.006c.047.188.079.375.126.563C608.151,1334.479,607.995,1334.119,608.1,1334.166Zm0-.016c-.062-.25-.109-.5-.188-.751C608.042,1333.712,608.182,1334.119,608.1,1334.15Zm-.956-4.24c.11.219.313.579.2.579a1.19,1.19,0,0,1-.3-.673,8.787,8.787,0,0,1-.47-.782,11.713,11.713,0,0,1-.924-1.643c-.031-.078-.062-.172.063-.063a.815.815,0,0,1,.282.376c.031.078.078.172.11.266A17.891,17.891,0,0,1,607.148,1329.91Zm-1.1-2.66a.174.174,0,0,1,.015.078,12.082,12.082,0,0,1,.674,1.142c-.032-.031-.063-.047-.079-.078-.266-.469-.548-.939-.861-1.392-.109-.2-.2-.407-.313-.611A4.33,4.33,0,0,1,606.052,1327.25Zm-2.522-4.365c.3.422,1.127,1.189,1.049,1.408-.156-.407-1.064-1.189-1.283-1.58-.236-.282-.705-.657-.705-.829C602.92,1322.228,603.233,1322.556,603.53,1322.885Zm-.86,2.363c-.5-.407-.3-.391-.391-.532-.219-.156-.282-.062-.579-.359-.282-.267.11-.016.188,0,.156.031-.016-.126-.126-.251-.516-.438-.829-.719-.657-.8a5.748,5.748,0,0,0,.939.939C602.17,1324.513,602.936,1325.185,602.67,1325.248Zm-1.487-2.738c.845.5.72.563.5.595C601.48,1322.854,601.339,1322.682,601.183,1322.51Zm.438-.955c.14.188.25.329.422.548C601.636,1321.759,601.37,1321.54,601.621,1321.555Zm-.752-.578c-.829-.6-1.065-.954-1.8-1.471-.282-.219-.548-.438-.83-.656a10.18,10.18,0,0,1,1.613,1.141c.422.329.782.673,1.174,1.017.14.125.423.313.36.36A2.414,2.414,0,0,1,600.869,1320.977Zm-1.376,2.144c.188.157.36.329.563.485-.031,0-.062-.016-.094-.016-.172-.172-.36-.344-.548-.5C599.43,1323.106,599.462,1323.106,599.493,1323.121Zm-2.348-2.174c-.36-.25-.736-.469-1.112-.7-.328-.172-.641-.36-.876-.516a5.687,5.687,0,0,1,1,.547c.36.219.735.454,1.1.688.58.391,1.143.8,1.707,1.236a.226.226,0,0,0-.11-.031C598.288,1321.729,597.74,1321.322,597.145,1320.947Zm.83,2.535c-.235-.2-.548-.376-.5-.438C597.74,1323.2,598.038,1323.388,597.975,1323.482Zm-1.252.125a.464.464,0,0,1,.063.094c-.094-.047-.188-.094-.235-.125s-.11-.062-.11-.094A.54.54,0,0,1,596.723,1323.607Zm-1.471-1.063c.015.031.047.047.015.062-.015.016-.109,0-.25-.093-.016-.016-.047-.032-.063-.063C595.048,1322.481,595.158,1322.513,595.252,1322.544Zm.047.563c.141.094.47.25.36.3a.534.534,0,0,1-.188-.062c-.281-.141-.172-.156-.281-.25s-.345-.188-.282-.235C595.049,1322.951,595.19,1323.029,595.3,1323.107Zm-.783-.688a3.711,3.711,0,0,1-1.017-.641A6.12,6.12,0,0,1,594.516,1322.419ZM593,1321.355c0,.032-.016.047-.016.063a1.519,1.519,0,0,1-.219-.078c-.047-.031-.015-.047-.031-.063C592.81,1321.293,592.873,1321.324,593,1321.355Zm-5.728-.482a4.412,4.412,0,0,1,1,.344,7.348,7.348,0,0,0-1.252-.25c-.25-.016-.36-.078-.282-.125C586.832,1320.779,587.1,1320.842,587.27,1320.873Zm-1.361,1.518c.533.125.329-.016.517-.016.094.063.516.172.188.2a1.556,1.556,0,0,1-.658-.125C585.941,1322.422,585.831,1322.391,585.909,1322.391Zm-.72-1.721a1.276,1.276,0,0,1,.344.078.733.733,0,0,1,.157.094c-.047-.016-.094-.031-.157-.047a2.217,2.217,0,0,0-.344-.062c-.251-.047-.517-.078-.767-.125A3.431,3.431,0,0,1,585.189,1320.67Zm-.672,1.284c-.313-.016-.439-.063-.439-.157.329.047.61.078.61.141A.492.492,0,0,1,584.517,1321.954Zm.266.563c.015,0,.015,0,.031.031a.655.655,0,0,1-.3-.016c-.016-.015-.047-.015-.079-.031A2.61,2.61,0,0,1,584.783,1322.517Zm-19.95,6.878.172-.173c.063-.031.063-.015.125-.046a1.688,1.688,0,0,1-.2.187C564.88,1329.4,564.708,1329.536,564.833,1329.4Zm15.4-6.548a.1.1,0,0,1,.063.016h-.063c-.235-.016-.391,0-.454-.047A1.312,1.312,0,0,1,580.229,1322.847Zm-1.659.345c.266.016.5.031.72.063C578.727,1323.333,578.445,1323.349,578.57,1323.192Zm-.673-.422c.36,0,.72,0,1.064.015a4.908,4.908,0,0,1-1.142.032c-.454.031-.892.079-.955-.047Zm-4.146.706a11.116,11.116,0,0,1-1.252.251A3.322,3.322,0,0,1,573.751,1323.476Zm-3.395,1.691a26.047,26.047,0,0,1,2.926-.893c.234,0,.751-.157,1.017-.173a4.151,4.151,0,0,1-1.08.22,27.574,27.574,0,0,0-2.942.909A.273.273,0,0,0,570.356,1325.167Zm.047.407a9.9,9.9,0,0,1-.924.361C570,1325.59,570.418,1325.355,570.4,1325.574Zm-1.784.752c.329-.2.469-.282.61-.266C568.979,1326.154,568.854,1326.232,568.619,1326.326Zm.5-.908a.84.84,0,0,1-.406.282,2.83,2.83,0,0,1-.72.282c.328-.172.6-.345.86-.5C569.135,1325.309,569.166,1325.34,569.119,1325.418Zm-.688.611a1.819,1.819,0,0,1-.5.25A1.748,1.748,0,0,1,568.431,1326.029Zm-.235-.235a3.168,3.168,0,0,0-.547.329C567.93,1325.857,568.087,1325.794,568.2,1325.794Zm.22.642a6.672,6.672,0,0,1-1.33.626A3.934,3.934,0,0,1,568.416,1326.436Zm-2.426.564c-.782.47-1.58,1-2.347,1.566A12.967,12.967,0,0,1,565.99,1327Zm-2.174,3.225c-.281.219-.469.313-.735.532C563.5,1330.334,563.613,1330.271,563.816,1330.225Zm-2.034.642c.063-.047.126-.078.157-.11-.141.2-.172.251-.219.313-.016,0-.047,0-.047-.046C561.673,1331.024,561.767,1330.883,561.782,1330.867Zm-3.534,4.806c.047-.032.093-.094.109-.094a.829.829,0,0,1-.141.3c-.047.047-.078.078-.078.047A1.322,1.322,0,0,1,558.248,1335.673Zm.015.485a5.56,5.56,0,0,1-.469.735A3,3,0,0,1,558.263,1336.158Zm-.886,13.255a3.751,3.751,0,0,0-.156.61c-.11.407-.156,1.221-.36,1.252.125-.5.172-1.455.328-1.471C557.252,1349.694,557.283,1349.24,557.377,1349.413Zm-.615-10.767c.156-.328.36-.657.547-.986-.031.063-.031.126-.062.188-.156.3-.344.595-.5.908A.281.281,0,0,1,556.762,1338.646Zm.773,13.9a4.639,4.639,0,0,0-.032.47,4.385,4.385,0,0,1-.218,1.58,13.5,13.5,0,0,1,.187-1.58A4.732,4.732,0,0,1,557.535,1352.542Zm7.752,16.319c-.094-.094-.234-.172-.282-.25-.093-.078-.062-.094.016-.063a.927.927,0,0,1,.266.2C565.319,1368.814,565.287,1368.83,565.287,1368.861Zm-1.252,0c.173.265.329.516.517.766.172.2.423.422.188.376-.266-.329-.705-.736-.705-.892C564.161,1369.127,563.832,1368.8,564.035,1368.862Zm-3.46-4.772c-.157-.235-.3-.485-.219-.532A1.819,1.819,0,0,1,560.575,1364.09Zm-5.355-7.619a18.088,18.088,0,0,0,.142,1.941A4.271,4.271,0,0,1,555.22,1356.471Zm.8-.517a3.34,3.34,0,0,1-.032-.86v-.157a2.043,2.043,0,0,1,.063-.72c-.031.376-.031.595-.031.861v.016A7.862,7.862,0,0,1,556.018,1355.954Zm.642,1.956a11.459,11.459,0,0,1-.032-3.02c.015-.062.015-.109.031-.172v.172C556.612,1355.845,556.676,1356.971,556.66,1357.91Zm.251,1.753a2.123,2.123,0,0,1-.078-.642C556.942,1359.412,556.99,1359.647,556.911,1359.663Zm0,.047c.11.485.22.907.11,1.017A2.421,2.421,0,0,1,556.911,1359.71Zm.518,2.738c.078.235-.047.125-.2-.078a.847.847,0,0,1-.142-.469c-.015-.2-.047-.423-.047-.627-.094-.3-.125-.531-.016-.531.047.281.1.547.157.829C557.257,1361.869,557.335,1362.182,557.429,1362.448Zm-.112-6.291v-.751C557.332,1355.7,557.411,1356.048,557.317,1356.157Zm2.13,3.943c-.047-.2-.079-.391-.11-.579.063.266.2.61.11.579.063.25.125.5.188.751C559.525,1360.538,559.353,1360.131,559.447,1360.1Zm.972,4.256c-.11-.219-.314-.579-.2-.594a1.521,1.521,0,0,1,.3.672,7.454,7.454,0,0,1,.438.782,9.421,9.421,0,0,1,.94,1.643c.031.079.063.188-.063.063a.555.555,0,0,1-.266-.375,1.9,1.9,0,0,0-.125-.251C561.061,1365.655,560.716,1365,560.419,1364.356ZM561.5,1367a.167.167,0,0,0-.016-.078c-.251-.375-.454-.751-.674-1.126a1.074,1.074,0,0,0,.094.062c.267.47.549.939.846,1.393.11.2.2.422.329.61A3.355,3.355,0,0,1,561.5,1367Zm2.521,4.365c-.3-.422-1.128-1.189-1.049-1.408.157.407,1.08,1.2,1.3,1.6.219.266.705.657.705.813A11.136,11.136,0,0,1,564.021,1371.365Zm.859-2.363c.5.407.314.391.376.532.251.172.3.062.611.359.282.266-.11.032-.2,0-.156-.032.032.141.141.25.5.438.814.72.642.8a5.132,5.132,0,0,0-.939-.939C565.366,1369.737,564.63,1369.065,564.88,1369Zm1.488,2.738c-.845-.5-.72-.563-.5-.595C566.086,1371.411,566.2,1371.552,566.368,1371.74Zm-.438.955a5.09,5.09,0,0,0-.422-.532C565.9,1372.491,566.2,1372.71,565.93,1372.695Zm.752.579c.814.609,1.08.969,1.8,1.47q.4.328.845.657a8.929,8.929,0,0,1-1.628-1.142c-.407-.329-.782-.673-1.158-1.017-.141-.109-.438-.313-.376-.359A2.988,2.988,0,0,1,566.682,1373.274Zm1.392-2.145c-.2-.156-.376-.313-.58-.485.047.016.063.031.094.031.173.157.376.329.564.485A.16.16,0,0,1,568.074,1371.129Zm2.348,2.174c.344.25.72.469,1.1.7.328.188.657.36.892.532a8.261,8.261,0,0,1-1.018-.548c-.375-.234-.72-.453-1.08-.688-.594-.406-1.158-.813-1.706-1.235a.389.389,0,0,1,.11.031A19.454,19.454,0,0,0,570.422,1373.3Zm-.846-2.535c.235.219.532.391.485.454C569.811,1371.05,569.529,1370.862,569.576,1370.768Zm1.267-.11a.462.462,0,0,1-.078-.109c.109.062.188.094.235.125.062.031.109.078.109.094A.6.6,0,0,1,570.843,1370.658Zm1.44,1.048c0-.031-.015-.047,0-.062.032-.016.094,0,.266.093,0,.016.032.047.047.063C572.487,1371.769,572.393,1371.737,572.283,1371.706Zm-.015-.547c-.141-.11-.5-.266-.376-.3a1.935,1.935,0,0,1,.2.047c.281.141.172.157.281.251.11.078.345.187.282.234A2.6,2.6,0,0,1,572.268,1371.159Zm.8.688a3.33,3.33,0,0,1,.986.625A6.064,6.064,0,0,1,573.066,1371.847Zm1.738,1.126c-.063-.016-.141-.047-.251-.078,0-.016.031-.032.031-.047a.705.705,0,0,1,.22.078C574.835,1372.942,574.8,1372.957,574.8,1372.973Zm5.477.405a4.342,4.342,0,0,1-.986-.345,6.293,6.293,0,0,0,1.236.266c.25.016.36.063.282.109C580.735,1373.471,580.468,1373.409,580.281,1373.378Zm.844-1.5c-.078-.063-.532-.172-.188-.2a1.5,1.5,0,0,1,.657.14c0,.016.048.031.063.047C581.094,1371.734,581.3,1371.875,581.125,1371.875Zm.721,1.533a8.455,8.455,0,0,0,1.283.234C582.331,1373.643,582.018,1373.549,581.846,1373.408Zm1.2-1.111c.3.015.423.062.423.156-.329-.047-.611-.062-.611-.141C582.862,1372.312,582.988,1372.3,583.05,1372.3Zm-.282-.564c-.031,0-.078-.015-.047-.031a.79.79,0,0,1,.329.016c0,.015.031.015.062.046C583.019,1371.749,582.893,1371.749,582.768,1371.733Zm4.507-.346a2.343,2.343,0,0,1,.5.047A.966.966,0,0,1,587.275,1371.387Zm1.7-.329c-.265-.016-.484-.031-.7-.047C588.84,1370.917,589.121,1370.917,588.98,1371.058Zm.689.422h-1.08a5.122,5.122,0,0,1,1.143-.048c.454-.031.907-.078.954.047C590.342,1371.495,590,1371.5,589.669,1371.48Zm4.147-.69a8.808,8.808,0,0,1,1.221-.251A3.842,3.842,0,0,1,593.816,1370.79Zm3.379-1.707a26.164,26.164,0,0,1-2.925.893c-.235,0-.736.157-1.017.173a5.121,5.121,0,0,1,1.079-.22,23.694,23.694,0,0,0,2.957-.909A.243.243,0,0,0,597.2,1369.083Zm-.031-.407c.3-.078.751-.36.923-.36C597.555,1368.66,597.133,1368.911,597.164,1368.676Zm1.784-.752c-.313.219-.47.282-.61.266C598.572,1368.1,598.729,1368.034,598.948,1367.924Zm-.532.908a.945.945,0,0,1,.438-.266,2.132,2.132,0,0,1,.7-.282c-.329.156-.579.344-.86.5C598.416,1368.957,598.385,1368.91,598.416,1368.832Zm.7-.611a1.692,1.692,0,0,1,.516-.25A1.448,1.448,0,0,1,599.12,1368.221Zm.235.251c.156-.063.344-.22.548-.329C599.636,1368.393,599.48,1368.472,599.355,1368.472Zm-.2-.658a7.78,7.78,0,0,1,1.314-.626A4.024,4.024,0,0,1,599.151,1367.814Zm2.394-.548a26.059,26.059,0,0,0,2.378-1.582A12.685,12.685,0,0,1,601.545,1367.266Zm2.189-3.24c.314-.235.5-.329.783-.564C604.079,1363.916,603.954,1363.979,603.734,1364.026Zm2.035-.627a.571.571,0,0,0-.157.109,1.72,1.72,0,0,0,.219-.328c.016.015.063,0,.063.031S605.769,1363.383,605.769,1363.4Zm3.519-4.821c-.031.047-.063.094-.079.094a1.111,1.111,0,0,1,.126-.3c.062-.047.093-.078.093-.047S609.335,1358.484,609.288,1358.578Zm0-.486a7.113,7.113,0,0,1,.469-.72A2.741,2.741,0,0,1,609.288,1358.092Zm.978-18.419c-.062.673-.14,1.362-.234,2.035A6.545,6.545,0,0,1,610.266,1339.673Zm.08,4.554c.11-.391.14-1.221.344-1.252-.125.517-.187,1.455-.328,1.471-.047.11-.094.564-.172.391C610.252,1344.6,610.3,1344.415,610.346,1344.227Zm.443,11.377c-.172.344-.36.657-.547.986l.046-.188c.157-.282.344-.548.516-.845A.058.058,0,0,0,610.789,1355.6Zm.087-16.072a9.36,9.36,0,0,0,.047-.954c0-.548-.032-1.111-.032-1.628-.016-.219-.016-.407-.016-.61.031.219.063.407.078.594a9.622,9.622,0,0,1,.032,1.628A8.172,8.172,0,0,1,610.876,1339.532Zm.335,15.226a2.872,2.872,0,0,1,.313-.657A3.708,3.708,0,0,1,611.211,1354.758Zm2.314-5.884c.062-.282.109-.47.172-.345C613.618,1348.78,613.556,1348.936,613.525,1348.874Z" fill="#47aea9"/>
  </g>
</svg>
