<svg xmlns="http://www.w3.org/2000/svg" width="114.432" height="108.232" viewBox="0 0 114.432 108.232">
  <g id="_78" data-name="78" transform="translate(-115.285 -1467.922)">
    <g id="Group_86" data-name="Group 86">
      <path id="Path_18010" data-name="Path 18010" d="M201.266,1566.243a1.6,1.6,0,0,0,.413-.179,2.185,2.185,0,0,1,1.088-.548,1.4,1.4,0,0,0,.407-.2,1.739,1.739,0,0,0,.295-.233c.188-.207-.389.093-.612.153a5.1,5.1,0,0,0-.844.48C201.789,1565.886,201.243,1566.189,201.266,1566.243Z" fill="#47aea9"/>
      <path id="Path_18011" data-name="Path 18011" d="M215.285,1558.218a15.552,15.552,0,0,0-1.9,1.571A11.326,11.326,0,0,0,215.285,1558.218Z" fill="#47aea9"/>
      <path id="Path_18012" data-name="Path 18012" d="M211.95,1560.1c-1,.694-2.25,1.616-3.687,2.574A44.661,44.661,0,0,0,211.95,1560.1Z" fill="#47aea9"/>
      <path id="Path_18013" data-name="Path 18013" d="M216.308,1556.309c.054-.146.013-.172-.373.268a16.608,16.608,0,0,1-1.149,1.219,5.333,5.333,0,0,0,.974-.831A2.492,2.492,0,0,0,216.308,1556.309Z" fill="#47aea9"/>
      <path id="Path_18014" data-name="Path 18014" d="M217.962,1555.569c.016-.349-.537.371-1.245,1.256A14.9,14.9,0,0,0,217.962,1555.569Z" fill="#47aea9"/>
      <path id="Path_18015" data-name="Path 18015" d="M229.493,1525.391c-.01.367.16.011-.033,1.159-.017.109.041-.081.06-.1a5.162,5.162,0,0,0,.2-1.432C229.711,1524.246,229.578,1525.21,229.493,1525.391Z" fill="#47aea9"/>
      <path id="Path_18016" data-name="Path 18016" d="M220.288,1550.946a15.194,15.194,0,0,0,1.333-1.747A13.856,13.856,0,0,0,220.288,1550.946Z" fill="#47aea9"/>
      <path id="Path_18017" data-name="Path 18017" d="M226.975,1540.614c-.19.365-.383.736-.644,1.211C226.334,1542.178,226.587,1541.685,226.975,1540.614Z" fill="#47aea9"/>
      <path id="Path_18018" data-name="Path 18018" d="M225.177,1528.646a3.8,3.8,0,0,0-.076.772c.018.143.122-.286.136-.421.111-1.314.181-.616.269-1.164C225.448,1527.45,225.349,1527.664,225.177,1528.646Z" fill="#47aea9"/>
      <path id="Path_18019" data-name="Path 18019" d="M207.532,1564.874c-.361.065-.551.183-1.816.956C206.5,1565.352,206.84,1565.239,207.532,1564.874Z" fill="#47aea9"/>
      <path id="Path_18020" data-name="Path 18020" d="M224.526,1544.067c.112.081.5-.631.884-1.418a9.884,9.884,0,0,0,.948-1.956c-.293.6-.594,1.191-.9,1.766C225.152,1543,224.841,1543.541,224.526,1544.067Z" fill="#47aea9"/>
      <path id="Path_18021" data-name="Path 18021" d="M228.719,1529.338a3.077,3.077,0,0,0,.032-.421,5.374,5.374,0,0,0-.317,1.227C228.527,1530.189,228.616,1529.944,228.719,1529.338Z" fill="#47aea9"/>
      <path id="Path_18022" data-name="Path 18022" d="M226.572,1520.266c.056-.652.1-1.306.131-1.955A12.537,12.537,0,0,0,226.572,1520.266Z" fill="#47aea9"/>
      <path id="Path_18023" data-name="Path 18023" d="M221.364,1550.828a48.736,48.736,0,0,1-3.487,4.2,1.559,1.559,0,0,1-.086.144,49.8,49.8,0,0,0,3.515-4.2,9.2,9.2,0,0,0,1.187-1.589C222.185,1549.734,221.644,1550.572,221.364,1550.828Z" fill="#47aea9"/>
      <path id="Path_18024" data-name="Path 18024" d="M191.422,1570.57q.752-.123,1.491-.265c.08-.041.17-.072.248-.107-.535.112-1.069.211-1.608.3C191.505,1570.528,191.47,1570.545,191.422,1570.57Z" fill="#47aea9"/>
      <path id="Path_18025" data-name="Path 18025" d="M216.4,1557.169c-.169.065-.373.268-.824.767C215.876,1557.657,216.086,1557.467,216.4,1557.169Z" fill="#47aea9"/>
      <path id="Path_18026" data-name="Path 18026" d="M195.846,1569.3c-.032.023.025.023.114.005a1.532,1.532,0,0,0,.453-.184c.029-.023-.1.014-.189.024C196.074,1569.21,195.89,1569.278,195.846,1569.3Z" fill="#47aea9"/>
      <path id="Path_18027" data-name="Path 18027" d="M195.69,1569.594a9.583,9.583,0,0,0-1.235.307A5.824,5.824,0,0,0,195.69,1569.594Z" fill="#47aea9"/>
      <path id="Path_18028" data-name="Path 18028" d="M214.314,1558.177c.3-.265.544-.586.76-.772A2.759,2.759,0,0,0,214.314,1558.177Z" fill="#47aea9"/>
      <path id="Path_18029" data-name="Path 18029" d="M204.25,1565.643c-.029.042.009.043.027.06.1-.063.2-.125.526-.351-.087.036-.175.06-.294.113A2.05,2.05,0,0,0,204.25,1565.643Z" fill="#47aea9"/>
      <path id="Path_18030" data-name="Path 18030" d="M181.641,1571.387c.082-.054-.134-.065-.489-.077C181.005,1571.392,181.264,1571.4,181.641,1571.387Z" fill="#47aea9"/>
      <path id="Path_18031" data-name="Path 18031" d="M190.244,1570.757a5.966,5.966,0,0,0-1.026.162A5.292,5.292,0,0,0,190.244,1570.757Z" fill="#47aea9"/>
      <path id="Path_18032" data-name="Path 18032" d="M209.374,1563.707c-.238.206.051,0,.151-.058.07-.04.2-.151.386-.288a.686.686,0,0,0-.194.088A4.174,4.174,0,0,0,209.374,1563.707Z" fill="#47aea9"/>
      <path id="Path_18033" data-name="Path 18033" d="M229.242,1529.752c.021-.054.044-.1.059-.134a3.048,3.048,0,0,0,.1-.657c0-.062-.042.012-.055.082C229.313,1529.269,229.279,1529.52,229.242,1529.752Z" fill="#47aea9"/>
      <path id="Path_18034" data-name="Path 18034" d="M227.439,1538.372a4.425,4.425,0,0,0-.416.93A5.215,5.215,0,0,0,227.439,1538.372Z" fill="#47aea9"/>
      <path id="Path_18035" data-name="Path 18035" d="M214.66,1558.266a4.157,4.157,0,0,0,.706-.651A4.911,4.911,0,0,0,214.66,1558.266Z" fill="#47aea9"/>
      <path id="Path_18036" data-name="Path 18036" d="M201.963,1566.337a3.553,3.553,0,0,0,.816-.356A3.36,3.36,0,0,0,201.963,1566.337Z" fill="#47aea9"/>
      <path id="Path_18037" data-name="Path 18037" d="M227.918,1524.386c.043.139.1-.026.125-.578.032-.944.124-1.335.2-2.537-.123.818-.219,1.183-.288,2.056A4.368,4.368,0,0,0,227.918,1524.386Z" fill="#47aea9"/>
      <path id="Path_18038" data-name="Path 18038" d="M227.333,1528.908c.194-.832.345-1.836.492-2.416A7.875,7.875,0,0,0,227.333,1528.908Z" fill="#47aea9"/>
      <path id="Path_18039" data-name="Path 18039" d="M223.114,1542.505a7.562,7.562,0,0,0,.724-1.405A13.355,13.355,0,0,0,223.114,1542.505Z" fill="#47aea9"/>
      <path id="Path_18040" data-name="Path 18040" d="M226.183,1536.828a1.47,1.47,0,0,0,.1-.481s0-.113-.039-.033a1.687,1.687,0,0,0-.126.5C226.1,1536.938,226.088,1537.079,226.183,1536.828Z" fill="#47aea9"/>
      <path id="Path_18041" data-name="Path 18041" d="M225.508,1527.821a.025.025,0,0,1,0,.012h0v-.012Z" fill="#47aea9"/>
      <path id="Path_18042" data-name="Path 18042" d="M143.733,1473.066a1.625,1.625,0,0,0-.413.179,2.163,2.163,0,0,1-1.085.554,1.175,1.175,0,0,0-.41.2,1.992,1.992,0,0,0-.292.232c-.194.208.386-.093.612-.153a4.334,4.334,0,0,0,.841-.485C143.21,1473.423,143.76,1473.126,143.733,1473.066Z" fill="#47aea9"/>
      <path id="Path_18043" data-name="Path 18043" d="M125.97,1546.31a12.931,12.931,0,0,1-.973-2.5c-.246-.151.013.649.612,1.935.121.307.315.743.136.526-.133-.147-.616-1.026-.293-.272a7.1,7.1,0,0,0,.782,1.295c.082.3-.2.033.487,1.251C127.078,1548.776,126.087,1546.882,125.97,1546.31Z" fill="#47aea9"/>
      <path id="Path_18044" data-name="Path 18044" d="M157.5,1572.8c-1.787-.808-3.7-1.67-6.732-3.273A40.891,40.891,0,0,0,157.5,1572.8Z" fill="#47aea9"/>
      <path id="Path_18045" data-name="Path 18045" d="M129.714,1481.091a14.063,14.063,0,0,0,1.895-1.573A11.7,11.7,0,0,0,129.714,1481.091Z" fill="#47aea9"/>
      <path id="Path_18046" data-name="Path 18046" d="M133.052,1479.2c1-.695,2.25-1.616,3.687-2.575A44.735,44.735,0,0,0,133.052,1479.2Z" fill="#47aea9"/>
      <path id="Path_18047" data-name="Path 18047" d="M128.7,1483.005c-.052.146-.016.173.37-.267a15.02,15.02,0,0,1,1.151-1.225,5.754,5.754,0,0,0-.981.831A2.559,2.559,0,0,0,128.7,1483.005Z" fill="#47aea9"/>
      <path id="Path_18048" data-name="Path 18048" d="M125.209,1538.318c-.1-.7-.519-2.156-.773-3.36.1.6.2,1.2.311,1.8a35.126,35.126,0,0,0,.985,3.938,6.735,6.735,0,0,0,.422,1.14c.093.038-.168-.578-.258-.9C125.639,1540.068,125.413,1539.181,125.209,1538.318Z" fill="#47aea9"/>
      <path id="Path_18049" data-name="Path 18049" d="M162.027,1575.136c-1.738-.517-3.4-1.095-5.011-1.743A21.471,21.471,0,0,0,162.027,1575.136Z" fill="#47aea9"/>
      <path id="Path_18050" data-name="Path 18050" d="M129.582,1549.316c.11-.228-.976-2.122-1.273-3.018-.326-.779-.64-1.566-.936-2.361a9.374,9.374,0,0,0,.658,1.854C128.194,1546.54,129.338,1548.584,129.582,1549.316Z" fill="#47aea9"/>
      <path id="Path_18051" data-name="Path 18051" d="M127.04,1483.733c-.019.356.533-.365,1.248-1.244A13.17,13.17,0,0,0,127.04,1483.733Z" fill="#47aea9"/>
      <path id="Path_18052" data-name="Path 18052" d="M135.643,1556.757c-.326-.621-1.1-1.628-1.819-2.647A12.434,12.434,0,0,0,135.643,1556.757Z" fill="#47aea9"/>
      <path id="Path_18053" data-name="Path 18053" d="M115.509,1513.917c.009-.367-.165,0,.036-1.153.011-.115-.047.075-.063.1a5.08,5.08,0,0,0-.2,1.432C115.288,1515.062,115.425,1514.1,115.509,1513.917Z" fill="#47aea9"/>
      <path id="Path_18054" data-name="Path 18054" d="M124.711,1488.363a14.3,14.3,0,0,0-1.33,1.752A14.21,14.21,0,0,0,124.711,1488.363Z" fill="#47aea9"/>
      <path id="Path_18055" data-name="Path 18055" d="M155.469,1570.2a33.56,33.56,0,0,0-3.788-1.862C153.13,1569.122,154.151,1569.611,155.469,1570.2Z" fill="#47aea9"/>
      <path id="Path_18056" data-name="Path 18056" d="M118.028,1498.7c.186-.37.379-.736.64-1.217C118.668,1497.13,118.414,1497.623,118.028,1498.7Z" fill="#47aea9"/>
      <path id="Path_18057" data-name="Path 18057" d="M119.491,1511.484c.086-.563.159.137.277-1.171.013-.144.117-.567.135-.427a3.666,3.666,0,0,1-.074.782c-.027.161-.056.307-.087.437a2.166,2.166,0,0,0-.073.293c-.012.033-.021.082-.033.115C119.567,1511.711,119.534,1511.7,119.491,1511.484Z" fill="#47aea9"/>
      <path id="Path_18058" data-name="Path 18058" d="M125.4,1542.913c.126.438.23.81.416,1.43C126.124,1544.587,126.246,1544.66,125.4,1542.913Z" fill="#47aea9"/>
      <path id="Path_18059" data-name="Path 18059" d="M137.471,1474.44c.358-.064.55-.189,1.815-.961C138.495,1473.957,138.162,1474.069,137.471,1474.44Z" fill="#47aea9"/>
      <path id="Path_18060" data-name="Path 18060" d="M118.568,1533.569c-.034-.267-.1-.619-.148-.971-.087-.09.02.458.048.726.041.322-.1.087.07.8a3.238,3.238,0,0,0,.144.442C118.812,1534.743,118.616,1533.942,118.568,1533.569Z" fill="#47aea9"/>
      <path id="Path_18061" data-name="Path 18061" d="M119.54,1496.849c.31-.544.621-1.082.939-1.6-.117-.08-.507.632-.893,1.413a10.576,10.576,0,0,0-.939,1.955C118.931,1498.011,119.235,1497.424,119.54,1496.849Z" fill="#47aea9"/>
      <path id="Path_18062" data-name="Path 18062" d="M134.028,1557.461c-.575-.754-1.125-1.511-1.658-2.276-.017-.042-.043-.089-.068-.143a21.553,21.553,0,0,0-1.182-1.806c.234.405.47.817.71,1.222q.949,1.432,2.006,2.825C133.9,1557.344,133.957,1557.394,134.028,1557.461Z" fill="#47aea9"/>
      <path id="Path_18063" data-name="Path 18063" d="M127.978,1549.413a16.571,16.571,0,0,0-.937-2.122c-.3-.327-.01.267.237.772.222.559.443,1.111.694,1.7C128.28,1550.1,127.808,1549.258,127.978,1549.413Z" fill="#47aea9"/>
      <path id="Path_18064" data-name="Path 18064" d="M118.464,1531.456c-.064-.806-.042-1.18-.171-2.445A9.783,9.783,0,0,0,118.464,1531.456Z" fill="#47aea9"/>
      <path id="Path_18065" data-name="Path 18065" d="M116.283,1509.97a1.919,1.919,0,0,0-.028.427,6.029,6.029,0,0,0,.31-1.232C116.471,1509.12,116.382,1509.365,116.283,1509.97Z" fill="#47aea9"/>
      <path id="Path_18066" data-name="Path 18066" d="M118.43,1519.042c-.056.651-.1,1.306-.13,1.961A13.212,13.212,0,0,0,118.43,1519.042Z" fill="#47aea9"/>
      <path id="Path_18067" data-name="Path 18067" d="M123.634,1488.48a49.822,49.822,0,0,1,3.487-4.2c.021-.041.058-.1.083-.143a50.758,50.758,0,0,0-3.511,4.2,9.312,9.312,0,0,0-1.186,1.6C122.814,1489.575,123.358,1488.743,123.634,1488.48Z" fill="#47aea9"/>
      <path id="Path_18068" data-name="Path 18068" d="M153.576,1468.738c-.494.082-.994.171-1.493.272-.077.035-.167.065-.244.107.533-.118,1.07-.218,1.607-.312Z" fill="#47aea9"/>
      <path id="Path_18069" data-name="Path 18069" d="M147.271,1567.4a12.474,12.474,0,0,0-1.717-1.348A6.025,6.025,0,0,0,147.271,1567.4Z" fill="#47aea9"/>
      <path id="Path_18070" data-name="Path 18070" d="M145.554,1566.05a.26.26,0,0,1-.028-.022h-.006C145.533,1566.035,145.541,1566.046,145.554,1566.05Z" fill="#47aea9"/>
      <path id="Path_18071" data-name="Path 18071" d="M139.508,1561.17c-.185-.071.282.387.676.7.582.457.534.33.547.278C140.3,1561.87,139.856,1561.322,139.508,1561.17Z" fill="#47aea9"/>
      <path id="Path_18072" data-name="Path 18072" d="M135.7,1560.006c-1.064-1.227-2.05-2.484-2.978-3.78-.1-.17-.228-.356-.312-.516a3.543,3.543,0,0,0-.6-.8c-.27-.293-.193-.126-.08.061a18.352,18.352,0,0,0,2.407,3.317,13.358,13.358,0,0,0,1.331,1.534,5.1,5.1,0,0,0,1.1,1.243C136.735,1561.093,136.038,1560.418,135.7,1560.006Z" fill="#47aea9"/>
      <path id="Path_18073" data-name="Path 18073" d="M120.808,1537.7c-.107-.043.091.67.268,1.366C121.185,1539.03,120.953,1538.289,120.808,1537.7Z" fill="#47aea9"/>
      <path id="Path_18074" data-name="Path 18074" d="M141.6,1561.6c-.011-.188-1.085-.9-1.642-1.5A7.976,7.976,0,0,0,141.6,1561.6Z" fill="#47aea9"/>
      <path id="Path_18075" data-name="Path 18075" d="M121.578,1532.873c-.074-.584-.157-1.185-.3-2.088a15.889,15.889,0,0,0,.236,1.9c.12.806.254,1.609.406,2.416.256,1.318.562,2.636.914,3.973.033.058.068.136.1.2q-.539-2-.928-3.984C121.839,1534.486,121.705,1533.676,121.578,1532.873Z" fill="#47aea9"/>
      <path id="Path_18076" data-name="Path 18076" d="M126.319,1542.342c-.276-.332-.067.273.3,1.179C126.5,1543.057,126.42,1542.739,126.319,1542.342Z" fill="#47aea9"/>
      <path id="Path_18077" data-name="Path 18077" d="M144.77,1565.3c-.294-.291-.6-.58-.892-.865a3.31,3.31,0,0,0-.839-.65c-.473-.294-.776-.451-.4-.12.441.392.988.827,1.5,1.236.453.384.922.759,1.386,1.129C145.682,1566.016,145.3,1565.7,144.77,1565.3Z" fill="#47aea9"/>
      <path id="Path_18078" data-name="Path 18078" d="M140.118,1561.4c-.465-.231.26.409.618.748C140.814,1562.109,140.74,1561.973,140.118,1561.4Z" fill="#47aea9"/>
      <path id="Path_18079" data-name="Path 18079" d="M140.736,1562.143c-.006,0-.006,0,0,.008s.013.005.014.011S140.738,1562.156,140.736,1562.143Z" fill="#47aea9"/>
      <path id="Path_18080" data-name="Path 18080" d="M142.571,1564.076c.357.125-.283-.344-.886-.873A3.509,3.509,0,0,0,142.571,1564.076Z" fill="#47aea9"/>
      <path id="Path_18081" data-name="Path 18081" d="M126.081,1548.234c-.008.039-.054.019,0,.145a3.684,3.684,0,0,0,.38.653c.119.148.165.167.034-.075C126.4,1548.773,126.22,1548.481,126.081,1548.234Z" fill="#47aea9"/>
      <path id="Path_18082" data-name="Path 18082" d="M122.963,1541.007c.15.486.307.976.463,1.467.033.053.057.1.083.149-.165-.5-.32-.976-.471-1.475C123.013,1541.107,122.987,1541.047,122.963,1541.007Z" fill="#47aea9"/>
      <path id="Path_18083" data-name="Path 18083" d="M136.487,1561.326c.077-.041-.421-.534-.855-.97A6.788,6.788,0,0,0,136.487,1561.326Z" fill="#47aea9"/>
      <path id="Path_18084" data-name="Path 18084" d="M140.922,1565.944c.487.412.987.821,1.491,1.218C142.529,1567.122,141.608,1566.481,140.922,1565.944Z" fill="#47aea9"/>
      <path id="Path_18085" data-name="Path 18085" d="M142.413,1567.162c.007.005.007.005.009.018h.006C142.42,1567.167,142.42,1567.167,142.413,1567.162Z" fill="#47aea9"/>
      <path id="Path_18086" data-name="Path 18086" d="M128.6,1482.146c.174-.073.377-.269.823-.78C129.122,1481.651,128.92,1481.847,128.6,1482.146Z" fill="#47aea9"/>
      <path id="Path_18087" data-name="Path 18087" d="M149.156,1470.006c.035-.024-.028-.022-.114-.005a1.753,1.753,0,0,0-.456.184c-.029.023.111-.014.193-.018C148.928,1470.1,149.109,1470.037,149.156,1470.006Z" fill="#47aea9"/>
      <path id="Path_18088" data-name="Path 18088" d="M149.308,1469.715a8.55,8.55,0,0,0,1.236-.308A5.887,5.887,0,0,0,149.308,1469.715Z" fill="#47aea9"/>
      <path id="Path_18089" data-name="Path 18089" d="M155.064,1572.631c-.527-.229-1.048-.454-1.713-.774A7.813,7.813,0,0,0,155.064,1572.631Z" fill="#47aea9"/>
      <path id="Path_18090" data-name="Path 18090" d="M155.555,1571.231a16.751,16.751,0,0,0,1.867.786c.557.212,1.087.411,1.945.706a12.261,12.261,0,0,0-1.581-.627C157.135,1571.839,156.614,1571.615,155.555,1571.231Z" fill="#47aea9"/>
      <path id="Path_18091" data-name="Path 18091" d="M130.684,1481.132c-.294.264-.543.592-.76.771C130.079,1481.833,130.282,1481.643,130.684,1481.132Z" fill="#47aea9"/>
      <path id="Path_18092" data-name="Path 18092" d="M119.592,1536.816a2.126,2.126,0,0,0-.189-.6c-.026-.053,0,.119.033.261.028.122.1.341.183.6A1.224,1.224,0,0,0,119.592,1536.816Z" fill="#47aea9"/>
      <path id="Path_18093" data-name="Path 18093" d="M140.749,1473.665c.032-.042-.006-.043-.027-.06-.093.063-.193.126-.523.351.084-.03.169-.059.294-.113A3.047,3.047,0,0,0,140.749,1473.665Z" fill="#47aea9"/>
      <path id="Path_18094" data-name="Path 18094" d="M163.361,1467.927c-.082.054.133.059.481.065C163.991,1467.917,163.738,1467.917,163.361,1467.927Z" fill="#47aea9"/>
      <path id="Path_18095" data-name="Path 18095" d="M154.752,1468.552a6.683,6.683,0,0,0,1.033-.163A5.833,5.833,0,0,0,154.752,1468.552Z" fill="#47aea9"/>
      <path id="Path_18096" data-name="Path 18096" d="M135.625,1475.608c.244-.214-.051-.006-.15.058a4.446,4.446,0,0,0-.381.281.859.859,0,0,0,.191-.087A3.543,3.543,0,0,0,135.625,1475.608Z" fill="#47aea9"/>
      <path id="Path_18097" data-name="Path 18097" d="M115.757,1509.557a.753.753,0,0,1-.059.134,2.8,2.8,0,0,0-.1.656c0,.063.042-.012.052-.082C115.691,1510.039,115.724,1509.8,115.757,1509.557Z" fill="#47aea9"/>
      <path id="Path_18098" data-name="Path 18098" d="M170.043,1575.912c.032-.155-2.669-.4-3.961-.741-.081.212,2.221.545,3.329.726.508.081,1.017.162,1.71.257C171.624,1576.09,170.319,1575.991,170.043,1575.912Z" fill="#47aea9"/>
      <path id="Path_18099" data-name="Path 18099" d="M138.14,1559.785c.109.112.287.266.448.4-.089-.1-.171-.206-.274-.325a1.5,1.5,0,0,0-.365-.332C137.842,1559.469,137.939,1559.589,138.14,1559.785Z" fill="#47aea9"/>
      <path id="Path_18100" data-name="Path 18100" d="M147.32,1567.436v-.007c-.014-.011-.034-.02-.048-.031l.014.011C147.3,1567.419,147.306,1567.431,147.32,1567.436Z" fill="#47aea9"/>
      <path id="Path_18101" data-name="Path 18101" d="M148.546,1568.246c-.2-.177-.752-.5-1.226-.81C147.245,1567.49,147.679,1567.781,148.546,1568.246Z" fill="#47aea9"/>
      <path id="Path_18102" data-name="Path 18102" d="M143.557,1568.064c-.377-.287-.75-.586-1.135-.884C142.141,1567.1,143,1567.675,143.557,1568.064Z" fill="#47aea9"/>
      <path id="Path_18103" data-name="Path 18103" d="M117.56,1500.936a4.558,4.558,0,0,0,.419-.93A5.26,5.26,0,0,0,117.56,1500.936Z" fill="#47aea9"/>
      <path id="Path_18104" data-name="Path 18104" d="M118.248,1527.313c0,.082.034.311.053.466a.151.151,0,0,0,.063.005c-.032-.211-.054-.385-.082-.551C118.272,1527.253,118.242,1527.218,118.248,1527.313Z" fill="#47aea9"/>
      <path id="Path_18105" data-name="Path 18105" d="M118.991,1533.074c-.07-.25-.131-.488-.2-.726a1.481,1.481,0,0,1,0,.19,1.5,1.5,0,0,0,.164.6C118.97,1533.153,118.981,1533.094,118.991,1533.074Z" fill="#47aea9"/>
      <path id="Path_18106" data-name="Path 18106" d="M130.339,1481.049a4.021,4.021,0,0,0-.706.645A5.089,5.089,0,0,0,130.339,1481.049Z" fill="#47aea9"/>
      <path id="Path_18107" data-name="Path 18107" d="M143.033,1472.972a3.7,3.7,0,0,0-.813.355A3.238,3.238,0,0,0,143.033,1472.972Z" fill="#47aea9"/>
      <path id="Path_18108" data-name="Path 18108" d="M117.08,1514.917c-.042-.134-.1.032-.121.583-.033.944-.127,1.341-.2,2.543.13-.817.222-1.183.294-2.062A4.608,4.608,0,0,0,117.08,1514.917Z" fill="#47aea9"/>
      <path id="Path_18109" data-name="Path 18109" d="M117.668,1510.4c-.2.833-.347,1.836-.5,2.416A7.641,7.641,0,0,0,117.668,1510.4Z" fill="#47aea9"/>
      <path id="Path_18110" data-name="Path 18110" d="M121.882,1496.8a7.983,7.983,0,0,0-.717,1.41A14.124,14.124,0,0,0,121.882,1496.8Z" fill="#47aea9"/>
      <path id="Path_18111" data-name="Path 18111" d="M118.816,1502.481a1.6,1.6,0,0,0-.1.48s0,.113.043.033a1.718,1.718,0,0,0,.126-.5C118.9,1502.37,118.91,1502.229,118.816,1502.481Z" fill="#47aea9"/>
      <path id="Path_18112" data-name="Path 18112" d="M174.483,1574.958c.127,0,.266-.018.408-.02.221,0,.412.011.555.024a19.786,19.786,0,0,0,2.275.153c.283-.13-.743-.142-1.885-.186-.572-.038-1.13-.078-1.689-.133a7.794,7.794,0,0,0-1.493-.205c.138-.034-.087-.068-.567-.118-.176-.025-.337-.052-.5-.078-.483-.081-.92-.168-1.547-.262l-.029.4c.033.012.049.01.082.022.161.026.338.051.5.062.322.054.645.108.98.145.787.1,1.573.21,2.371.282a14.35,14.35,0,0,0,2.32.132,16.576,16.576,0,0,0-1.864-.142C174.427,1575.012,174.454,1574.977,174.483,1574.958Zm-2.864-1.072a6.734,6.734,0,0,0-1.552-.292l-.013.143c.45.069.947.132,1.555.2.033.011.08,0,.113.017C171.7,1573.923,171.669,1573.911,171.619,1573.886Zm8.35-2.936c.19.007.379,0,.567-.009a60.779,60.779,0,0,0,6.843-.4,53.8,53.8,0,0,0,12.91-3.182.119.119,0,0,0-.058.039,5.886,5.886,0,0,0,1.643-.729c.479-.2.927-.4,1.4-.62-.291.068-1.076.467-1.325.5-.18.071-.33.137-.494.205-.272.1-.866.393-.788.258.349-.234-.483.171-.386.064.134-.064.382-.222.456-.263a6.359,6.359,0,0,0-.693.262,4.842,4.842,0,0,1-.984.329c.421-.163.842-.327,1.261-.507.031,0,.059-.038.088-.058-.406.162-.829.31-1.236.456-.376.143-.77.272-1.148.4a.219.219,0,0,1,.019-.1c.665-.226,1.3-.464,1.945-.7a37.348,37.348,0,0,0,3.705-1.637,1.668,1.668,0,0,1,.236-.124c.386-.191.757-.38,1.143-.571.277-.177.57-.356.864-.52a12.369,12.369,0,0,0,1.683-1.033c-.091-.1-.63.253-1.431.78a22.556,22.556,0,0,0-3.023,1.661c-1.336.659-2.409,1.031-3.98,1.7-.89.318-1.8.622-2.725.9-.576.183-1.157.336-1.737.488a4.031,4.031,0,0,1-1.218.218c.444-.1.871-.221,1.3-.339a1.82,1.82,0,0,0,.667-.21.136.136,0,0,0,.1.019,6.756,6.756,0,0,0,.986-.314c-.1-.066-.423.022-1.085.279a5.168,5.168,0,0,0-1.135.254c-.167.053-.349.108-.518.145-.4.1-.8.18-1.211.28-.393.128-.8.244-1.2.357a1.074,1.074,0,0,0-.322-.054,5.372,5.372,0,0,0-1.734.378c-.746.094-1.114.047-2.149.225a2.834,2.834,0,0,1,1.031-.335c-.59.074-1.027.114-1.495.157a.452.452,0,0,0,.12-.046,58.065,58.065,0,0,0,9.065-1.907c.2-.057.468-.17.7-.246.91-.289,1.8-.591,2.7-.942.227-.076.514-.176.549-.275.207-.1.43-.212.638-.317a45.139,45.139,0,0,0,9.664-5.264,6.889,6.889,0,0,0,1.1-.771,2.942,2.942,0,0,0,1.027-.855c.149-.193.633-.6.957-.91a29.885,29.885,0,0,0,2.949-2.867c-.455.389-1.219,1.211-1.324,1.13a52.232,52.232,0,0,0,5.176-5.956,8.524,8.524,0,0,0,1.249-1.72c.093-.138.2-.278.279-.414a19.935,19.935,0,0,0,1.51-2.274,25.989,25.989,0,0,0,1.753-3.093c.727-1.354,1.331-2.567,1.811-3.385.073-.166.145-.349.218-.516.482-.929,1.1-2.915,1.505-3.93a9.174,9.174,0,0,0,.451-1.918c.112-.361.208-.72.32-1.082.012-.159.023-.318.034-.477l-.006-.047c-.334.973-.774,2.48-1.239,3.911a6.556,6.556,0,0,1-.6,1.607c-.544,2.056-.357.423-.8,1.869a1.9,1.9,0,0,1-.085.2c-.116.078-.2.168-.507.853a25.622,25.622,0,0,1-1.236,2.571,4.665,4.665,0,0,0-.527,1.313c-.064-.008.042-.416-.31.292-.146.1-.557.953-.666.967.023-.066.031-.13.054-.2.255-.6.085-.326.061-.386a7.678,7.678,0,0,1,.909-1.788c.169-.037.4-.491.834-1.635a13.1,13.1,0,0,1,.611-1.4,6.1,6.1,0,0,0,.547-1.536c.031,0,.035.027.085-.074.39-1.028.761-2.084,1.1-3.168.251-.757.469-1.526.687-2.3.266-1.012.516-2.022.764-3.3-.217.281-.745,3.455-.882,2.873.058-.544-.006-.551-.082-.4-.01-.078-.021-.045-.064.119-.144.728-.321,1.445-.489,2.112a6.459,6.459,0,0,0-.2.672c-.079.247-.174.5-.253.742a31.978,31.978,0,0,1-1.67,3.745c.175-.6.392-1.012.546-1.662-.108.014-.4,1.217-.558,1.443l-.028-.217a.989.989,0,0,1,.126-.505,4.249,4.249,0,0,0,.331-1.241c.066-.355-.122.158-.239.472a13.954,13.954,0,0,1-.866,2,6.966,6.966,0,0,0-.54,1.472c-.315.624-.617,1.23-1.116,2.145a6.534,6.534,0,0,0,1.061-1.964c.292-.558.568-1.113.825-1.7.2-.42.273-.461.152.075a4.945,4.945,0,0,0-.55,1.632c-.074.167-.151.3-.225.47a6.037,6.037,0,0,0-.6,1.117c-.8,1.49-1.7,2.928-2.624,4.308-.519.76-.986,1.308-1.717,2.378a26.271,26.271,0,0,1-1.846,2.112c-.318.356-.624.678-.944,1.019-.141.128-.281.272-.422.4-.1.061-.221.123-.324.183.362-.377.693-.75,1.038-1.141.322-.451.43-.465.761-.964.233-.282.448-.577.746-.962-.171.148-.248.157-.061-.229a12.432,12.432,0,0,0,1.559-2.138c.3-.4.575-.815.854-1.228-.031.13-.126.379.045.1a1.893,1.893,0,0,0,.255-.6,8.638,8.638,0,0,0,.644-1.138.016.016,0,0,0,.014-.018,39.392,39.392,0,0,0,3.262-6.124c.508-1.09,1.008-2.368,1.453-3.591a16.067,16.067,0,0,0,.762-2.2,2.6,2.6,0,0,0,.336-1.336c.192-1.223-.005-.536-.075-.464a8.249,8.249,0,0,0,.223-1.1c-.195.451-.439,1.381-.721,2.269.028-.4.035-.715-.119-.064-.25,1.01-.478,1.575-.756,2.494-.074.04,0-.616-.323.687-.064.245-.28.777-.242.331a.016.016,0,0,0-.018-.014,1.054,1.054,0,0,0,.049-.117.9.9,0,0,0-.031.131,37.843,37.843,0,0,0,1.41-4.675c.1-.3.193-.592.3-.905.079-.988-.155.272-.21.216.016-.254.019-.476.034-.73.2-1.287.387-1.8.562-2.784a9.018,9.018,0,0,0,.328-1.888c-.019-.9-.184,1.033-.294,1.158-.012.033-.031.13-.055.2a.261.261,0,0,0,0-.111c.006-.206-.006-.425-.016-.629a25.749,25.749,0,0,1-.56,3.053c-.052.211-.119.425-.189.623,0-.157.005-.332.015-.506-.03-.107-.067-.15-.136.174-.439,1.76-.455,1.762-.413.1a9.392,9.392,0,0,0,.244-1.561c0-.71-.124.142-.213.437-.077.262-.18.449-.071-.306.248-1.656.375-3.518.547-4.9.021-.207.061-.386.085-.2.014.234-.067.717-.037.951.314-1.507.267-4.609.406-6,.081-.736.094-1.747.093-2.756-.008-.062,0-.127-.006-.173a4.86,4.86,0,0,0-.133-1.166c-.135-.693-.111-.254-.077.262.07,1.174-.106.155-.2.057-.012-.22-.057-.451-.084-.668a10.591,10.591,0,0,0,.041,1.572l.083.652c.09.336.085-.2.139-.27.058.829-.049.858.009,1.687,0,1.372-.194,1.334-.2,3.038q-.057.858-.16,1.724c-.076.025-.146-.282-.231.171-.053.575-.124,1.136-.2,1.7.012.094.01.2.022.3.069-.577.142-1.122.21-1.7a12.69,12.69,0,0,1-.232,2.522c-.178.464-.352,2.079-.575,2.928l-.093.39c-.009.048-.021.081-.03.13l0,.016-.029.145c-.01.049-.006.08-.017.113a.016.016,0,0,1-.014.017c0,.016,0,.016-.012.033,0,.016,0,.016-.011.033a4.035,4.035,0,0,1-.1.676c0,.016-.013.018-.011.033s-.01.049-.008.064l0,.031a.915.915,0,0,0-.039.194,1.834,1.834,0,0,0-.077.262c-.113.472-.229.929-.356,1.544l-.016,0c-.142.491-.293.921-.472,1.622-.159.241-.392,1.138-.628,1.767-.174.495-.35.975-.541,1.457a.218.218,0,0,1-.072.057c-.208.467-.481,1.18-.5.868a43.424,43.424,0,0,0,1.543-4.5,55.648,55.648,0,0,0,2-9.387c.054-.322.077-.767.1-1.18.023-.192.03-.382.051-.59.166-1.677.249-3.391.265-5.129.005-.458.008-.931.013-1.389-.005-.536-.023-1.054-.042-1.572l-.155.019c.005.536.012,1.087,0,1.578-.018.476-.043.9-.079,1.241-.051-.278-.041.052-.062.134-.039.194-.12.425-.2-.1a6.773,6.773,0,0,1-.061-1.222c.008-.064,0-.142.006-.206,0-.394-.046-.862-.094-1.361l-.624,2.54c.042.452-.863-1.831-1-.757,0,.095.008.188,0,.283-.088.422-.047,1.615-.11,2.365-.052-.909-.195-1.663-.3-2.6q-.062-.489-.089-1.077c0-.157-.56.812-.564.655l-.423-1.224c.03-.382-.374.537-.6,1.259.028.217.038.421.06.592.068,1.158-.06,1.522-.06,2.515l-.015,1.375-.016,0c-.062-.119-.124-.111-.133.443a1.261,1.261,0,0,0,.124.725c-.08.736-.159,1.487-.254,2.225-.014-.235-.013-.472-.029-.722a2.535,2.535,0,0,0,.03-.887,8.971,8.971,0,0,1,.126-2.24c-.012-.219-.005-.536-.017-.629-.045-.357-.07-.054-.077.136-.037-.169-.059-.34-.094-.493.009-.3.018-.6.01-.916.016-.491.017-.98,0-1.483.013-.522.01-1.042-.01-1.576l-.215.674c.02.534-.119.425-.116.946,0,.394,0,.772,0,1.135-.026.414-.019,1.091-.037,1.692a3.5,3.5,0,0,1-.146,1.218c.068-1.334.087-2.677.073-4.032-.019-.518-.106-3.82-1.167-1.114l.062,1.112-1.576-1.235.207,1.015-1.06.592-.043.036-.279.162-.089.043c-.158.619-.244.693-.314.513l0-.016c-.162-.531-.2-2.956-1.1-1.248l-.6-.034-.462-.036-.06-.1-.536-.862-1.135.128c.041.326.179,1.539.213,2.055a41.071,41.071,0,0,1-34.194,43.945c-.51.08-1.036.163-1.549.228l-.015,0a37.123,37.123,0,0,1-5.293.308c-.518.019-1.04.006-1.564-.022l-.526,9.783c.516.093,1.033.185,1.561.244.275.06.565.1.854.144a49.73,49.73,0,0,0,6.371.486c.268,0,.538.011.821.006l-.051-.4Zm-2.593-5.65c-.192-.023-.383-.03-.59-.051.17-.022.372-.047.576-.057l0,.031,0,.015Zm-7.255,7.23,0,.095C170.6,1572.659,170.558,1572.616,170.121,1572.53Zm1.6-.8c-.357-.081-.887-.155-1.545-.246l0,.142c.561.071,1.105.128,1.54.2.174.01.32.039.448.054C172.129,1571.818,171.982,1571.773,171.723,1571.727Zm-1.558.15,0,.1c.433.055.928.1,1.547.135C171.495,1572.04,170.7,1571.952,170.165,1571.877Zm.816-.655c-.052-.041-.074-.085-.126-.126-.212-.052-.439-.1-.653-.17l-.013.4a6.4,6.4,0,0,0,.748.174C171.748,1571.424,171.9,1571.358,170.981,1571.222Zm6.186-101.865-1.54-.326-.515,9.625c.524.028,1.035.073,1.561.117Zm-5.459,102.751,0,.015.032,0A.058.058,0,0,0,171.708,1572.108Zm50.38-56.251c0-.237,0-.473.005-.71.007-.19.015-.381.007-.569a2.894,2.894,0,0,0-.116.583,2.182,2.182,0,0,1,.009.314,18.84,18.84,0,0,0,.01,2.318A15.073,15.073,0,0,0,222.088,1515.857Zm-6.74-.786c.013-.27-.02-.407-.1-.271-.249.394-.242.33-.277-.817-.053.322-.109.629-.147.949l-.052.338.557.04Zm2.577,6.015c.013-.018.013-.018.011-.033a30.9,30.9,0,0,0,.05-3.839c-.163-.043-.179.953-.212,2.061a6.642,6.642,0,0,1-.071,1.429c-.082.1-.112-.633-.162-1.147-.018-.266.007-.821-.048-1.129.036-.21.055-.433.107-.645l.064.007a5.011,5.011,0,0,0-.029.761c.054.057.139-.144.11-1.118a2.289,2.289,0,0,1,0-.363c.016-.491.035-.967.036-1.455a4.088,4.088,0,0,0,.009-.428,2.073,2.073,0,0,0-.053-.293c0,.253,0,.505,0,.757-.015.381-.027.777-.044,1.142-.046.258-.107.155-.164-.169a5.222,5.222,0,0,0-.071-.811,4.411,4.411,0,0,0-.075-.464,10.228,10.228,0,0,0-.067-1.774c-.048.243-.1.47-.148.7a15.652,15.652,0,0,0-.115,2.081l0,.016c0,.237,0,.489-.016.743a8.11,8.11,0,0,0-.019,1.217,1.593,1.593,0,0,1-.1.249c-.062.008-.1.313-.066,1.1-.023.192-.044.4-.067.592-.069-.544-.134.553-.222.359-.016-.5.016-1.485-.038-1.667-.092-.225-.141.507-.2,1.066-.032.367-.069.7-.119,1.056l.006.047a5.4,5.4,0,0,0-.313,1.507l1.826-.027C217.82,1522.124,217.881,1521.612,217.925,1521.086Z" fill="#47aea9"/>
      <path id="Path_18113" data-name="Path 18113" d="M170.041,1574.133c-.192-.023-.4-.059-.643-.092.13-.095-1.039-.231-1.879-.392-.633-.141-1.4-.312-1.329-.4a5.825,5.825,0,0,0,.62.032.679.679,0,0,0-.148-.044c-.406-.091-1.031-.169-1.641-.25a33.184,33.184,0,0,1-3.534-1.129,15.285,15.285,0,0,1-1.677-.655c3.075.983,6.207,1.674,8.4,2.169-.058.039-.017.112.928.229.29.042.6.082.917.136l.013-.143-.015,0c-.323-.054-.627-.095-.95-.148-.153-.091-1.423-.277-1.132-.346a7.618,7.618,0,0,0,1.477.207,3.852,3.852,0,0,0,.427.009c0-.015-.4-.075-.63-.125-.923-.183-2.272-.374-3.6-.616-.97-.3-2.42-.671-4.156-1.177-1.239-.442,1.067-.041,1.1-.187a8.177,8.177,0,0,1,1.612.269c1.567.417,3.1.727,3.623.961a13.721,13.721,0,0,1-2.353-.27,16.4,16.4,0,0,0,2.777.5c1.275.106.1-.107.471-.139.67.057,1.132.093,1.4.091l0-.095a1.416,1.416,0,0,1-.209-.037c-1.45-.242-3.052-.559-4.437-.9-.65-.154-1.866-.41-1.736-.505,1.707.272.209-.09.685-.072.757.125,1.155.28,2.081.367,1.606.223,2.278.421,3.656.594l0-.1a1.494,1.494,0,0,1-.5-.109c-.307-.182-3.9-.673-2.589-.761.325.07.616.128.923.183a7.127,7.127,0,0,0,2.184.433l0-.142c-.159-.011-.336-.036-.513-.061-1.695-.305-3.318-.667-5.083-1.153,1.881.408,3.571.667,5.318.887-.01.049.076.1.289.168l.013-.4c-2.217-.57-4.719-1.263-7.411-2.215.261.062.519.108.779.17a54.224,54.224,0,0,0,6.657,1.616l.526-9.783a41.069,41.069,0,0,1-38.827-34.134c-.1-.508-.176-1.019-.243-1.546l-.026-.2a41.1,41.1,0,0,1,35.614-45.939l.015,0c.528-.067,1.043-.116,1.559-.15a37.141,37.141,0,0,1,6.267-.085l.515-9.625c-1.117-.221-2.262-.423-3.417-.576a47.143,47.143,0,0,0-4.725-.442c-.509-.03-1.033-.058-1.584-.051-.286-.012-.571-.023-.87-.017l.051.405a.866.866,0,0,0-.2.04,63.892,63.892,0,0,0-7.394.4,53.03,53.03,0,0,0-12.91,3.183c.014-.018.029-.02.058-.039a5.574,5.574,0,0,0-1.66.715c-.464.2-.925.417-1.387.633.291-.068,1.077-.468,1.325-.5l.495-.205c.256-.095.849-.391.77-.271-.289.21.293-.053.4-.067l0,.016c-.178.086-.473.249-.473.249a2.866,2.866,0,0,0,.708-.263,5.545,5.545,0,0,1,.986-.314l-1.263.491a.6.6,0,0,1-.1.076c.421-.164.826-.326,1.249-.474.379-.127.772-.255,1.151-.382,0,.031-.024.066-.022.081-.663.242-1.3.464-1.943.72a29.6,29.6,0,0,0-3.7,1.637,1.254,1.254,0,0,1-.254.111c-.368.2-.754.4-1.124.584-.295.164-.573.341-.865.52a12.469,12.469,0,0,0-1.683,1.034c.076.1.63-.254,1.431-.781a23.544,23.544,0,0,0,3.008-1.659c1.351-.661,2.408-1.031,3.995-1.706.888-.333,1.8-.622,2.708-.911.593-.17,1.172-.338,1.752-.49a4.246,4.246,0,0,1,1.205-.2c-.429.1-.856.219-1.285.32a1.692,1.692,0,0,0-.681.229c-.023-.06-.45.057-1.067.293.1.05.422-.038,1.085-.28a4.617,4.617,0,0,0,1.133-.27c.169-.037.351-.092.505-.127.413-.1.811-.2,1.21-.28.41-.131.821-.246,1.217-.359a1.914,1.914,0,0,0,.322.054,5.762,5.762,0,0,0,1.719-.376c.745-.094,1.128-.064,2.164-.227a2.811,2.811,0,0,1-1.03.336c.574-.073,1.026-.115,1.494-.158a.357.357,0,0,0-.12.047,55.977,55.977,0,0,0-9.065,1.906c-.2.057-.47.154-.71.248-.9.272-1.8.591-2.691.925-.24.093-.512.191-.547.29-.222.107-.432.2-.638.318a44.059,44.059,0,0,0-9.68,5.265,7.534,7.534,0,0,0-1.1.771,2.822,2.822,0,0,0-1.012.854c-.166.179-.633.6-.957.91a31.644,31.644,0,0,0-2.951,2.851c.456-.389,1.2-1.21,1.326-1.115a55.524,55.524,0,0,0-5.194,5.943,8.876,8.876,0,0,0-1.231,1.733c-.108.14-.2.279-.294.416a24.4,24.4,0,0,0-1.51,2.274,28.625,28.625,0,0,0-1.753,3.093c-.712,1.353-1.316,2.565-1.8,3.383-.073.167-.146.334-.218.516-.482.929-1.1,2.916-1.5,3.93a8.583,8.583,0,0,0-.466,1.92c-.1.344-.209.721-.305,1.08-.011.159-.023.318-.034.478.334-.973.778-2.45,1.245-3.865a6.351,6.351,0,0,1,.585-1.6c.559-2.059.355-.44.8-1.869a1.317,1.317,0,0,0,.085-.2c.117-.078.215-.17.523-.855a20.991,20.991,0,0,1,1.234-2.586,4.561,4.561,0,0,0,.514-1.3c.077-.009-.027.414.325-.293.128-.111.556-.97.664-.983-.021.081-.031.129-.052.211-.27.6-.085.326-.077.388a6.509,6.509,0,0,1-.909,1.788c-.153.035-.395.492-.818,1.634a15.317,15.317,0,0,1-.626,1.4,6.349,6.349,0,0,0-.547,1.536c-.015,0-.035-.027-.072.057-.39,1.027-.774,2.1-1.11,3.185-.235.756-.469,1.526-.687,2.3-.25,1.009-.5,2.035-.765,3.3.233-.281.761-3.456.9-2.874-.059.528-.011.538.082.4-.008.064.019.029.064-.118.144-.728.306-1.443.489-2.113.07-.2.12-.425.183-.67.1-.249.172-.511.267-.76a31.334,31.334,0,0,1,1.67-3.745c-.175.606-.406,1.03-.562,1.665.125-.016.415-1.2.574-1.445a.93.93,0,0,1,.012.219c-.015.128.059.087-.123.52a4.035,4.035,0,0,0-.318,1.224c-.064.371.122-.158.226-.455a15.3,15.3,0,0,1,.866-2,6.748,6.748,0,0,0,.553-1.489c.3-.606.6-1.213,1.118-2.13a6.232,6.232,0,0,0-1.076,1.967c-.278.54-.553,1.111-.828,1.682-.2.435-.27.476-.134-.062a4.517,4.517,0,0,0,.535-1.629c.073-.168.151-.3.24-.473a9.951,9.951,0,0,0,.584-1.115c.82-1.492,1.693-2.943,2.624-4.308.535-.761,1-1.31,1.716-2.394.475-.486,1.441-1.823,1.861-2.113.305-.338.609-.677.93-1,.142-.129.3-.275.436-.418l.309-.181c-.347.375-.692.765-1.037,1.156-.306.449-.432.449-.761.964l-.732.945c.173-.132.25-.142.047.246a11.814,11.814,0,0,0-1.559,2.138c-.28.4-.575.814-.838,1.227.029-.146.108-.393-.06-.1a2.033,2.033,0,0,0-.255.6,10.148,10.148,0,0,0-.647,1.123l0,.031a39.462,39.462,0,0,0-3.277,6.126c-.508,1.09-1.009,2.368-1.453,3.592a18.243,18.243,0,0,0-.763,2.194,2.7,2.7,0,0,0-.335,1.336c-.192,1.223.018.519.09.462a5.891,5.891,0,0,0-.223,1.1c.193-.466.44-1.381.706-2.266-.028.4-.036.714.134.061.251-1.009.477-1.59.756-2.493.074-.041-.016.617.323-.688.064-.245.28-.777.227-.328l.016,0a.447.447,0,0,0-.047.132,1,1,0,0,1,.031-.13,40.656,40.656,0,0,0-1.411,4.674c-.088.3-.177.591-.281.888-.078,1,.156-.257.195-.2,0,.237-.018.476-.018.728-.215,1.289-.4,1.787-.562,2.785a7.183,7.183,0,0,0-.328,1.887c0,.883.184-1.033.279-1.156.012-.033.031-.13.054-.195,0,.031,0,.079,0,.11.011.2.007.425.017.629a29.279,29.279,0,0,1,.573-3.07c.054-.2.122-.41.191-.608-.011.159,0,.332-.015.507.028.091.051.151.136-.175.424-1.758.439-1.759.4-.1a11.68,11.68,0,0,0-.246,1.546c0,.725.126-.127.23-.424.076-.278.18-.449.071.307-.25,1.64-.373,3.533-.56,4.913-.023.192-.064.371-.072.183-.031-.249.067-.719.022-.949-.3,1.5-.27,4.593-.407,6-.065.734-.094,1.747-.092,2.757a7.641,7.641,0,0,0,.138,1.339c.151.69.111.254.091-.28-.068-1.159.108-.14.184-.039l.089.7a11.273,11.273,0,0,0-.128-2.256c-.077-.353-.085.2-.14.27-.057-.828.047-.873-.008-1.686,0-1.357.209-1.336.215-3.025.036-.588.088-1.178.141-1.753.078-.01.164.295.233-.156.068-.576.124-1.135.208-1.714a1.866,1.866,0,0,1-.02-.281c-.086.563-.157,1.124-.21,1.7a12.886,12.886,0,0,1,.23-2.537c.18-.449.354-2.064.577-2.913.039-.194.083-.341.106-.533l0-.016c.194-1.334.437-1.9.691-3.132l0-.015c.161-.478.309-.923.475-1.606a12.88,12.88,0,0,0,.626-1.783c.191-.482.365-.978.556-1.459a.359.359,0,0,1,.072-.057c.195-.451.483-1.165.507-.853a40.365,40.365,0,0,0-1.543,4.5c-.4,1.329-.75,2.667-1.051,4.03a2.166,2.166,0,0,0-.073.293c-.012.033-.021.082-.033.115-.346,1.621-.644,3.252-.855,4.951-.038.32-.058.78-.1,1.18-.008.19-.031.382-.054.575-.148,1.691-.248,3.391-.264,5.128-.016,1.122.006,2.287.049,3.37.022.549.042,1.083.057,1.57l.024.565a10.194,10.194,0,0,0,.106,1.832,9.225,9.225,0,0,1-.182-.939,4.627,4.627,0,0,0,.109,1.106c.09.462.069.054.1.208.074.337.131.661.289,1.414-.216-1.455-.117-1.8-.3-3.148-.012-.345-.027-.707-.039-1.052l-.018-.518c-.009-.315-.007-.678-.008-1.056a26.472,26.472,0,0,1,.082-3.213c.066.276.04-.052.062-.133.054-.2.119-.426.2.1a7.665,7.665,0,0,1,.07,1.427,14.592,14.592,0,0,0,.128,1.75c.045.483.106.965.163,1.415l.018.14a8.026,8.026,0,0,0,.559,2.295,4.069,4.069,0,0,1,.205.873c.057.45-.005.332-.118-.064-.242-.916-.281-.595-.5-1.371.214,1.313.507,2.506.7,3.807.046-.385.065-.608.086-.816.211.794.538,2.251.628,1.845.1-.455.109-.392.572.653-.256-1.024-.44-1.979-.78-3.166l-.039-.311c.062.119.046-.132.2.307.137.455.049.009-.057-.451l-.035-.279c.084.163.109.112.024-.429-.11-.617-.073-.7.072-.309.127.378-.04-.563.05-.353.045.357.092.729.122,1.088,0,.631.242,1.91.372,2.808a7.329,7.329,0,0,0,.245,1.437c.055.308.123.6.192.89.029.233.2.731.1.65a1.5,1.5,0,0,0,.127.5,5.864,5.864,0,0,1,.331.873c.106.208-.049-.262-.094-.493-.074-.337-.185-.717-.281-1.1-.3-1.587-.512-3.042-.867-5.221-.068-1.033-.2-2.42-.285-3.86-.03-.485-.058-.955-.072-1.442a.334.334,0,0,1,0-.126c-.033-.753-.067-1.522-.067-2.264.089-.421.066-1.6.128-2.351.061,1.223.291,2.172.372,3.676.022.3.041.578.063.876.036.531.086,1.046.135,1.56.067.654.115,1.279.159,1.873a37.3,37.3,0,0,0,.736,5.553c.215.951.683,2.406,1.13,3.69.173-.006-.1-.949-.431-2.027a6.167,6.167,0,0,1-.365-1.389c.064-.119.31.575.5,1.041.111.254.273.786.4,1.069.043.215.086.431.116.663-.031,0-.048-.009-.064-.007a7.1,7.1,0,0,0-.219-.73c-.083-.037-.087.185.249,1.089a3.026,3.026,0,0,0,.109.364c.156.612.324,1.19.512,1.8.043.089.1.176.144.266-.188-.608-.359-1.217-.531-1.826-.032-.248.04-.179.2.116a5.794,5.794,0,0,0,.524,1.148,10.088,10.088,0,0,0,.624,1.688l-.091-.714a17.831,17.831,0,0,0-.742-2.745,11.277,11.277,0,0,0-.353-1.17c.005-.08-.007-.173,0-.252.076-.026.005-.332-.246-1.074-.041-.2-.1-.382-.137-.582.251.489-.022-.549.09-.4a16.212,16.212,0,0,0,.58,1.583c.149.185-.036-.532-.156-1.1q-.114-.53-.229-1.059a11.277,11.277,0,0,0-.594-3.316,20.552,20.552,0,0,0-.257-2.776c-.026-.328-.036-.657-.044-.972-.036-.532-.07-1.048-.073-1.568-.017-.755-.036-1.526-.022-2.285.031-.508.035-1.093-.009-2.317a12.289,12.289,0,0,0-.086,1.935c-.021.46-.03.887-.017,1.359a18.252,18.252,0,0,1-.006-3.154c-.01-.456.01-.917.015-1.375.062.119.14.109.133-.442.009-.68-.067-.528-.108-.728.065-.734.159-1.487.255-2.225,0,.237.012.472.012.724a3.011,3.011,0,0,0-.014.885,11.311,11.311,0,0,1-.126,2.24,3.7,3.7,0,0,0,.017.629c.045.357.054.056.077-.136.022.171.057.324.1.508-.011.286-.02.587-.029.888-.029,1.139-.01,2.288.029,3.466,0,.142.018.266.021.408.019.029.042.089.052.04,0-.094-.014-.234-.014-.361.084.542.165,1.052.185,1.46a2.066,2.066,0,0,1,.016.629,6.116,6.116,0,0,0,.176,1.634,3.751,3.751,0,0,0,.242.663c.173.372.036-.462,0-.868-.067-.653-.124-1.356-.17-2.091-.05-.515-.084-1.031-.12-1.563-.054-1.05-.1-2.117-.077-3.1.027-.413.02-1.091.038-1.692a3.028,3.028,0,0,1,.161-1.219,49.334,49.334,0,0,0,0,5.994c.018.517.054,1.049.1,1.564a1.755,1.755,0,0,0,.02.281,40.064,40.064,0,0,0,1.4,8.814c.131.535.264,1.086.41,1.62a45.19,45.19,0,0,0,1.422,4.867c.152.076-.308-.939-.18-.924.571,1.4.922,2.3,1.255,3.185a10.491,10.491,0,0,0,1.4,2.82c.693,1.111.845,1.565,1.361,2.4l0,.015q1.008,1.789,2.149,3.513a16.8,16.8,0,0,1-1.1-1.611c-.255-.393-.423-.719-.981-1.516-.01.175.234.6.784,1.336.421.7.84,1.392,1.3,2.075.293.452.6.886.926,1.334a.431.431,0,0,1,.109.112c-.236-.365-.456-.731-.676-1.1.074.085.164.168.255.267.781,1.305,2.59,3.379,3.123,4.226.533.595,1.1,1.17,1.655,1.73.089.21.234.476,1.24,1.326a21.389,21.389,0,0,0,4.04,3.242c.07.054.124.11.159.137.472.366.945.732,1.43,1.081.762.534.02.155-.644-.234a5.921,5.921,0,0,0-1.166-.862c.013.109.546.452.828.684.326.211.655.438.981.649a31.569,31.569,0,0,0,5.134,3.292,12.515,12.515,0,0,0,2.562,1.3c-.514-.329-1.455-.778-2.232-1.184-1.237-.679-2.432-1.395-3.567-2.134.767.2-.671-.689-1.225-1.2-.1-.192-1.083-.825-1.6-1.264a10.462,10.462,0,0,0-1.258-.961c-1.273-.958-2.769-2.188-1.728-1.689.417.183-.31-.45-1.085-1.093-.653-.548-1.035-.942-1.622-1.467-.241-.284-.482-.57-.706-.841-.047-.12-.13-.283-.71-.872-.182-.071-.013.144.193.4.23.317.475.633.7.936.423.467.4.533-.121.157a5.336,5.336,0,0,1-.528-.548,50.238,50.238,0,0,1-4.817-6.519c.364.506.907,1.178,1.1,1.469a15.336,15.336,0,0,0,3.466,3.694c-.084-.037-.292-.185-.1.06a1.725,1.725,0,0,0,.393.36c.223.145.375.221.044-.147-.226-.287,1.4,1.21.472.239a12.2,12.2,0,0,0-1.456-1.408,8.451,8.451,0,0,1-2.239-2.351c-.251-.362-.515-.707-.753-1.087a15.017,15.017,0,0,0-1.834-2.276.584.584,0,0,1-.115-.158c-.019-.03-.023-.061-.045-.1-.428-.766.377.109.134-.443-.417-.925-1.617-2.918-2.02-3.987-.193-.4-.386-.8-.561-1.191a20.59,20.59,0,0,1-1.19-3.036c-.561-1.443-.652-2.157-1.181-3.714-.207-.763-.412-1.51-.586-2.261-.317-1.505-.738-3.455-.984-5.27-.065-.386-.114-.774-.161-1.146a3.493,3.493,0,0,1,.228.806c.234,1.47.512,2.917.854,4.372,0-.031.008-.064,0-.111.026.076.016.125,0,.111.408,1.841.988,3.8,1.575,5.574a46.77,46.77,0,0,0,2.158,5.2,61.459,61.459,0,0,0,4.285,7.422,20.463,20.463,0,0,0,1.535,2.03,38.245,38.245,0,0,0,4.18,4.849,12.984,12.984,0,0,0,1.911,1.887c.126-.126-.98-1.011-1.4-1.478a.261.261,0,0,0,.07.054c.344.1.732.3,2.393,1.7a5.463,5.463,0,0,0-1.272-1.448.485.485,0,0,1-.1-.066c-.183-.071.154.343-.861-.569a8.84,8.84,0,0,1-1.4-1.417c-.021-.17,1.209.825,1.33.9a8.207,8.207,0,0,0,.941.7c-.059-.088-.854-.76-.722-.713-.146-.155.076-.026.317.133.173.12.344.225.532.343.375.346.749.678,1.139,1.022.531.454,1.062.907,1.608,1.358a29.865,29.865,0,0,0,5.238,3.737,56.136,56.136,0,0,1-5.211-3.772,13.614,13.614,0,0,1-1.45-1.236c-.4-.391-.793-.782-1.174-1.175.5.331.1-.061.442.133a11.1,11.1,0,0,1,1.989,1.5,48.1,48.1,0,0,0,8.893,6.191,7.041,7.041,0,0,0,1.157.547,18.188,18.188,0,0,0,2.25,1.072c.018.013.018.013.033.011a2.044,2.044,0,0,0,.5.236c.7.321,1.4.626,2.135.912a8.6,8.6,0,0,0,3.123,1.119c2.47.57,3.8,1,3.178,1.174-.152.051-.819.009-.423.148,1.219.161,2.465.287,3.77.374.406.091.827.179,1.246.252Zm-4.924-105.015.062-.008,0,.016C165.165,1469.128,165.148,1469.114,165.117,1469.118Zm2.388,5.029-.014-.109c.191.007.383.03.575.053C167.9,1474.113,167.691,1474.123,167.505,1474.147Z" fill="#47aea9"/>
      <path id="Path_18114" data-name="Path 18114" d="M225.507,1527.84l0-.007h0Z" fill="#47aea9"/>
      <path id="Path_18115" data-name="Path 18115" d="M141.473,1507.893a1,1,0,0,1,.1-.127C141.554,1507.737,141.519,1507.811,141.473,1507.893Z" fill="#47aea9"/>
      <path id="Path_18116" data-name="Path 18116" d="M146.4,1525.61c-.01-.029-.02-.06-.03-.09.01.03.022.073.033.109Z" fill="#47aea9"/>
      <path id="Path_18117" data-name="Path 18117" d="M203.532,1531.415a1.038,1.038,0,0,1-.113.134C203.444,1531.571,203.482,1531.5,203.532,1531.415Z" fill="#47aea9"/>
      <path id="Path_18118" data-name="Path 18118" d="M146.238,1526.212l.019,0c-.01-.024-.013-.048-.022-.073C146.238,1526.161,146.235,1526.187,146.238,1526.212Z" fill="#47aea9"/>
      <path id="Path_18119" data-name="Path 18119" d="M177.181,1550.045h.013a.327.327,0,0,0-.09-.008Z" fill="#47aea9"/>
      <path id="Path_18120" data-name="Path 18120" d="M149.288,1530.86a.115.115,0,0,1,.029.035c-.015-.024-.018-.055-.035-.084Z" fill="#47aea9"/>
      <path id="Path_18121" data-name="Path 18121" d="M195.707,1508.443a.189.189,0,0,1-.023-.029.41.41,0,0,1,.036.084A.339.339,0,0,0,195.707,1508.443Z" fill="#47aea9"/>
      <path id="Path_18122" data-name="Path 18122" d="M197.311,1514.5a.183.183,0,0,1-.035-.078c.013.036.026.059.035.084Z" fill="#47aea9"/>
      <path id="Path_18123" data-name="Path 18123" d="M147.688,1524.81a.156.156,0,0,1,.035.078.288.288,0,0,0-.036-.084Z" fill="#47aea9"/>
      <path id="Path_18124" data-name="Path 18124" d="M198.6,1513.7l.022.092c-.007-.03-.016-.074-.024-.11Z" fill="#47aea9"/>
      <path id="Path_18125" data-name="Path 18125" d="M198.772,1513.163a.146.146,0,0,1-.025-.076l.015,0Z" fill="#47aea9"/>
    </g>
    <path id="Path_18126" data-name="Path 18126" d="M204.667,1514.683a16.726,16.726,0,0,1-.97,4.21.652.652,0,0,0-.11.078c-.094.422-.156.375-.266.031.11-.36.172-.5.266-.516.063-.8.094-1.612.094-2.52-.094.892-.219,1.675-.36,2.473-.078.626-.172,1.08-.313,1.142.173-.469.173-1.878.36-1.909.016-.156.031-.3.047-.438-.234-.548-.251,1.095-.422,1.252-.094,0-.126.845-.22.954.032-1.126.22-1.408.22-2.363-.063-.391.015-.594-.032-.954-.062-.188-.094.516-.188-.251-.109,0-.093.548-.14.845-.079.658-.172,1.378-.313,2.019-.094.407-.157.344-.141-.485-.063-.141-.157.376-.188-.141a6.316,6.316,0,0,1,.109-1.22c.047.36-.047.8.079.986a5.2,5.2,0,0,0,.313-1.69,1.191,1.191,0,0,0-.094-.705c-.125.047-.345-.939-.422-.328a7.957,7.957,0,0,1-.22,1.909,10.256,10.256,0,0,1-.14,1.549c-.032.141-.079.469-.11.094a3.449,3.449,0,0,1,.063-.626c-.094-.078-.141.438-.22.516-.015.141-.047.266-.062.392-.063.406-.141.626-.266.688.094-.422.156-.735.2-1.048.016-.376.078-.392.125-.392a13.058,13.058,0,0,0,.345-3.74c-.078.063-.047.689-.125.83-.032.751-.235.767-.282,1.627a2.452,2.452,0,0,1,.015.673c-.031.188-.062-.031-.094-.172-.078,0-.14.329-.2.595-.047.344-.078.8-.172.766a6.649,6.649,0,0,1-.3,1.065c-.031.187-.063.281-.094.234-.031.11-.078.282-.11.407-.031.094-.062.157-.094.157-.062.2-.125.422-.187.626-.094.406-.188.767-.282.673a3.225,3.225,0,0,1,.282-.814c0-.063.031-.125.031-.2v-.14c-.031-.016-.047-.016-.063-.032a2.346,2.346,0,0,1-.219.673,5.68,5.68,0,0,1,.188-.829.29.29,0,0,0,.031-.11c.125-.391.235-.767.329-1.158a.762.762,0,0,0,.031-.188c.063-.187.11-.36.172-.547-.031-.485-.062-.955-.125-1.424.079-.173.157.062.219.109.235.188.485-.422.47-1.471a2.991,2.991,0,0,1,.156-1.471c.031-.344.063-.7.094-1.064a1.258,1.258,0,0,1,0-.25c0-.016,0-.016.016-.016a7.518,7.518,0,0,1-.016-1.174,1.759,1.759,0,0,1-.063-.579,26.426,26.426,0,0,0-.86-5.367,2.368,2.368,0,0,0-.579-1.111c-.126-.141-.047.141-.235-.079.078.282.172.564.235.861.125.329.219.657.313.986a12.261,12.261,0,0,1,.563,2.582c-.219-1-.548-2.019-.61-2.66-.11-.329-.219-.657-.345-1-.093-.235-.187-.485-.281-.72a2.646,2.646,0,0,1-.2-.234c-.11-.094-.2-.188-.173-.063-.078-.078.564,1.111-.141,0-.031-.047-.516-.673-.563-.548.188.36.016.36.376.924.328.688.234.234.375.422a2.791,2.791,0,0,1-.469-1.017c.141.407.547.876.469,1.017a1.45,1.45,0,0,1,.126,1c-.376-.971-.58-1.08-.751-1.143a.033.033,0,0,1-.032-.031c.094.3.407.892.25,1-.156-.548-.485-1.112-.422-1.268-.344-.955-1.018-2.128-1.361-2.926-.282-.407-.533-.783-.721-1.1a20.916,20.916,0,0,0-2.894-3.662c-.736-.766-1.644-1.549-2.379-2.19a27.755,27.755,0,0,0-2.8-2.113c-.016,0-.016-.016-.032-.016-.766-.5-1.58-.954-2.425-1.392a1.5,1.5,0,0,0-.516-.157c.219.125.453.251.672.376a19.53,19.53,0,0,1,2.817,1.815c.375.266.751.563,1.111.845a16.56,16.56,0,0,1,1.721,1.518c.47.438.58.735,1.284,1.33.172.172.344.344.5.516a17.764,17.764,0,0,1,1.486,1.925c.141.313-.375,0-.125.376.016.031.016.047.031.062a.34.34,0,0,1,.063.079,2.478,2.478,0,0,1,1.048,1.017c.126.188.235.375.36.579.313.454.532,1,1.018,1.205a2.208,2.208,0,0,1,.594.782c.3.595-.313-.281-.25-.094.094.219.031.188-.079.11a.574.574,0,0,1-.172-.2c-.046-.14.048-.062.11-.062a6.784,6.784,0,0,1-1.549-1.909c-.094-.157-.376-.485-.564-.72a24.177,24.177,0,0,1,1.831,3.584c.079.125,0,.125.157.328.2.2.25.141.14-.141-.046-.187-.094-.391-.156-.579-.047-.156-.094-.281,0-.25.219.328.219.438.2.516.047.173.11.345.173.517.172.313.266.563.454.907.219.407.36.845.187.72-.422-.3-.031.485.2,1.143.109.281.281.641.2.688a3.581,3.581,0,0,1,.141.923c0,.36.125,1.065-.125.861.094.579.172,1.158.219,1.737a4.024,4.024,0,0,1,.031,1.049,4.109,4.109,0,0,1-.094-1.174c-.094-.939-.329-1.956-.36-2.582-.046-.157-.093-.313-.156-.47-.031-.156-.141-.407-.094-.469a1,1,0,0,1,.172.61c.156.282.313.579.219.172-.047-.25-.11-.5-.172-.766a.583.583,0,0,1-.015-.094,11.312,11.312,0,0,1-.877-2.129c-.282-.516-.282-.673-.266-.813-.156-.329-.313-.673-.485-1a11.974,11.974,0,0,0-1.111-2.347.9.9,0,0,0-.141-.11c.094.2.188.392.282.6-.032-.031-.047-.031-.063-.063-.141-.219-.282-.453-.423-.673-.2-.36-.422-.7-.657-1.048-.313-.313-.469-.5-.469-.626a2.388,2.388,0,0,1,.579.689c.219.25.281.438.6.766-.376-.579-.783-1.158-1.205-1.721v-.016a8.028,8.028,0,0,0-.971-1.064,4.692,4.692,0,0,1-1.205-1.158,8.05,8.05,0,0,0-1.377-1.267c-.078.062.423.406.313.453-.657-.672-1.549-1.377-2.144-1.924-.266-.188-.516-.376-.8-.564-1.659-1.048-3.349-1.909-4.757-2.66a35.245,35.245,0,0,0-4.882-1.69c.124.2,1.346.407,1.862.642a28.755,28.755,0,0,1,4.022,1.658c.218.125.7.313.438.329a1.347,1.347,0,0,1-.423-.047,3.226,3.226,0,0,1-.923-.423,3.124,3.124,0,0,0-1.221-.485c.078.047.157.079.2.11.031.016-.016.016-.047.031-.751-.328-1.518-.626-2.316-.907-.188-.063-.376-.126-.564-.173h-.313c.11.047.3.11.079.11-.079-.016-.282-.063-.423-.094a3.557,3.557,0,0,0-1.439-.36c-.3.047-.376-.062-.58-.078-.172,0-.328-.016-.485-.016.5.125.986.251,1.456.392.125-.032.046-.11.485-.032.344.063.344.125.266.172.3.079.579.141.86.219a19.045,19.045,0,0,0,1.925.658,7.274,7.274,0,0,0-.813-.329,9.2,9.2,0,0,1-1.174-.454,5.939,5.939,0,0,1,1.44.438c.938.376,1.877.8,2.754,1.237.516.266,1.471.626,1.471.829a3.172,3.172,0,0,1,1.721.955c.172.109.344.219.517.344.281.172.626.407.485.422a8.052,8.052,0,0,1-.861-.344c-.125.031.407.329.109.266l.282.188c.376.172.517.282.485.36a.772.772,0,0,1,.094.125,2.6,2.6,0,0,1,.548.344,4.459,4.459,0,0,1,1.158,1.017,4.185,4.185,0,0,0,.2.376,5.6,5.6,0,0,1-.751-.548,2.257,2.257,0,0,1-.6-.266c-.172-.047-.234-.015-.14.094.266.2.516.407.767.626l-.141-.047c-.251-.219-.5-.422-.767-.626a.884.884,0,0,1-.156-.109c-.439-.219-.517-.329-.454-.376a2.308,2.308,0,0,1,.328.219v-.015a.034.034,0,0,0,.032-.032,2.229,2.229,0,0,0-.266-.266c-.141-.031-.408-.188-.533-.219-.266-.078-.641-.2-.61-.109.032.109.423.234.657.375.517.282.923.579.846.7-.611-.344-1.315-.673-1.753-.939-1-.625-1.784-1.158-2.614-1.643a14.53,14.53,0,0,0-2.269-.97,10.236,10.236,0,0,0-2.081-.391,6.364,6.364,0,0,1,1.283.548c.423.172.845.344,1.252.532a14.131,14.131,0,0,1,2.582,1.424,12.449,12.449,0,0,1,2.3,1.549c.156.109.328.219.469.329.094.062.282.187.188.187-.078-.015-.251-.187-.407-.2-.079,0-.219-.11-.219-.157.063-.015-.172-.14-.266-.2a3.26,3.26,0,0,0-.376-.266,2.607,2.607,0,0,1-.61-.454c-.391-.282-1-.579-1.268-.814-.172-.093-.344-.2-.516-.3-.125.016.344.2.141.188-.219-.031-.2.031.109.172.251.11.282.156.173.172.046.016.078.047.125.063.235.094.438.187.2.141s-.125.031-.188.046a1.016,1.016,0,0,1,.126.094,5.875,5.875,0,0,1,1.517.673c-.563-.094-.594-.109-.469.172.11.251-.548-.109-.923-.234.063.094.14.2.266.391a8.7,8.7,0,0,0-1.737-.783c.391.063.266-.093.735.016.188.063.266.031.047-.078a1.053,1.053,0,0,0-.422-.125,3.079,3.079,0,0,1-1.221-.251c-.516-.2-1.126-.36-1.549-.547a2.154,2.154,0,0,0-.72-.235c-.266-.016-.156.094-.079.172.048.031.2.094.063.094.517.313,1.409.688,1.988,1.064.219.125.469.266.688.407.6.266.705.469,1.33.814-.344-.157-.485-.2-.641-.266-.078,0,.093.109-.11.031a2.057,2.057,0,0,1-.469-.25l.422.14c-.234-.172-.72-.375-.767-.485a15.531,15.531,0,0,0-2.55-1.236c-.845-.329-1.706-.626-2.6-.892-.109-.031-.2-.047-.313-.078-.2-.047-.454-.094-.626-.141q-.939-.234-1.878-.423c-.516-.093-1.033-.187-1.564-.25q-1.034-.165-2.113-.235c-.36,0-.689-.015-1-.031-.547-.016-1.033-.031-1.6-.031a3.26,3.26,0,0,0-.375.015c-.11.11.14.126.406.126a1.4,1.4,0,0,0,.251.015.207.207,0,0,0,.062.047c.329,0,.658.016.97.031h.329a2.61,2.61,0,0,1,.829.094,6.073,6.073,0,0,1,1.017.094,8.844,8.844,0,0,1,1.222.11,3.863,3.863,0,0,0,.641.047c-.3-.016.031-.172-.641-.11h-.048c-.078.016-.328-.031-.266-.062a.815.815,0,0,1,.314-.032h.124c.6.032.72.11.533.2a1.938,1.938,0,0,0,.3.062c.172.047.391.079.61.126a4.093,4.093,0,0,1,1.064.266,6.9,6.9,0,0,0,1.362.25c-.3-.078-.61-.157-.923-.25a.573.573,0,0,0,.156-.016c.313.078.61.172.908.25.25.094.094.157.094.219.313.094.61.188.907.3a8.651,8.651,0,0,1,1.487.594c.406.094.406.188.814.3-.032-.063-.3-.173-.11-.188a2.464,2.464,0,0,1,1.064.391,2.2,2.2,0,0,0-.344-.078c-.063.047-.548-.016,0,.188.25.094.438.172.094.141a2.071,2.071,0,0,1-.626-.173c-.469-.219-.939-.407-1.3-.594a24.454,24.454,0,0,0-3.051-.845c.125-.032.375.062.5.047.094-.016.016-.047-.094-.079a9.322,9.322,0,0,0-2-.3l-.657-.047c-.423-.031-.313.047-.156.094.187.047.641.094.266.156a3.687,3.687,0,0,1-.861-.062,1.507,1.507,0,0,0-.156.047c-.627.156-.627.172,0,.281.093.016.187.032.3.047.172.032.156.079.109.11-.094.016-.172.031-.25.047.109.031.235.078.344.11a7.938,7.938,0,0,0,1.064.187,2.81,2.81,0,0,1,.579.094l-.313.047a.09.09,0,0,0-.062.016.218.218,0,0,1,.109.031c.079.078,1.049.188.61.219a2.658,2.658,0,0,1-.923-.2c-.016,0-.047-.016-.062-.016a8.937,8.937,0,0,0-1.487-.219H172.7c-.126.031-.235.047-.345.078-.015.063.657.094.141.157-.172-.047-.344-.079-.517-.126-.751-.015-1.345-.078-1.956-.125-.234-.015-.469-.031-.735-.031-.219.094.109.125.25.11.72-.079.392.046.438.093h.079c.469.016.813.079,1.33.094.375.016.219.079.031.125a4.731,4.731,0,0,1,1.252.267,3.247,3.247,0,0,1-.579-.032c.047.063.438.11-.188.157-.516.094-.579.015-.72-.047-.344-.032-.751-.047-1.032-.094-.094-.016-.173-.031-.235-.047-.438-.047-.923-.063-1.377-.078-.266,0-.532-.016-.783-.016-1.314-.047-2.957.157-4.115.219h-.016c-.36.125-.5.094-.767.172a1.243,1.243,0,0,1-.36.172c-.188.047-.062-.046,0-.093-.3.047-.61.109-.907.172a10.417,10.417,0,0,1-1.628.422c-.219.157-.157.188,0,.188-.3.094-.516.172-.735.25-.329.173-.423.11-.736.282-.313.11-.626.219-.939.344h.266c.125-.031.266-.062.376-.094.3-.093.579-.172.86-.25.36,0,1.315-.376,1.769-.391a8.06,8.06,0,0,1,1.752-.36,28.239,28.239,0,0,1,2.974-.376,3.2,3.2,0,0,1,.735-.031,1.669,1.669,0,0,0,.282-.016c.094-.172.532-.187.908-.2.281-.094.219-.141-.047-.141-.36-.016-.72,0-1.08,0a3.272,3.272,0,0,1-1.315.063c.627-.047,1.018-.079,1.409-.094a1.882,1.882,0,0,1,.86-.157,9.941,9.941,0,0,0,1.237.016h.015c.188-.016.486-.016.3.047a1.315,1.315,0,0,1-.266.094,1.39,1.39,0,0,1-.407.047c-.266-.016-.2.047-.266.062a.426.426,0,0,0-.078.094c.141.047.625-.078.782-.031.031-.016.047,0,.063.016a.058.058,0,0,0-.047.015c-.313.063-.58.016-.877.094.3.031.595.063.908.11.407.031.845.078,1.346.125a1.776,1.776,0,0,0,.282.015c.046,0,.094.016.14.016h1.456c.078.016.093.016.062.031.094.063.094.11-.156.157-.141.141.422.156.908.235a1.073,1.073,0,0,1,.594.14c-.2-.031-.407-.046-.594-.078-.376-.047-.705-.078-1.049-.094q-.61-.07-1.221-.094h-.078c-.532-.031-1.064-.031-1.6-.031h-.078c-.047,0-.047-.031-.063-.047a2.225,2.225,0,0,1-.845.094,3.045,3.045,0,0,0-.83.031c-.625.126-.907.173-1,.063a1.97,1.97,0,0,0-1.111.156c0,.032.172.032-.157.141a1.041,1.041,0,0,0-.109.063c.062.063.6-.047.7,0,.423-.063.235.047.266.094a1.392,1.392,0,0,1,.72-.188c.391.031,1.033-.047,1.534-.047.406,0,.485.047.563.11h.109c.282-.032.361,0,.407.031.063.063.032.172.673.063.047.094.517.047.876.062h.063a8.775,8.775,0,0,1,1.925.3c-.078.016-.141.032-.2.047-.188-.015-.376-.047-.548-.062a3.171,3.171,0,0,1-.939.015l-.188-.046c-.454-.047-1.1-.047-1.6-.079a2.518,2.518,0,0,1-.344-.015,1.669,1.669,0,0,1-.282-.016,9.308,9.308,0,0,0-2.081-.094c-.642.031-1.471.188-1.956.188-.454.031-1.2.235-1.534.219l-.282.047a5.617,5.617,0,0,1-1.205.3,23.033,23.033,0,0,0-4.46,1.659c.094.094.689-.235,1.064-.313-.985.5-1.565.72-2.269,1.111a7.337,7.337,0,0,0-.688.47,1.349,1.349,0,0,1-.689.453,8.009,8.009,0,0,1-.751.439,27.642,27.642,0,0,0-5.649,4.835c-.078.125-.172.266-.266.407.016.078-.11.235-.219.36-.423.532-.845,1.064-1.237,1.627-.093.157-.187.345-.281.47a29.455,29.455,0,0,0-2.613,4.914c0,.031-.016.046-.016.078-.078.329-.125.688-.188,1.017a.094.094,0,0,1,.016.063,6.292,6.292,0,0,1,.453-1.033c.079-.141.157-.282.251-.454a2.742,2.742,0,0,1,.516-1.221c.079-.109.141-.109.2-.156.11-.282.219-.579.344-.861.157-.266.3-.532.454-.782.063-.11.141-.219.2-.345a1.7,1.7,0,0,1,.485-.672c.22-.454.376-.642.47-.658-.235.423-.391.689-.47.658a.95.95,0,0,1-.234.438c-.172.281-.345.547-.5.829.11-.015.344-.422.532-.72.235-.36.469-.7.72-1.064.376-.548.782-1.08,1.189-1.6a18.761,18.761,0,0,1,1.941-2.222,5.669,5.669,0,0,1,1.6-1.581c.438-.454.766-.7.86-.641a8.075,8.075,0,0,1-.954.845c-.157.156-.313.3-.47.469-.2.172-.406.376-.61.564a.921.921,0,0,0-.125.125c-.642.626-1.3,1.439-1.831,2.018-.313.36-.6.72-.876,1.111,0,.032.015.047.031.079.172-.219.344-.438.532-.658s.376-.469.563-.688c0,.016-.015.047-.015.062-.2.251-.391.486-.579.72.094,0,.313-.328.485-.516.125-.141.282-.36.344-.376,0,0-.11.2-.188.313,0,.094.345-.407.251-.156.015.109.25-.251.391-.376.094-.094.157-.172.25-.266.157-.078.517-.516.689-.61l-.673.72a3.466,3.466,0,0,1-.751.923c0-.015.015-.031.015-.047a28.62,28.62,0,0,0-4.3,6.933c-.156.359-.313.719-.454,1.1-.047.125-.094.25-.156.376-.376.954-.736,1.987-1.033,3.035-.031.376-.063.752-.063,1.127-.031.517-.047,1.033-.047,1.565-.015.25-.015.516-.015.782h-.986c-.141.533-.266,1.033-.391,1.534a28.266,28.266,0,0,0-.752,4.6,3.219,3.219,0,0,0,.032.391,18.178,18.178,0,0,1,.97-4.225,1.039,1.039,0,0,1,.125-.063c.078-.438.157-.375.251-.031-.094.344-.157.5-.251.5-.063.813-.094,1.612-.094,2.519.094-.876.219-1.674.36-2.457.063-.641.172-1.095.3-1.158-.157.47-.157,1.878-.345,1.925l-.047.423c.235.547.251-1.1.423-1.252.094,0,.11-.845.219-.939-.047,1.126-.235,1.393-.219,2.347.063.407-.016.61.016.955.078.187.109-.517.2.25.094,0,.094-.548.125-.845.094-.657.188-1.377.329-2.019.094-.406.141-.328.141.485.062.141.156-.375.172.141a4.5,4.5,0,0,1-.11,1.221c-.031-.36.063-.8-.062-.986a4.913,4.913,0,0,0-.313,1.69,1.337,1.337,0,0,0,.078.7c.141-.031.36.939.438.329a6.788,6.788,0,0,1,.219-1.909,8.293,8.293,0,0,1,.141-1.534c.031-.141.078-.469.109-.109a3.268,3.268,0,0,1-.062.626c.078.094.125-.438.2-.517.032-.141.047-.266.079-.391.062-.407.14-.626.25-.688-.078.438-.141.735-.188,1.048-.031.375-.078.391-.141.391a14.5,14.5,0,0,0-.344,3.756c.094-.078.063-.689.141-.845.031-.751.235-.751.282-1.628a2.454,2.454,0,0,1-.016-.673c.031-.187.062.032.094.173.078,0,.125-.313.188-.6.062-.344.094-.8.188-.767a5.232,5.232,0,0,1,.3-1.064c.031-.172.063-.266.094-.235.062-.2.125-.563.2-.563.063-.2.125-.407.172-.61.094-.36.172-.658.251-.689a.03.03,0,0,1,.047,0,3.283,3.283,0,0,1-.282.814.772.772,0,0,0-.031.2v.157c.031,0,.046.015.062.015a2.1,2.1,0,0,1,.219-.673,4.126,4.126,0,0,1-.2.845c-.126.407-.235.83-.345,1.252-.015.063-.031.126-.047.2-.046.172-.094.36-.156.532.031.485.062.954.11,1.424-.079.172-.141-.063-.2-.109-.25-.173-.5.422-.469,1.486a2.912,2.912,0,0,1-.157,1.455c-.031.345-.078.705-.094,1.065a1.085,1.085,0,0,1-.015.25v.016a7.265,7.265,0,0,1,0,1.173,1.888,1.888,0,0,1,.078.579,24.966,24.966,0,0,0,.861,5.352,2.265,2.265,0,0,0,.579,1.127c.125.141.031-.141.219.094-.078-.3-.157-.579-.235-.876-.11-.329-.2-.658-.313-.987a12.628,12.628,0,0,1-.563-2.628c.234,1.017.563,2.05.625,2.707.11.328.22.673.329,1,.094.251.188.485.3.72.078.094.141.157.2.235.109.11.2.188.172.078.078.063-.579-1.126.141-.015.031.047.516.672.563.547-.187-.36-.031-.344-.375-.907-.329-.689-.235-.251-.376-.423a2.764,2.764,0,0,1,.47,1c-.157-.391-.563-.86-.47-1a1.527,1.527,0,0,1-.141-1.017c.376.97.6,1.095.767,1.142l.032.032c-.094-.3-.408-.892-.251-.986.157.532.47,1.111.407,1.252.344.97,1.033,2.128,1.377,2.926.282.407.532.782.72,1.111a22.136,22.136,0,0,0,2.879,3.662c.751.767,1.643,1.533,2.394,2.191a30.571,30.571,0,0,0,2.8,2.1c.8.5,1.6.97,2.441,1.408a1.567,1.567,0,0,0,.516.156c-.219-.125-.438-.25-.657-.359a20.909,20.909,0,0,1-2.816-1.831c-.376-.266-.752-.548-1.112-.845a18.776,18.776,0,0,1-1.721-1.5c-.47-.453-.6-.735-1.283-1.346-.173-.171-.329-.344-.5-.516a17.684,17.684,0,0,1-1.487-1.925c-.141-.313.376,0,.126-.375-.016-.016-.016-.032-.032-.047a.312.312,0,0,0-.062-.078c-.36-.282-.767-.439-1.049-1.018-.125-.2-.25-.391-.36-.579-.329-.469-.548-1.017-1.033-1.22a2.246,2.246,0,0,1-.579-.783c-.313-.594.3.282.251.094-.11-.2-.032-.188.078-.109a.513.513,0,0,1,.157.2c.062.157-.048.078-.094.063a7.055,7.055,0,0,1,1.549,1.909,7.267,7.267,0,0,0,.563.72,25,25,0,0,1-1.846-3.584c-.063-.125,0-.109-.141-.313-.219-.2-.266-.156-.141.125.047.188.094.391.156.579.047.157.094.3,0,.266-.219-.344-.219-.438-.2-.532-.047-.172-.11-.344-.172-.516-.188-.313-.266-.564-.454-.908-.235-.407-.36-.845-.2-.72.438.313.047-.469-.2-1.142-.094-.266-.266-.626-.188-.689a2.9,2.9,0,0,1-.141-.923c0-.36-.14-1.064.126-.861-.094-.579-.172-1.142-.235-1.737a4.863,4.863,0,0,1-.031-1.048,3.72,3.72,0,0,1,.109,1.174c.094.939.329,1.971.345,2.582.062.156.109.313.156.469s.157.423.094.47a1.307,1.307,0,0,1-.172-.595c-.141-.282-.3-.595-.219-.188.062.251.109.517.172.767.015.031.015.063.031.094a11.818,11.818,0,0,1,.876,2.128c.282.516.282.689.251.814.172.344.328.673.5,1a12.059,12.059,0,0,0,1.111,2.363c.047.032.094.079.141.11-.094-.2-.188-.407-.281-.595a.2.2,0,0,0,.062.047,7.993,7.993,0,0,0,.423.689c.2.344.422.7.657,1.048.313.3.47.5.47.626a3.612,3.612,0,0,1-.6-.688,6.181,6.181,0,0,0-.6-.783q.564.893,1.221,1.737a7.074,7.074,0,0,0,.97,1.064,4.4,4.4,0,0,1,1.205,1.159,7.022,7.022,0,0,0,1.377,1.267c.078-.063-.438-.391-.313-.454.642.673,1.534,1.377,2.144,1.925.266.188.532.391.8.563,1.659,1.049,3.333,1.925,4.757,2.661a34.567,34.567,0,0,0,4.883,1.705c-.125-.2-1.346-.407-1.862-.657a28.7,28.7,0,0,1-4.022-1.643c-.235-.125-.7-.329-.438-.344a1.344,1.344,0,0,1,.422.047,3.116,3.116,0,0,1,.924.438,2.894,2.894,0,0,0,1.22.469c-.078-.031-.156-.078-.2-.094-.047-.031.015-.031.031-.046.767.344,1.534.625,2.316.907l.564.188a2.247,2.247,0,0,1,.328-.016c-.11-.047-.3-.109-.078-.094a2.944,2.944,0,0,1,.407.079,3.735,3.735,0,0,0,1.455.359c.281-.047.375.063.579.079.156.015.329.015.485.015-.5-.109-.986-.234-1.471-.375-.125.016-.031.109-.469.031-.36-.078-.36-.141-.266-.172v-.016c-.3-.062-.579-.141-.876-.219a14.975,14.975,0,0,0-1.91-.641l.8.328a9.485,9.485,0,0,1,1.189.438,5.882,5.882,0,0,1-1.439-.438c-.954-.375-1.862-.782-2.754-1.236-.517-.25-1.456-.61-1.487-.814-1.127-.375-1.533-.7-1.706-.97-.172-.094-.344-.219-.532-.329-.266-.187-.626-.422-.469-.422.109-.032.579.25.86.344.126-.031-.406-.344-.109-.282l-.282-.187c-.375-.172-.516-.282-.485-.345l-.094-.14a1.737,1.737,0,0,1-.547-.345,3.942,3.942,0,0,1-1.159-1.017c-.062-.109-.14-.235-.2-.36a3.7,3.7,0,0,1,.751.548,2.587,2.587,0,0,1,.6.25c.172.047.235.016.141-.094a9.333,9.333,0,0,1-.767-.626.547.547,0,0,0,.141.063l.751.61a1.439,1.439,0,0,1,.156.11c.454.219.532.328.485.375a1.473,1.473,0,0,1-.344-.2c-.015.016-.031.016-.047.047.094.078.188.172.266.25.157.032.423.188.564.235.25.078.61.2.6.11-.032-.126-.423-.251-.658-.392-.516-.281-.923-.579-.845-.7.6.345,1.315.689,1.753.955,1,.61,1.784,1.142,2.6,1.627a13.362,13.362,0,0,0,2.285.97,11.191,11.191,0,0,0,2.081.407,7.513,7.513,0,0,1-1.283-.547c-.422-.188-.845-.36-1.252-.548a13.819,13.819,0,0,1-2.582-1.408,13.04,13.04,0,0,1-2.3-1.565c-.156-.11-.329-.219-.47-.329-.094-.063-.3-.188-.187-.172.078.015.234.188.407.188a.415.415,0,0,1,.219.156c-.063.031.156.141.266.219s.25.172.375.266a2.3,2.3,0,0,1,.611.438c.391.282,1,.595,1.267.83.156.094.344.188.516.281.11-.015-.344-.2-.14-.172.219.016.187-.046-.11-.172-.266-.125-.266-.172-.172-.188a.81.81,0,0,1-.125-.062c-.235-.078-.438-.188-.2-.141s.126-.031.188-.047a1.115,1.115,0,0,0-.141-.078,6.06,6.06,0,0,1-1.5-.689c.563.094.594.11.47-.172-.11-.235.532.11.923.251-.079-.11-.141-.22-.266-.407a9.74,9.74,0,0,0,1.737.8c-.391-.063-.266.078-.736-.032-.188-.047-.266-.031-.062.079a1.2,1.2,0,0,0,.422.125,3.1,3.1,0,0,1,1.236.25c.517.2,1.111.376,1.55.548a1.868,1.868,0,0,0,.7.235c.282.015.172-.094.094-.173-.047-.031-.219-.078-.063-.078-.516-.313-1.408-.688-1.987-1.064-.235-.141-.454-.281-.689-.422a13.475,13.475,0,0,1-1.33-.8c.344.141.485.188.626.251.094.016-.078-.11.125-.031a1.522,1.522,0,0,1,.47.266,4.371,4.371,0,0,0-.423-.141c.235.156.72.36.767.485a16.793,16.793,0,0,0,2.535,1.221c.845.344,1.721.626,2.614.892.093.031.2.062.312.093.2.032.454.079.626.126a30.128,30.128,0,0,0,3.835.735c.516.078,1.032.125,1.564.157a.558.558,0,0,0,.157.015c1.142,0,1.909.094,2.973.047.141-.141-.344-.125-.657-.141-.032-.015-.032-.031-.063-.031l-.986-.047a4.386,4.386,0,0,1-1.142-.094,1.585,1.585,0,0,1-.282-.015,4.521,4.521,0,0,1-.735-.079,6.235,6.235,0,0,1-.829-.062c-.314-.032-.627-.079-1.049-.094.328.015-.047.172.7.109.063,0,.328.032.251.063a1.154,1.154,0,0,1-.439.031c-.579-.031-.7-.109-.516-.2-.094-.016-.2-.047-.3-.063a8.38,8.38,0,0,1-1.675-.375,5.767,5.767,0,0,0-1.361-.266c.3.094.61.172.923.25-.062,0-.11.016-.172.016-.3-.079-.6-.157-.908-.251-.234-.094-.078-.156-.078-.219-.313-.094-.61-.188-.908-.282-.86-.187-.829-.391-1.486-.594-.407-.094-.407-.2-.814-.313.031.063.282.172.109.188a2.216,2.216,0,0,1-1.064-.392,2.456,2.456,0,0,0,.329.079c.063-.032.563.031.016-.188-.251-.094-.439-.156-.094-.125a2.058,2.058,0,0,1,.626.172c.453.2.938.407,1.3.579a24.655,24.655,0,0,0,3.052.861c-.141.031-.376-.079-.516-.047-.094,0,0,.047.109.078a14.44,14.44,0,0,0,2.661.344c.422.031.312-.062.156-.109-.188-.047-.642-.094-.266-.157.391-.062.532.078.861.063a3.224,3.224,0,0,0,.548-.157c.093-.031.093-.062,0-.094a4.742,4.742,0,0,0-.689-.125c-.188-.031-.157-.063-.125-.094a1.577,1.577,0,0,1,.266-.062,3.226,3.226,0,0,1-.36-.11c-.329-.125-1.158-.141-1.628-.266.11-.031.2-.031.313-.062h.063a.4.4,0,0,0-.11-.032c-.078-.094-1.048-.188-.61-.235a2.914,2.914,0,0,1,.986.22,10.254,10.254,0,0,0,1.486.234c.126-.031.251-.062.36-.094.016-.047-.657-.078-.14-.156l.188.047a3.15,3.15,0,0,0,.312.078c.47.016.876.047,1.252.078.485.032.939.063,1.44.079.219-.094-.094-.126-.235-.11-.688.078-.438-.031-.438-.078v-.016c-.282,0-.516-.031-.767-.047-.2-.015-.407-.047-.657-.047-.36-.015-.2-.078-.016-.125a6.58,6.58,0,0,1-.891-.156,1.658,1.658,0,0,1-.36-.11,1.3,1.3,0,0,1,.36.016,1.06,1.06,0,0,0,.218.015c-.062-.062-.438-.109.188-.156.5-.094.579-.016.72.047l.438.047a4.418,4.418,0,0,1,.814.094c.72.062,1.486.078,2.175.094,1.3.062,2.958-.157,4.116-.22h.015c.36-.125.486-.078.767-.172a1.024,1.024,0,0,1,.344-.156c.2-.047.063.031,0,.094.314-.063.627-.125.924-.188a10.889,10.889,0,0,1,1.612-.423c.234-.14.172-.187.015-.172.3-.109.516-.172.736-.25.328-.172.422-.125.72-.3.328-.11.641-.22.954-.345h-.266l-.375.094c-.3.094-.579.188-.877.251-.344,0-1.3.375-1.752.391a9.678,9.678,0,0,1-1.753.375c-1,.172-2,.282-2.973.36a2.5,2.5,0,0,1-.736.032c-.094,0-.187.015-.3.015-.078.172-.517.188-.908.2-.266.109-.219.156.063.156.344,0,.7,0,1.064-.016a3.256,3.256,0,0,1,1.314-.062c-.61.062-1,.078-1.392.094a1.873,1.873,0,0,1-.861.156,10.361,10.361,0,0,0-1.252-.015c-.172.015-.485.015-.3-.047a1.385,1.385,0,0,1,.673-.126c.25,0,.2-.047.266-.078.031-.031.047-.062.078-.094-.172-.031-.8.125-.845.016.328-.078.61-.031.939-.109-.72-.063-1.408-.157-2.27-.235-.14,0-.281-.016-.422-.016a1.957,1.957,0,0,1-.313-.016h-1.142c-.079,0-.094-.015-.063-.031-.094-.062-.094-.109.157-.156.094-.094-.173-.141-.516-.188-.408-.031-.908-.063-1-.188.36.047.688.078,1,.125.218.016.437.047.657.063.3.016.61.047.907.062.11,0,.2.016.313.016.579.031,1.158.047,1.753.031.062,0,.047.032.062.047a1.891,1.891,0,0,1,.846-.078,3.822,3.822,0,0,0,.829-.047c.626-.125.907-.172,1.017-.062a1.7,1.7,0,0,0,1.1-.141c0-.047-.187-.047.157-.157l.094-.047c-.063-.062-.579.047-.688-.015-.423.078-.235-.047-.282-.094a1.3,1.3,0,0,1-.705.187c-.391-.031-1.032.047-1.549.063-.391,0-.469-.063-.548-.125h-.109c-.767.094-.047-.25-1.08-.078-.047-.11-.516-.047-.876-.078-.11,0-.219-.016-.329-.016a8.1,8.1,0,0,1-1.564-.251.213.213,0,0,1-.094-.031c.031,0,.062-.016.094-.016.031-.015.077-.015.109-.031.188.031.375.047.548.078a2.529,2.529,0,0,1,.907-.015h.032c.547.125,1.565.062,2.128.125a1.65,1.65,0,0,0,.281.016,8.454,8.454,0,0,0,2.082.094c.641-.032,1.455-.188,1.94-.173h.016c.469-.031,1.189-.234,1.533-.219.094-.015.188-.047.282-.062a4.643,4.643,0,0,1,1.205-.282,23.659,23.659,0,0,0,4.444-1.674c-.078-.094-.672.234-1.048.328.986-.516,1.565-.735,2.269-1.127a5.13,5.13,0,0,0,.673-.469,1.422,1.422,0,0,1,.7-.454,5.8,5.8,0,0,1,.751-.422,28.161,28.161,0,0,0,5.634-4.836c.094-.141.188-.266.281-.422-.031-.063.11-.219.219-.376.423-.5.83-1.048,1.237-1.612.078-.141.188-.328.266-.454a28.643,28.643,0,0,0,2.629-4.929c.063-.36.125-.72.188-1.095a.056.056,0,0,0-.016-.047,8.367,8.367,0,0,1-.689,1.486,2.653,2.653,0,0,1-.516,1.2.706.706,0,0,1-.2.157c-.11.282-.235.579-.345.86l-.469.8c-.063.094-.126.22-.188.329-.219.391-.375.626-.485.673-.219.454-.376.642-.485.657.25-.407.407-.688.469-.657a1.042,1.042,0,0,1,.251-.438c.156-.266.329-.548.5-.829-.109.015-.344.422-.547.719-.219.36-.454.72-.705,1.064-.375.548-.782,1.1-1.189,1.612a19.785,19.785,0,0,1-1.94,2.207,5.528,5.528,0,0,1-1.612,1.58c-.438.454-.767.72-.861.642.423-.438.658-.548.97-.845a6.08,6.08,0,0,0,.454-.454c.2-.188.423-.376.61-.579.047-.031.094-.078.141-.109.642-.642,1.3-1.44,1.832-2.035.3-.344.594-.72.876-1.111,0-.031-.016-.047-.032-.078a7.322,7.322,0,0,1-.532.657,8.026,8.026,0,0,1-.579.689c.016-.016.016-.032.032-.063.187-.235.375-.469.563-.72-.078,0-.313.345-.469.517-.126.14-.282.36-.345.375a2.662,2.662,0,0,1,.172-.3c.016-.11-.344.391-.234.125-.016-.094-.266.266-.391.391-.094.094-.173.172-.251.266-.156.079-.532.517-.7.611.235-.235.454-.47.689-.72a3.427,3.427,0,0,1,.751-.923c0,.015-.016.031-.016.047a28.85,28.85,0,0,0,4.757-8.028c.157-.392.313-.783.454-1.19.188-.485.344-.986.5-1.486.078-.235.156-.485.235-.736.062-.845.093-1.706.109-2.582.016-.3.016-.595.016-.892h.986c.062-.219.125-.454.172-.673.078-.3.156-.579.219-.845a31.924,31.924,0,0,0,.751-4.616Zm-3.6-1.987c-.032-.658-.079-1.174-.157-1.925A4.074,4.074,0,0,1,201.068,1512.7Zm-.8.516a4.681,4.681,0,0,1,.031,1.017,2,2,0,0,1-.063.72c.016-.375.016-.61.016-.861A7.526,7.526,0,0,1,200.27,1513.212Zm-4.288-12.222a4.866,4.866,0,0,1,.782,1.471A5.688,5.688,0,0,1,195.982,1500.99Zm1.6,3.255c-.063-.125-.078-.187-.031-.172a.435.435,0,0,1,.14.2c.016.062.048.125.063.2C197.687,1504.386,197.625,1504.308,197.578,1504.245Zm.783,1.456c-.032.031-.047.125-.22-.157-.125-.2-.25-.485-.156-.454.172.079.235.439.376.611-.063-.235-.282-.642-.079-.5C198.455,1505.576,198.439,1505.669,198.361,1505.7Zm.234,1.3a.962.962,0,0,1-.109-.595C198.611,1506.765,198.752,1507.093,198.6,1507Zm-21.079-12.394a3.18,3.18,0,0,1,1,.328C178.189,1494.825,177.845,1494.715,177.516,1494.606Zm-12.175,1.3a3.24,3.24,0,0,1,.924-.078A3.93,3.93,0,0,1,165.341,1495.9Zm4.006.235a.331.331,0,0,1-.234.063c-.157,0-.078-.031-.016-.063a.521.521,0,0,1,.25-.047C169.41,1496.108,169.347,1496.139,169.347,1496.139Zm-19.9,9.718a.913.913,0,0,1-.219.219c-.172.078-.329.172-.516.626a.618.618,0,0,1-.2.235c-.047-.031.2-.391.282-.563a1.66,1.66,0,0,1,.376-.532c.14-.079.437-.407.391-.219C149.536,1505.669,149.489,1505.763,149.442,1505.857Zm-.391.986a1.694,1.694,0,0,1,.422-.422A2.508,2.508,0,0,1,149.051,1506.843Zm-5.117,24.522c.031.657.062,1.174.156,1.94A4.116,4.116,0,0,1,143.934,1531.365Zm.8-.517a3.828,3.828,0,0,1-.032-1.017,2.057,2.057,0,0,1,.063-.719c-.016.375-.016.61-.016.876A7.135,7.135,0,0,1,144.732,1530.848Zm4.288,12.222a4.664,4.664,0,0,1-.783-1.471A6.606,6.606,0,0,1,149.02,1543.07Zm-1.612-3.255c.078.125.094.2.047.172a.313.313,0,0,1-.141-.188c-.016-.078-.047-.14-.063-.2A1.587,1.587,0,0,1,147.408,1539.815Zm-.783-1.439c.047-.047.063-.126.235.156.125.188.25.47.156.454-.171-.094-.234-.438-.391-.61.079.219.3.626.079.485C146.547,1538.5,146.563,1538.391,146.625,1538.376Zm-.234-1.315a1.162,1.162,0,0,1,.125.595C146.391,1537.312,146.25,1536.983,146.391,1537.061Zm21.094,12.41a2.723,2.723,0,0,1-.986-.345C166.812,1549.236,167.141,1549.361,167.485,1549.471Zm12.175-1.3a3.827,3.827,0,0,1-.923.062A3.673,3.673,0,0,1,179.66,1548.172Zm-4.022-.251a.507.507,0,0,1,.251-.062c.156,0,.078.047.015.062a.523.523,0,0,1-.266.047C175.591,1547.953,175.638,1547.921,175.638,1547.921Zm19.921-9.7a.675.675,0,0,1,.2-.219c.188-.094.329-.188.532-.642a.763.763,0,0,1,.2-.234c.047.047-.2.391-.282.563a1.741,1.741,0,0,1-.391.532c-.125.094-.438.407-.375.219A.912.912,0,0,1,195.559,1538.219Zm.376-1a1.4,1.4,0,0,1-.407.438A2.28,2.28,0,0,1,195.935,1537.218Zm-42.377-32.926a2.188,2.188,0,0,1,.188-.172c.047-.031.062-.016.124-.047-.109.094-.171.157-.218.188S153.448,1504.433,153.558,1504.292Zm37.432-3.975a2.992,2.992,0,0,1,.3.235c.094.094.047.094-.031.063a.646.646,0,0,1-.25-.2C190.959,1500.364,190.99,1500.349,190.99,1500.317Zm1.268-.015c-.173-.266-.345-.517-.517-.767-.188-.188-.422-.407-.2-.36.282.313.721.736.721.892C192.132,1500.051,192.445,1500.38,192.258,1500.3Zm3.458,4.773c.141.234.282.485.219.532A1.664,1.664,0,0,1,195.716,1505.075Zm3.192,14.678c.063-.234.11-.422.157-.61.109-.391.141-1.221.344-1.252-.125.517-.172,1.455-.329,1.471C199.033,1519.472,198.986,1519.925,198.908,1519.753Zm.705-8.5a10.7,10.7,0,0,1,0,3.192C199.691,1513.447,199.613,1512.258,199.613,1511.256Zm-.251-1.753a2.249,2.249,0,0,1,.094.658C199.331,1509.754,199.284,1509.519,199.362,1509.5Zm.016-.25a.943.943,0,0,1-.016.219c-.11-.485-.2-.923-.094-1.033A3.79,3.79,0,0,1,199.378,1509.253Zm-.532-2.535c-.063-.235.046-.125.187.078a.722.722,0,0,1,.173.47c.015.2.031.422.046.626.079.3.094.532,0,.532-.046-.266-.093-.548-.14-.83C199.018,1507.3,198.924,1506.984,198.846,1506.718Zm.109,6.291v.751A1.7,1.7,0,0,1,198.955,1513.009Zm.031,1.58c-.062.673-.125,1.362-.234,2.035A7.714,7.714,0,0,1,198.986,1514.589Zm-2.143-5.508c.047.188.078.375.109.563C196.89,1509.394,196.717,1509.034,196.843,1509.081Zm0-.016c-.063-.25-.126-.5-.2-.751C196.764,1508.627,196.921,1509.034,196.843,1509.065Zm-.971-4.241c.11.219.313.579.2.579a1.179,1.179,0,0,1-.3-.673,5.521,5.521,0,0,1-.454-.782,10.464,10.464,0,0,1-.939-1.643c-.032-.078-.063-.172.062-.063a.808.808,0,0,1,.282.376c.031.078.078.172.11.266A17.8,17.8,0,0,1,195.872,1504.824Zm-1.1-2.66a.167.167,0,0,1,.016.078,12.078,12.078,0,0,1,.672,1.143c-.031-.032-.062-.047-.078-.079-.266-.469-.547-.939-.845-1.392l-.328-.611A3.739,3.739,0,0,1,194.777,1502.164Zm-2.519-4.366c.313.423,1.142,1.189,1.064,1.408-.173-.406-1.08-1.189-1.3-1.58-.219-.282-.7-.657-.7-.83C191.647,1497.141,191.96,1497.469,192.258,1497.8Zm-.845,2.363c-.5-.407-.314-.391-.392-.532-.235-.157-.3-.063-.6-.36-.281-.266.11-.016.2,0,.141.031-.031-.125-.141-.25-.516-.438-.829-.72-.641-.8.078.219.547.579.923.938C190.912,1499.425,191.663,1500.1,191.413,1500.161Zm-1.5-2.738c.845.5.735.563.5.594C190.208,1497.767,190.067,1497.595,189.91,1497.423Zm.438-.955c.141.188.251.328.423.548C190.364,1496.671,190.1,1496.452,190.348,1496.468Zm-.751-.579c-.829-.6-1.064-.955-1.784-1.471l-.845-.657a10.464,10.464,0,0,1,1.628,1.142c.407.329.782.673,1.158,1.017.14.125.438.313.375.36A2.6,2.6,0,0,1,189.6,1495.889Zm-1.377,2.144c.188.156.376.328.563.485a.688.688,0,0,1-.078-.016c-.188-.172-.376-.344-.563-.5C188.157,1498.017,188.189,1498.017,188.22,1498.033Zm-2.347-2.175c-.36-.251-.72-.47-1.1-.705a8.649,8.649,0,0,1-.892-.516,5.64,5.64,0,0,1,1,.548c.36.219.735.453,1.1.688.579.391,1.158.8,1.706,1.236a.234.234,0,0,0-.11-.031A18.661,18.661,0,0,0,185.873,1495.858Zm.845,2.535c-.251-.2-.564-.376-.5-.439C186.467,1498.111,186.764,1498.3,186.718,1498.393Zm-1.268.125c.047.031.047.047.079.094a1.881,1.881,0,0,1-.251-.125c-.047-.032-.094-.063-.094-.094A.558.558,0,0,1,185.45,1498.518Zm-1.455-1.064c.016.031.031.047.016.062s-.11,0-.267-.093c-.015-.016-.047-.032-.062-.063C183.776,1497.391,183.9,1497.423,183.995,1497.454Zm.031.563c.141.094.469.25.376.3a.734.734,0,0,1-.2-.062c-.281-.141-.172-.157-.281-.251-.11-.078-.329-.187-.282-.234C183.776,1497.861,183.932,1497.939,184.026,1498.017Zm-.783-.688a3.708,3.708,0,0,1-1.017-.642A6.05,6.05,0,0,1,183.243,1497.329Zm-1.517-1.065c0,.032-.016.047-.016.063-.078-.031-.188-.063-.219-.078-.047-.031-.016-.047-.031-.063A2.581,2.581,0,0,1,181.726,1496.264Zm-5.728-.485a4.463,4.463,0,0,1,1,.345,7.42,7.42,0,0,0-1.236-.251c-.267-.015-.36-.078-.3-.125C175.56,1495.685,175.826,1495.748,176,1495.779Zm-1.361,1.518c.532.126.344-.015.516-.015.094.062.532.172.2.2a1.549,1.549,0,0,1-.673-.125C174.668,1497.329,174.574,1497.3,174.637,1497.3Zm-.376-1.643a.7.7,0,0,1,.157.094c-.047-.016-.094-.031-.157-.047-.313-.078-.735-.125-1.111-.188A3.116,3.116,0,0,1,174.261,1495.654Zm-1.017,1.2c-.3-.016-.438-.063-.438-.156.328.047.626.078.626.14A.58.58,0,0,1,173.244,1496.859Zm.266.564c.016,0,.016,0,.031.031a.656.656,0,0,1-.3-.016c-.016-.015-.047-.015-.078-.031A2.478,2.478,0,0,1,173.51,1497.423Zm-4.554.328c.032,0,.047,0,.063.016h-.063a1.4,1.4,0,0,1-.454-.047A1.31,1.31,0,0,1,168.956,1497.751Zm-1.659.344c.282.016.5.032.72.063C167.47,1498.236,167.188,1498.252,167.3,1498.095Zm-.672-.422c.359,0,.719,0,1.064.015a4.909,4.909,0,0,1-1.143.032c-.454.031-.891.078-.939-.047Zm-4.132.7a12.277,12.277,0,0,1-1.252.25A3.235,3.235,0,0,1,162.493,1498.377Zm-3.411,1.69a25.374,25.374,0,0,1,2.942-.892c.219,0,.735-.156,1-.172a4.216,4.216,0,0,1-1.064.219,26.647,26.647,0,0,0-2.957.908A.3.3,0,0,0,159.082,1500.067Zm.047.407a9.809,9.809,0,0,1-.924.36C158.722,1500.49,159.144,1500.255,159.129,1500.474Zm-1.784.751c.328-.2.469-.281.61-.266C157.72,1501.053,157.579,1501.131,157.345,1501.225Zm.5-.908a.767.767,0,0,1-.406.282,2.829,2.829,0,0,1-.72.282c.329-.172.6-.344.86-.5C157.861,1500.208,157.892,1500.239,157.845,1500.317Zm-.688.611a1.832,1.832,0,0,1-.5.25A1.8,1.8,0,0,1,157.157,1500.928Zm-.235-.235a3.97,3.97,0,0,0-.548.329C156.656,1500.756,156.813,1500.693,156.922,1500.693Zm.219.642a7.193,7.193,0,0,1-1.314.626A3.762,3.762,0,0,1,157.141,1501.335Zm-2.425.563c-.783.469-1.581,1-2.348,1.565A12.939,12.939,0,0,1,154.716,1501.9Zm-2.175,3.224c-.282.219-.47.313-.72.532C152.228,1505.231,152.337,1505.169,152.541,1505.122Zm-2.035.641c.063-.047.125-.078.172-.109-.156.2-.188.25-.235.313-.015,0-.046,0-.046-.047C150.4,1505.92,150.49,1505.779,150.506,1505.763Zm-3.537,4.8c.047-.031.094-.093.11-.093a.829.829,0,0,1-.141.3c-.047.047-.078.078-.078.047A1.328,1.328,0,0,1,146.969,1510.567Zm.016.486a4.324,4.324,0,0,1-.469.735A3.518,3.518,0,0,1,146.985,1511.053Zm-1.5,2.488q.258-.493.563-.986a.862.862,0,0,0-.062.188c-.173.3-.344.594-.517.907A.258.258,0,0,1,145.483,1513.541Zm-.407.845c-.125.3-.2.485-.266.61h-.016A3.092,3.092,0,0,1,145.076,1514.386Zm-2.316,5.884c-.031.094-.047.188-.063.25-.047.141-.078.188-.109.11.016-.032.016-.079.031-.11C142.682,1520.317,142.729,1520.223,142.76,1520.27ZM154,1543.759c-.094-.094-.219-.172-.282-.251-.094-.078-.062-.094.016-.062a.736.736,0,0,1,.266.2C154.027,1543.712,154,1543.727,154,1543.759Zm-1.252,0c.172.266.344.516.516.766.188.2.423.423.2.376-.282-.329-.72-.735-.72-.892C152.869,1544.025,152.541,1543.7,152.744,1543.759Zm-3.459-4.773c-.14-.235-.3-.485-.218-.532A1.8,1.8,0,0,1,149.285,1538.986Zm-3.192-14.679c-.062.235-.109.423-.156.611-.11.406-.157,1.22-.344,1.251.109-.5.156-1.455.328-1.471C145.968,1524.589,146.015,1524.135,146.093,1524.307Zm-.72,8.5a11.271,11.271,0,0,1,0-3.192C145.311,1530.614,145.389,1531.8,145.373,1532.8Zm.267,1.753a1.732,1.732,0,0,1-.094-.641C145.671,1534.307,145.7,1534.542,145.64,1534.557Zm0,.047c.094.485.2.908.094,1.017A2.3,2.3,0,0,1,145.64,1534.6Zm.5,2.739c.078.234-.047.125-.188-.078a.776.776,0,0,1-.156-.47c-.016-.2-.047-.423-.047-.626-.078-.3-.109-.532-.015-.532.046.282.093.548.156.829C145.968,1536.764,146.062,1537.077,146.14,1537.343Zm-.094-6.291v-.751C146.062,1530.6,146.125,1530.942,146.046,1531.052Zm-.031-1.565c.047-.689.125-1.362.235-2.05A7.942,7.942,0,0,1,146.015,1529.487Zm2.144,5.508c-.047-.2-.078-.391-.109-.579.062.266.218.611.109.579.062.251.125.5.2.752C148.237,1535.434,148.065,1535.027,148.159,1534.995Zm.97,4.257c-.109-.219-.313-.579-.2-.595a1.333,1.333,0,0,1,.3.673,4.2,4.2,0,0,1,.438.783,8.473,8.473,0,0,1,.939,1.643c.047.078.078.188-.063.062a.612.612,0,0,1-.265-.375,1.963,1.963,0,0,0-.126-.251C149.771,1540.551,149.426,1539.893,149.129,1539.252Zm1.1,2.645c-.016-.016-.016-.047-.032-.079-.235-.375-.454-.751-.673-1.126a.306.306,0,0,1,.094.062c.266.47.548.939.845,1.393.11.2.219.422.329.61A3.218,3.218,0,0,1,150.225,1541.9Zm2.5,4.366c-.3-.423-1.126-1.19-1.048-1.409.172.407,1.079,1.2,1.3,1.6.219.267.7.658.7.814C153.354,1546.935,153.026,1546.607,152.728,1546.263Zm.861-2.363c.5.407.313.391.375.532.251.172.314.062.611.36.282.266-.11.031-.2,0-.14-.032.032.14.141.25.517.438.814.72.642.8a5.55,5.55,0,0,0-.923-.939C154.074,1544.635,153.354,1543.962,153.589,1543.9Zm1.486,2.738c-.829-.5-.719-.563-.5-.594C154.794,1546.31,154.919,1546.45,155.075,1546.638Zm-.422.955c-.141-.172-.25-.329-.422-.532C154.622,1547.389,154.9,1547.608,154.653,1547.593Zm.751.579c.814.61,1.064.97,1.784,1.471q.4.329.845.657a8.921,8.921,0,0,1-1.627-1.142c-.407-.329-.783-.673-1.158-1.018-.141-.109-.438-.312-.376-.359A4.14,4.14,0,0,1,155.4,1548.172Zm1.377-2.144c-.187-.157-.375-.313-.563-.485.031.015.047.031.079.031.187.156.375.329.563.485C156.828,1546.059,156.813,1546.044,156.781,1546.028Zm2.348,2.175c.344.25.719.47,1.1.7a8.4,8.4,0,0,1,.892.532,7.7,7.7,0,0,1-1-.547c-.376-.235-.736-.454-1.1-.689-.594-.407-1.158-.814-1.705-1.236a.286.286,0,0,1,.109.031C157.971,1547.421,158.534,1547.828,159.129,1548.2Zm-.845-2.535c.25.219.547.391.485.454C158.534,1545.95,158.237,1545.762,158.284,1545.668Zm1.267-.11a.442.442,0,0,1-.078-.109c.11.063.2.094.251.125s.094.078.094.094A.67.67,0,0,1,159.551,1545.558Zm1.44,1.049c0-.031-.016-.047,0-.063.031-.015.094,0,.266.094l.063.063Zm-.016-.548c-.14-.109-.485-.266-.375-.3a1.662,1.662,0,0,1,.2.047c.282.141.172.156.282.25.109.078.344.188.281.235A3.605,3.605,0,0,1,160.975,1546.059Zm.8.689a3.7,3.7,0,0,1,1,.626A6.35,6.35,0,0,1,161.774,1546.748Zm1.752,1.127a2.131,2.131,0,0,1-.25-.079c0-.015.015-.031.015-.047a.707.707,0,0,1,.219.079C163.557,1547.843,163.526,1547.859,163.526,1547.875Zm5.477.406a4.21,4.21,0,0,1-1-.344,6.277,6.277,0,0,0,1.236.266c.266.016.36.063.3.11C169.441,1548.375,169.176,1548.313,169,1548.281Zm.845-1.5c-.094-.062-.548-.172-.2-.2a1.529,1.529,0,0,1,.673.141c0,.015.031.031.046.046C169.817,1546.638,170.005,1546.779,169.848,1546.779Zm.72,1.534a8.234,8.234,0,0,0,1.283.234C171.038,1548.547,170.724,1548.453,170.568,1548.313Zm1.189-1.111c.3.015.439.062.439.156-.329-.047-.627-.063-.627-.141C171.569,1547.217,171.7,1547.2,171.757,1547.2Zm-.265-.564c-.032,0-.079-.015-.047-.031a.722.722,0,0,1,.312.016c.016.015.047.015.079.047C171.726,1546.654,171.6,1546.654,171.492,1546.638Zm4.491-.344a2.533,2.533,0,0,1,.516.047A1.027,1.027,0,0,1,175.983,1546.294Zm2.394.094h-1.064a5.121,5.121,0,0,1,1.142-.047c.454-.031.892-.078.939.047C179.05,1546.4,178.705,1546.4,178.377,1546.388Zm-1.393-.47c.563-.094.845-.094.72.047C177.423,1545.95,177.2,1545.934,176.984,1545.918Zm5.54-.219a8.938,8.938,0,0,1,1.22-.25A3.779,3.779,0,0,1,182.524,1545.7Zm3.4-1.706a25.95,25.95,0,0,1-2.942.892c-.235,0-.736.157-1.017.173a5.31,5.31,0,0,1,1.079-.219,23.7,23.7,0,0,0,2.958-.908A.358.358,0,0,0,185.92,1543.993Zm-.047-.406c.3-.079.751-.36.923-.36C186.28,1543.571,185.857,1543.821,185.873,1543.587Zm1.267.156a.822.822,0,0,1,.423-.266,2.188,2.188,0,0,1,.72-.281,8.315,8.315,0,0,0-.861.5C187.14,1543.868,187.109,1543.821,187.14,1543.743Zm-.094-.641c.235-.094.392-.157.611-.267C187.344,1543.055,187.187,1543.117,187.046,1543.1Zm.783.031a1.838,1.838,0,0,1,.516-.251A1.469,1.469,0,0,1,187.829,1543.133Zm.234.25c.173-.063.345-.219.564-.328C188.345,1543.305,188.189,1543.383,188.063,1543.383Zm-.2-.657a7.739,7.739,0,0,1,1.314-.626A3.765,3.765,0,0,1,187.86,1542.726Zm2.41-.548a28.26,28.26,0,0,0,2.363-1.58A13.155,13.155,0,0,1,190.27,1542.178Zm.861-2.191a.77.77,0,0,1,.2-.172c.063-.047.219-.187.11-.047a2,2,0,0,1-.188.172A.375.375,0,0,1,191.131,1539.987Zm1.314-1.048c.313-.235.517-.329.783-.563C192.789,1538.829,192.664,1538.892,192.445,1538.939Zm2.05-.626a.649.649,0,0,0-.172.11c.157-.2.188-.267.235-.329.016.016.047,0,.047.031S194.495,1538.3,194.495,1538.313Zm3.521-4.82c-.031.047-.078.094-.094.094a.839.839,0,0,1,.141-.3c.047-.047.078-.079.078-.047S198.063,1533.4,198.016,1533.493Zm0-.485a4.042,4.042,0,0,1,.47-.72A3.787,3.787,0,0,1,198.016,1533.008Zm1.5-2.488c-.188.344-.376.657-.564.986l.047-.188c.188-.3.36-.579.532-.892C199.534,1530.457,199.519,1530.488,199.519,1530.52Zm.406-.845a2.85,2.85,0,0,1,.313-.657A2.831,2.831,0,0,1,199.925,1529.675Zm2.316-5.884c.079-.282.126-.47.172-.345C202.335,1523.7,202.273,1523.853,202.241,1523.791Z" fill="#47aea9"/>
  </g>
</svg>
