<svg id="_97" data-name="97" xmlns="http://www.w3.org/2000/svg" width="109.326" height="111.48" viewBox="0 0 109.326 111.48">
  <path id="Path_17744" data-name="Path 17744" d="M225.7,1157.591a1.554,1.554,0,0,0-.042-.448,2.187,2.187,0,0,1-.185-1.2,1.423,1.423,0,0,0-.067-.45,1.707,1.707,0,0,0-.13-.353c-.139-.243-.032.4-.044.629a5.223,5.223,0,0,0,.2.952A5.976,5.976,0,0,0,225.7,1157.591Z" transform="translate(-117.838 -1114.863)" fill="#47aea9"/>
  <path id="Path_17745" data-name="Path 17745" d="M161.536,1118.054a12.664,12.664,0,0,1,2.673-.154c.227-.189-.62-.188-2.023-.019-.335.019-.8.073-.541-.036.18-.074,1.166-.266.342-.19a7.154,7.154,0,0,0-1.473.341c-.31-.014.033-.2-1.341.079C158.855,1118.343,160.963,1117.983,161.536,1118.054Z" transform="translate(-117.838 -1114.863)" fill="#47aea9"/>
  <path id="Path_17746" data-name="Path 17746" d="M126.6,1139.845c1.32-1.447,2.724-2.992,5.193-5.386A42.046,42.046,0,0,0,126.6,1139.845Z" transform="translate(-117.838 -1114.863)" fill="#47aea9"/>
  <path id="Path_17747" data-name="Path 17747" d="M222.4,1141.778a15.45,15.45,0,0,0,.908,2.288A11.335,11.335,0,0,0,222.4,1141.778Z" transform="translate(-117.838 -1114.863)" fill="#47aea9"/>
  <path id="Path_17748" data-name="Path 17748" d="M223.166,1145.533c.351,1.166.842,2.639,1.309,4.3C224.114,1148.387,223.674,1146.949,223.166,1145.533Z" transform="translate(-117.838 -1114.863)" fill="#47aea9"/>
  <path id="Path_17749" data-name="Path 17749" d="M220.9,1140.215c-.122-.1-.16-.066.139.437a16.334,16.334,0,0,1,.8,1.469,5.358,5.358,0,0,0-.489-1.183A2.481,2.481,0,0,0,220.9,1140.215Z" transform="translate(-117.838 -1114.863)" fill="#47aea9"/>
  <path id="Path_17750" data-name="Path 17750" d="M169.378,1119.8c.689.131,2.2.168,3.434.307-.606-.1-1.2-.182-1.812-.26a32.826,32.826,0,0,0-4.049-.283,6.973,6.973,0,0,0-1.219.045c-.066.076.6.022.93.033C167.58,1119.67,168.488,1119.725,169.378,1119.8Z" transform="translate(-117.838 -1114.863)" fill="#47aea9"/>
  <path id="Path_17751" data-name="Path 17751" d="M122.975,1143.428c1.031-1.5,2.093-2.9,3.206-4.219A21.363,21.363,0,0,0,122.975,1143.428Z" transform="translate(-117.838 -1114.863)" fill="#47aea9"/>
  <path id="Path_17752" data-name="Path 17752" d="M157.56,1120.559a30.93,30.93,0,0,0,3.264-.277q1.263-.108,2.535-.158a8.782,8.782,0,0,0-1.959.048C160.63,1120.095,158.333,1120.547,157.56,1120.559Z" transform="translate(-117.838 -1114.863)" fill="#47aea9"/>
  <path id="Path_17753" data-name="Path 17753" d="M220.712,1138.413c-.327-.123.186.625.809,1.572A15.125,15.125,0,0,0,220.712,1138.413Z" transform="translate(-117.838 -1114.863)" fill="#47aea9"/>
  <path id="Path_17754" data-name="Path 17754" d="M148.61,1124.022c.7-.115,1.887-.539,3.086-.912A12.209,12.209,0,0,0,148.61,1124.022Z" transform="translate(-117.838 -1114.863)" fill="#47aea9"/>
  <path id="Path_17755" data-name="Path 17755" d="M195.577,1118.116c.346.124.06-.148,1.091.39.1.05-.064-.063-.078-.088a5.143,5.143,0,0,0-1.3-.631C194.556,1117.555,195.431,1117.98,195.577,1118.116Z" transform="translate(-117.838 -1114.863)" fill="#47aea9"/>
  <path id="Path_17756" data-name="Path 17756" d="M217.034,1134.772a15.366,15.366,0,0,0-1.249-1.809A13.909,13.909,0,0,0,217.034,1134.772Z" transform="translate(-117.838 -1114.863)" fill="#47aea9"/>
  <path id="Path_17757" data-name="Path 17757" d="M129.7,1138.722a35.858,35.858,0,0,0,2.934-3.028C131.445,1136.831,130.658,1137.649,129.7,1138.722Z" transform="translate(-117.838 -1114.863)" fill="#47aea9"/>
  <path id="Path_17758" data-name="Path 17758" d="M209.276,1125.217c.287.294.581.592.952.988C210.565,1126.311,210.174,1125.917,209.276,1125.217Z" transform="translate(-117.838 -1114.863)" fill="#47aea9"/>
  <path id="Path_17759" data-name="Path 17759" d="M197.337,1123.227a3.772,3.772,0,0,0,.711.311c.142.027-.234-.2-.358-.259-1.215-.512-.53-.362-1.023-.616C196.284,1122.6,196.457,1122.76,197.337,1123.227Z" transform="translate(-117.838 -1114.863)" fill="#47aea9"/>
  <path id="Path_17760" data-name="Path 17760" d="M164.944,1118.559c-.455-.02-.841-.033-1.489-.048C163.127,1118.732,163.02,1118.824,164.944,1118.559Z" transform="translate(-117.838 -1114.863)" fill="#47aea9"/>
  <path id="Path_17761" data-name="Path 17761" d="M226.335,1151.209a5.75,5.75,0,0,0,.348,2.022C226.471,1152.337,226.469,1151.98,226.335,1151.209Z" transform="translate(-117.838 -1114.863)" fill="#47aea9"/>
  <path id="Path_17762" data-name="Path 17762" d="M211.8,1128.614c.111-.081-.446-.671-1.075-1.279a9.9,9.9,0,0,0-1.568-1.506c.485.465.95.933,1.4,1.4Q211.2,1127.919,211.8,1128.614Z" transform="translate(-117.838 -1114.863)" fill="#47aea9"/>
  <path id="Path_17763" data-name="Path 17763" d="M148.447,1122.271c.889-.318,1.778-.6,2.67-.871.045,0,.1-.014.157-.024.413-.062,1.179-.3,2.09-.565-.464.094-.929.19-1.388.294-1.1.309-2.208.653-3.3,1.034C148.6,1122.182,148.526,1122.222,148.447,1122.271Z" transform="translate(-117.838 -1114.863)" fill="#47aea9"/>
  <path id="Path_17764" data-name="Path 17764" d="M157.97,1119.009a18.007,18.007,0,0,0,2.3-.244c.411-.183-.251-.089-.807-.013-.6.039-1.195.085-1.829.139C157.224,1119.077,158.171,1118.888,157.97,1119.009Z" transform="translate(-117.838 -1114.863)" fill="#47aea9"/>
  <path id="Path_17765" data-name="Path 17765" d="M199.091,1120.073a3.1,3.1,0,0,0-.39-.161c-.049.055.5.335,1.069.682C199.841,1120.518,199.636,1120.358,199.091,1120.073Z" transform="translate(-117.838 -1114.863)" fill="#47aea9"/>
  <path id="Path_17766" data-name="Path 17766" d="M189.8,1119.31c-.6-.255-1.212-.5-1.818-.729A12.594,12.594,0,0,0,189.8,1119.31Z" transform="translate(-117.838 -1114.863)" fill="#47aea9"/>
  <path id="Path_17767" data-name="Path 17767" d="M217.254,1133.711a48.983,48.983,0,0,1,2.913,4.614c.038.036.073.084.11.126a49.908,49.908,0,0,0-2.907-4.641,9.292,9.292,0,0,0-1.145-1.62C216.467,1132.593,217.1,1133.366,217.254,1133.711Z" transform="translate(-117.838 -1114.863)" fill="#47aea9"/>
  <path id="Path_17768" data-name="Path 17768" d="M226.772,1168.29q.115-.753.209-1.5c-.015-.089-.016-.185-.025-.27-.059.544-.13,1.082-.208,1.624C226.758,1168.2,226.763,1168.237,226.772,1168.29Z" transform="translate(-117.838 -1114.863)" fill="#47aea9"/>
  <path id="Path_17769" data-name="Path 17769" d="M134.9,1131.789a12.5,12.5,0,0,0,1.8-1.217A6.055,6.055,0,0,0,134.9,1131.789Z" transform="translate(-117.838 -1114.863)" fill="#47aea9"/>
  <path id="Path_17770" data-name="Path 17770" d="M136.708,1130.572h.007c.007-.008.021-.012.029-.02s-.007,0-.006,0C136.73,1130.56,136.716,1130.564,136.708,1130.572Z" transform="translate(-117.838 -1114.863)" fill="#47aea9"/>
  <path id="Path_17771" data-name="Path 17771" d="M143.218,1126.335c.132-.154-.455.149-.877.425-.613.409-.472.4-.433.434A15.454,15.454,0,0,0,143.218,1126.335Z" transform="translate(-117.838 -1114.863)" fill="#47aea9"/>
  <path id="Path_17772" data-name="Path 17772" d="M145.51,1123.069c1.491-.637,3-1.185,4.511-1.671.193-.043.407-.1.587-.137a3.441,3.441,0,0,0,.952-.315c.363-.167.174-.145-.039-.1a18.466,18.466,0,0,0-3.892,1.263,13.731,13.731,0,0,0-1.877.79,5.059,5.059,0,0,0-1.521.659C144.15,1123.718,145.013,1123.267,145.51,1123.069Z" transform="translate(-117.838 -1114.863)" fill="#47aea9"/>
  <path id="Path_17773" data-name="Path 17773" d="M171.325,1115.8c.079-.086-.667-.114-1.384-.161C169.939,1115.751,170.715,1115.762,171.325,1115.8Z" transform="translate(-117.838 -1114.863)" fill="#47aea9"/>
  <path id="Path_17774" data-name="Path 17774" d="M142.166,1128.183c.18.053,1.188-.755,1.935-1.1A7.971,7.971,0,0,0,142.166,1128.183Z" transform="translate(-117.838 -1114.863)" fill="#47aea9"/>
  <path id="Path_17775" data-name="Path 17775" d="M174.633,1117.828l-.009.046c-.464-.072-.931-.129-1.382-.184-.062-.011-.111,0-.173-.017-1.277-.147-2.577-.267-3.9-.329.082-.016.165-.032.214-.038,1.247.062,2.466.182,3.683.319.126.008.264.034.39.042C173.856,1117.728,174.246,1117.77,174.633,1117.828Z" transform="translate(-117.838 -1114.863)" fill="#47aea9"/>
  <path id="Path_17776" data-name="Path 17776" d="M165.208,1119.613c.4-.167-.245-.152-1.22-.082C164.473,1119.559,164.794,1119.579,165.208,1119.613Z" transform="translate(-117.838 -1114.863)" fill="#47aea9"/>
  <path id="Path_17777" data-name="Path 17777" d="M136.744,1130.553c-.042.154.378-.116.922-.49.368-.194.737-.4,1.1-.577a3.53,3.53,0,0,0,.873-.6c.432-.36.675-.6.238-.346-.5.3-1.093.687-1.633,1.046Q137.479,1130.06,136.744,1130.553Z" transform="translate(-117.838 -1114.863)" fill="#47aea9"/>
  <path id="Path_17778" data-name="Path 17778" d="M142.816,1126.841c.37-.369-.47.124-.9.357C141.923,1127.283,142.074,1127.257,142.816,1126.841Z" transform="translate(-117.838 -1114.863)" fill="#47aea9"/>
  <path id="Path_17779" data-name="Path 17779" d="M141.9,1127.208c0-.006.008-.008.014-.01v0C141.907,1127.2,141.9,1127.2,141.9,1127.208Z" transform="translate(-117.838 -1114.863)" fill="#47aea9"/>
  <path id="Path_17780" data-name="Path 17780" d="M139.515,1128.35c-.235.3.407-.164,1.1-.578A3.307,3.307,0,0,0,139.515,1128.35Z" transform="translate(-117.838 -1114.863)" fill="#47aea9"/>
  <path id="Path_17781" data-name="Path 17781" d="M159.672,1117.565c-.034-.019,0-.058-.137-.049a3.689,3.689,0,0,0-.738.159c-.178.065-.211.107.065.061C159.066,1117.7,159.393,1117.623,159.672,1117.565Z" transform="translate(-117.838 -1114.863)" fill="#47aea9"/>
  <path id="Path_17782" data-name="Path 17782" d="M167.509,1116.833c-.508-.01-1.024-.013-1.539-.012-.054.012-.113.02-.165.029.522,0,1.031,0,1.546.011C167.4,1116.852,167.462,1116.844,167.509,1116.833Z" transform="translate(-117.838 -1114.863)" fill="#47aea9"/>
  <path id="Path_17783" data-name="Path 17783" d="M144,1123.413c.016.083.639-.242,1.188-.513A6.566,6.566,0,0,0,144,1123.413Z" transform="translate(-117.838 -1114.863)" fill="#47aea9"/>
  <path id="Path_17784" data-name="Path 17784" d="M138.242,1126.2c-.543.339-1.086.685-1.62,1.045C136.631,1127.368,137.525,1126.687,138.242,1126.2Z" transform="translate(-117.838 -1114.863)" fill="#47aea9"/>
  <path id="Path_17785" data-name="Path 17785" d="M136.622,1127.245v0l-.015.01v0Z" transform="translate(-117.838 -1114.863)" fill="#47aea9"/>
  <path id="Path_17786" data-name="Path 17786" d="M221.748,1140.4a3.038,3.038,0,0,0,.475,1.02C222.052,1141.042,221.936,1140.784,221.748,1140.4Z" transform="translate(-117.838 -1114.863)" fill="#47aea9"/>
  <path id="Path_17787" data-name="Path 17787" d="M226.934,1163.691c.012.038.029-.017.04-.107a1.532,1.532,0,0,0-.035-.487c-.013-.035-.019.1-.035.187C226.917,1163.446,226.924,1163.642,226.934,1163.691Z" transform="translate(-117.838 -1114.863)" fill="#47aea9"/>
  <path id="Path_17788" data-name="Path 17788" d="M227.163,1163.929a9.622,9.622,0,0,0-.089,1.27A5.79,5.79,0,0,0,227.163,1163.929Z" transform="translate(-117.838 -1114.863)" fill="#47aea9"/>
  <path id="Path_17789" data-name="Path 17789" d="M127.516,1137.583c.375-.429.755-.853,1.26-1.394A8.351,8.351,0,0,0,127.516,1137.583Z" transform="translate(-117.838 -1114.863)" fill="#47aea9"/>
  <path id="Path_17790" data-name="Path 17790" d="M128.7,1138.486a14.6,14.6,0,0,0-1.33,1.531c-.368.459-.727.9-1.272,1.628a12.979,12.979,0,0,0,1.083-1.3C127.616,1139.8,128,1139.374,128.7,1138.486Z" transform="translate(-117.838 -1114.863)" fill="#47aea9"/>
  <path id="Path_17791" data-name="Path 17791" d="M222.064,1142.688c-.16-.365-.39-.7-.5-.962A2.727,2.727,0,0,0,222.064,1142.688Z" transform="translate(-117.838 -1114.863)" fill="#47aea9"/>
  <path id="Path_17792" data-name="Path 17792" d="M173.161,1114.935a.723.723,0,0,1-.147.02c-.126-.008-.316-.013-.473-.027a.689.689,0,0,1-.258-.065,5.086,5.086,0,0,1,.617.022c.03.006.079,0,.107.021C173.118,1114.911,173.21,1114.928,173.161,1114.935Z" transform="translate(-117.838 -1114.863)" fill="#47aea9"/>
  <path id="Path_17793" data-name="Path 17793" d="M226.053,1154.567c.031.041.043.005.065-.006-.03-.114-.059-.225-.171-.61.007.094,0,.186.016.316A2.012,2.012,0,0,0,226.053,1154.567Z" transform="translate(-117.838 -1114.863)" fill="#47aea9"/>
  <path id="Path_17794" data-name="Path 17794" d="M224.525,1177.844c-.026-.094-.1.108-.224.442C224.333,1178.452,224.418,1178.206,224.525,1177.844Z" transform="translate(-117.838 -1114.863)" fill="#47aea9"/>
  <path id="Path_17795" data-name="Path 17795" d="M226.586,1169.468a5.878,5.878,0,0,0-.163,1.027A5.366,5.366,0,0,0,226.586,1169.468Z" transform="translate(-117.838 -1114.863)" fill="#47aea9"/>
  <path id="Path_17796" data-name="Path 17796" d="M225.795,1149.095c.122.291.016-.048-.008-.16-.016-.08-.083-.236-.155-.457a.708.708,0,0,0,.024.212A4,4,0,0,0,225.795,1149.095Z" transform="translate(-117.838 -1114.863)" fill="#47aea9"/>
  <path id="Path_17797" data-name="Path 17797" d="M199.646,1119.7c-.044-.037-.082-.073-.109-.1a3.129,3.129,0,0,0-.593-.3c-.06-.017,0,.045.061.079C199.209,1119.487,199.437,1119.6,199.646,1119.7Z" transform="translate(-117.838 -1114.863)" fill="#47aea9"/>
  <path id="Path_17798" data-name="Path 17798" d="M121.687,1147.277c-.177-.141-1.2,1.944-1.713,2.943-.24.457-.474.916-.779,1.543-.1.505.4-.707.564-.953C119.9,1150.89,120.964,1148.4,121.687,1147.277Z" transform="translate(-117.838 -1114.863)" fill="#47aea9"/>
  <path id="Path_17799" data-name="Path 17799" d="M144.954,1125.454c-.136.077-.338.2-.512.308.125-.05.255-.1.393-.155a1.613,1.613,0,0,0,.43-.249C145.357,1125.276,145.207,1125.328,144.954,1125.454Z" transform="translate(-117.838 -1114.863)" fill="#47aea9"/>
  <path id="Path_17800" data-name="Path 17800" d="M134.852,1131.824a.243.243,0,0,1,.051-.035l-.021.009A.141.141,0,0,0,134.852,1131.824Z" transform="translate(-117.838 -1114.863)" fill="#47aea9"/>
  <path id="Path_17801" data-name="Path 17801" d="M133.7,1132.741c.23-.134.712-.556,1.157-.917C134.824,1131.733,134.4,1132.063,133.7,1132.741Z" transform="translate(-117.838 -1114.863)" fill="#47aea9"/>
  <path id="Path_17802" data-name="Path 17802" d="M135.416,1128.057c.39-.273.785-.542,1.192-.805C136.763,1127.007,135.955,1127.637,135.416,1128.057Z" transform="translate(-117.838 -1114.863)" fill="#47aea9"/>
  <path id="Path_17803" data-name="Path 17803" d="M207.287,1124.084a4.391,4.391,0,0,0,.755.682A5.287,5.287,0,0,0,207.287,1124.084Z" transform="translate(-117.838 -1114.863)" fill="#47aea9"/>
  <path id="Path_17804" data-name="Path 17804" d="M222.255,1142.387a4.136,4.136,0,0,0-.4-.873A4.975,4.975,0,0,0,222.255,1142.387Z" transform="translate(-117.838 -1114.863)" fill="#47aea9"/>
  <path id="Path_17805" data-name="Path 17805" d="M226.005,1156.957a3.5,3.5,0,0,0-.086-.886A3.368,3.368,0,0,0,226.005,1156.957Z" transform="translate(-117.838 -1114.863)" fill="#47aea9"/>
  <path id="Path_17806" data-name="Path 17806" d="M194.134,1119.3c.146,0,.007-.107-.511-.3-.888-.322-1.231-.531-2.351-.974.739.371,1.057.575,1.866.91A4.405,4.405,0,0,0,194.134,1119.3Z" transform="translate(-117.838 -1114.863)" fill="#47aea9"/>
  <path id="Path_17807" data-name="Path 17807" d="M198.254,1121.258c-.732-.442-1.64-.9-2.146-1.215A7.869,7.869,0,0,0,198.254,1121.258Z" transform="translate(-117.838 -1114.863)" fill="#47aea9"/>
  <path id="Path_17808" data-name="Path 17808" d="M209.88,1129.474a7.57,7.57,0,0,0-1.113-1.123A13.549,13.549,0,0,0,209.88,1129.474Z" transform="translate(-117.838 -1114.863)" fill="#47aea9"/>
  <path id="Path_17809" data-name="Path 17809" d="M205.43,1124.8a1.446,1.446,0,0,0-.425-.246s-.108-.037-.043.027a1.692,1.692,0,0,0,.432.273C205.51,1124.911,205.64,1124.968,205.43,1124.8Z" transform="translate(-117.838 -1114.863)" fill="#47aea9"/>
  <path id="Path_17810" data-name="Path 17810" d="M196.655,1122.658l.012.005v0h0Z" transform="translate(-117.838 -1114.863)" fill="#47aea9"/>
  <path id="Path_17811" data-name="Path 17811" d="M119.3,1183.5a1.649,1.649,0,0,0,.042.448,2.169,2.169,0,0,1,.192,1.2,1.147,1.147,0,0,0,.061.45,1.957,1.957,0,0,0,.13.351c.138.249.031-.4.044-.63a4.243,4.243,0,0,0-.2-.949A4.681,4.681,0,0,0,119.3,1183.5Z" transform="translate(-117.838 -1114.863)" fill="#47aea9"/>
  <path id="Path_17812" data-name="Path 17812" d="M183.465,1223.035a12.882,12.882,0,0,1-2.674.154c-.22.188.621.188,2.03.017.329-.021.8-.071.542.033-.181.081-1.166.269-.349.194a7.069,7.069,0,0,0,1.474-.343c.309.014-.033.2,1.339-.077C186.153,1222.744,184.045,1223.1,183.465,1223.035Z" transform="translate(-117.838 -1114.863)" fill="#47aea9"/>
  <path id="Path_17813" data-name="Path 17813" d="M218.407,1201.238c-1.321,1.449-2.731,3-5.193,5.389A40.9,40.9,0,0,0,218.407,1201.238Z" transform="translate(-117.838 -1114.863)" fill="#47aea9"/>
  <path id="Path_17814" data-name="Path 17814" d="M122.6,1199.311a14.021,14.021,0,0,0-.909-2.289A11.635,11.635,0,0,0,122.6,1199.311Z" transform="translate(-117.838 -1114.863)" fill="#47aea9"/>
  <path id="Path_17815" data-name="Path 17815" d="M121.835,1195.553c-.35-1.169-.841-2.64-1.309-4.3C120.887,1192.7,121.328,1194.137,121.835,1195.553Z" transform="translate(-117.838 -1114.863)" fill="#47aea9"/>
  <path id="Path_17816" data-name="Path 17816" d="M124.1,1200.872c.123.094.159.069-.14-.434a15.345,15.345,0,0,1-.809-1.473,5.832,5.832,0,0,0,.487,1.189A2.588,2.588,0,0,0,124.1,1200.872Z" transform="translate(-117.838 -1114.863)" fill="#47aea9"/>
  <path id="Path_17817" data-name="Path 17817" d="M175.629,1221.288c-.7-.126-2.21-.172-3.434-.3.6.095,1.2.177,1.81.261a35.26,35.26,0,0,0,4.051.281,6.723,6.723,0,0,0,1.214-.049c.065-.077-.6-.019-.931-.031C177.426,1221.42,176.513,1221.361,175.629,1221.288Z" transform="translate(-117.838 -1114.863)" fill="#47aea9"/>
  <path id="Path_17818" data-name="Path 17818" d="M222.027,1197.657c-1.03,1.493-2.094,2.9-3.207,4.226A21.549,21.549,0,0,0,222.027,1197.657Z" transform="translate(-117.838 -1114.863)" fill="#47aea9"/>
  <path id="Path_17819" data-name="Path 17819" d="M187.441,1220.53c-.183-.175-2.32.272-3.264.277-.842.069-1.687.125-2.535.161a9.491,9.491,0,0,0,1.967-.053C184.371,1220.991,186.669,1220.536,187.441,1220.53Z" transform="translate(-117.838 -1114.863)" fill="#47aea9"/>
  <path id="Path_17820" data-name="Path 17820" d="M124.284,1202.671c.333.128-.181-.62-.8-1.572A13.1,13.1,0,0,0,124.284,1202.671Z" transform="translate(-117.838 -1114.863)" fill="#47aea9"/>
  <path id="Path_17821" data-name="Path 17821" d="M196.391,1217.066c-.691.118-1.887.539-3.08.912A12.483,12.483,0,0,0,196.391,1217.066Z" transform="translate(-117.838 -1114.863)" fill="#47aea9"/>
  <path id="Path_17822" data-name="Path 17822" d="M149.425,1222.969c-.346-.122-.055.156-1.085-.391-.106-.046.057.068.072.09a5.134,5.134,0,0,0,1.3.631C150.446,1223.533,149.577,1223.107,149.425,1222.969Z" transform="translate(-117.838 -1114.863)" fill="#47aea9"/>
  <path id="Path_17823" data-name="Path 17823" d="M127.968,1206.317a14.241,14.241,0,0,0,1.255,1.807A14.274,14.274,0,0,0,127.968,1206.317Z" transform="translate(-117.838 -1114.863)" fill="#47aea9"/>
  <path id="Path_17824" data-name="Path 17824" d="M215.306,1202.368a33.58,33.58,0,0,0-2.941,3.027C213.557,1204.258,214.337,1203.439,215.306,1202.368Z" transform="translate(-117.838 -1114.863)" fill="#47aea9"/>
  <path id="Path_17825" data-name="Path 17825" d="M135.732,1215.869c-.295-.291-.582-.588-.959-.985C134.437,1214.775,134.827,1215.169,135.732,1215.869Z" transform="translate(-117.838 -1114.863)" fill="#47aea9"/>
  <path id="Path_17826" data-name="Path 17826" d="M147.665,1217.855a4.033,4.033,0,0,0-.712-.308c-.142-.026.235.2.364.261,1.208.517.524.361,1.022.621C148.718,1218.483,148.543,1218.328,147.665,1217.855Z" transform="translate(-117.838 -1114.863)" fill="#47aea9"/>
  <path id="Path_17827" data-name="Path 17827" d="M180.058,1222.527c.456.016.842.032,1.488.047C181.874,1222.357,181.981,1222.262,180.058,1222.527Z" transform="translate(-117.838 -1114.863)" fill="#47aea9"/>
  <path id="Path_17828" data-name="Path 17828" d="M118.672,1189.878a5.829,5.829,0,0,0-.354-2.023C118.529,1188.755,118.533,1189.106,118.672,1189.878Z" transform="translate(-117.838 -1114.863)" fill="#47aea9"/>
  <path id="Path_17829" data-name="Path 17829" d="M169.06,1226.135c-.264-.05-.618-.1-.969-.159-.113.055.441.123.705.179.319.06.053.119.781.18a3.413,3.413,0,0,0,.465,0C170.252,1226.267,169.429,1226.206,169.06,1226.135Z" transform="translate(-117.838 -1114.863)" fill="#47aea9"/>
  <path id="Path_17830" data-name="Path 17830" d="M134.439,1213.858c-.421-.463-.837-.924-1.233-1.388-.112.087.445.678,1.068,1.287a10.587,10.587,0,0,0,1.569,1.5C135.356,1214.8,134.892,1214.327,134.439,1213.858Z" transform="translate(-117.838 -1114.863)" fill="#47aea9"/>
  <path id="Path_17831" data-name="Path 17831" d="M196.561,1218.82c-.9.313-1.785.6-2.677.873-.045,0-.1.013-.157.02a21.506,21.506,0,0,0-2.084.566c.459-.1.923-.194,1.383-.3q1.654-.459,3.306-1.034C196.41,1218.906,196.475,1218.866,196.561,1218.82Z" transform="translate(-117.838 -1114.863)" fill="#47aea9"/>
  <path id="Path_17832" data-name="Path 17832" d="M187.037,1222.084a16.6,16.6,0,0,0-2.308.236c-.4.185.251.092.808.014.6-.039,1.193-.079,1.828-.136C187.784,1222.01,186.837,1222.2,187.037,1222.084Z" transform="translate(-117.838 -1114.863)" fill="#47aea9"/>
  <path id="Path_17833" data-name="Path 17833" d="M167.019,1225.581c-.787-.188-1.136-.325-2.379-.594A9.717,9.717,0,0,0,167.019,1225.581Z" transform="translate(-117.838 -1114.863)" fill="#47aea9"/>
  <path id="Path_17834" data-name="Path 17834" d="M145.911,1221.013a1.913,1.913,0,0,0,.4.158,6.061,6.061,0,0,0-1.076-.676C145.16,1220.571,145.365,1220.731,145.911,1221.013Z" transform="translate(-117.838 -1114.863)" fill="#47aea9"/>
  <path id="Path_17835" data-name="Path 17835" d="M155.2,1221.776c.6.255,1.212.5,1.824.73A12.918,12.918,0,0,0,155.2,1221.776Z" transform="translate(-117.838 -1114.863)" fill="#47aea9"/>
  <path id="Path_17836" data-name="Path 17836" d="M127.746,1207.378a49.935,49.935,0,0,1-2.912-4.614c-.033-.032-.073-.085-.111-.123a51.134,51.134,0,0,0,2.908,4.638,9.382,9.382,0,0,0,1.151,1.621C128.534,1208.5,127.911,1207.721,127.746,1207.378Z" transform="translate(-117.838 -1114.863)" fill="#47aea9"/>
  <path id="Path_17837" data-name="Path 17837" d="M118.229,1172.8c-.075.495-.146,1-.2,1.5.01.084.011.179.026.265.053-.544.124-1.085.2-1.624C118.243,1172.891,118.238,1172.852,118.229,1172.8Z" transform="translate(-117.838 -1114.863)" fill="#47aea9"/>
  <path id="Path_17838" data-name="Path 17838" d="M210.1,1209.3a12.458,12.458,0,0,0-1.812,1.216A6.055,6.055,0,0,0,210.1,1209.3Z" transform="translate(-117.838 -1114.863)" fill="#47aea9"/>
  <path id="Path_17839" data-name="Path 17839" d="M208.293,1210.514l-.03.02v.006C208.271,1210.529,208.285,1210.525,208.293,1210.514Z" transform="translate(-117.838 -1114.863)" fill="#47aea9"/>
  <path id="Path_17840" data-name="Path 17840" d="M201.782,1214.754c-.124.155.456-.148.878-.425.614-.412.479-.406.433-.434C202.694,1214.214,202.035,1214.471,201.782,1214.754Z" transform="translate(-117.838 -1114.863)" fill="#47aea9"/>
  <path id="Path_17841" data-name="Path 17841" d="M199.5,1218.022c-1.5.632-3,1.181-4.516,1.663-.193.046-.409.106-.587.137a3.542,3.542,0,0,0-.947.322c-.363.167-.18.145.033.1a18.355,18.355,0,0,0,3.9-1.265,13.175,13.175,0,0,0,1.87-.791,5.061,5.061,0,0,0,1.522-.66C200.852,1217.368,199.994,1217.823,199.5,1218.022Z" transform="translate(-117.838 -1114.863)" fill="#47aea9"/>
  <path id="Path_17842" data-name="Path 17842" d="M173.677,1225.282c-.074.087.666.12,1.382.167C175.062,1225.335,174.286,1225.327,173.677,1225.282Z" transform="translate(-117.838 -1114.863)" fill="#47aea9"/>
  <path id="Path_17843" data-name="Path 17843" d="M202.836,1212.9c-.182-.048-1.189.754-1.935,1.1A7.994,7.994,0,0,0,202.836,1212.9Z" transform="translate(-117.838 -1114.863)" fill="#47aea9"/>
  <path id="Path_17844" data-name="Path 17844" d="M169.328,1223.057c-.578-.11-1.175-.217-2.079-.357a16,16,0,0,0,1.88.364c.8.134,1.608.255,2.423.36,1.332.165,2.68.281,4.061.359.066-.013.151-.022.216-.029-1.376-.071-2.736-.19-4.076-.349C170.944,1223.308,170.132,1223.185,169.328,1223.057Z" transform="translate(-117.838 -1114.863)" fill="#47aea9"/>
  <path id="Path_17845" data-name="Path 17845" d="M179.8,1221.477c-.4.16.24.147,1.214.078C180.535,1221.528,180.208,1221.5,179.8,1221.477Z" transform="translate(-117.838 -1114.863)" fill="#47aea9"/>
  <path id="Path_17846" data-name="Path 17846" d="M207.335,1211.026c-.367.191-.737.4-1.1.581a3.3,3.3,0,0,0-.878.6c-.425.358-.669.6-.238.343.509-.3,1.092-.684,1.639-1.045.506-.312,1.008-.643,1.5-.969C208.3,1210.381,207.885,1210.652,207.335,1211.026Z" transform="translate(-117.838 -1114.863)" fill="#47aea9"/>
  <path id="Path_17847" data-name="Path 17847" d="M202.185,1214.245c-.363.37.47-.121.9-.357C203.079,1213.8,202.927,1213.832,202.185,1214.245Z" transform="translate(-117.838 -1114.863)" fill="#47aea9"/>
  <path id="Path_17848" data-name="Path 17848" d="M203.088,1213.888c0,.006,0,.006.005.007s.009-.011.015-.01S203.1,1213.89,203.088,1213.888Z" transform="translate(-117.838 -1114.863)" fill="#47aea9"/>
  <path id="Path_17849" data-name="Path 17849" d="M205.493,1212.74c.229-.3-.414.163-1.1.573A3.5,3.5,0,0,0,205.493,1212.74Z" transform="translate(-117.838 -1114.863)" fill="#47aea9"/>
  <path id="Path_17850" data-name="Path 17850" d="M185.329,1223.524c.035.02,0,.058.138.045a3.621,3.621,0,0,0,.738-.159c.178-.067.211-.106-.06-.056C185.941,1223.386,185.607,1223.469,185.329,1223.524Z" transform="translate(-117.838 -1114.863)" fill="#47aea9"/>
  <path id="Path_17851" data-name="Path 17851" d="M177.492,1224.255c.508.008,1.023.011,1.539.014.06-.015.113-.024.166-.033-.523,0-1.026,0-1.548-.008C177.6,1224.239,177.538,1224.245,177.492,1224.255Z" transform="translate(-117.838 -1114.863)" fill="#47aea9"/>
  <path id="Path_17852" data-name="Path 17852" d="M201,1217.676c-.016-.086-.638.235-1.187.513A6.8,6.8,0,0,0,201,1217.676Z" transform="translate(-117.838 -1114.863)" fill="#47aea9"/>
  <path id="Path_17853" data-name="Path 17853" d="M206.759,1214.886c.543-.336,1.087-.684,1.62-1.042A8.914,8.914,0,0,0,206.759,1214.886Z" transform="translate(-117.838 -1114.863)" fill="#47aea9"/>
  <path id="Path_17854" data-name="Path 17854" d="M208.379,1213.844c.008-.005.008-.005.02,0v-.007A.06.06,0,0,0,208.379,1213.844Z" transform="translate(-117.838 -1114.863)" fill="#47aea9"/>
  <path id="Path_17855" data-name="Path 17855" d="M123.259,1200.693a2.935,2.935,0,0,0-.487-1.024C122.949,1200.047,123.073,1200.3,123.259,1200.693Z" transform="translate(-117.838 -1114.863)" fill="#47aea9"/>
  <path id="Path_17856" data-name="Path 17856" d="M118.067,1177.394c-.011-.04-.029.021-.039.107a1.775,1.775,0,0,0,.034.492c.013.033.021-.111.043-.19C118.091,1177.641,118.083,1177.449,118.067,1177.394Z" transform="translate(-117.838 -1114.863)" fill="#47aea9"/>
  <path id="Path_17857" data-name="Path 17857" d="M117.838,1177.16a8.5,8.5,0,0,0,.089-1.271A5.9,5.9,0,0,0,117.838,1177.16Z" transform="translate(-117.838 -1114.863)" fill="#47aea9"/>
  <path id="Path_17858" data-name="Path 17858" d="M217.491,1203.5c-.381.431-.755.857-1.265,1.39A7.81,7.81,0,0,0,217.491,1203.5Z" transform="translate(-117.838 -1114.863)" fill="#47aea9"/>
  <path id="Path_17859" data-name="Path 17859" d="M216.312,1202.6a16.7,16.7,0,0,0,1.324-1.532c.375-.464.727-.907,1.273-1.631a12.19,12.19,0,0,0-1.085,1.31C217.378,1201.29,217,1201.716,216.312,1202.6Z" transform="translate(-117.838 -1114.863)" fill="#47aea9"/>
  <path id="Path_17860" data-name="Path 17860" d="M122.937,1198.4c.161.362.4.7.5.961A2.634,2.634,0,0,0,122.937,1198.4Z" transform="translate(-117.838 -1114.863)" fill="#47aea9"/>
  <path id="Path_17861" data-name="Path 17861" d="M172.464,1226.166a2.071,2.071,0,0,0-.624,0c-.059.008.114.034.258.049.125.011.356.01.629.012A1.158,1.158,0,0,0,172.464,1226.166Z" transform="translate(-117.838 -1114.863)" fill="#47aea9"/>
  <path id="Path_17862" data-name="Path 17862" d="M118.948,1186.521c-.03-.044-.043-.008-.065.007.031.108.06.222.172.606,0-.089,0-.179-.017-.315A2.739,2.739,0,0,0,118.948,1186.521Z" transform="translate(-117.838 -1114.863)" fill="#47aea9"/>
  <path id="Path_17863" data-name="Path 17863" d="M120.482,1163.243c.027.094.1-.109.211-.438C120.667,1162.641,120.589,1162.881,120.482,1163.243Z" transform="translate(-117.838 -1114.863)" fill="#47aea9"/>
  <path id="Path_17864" data-name="Path 17864" d="M118.415,1171.623a6.765,6.765,0,0,0,.164-1.033A5.894,5.894,0,0,0,118.415,1171.623Z" transform="translate(-117.838 -1114.863)" fill="#47aea9"/>
  <path id="Path_17865" data-name="Path 17865" d="M119.212,1191.995c-.128-.3-.022.047.008.16a4.681,4.681,0,0,0,.15.449.8.8,0,0,0-.024-.208A3.463,3.463,0,0,0,119.212,1191.995Z" transform="translate(-117.838 -1114.863)" fill="#47aea9"/>
  <path id="Path_17866" data-name="Path 17866" d="M145.355,1221.386a.634.634,0,0,1,.109.1,2.878,2.878,0,0,0,.593.3c.061.018,0-.044-.061-.075C145.793,1221.6,145.571,1221.49,145.355,1221.386Z" transform="translate(-117.838 -1114.863)" fill="#47aea9"/>
  <path id="Path_17867" data-name="Path 17867" d="M225.243,1190.273c-.138-.078-1.206,2.415-1.93,3.539.177.142,1.205-1.944,1.72-2.942.234-.459.468-.918.773-1.547C225.9,1188.825,225.4,1190.035,225.243,1190.273Z" transform="translate(-117.838 -1114.863)" fill="#47aea9"/>
  <path id="Path_17868" data-name="Path 17868" d="M200.042,1215.627a5.505,5.505,0,0,0,.517-.3c-.125.053-.248.1-.394.161a1.476,1.476,0,0,0-.428.244C199.65,1215.814,199.794,1215.758,200.042,1215.627Z" transform="translate(-117.838 -1114.863)" fill="#47aea9"/>
  <path id="Path_17869" data-name="Path 17869" d="M210.157,1209.263l-.007,0c-.015.011-.03.027-.045.037l.015-.01A.179.179,0,0,0,210.157,1209.263Z" transform="translate(-117.838 -1114.863)" fill="#47aea9"/>
  <path id="Path_17870" data-name="Path 17870" d="M211.306,1208.347c-.23.136-.712.56-1.149.916C210.184,1209.351,210.6,1209.028,211.306,1208.347Z" transform="translate(-117.838 -1114.863)" fill="#47aea9"/>
  <path id="Path_17871" data-name="Path 17871" d="M209.591,1213.036c-.39.27-.79.532-1.192.806C208.238,1214.085,209.047,1213.449,209.591,1213.036Z" transform="translate(-117.838 -1114.863)" fill="#47aea9"/>
  <path id="Path_17872" data-name="Path 17872" d="M137.714,1217.005a4.561,4.561,0,0,0-.755-.685A5.233,5.233,0,0,0,137.714,1217.005Z" transform="translate(-117.838 -1114.863)" fill="#47aea9"/>
  <path id="Path_17873" data-name="Path 17873" d="M163.011,1224.505c.078.028.307.065.46.094a.131.131,0,0,0,.024-.058c-.21-.035-.382-.068-.549-.093C162.962,1224.464,162.919,1224.482,163.011,1224.505Z" transform="translate(-117.838 -1114.863)" fill="#47aea9"/>
  <path id="Path_17874" data-name="Path 17874" d="M168.72,1225.58c-.259-.011-.505-.026-.752-.035a1.441,1.441,0,0,1,.18.06,1.49,1.49,0,0,0,.619.028C168.788,1225.625,168.736,1225.6,168.72,1225.58Z" transform="translate(-117.838 -1114.863)" fill="#47aea9"/>
  <path id="Path_17875" data-name="Path 17875" d="M122.752,1198.7a4.044,4.044,0,0,0,.4.871A5.109,5.109,0,0,0,122.752,1198.7Z" transform="translate(-117.838 -1114.863)" fill="#47aea9"/>
  <path id="Path_17876" data-name="Path 17876" d="M119,1184.134a3.7,3.7,0,0,0,.087.884A3.259,3.259,0,0,0,119,1184.134Z" transform="translate(-117.838 -1114.863)" fill="#47aea9"/>
  <path id="Path_17877" data-name="Path 17877" d="M150.862,1221.784c-.14,0,0,.109.517.3.888.322,1.236.535,2.355.978-.736-.377-1.056-.577-1.87-.917A4.639,4.639,0,0,0,150.862,1221.784Z" transform="translate(-117.838 -1114.863)" fill="#47aea9"/>
  <path id="Path_17878" data-name="Path 17878" d="M146.748,1219.828c.731.445,1.638.9,2.144,1.218A7.649,7.649,0,0,0,146.748,1219.828Z" transform="translate(-117.838 -1114.863)" fill="#47aea9"/>
  <path id="Path_17879" data-name="Path 17879" d="M135.121,1211.617a7.983,7.983,0,0,0,1.119,1.119A14.032,14.032,0,0,0,135.121,1211.617Z" transform="translate(-117.838 -1114.863)" fill="#47aea9"/>
  <path id="Path_17880" data-name="Path 17880" d="M139.571,1216.289a1.607,1.607,0,0,0,.425.246s.108.033.044-.03a1.675,1.675,0,0,0-.432-.273C139.491,1216.177,139.361,1216.121,139.571,1216.289Z" transform="translate(-117.838 -1114.863)" fill="#47aea9"/>
  <path id="Path_17881" data-name="Path 17881" d="M174.61,1117.534a1.5,1.5,0,0,1-.25-.031,6.884,6.884,0,0,0-1.315-.2l-.138-.026c-.3-.025-.6-.05-.907-.093-.218-.026-.758-.033-.62-.087a1.24,1.24,0,0,0-.534-.038,8.756,8.756,0,0,1-.93.03c-.233.051.261.05.5.063.345.034.741.046,1.131.088.513.066.995.126,1.506.207.5.063,1.008.144,1.564.234Zm.006.718c-.48-.075-.992-.141-1.524-.194l-.031-.006a33.015,33.015,0,0,0-3.827-.06c-.048.166.937.178,2.061.217a6.064,6.064,0,0,1,1.419.079c.111.085-.625.1-1.144.149-.26.03-.828,0-1.126.056-.215-.041-.433-.066-.648-.107l.012-.062a4.532,4.532,0,0,0,.761.018c.057-.053-.149-.14-1.128-.1a2.8,2.8,0,0,1-.365-.005c-.632-.025-1.234-.044-1.869-.054a2.174,2.174,0,0,0-.3.055c.636.01,1.271.019,1.9.044.246.047.154.109-.177.174a6.691,6.691,0,0,0-1.269.14,9.918,9.918,0,0,0-1.78.06c.246.046.474.106.705.15a22.913,22.913,0,0,0,2.84.142,10.666,10.666,0,0,0,1.206.023,1.213,1.213,0,0,1,.256.08c0,.065.314.108,1.1.082l.593.065c-.555.07.548.136.358.212-.515.029-1.495-.014-1.681.046-.223.085.513.146,1.079.19.359.036.7.07,1.044.119l.046.009a5.83,5.83,0,0,0,1.52.3Zm14.675,10.181c-.433-.219-.9-.439-1.39-.654l-.028-.015a33.415,33.415,0,0,0-3.623-1.234c-.1.144.837.458,1.894.841a6.063,6.063,0,0,1,1.326.511c.08.116-.627-.093-1.134-.21-.257-.051-.789-.253-1.088-.292-.193-.106-.392-.2-.584-.3l.03-.055a4.405,4.405,0,0,0,.719.251c.071-.033-.1-.179-1.042-.445a3.057,3.057,0,0,1-.345-.118c-.594-.218-1.161-.421-1.763-.626a2.046,2.046,0,0,0-.3-.039c.6.2,1.2.409,1.8.627.22.12.114.151-.221.111a6.719,6.719,0,0,0-1.251-.257,9.982,9.982,0,0,0-1.712-.491c.22.12.418.247.624.36a22.941,22.941,0,0,0,2.659,1.009,10.555,10.555,0,0,0,1.141.393,1.172,1.172,0,0,1,.218.155c-.016.062.266.2,1.021.416.172.076.358.16.544.244-.549-.1.479.3.276.312-.5-.131-1.418-.473-1.614-.474-.239.013.444.3.968.513.331.145.648.283.957.435l.041.022a5.838,5.838,0,0,0,1.352.758Zm-14.624-7.686c-.511-.081-1.039-.15-1.573-.188-.716-.089-1.456-.134-2.2-.179-.55-.041-1.118-.07-1.668-.111a49.173,49.173,0,0,0-5.068-.153c-.122.136.988,0,.918.111-1.487.115-2.454.17-3.4.228a9.408,9.408,0,0,0-3.114.459c-1.286.312-1.747.3-2.715.534l0,.016q-2.008.381-4,.957a16.022,16.022,0,0,1,1.86-.569,13.407,13.407,0,0,0,1.746-.465,4.275,4.275,0,0,0-1.5.352c-.8.167-1.583.367-2.389.58-.508.158-1.031.314-1.539.472a.809.809,0,0,0-.144.084c.42-.111.839-.223,1.256-.318-.122.056-.229.115-.336.175-1.483.339-4.029,1.415-5,1.645-.718.341-1.436.682-2.145,1.057-.224.005-.524.075-1.641.754a21.008,21.008,0,0,0-4.35,2.852c-.07.034-.128.087-.18.109-.476.324-.973.675-1.452,1.014-.744.559-.156-.014.419-.526a7.579,7.579,0,0,0,1.164-.845c-.071-.046-.594.364-.89.579-.314.227-.616.472-.918.717a32.429,32.429,0,0,0-4.718,3.865,12.269,12.269,0,0,0-2.031,2.05c.475-.4,1.174-1.146,1.816-1.757,1.031-.982,2.081-1.9,3.136-2.748-.43.667.858-.41,1.5-.8a18.672,18.672,0,0,0,1.7-1.127c.066.076.781-.505,1.315-.881,1.308-.929,2.941-1.973,2.144-1.137-.3.341.524-.155,1.375-.694.723-.451,1.215-.692,1.893-1.073.345-.141.675-.285,1.018-.411a2.787,2.787,0,0,0,1.052-.421c.122-.136-.133-.057-.441.059-.374.12-.75.256-1.108.379-.578.272-.649.227-.13-.153a3.586,3.586,0,0,1,.7-.328,49.393,49.393,0,0,1,7.676-2.585c-.593.19-1.4.513-1.722.6a15.162,15.162,0,0,0-4.587,2.169c.064-.083.268-.235-.026-.116a1.8,1.8,0,0,0-.479.259c-.207.168-.307.276.145.076.34-.111-1.6.969-.377.39a13.224,13.224,0,0,0,1.793-.965,8.337,8.337,0,0,1,2.909-1.39c.425-.142.847-.268,1.27-.4a13.462,13.462,0,0,0,2.731-1.041l.2-.057a.225.225,0,0,0,.1-.013c.858-.156-.221.324.392.282,1.009-.111,3.278-.651,4.42-.7.441-.059.864-.106,1.306-.166a20.406,20.406,0,0,1,3.251-.177c1.546-.088,2.238.044,3.9.01.774.036,1.548.072,2.331.141.842.1,1.825.2,2.851.336.513.066,1.042.135,1.567.219Zm-1.368-3.526c.439.036.86.084,1.3.12l-.006-.559c-.411-.014-.687.013-.5.112C174.5,1117.115,174.434,1117.118,173.3,1117.221Zm6.946,11.176c.394.2.766.4,1.16.6l.2-.52c-.376-.167-.642-.245-.5-.083C181.4,1128.747,181.335,1128.726,180.245,1128.4ZM225.7,1185.76c.038-.12.065-.259.107-.394.071-.209.137-.388.194-.52a19.783,19.783,0,0,0,.849-2.117c-.037-.309-.365.663-.76,1.735-.213.533-.423,1.051-.649,1.565a7.86,7.86,0,0,0-.657,1.357c.011-.142-.091.062-.286.5-.392.8-.688,1.27-1.242,2.423-.051-.153-.541.917-.955,1.667-.329.558-.729,1.231-.79,1.139a5.836,5.836,0,0,0,.221-.579.724.724,0,0,0-.088.127c-.211.358-.479.928-.744,1.483a33.37,33.37,0,0,1-2.167,3.012,15.287,15.287,0,0,1-1.141,1.392c1.885-2.62,3.511-5.385,4.659-7.317.019.068.1.051.5-.812.335-.669.672-1.353,1.133-2.349a4.521,4.521,0,0,0-.855,1.478c-.151.29-.284.568-.435.857-.133.118-.7,1.268-.678.97a7.644,7.644,0,0,0,.653-1.341,3.877,3.877,0,0,0,.141-.4c-.015,0-.2.361-.314.561-.459.821-1.058,2.045-1.7,3.229-.588.828-1.386,2.094-2.4,3.589-.8,1.042.292-1.028.162-1.1a8.147,8.147,0,0,1,.754-1.45c.88-1.361,1.65-2.728,2.033-3.149a13.683,13.683,0,0,1-.983,2.154,16.377,16.377,0,0,0,1.333-2.486c.5-1.18-.071-.125.014-.491.772-1.8.78-2,.33-1.148-.679,1.305-1.475,2.73-2.232,3.94-.347.571-.966,1.648-1.017,1.495.787-1.539-.021-.227.144-.673.353-.682.623-1.013.993-1.866.924-1.927,1.332-2.312,2.322-4.751-.173.158-.869,1.889-.977,1.869-.268.235-1.846,3.5-1.523,2.226.166-.287.311-.546.459-.82.23.044,1.459-2.813,1.942-3.756a9.573,9.573,0,0,0-1.207,2.239c-.815,1.518-1.661,2.95-2.669,4.478.97-1.663,1.738-3.19,2.488-4.783.071.045.28-.218.646-.881.183-.793.166-.956-.247-.127-.055.038-.1.044-.159.082-1.3,2.062-2.853,4.443-4.761,6.931.139-.229.263-.46.4-.688a57.014,57.014,0,0,0,4.711-8.008,51.86,51.86,0,0,0,2.691-6.688l-.4-.076.035-.185a63.989,63.989,0,0,0,1.907-7.171,53.828,53.828,0,0,0,.965-13.262.116.116,0,0,0,.019.068,5.854,5.854,0,0,0-.186-1.788c-.045-.518-.1-1.006-.155-1.527-.025.3.112,1.168.065,1.414.011.194.028.356.042.534.009.288.107.944,0,.829-.114-.4.014.512-.057.387-.02-.147-.093-.432-.109-.515a6.148,6.148,0,0,0,.034.74,4.969,4.969,0,0,1,.01,1.037c-.026-.451-.052-.9-.093-1.356.006-.031-.019-.067-.028-.1.028.436.038.884.052,1.316.019.4.02.817.023,1.216a.235.235,0,0,1-.086-.049c-.01-.7-.04-1.377-.068-2.068a37.415,37.415,0,0,0-.412-4.029,1.687,1.687,0,0,1-.045-.263c-.063-.426-.128-.837-.19-1.263-.083-.319-.162-.652-.227-.983a12.516,12.516,0,0,0-.463-1.92c-.122.056.047.678.3,1.6a22.229,22.229,0,0,0,.645,3.389c.213,1.474.236,2.609.389,4.311.027.945.036,1.9.011,2.87,0,.6-.038,1.2-.072,1.8a4,4,0,0,1-.17,1.226c.039-.455.06-.9.08-1.339a1.837,1.837,0,0,0,.006-.7.132.132,0,0,0,.048-.086,6.616,6.616,0,0,0,.006-1.034c-.1.077-.11.409-.07,1.117a5.116,5.116,0,0,0-.109,1.159c0,.175,0,.365-.022.537-.031.408-.076.814-.108,1.238,0,.414-.018.841-.032,1.252a1.1,1.1,0,0,0-.151.29,5.385,5.385,0,0,0-.177,1.767c-.14.737-.3,1.073-.45,2.112a2.821,2.821,0,0,1,0-1.083c-.111.584-.208,1.012-.312,1.47a.461.461,0,0,0-.007-.129,58.013,58.013,0,0,0,.989-9.21c.008-.206-.016-.5-.019-.737.007-.954-.005-1.9-.06-2.863,0-.239-.008-.543-.091-.607-.036-.229-.069-.475-.1-.7a45.111,45.111,0,0,0-2.018-10.818,6.929,6.929,0,0,0-.392-1.286,2.933,2.933,0,0,0-.5-1.241c-.137-.2-.375-.788-.569-1.192a30.042,30.042,0,0,0-1.814-3.691c.229.554.775,1.534.665,1.609a52.272,52.272,0,0,0-4.064-6.764,8.565,8.565,0,0,0-1.25-1.72c-.1-.131-.2-.277-.307-.393a19.991,19.991,0,0,0-1.7-2.139,25.9,25.9,0,0,0-2.4-2.623c-1.063-1.111-2.03-2.059-2.659-2.768-.137-.122-.288-.246-.424-.368-.734-.745-2.434-1.945-3.272-2.646a9.171,9.171,0,0,0-1.685-1.022c-.309-.218-.621-.421-.929-.639l-.444-.18-.046-.009c.822.619,2.119,1.5,3.337,2.388.559.409,1.365.945,1.341,1.068,1.788,1.153.293.47,1.529,1.342.071.046.108.1.164.143.038.135.1.242.654.746a25.726,25.726,0,0,1,2.062,1.97,4.739,4.739,0,0,0,1.086.908c-.027.058-.382-.169.182.385.047.168.735.825.714.932-.056-.042-.114-.07-.17-.112-.492-.428-.284-.181-.348-.178a7.63,7.63,0,0,1-1.419-1.417c.017-.172-.345-.528-1.3-1.3a13.4,13.4,0,0,1-1.145-1.015,6.11,6.11,0,0,0-1.292-.995c.006-.03.037-.025-.044-.1-.856-.689-1.746-1.368-2.673-2.022-.643-.473-1.307-.918-1.971-1.363-.88-.566-1.763-1.116-2.9-1.747.2.293,3.055,1.776,2.459,1.726-.5-.222-.526-.164-.406-.045-.076-.015-.049.006.094.1.647.363,1.274.753,1.857,1.119a6.5,6.5,0,0,0,.578.4c.21.151.417.318.627.469a32.275,32.275,0,0,1,3.046,2.747c-.522-.354-.841-.686-1.413-1.034-.02.108,1.036.755,1.2.978l-.215-.041c-.1-.052-.1.013-.441-.276a4.3,4.3,0,0,0-1.078-.7c-.317-.172.112.165.375.374a13.854,13.854,0,0,1,1.637,1.443,7,7,0,0,0,1.233.968c.5.493.979.967,1.695,1.724a6.531,6.531,0,0,0-1.54-1.615c-.44-.45-.883-.885-1.36-1.31-.337-.32-.353-.4.119-.121.535.452,1.071.984,1.381,1.027.136.122.242.238.378.359a6.083,6.083,0,0,0,.877.916c1.168,1.226,2.261,2.517,3.286,3.828.562.728.939,1.341,1.731,2.368a26.184,26.184,0,0,1,1.437,2.409c.24.412.452.8.677,1.212.078.174.172.351.25.525.026.117.049.249.074.365-.246-.461-.5-.892-.764-1.34-.33-.446-.309-.553-.681-1.022-.2-.309-.411-.6-.685-1.007.088.208.073.285-.236-.013a12.485,12.485,0,0,0-1.551-2.143c-.29-.406-.6-.8-.9-1.192.114.07.322.237.114-.01a1.877,1.877,0,0,0-.492-.428,8.677,8.677,0,0,0-.884-.965.015.015,0,0,0-.012-.018,39.357,39.357,0,0,0-4.816-5c-.879-.82-1.94-1.691-2.966-2.492a15.988,15.988,0,0,0-1.851-1.4c-.174-.176-.227-.314-1.167-.732-1.1-.561-.511-.161-.464-.072a8.241,8.241,0,0,0-.978-.553c.368.325,1.177.845,1.934,1.388-.37-.15-.669-.255-.1.093.883.55,1.35.942,2.138,1.49.016.083-.585-.191.554.52.213.136.653.506.24.332a.016.016,0,0,0-.019.013.806.806,0,0,0-.1-.082,1.04,1.04,0,0,0,.115.069,38.028,38.028,0,0,0-4.01-2.787c-.25-.191-.5-.366-.769-.56-.915-.382.211.231.14.265-.237-.093-.446-.164-.683-.257-1.163-.588-1.593-.925-2.475-1.4a8.982,8.982,0,0,0-1.693-.9c-.858-.259.925.494,1.01.638.028.021.114.07.169.112a.269.269,0,0,0-.1-.036c-.194-.069-.407-.125-.6-.178a25.841,25.841,0,0,1,2.73,1.475c.185.115.367.245.534.373-.151-.045-.314-.108-.478-.171-.11-.005-.162.017.125.183,1.537.962,1.534.977-.033.424a9.389,9.389,0,0,0-1.409-.714c-.674-.224.1.161.35.337.225.155.371.31-.314-.028-1.5-.747-3.229-1.443-4.487-2.033-.191-.084-.348-.178-.164-.143.228.059.662.286.893.33-1.336-.765-4.3-1.68-5.579-2.242-.675-.3-1.632-.629-2.592-.939-.062-.012-.121-.039-.167-.048a4.871,4.871,0,0,0-1.15-.235c-.7-.086-.276.027.226.155,1.138.3.115.149-.008.2-.212-.056-.446-.085-.661-.126a10.7,10.7,0,0,0,1.508.447l.646.123c.347.018-.164-.143-.214-.216.806.2.8.312,1.607.513,1.3.424,1.208.6,2.828,1.128q.8.32,1.59.685c0,.08-.313.052.091.272.53.228,1.042.469,1.554.71.092.018.2.054.289.071-.527-.243-1.024-.482-1.55-.725a12.67,12.67,0,0,1,2.326,1c.386.313,1.869.978,2.607,1.453.157.093.284.181.457.278l.015,0,.129.072c1.138.551,1.6.958,2.654,1.541l0,.015c.423.288.785.564,1.4.951.18.226.962.725,1.487,1.144.417.318.819.634,1.218.964a.2.2,0,0,1,.031.086c.381.343.975.823.67.749a43.442,43.442,0,0,0-3.8-2.859,55.8,55.8,0,0,0-8.31-4.8c-.289-.15-.7-.309-1.09-.462-.176-.082-.355-.147-.545-.231-1.544-.677-3.149-1.285-4.8-1.838-.434-.146-.884-.3-1.318-.442-.511-.161-1.009-.3-1.508-.446l-.029.153c.511.161,1.038.325,1.5.493s.847.321,1.155.459c-.279-.037.038.055.109.1.172.1.367.246-.158.161a6.812,6.812,0,0,1-1.182-.32c-.059-.027-.136-.042-.194-.069-.375-.119-.834-.223-1.323-.332l2.22,1.376c.446.1-2,.253-1.025.716.089.033.182.05.271.083.373.215,1.521.545,2.215.836-.88-.231-1.643-.329-2.562-.52q-.484-.091-1.052-.248c-.151-.044.612.779.461.734l-1.3.026c-.5-.2,1.058,1.1,1.55,1.272a2.044,2.044,0,0,1,.3.089,18.963,18.963,0,0,0,2.207.707,15.071,15.071,0,0,0-1.814-.68l-.674-.224c-.209-.072-.4-.141-.613-.212.231.044.443.1.627.135,1.123.294,1.429.527,2.375.835l1.3.439,0,.015c-.132.023-.144.084.38.264a1.259,1.259,0,0,0,.728.106c.675.3,1.366.611,2.037.93-.227-.059-.452-.134-.7-.2a2.541,2.541,0,0,0-.835-.3,8.976,8.976,0,0,1-2.091-.813c-.212-.056-.511-.161-.6-.178-.354-.068-.074.049.1.115-.172-.017-.341-.049-.5-.063-.283-.1-.566-.2-.868-.292-.462-.168-.926-.32-1.41-.46-.492-.174-.988-.332-1.5-.477l.573.411c.514.146.37.246.865.4.375.119.736.236,1.08.349.385.153,1.032.356,1.6.559a3.512,3.512,0,0,1,1.113.515c-1.247-.477-2.519-.91-3.812-1.315-.5-.143-3.668-1.084-1.415.767l1.083.283-1.672,1.108,1.034.119.338,1.664c2.05,1.277-3.007-.8-1.156,1.11l-.4,1-1.093.259-.238,1.129c.324.061,1.52.305,2.021.432a41.085,41.085,0,0,1-15.357,80.645c-.513-.066-1.024-.147-1.546-.247l-.2-.038a41.089,41.089,0,0,1,8.469-81.446c.51,0,1.032.021,1.551.056l-.132-7.672c-.51-.081-1.039-.15-1.555-.2-.559-.075-1.109-.116-1.674-.16a1.152,1.152,0,0,0,.243.062c-.157-.013-.28-.037-.243-.062-1.877-.182-3.906-.234-5.788-.226a43.759,43.759,0,0,0-5.612.445,60.436,60.436,0,0,0-8.381,1.765,24.406,24.406,0,0,0-2.423.845,38.888,38.888,0,0,0-5.885,2.463,13.7,13.7,0,0,0-2.386,1.235c.078.174,1.17-.542,1.751-.83-.185.3-.513.6-2.344,1.768a5.5,5.5,0,0,0,1.773-.777c.372-.28-.423.047.9-.721a9.759,9.759,0,0,1,1.778-.888c.154.03-1.176.907-1.274,1a8.183,8.183,0,0,0-.957.678c.1-.044.842-.492.889-.484.189-.075,0,.1-.228.275-.152.131-.32.258-.49.4-.428.237-.877.5-1.307.755-.611.361-1.206.726-1.789,1.109a29.879,29.879,0,0,0-5.188,3.823c1.724-1.44,2.938-2.213,5.052-3.69.564-.37,1.141-.722,1.733-1.072.513-.268,1.008-.525,1.533-.775-.472.388.026.116-.263.38a10.537,10.537,0,0,1-2.04,1.428,48.769,48.769,0,0,0-8.653,6.54,9.409,9.409,0,0,0-.866.95,14.085,14.085,0,0,0-1.714,1.808c-.016,0-.019.012-.022.028a1.748,1.748,0,0,0-.379.405c-.52.555-1.027,1.127-1.541,1.73a9.373,9.373,0,0,0-2.013,2.628c-1.324,2.185-2.131,3.322-2.1,2.674,0-.16.247-.8-.026-.451-.512,1.1-1.017,2.244-1.5,3.457-.233.386-.45.775-.67,1.179-.076.145-.157.32-.23.45-.494,1.005-.975,2.028-1.442,3.055a17.2,17.2,0,0,0-.827,2.168c.106-.139.436-1.032.709-1.713.01.034.037.055.047.089-.039.12-.065.258-.11.409-.069.194-.135.373-.195.52a16.186,16.186,0,0,0-.849,2.117c.024.291.368-.679.761-1.735.215-.549.426-1.066.651-1.581a8.45,8.45,0,0,0,.638-1.344c.008.129.11-.074.305-.515.389-.786.689-1.271,1.243-2.424.035.15.541-.916.939-1.669.345-.555.728-1.231.788-1.124a5.667,5.667,0,0,0-.222.579c-.009.046.012.018.1-.124.214-.373.482-.944.745-1.483a32.355,32.355,0,0,1,2.153-3.031c.229-.2,1.01-1.369,1.157-1.388-1.885,2.62-3.514,5.4-4.659,7.316-.037-.055-.1-.051-.508.827-.334.669-.669,1.339-1.129,2.334a4.732,4.732,0,0,0,.855-1.478c.135-.292.283-.567.415-.845.137-.133.7-1.267.682-.985a10.788,10.788,0,0,0-.657,1.357c-.326.877.02.147.189-.156.447-.839,1.046-2.062,1.686-3.247.6-.825,1.4-2.075,2.419-3.585.788-1.045-.307,1.024-.162,1.1a8.283,8.283,0,0,1-.769,1.446c-.865,1.365-1.638,2.747-2.018,3.152a12.581,12.581,0,0,1,.984-2.154,15.82,15.82,0,0,0-1.352,2.5c-.493,1.164.09.112,0,.478-.787,1.794-.78,2-.33,1.148.676-1.289,1.46-2.733,2.232-3.94.348-.571.967-1.648,1.017-1.495-.663,1.308-.188.57-.129.6l-.015.077c-.353.681-.623,1.012-.992,1.866a47.611,47.611,0,0,0-2.326,4.766c.161-.176.873-1.9.98-1.884.253-.239,1.846-3.5,1.508-2.23-.15.29-.295.549-.443.824-.231-.044-1.46,2.812-1.942,3.756a10.508,10.508,0,0,0,1.207-2.24c.814-1.517,1.66-2.949,2.665-4.462-.969,1.663-1.753,3.187-2.484,4.768-.093-.018-.284.233-.646.88-.2.806-.166.956.231.124a.981.981,0,0,0,.175-.078c1.3-2.047,2.852-4.443,4.745-6.934-.124.231-.248.462-.387.691a55.618,55.618,0,0,0-4.714,8.023,49.2,49.2,0,0,0-2.7,6.67l.4.076a.907.907,0,0,0-.022.2,63.769,63.769,0,0,0-1.9,7.157,53.047,53.047,0,0,0-.964,13.261c-.013-.018-.01-.034-.019-.067a5.608,5.608,0,0,0,.167,1.8c.047.5.11,1.009.173,1.514.025-.3-.112-1.168-.065-1.414-.014-.178-.028-.356-.041-.533-.012-.273-.111-.93-.02-.817.11.34.04-.3.06-.4l.016,0c.026.2.09.527.09.527a2.837,2.837,0,0,0-.031-.755,5.51,5.51,0,0,1,.006-1.035q.037.677.076,1.353a.685.685,0,0,1,.042.12c-.026-.451-.055-.887-.065-1.335,0-.4,0-.813-.008-1.212.031.006.056.042.071.045.025.706.041,1.378.083,2.071a29.8,29.8,0,0,0,.412,4.029,1.345,1.345,0,0,1,.027.276c.081.414.143.84.208,1.25.065.331.147.65.227.984a12.536,12.536,0,0,0,.463,1.92c.119-.041-.046-.678-.3-1.6a23.546,23.546,0,0,0-.648-3.373c-.21-1.489-.236-2.609-.387-4.327-.043-.948-.036-1.9-.029-2.857.021-.617.04-1.219.075-1.817a4.3,4.3,0,0,1,.182-1.208c-.036.439-.056.881-.092,1.32a1.678,1.678,0,0,0,.007.718c-.065,0-.085.446-.051,1.106.078-.081.094-.412.069-1.118a4.637,4.637,0,0,0,.093-1.161c.018-.172.022-.362.035-.519.034-.424.064-.832.109-1.238,0-.43.02-.857.034-1.268a1.946,1.946,0,0,0,.151-.29,5.733,5.733,0,0,0,.174-1.751c.141-.738.288-1.092.454-2.128a2.841,2.841,0,0,1,0,1.084c.108-.569.209-1.012.312-1.47a.378.378,0,0,0,.007.129,55.975,55.975,0,0,0-.989,9.21c-.007.206,0,.494.016.752-.019.936.005,1.9.048,2.844.014.258.023.547.106.61.033.245.054.472.105.7a44.117,44.117,0,0,0,2.015,10.834,7.533,7.533,0,0,0,.393,1.285,2.829,2.829,0,0,0,.5,1.226c.119.214.376.789.569,1.192a31.637,31.637,0,0,0,1.8,3.688c-.229-.553-.778-1.518-.65-1.605a55.615,55.615,0,0,0,4.046,6.776,8.839,8.839,0,0,0,1.268,1.707c.1.146.2.277.305.409a24.393,24.393,0,0,0,1.695,2.138,28.63,28.63,0,0,0,2.4,2.624c1.066,1.095,2.032,2.044,2.661,2.753.137.121.273.243.424.368.735.745,2.434,1.944,3.272,2.646a8.71,8.71,0,0,0,1.682,1.037c.3.2.621.421.933.624.148.059.3.12.443.18-.822-.619-2.088-1.5-3.29-2.379-.575-.413-1.368-.93-1.345-1.053-1.784-1.168-.308-.473-1.528-1.343a1.4,1.4,0,0,0-.165-.142c-.037-.135-.094-.257-.651-.762a20.866,20.866,0,0,1-2.077-1.972,4.558,4.558,0,0,0-1.074-.89c.015-.077.386.153-.178-.4-.066-.156-.751-.828-.73-.936.071.046.114.07.185.115.489.444.284.182.346.194a6.464,6.464,0,0,1,1.418,1.417c-.014.156.346.528,1.3,1.283a15.284,15.284,0,0,1,1.142,1.03,6.4,6.4,0,0,0,1.292.995c0,.015-.036.025.032.085.856.689,1.759,1.387,2.686,2.041.645.457,1.306.918,1.97,1.363.883.55,1.781,1.1,2.9,1.747-.2-.308-3.052-1.792-2.456-1.742.484.22.508.177.406.046.058.027.033-.01-.093-.1-.648-.362-1.278-.737-1.858-1.118-.167-.128-.367-.246-.581-.382-.207-.167-.432-.321-.639-.488a31.2,31.2,0,0,1-3.046-2.746c.522.354.854.7,1.409,1.049.024-.124-1.016-.768-1.2-.993a.98.98,0,0,1,.213.056c.117.055.1-.028.457.279a4.012,4.012,0,0,0,1.065.68c.333.175-.112-.164-.363-.355a15.269,15.269,0,0,1-1.636-1.443,6.746,6.746,0,0,0-1.246-.986c-.483-.475-.967-.949-1.68-1.722a6.241,6.241,0,0,0,1.538,1.631c.427.432.885.87,1.344,1.307.352.322.368.405-.1.109-.535-.453-1.071-.985-1.384-1.013-.136-.121-.242-.237-.375-.374a10.11,10.11,0,0,0-.879-.9c-1.166-1.242-2.276-2.52-3.286-3.828-.559-.743-.936-1.357-1.747-2.371-.315-.6-1.288-1.934-1.434-2.424-.228-.394-.455-.788-.665-1.194-.078-.174-.169-.367-.263-.544l-.077-.349c.25.446.515.894.78,1.343.333.43.294.55.682,1.022l.672.988c-.073-.205-.058-.282.249.032a11.688,11.688,0,0,0,1.551,2.143c.292.39.6.8.907,1.176-.13-.072-.34-.224-.117.026a2.076,2.076,0,0,0,.493.428,10.2,10.2,0,0,0,.868.962l.03.006a39.523,39.523,0,0,0,4.813,5.011c.879.82,1.94,1.691,2.966,2.492a18.326,18.326,0,0,0,1.852,1.4,2.7,2.7,0,0,0,1.167.732c1.1.56.5.143.466.057a5.957,5.957,0,0,0,.979.552c-.384-.327-1.178-.845-1.938-1.372.37.15.669.255.1-.108-.883-.551-1.365-.945-2.138-1.491-.016-.082.582.207-.554-.519-.213-.137-.652-.507-.242-.317l0-.016a.453.453,0,0,0,.111.085,1.036,1.036,0,0,1-.114-.069,40.5,40.5,0,0,0,4.009,2.786c.253.176.507.352.757.543.93.384-.2-.229-.128-.248.225.075.447.165.687.243,1.159.6,1.574.937,2.474,1.4a7.237,7.237,0,0,0,1.693.9c.84.271-.925-.495-1.012-.623-.028-.021-.114-.07-.17-.112.031.006.074.03.1.036.2.053.406.125.6.178a28.916,28.916,0,0,1-2.742-1.494c-.17-.112-.353-.242-.52-.369.148.06.314.107.478.17.1,0,.16,0-.124-.183-1.541-.946-1.538-.962.029-.408a11.8,11.8,0,0,0,1.394.711c.69.227-.081-.159-.331-.35-.241-.157-.372-.309.313.028,1.483.745,3.245,1.446,4.5,2.052.175.081.333.175.151.124-.246-.047-.662-.285-.9-.314,1.339.749,4.285,1.676,5.579,2.241.678.289,1.632.63,2.593.94a7.607,7.607,0,0,0,1.316.283c.7.07.276-.027-.238-.173-1.123-.293-.1-.146.02-.187l.692.131a11.288,11.288,0,0,0-2.185-.575c-.359-.036.164.143.214.216-.806-.2-.816-.315-1.607-.513-1.29-.421-1.205-.612-2.809-1.14-.548-.216-1.094-.448-1.624-.676.015-.077.331-.064-.076-.269-.527-.244-1.042-.47-1.566-.729a1.744,1.744,0,0,1-.274-.068c.509.256,1.021.5,1.551.726a12.892,12.892,0,0,1-2.342-1c-.371-.31-1.854-.974-2.591-1.449-.173-.1-.3-.185-.476-.266l-.015,0c-1.208-.6-1.673-1-2.765-1.626l-.015,0c-.4-.3-.782-.579-1.381-.948a12.812,12.812,0,0,0-1.5-1.147c-.4-.331-.816-.649-1.215-.98a.338.338,0,0,1-.032-.085c-.368-.326-.959-.82-.654-.746a40.444,40.444,0,0,0,3.8,2.859,57.386,57.386,0,0,0,8.307,4.815c.293.136.724.3,1.09.463.179.066.355.147.531.228,1.562.664,3.148,1.285,4.795,1.838,1.062.361,2.176.7,3.22.995.529.149,1.043.294,1.51.431l.545.152a10.2,10.2,0,0,0,1.775.465c-.313-.028-.626-.056-.949-.117a4.663,4.663,0,0,0,1.086.239c.466.057.073-.05.229-.036.344.033.67.08,1.435.162-1.451-.245-1.747-.445-3.087-.684-.333-.1-.681-.193-1.013-.289l-.5-.142c-.3-.089-.647-.2-1.007-.319a26.526,26.526,0,0,1-3.03-1.071c.283.022-.037-.055-.109-.1-.169-.113-.367-.246.159-.162a7.738,7.738,0,0,1,1.378.374,14.441,14.441,0,0,0,1.7.421c.474.106.951.2,1.4.281l.139.027a8.085,8.085,0,0,0,2.355.178,4.081,4.081,0,0,1,.894.074c.446.085.314.108-.1.093-.946-.053-.653.083-1.461.057,1.316.2,2.541.292,3.839.507-.352-.162-.559-.249-.749-.333.82.044,2.306.184,1.948-.027-.4-.236-.339-.224.8-.342-1.053-.073-2.018-.194-3.252-.237l-.308-.059c.132-.023-.111-.085.353-.092.475.011.023-.043-.446-.085l-.277-.053c.181-.029.14-.068-.4-.156-.62-.086-.688-.147-.271-.163.4,0-.548-.136-.321-.157.354.068.723.138,1.073.221.6.194,1.891.36,2.786.514a7.356,7.356,0,0,0,1.441.211c.31.043.609.068.906.093.231.044.759.033.649.107a1.507,1.507,0,0,0,.519.036,5.9,5.9,0,0,1,.932-.046c.23-.036-.264-.034-.5-.063-.344-.033-.74-.045-1.133-.072-1.6-.209-3.052-.454-5.235-.79-1-.254-2.362-.561-3.758-.923-.471-.121-.927-.24-1.394-.377a.332.332,0,0,1-.12-.039c-.726-.2-1.468-.406-2.173-.636-.373-.215-1.5-.557-2.2-.849,1.182.321,2.155.4,3.611.784l.851.21c.517.13,1.022.242,1.526.354.643.138,1.252.286,1.83.428a37.431,37.431,0,0,0,5.509,1.017c.971.09,2.5.094,3.859.066.047-.166-.935-.194-2.062-.217a6.172,6.172,0,0,1-1.434-.082c-.093-.1.644-.117,1.144-.149.276-.027.831-.017,1.141-.053.218.025.436.051.667.095-.006.031-.024.043-.027.058a7.173,7.173,0,0,0-.761-.017c-.061.068.148.14,1.111.1a3.213,3.213,0,0,0,.381.009c.629.04,1.231.059,1.867.068.1-.013.2-.041.3-.054-.635-.01-1.268-.035-1.9-.059-.246-.047-.158-.094.173-.159a5.837,5.837,0,0,0,1.254-.143,10.037,10.037,0,0,0,1.8-.072l-.707-.135a17.846,17.846,0,0,0-2.841-.142,11.238,11.238,0,0,0-1.221-.026c-.074-.03-.166-.047-.24-.077,0-.08-.314-.108-1.1-.1-.2-.022-.393-.027-.6-.049.543-.088-.529-.149-.358-.212a15.726,15.726,0,0,0,1.684-.062c.224-.085-.516-.13-1.094-.192l-1.078-.11a11.307,11.307,0,0,0-3.337-.46,20.8,20.8,0,0,0-2.719-.614c-.32-.077-.637-.169-.939-.258-.517-.13-1.018-.257-1.513-.416-.724-.217-1.462-.437-2.18-.685-.474-.186-1.028-.372-2.207-.708a12.315,12.315,0,0,0,1.814.681c.432.161.835.3,1.287.436a18.276,18.276,0,0,1-3-.97c-.437-.131-.868-.293-1.3-.439.131-.023.146-.1-.38-.264-.644-.218-.523-.1-.726-.122-.678-.288-1.365-.61-2.037-.93.225.075.452.134.693.212a2.98,2.98,0,0,0,.837.287,11.338,11.338,0,0,1,2.091.812,3.6,3.6,0,0,0,.6.179c.354.067.071-.035-.1-.116.169.033.326.046.513.066.268.1.552.2.835.3,1.074.38,2.173.717,3.306,1.044.135.042.258.065.393.107.034-.01.1-.013.055-.037-.089-.033-.228-.06-.347-.1.54.087,1.051.168,1.445.275a2.065,2.065,0,0,1,.6.178,6.022,6.022,0,0,0,1.608.338,3.705,3.705,0,0,0,.706-.024c.407-.05-.428-.177-.825-.269-.643-.138-1.329-.3-2.043-.485-.5-.112-1.005-.239-1.522-.369-1.015-.273-2.043-.564-2.97-.884-.385-.153-1.031-.356-1.6-.56a3.043,3.043,0,0,1-1.11-.53,49.352,49.352,0,0,0,5.7,1.851c.5.143,1.016.273,1.52.385a1.727,1.727,0,0,0,.274.068,40.112,40.112,0,0,0,8.815,1.392c.549.041,1.115.085,1.668.111a45.019,45.019,0,0,0,5.068.152c.118-.121-.988,0-.934-.114,1.5-.112,2.469-.167,3.417-.209a10.522,10.522,0,0,0,3.114-.459c1.271-.315,1.75-.32,2.7-.553l.015,0q2.013-.405,4.006-.957a17.006,17.006,0,0,1-1.874.551c-.453.121-.814.179-1.745.464a3.5,3.5,0,0,0,1.514-.333c.8-.182,1.583-.368,2.376-.6.52-.14,1.028-.3,1.554-.468a.44.44,0,0,1,.141-.069c-.42.111-.836.207-1.253.3.1-.044.211-.1.333-.16,1.483-.339,4.014-1.418,4.985-1.663.73-.323,1.451-.679,2.157-1.039.227-.02.524-.075,1.644-.77a21.3,21.3,0,0,0,4.332-2.839c.073-.05.144-.084.18-.109.494-.336.989-.672,1.47-1.026.744-.56.154.029-.421.541a5.846,5.846,0,0,0-1.181.842c.108.021.6-.38.907-.576.3-.245.618-.487.92-.733a31.47,31.47,0,0,0,4.718-3.864,12.554,12.554,0,0,0,2.029-2.035c-.472.388-1.19,1.143-1.816,1.757-1.029.967-2.079,1.882-3.134,2.732.43-.667-.861.426-1.52.794-.215.039-1.12.774-1.7,1.126a10.559,10.559,0,0,0-1.3.9c-1.305.914-2.937,1.957-2.141,1.121.3-.34-.523.155-1.375.694-.723.452-1.215.693-1.9,1.089-.345.141-.691.282-1.018.411a2.85,2.85,0,0,0-1.049.406c-.124.151.133.057.442-.06.373-.12.749-.255,1.107-.378.575-.257.63-.215.112.165a5.222,5.222,0,0,1-.684.331,50.087,50.087,0,0,1-7.689,2.566c.593-.189,1.4-.5,1.738-.593a15.311,15.311,0,0,0,4.583-2.153c-.06.068-.265.22.026.116a1.772,1.772,0,0,0,.464-.262c.207-.168.326-.289-.126-.088-.343.126,1.583-.957.374-.375a12.213,12.213,0,0,0-1.79.95,8.487,8.487,0,0,1-2.928,1.4c-.422.126-.832.271-1.267.38a14.988,14.988,0,0,0-2.731,1.041.611.611,0,0,1-.187.06c-.033.009-.064,0-.113.01-.861.171.221-.324-.38-.264-1.009.111-3.275.635-4.416.688-.442.06-.883.119-1.306.166a20.636,20.636,0,0,1-3.255.193c-1.546.088-2.253-.047-3.9-.026-.789-.039-1.562-.074-2.331-.141-1.53-.164-3.514-.367-5.316-.694-.387-.057-.771-.131-1.14-.2a3.6,3.6,0,0,1,.838.032c1.469.232,2.932.415,4.421.54-.03-.006-.058-.028-.1-.036.08,0,.123.023.1.036a57.876,57.876,0,0,0,5.788.225,46.574,46.574,0,0,0,5.612-.444,61.223,61.223,0,0,0,8.384-1.781,20.6,20.6,0,0,0,2.4-.832,38.169,38.169,0,0,0,5.9-2.476,12.935,12.935,0,0,0,2.386-1.234c-.081-.159-1.265.619-1.839.876a.233.233,0,0,0,.073-.05c.2-.3.513-.6,2.356-1.749a5.439,5.439,0,0,0-1.77.762.506.506,0,0,1-.094.077c-.125.152.374-.04-.808.643a8.8,8.8,0,0,1-1.778.888c-.169-.032,1.158-.894,1.271-.984a8.29,8.29,0,0,0,.958-.678c-.1.028-.987.577-.9.465-.192.091,0-.08.225-.26.168-.127.32-.257.491-.4.445-.25.876-.5,1.325-.767.6-.365,1.19-.729,1.788-1.109a29.916,29.916,0,0,0,5.173-3.826,58.3,58.3,0,0,1-5.194,3.788,15.173,15.173,0,0,1-1.616,1c-.5.261-1,.508-1.493.754.469-.372-.026-.116.263-.38a11.185,11.185,0,0,1,2.04-1.427,48.056,48.056,0,0,0,8.638-6.543,6.941,6.941,0,0,0,.878-.932,18.021,18.021,0,0,0,1.715-1.808c.018-.013.018-.013.021-.028a2.064,2.064,0,0,0,.38-.406c.523-.569,1.03-1.142,1.527-1.748a8.576,8.576,0,0,0,2.03-2.624c1.3-2.173,2.127-3.307,2.1-2.659,0,.16-.244.782.01.448.53-1.11,1.035-2.256,1.521-3.47.233-.385.45-.774.671-1.178.075-.145.153-.306.214-.454.509-1,.988-2.009,1.442-3.054a14.573,14.573,0,0,0,.842-2.166,16.457,16.457,0,0,0-.711,1.729C225.738,1185.83,225.713,1185.794,225.7,1185.76Zm-103.551-23.814.011-.062.016,0C122.177,1161.9,122.159,1161.915,122.153,1161.946Zm5.521-.717-.108-.021c.066-.178.147-.354.229-.53C127.762,1160.848,127.709,1161.044,127.674,1161.229Zm89.508,19.34c.032-.17.07-.369.124-.566l.03.006.015,0,.062.012C217.332,1180.2,217.266,1180.378,217.182,1180.569Z" transform="translate(-117.838 -1114.863)" fill="#47aea9"/>
  <path id="Path_17882" data-name="Path 17882" d="M196.673,1122.665l-.006,0h0Z" transform="translate(-117.838 -1114.863)" fill="#47aea9"/>
  <path id="Path_17883" data-name="Path 17883" d="M151.723,1196.414a.994.994,0,0,1-.089-.138C151.6,1196.289,151.66,1196.345,151.723,1196.414Z" transform="translate(-117.838 -1114.863)" fill="#47aea9"/>
  <path id="Path_17884" data-name="Path 17884" d="M170.1,1197.2H170l.114,0Z" transform="translate(-117.838 -1114.863)" fill="#47aea9"/>
  <path id="Path_17885" data-name="Path 17885" d="M193.279,1144.668a1.03,1.03,0,0,1,.093.149C193.4,1144.8,193.342,1144.741,193.279,1144.668Z" transform="translate(-117.838 -1114.863)" fill="#47aea9"/>
  <path id="Path_17886" data-name="Path 17886" d="M170.617,1197.546l0-.018c-.026,0-.05,0-.076,0C170.57,1197.531,170.593,1197.542,170.617,1197.546Z" transform="translate(-117.838 -1114.863)" fill="#47aea9"/>
  <path id="Path_17887" data-name="Path 17887" d="M202.85,1175.488l0-.013a.371.371,0,0,0-.035.083Z" transform="translate(-117.838 -1114.863)" fill="#47aea9"/>
  <path id="Path_17888" data-name="Path 17888" d="M175.982,1196.083a.117.117,0,0,1,.041-.017c-.027.007-.057,0-.091.008Z" transform="translate(-117.838 -1114.863)" fill="#47aea9"/>
  <path id="Path_17889" data-name="Path 17889" d="M169.013,1145.008a.116.116,0,0,1-.034.012.569.569,0,0,1,.091-.008A.364.364,0,0,0,169.013,1145.008Z" transform="translate(-117.838 -1114.863)" fill="#47aea9"/>
  <path id="Path_17890" data-name="Path 17890" d="M175.268,1145.355a.2.2,0,0,1-.084.009c.038,0,.064-.007.09-.008Z" transform="translate(-117.838 -1114.863)" fill="#47aea9"/>
  <path id="Path_17891" data-name="Path 17891" d="M169.733,1195.734a.155.155,0,0,1,.085-.009.279.279,0,0,0-.091.008Z" transform="translate(-117.838 -1114.863)" fill="#47aea9"/>
  <path id="Path_17892" data-name="Path 17892" d="M174.906,1143.878l.094.008-.113-.012Z" transform="translate(-117.838 -1114.863)" fill="#47aea9"/>
  <path id="Path_17893" data-name="Path 17893" d="M174.45,1143.552a.155.155,0,0,1-.08,0l0-.016Z" transform="translate(-117.838 -1114.863)" fill="#47aea9"/>
  <path id="Path_17894" data-name="Path 17894" d="M205.477,1169.341a16.737,16.737,0,0,1-1.741,3.954.709.709,0,0,0-.122.056c-.172.4-.224.34-.267-.019.174-.333.262-.459.358-.457.21-.772.393-1.566.563-2.457-.259.858-.529,1.6-.816,2.361-.194.6-.371,1.029-.521,1.064.257-.429.52-1.813.711-1.808.044-.151.086-.287.128-.422-.129-.582-.451,1.029-.649,1.151-.093-.018-.282.807-.394.9.241-1.1.478-1.342.657-2.28.012-.4.127-.581.148-.943-.027-.2-.189.489-.138-.282-.107-.02-.195.521-.3.8-.2.631-.427,1.321-.686,1.925-.168.382-.218.309-.047-.5-.035-.15-.224.34-.158-.174a6.209,6.209,0,0,1,.336-1.178c-.021.362-.2.775-.108.983a5.167,5.167,0,0,0,.624-1.6,1.188,1.188,0,0,0,.039-.709c-.131.023-.162-.987-.353-.4a7.964,7.964,0,0,1-.573,1.835,10.2,10.2,0,0,1-.428,1.495c-.057.133-.165.447-.125.072a3.626,3.626,0,0,1,.178-.6c-.077-.095-.22.4-.311.466-.042.135-.1.253-.135.372-.138.388-.256.589-.39.627.171-.4.291-.693.4-.992.086-.366.15-.369.2-.361a13.083,13.083,0,0,0,1.038-3.609c-.089.047-.175.667-.278.791-.172.732-.374.71-.581,1.546a2.455,2.455,0,0,1-.111.664c-.066.179-.056-.042-.06-.187-.076-.014-.2.3-.311.547-.11.329-.226.769-.313.721a6.381,6.381,0,0,1-.491.989c-.066.179-.114.265-.136.213-.1.189-.244.527-.3.516-.1.188-.2.391-.3.58-.168.382-.327.718-.4.608a3.275,3.275,0,0,1,.429-.747c.011-.061.054-.117.069-.194l.026-.138c-.028-.021-.043-.024-.056-.043a2.331,2.331,0,0,1-.341.62,5.779,5.779,0,0,1,.34-.779c.217-.389.4-.784.591-1.178a.86.86,0,0,0,.066-.179c.1-.173.174-.333.271-.506.06-.482.117-.949.143-1.422.109-.154.142.091.195.149.2.228.556-.324.736-1.358a2.991,2.991,0,0,1,.429-1.415c.1-.333.194-.68.292-1.028a1.255,1.255,0,0,1,.047-.246c0-.015,0-.015.018-.012a7.5,7.5,0,0,1,.2-1.156,1.768,1.768,0,0,1,.047-.581,26.446,26.446,0,0,0,.158-5.434,2.362,2.362,0,0,0-.36-1.2c-.1-.162-.073.129-.217-.121.025.291.064.585.07.889.062.347.092.687.123,1.027a12.251,12.251,0,0,1,.071,2.642c-.028-1.025-.161-2.085-.1-2.727-.047-.344-.093-.687-.151-1.049-.048-.248-.094-.511-.142-.759a2.943,2.943,0,0,1-.156-.269c-.09-.113-.165-.223-.158-.094-.062-.091.346,1.2-.138-.026-.022-.052-.381-.758-.451-.643.117.388-.052.356.2.977.194.738.187.274.291.485a2.782,2.782,0,0,1-.271-1.087c.062.426.373.963.271,1.087a1.447,1.447,0,0,1-.065,1.007c-.187-1.023-.367-1.169-.524-1.262a.034.034,0,0,1-.025-.037c.037.31.233.952.058,1.03-.051-.567-.268-1.182-.178-1.324-.159-1-.6-2.281-.789-3.129-.2-.452-.377-.868-.5-1.211a20.894,20.894,0,0,0-2.159-4.139c-.579-.89-1.324-1.829-1.926-2.6a28.1,28.1,0,0,0-2.357-2.6c-.675-.638-1.386-1.252-2.15-1.843a1.466,1.466,0,0,0-.478-.251c.192.165.4.331.591.495a19.469,19.469,0,0,1,2.427,2.31c.32.332.633.694.934,1.038a16.8,16.8,0,0,1,1.407,1.814c.379.518.431.83,1.012,1.546.136.2.273.4.4.6a17.78,17.78,0,0,1,1.1,2.169c.08.334-.369-.07-.193.346a.218.218,0,0,0,.019.067.385.385,0,0,1,.047.089,2.481,2.481,0,0,1,.839,1.2c.088.208.161.413.246.636.222.5.335,1.084.773,1.374a2.2,2.2,0,0,1,.438.88c.181.64-.254-.335-.228-.139.051.233,0,.19-.1.093a.562.562,0,0,1-.132-.232c-.019-.147.058-.053.12-.041a6.805,6.805,0,0,1-1.165-2.165c-.063-.172-.278-.547-.418-.813a24.266,24.266,0,0,1,1.128,3.863c.053.137-.024.123.092.352.162.238.22.185.165-.112-.012-.193-.02-.4-.046-.6-.017-.162-.04-.294.047-.246.154.364.133.471.1.545.014.178.044.359.073.54.11.34.156.6.276.976.139.441.2.9.05.743-.36-.371-.122.47-.014,1.16.055.3.156.683.071.715a3.568,3.568,0,0,1-.035.933c-.067.353-.076,1.068-.284.822-.016.586-.047,1.169-.11,1.747a4.013,4.013,0,0,1-.165,1.036,4.1,4.1,0,0,1,.127-1.171c.084-.939.044-1.983.13-2.6-.017-.163-.034-.325-.066-.491,0-.159-.062-.426,0-.479a1.017,1.017,0,0,1,.055.632c.1.306.2.627.183.21,0-.254-.014-.512-.026-.785a.53.53,0,0,1,0-.095,11.294,11.294,0,0,1-.462-2.255c-.181-.56-.152-.714-.11-.849-.092-.352-.181-.72-.289-1.075a11.982,11.982,0,0,0-.652-2.514.927.927,0,0,0-.118-.133c.054.217.111.419.165.636-.025-.036-.04-.039-.049-.073-.1-.241-.192-.5-.29-.74-.132-.391-.283-.771-.449-1.153-.249-.366-.368-.579-.344-.7a2.406,2.406,0,0,1,.44.785c.168.287.2.483.44.865-.26-.639-.552-1.284-.861-1.917l0-.015a8.045,8.045,0,0,0-.754-1.227,4.681,4.681,0,0,1-.967-1.363,8.136,8.136,0,0,0-1.116-1.5c-.089.047.339.479.222.505-.519-.784-1.263-1.643-1.745-2.292-.227-.235-.437-.466-.679-.7-1.433-1.34-2.933-2.5-4.176-3.5a35.144,35.144,0,0,0-4.48-2.574c.085.223,1.246.651,1.71.979a28.617,28.617,0,0,1,3.64,2.382c.192.164.633.439.369.4a1.321,1.321,0,0,1-.406-.125,3.22,3.22,0,0,1-.828-.587,3.1,3.1,0,0,0-1.108-.7c.068.06.138.106.179.145.028.021-.019.013-.052.022-.677-.463-1.374-.9-2.106-1.325-.172-.1-.345-.193-.521-.274l-.307-.059c.1.067.272.163.056.123-.074-.031-.265-.115-.4-.172a3.553,3.553,0,0,0-1.347-.623c-.3-.009-.357-.132-.554-.185-.17-.032-.32-.077-.474-.106.469.217.921.43,1.356.657.129-.008.067-.1.483.06.326.125.315.187.229.218.278.133.543.247.8.377a18.941,18.941,0,0,0,1.767,1.005,7.294,7.294,0,0,0-.738-.475,9.134,9.134,0,0,1-1.068-.665,5.889,5.889,0,0,1,1.333.7c.852.544,1.7,1.135,2.474,1.729.458.358,1.328.891,1.29,1.09,1.039.565,1.378.964,1.513,1.26.148.14.3.28.442.435.245.222.539.517.4.506a8.074,8.074,0,0,1-.781-.5c-.129.007.338.4.058.281.08.079.16.159.241.238.337.239.455.373.409.444a.87.87,0,0,1,.069.14,2.59,2.59,0,0,1,.474.441,4.43,4.43,0,0,1,.947,1.216,4.245,4.245,0,0,0,.13.407,5.628,5.628,0,0,1-.636-.679,2.229,2.229,0,0,1-.534-.372c-.16-.079-.228-.06-.156.066.223.249.431.5.636.758l-.129-.072c-.206-.263-.413-.509-.637-.759a.915.915,0,0,1-.133-.137c-.39-.3-.446-.419-.375-.454a2.4,2.4,0,0,1,.282.277l0-.015a.035.035,0,0,0,.037-.025,2.058,2.058,0,0,0-.212-.311c-.132-.057-.364-.261-.482-.315-.246-.127-.592-.32-.578-.222.01.114.371.31.575.492.455.374.8.742.7.85-.535-.452-1.165-.907-1.546-1.25-.867-.8-1.536-1.472-2.259-2.1a14.571,14.571,0,0,0-2.048-1.378,10.183,10.183,0,0,0-1.972-.773,6.458,6.458,0,0,1,1.159.777c.382.249.765.5,1.13.758a14.263,14.263,0,0,1,2.27,1.881,12.364,12.364,0,0,1,1.97,1.953c.133.137.282.276.4.41.08.079.241.238.149.22-.074-.03-.211-.231-.362-.276-.077-.015-.194-.149-.185-.195.064,0-.143-.17-.224-.249a3.211,3.211,0,0,0-.319-.332,2.639,2.639,0,0,1-.515-.56c-.331-.35-.875-.756-1.093-1.037-.151-.124-.3-.264-.451-.388-.126-.008.3.264.1.211-.21-.072-.206-.008.076.189.225.155.247.207.136.2.043.024.068.06.112.084.212.136.4.267.173.177s-.129.007-.193.011a.831.831,0,0,1,.1.116,5.833,5.833,0,0,1,1.366.945c-.536-.2-.564-.219-.494.081.061.266-.518-.21-.863-.4.044.1.1.227.188.435a8.637,8.637,0,0,0-1.56-1.094c.373.135.279-.043.72.153.173.1.255.08.061-.068a1.062,1.062,0,0,0-.392-.2,3.09,3.09,0,0,1-1.152-.474c-.47-.3-1.04-.565-1.42-.828a2.149,2.149,0,0,0-.663-.366c-.258-.065-.171.063-.109.155.04.039.182.13.044.1.449.4,1.254.94,1.753,1.417.192.164.412.349.6.528.535.373.605.594,1.155,1.049-.309-.219-.439-.291-.581-.382-.076-.014.072.125-.113.011a2.016,2.016,0,0,1-.414-.334l.388.217c-.2-.213-.637-.5-.662-.62a15.586,15.586,0,0,0-2.275-1.692c-.768-.48-1.558-.933-2.385-1.362-.1-.051-.191-.084-.292-.135-.192-.084-.429-.177-.589-.256q-.879-.405-1.766-.766c-.489-.189-.979-.378-1.49-.539q-.984-.354-2.031-.626c-.354-.067-.674-.144-.979-.218-.535-.117-1.008-.223-1.562-.329a3.2,3.2,0,0,0-.372-.055c-.128.087.115.15.377.2a1.387,1.387,0,0,0,.243.063.218.218,0,0,0,.052.057c.323.062.643.139.948.213l.323.061a2.586,2.586,0,0,1,.8.248,6.034,6.034,0,0,1,.981.282,8.962,8.962,0,0,1,1.179.336,3.846,3.846,0,0,0,.621.166c-.289-.071.063-.163-.609-.228l-.047-.008c-.079,0-.317-.092-.249-.112a.832.832,0,0,1,.313.028l.123.024c.578.142.687.242.485.3a2,2,0,0,0,.28.117c.16.079.37.15.576.237a4.123,4.123,0,0,1,1,.461,6.826,6.826,0,0,0,1.29.5c-.277-.132-.57-.268-.86-.418a.607.607,0,0,0,.157.014c.293.135.567.283.844.415.229.139.064.172.052.233.29.151.564.3.836.462.81.346.729.521,1.349.862.382.169.365.261.744.445-.019-.068-.26-.225-.073-.2a2.463,2.463,0,0,1,.973.583,2.2,2.2,0,0,0-.324-.141c-.07.034-.535-.118-.035.184.228.139.4.251.066.156a2.059,2.059,0,0,1-.583-.286c-.42-.3-.846-.575-1.165-.827a24.3,24.3,0,0,0-2.839-1.4c.129-.007.357.132.483.14.1,0,.024-.044-.078-.095a9.351,9.351,0,0,0-1.912-.667l-.637-.169c-.409-.109-.316-.012-.171.063.176.081.613.212.232.2s-.511-.161-.834-.223c-.064,0-.113.011-.162.017-.644.037-.647.052-.053.277.089.033.179.066.284.1.163.062.139.106.086.128-.1,0-.174,0-.254,0,.1.051.216.121.318.172a7.842,7.842,0,0,0,1.01.383,2.864,2.864,0,0,1,.551.2l-.316-.012a.1.1,0,0,0-.065,0,.229.229,0,0,1,.1.051c.062.092.995.381.559.33a2.632,2.632,0,0,1-.869-.373c-.016,0-.044-.024-.059-.027a8.85,8.85,0,0,0-1.419-.493l-.016,0c-.128.007-.239,0-.353.012-.027.059.628.216.11.181-.161-.079-.324-.142-.484-.22-.735-.156-1.308-.329-1.9-.489-.228-.059-.456-.119-.717-.168-.233.051.084.143.225.154.722.058.376.119.413.174l.077.015c.458.1.785.229,1.289.341.366.086.2.118.007.129a4.761,4.761,0,0,1,1.18.495,3.144,3.144,0,0,1-.562-.139c.034.07.409.19-.214.119-.525,0-.572-.093-.7-.181-.333-.1-.73-.187-1-.285q-.135-.049-.222-.09c-.422-.128-.895-.234-1.338-.335-.262-.049-.52-.115-.766-.161-1.283-.293-2.935-.4-4.084-.555l-.016,0c-.377.055-.509,0-.785.025a1.245,1.245,0,0,1-.386.1c-.193.011-.052-.058.018-.092-.3-.01-.62-.007-.924,0a10.48,10.48,0,0,1-1.678.111c-.244.113-.189.155-.035.184-.309.037-.539.073-.77.109-.354.107-.435.028-.774.139-.329.049-.656.1-.987.162l.261.05c.129-.007.273-.012.386-.022.31-.036.6-.061.893-.085.353.067,1.362-.123,1.81-.053a8.051,8.051,0,0,1,1.789-.026,28.248,28.248,0,0,1,2.991.187,3.194,3.194,0,0,1,.729.107,1.641,1.641,0,0,0,.279.037c.125-.151.558-.084.93-.03.294-.039.242-.1-.02-.147-.35-.082-.707-.134-1.06-.2a3.25,3.25,0,0,1-1.3-.184c.623.071,1.013.113,1.4.171a1.9,1.9,0,0,1,.874.007,10,10,0,0,0,1.212.247l.015,0c.188.02.48.075.284.1a1.245,1.245,0,0,1-.279.042,1.392,1.392,0,0,1-.409-.03c-.258-.065-.209.008-.273.012a.453.453,0,0,0-.1.078c.13.072.63.04.775.115.034-.009.046.009.059.027a.056.056,0,0,0-.049.007c-.32,0-.572-.093-.879-.072.286.087.573.173.872.277.393.107.815.235,1.3.375a1.639,1.639,0,0,0,.274.068c.046.009.089.033.135.042l1.43.272c.074.03.089.033.055.043.081.079.072.125-.182.124-.165.112.386.233.847.4a1.08,1.08,0,0,1,.558.249c-.194-.069-.391-.122-.57-.188-.36-.116-.677-.208-1.012-.288q-.587-.183-1.181-.321l-.077-.015c-.517-.13-1.04-.229-1.562-.329l-.077-.015c-.046-.008-.04-.039-.053-.057a2.238,2.238,0,0,1-.848-.066,3.03,3.03,0,0,0-.82-.125c-.638.006-.924,0-1-.125a1.957,1.957,0,0,0-1.121-.055c-.005.031.164.063-.18.11a.86.86,0,0,0-.119.041c.05.073.593.065.692.131.427.018.222.09.244.142a1.4,1.4,0,0,1,.742-.05c.378.1,1.023.147,1.515.241.4.076.468.137.533.213l.108.021c.282.022.353.067.394.107.049.073,0,.175.649.187.028.1.5.143.849.225l.062.012a8.8,8.8,0,0,1,1.835.652c-.08,0-.145.005-.209.008-.181-.05-.36-.116-.526-.164a3.193,3.193,0,0,1-.926-.16l-.175-.081c-.437-.131-1.068-.251-1.554-.376a2.523,2.523,0,0,1-.335-.079,1.731,1.731,0,0,1-.273-.069,9.266,9.266,0,0,0-2.028-.481c-.636-.09-1.48-.091-1.956-.182-.452-.054-1.228.005-1.548-.071l-.285-.007a5.668,5.668,0,0,1-1.24.067,22.914,22.914,0,0,0-4.691.8c.074.11.72-.1,1.1-.108-1.062.307-1.672.414-2.437.666a7.208,7.208,0,0,0-.764.333,1.349,1.349,0,0,1-.762.317,7.856,7.856,0,0,1-.82.29,27.692,27.692,0,0,0-6.454,3.693c-.1.108-.219.229-.337.35,0,.08-.152.21-.283.313-.514.443-1.029.887-1.519,1.367-.121.136-.248.3-.364.409a29.514,29.514,0,0,0-3.487,4.338c-.144.339-.276.7-.4,1.038a.1.1,0,0,1,0,.064,9.087,9.087,0,0,1,.97-1.329,2.75,2.75,0,0,1,.736-1.1c.1-.093.158-.081.229-.116.16-.256.324-.528.5-.781.2-.232.392-.467.593-.683.081-.1.179-.189.264-.3.272-.346.486-.544.6-.57.3-.405.489-.56.584-.558-.309.371-.513.6-.584.558a.943.943,0,0,1-.313.387c-.221.244-.44.473-.647.721.111.005.418-.351.658-.608.3-.31.593-.6.906-.911.471-.468.97-.914,1.467-1.345a18.848,18.848,0,0,1,2.322-1.82,5.683,5.683,0,0,1,1.863-1.254c.516-.364.885-.548.966-.469a8.124,8.124,0,0,1-1.1.651c-.183.125-.363.234-.549.374-.232.131-.47.292-.705.439a.974.974,0,0,0-.146.1c-.748.495-1.545,1.172-2.176,1.641-.375.3-.719.6-1.069.927a.16.16,0,0,0,.016.083c.21-.183.42-.366.646-.546s.456-.391.682-.571c0,.015-.024.043-.027.059-.247.208-.475.4-.7.6.093.018.369-.264.573-.416a2.187,2.187,0,0,1,.409-.3s-.146.18-.243.273c-.017.092.414-.336.275-.107,0,.11.293-.2.455-.3.109-.075.185-.14.295-.214.169-.048.6-.411.791-.471-.259.189-.537.391-.8.581a3.5,3.5,0,0,1-.91.767c0-.016.021-.028.024-.044a28.816,28.816,0,0,0-6.175,7,33.4,33.4,0,0,0-1.807,3.128c-.3,1.09-.55,2.221-.772,3.39l-.938-.179-.031-.006c-.238.5-.455.965-.671,1.433a28.263,28.263,0,0,0-1.6,4.38,3.371,3.371,0,0,0-.042.39,18.082,18.082,0,0,1,1.743-3.969.844.844,0,0,1,.135-.038c.159-.416.224-.34.252.016-.157.32-.248.462-.34.445-.214.787-.394,1.565-.564,2.457.257-.843.529-1.6.814-2.346.181-.619.374-1.044.509-1.082-.242.432-.506,1.815-.7,1.826l-.125.407c.128.582.451-1.03.649-1.151.092.017.266-.81.391-.881-.257,1.1-.491,1.324-.655,2.264-.014.412-.129.6-.162.941.041.2.2-.487.152.284.093.018.195-.52.282-.807.215-.628.442-1.317.7-1.921.169-.382.2-.3.047.5.036.15.225-.34.143.17a4.476,4.476,0,0,1-.336,1.179c.037-.36.211-.772.123-.98a4.944,4.944,0,0,0-.623,1.6,1.347,1.347,0,0,0-.055.707c.144-.005.178.99.369.405a6.8,6.8,0,0,1,.572-1.835,8.335,8.335,0,0,1,.425-1.48c.058-.133.165-.447.129-.087a3.239,3.239,0,0,1-.179.6c.059.107.2-.407.3-.469.057-.133.1-.253.15-.37.138-.388.256-.589.375-.629-.159.415-.276.7-.38.994-.1.364-.151.37-.212.358a14.475,14.475,0,0,0-1.041,3.625c.107-.059.191-.664.3-.8.171-.733.371-.7.581-1.546a2.472,2.472,0,0,1,.11-.665c.066-.178.056.043.06.187.077.015.182-.284.3-.549.126-.326.242-.766.328-.718a5.34,5.34,0,0,1,.491-.99c.063-.163.111-.249.136-.213.1-.188.229-.53.306-.515.1-.188.2-.376.283-.567.187-.4.346-.731.421-.621a3.239,3.239,0,0,1-.429.746.825.825,0,0,0-.069.2l-.029.153c.03.006.043.024.058.027a2.115,2.115,0,0,1,.341-.62,4.171,4.171,0,0,1-.357.792c-.2.377-.386.771-.573,1.166-.027.058-.054.117-.084.191-.078.16-.16.336-.253.493-.06.483-.118.95-.159,1.42-.109.154-.127-.088-.18-.146-.213-.216-.57.321-.739,1.373a2.9,2.9,0,0,1-.426,1.4c-.1.332-.208.677-.291,1.028a1.085,1.085,0,0,1-.062.243l0,.015a7.253,7.253,0,0,1-.22,1.153,1.894,1.894,0,0,1-.031.583,24.9,24.9,0,0,0-.156,5.419,2.273,2.273,0,0,0,.358,1.215c.1.162.057-.132.2.133-.022-.306-.046-.6-.067-.9-.046-.344-.077-.684-.123-1.028a12.678,12.678,0,0,1-.062-2.687c.041,1.043.17,2.119.109,2.776.046.343.089.7.135,1.045.046.264.094.512.158.763.059.107.109.18.156.269.087.128.165.222.154.109.065.076-.358-1.215.141.011.022.052.382.758.451.643-.117-.388.034-.344-.2-.962-.194-.738-.183-.29-.29-.485a2.755,2.755,0,0,1,.274,1.072c-.08-.414-.392-.951-.274-1.072a1.525,1.525,0,0,1,.052-1.026c.188,1.024.38,1.188.54,1.266l.025.037c-.037-.31-.233-.953-.062-1.015a6.215,6.215,0,0,1,.166,1.3c.156,1.018.616,2.284.805,3.133.2.452.376.868.5,1.226a22.127,22.127,0,0,0,2.143,4.136c.594.893,1.327,1.814,1.942,2.6a30.548,30.548,0,0,0,2.359,2.584c.691.641,1.387,1.251,2.135,1.84a1.579,1.579,0,0,0,.478.25c-.192-.164-.384-.328-.578-.476a20.9,20.9,0,0,1-2.425-2.326c-.319-.331-.635-.678-.933-1.038a18.521,18.521,0,0,1-1.41-1.8c-.377-.533-.447-.833-1.009-1.562-.137-.2-.259-.4-.4-.6a17.372,17.372,0,0,1-1.1-2.169c-.08-.333.369.071.193-.345-.013-.018-.01-.034-.022-.052a.385.385,0,0,0-.047-.089,2.7,2.7,0,0,1-.84-1.195c-.085-.223-.173-.431-.245-.636-.235-.523-.348-1.1-.786-1.392a2.247,2.247,0,0,1-.423-.877c-.2-.643.24.332.229.139-.07-.221,0-.191.1-.093a.5.5,0,0,1,.116.229c.032.165-.061.068-.1.044a7.05,7.05,0,0,1,1.164,2.165,7.392,7.392,0,0,0,.419.812,25.076,25.076,0,0,1-1.143-3.865c-.038-.135.02-.108-.08-.334-.177-.241-.232-.2-.162.1.011.193.019.4.046.6.016.162.036.309-.05.261-.151-.379-.134-.471-.1-.561-.015-.178-.044-.358-.073-.539-.126-.343-.156-.6-.276-.977-.154-.443-.2-.9-.065-.745.372.39.134-.452.014-1.16-.043-.279-.145-.665-.056-.712a2.856,2.856,0,0,1,.034-.933c.068-.354.061-1.072.284-.822.016-.586.045-1.154.1-1.751a4.8,4.8,0,0,1,.165-1.035,3.732,3.732,0,0,1-.112,1.173c-.083.94-.046,2-.145,2.6.033.166.049.328.066.491s.075.444,0,.478a1.3,1.3,0,0,1-.057-.616c-.086-.3-.181-.64-.181-.226.015.258.012.528.026.786.01.034,0,.064.013.1a11.749,11.749,0,0,1,.463,2.255c.18.56.148.729.094.846.105.37.2.722.305,1.078a12.019,12.019,0,0,0,.649,2.529c.04.039.078.094.118.134-.054-.218-.109-.435-.166-.637a.242.242,0,0,0,.053.058c.079.253.176.495.286.755.135.376.284.771.45,1.153.252.35.367.58.344.7a3.6,3.6,0,0,1-.455-.788,6.226,6.226,0,0,0-.438-.88q.385.981.874,1.935a7.119,7.119,0,0,0,.754,1.227,4.4,4.4,0,0,1,.967,1.363,6.978,6.978,0,0,0,1.116,1.5c.088-.047-.358-.466-.223-.5.5.781,1.249,1.64,1.746,2.292.226.234.449.484.678.7,1.434,1.34,2.915,2.514,4.176,3.5a34.592,34.592,0,0,0,4.477,2.589c-.085-.223-1.246-.651-1.706-.994a28.706,28.706,0,0,1-3.643-2.366c-.208-.167-.631-.455-.366-.421a1.377,1.377,0,0,1,.406.125,3.15,3.15,0,0,1,.825.6,2.9,2.9,0,0,0,1.111.69c-.071-.045-.139-.106-.182-.13-.04-.04.021-.028.039-.04.689.481,1.39.9,2.106,1.324l.518.29a2.39,2.39,0,0,1,.326.047c-.1-.067-.272-.164-.06-.107a2.787,2.787,0,0,1,.386.153,3.728,3.728,0,0,0,1.362.625c.285.007.357.132.554.186.151.044.32.076.473.106-.471-.2-.924-.415-1.374-.644-.126-.009-.051.1-.467-.058-.339-.144-.328-.2-.229-.218l0-.016c-.281-.117-.543-.247-.82-.379a14.877,14.877,0,0,0-1.756-.987l.723.472a9.337,9.337,0,0,1,1.086.653,5.9,5.9,0,0,1-1.332-.7c-.868-.548-1.683-1.117-2.474-1.73-.461-.342-1.316-.872-1.308-1.077-1.037-.58-1.375-.979-1.495-1.272-.151-.125-.3-.28-.461-.423-.226-.234-.536-.532-.382-.5.113-.01.522.354.781.5.129-.007-.335-.414-.055-.3l-.242-.237c-.336-.239-.454-.373-.412-.429-.022-.052-.044-.1-.065-.156a1.723,1.723,0,0,1-.474-.44,3.929,3.929,0,0,1-.947-1.216c-.042-.12-.1-.257-.133-.392a3.723,3.723,0,0,1,.636.679,2.567,2.567,0,0,1,.537.357c.16.078.227.059.156-.066a9.159,9.159,0,0,1-.636-.758.558.558,0,0,0,.126.087l.624.741a1.3,1.3,0,0,1,.133.137c.405.3.461.422.406.459a1.481,1.481,0,0,1-.3-.264c-.018.012-.033.009-.055.037.078.095.153.2.215.3a5.806,5.806,0,0,1,.509.336c.232.124.562.314.564.219-.007-.129-.368-.325-.572-.507-.455-.374-.8-.742-.7-.85.52.449,1.163.922,1.543,1.265.87.787,1.539,1.456,2.248,2.085a13.386,13.386,0,0,0,2.063,1.381,11.2,11.2,0,0,0,1.968.788,7.418,7.418,0,0,1-1.158-.777c-.38-.264-.763-.512-1.127-.773a13.754,13.754,0,0,1-2.273-1.866,12.926,12.926,0,0,1-1.967-1.968c-.134-.137-.282-.277-.4-.411-.081-.079-.257-.24-.152-.2.074.03.2.229.364.261.074.03.192.164.186.194-.067.019.127.168.22.265s.214.216.32.332a2.241,2.241,0,0,1,.517.545c.332.35.873.771,1.09,1.052.136.121.3.248.455.373.11.005-.3-.264-.106-.2.212.057.193-.011-.076-.189-.238-.173-.229-.219-.134-.217a.955.955,0,0,1-.111-.085c-.216-.12-.4-.266-.173-.176s.128-.008.193-.011a.992.992,0,0,0-.124-.1,6.018,6.018,0,0,1-1.347-.958c.536.2.564.219.493-.081-.063-.251.5.207.861.419-.057-.123-.1-.242-.185-.45a9.7,9.7,0,0,0,1.556,1.109c-.372-.135-.275.027-.716-.168-.176-.081-.256-.081-.076.065a1.22,1.22,0,0,0,.391.2,3.081,3.081,0,0,1,1.168.477c.469.3,1.021.577,1.419.828a1.878,1.878,0,0,0,.648.362c.274.068.187-.06.125-.151-.041-.04-.2-.118-.047-.089-.449-.4-1.255-.94-1.754-1.417-.2-.182-.393-.361-.6-.544a13.413,13.413,0,0,1-1.157-1.033c.312.2.441.276.568.363.089.033-.057-.122.129-.007a1.574,1.574,0,0,1,.411.349,4.273,4.273,0,0,0-.388-.217c.2.2.639.488.662.62a16.663,16.663,0,0,0,2.262,1.673c.766.5,1.574.937,2.4,1.365.087.049.189.1.29.151.194.069.432.162.592.24a30.2,30.2,0,0,0,3.628,1.44c.493.173.991.316,1.508.447a.554.554,0,0,0,.151.044c1.122.214,1.858.45,2.912.6.165-.111-.315-.187-.619-.261-.028-.021-.025-.036-.056-.042l-.96-.231a4.378,4.378,0,0,1-1.1-.306,1.478,1.478,0,0,1-.274-.068,4.639,4.639,0,0,1-.708-.214,6.2,6.2,0,0,1-.8-.217c-.3-.089-.6-.194-1.012-.288.32.077-.078.16.671.239.062.012.317.092.235.108a1.145,1.145,0,0,1-.437-.051c-.563-.139-.671-.239-.469-.3-.09-.033-.191-.085-.281-.118a8.4,8.4,0,0,1-1.574-.682,5.848,5.848,0,0,0-1.288-.516c.274.148.568.284.86.419-.061-.012-.11-.005-.172-.017-.277-.132-.555-.265-.844-.415-.214-.137-.048-.169-.036-.231-.29-.15-.565-.3-.839-.446-.81-.345-.742-.539-1.349-.862-.383-.169-.362-.276-.741-.46.019.067.244.222.072.2a2.21,2.21,0,0,1-.972-.583,2.618,2.618,0,0,0,.308.138c.067-.019.548.136.051-.182-.229-.139-.4-.235-.069-.14a2.085,2.085,0,0,1,.583.286c.407.285.846.575,1.167.812a24.262,24.262,0,0,0,2.837,1.416c-.144,0-.354-.147-.5-.142-.093-.018-.009.046.092.1a14.478,14.478,0,0,0,2.55.836c.409.109.319,0,.173-.078-.175-.082-.612-.213-.231-.2s.508.176.833.222a3.093,3.093,0,0,0,.568-.051c.1-.013.1-.044.017-.092a4.748,4.748,0,0,0-.653-.252c-.178-.066-.142-.091-.1-.116a1.688,1.688,0,0,1,.273-.011,3.192,3.192,0,0,1-.333-.175c-.3-.185-1.112-.355-1.549-.566.113-.01.2.007.319,0l.062.012a.413.413,0,0,0-.1-.051c-.06-.107-.995-.381-.556-.345a2.928,2.928,0,0,1,.928.4,10.069,10.069,0,0,0,1.416.509c.129-.007.258-.014.371-.025.024-.043-.631-.2-.109-.18l.176.081a2.933,2.933,0,0,0,.292.136c.459.1.853.21,1.216.311.47.121.91.237,1.4.346.232-.051-.069-.14-.211-.151-.737-.061-.375-.12-.413-.175-.276-.052-.5-.127-.744-.189-.2-.054-.391-.122-.637-.169-.351-.083-.185-.115.008-.126a6.574,6.574,0,0,1-.847-.321,1.618,1.618,0,0,1-.333-.175,1.335,1.335,0,0,1,.351.083.991.991,0,0,0,.212.056c-.05-.073-.41-.189.214-.118.509,0,.572.093.7.181l.422.128a4.552,4.552,0,0,1,.782.244c.7.2,1.445.355,2.119.5,1.264.305,2.935.4,4.084.555l.015,0c.377-.056.491.014.786-.026a1.023,1.023,0,0,1,.367-.089c.208-.008.056.042-.018.092.32,0,.639-.006.943-.011a10.844,10.844,0,0,1,1.662-.114c.257-.095.2-.152.047-.166.313-.052.54-.073.77-.109.355-.107.439-.044.763-.157.343-.046.671-.095,1-.16l-.262-.049-.386.022c-.31.036-.6.076-.908.082-.338-.065-1.346.126-1.795.056a9.689,9.689,0,0,1-1.792.041c-1.016-.018-2.02-.1-2.988-.2-.264-.034-.648-.027-.728-.106-.092-.018-.188-.02-.295-.041-.109.155-.542.088-.93.03-.282.058-.244.113.033.166.338.064.691.132,1.048.184a3.25,3.25,0,0,1,1.3.184c-.612-.053-1-.111-1.386-.168a1.894,1.894,0,0,1-.875-.008,10.413,10.413,0,0,0-1.226-.249c-.173-.017-.48-.076-.284-.1a1.372,1.372,0,0,1,.684,0c.246.047.209-.008.277-.027.036-.025.057-.053.094-.078-.163-.063-.807-.026-.833-.143.337-.015.6.084.943.069-.7-.2-1.355-.418-2.186-.656-.138-.026-.273-.068-.412-.094a2.056,2.056,0,0,1-.3-.074l-1.122-.214c-.077-.014-.09-.033-.056-.042-.08-.079-.071-.125.183-.124.11-.075-.143-.171-.472-.282-.394-.107-.88-.231-.949-.371.345.113.662.205.961.31.212.056.421.128.634.184.289.071.59.161.879.232.108.02.2.053.305.074.563.139,1.129.262,1.716.358.061.012.04.04.053.058a1.9,1.9,0,0,1,.845.081,3.815,3.815,0,0,0,.823.109c.638-.006.924,0,1.011.129a1.691,1.691,0,0,0,1.1.067c.009-.046-.176-.082.183-.125l.1-.028c-.049-.074-.577-.063-.673-.145-.43,0-.222-.09-.259-.144a1.3,1.3,0,0,1-.727.052c-.379-.1-1.024-.147-1.534-.228-.384-.073-.449-.149-.514-.226l-.108-.02c-.771-.051,0-.255-1.046-.279-.026-.116-.5-.143-.846-.241-.108-.02-.213-.056-.32-.077a8.172,8.172,0,0,1-1.491-.538.215.215,0,0,1-.086-.049c.031.006.064,0,.1,0,.034-.01.08,0,.114-.011.178.066.36.117.523.18a2.527,2.527,0,0,1,.894.154l.031.006c.515.226,1.526.354,2.068.521a1.616,1.616,0,0,0,.273.068,8.43,8.43,0,0,0,2.027.482c.636.089,1.48.09,1.954.2.467.057,1.212-.008,1.548.071.1,0,.193-.011.288-.008a4.652,4.652,0,0,1,1.236-.052,23.67,23.67,0,0,0,4.679-.813c-.059-.107-.705.1-1.091.126,1.065-.322,1.675-.429,2.44-.682a5.294,5.294,0,0,0,.749-.335,1.416,1.416,0,0,1,.776-.314,5.912,5.912,0,0,1,.817-.275,28.16,28.16,0,0,0,6.439-3.7c.118-.121.234-.226.356-.362-.019-.068.149-.2.285-.328.509-.413,1.011-.875,1.516-1.352.1-.124.246-.288.346-.4a28.6,28.6,0,0,0,3.505-4.351c.129-.342.258-.684.389-1.041a.059.059,0,0,0-.006-.049,8.376,8.376,0,0,1-.955,1.332,2.655,2.655,0,0,1-.732,1.087.7.7,0,0,1-.229.115c-.161.257-.339.525-.5.781l-.611.7c-.079.08-.164.191-.246.287-.288.344-.486.545-.6.571-.3.4-.489.56-.6.555.322-.353.529-.6.584-.558a1.042,1.042,0,0,1,.328-.384c.2-.232.425-.476.647-.721-.11-.005-.417.351-.673.6-.282.312-.58.622-.89.913-.472.468-.974.93-1.47,1.361a19.906,19.906,0,0,1-2.319,1.805,5.538,5.538,0,0,1-1.879,1.251c-.516.364-.888.563-.966.469.5-.351.748-.415,1.111-.648.18-.11.363-.234.531-.361.235-.147.485-.29.708-.455.052-.022.107-.059.159-.081.75-.511,1.545-1.172,2.179-1.656.356-.283.719-.6,1.069-.928.006-.03-.007-.049-.016-.082a7.48,7.48,0,0,1-.646.545,8.294,8.294,0,0,1-.7.569c.019-.013.022-.028.043-.056.228-.2.457-.391.688-.6-.077-.014-.372.28-.558.42a2.128,2.128,0,0,1-.408.3,2.588,2.588,0,0,1,.224-.26c.036-.1-.411.32-.253.08,0-.1-.312.211-.458.311-.11.074-.2.136-.3.214-.168.048-.619.408-.806.468.275-.187.534-.376.811-.579a3.482,3.482,0,0,1,.911-.766c0,.015-.021.028-.024.043a28.851,28.851,0,0,0,6.175-7c.629-.963,1.227-2.012,1.806-3.128.288-1.093.551-2.222.773-3.39l.938.179.031.006c.235-.481.454-.965.668-1.418a31.774,31.774,0,0,0,1.6-4.4C205.46,1169.593,205.469,1169.467,205.477,1169.341Zm-3.164-2.625c.092-.652.143-1.168.206-1.92A4.077,4.077,0,0,1,202.313,1166.716Zm-.881.358a4.58,4.58,0,0,1-.16,1.005,2,2,0,0,1-.2.7c.085-.366.129-.6.176-.842A7.529,7.529,0,0,1,201.432,1167.074Zm-1.925-12.808a4.876,4.876,0,0,1,.493,1.591A5.672,5.672,0,0,1,199.507,1154.266Zm.959,3.5c-.038-.135-.042-.2,0-.175a.435.435,0,0,1,.1.226c0,.065.023.132.024.212C200.547,1157.921,200.5,1157.832,200.466,1157.762Zm.5,1.576c-.037.025-.069.114-.186-.2-.085-.223-.155-.523-.069-.475.155.109.149.474.255.67-.018-.242-.157-.683.017-.507C201.077,1159.232,201.045,1159.322,200.962,1159.338Zm-.012,1.32a.958.958,0,0,1,0-.6C201.009,1160.43,201.086,1160.779,200.95,1160.658Zm-18.389-16.119a3.169,3.169,0,0,1,.922.51C183.181,1144.88,182.864,1144.708,182.561,1144.539Zm-12.2-1a3.214,3.214,0,0,1,.922.1A3.971,3.971,0,0,1,170.358,1143.537Zm3.892.981a.34.34,0,0,1-.243.017c-.153-.029-.071-.045,0-.064a.512.512,0,0,1,.255,0C174.317,1144.5,174.25,1144.518,174.25,1144.518Zm-21.372,5.822a.931.931,0,0,1-.256.174c-.184.045-.355.108-.625.519a.619.619,0,0,1-.243.192c-.041-.04.273-.346.382-.5a1.678,1.678,0,0,1,.468-.452c.153-.051.507-.318.425-.142A2.39,2.39,0,0,1,152.878,1150.34Zm-.569.9a1.725,1.725,0,0,1,.494-.336A2.514,2.514,0,0,1,152.309,1151.235Zm-8.928,12.334c.127-.246.218-.388.237-.321C143.485,1163.525,143.4,1163.7,143.381,1163.569Zm3.179-5.065a2.956,2.956,0,0,1,.434-.6A3.576,3.576,0,0,1,146.56,1158.5Zm-3.865,15.863c-.093.651-.158,1.165-.21,1.935A4.135,4.135,0,0,1,142.7,1174.367Zm.881-.358a3.819,3.819,0,0,1,.159-1.005,2.072,2.072,0,0,1,.2-.7c-.086.366-.13.6-.179.858A7.314,7.314,0,0,1,143.576,1174.009Zm1.925,12.808a4.7,4.7,0,0,1-.493-1.591A6.576,6.576,0,0,1,145.5,1186.817Zm-.974-3.5c.053.138.054.217.014.178a.321.321,0,0,1-.1-.211c0-.08-.019-.147-.023-.212A1.487,1.487,0,0,1,144.527,1183.318Zm-.5-1.561c.055-.037.085-.111.2.2.088.208.158.508.069.475-.152-.124-.149-.474-.271-.673.036.23.175.671-.014.491C143.927,1181.866,143.963,1181.761,144.027,1181.757Zm.016-1.335a1.154,1.154,0,0,1,.011.608C144,1180.668,143.919,1180.319,144.043,1180.422Zm-.2-4.372a11.235,11.235,0,0,1,.6-3.136C144.188,1173.887,144.043,1175.07,143.84,1176.05Zm3.675-18.8a.274.274,0,0,1,.036-.1q.347-.435.738-.863a.9.9,0,0,0-.1.173C147.968,1156.717,147.743,1156.977,147.515,1157.252Zm-1.379,10.586c-.1.219-.186.394-.267.57-.184.379-.382,1.17-.573,1.165.2-.471.426-1.4.6-1.383C145.961,1168.091,146.092,1167.654,146.136,1167.838Zm-2.363,9.984a1.772,1.772,0,0,1,.028-.648C143.851,1177.582,143.838,1177.818,143.773,1177.822Zm-.009.046c0,.494.031.93-.1,1.017A2.326,2.326,0,0,1,143.764,1177.868Zm-.02,2.784c.033.245-.07.114-.17-.112a.775.775,0,0,1-.066-.49c.023-.2.033-.424.071-.624-.021-.307-.008-.543.084-.526-.006.286-.01.556,0,.844C143.683,1180.051,143.717,1180.376,143.744,1180.652Zm1.085-6.2.14-.738C144.929,1174.012,144.926,1174.362,144.829,1174.455Zm.262-1.543c.175-.668.377-1.314.614-1.97A7.942,7.942,0,0,1,145.091,1172.912Zm3.8-17.293a3.51,3.51,0,0,1,.6-.635A4.378,4.378,0,0,1,148.894,1155.619Zm.6-.92c-.055.037-.092.062-.086.031a1.308,1.308,0,0,1,.155-.225c.052-.022.11-.075.125-.072A.846.846,0,0,1,149.5,1154.7Zm-3.333,24.025c-.008-.209,0-.4,0-.589.012.272.1.64,0,.589.015.258.03.515.059.776C146.161,1179.169,146.068,1178.737,146.166,1178.724Zm7.775-28.277c.07-.035.138-.054.189-.076-.191.171-.231.211-.289.264-.015,0-.046-.009-.037-.055C153.8,1150.58,153.923,1150.459,153.941,1150.447Zm-7.414,32.407c-.095-.256-.2-.532-.116-.563A1.837,1.837,0,0,1,146.527,1182.854Zm-.2.233c-.066-.236-.2-.628-.089-.623a1.338,1.338,0,0,1,.167.717,4.261,4.261,0,0,1,.284.851,8.526,8.526,0,0,1,.615,1.789c.031.086.041.2-.073.05a.611.611,0,0,1-.191-.418,1.936,1.936,0,0,0-.077-.27C146.71,1184.483,146.495,1183.773,146.323,1183.087Zm.581,2.8c-.012-.019-.006-.049-.016-.083-.16-.413-.305-.823-.45-1.233a.314.314,0,0,1,.08.079c.174.511.363,1.025.57,1.526.07.221.136.456.209.661A3.267,3.267,0,0,1,146.9,1185.89Zm11.895-38.453c-.856.315-1.74.689-2.6,1.1A12.969,12.969,0,0,1,158.8,1147.437Zm-9.768,40.753c.119.294.241.572.364.85.146.235.336.494.129.407-.215-.375-.569-.857-.54-1.011C149.1,1188.475,148.843,1188.091,149.031,1188.19Zm1.027-.123a.735.735,0,0,1,.223.25c.019.067-.014.077-.02.107-.075-.11-.183-.21-.23-.3C149.953,1188.031,149.987,1188.022,150.058,1188.067Zm7.254-38.507c-.052.022-.232.131-.1.013a2.082,2.082,0,0,1,.216-.134c.052-.022.065,0,.132-.023C157.437,1149.488,157.364,1149.538,157.312,1149.56Zm-1.253.637c-.317.163-.519.22-.807.388C155.732,1150.246,155.851,1150.2,156.059,1150.2Zm-7.512,40.45c-.213-.471-.884-1.379-.766-1.58.093.432.835,1.386.977,1.811.165.3.569.778.54.931C149.036,1191.425,148.775,1191.041,148.547,1190.647Zm1.288-2.16c.416.493.234.442.269.592.214.217.3.121.533.468.226.314-.114.01-.2-.038-.133-.057,0,.144.091.273.425.527.665.859.481.9a5.46,5.46,0,0,0-.731-1.1C150.174,1189.3,149.592,1188.5,149.835,1188.487Zm.948,2.968c-.721-.647-.6-.688-.381-.678C150.568,1191.079,150.664,1191.241,150.783,1191.455Zm-.594.859c-.106-.2-.184-.37-.315-.6C150.2,1192.108,150.432,1192.376,150.189,1192.314Zm.63.709c.685.752.864,1.152,1.477,1.779q.33.4.707.8a8.916,8.916,0,0,1-1.385-1.426c-.338-.4-.642-.808-.947-1.216-.118-.134-.372-.39-.3-.424A4.289,4.289,0,0,1,150.819,1193.023Zm11.35-46.553a.772.772,0,0,1-.452.2,2.85,2.85,0,0,1-.76.142c.355-.108.649-.227.939-.331C162.205,1146.365,162.23,1146.4,162.169,1146.47Zm-.977.2a3.882,3.882,0,0,0-.6.221C160.919,1146.678,161.085,1146.646,161.192,1146.666Zm-8.619,44.508c-.156-.188-.311-.377-.463-.581.028.021.04.039.071.045.155.189.307.393.463.582C152.613,1191.214,152.6,1191.2,152.573,1191.174Zm7.306-43.467a3.772,3.772,0,0,1,1.408-.369A7.143,7.143,0,0,1,159.879,1147.707Zm.961-.614a1.8,1.8,0,0,1,.539-.152A1.821,1.821,0,0,1,160.84,1147.093Zm-6.368,46.657c.291.311.619.6.944.9a8.486,8.486,0,0,1,.777.69,7.832,7.832,0,0,1-.882-.726c-.325-.3-.637-.583-.947-.881-.508-.511-.985-1.016-1.444-1.533a.276.276,0,0,1,.1.051C153.48,1192.765,153.958,1193.27,154.472,1193.75Zm7.036-46.482c.361-.138.513-.189.649-.147C161.909,1147.169,161.756,1147.22,161.508,1147.268Zm.936,49.291a2.717,2.717,0,0,1-.9-.523C161.826,1196.2,162.126,1196.387,162.444,1196.559Zm4.654-51.126a12.191,12.191,0,0,1-1.277.012A3.255,3.255,0,0,1,167.1,1145.433ZM154.116,1191.1c.205.262.464.487.391.537C154.309,1191.426,154.052,1191.185,154.116,1191.1Zm8.31-44.057c.572-.242,1.031-.393.975-.181C163.109,1146.888,162.6,1147.077,162.426,1147.045Zm-7.045,44.187a.493.493,0,0,1-.056-.123c.1.082.182.131.222.17s.078.094.075.11A.7.7,0,0,1,155.381,1191.232Zm1.218,1.3c.006-.031-.006-.049.012-.062.034-.009.093.018.244.142l.05.074Zm.088-.541c-.118-.134-.427-.352-.314-.362a1.62,1.62,0,0,1,.192.084c.25.191.139.185.229.3.093.1.3.249.233.284A3.576,3.576,0,0,1,156.687,1191.99Zm.655.825a3.688,3.688,0,0,1,.866.8A6.338,6.338,0,0,1,157.342,1192.815Zm9.075-46.651a26.7,26.7,0,0,0-3.075.338.28.28,0,0,0,.089-.046,25.109,25.109,0,0,1,3.056-.326c.216.041.753-.017,1.017.018A4.2,4.2,0,0,1,166.417,1146.164Zm-7.564,48.086a2.324,2.324,0,0,1-.232-.123c0-.016.022-.028.025-.044a.717.717,0,0,1,.2.118C158.889,1194.225,158.855,1194.235,158.853,1194.25Zm15.793,3.311a3.814,3.814,0,0,1-.918-.112A3.7,3.7,0,0,1,174.646,1197.561Zm-3.9-1a.493.493,0,0,1,.257-.014c.154.029.068.06,0,.064a.53.53,0,0,1-.27,0C170.691,1196.584,170.743,1196.562,170.743,1196.562Zm8.425-51.6a.712.712,0,0,1,.136.122c-.043-.024-.087-.049-.145-.076-.293-.135-.7-.26-1.056-.392A3.116,3.116,0,0,1,179.168,1144.96Zm-1.225.994c-.289-.071-.419-.144-.4-.236.314.107.6.194.588.255A.586.586,0,0,1,177.943,1145.954Zm.156.6c.015,0,.015,0,.025.036a.656.656,0,0,1-.289-.071c-.013-.018-.044-.024-.071-.045A2.627,2.627,0,0,1,178.1,1146.557Zm-4.535-.529c.031.006.046.008.059.027l-.062-.012a1.376,1.376,0,0,1-.437-.131A1.3,1.3,0,0,1,173.564,1146.028Zm-2.362-.482c-.451-.054-.89-.09-.913-.222l1,.191c.354.067.707.134,1.043.214A4.94,4.94,0,0,1,171.2,1145.546Zm.668.51c.274.068.486.124.7.2C172.013,1146.226,171.733,1146.189,171.87,1146.056Zm-7.713,49.619a4.205,4.205,0,0,1-.919-.526,6.328,6.328,0,0,0,1.164.493c.259.065.342.128.272.163C164.57,1195.849,164.32,1195.737,164.157,1195.675Zm1.111-1.318c-.08-.079-.506-.272-.162-.238a1.544,1.544,0,0,1,.635.264c0,.016.025.037.037.055C165.264,1194.213,165.422,1194.386,165.268,1194.357Zm.42,1.641a8.366,8.366,0,0,0,1.217.471C166.106,1196.317,165.816,1196.166,165.688,1196Zm1.377-.869c.289.071.418.144.4.236-.314-.108-.6-.179-.589-.256C166.877,1195.109,167,1195.117,167.065,1195.129Zm-.156-.6c-.031-.006-.074-.03-.041-.039a.712.712,0,0,1,.305.074c.012.018.043.023.068.06C167.137,1194.585,167.013,1194.562,166.909,1194.526Zm12.992-47.562a1.562,1.562,0,0,1-.637-.249c-.01-.034-.1-.082-.035-.07.5.222.341.049.51.081C179.82,1146.805,180.23,1146.994,179.9,1146.964Zm-8.516,48.064c.24.078.446.085.5.143A1.017,1.017,0,0,1,171.385,1195.028Zm9.217-49.572c-.258-.065-.339-.144-.268-.178.1-.044.353.067.517.13a4.47,4.47,0,0,1,.919.526A7.458,7.458,0,0,0,180.6,1145.456Zm-7.465,49.571c-.273-.068-.485-.124-.7-.181C173.01,1194.86,173.287,1194.912,173.137,1195.027Zm.583.541-1.046-.2a5.1,5.1,0,0,1,1.131.168c.452.054.891.09.914.221C174.378,1195.709,174.039,1195.645,173.72,1195.568Zm17.172-45.587c-.208-.247-.483-.475-.41-.524C190.7,1149.657,190.955,1149.9,190.892,1149.981Zm-1.269-.114c.04.039.037.054.059.106a1.846,1.846,0,0,1-.222-.169c-.04-.04-.081-.079-.075-.11A.552.552,0,0,1,189.623,1149.867Zm-1.23-1.318c.009.034.022.052,0,.064s-.107-.02-.243-.142a.211.211,0,0,1-.05-.073C188.189,1148.446,188.306,1148.5,188.393,1148.549Zm-.075.559c.121.119.414.334.313.362a.719.719,0,0,1-.188-.1c-.25-.191-.14-.186-.229-.3-.094-.1-.288-.246-.233-.283C188.1,1148.908,188.24,1149.014,188.318,1149.108Zm-.64-.822a3.671,3.671,0,0,1-.879-.821A6.115,6.115,0,0,1,187.678,1148.286Zm-1.319-1.271c-.071-.046-.173-.1-.2-.118-.041-.04-.007-.049-.019-.067a2.33,2.33,0,0,1,.246.126C186.38,1146.987,186.362,1147,186.359,1147.015Zm-8.437,48.653a8.68,8.68,0,0,1,1.246-.018A3.775,3.775,0,0,1,177.922,1195.668Zm3.655-1.041a26.317,26.317,0,0,1-3.057.326c-.23-.044-.752.016-1.031-.021a5.312,5.312,0,0,1,1.1-.013,23.586,23.586,0,0,0,3.076-.339A.365.365,0,0,0,181.577,1194.627Zm.03-.408c.307-.022.805-.213.974-.181C182.009,1194.279,181.548,1194.446,181.607,1194.219Zm10.828-44.311c.155.189.307.393.463.582a.63.63,0,0,1-.074-.03c-.152-.2-.305-.408-.46-.6C192.377,1149.881,192.407,1149.887,192.435,1149.908Zm-1.9-2.576c-.306-.313-.619-.6-.944-.9a8.367,8.367,0,0,1-.78-.674,5.622,5.622,0,0,1,.881.726c.313.282.638.583.948.881.495.493.988,1,1.444,1.534a.224.224,0,0,0-.1-.052A18.843,18.843,0,0,0,190.536,1147.332Zm-7.036,46.482c-.348.157-.514.189-.649.148C183.1,1193.913,183.264,1193.881,183.5,1193.814Zm-.677.8a.822.822,0,0,1,.465-.183,2.216,2.216,0,0,1,.759-.142,8.567,8.567,0,0,0-.939.331C182.8,1194.733,182.777,1194.681,182.823,1194.61Zm.791-.471a1.855,1.855,0,0,1,.554-.15A1.465,1.465,0,0,1,183.614,1194.139Zm.183.29c.181-.03.379-.151.615-.218C184.089,1194.4,183.92,1194.452,183.8,1194.429Zm-.076-.684a7.672,7.672,0,0,1,1.408-.369A3.777,3.777,0,0,1,183.721,1193.745Zm8.406-2.987a.681.681,0,0,1,.241-.177c.2-.057.357-.123.642-.531a.776.776,0,0,1,.244-.192c.037.055-.273.346-.382.5a1.755,1.755,0,0,1-.484.45c-.141.069-.506.317-.41.145A.94.94,0,0,1,192.127,1190.758Zm2.691-41.989c.1.211.185.37.313.617C194.8,1148.972,194.575,1148.707,194.818,1148.769Zm-.228,1.534c-.153-.284-.259-.48-.381-.678C194.946,1150.275,194.826,1150.316,194.59,1150.3Zm-.4-2.243c-.7-.74-.867-1.137-1.478-1.779l-.707-.8a10.415,10.415,0,0,1,1.385,1.427c.339.4.643.807.948,1.216.115.149.371.389.3.423A2.594,2.594,0,0,1,194.189,1148.06ZM194,1150.4a4.966,4.966,0,0,0,.732,1.095c.088.288.7,1.089.443,1.1-.416-.493-.234-.443-.285-.6-.2-.2-.28-.117-.517-.464-.227-.315.111.005.2.038.133.057-.007-.129-.091-.273C194.054,1150.774,193.8,1150.439,194,1150.4Zm1.979,2.495c-.12-.293-.242-.571-.364-.849-.15-.22-.339-.479-.133-.392.218.36.57.857.54,1.011C195.9,1152.623,196.147,1153.005,195.977,1152.892Zm-8.3,38.644c.071-.035.251-.144.117-.026a2.069,2.069,0,0,1-.217.134.415.415,0,0,1-.131.023A.745.745,0,0,1,187.677,1191.536Zm7.049-38.77c-.037-.055,0-.064,0-.095a2.955,2.955,0,0,1,.248.286c.075.11.028.1-.043.056A.662.662,0,0,1,194.726,1152.766Zm-8.536,40.892a28.286,28.286,0,0,0,2.617-1.111A13.126,13.126,0,0,1,186.19,1193.658Zm2.743-2.775c.351-.172.569-.227.874-.407C189.292,1190.839,189.157,1190.878,188.933,1190.883Zm7.314-40.663c-.163-.318-.569-.777-.537-.947.259.4.5.781.735,1.16.228.474.9,1.382.782,1.583C197.134,1151.584,196.389,1150.645,196.247,1150.22Zm-3.564,39.625a1.409,1.409,0,0,1-.481.354A2.276,2.276,0,0,1,192.683,1189.845Zm5.42-34.652a.164.164,0,0,1,0,.08,11.942,11.942,0,0,1,.447,1.248.4.4,0,0,1-.062-.091c-.173-.511-.362-1.025-.57-1.527-.069-.22-.139-.44-.208-.661A3.726,3.726,0,0,1,198.1,1155.193Zm-7.039,35.458a.624.624,0,0,0-.19.076c.192-.171.235-.227.292-.279.013.018.046.008.041.039S191.067,1190.636,191.064,1190.651Zm7.417-32.423c.1.257.186.529.116.564A1.631,1.631,0,0,1,198.481,1158.228Zm.292.39a1.194,1.194,0,0,1-.166-.716,5.691,5.691,0,0,1-.3-.854,10.535,10.535,0,0,1-.614-1.79c-.016-.082-.03-.18.073-.049a.81.81,0,0,1,.206.421c.016.083.045.184.058.282a17.943,17.943,0,0,1,.652,2.1C198.748,1158.247,198.881,1158.639,198.773,1158.618Zm.068,3.741c-.014-.258-.029-.515-.059-.776C198.847,1161.914,198.924,1162.343,198.841,1162.359Zm0,.015c.011.193.007.384,0,.574C198.826,1162.691,198.724,1162.305,198.838,1162.374Zm-3.414,24.2a.256.256,0,0,1-.109.075.83.83,0,0,1,.193-.266c.055-.037.092-.062.086-.031Zm.091-.476a4.057,4.057,0,0,1,.6-.62A3.819,3.819,0,0,1,195.515,1186.1Zm5.782-23.081a.988.988,0,0,1-.057.212c-.017-.5-.027-.945.1-1.032A3.74,3.74,0,0,1,201.3,1163.018Zm-.093.906c-.047-.423-.049-.663.03-.663A2.249,2.249,0,0,1,201.2,1163.924Zm.044-3.5c-.017-.243.07-.114.17.112a.724.724,0,0,1,.082.493c-.024.2-.049.421-.072.624.022.307-.007.54-.1.522,0-.27.01-.555.017-.841C201.309,1161.029,201.275,1160.7,201.248,1160.428Zm-1.069,6.2-.141.738A1.691,1.691,0,0,1,200.179,1166.628Zm-.265,1.559c-.187.649-.378,1.314-.611,1.954A7.687,7.687,0,0,1,199.914,1168.187Zm-.775,4.488c.181-.364.367-1.173.572-1.166-.219.484-.441,1.4-.6,1.384-.066.1-.2.536-.242.352C198.976,1173.026,199.058,1172.85,199.139,1172.675Zm-1.683,11.26c-.248.3-.491.576-.737.863l.081-.175c.24-.257.462-.5.69-.777C197.484,1183.877,197.462,1183.905,197.456,1183.935Zm3.1-15.77c.264-.969.41-2.152.6-3.136A10.651,10.651,0,0,1,200.555,1168.165Zm-2.541,15.016a2.836,2.836,0,0,1,.431-.587A2.827,2.827,0,0,1,198.014,1183.181Zm3.376-5.346c.129-.262.211-.438.234-.306C201.5,1177.76,201.409,1177.9,201.39,1177.835Z" transform="translate(-117.838 -1114.863)" fill="#47aea9"/>
</svg>
