<svg xmlns="http://www.w3.org/2000/svg" width="81.771" height="79.527" viewBox="0 0 81.771 79.527">
  <g id="Group_3" data-name="Group 3" transform="translate(-1108.597 -689.176)">
    <g id="Group_1" data-name="Group 1">
      <path id="Path_711" data-name="Path 711" d="M1126.807,730.466l.135-.341-.055-.045C1126.858,730.22,1126.832,730.347,1126.807,730.466Z" fill="#438988"/>
      <path id="Path_712" data-name="Path 712" d="M1127.315,731.425l.043-.108a.142.142,0,0,1-.051-.021C1127.311,731.338,1127.315,731.379,1127.315,731.425Z" fill="#438988"/>
      <path id="Path_713" data-name="Path 713" d="M1126.885,730.078c-.206-.163-.458-.212-.585-.574l.3-.75c-.033-.289-.215-.205-.322-.308.074-.186.148-.373.094-.424-.092-.258-.267-.142-.443.185C1126.214,729.583,1125.6,731.857,1126.885,730.078Z" fill="#438988"/>
      <path id="Path_714" data-name="Path 714" d="M1126.71,732l.4-.991c-.082-.223-.149-.482-.311-.5A4.805,4.805,0,0,0,1126.71,732Z" fill="#438988"/>
      <path id="Path_715" data-name="Path 715" d="M1152.676,768.312c.008-.06.024-.088.139.038l-.139-.038c-.009.055-.012.139-.08.156a9.957,9.957,0,0,1,1.633.235c.085-.082.169-.166.246-.253a9.975,9.975,0,0,0-3.913-.56C1151.35,768.122,1151.915,768.1,1152.676,768.312Z" fill="#438988"/>
      <path id="Path_716" data-name="Path 716" d="M1154.66,767.893l.139.037C1154.686,767.8,1154.669,767.832,1154.66,767.893Z" fill="#438988"/>
      <path id="Path_717" data-name="Path 717" d="M1130.041,763.84a7.241,7.241,0,0,0-2.41.28c1.619.039,3.266.242,4.519.13C1131.449,764.125,1130.746,763.991,1130.041,763.84Z" fill="#438988"/>
      <path id="Path_718" data-name="Path 718" d="M1123.781,764.707a4.813,4.813,0,0,0,2.768.123l-2.52-.227C1123.947,764.637,1123.861,764.668,1123.781,764.707Z" fill="#438988"/>
      <path id="Path_719" data-name="Path 719" d="M1125,764.3a5.974,5.974,0,0,0,2.634-.184A12.094,12.094,0,0,0,1125,764.3Z" fill="#438988"/>
      <path id="Path_720" data-name="Path 720" d="M1144.97,759.575a4.851,4.851,0,0,1,1.29-.11c.113-.11.262-.244.46-.408l-.113-.03q-1.014-.006-2.05-.046a3.712,3.712,0,0,0-.805.222C1144.157,759.337,1144.565,759.466,1144.97,759.575Z" fill="#438988"/>
      <path id="Path_721" data-name="Path 721" d="M1146.26,759.465c-.966.949.868.109,0,0Z" fill="#438988"/>
      <path id="Path_722" data-name="Path 722" d="M1141.454,764.57l-.1-.024-.288,0Z" fill="#438988"/>
      <path id="Path_723" data-name="Path 723" d="M1133.929,759.918c.561.086,1.126.138,1.684.169a15.507,15.507,0,0,0-3.265-.215c.14.03.272.16.413.19A1.914,1.914,0,0,1,1133.929,759.918Z" fill="#438988"/>
      <path id="Path_724" data-name="Path 724" d="M1145.925,764.8c-1.551-.163-3.081-.243-4.568-.253a26.33,26.33,0,0,0-8.436-.894c-2.319.291-6.231-.708-8.613.461a4.232,4.232,0,0,0,.689.191,5.564,5.564,0,0,0-.968.3l-1.132-.108-.282-.028-.458-.057-1.007-.127-4.1-.531-4.215-.546-2.128-.291-1.068-.151-.535-.076a2.962,2.962,0,0,1-.5-.095l2.693-4.763c.72-1.265.98-2.168,1.734-3.495s1.439-2.631,2.155-3.941c-.013-.01-.038,0-.073.032.7-1.372,1.41-2.739,2.1-4.143l.255-.527.125-.273.25-.547.491-1.109c.653-1.483,1.279-3.015,1.9-4.608.6-1.469,1.3-2.829,1.925-4.268.236-.539.446-.316.654-.624a21.1,21.1,0,0,0,2.343-3.616l.16.158a3.779,3.779,0,0,1,.275-.673c.276,1.382-.354,3.655.945,1.889l0,0-.084.385-.014.037.006,0a4.846,4.846,0,0,0-.1,1.494l.408-.987a.485.485,0,0,0,.2.292c0,.043.006.084.007.13l-.111.27a1.21,1.21,0,0,0,.077.23c-.13,1.093-.586,2.577-.259,2.539.2-.083.367-.819.6-1.607a.62.62,0,0,0,.113-.091c-.342,1,.37.374.185,1-.314.762-.586,1.568-.908,2.323-1.321,3.064-2.432,5.646-3.682,8.728l-.167.4c-.308.742-.63,1.437-.957,2.12-.165.339-.335.671-.508,1l-.208.385-.2.345c-.007-.094-.009-.191-.008-.292a16.824,16.824,0,0,0-1.2,2.39c-.468,1.272-.82,2.291-1.214,3.222-.066.085.046.06.111.064l.209,0,.4.01c.264.009.516.023.76.044.743.082,1.48.129,2.175.147.347.008.684.007,1.005-.005l1.767.1c-.5.019-1,.033-1.507.027l-.188,0h-.047a.071.071,0,0,1-.021,0l-.053,0-.216.015a4.137,4.137,0,0,1-.445,0,6.386,6.386,0,0,0-.774-.13,3.332,3.332,0,0,0,.774.13l.763.162a12.956,12.956,0,0,0,1.286.189,4.616,4.616,0,0,0,2.358-.312c.139.111.13.209.271.237a6.959,6.959,0,0,0,2.86.273c.009-.1.435-.012.312-.239a26.632,26.632,0,0,0,2.719.277,2.921,2.921,0,0,0,1.15-.241c3.093.149,6.155.335,9.484.682a23.36,23.36,0,0,1,2.582.581c-1.248.006-2.525-.055-3.819-.128a6.357,6.357,0,0,0-3.42-.4c-.236.039-.47.074-.7.1,1.388.113,2.766.217,4.124.3.721.222,1.455.486,2.181.681l-.046.009-1.767-.091a7.2,7.2,0,0,0-3.072-.475,2.866,2.866,0,0,0-.346.069c-.235.039-.47.073-.7.1l2.552.2,1.569.108.962.313c-.037.016-.076.03-.111.049-.3.021-1.217.977-.828,1.38,1.085.272,2.4.483,3.444.66l1.3.215a1.577,1.577,0,0,1,.51.123c.091.427-3.678-.065-3.549.081.2.1.406.19.609.276a5.819,5.819,0,0,0-.6.107c-.433-.013-.984-.259-1.288-.136-1.051.336-2.153-.145-3.321-.031-.737.126-1.621.311-2.505.507-.022.2-.433,0-.313.23-.793-.184-1.71-.4-2.109.1l-.059,0a.506.506,0,0,0-.228.028,7.942,7.942,0,0,0-3.516.071,11.334,11.334,0,0,1-1.268-.183,3.611,3.611,0,0,0,.984.208l.284-.025c1.078.094,2.119.056,3.153.071a3.042,3.042,0,0,1,.363-.142l.218.07a.952.952,0,0,1,.069-.1c1-.059,2.105.094,2.962,0a19.409,19.409,0,0,1,4.815,1.08c-.808-.038-1.607-.054-2.392-.058.976.076,1.9.127,2.794.175l.4.111.841.22c-.256-.112-.512-.213-.767-.31q.8.038,1.591.046a36.658,36.658,0,0,1,8.6,1.889,2.849,2.849,0,0,1-.237.3,10.03,10.03,0,0,0-3.923-.55c.789.224,1.355.216,2.119.417-.008.056-.012.139-.08.156a9.208,9.208,0,0,1,1.639.23c-.21.2-.441.392-.672.584a3.418,3.418,0,0,1-1.154-.036c-1.83-.361-3.53-.9-5.345-1.142-1.584-.474-3.17-.927-4.734-1.3C1143.037,764.683,1144.495,764.778,1145.925,764.8Zm-21.277-28.971-.175.659c.025-.018.05-.034.075-.049A1.548,1.548,0,0,0,1124.648,735.828Zm-1.943,4.216a32.517,32.517,0,0,0,1.879-4.616.2.2,0,0,0-.034-.057C1123.926,736.672,1123.325,738.449,1122.7,740.044Zm-3.352,3.656.03-.01-.024-.024Zm3.547,17.514a10.28,10.28,0,0,1-2.489.032c-.919-.076-1.9-.179-2.926-.245-.567-.09-1.476.164-2.3.035-1.1-.072-1.93,0-2.893-.051l.408.264a5.649,5.649,0,0,0-.845-.12l-.434-.022-.22-.005c-.074,0-.092-.035-.143-.05a14.622,14.622,0,0,1,1.4-2.718c-.115.054-.186-.12-.026-.4.341-.677.768-1.389,1.156-2.059a16.653,16.653,0,0,0,.972-1.854c.7-1.417,1.5-2.826,1.976-4.049.152-.288.272-.98.538-1.637l.554-1.136c.177-.365.406-.843.468-.986l-.066,0-.4.81c-.155.315-.3.636-.449.959-.431.963-.876,1.976-1.337,2.959s-.933,1.935-1.378,2.806c-1.468,2.79-2.737,5.339-3.8,7.555.072.065.264.058.426.068l.491.025.968.045,1.875.077c.74.015,1.543-.057,2.232-.048,1.073-.026,2.117.057,3.076.111a6.086,6.086,0,0,0,2.432-.2C1122.353,761.319,1122.742,761.384,1122.9,761.214Zm1.945-4c-.383.036-.774.056-1.168.06h-.563c-.125.009-.253.014-.381.014a5.937,5.937,0,0,1-1.482-.181,7.594,7.594,0,0,0-2.085.107,8.962,8.962,0,0,0-1.4.339,2.337,2.337,0,0,0-1.052.616,8.81,8.81,0,0,1,5.129-.282c.389.062.764.121,1.1.155l.578.052a4.431,4.431,0,0,0,.536.006C1124.7,758.063,1125.042,757.828,1124.845,757.215Zm11.982.665a7.369,7.369,0,0,1-1.869-.128Zm-6.417,2.686a32.863,32.863,0,0,1,5.752.061c1.442.028,2.935.9,4.277.518l.033-.3-.151.064c-.488-.178-.869-.432-1.275-.616l.075-.008-.127-.014a2.247,2.247,0,0,0-.9-.206l-.476.029a18.254,18.254,0,0,0-5.274-.226c-1.017.086-1.909.393-2.925.492A3.469,3.469,0,0,0,1130.41,760.566Z" fill="#438988"/>
      <path id="Path_725" data-name="Path 725" d="M1143.368,763.881c.619.04,1.243.085,1.87.147.488.008.975.007,1.463-.007,2.313.088,4.916,1.015,7.354,1.513a1.663,1.663,0,0,0,.111-.886c-2.578-1.115-5.269-1.343-7.876-2.216l-.065.014c-1.194.282-3-.4-4.458-.257-1.471.23-2.9.088-4.353.245A56.247,56.247,0,0,1,1143.368,763.881Z" fill="#438988"/>
      <path id="Path_726" data-name="Path 726" d="M1126.549,764.83l1.672.147c1.567.077,2.966.077,4.405.024q-1.553-.256-3.117-.579A9.375,9.375,0,0,0,1126.549,764.83Z" fill="#438988"/>
      <path id="Path_727" data-name="Path 727" d="M1133.793,764.957l-1.167.044c1.533.261,3.058.488,4.58.717,2.524.191,5.043.467,7.582.609.287.022.572.056.854.095-4.594-1.363-9.2-2.58-13.256-2.2l-.236.023c1.876.34,3.737.619,5.595.9C1136.429,765.057,1135.113,764.972,1133.793,764.957Z" fill="#438988"/>
      <path id="Path_728" data-name="Path 728" d="M1142.769,763.844l.4.117.476.021-.279-.1Z" fill="#438988"/>
      <path id="Path_729" data-name="Path 729" d="M1139.046,760.3l-.052-.022-1.372-.177a18.49,18.49,0,0,1-2.009-.011A14.072,14.072,0,0,0,1139.046,760.3Z" fill="#438988"/>
      <path id="Path_730" data-name="Path 730" d="M1135.38,757.014l-.567-.127-.276.121.4.108Z" fill="#438988"/>
      <path id="Path_731" data-name="Path 731" d="M1126.863,756.849l7.312.307.362-.148a11.025,11.025,0,0,0-4.619-.37,3.843,3.843,0,0,1-1.029.193,23.223,23.223,0,0,0-3.956-.065l1.877.08Z" fill="#438988"/>
    </g>
    <g id="Group_2" data-name="Group 2">
      <path id="Path_732" data-name="Path 732" d="M1117.16,759.456l-.351.209.013.074C1116.946,759.639,1117.056,759.545,1117.16,759.456Z" fill="#438988"/>
      <path id="Path_733" data-name="Path 733" d="M1117.424,758.3l-.11.065a.194.194,0,0,1,.027.052C1117.367,758.381,1117.393,758.343,1117.424,758.3Z" fill="#438988"/>
      <path id="Path_734" data-name="Path 734" d="M1116.822,759.742c.051.273.221.475.067.871l-.774.462c-.181.273.027.315.04.473-.193.116-.387.231-.38.31-.109.283.113.3.492.121C1117.022,760.6,1119.124,759.013,1116.822,759.742Z" fill="#438988"/>
      <path id="Path_735" data-name="Path 735" d="M1118.317,758.185l-1.021.609c-.091.245-.22.512-.1.632A5.675,5.675,0,0,0,1118.317,758.185Z" fill="#438988"/>
      <path id="Path_736" data-name="Path 736" d="M1189.029,692.164c-.045-.009-.057-.032.123-.2l-.123.2c.039.011.107.011.076.107.363-.711.789-1.537,1.263-2.329-.013-.117-.03-.231-.052-.335a41.3,41.3,0,0,0-3.063,5.577C1187.989,694.056,1188.349,693.253,1189.029,692.164Z" fill="#438988"/>
      <path id="Path_737" data-name="Path 737" d="M1189.971,689.374l.121-.2C1189.914,689.342,1189.926,689.364,1189.971,689.374Z" fill="#438988"/>
      <path id="Path_738" data-name="Path 738" d="M1166.117,724.026c-.513.577-.964,1.149-1.388,1.725s-.848,1.134-1.267,1.707a80.4,80.4,0,0,0,5.233-6.259C1167.845,722.141,1167.013,723.1,1166.117,724.026Z" fill="#438988"/>
      <path id="Path_739" data-name="Path 739" d="M1158.908,732.912a20.4,20.4,0,0,0,3.611-3.686c-1.108,1.115-2.2,2.259-3.337,3.31C1159.092,732.66,1158.993,732.788,1158.908,732.912Z" fill="#438988"/>
      <path id="Path_740" data-name="Path 740" d="M1160.29,731.117a22.382,22.382,0,0,0,1.741-1.828c.259-.3.508-.6.746-.908s.458-.616.685-.923l-.827.941q-.417.457-.821.914C1161.278,729.921,1160.765,730.524,1160.29,731.117Z" fill="#438988"/>
      <path id="Path_741" data-name="Path 741" d="M1176.658,702.8a16.445,16.445,0,0,1,.836-1.74c-.007-.157-.007-.362,0-.635l-.1.15c-.478.9-.967,1.822-1.5,2.735a9.5,9.5,0,0,0-.421,1.093C1175.877,703.873,1176.276,703.336,1176.658,702.8Z" fill="#438988"/>
      <path id="Path_742" data-name="Path 742" d="M1177.494,701.062c.058,1.345.7-1.162,0,0Z" fill="#438988"/>
      <path id="Path_743" data-name="Path 743" d="M1177.736,708.054l-.1.134-.241.409Z" fill="#438988"/>
      <path id="Path_744" data-name="Path 744" d="M1167.709,717.611c.6-.712,1.15-1.466,1.69-2.2-1.148,1.493-2.35,2.966-3.259,4.273.159-.174.376-.308.531-.488A7.213,7.213,0,0,1,1167.709,717.611Z" fill="#438988"/>
      <path id="Path_745" data-name="Path 745" d="M1181.441,701.748l-3.8,6.44c-2.985,4.108-5.943,8.021-8.515,11.763a65.432,65.432,0,0,1-4.78,5.915,70.232,70.232,0,0,0-5.032,6.076c.347-.275.679-.537.979-.825-.4.495-.773.954-1.108,1.419-.63.595-1.258,1.194-1.891,1.78l-1.919,1.707c-.321.282-.641.57-.964.846l-.972.815c-.65.541-1.3,1.087-1.955,1.621-2.622,2.087-5.29,4.111-8.015,5.973-.809.569-1.367,1.19-2.176,1.733-.816.558-1.621,1.124-2.416,1.651,0,.019.013.029.038.031l-9.9,6.758c-1.588,1.05-3.172,1.909-4.747,2.852-.588.35-.614.033-1.013.188a30.76,30.76,0,0,0-4.556,1.794l-.019-.237a4.7,4.7,0,0,1-.7.418c.758-1.383,2.873-2.969.561-2.24v0c.123-.1.234-.193.34-.283l.037-.023,0-.007a5.736,5.736,0,0,0,1.128-1.241l-1.025.609a.527.527,0,0,0,.045-.376c.028-.038.053-.076.085-.116l.279-.166a1.4,1.4,0,0,0,.1-.249c.866-.871,2.261-1.885,1.964-2.053-.222-.045-.864.489-1.6,1.031a.647.647,0,0,0-.155.01c.968-.658-.044-.554.534-.98.78-.463,1.551-1.006,2.329-1.468,3.168-1.885,5.829-3.558,8.888-5.7l.4-.278c1.486-1.018,2.885-1.928,4.35-2.8-.085.113-.174.224-.267.335a34.26,34.26,0,0,0,3.5-2.344c2.808-2.19,5.541-4.461,8.453-6.731a87.05,87.05,0,0,0,8.686-7.669c-.557.592-1.118,1.185-1.693,1.773s-1.189,1.133-1.808,1.685l-.85.705q-.427.34-.844.683.441-.33.867-.672t.827-.716l1.646-1.355c.538-.462,1.056-.941,1.553-1.415a14.3,14.3,0,0,0,2.455-2.934c.2-.117.246-.065.412-.221.592-.541,1.163-1.107,1.7-1.663.269-.279.528-.559.769-.842a9.939,9.939,0,0,0,.643-.875c-.047-.047.429-.543.175-.47.908-1.021,1.98-2.216,2.8-3.307a9.211,9.211,0,0,0,.9-1.526c.734-.96,1.424-1.953,2.13-2.923.682-1,1.385-1.969,2.051-2.985,1.363-2,2.677-4.089,4.039-6.255.686-1.078,1.55-2.292,2.291-3.377-.433.831-.891,1.67-1.374,2.509s-.98,1.692-1.5,2.54c-.6.789-1.192,1.549-1.706,2.29a15.787,15.787,0,0,0-1.278,2.145c-.164.314-.331.626-.5.939,1.223-1.8,2.4-3.585,3.488-5.374.718-.924,1.458-1.878,2.136-2.834l-.027.062c-.447.776-.9,1.566-1.38,2.346a30.253,30.253,0,0,0-2.751,4.008c-.083.156-.163.312-.233.464-.165.314-.334.629-.507.942.377-.559.755-1.112,1.123-1.669s.722-1.117,1.08-1.673c.447-.684.865-1.386,1.288-2.072.318-.413.644-.829.959-1.253-.016.051-.033.1-.044.152-.191.4-.188,1.719.42,1.236,1.04-1.447,2.188-3.227,3.07-4.644s1.506-2.472,1.544-2.461c.2-.06-.449,1.2-1.15,2.455s-1.441,2.5-1.345,2.412q.346-.406.671-.821c-.129.287-.257.567-.365.828a16.851,16.851,0,0,0-1.086,1.764,44.092,44.092,0,0,1-2.706,4.566c-.525,1.032-1.165,2.276-1.822,3.538.12.064-.4.6-.126.474-.43.532-.9,1.1-1.256,1.628a3.193,3.193,0,0,0-.665,1.318l-.055.083a2.011,2.011,0,0,0-.2.323,23.76,23.76,0,0,0-1.9,2.43c-.532.8-1.052,1.576-1.673,2.446-.235.28-.472.563-.72.844s-.51.554-.777.832a12.423,12.423,0,0,0,1.207-1.276l.29-.4c1.227-1.45,2.268-2.91,3.308-4.339.061-.133.158-.346.26-.537l.26-.287a.939.939,0,0,1,0-.119c.466-.7.988-1.42,1.468-2.127s.958-1.378,1.3-1.987c1.455-2.205,3.249-4.423,4.879-6.6-.689,1.126-1.341,2.254-2.021,3.354.447-.68.865-1.345,1.265-2s.8-1.284,1.163-1.915l.4-.558.829-1.167c-.288.354-.566.706-.84,1.057.439-.751.866-1.492,1.26-2.228,2.386-4,4.85-8.078,7.483-12.062a1.86,1.86,0,0,1,.095.319,40.8,40.8,0,0,0-3.063,5.529c.722-1.115,1.1-1.911,1.773-2.99.041.01.107.012.076.108.357-.707.794-1.526,1.266-2.312.032.287.037.6.044.923a11.018,11.018,0,0,1-.8,1.631c-1.532,2.6-3.159,5.012-4.708,7.583-1.572,2.237-3.156,4.466-4.755,6.644C1179.149,705.823,1180.353,703.761,1181.441,701.748Zm-58.732,54.337c.2-.152.4-.314.6-.479-.034,0-.066,0-.1,0A1.891,1.891,0,0,0,1122.709,756.085Zm4.585-2.66a50.97,50.97,0,0,0-4.809,3.05.225.225,0,0,0-.011.07C1123.911,755.77,1125.661,754.518,1127.294,753.425Zm5.585-1.688-.036-.006.007.034Zm23.318-19.383a29.943,29.943,0,0,1-2.368,2.391c-.884.8-1.837,1.586-2.776,2.423-.579.454-1.068,1.156-1.851,1.753-.954.816-1.5,1.385-2.272,2.024l.635-.291c-1.4.928-2.082,1.949-3.511,2.763a.858.858,0,0,1-.347.494c-.98.775-2.009,1.3-2.776,1.979-.491.372-.987.725-1.456,1.071s-.91.665-1.3,1c-.2.13-.561.615-.951.952-.483.35-.969.682-1.452,1.008l.069.023a12.2,12.2,0,0,0,1.194-.825c1.18-.934,2.55-1.981,3.736-2.872,2.971-2.147,5.7-4.423,8.368-6.769.568-.515,1.111-1.1,1.673-1.61.829-.818,1.776-1.646,2.64-2.428a14.092,14.092,0,0,0,2.081-2.268A5.739,5.739,0,0,0,1156.2,732.354Zm.509-4.312a37.633,37.633,0,0,1-2.7,2.754c-.474.437-.951.863-1.421,1.269s-.95.768-1.406,1.116c-1.415,1.195-5.566,4.752-4.582,5.041.722-1.43,3.779-3.749,6.392-5.915S1157.727,728.138,1156.706,728.042Zm12.271-14.7a21.16,21.16,0,0,1-1.729,2.384C1167.824,714.929,1168.419,714.154,1168.977,713.346Zm-4.4,9.1c1.816-2.594,3.959-5.137,5.7-7.657,1.316-1.931,3.247-3.822,4.071-5.717l-.19-.082-.077.214c-.53.642-1.033,1.122-1.511,1.637l.058-.1-.118.169a8.517,8.517,0,0,0-.906,1.173c-.124.215-.257.428-.393.643-1.718,2.353-3.6,4.7-5.066,6.958-.484.676-.907,1.333-1.334,2s-.887,1.307-1.4,1.99A14.538,14.538,0,0,0,1164.575,722.451Z" fill="#438988"/>
      <path id="Path_746" data-name="Path 746" d="M1178.764,705.294q.774-1.3,1.556-2.613c.369-.686.739-1.364,1.079-2.049,1.754-3.223,4.259-6.861,6.223-10.3a.663.663,0,0,0-.665-.116c-2.55,3.625-4.524,7.36-7.113,10.93l-.036.091c-.649,1.663-2.525,4.115-3.607,6.134-.494,1.033-1.1,2.028-1.7,3.035-.615,1-1.24,2-1.842,3.02C1174.84,710.7,1176.672,708.009,1178.764,705.294Z" fill="#438988"/>
      <path id="Path_747" data-name="Path 747" d="M1162.519,729.226c.728-.729,1.421-1.508,2.135-2.267.492-.535.943-1.074,1.387-1.6s.875-1.04,1.289-1.554c.809-1.04,1.612-2.04,2.353-3.081-.6.722-1.241,1.424-1.874,2.133s-1.289,1.409-1.957,2.1c-.321.36-.618.719-.9,1.078s-.564.705-.831,1.06C1163.58,727.8,1163.085,728.531,1162.519,729.226Z" fill="#438988"/>
      <path id="Path_748" data-name="Path 748" d="M1170.887,719.045l-1.2,1.679,1.341-1.6c.437-.534.862-1.073,1.291-1.609.865-1.068,1.666-2.156,2.488-3.232,2.534-3.615,4.884-7.231,6.975-10.861q.36-.618.731-1.219c-2.289,3.265-4.671,6.5-6.984,9.615s-4.553,6.132-6.594,9.038c-.072.107-.154.228-.236.339,2.224-2.557,4.272-5.164,6.207-7.781-.639.939-1.318,1.867-1.974,2.81Z" fill="#438988"/>
      <path id="Path_749" data-name="Path 749" d="M1178.264,706.134l.407-.557.389-.668-.3.385Z" fill="#438988"/>
      <path id="Path_750" data-name="Path 750" d="M1172.565,710.846l-.06.066c-.422.6-.846,1.212-1.3,1.816-.556.868-1.14,1.789-1.807,2.685A37.7,37.7,0,0,0,1172.565,710.846Z" fill="#438988"/>
      <path id="Path_751" data-name="Path 751" d="M1167.136,715.011l-.582.691c-.053.129-.11.253-.168.379.144-.155.284-.318.426-.479Z" fill="#438988"/>
      <path id="Path_752" data-name="Path 752" d="M1158.75,725.479a106.6,106.6,0,0,0,7.4-8.9l.233-.494c-.843.923-1.64,1.877-2.422,2.8-.388.466-.756.945-1.121,1.414s-.717.938-1.049,1.417c-.133.187-.283.439-.44.686a4.3,4.3,0,0,1-.49.637c-.742.781-1.437,1.58-2.152,2.35s-1.385,1.583-2.115,2.338c.717-.692,1.392-1.441,2.094-2.185Z" fill="#438988"/>
    </g>
  </g>
</svg>
