<svg xmlns="http://www.w3.org/2000/svg" width="70.515" height="103.938" viewBox="0 0 70.515 103.938">
  <g id="Group_40" data-name="Group 40" transform="translate(-1090.052 -2201.186)">
    <g id="Group_38" data-name="Group 38">
      <path id="Path_4662" data-name="Path 4662" d="M1100.39,2266.026l.043-.394-.079-.026C1100.367,2265.759,1100.379,2265.9,1100.39,2266.026Z" fill="#438988"/>
      <path id="Path_4663" data-name="Path 4663" d="M1101.3,2266.808l.013-.125a.221.221,0,0,1-.067,0C1101.269,2266.722,1101.287,2266.762,1101.3,2266.808Z" fill="#438988"/>
      <path id="Path_4664" data-name="Path 4664" d="M1100.351,2265.6c-.295-.089-.6-.046-.873-.365.023-.216.069-.648.093-.866-.136-.28-.319-.128-.478-.193.023-.216.046-.431-.034-.463-.194-.227-.357-.046-.451.349C1099.4,2265.351,1099.457,2267.872,1100.351,2265.6Z" fill="#438988"/>
      <path id="Path_4665" data-name="Path 4665" d="M1100.793,2267.608l.132-1.147c-.169-.195-.334-.433-.529-.392A4.465,4.465,0,0,0,1100.793,2267.608Z" fill="#438988"/>
      <path id="Path_4666" data-name="Path 4666" d="M1143.163,2294.773c-.011-.064,0-.1.174-.013l-.174.013c.008.059.033.145-.04.187a13.7,13.7,0,0,1,1.975-.36c.072-.115.14-.23.2-.345a13.859,13.859,0,0,0-4.732.865C1141.56,2295.066,1142.209,2294.839,1143.163,2294.773Z" fill="#438988"/>
      <path id="Path_4667" data-name="Path 4667" d="M1145.326,2293.624l.174-.013C1145.327,2293.526,1145.317,2293.56,1145.326,2293.624Z" fill="#438988"/>
      <path id="Path_4668" data-name="Path 4668" d="M1115.374,2298.538a9.975,9.975,0,0,0-2.705,1.164c1.894-.552,3.875-.95,5.292-1.521C1117.1,2298.311,1116.244,2298.432,1115.374,2298.538Z" fill="#438988"/>
      <path id="Path_4669" data-name="Path 4669" d="M1108.4,2301.7a6.681,6.681,0,0,0,3.255-.889l-3,.693C1108.565,2301.573,1108.476,2301.635,1108.4,2301.7Z" fill="#438988"/>
      <path id="Path_4670" data-name="Path 4670" d="M1109.673,2300.852a8.224,8.224,0,0,0,3-1.15A16.773,16.773,0,0,0,1109.673,2300.852Z" fill="#438988"/>
      <path id="Path_4671" data-name="Path 4671" d="M1131.275,2288.771a6.678,6.678,0,0,1,1.462-.583c.094-.153.221-.342.4-.58l-.142.01q-1.179.365-2.4.705a4.866,4.866,0,0,0-.861.518C1130.251,2288.828,1130.768,2288.809,1131.275,2288.771Z" fill="#438988"/>
      <path id="Path_4672" data-name="Path 4672" d="M1132.737,2288.188c-.8,1.312,1.044-.208,0,0Z" fill="#438988"/>
      <path id="Path_4673" data-name="Path 4673" d="M1128.872,2295.1l-.12.012-.335.1Z" fill="#438988"/>
      <path id="Path_4674" data-name="Path 4674" d="M1118.569,2293.156c.68-.118,1.354-.273,2.013-.445a21.52,21.52,0,0,0-3.864.978c.173-.021.37.061.544.04A2.627,2.627,0,0,1,1118.569,2293.156Z" fill="#438988"/>
      <path id="Path_4675" data-name="Path 4675" d="M1134.141,2293.7c-1.855.4-3.658.882-5.389,1.416a36.614,36.614,0,0,0-10.1,2.183c-2.6,1.142-7.475,1.565-9.848,3.617a5.938,5.938,0,0,0,.865-.06,7.407,7.407,0,0,0-1.024.656l-1.351.3-.337.075-.55.11-1.213.241-4.943.964-5.079.991-2.568.484-1.292.239-.647.119a4.05,4.05,0,0,1-.617.088c.5-1.887,1.009-3.833,1.525-5.794.411-1.541.408-2.547.838-4.163s.786-3.182,1.176-4.767c-.018-.006-.043.014-.073.059.351-1.641.715-3.282,1.044-4.951l.118-.625.054-.322.106-.644q.1-.648.2-1.3c.26-1.736.471-3.512.652-5.346.2-1.7.557-3.332.8-5.014.092-.63.411-.482.549-.868a21.892,21.892,0,0,0,1.505-4.509l.239.1a3.682,3.682,0,0,1,.092-.781c.786,1.3.819,3.82,1.734,1.562h0c.012.151.023.288.033.42l-.005.042h.009a4.493,4.493,0,0,0,.386,1.545l.142-1.146a.534.534,0,0,0,.325.223c.017.043.035.083.051.129l-.038.313a1.088,1.088,0,0,0,.168.2c.216,1.151.186,2.816.552,2.659.2-.157.151-.961.156-1.842a.727.727,0,0,0,.1-.133c-.061,1.134.556.242.551.938-.109.884-.154,1.8-.274,2.677-.5,3.577-.924,6.591-1.339,10.16-.019.157-.038.312-.058.468-.108.862-.248,1.681-.4,2.491-.077.4-.164.8-.253,1.2l-.112.466-.111.419a2.982,2.982,0,0,1-.106-.292,16.824,16.824,0,0,0-.588,2.852c-.116,1.455-.181,2.612-.326,3.7-.048.11.074.044.15.024l.243-.074.473-.138c.309-.088.606-.166.9-.233.891-.19,1.763-.412,2.576-.648.406-.119.8-.243,1.165-.372l2.086-.548c-.578.2-1.155.4-1.741.579l-.22.066-.055.016a.1.1,0,0,1-.023.012l-.06.024-.246.095c-.167.06-.34.114-.517.16a9.014,9.014,0,0,0-.943.151,4.673,4.673,0,0,0,.943-.151l.941-.116c.532-.075,1.055-.163,1.557-.28a6.348,6.348,0,0,0,2.633-1.177c.2.061.221.164.394.14a9.655,9.655,0,0,0,3.413-.771c-.023-.1.5-.171.282-.355,1.024-.238,2.247-.381,3.251-.716a3.959,3.959,0,0,0,1.254-.663c3.642-.982,7.26-1.914,11.243-2.781,1-.179,2.165-.283,3.194-.358-1.448.462-2.951.868-4.478,1.267a8.832,8.832,0,0,0-4.108.845c-.26.126-.52.246-.783.36,1.649-.394,3.285-.794,4.891-1.205.911-.039,1.852-.04,2.762-.109l-.051.026-2.082.553a9.982,9.982,0,0,0-3.727.645,3.876,3.876,0,0,0-.379.2c-.26.126-.521.245-.783.359l3.03-.734,1.859-.466,1.221-.035c-.037.029-.078.059-.111.09-.336.129-1.084,1.432-.5,1.7,1.35-.122,2.951-.391,4.221-.594l1.579-.257a2.23,2.23,0,0,1,.634-.063c.249.4-4.293,1.28-4.1,1.38.268.026.536.044.8.057-.23.1-.455.21-.658.326-.507.145-1.229.1-1.541.334-1.107.723-2.549.641-3.866,1.183-.814.4-1.778.907-2.74,1.429.042.206-.5.158-.286.346-.982.1-2.12.221-2.415.872l-.068.024a.713.713,0,0,0-.255.112c-1.653.078-2.671.779-4.059,1.359-.495.115-1,.209-1.534.278a4.949,4.949,0,0,0,1.212-.15l.322-.128c1.284-.3,2.479-.719,3.686-1.083a3.941,3.941,0,0,1,.373-.276l.277-.008a.854.854,0,0,1,.046-.128c1.139-.425,2.476-.675,3.44-1.083a26.9,26.9,0,0,1,5.955-.671c-.951.258-1.884.533-2.8.816,1.158-.28,2.247-.566,3.3-.845l.5-.035,1.051-.085c-.336-.019-.666-.028-.995-.032q.946-.258,1.863-.536a50.581,50.581,0,0,1,10.626-1.24,3.23,3.23,0,0,1-.175.387,13.892,13.892,0,0,0-4.741.881c.992-.063,1.646-.279,2.6-.355.01.059.034.144-.039.187a12.8,12.8,0,0,1,1.98-.367c-.176.279-.38.556-.583.834a4.728,4.728,0,0,1-1.352.387c-2.248.3-4.4.386-6.592.8-2,.1-3.993.224-5.937.415C1130.749,2294.635,1132.475,2294.2,1134.141,2293.7Zm-34.454-21.467.019.729c.023-.027.046-.052.07-.076A1.44,1.44,0,0,0,1099.687,2272.229Zm-.838,4.968a31.752,31.752,0,0,0,.63-5.349.265.265,0,0,0-.059-.045C1099.133,2273.345,1099.033,2275.359,1098.849,2277.2Zm-2.662,4.917.032-.021-.037-.016ZM1106.2,2298.5a14.282,14.282,0,0,1-2.88.943c-1.092.26-2.26.513-3.48.824-.688.115-1.658.7-2.653.875-1.3.328-2.242.7-3.377,1.006l.563.118a7.867,7.867,0,0,0-1.021.187l-.512.137-.257.075c-.087.027-.119,0-.183,0a14.547,14.547,0,0,1,.705-3.254c-.115.1-.256-.053-.165-.4.169-.808.424-1.683.649-2.5a16.793,16.793,0,0,0,.506-2.228c.339-1.687.787-3.4.932-4.811.08-.346-.014-1.089.074-1.849l.261-1.351c.082-.433.187-1,.212-1.166l-.076.027c-.064.32-.13.642-.195.965-.074.375-.139.754-.2,1.133-.177,1.13-.352,2.316-.557,3.477s-.433,2.3-.656,3.337c-.766,3.354-1.382,6.391-1.872,9.018a1.234,1.234,0,0,0,.517-.087l.579-.154,1.138-.309,2.2-.608c.864-.256,1.773-.622,2.576-.865,1.237-.419,2.477-.717,3.61-1.013a8.4,8.4,0,0,0,2.758-1.087C1105.6,2298.8,1106.072,2298.729,1106.2,2298.5Zm.913-4.748c-.432.176-.88.339-1.335.488l-.654.205c-.143.055-.29.106-.439.154a8.26,8.26,0,0,1-1.781.359,10.557,10.557,0,0,0-2.386.871,12.064,12.064,0,0,0-1.508.853,2.9,2.9,0,0,0-1.014,1.007,12.179,12.179,0,0,1,5.862-2.161c.472-.08.927-.158,1.329-.247l.69-.158a6.325,6.325,0,0,0,.623-.19C1107.232,2294.658,1107.546,2294.3,1107.111,2293.751Zm14.138-3.713a10.131,10.131,0,0,1-2.214.555Zm-6.548,5.06a45.772,45.772,0,0,1,6.7-2.043c1.682-.5,3.709-.167,5.14-1.042l-.061-.31-.154.12c-.627,0-1.155-.119-1.688-.156l.085-.035-.152.031a3.083,3.083,0,0,0-1.11.121l-.543.2a25.387,25.387,0,0,0-6.2,1.7c-1.152.458-2.085,1.095-3.231,1.566A4.816,4.816,0,0,0,1114.7,2295.1Z" fill="#438988"/>
      <path id="Path_4676" data-name="Path 4676" d="M1130.864,2293.705c.732-.187,1.472-.37,2.221-.536.57-.171,1.134-.35,1.7-.542,2.715-.758,6.05-.774,9.049-1.163a1.571,1.571,0,0,0-.17-.936c-3.369-.182-6.571.572-9.892.644l-.071.039c-1.291.721-3.612.7-5.262,1.371-1.631.77-3.336,1.149-4.974,1.84C1125.981,2294.167,1128.336,2293.721,1130.864,2293.705Z" fill="#438988"/>
      <path id="Path_4677" data-name="Path 4677" d="M1111.652,2300.815l1.991-.462c1.846-.5,3.47-1.008,5.123-1.588q-1.889.309-3.814.555A12.861,12.861,0,0,0,1111.652,2300.815Z" fill="#438988"/>
      <path id="Path_4678" data-name="Path 4678" d="M1120.107,2298.294l-1.341.471c1.868-.3,3.715-.626,5.56-.952,2.995-.73,6.013-1.373,9.009-2.158.342-.083.683-.153,1.024-.217-5.793.3-11.556.762-16.132,2.633l-.266.11c2.292-.343,4.548-.743,6.8-1.135C1123.2,2297.431,1121.645,2297.826,1120.107,2298.294Z" fill="#438988"/>
      <path id="Path_4679" data-name="Path 4679" d="M1130.156,2293.886l.506-.029.56-.152h-.358Z" fill="#438988"/>
      <path id="Path_4680" data-name="Path 4680" d="M1124.639,2291.667l-.067,0-1.653.324c-.744.27-1.528.515-2.337.724A19.554,19.554,0,0,0,1124.639,2291.667Z" fill="#438988"/>
      <path id="Path_4681" data-name="Path 4681" d="M1119.278,2289.693l-.7.08-.28.222.5-.036Z" fill="#438988"/>
      <path id="Path_4682" data-name="Path 4682" d="M1109.332,2292.643l8.594-2.365.371-.283a15.35,15.35,0,0,0-5.489,1.317,5.227,5.227,0,0,1-1.13.571,32.383,32.383,0,0,0-4.615,1.381l2.207-.6Z" fill="#438988"/>
    </g>
    <g id="Group_39" data-name="Group 39">
      <path id="Path_4683" data-name="Path 4683" d="M1098.941,2298.824l-.337.34.039.07C1098.753,2299.087,1098.85,2298.953,1098.941,2298.824Z" fill="#438988"/>
      <path id="Path_4684" data-name="Path 4684" d="M1098.86,2297.563l-.106.107a.177.177,0,0,1,.048.042C1098.82,2297.664,1098.837,2297.615,1098.86,2297.563Z" fill="#438988"/>
      <path id="Path_4685" data-name="Path 4685" d="M1098.645,2299.237c.151.257.416.4.371.855-.186.187-.557.561-.745.749-.117.342.138.309.207.464-.186.187-.372.374-.337.451-.032.325.23.256.611-.058C1099.165,2300.028,1101.073,2297.659,1098.645,2299.237Z" fill="#438988"/>
      <path id="Path_4686" data-name="Path 4686" d="M1099.858,2297.118l-.982.988c-.024.281-.083.6.094.675A6.253,6.253,0,0,0,1099.858,2297.118Z" fill="#438988"/>
      <path id="Path_4687" data-name="Path 4687" d="M1159.76,2204.592c-.055.006-.076-.012.077-.246l-.077.246c.05,0,.129-.028.125.079.182-.85.4-1.84.682-2.813a3.2,3.2,0,0,0-.172-.319,41.392,41.392,0,0,0-1.68,6.752C1159.189,2206.882,1159.337,2205.939,1159.76,2204.592Z" fill="#438988"/>
      <path id="Path_4688" data-name="Path 4688" d="M1159.916,2201.43c.025-.083.048-.161.074-.244C1159.839,2201.418,1159.861,2201.437,1159.916,2201.43Z" fill="#438988"/>
      <path id="Path_4689" data-name="Path 4689" d="M1143.873,2245.143c-.4.77-.732,1.513-1.032,2.249s-.6,1.455-.9,2.187a87.338,87.338,0,0,0,3.971-8.234C1145.245,2242.607,1144.6,2243.883,1143.873,2245.143Z" fill="#438988"/>
      <path id="Path_4690" data-name="Path 4690" d="M1138.491,2256.752a22.772,22.772,0,0,0,2.953-5.043c-.912,1.531-1.8,3.087-2.762,4.563C1138.619,2256.43,1138.548,2256.595,1138.491,2256.752Z" fill="#438988"/>
      <path id="Path_4691" data-name="Path 4691" d="M1139.492,2254.434a25.046,25.046,0,0,0,1.407-2.483c.2-.4.387-.795.561-1.19s.324-.789.485-1.182l-.644,1.253q-.332.615-.646,1.223C1140.236,2252.865,1139.844,2253.662,1139.492,2254.434Z" fill="#438988"/>
      <path id="Path_4692" data-name="Path 4692" d="M1148.974,2219.857a16.521,16.521,0,0,1,.384-2.062c-.06-.156-.129-.363-.208-.642l-.07.189c-.251,1.083-.509,2.193-.818,3.308a9.148,9.148,0,0,0-.121,1.258C1148.427,2221.224,1148.71,2220.537,1148.974,2219.857Z" fill="#438988"/>
      <path id="Path_4693" data-name="Path 4693" d="M1149.358,2217.795c.52,1.337.422-1.429,0,0Z" fill="#438988"/>
      <path id="Path_4694" data-name="Path 4694" d="M1151.992,2224.766l-.068.171c-.047.166-.1.336-.143.5C1151.853,2225.209,1151.921,2224.991,1151.992,2224.766Z" fill="#438988"/>
      <path id="Path_4695" data-name="Path 4695" d="M1143.564,2238.084c.459-.939.842-1.9,1.223-2.838-.832,1.927-1.732,3.855-2.347,5.507.126-.235.333-.449.452-.687A7.47,7.47,0,0,1,1143.564,2238.084Z" fill="#438988"/>
      <path id="Path_4696" data-name="Path 4696" d="M1154.173,2217.044c-.764,2.682-1.517,5.324-2.249,7.893-2.085,5.239-4.2,10.273-5.932,14.992a70.253,70.253,0,0,1-3.56,7.721,76.236,76.236,0,0,0-3.8,7.975c.311-.4.608-.79.86-1.191-.293.644-.577,1.246-.81,1.838-.53.831-1.058,1.666-1.6,2.489q-.83,1.214-1.655,2.425c-.277.4-.552.81-.834,1.207l-.855,1.179c-.572.784-1.144,1.572-1.725,2.351-2.343,3.067-4.76,6.086-7.3,8.963-.748.87-1.187,1.7-1.944,2.546-.76.861-1.5,1.728-2.25,2.551.006.019.025.025.054.017l-9.228,10.446c-1.489,1.642-3.04,3.088-4.552,4.616-.565.569-.7.259-1.113.561A40.173,40.173,0,0,0,1101,2299.1l-.1-.232a5.9,5.9,0,0,1-.676.679c.414-1.674,2.336-4.048-.1-2.467v0c.11-.146.207-.28.3-.41l.036-.036-.006-.007a6.3,6.3,0,0,0,.892-1.665l-.985.989a.493.493,0,0,0-.075-.4c.02-.049.037-.1.06-.149l.268-.269a1.28,1.28,0,0,0,.028-.287c.713-1.2,1.992-2.731,1.59-2.791-.272.036-.838.81-1.508,1.626a.818.818,0,0,0-.177.066c.9-1.018-.238-.543.29-1.185.75-.752,1.463-1.582,2.211-2.334,3.044-3.062,5.571-5.725,8.4-9.006l.375-.428c1.383-1.571,2.7-3,4.11-4.417-.061.144-.127.29-.2.436a41.64,41.64,0,0,0,3.273-3.647c2.524-3.239,4.934-6.531,7.551-9.889a100.42,100.42,0,0,0,7.507-10.92c-.447.8-.9,1.606-1.37,2.409-.485.794-1,1.58-1.532,2.364l-.75,1.022c-.255.333-.506.666-.75,1q.4-.494.781-1t.719-1.025l1.455-1.971c.47-.663.911-1.336,1.328-2a15.527,15.527,0,0,0,1.864-3.861c.2-.192.263-.154.4-.373.506-.763.978-1.544,1.42-2.3.219-.38.425-.758.61-1.131a10.477,10.477,0,0,0,.452-1.119c-.07-.03.316-.7.046-.539.711-1.363,1.553-2.961,2.133-4.361a9.336,9.336,0,0,0,.536-1.871c.529-1.238,1-2.493,1.49-3.731.457-1.255.946-2.494,1.377-3.764.909-2.522,1.734-5.108,2.586-7.792.434-1.34,1.03-2.882,1.525-4.249q-.335,1.5-.752,3.037c-.269,1.028-.569,2.066-.889,3.113-.431,1.017-.863,2-1.21,2.936a16.114,16.114,0,0,0-.762,2.634c-.085.377-.174.753-.269,1.131.815-2.261,1.584-4.5,2.241-6.7.524-1.2,1.062-2.43,1.528-3.643l-.011.072c-.257.948-.515,1.911-.813,2.874a31.619,31.619,0,0,0-1.846,5.053c-.044.188-.085.375-.115.555q-.128.565-.272,1.135c.25-.7.5-1.4.743-2.1s.462-1.391.692-2.083c.289-.854.537-1.717.8-2.564.231-.533.469-1.073.692-1.616,0,.057,0,.118,0,.17-.088.47.361,1.8.9,1.094.72-1.841,1.455-4.059,2-5.812s.917-3.047.965-3.049c.214-.135-.117,1.378-.51,2.9s-.833,3.049-.75,2.927c.177-.357.345-.716.5-1.074-.054.337-.107.667-.145.97a17.162,17.162,0,0,0-.668,2.177c-.16,1.7-1.11,3.641-1.607,5.6-.262,1.234-.587,2.724-.925,4.239.161.02-.261.749.013.524-.321.694-.667,1.443-.91,2.1a3.162,3.162,0,0,0-.329,1.574l-.037.1a2.135,2.135,0,0,0-.128.4,25.523,25.523,0,0,0-1.383,3.147c-.35,1-.691,1.976-1.12,3.081-.178.369-.359.742-.552,1.116s-.406.746-.622,1.123a13.85,13.85,0,0,0,.972-1.729c.068-.172.136-.342.2-.51.937-1.913,1.655-3.767,2.382-5.591.026-.156.067-.407.121-.637l.206-.385a.676.676,0,0,1-.041-.12c.306-.875.669-1.795.989-2.685s.649-1.741.84-2.481c.949-2.758,2.285-5.654,3.446-8.451-.422,1.39-.8,2.767-1.219,4.126.29-.85.552-1.674.8-2.478s.5-1.588.706-2.359c.094-.239.185-.473.277-.709l.57-1.482c-.215.462-.419.92-.619,1.374.257-.918.5-1.822.713-2.71,1.426-4.91,2.915-9.931,4.632-14.916a1.8,1.8,0,0,1,.218.288,41.041,41.041,0,0,0-1.7,6.7c.463-1.389.634-2.332,1.053-3.667.051,0,.128-.027.124.081.177-.844.409-1.831.692-2.8.134.278.246.6.362.915a10.9,10.9,0,0,1-.374,1.938c-.9,3.187-1.982,6.216-2.917,9.379-1.072,2.833-2.161,5.663-3.286,8.447C1152.882,2222,1153.586,2219.474,1154.173,2217.044Zm-49.923,76.347c.179-.226.361-.464.542-.705-.039.013-.076.026-.113.035A2.185,2.185,0,0,0,1104.25,2293.391Zm4.43-4.363a62.633,62.633,0,0,0-4.558,4.838.193.193,0,0,0,.011.075C1105.54,2292.633,1107.152,2290.729,1108.68,2289.028Zm5.918-3.748-.044.008.02.031Zm20.558-28.1a33.92,33.92,0,0,1-1.946,3.28c-.76,1.127-1.6,2.274-2.409,3.462-.52.671-.851,1.558-1.56,2.448-.833,1.173-1.278,1.947-1.958,2.874l.64-.526c-1.317,1.45-1.761,2.729-3.148,4.074a.893.893,0,0,1-.236.626c-.878,1.141-1.895,2.049-2.558,3.014-.445.555-.9,1.092-1.33,1.613s-.833,1-1.17,1.484c-.188.2-.444.827-.784,1.309-.443.531-.9,1.044-1.347,1.549h.088a14.939,14.939,0,0,0,1.109-1.27c1.056-1.375,2.294-2.934,3.372-4.267,2.728-3.254,5.133-6.551,7.44-9.9.487-.728.921-1.515,1.4-2.237.687-1.129,1.509-2.312,2.249-3.418a15.629,15.629,0,0,0,1.654-3.051A6.268,6.268,0,0,0,1135.156,2257.18Zm-.861-4.54a42.05,42.05,0,0,1-2.209,3.769c-.4.615-.814,1.219-1.224,1.8s-.845,1.123-1.257,1.642c-1.241,1.724-4.865,6.833-3.625,6.765.357-1.708,3.127-5.167,5.433-8.311S1135.514,2252.364,1134.3,2252.64Zm9.306-19.327a22.528,22.528,0,0,1-1.2,3.04C1142.8,2235.334,1143.225,2234.333,1143.6,2233.313Zm-2.048,10.8c1.236-3.283,2.869-6.634,4.039-9.814.879-2.431,2.485-5.047,2.8-7.262l-.249-.013-.018.244c-.4.843-.821,1.511-1.2,2.205l.032-.124-.08.213a9.086,9.086,0,0,0-.657,1.516c-.072.262-.155.527-.24.793-1.2,3-2.6,6.059-3.542,8.879-.335.859-.6,1.677-.878,2.5-.291.819-.59,1.645-.96,2.523A16.065,16.065,0,0,0,1141.553,2244.116Z" fill="#438988"/>
      <path id="Path_4697" data-name="Path 4697" d="M1152.258,2221.6l.927-3.207c.2-.828.4-1.647.563-2.463.953-3.9,2.638-8.486,3.763-12.673a.9.9,0,0,0-.81.127c-1.743,4.592-2.778,9.086-4.584,13.638l-.011.1c-.194,1.917-1.548,5.079-2.125,7.513-.226,1.224-.6,2.45-.948,3.685-.377,1.232-.767,2.471-1.122,3.723C1149.519,2228.5,1150.741,2225.11,1152.258,2221.6Z" fill="#438988"/>
      <path id="Path_4698" data-name="Path 4698" d="M1141.444,2251.709c.6-1,1.143-2.042,1.716-3.069.392-.721.735-1.431,1.073-2.123s.667-1.37.975-2.041c.589-1.346,1.185-2.65,1.695-3.972-.453.948-.962,1.892-1.458,2.84s-1.023,1.893-1.566,2.838c-.252.481-.476.952-.683,1.417s-.417.919-.608,1.374C1142.2,2249.88,1141.868,2250.8,1141.444,2251.709Z" fill="#438988"/>
      <path id="Path_4699" data-name="Path 4699" d="M1147.737,2238.369l-.834,2.135q.51-1.053,1.02-2.1c.328-.7.641-1.4.958-2.1.646-1.4,1.209-2.787,1.8-4.173,1.726-4.577,3.24-9.088,4.446-13.519q.21-.754.439-1.5c-1.56,4.134-3.239,8.268-4.876,12.263s-3.224,7.857-4.616,11.537c-.048.136-.1.287-.16.429,1.722-3.4,3.224-6.776,4.59-10.126-.427,1.181-.9,2.367-1.348,3.559Q1148.449,2236.572,1147.737,2238.369Z" fill="#438988"/>
      <path id="Path_4700" data-name="Path 4700" d="M1151.96,2222.634c.1-.239.19-.475.284-.711.077-.275.153-.546.228-.817-.072.167-.144.333-.214.5Q1152.108,2222.122,1151.96,2222.634Z" fill="#438988"/>
      <path id="Path_4701" data-name="Path 4701" d="M1146.927,2229.476l-.048.089c-.289.757-.574,1.534-.9,2.309-.355,1.08-.722,2.223-1.2,3.372A39.628,39.628,0,0,0,1146.927,2229.476Z" fill="#438988"/>
      <path id="Path_4702" data-name="Path 4702" d="M1142.023,2235.667c-.11.228-.331.682-.443.911-.019.15-.042.3-.067.445.114-.21.222-.425.333-.639Z" fill="#438988"/>
      <path id="Path_4703" data-name="Path 4703" d="M1135.807,2249.3a115.592,115.592,0,0,0,5.6-11.7l.1-.584c-.669,1.24-1.274,2.5-1.871,3.715-.294.612-.56,1.231-.826,1.837s-.517,1.21-.741,1.815c-.092.237-.181.547-.28.853a4.642,4.642,0,0,1-.355.823c-.6,1.06-1.137,2.121-1.708,3.159s-1.076,2.106-1.67,3.135c.6-.961,1.132-1.965,1.7-2.972Z" fill="#438988"/>
    </g>
  </g>
</svg>
