<svg xmlns="http://www.w3.org/2000/svg" width="214.333" height="305.322" viewBox="0 0 214.333 305.322">
  <g id="Group_43" data-name="Group 43" transform="translate(-812.032 -3250.009)">
    <g id="Group_40" data-name="Group 40">
      <path id="Path_5520" data-name="Path 5520" d="M975.365,3259.524l.777.306a10.865,10.865,0,0,0-1.791-1.145c.987.438,2,.92,3.018,1.435l.767.393.7.479,1.411,1c.937.679,1.885,1.371,2.8,2.1.834.814,1.656,1.642,2.458,2.472a32.084,32.084,0,0,1,4.164,5.259l.882,1.3c.283.43.488.911.722,1.35.451.9.867,1.752,1.243,2.56.364.515.7,1.03.993,1.519a9.083,9.083,0,0,1,.642,1.445,3.051,3.051,0,0,1,.321,1.789c-.137.236-.515,0-1.013-.563s-1.077-1.5-1.844-2.49c-.357-.423-.751-.934-1.038-1.217q-.973-.947-1.984-2.03c-.688-.708-1.507-1.354-2.273-2.091l-2.378-2.274-2.724-2.184,2.308,1.639c-1.077-.869-2.136-1.72-3.232-2.773l.566.187c-.916-.757-2.042-1.438-3.126-2.2-.542-.384-1.079-.782-1.606-1.189a15.931,15.931,0,0,0-1.594-1.179c-2.232-1.39-4.034-3.026-5.373-3.973-1.262-1.056-1.451-1.706-.706-1.878a4.856,4.856,0,0,1,1.8.1q.62.117,1.4.328a7.868,7.868,0,0,1,1.638.612Z" fill="#fff"/>
      <path id="Path_5521" data-name="Path 5521" d="M984.719,3263c-1.228-.876-2.554-1.6-3.795-2.385l-1.879-1.138-2.028-.941-.593-.178.64-.433.018.064c.482.465,1.071.968,1.736,1.495l2,1.867c.712.649,1.467,1.312,2.238,1.973s1.412,1.468,2.12,2.174l.954,1.061a2.453,2.453,0,0,1,.637,1.144c-.021.459-1.166-.181-2.54-1.423l-1.58-1.437c-1.059-.778-2.338-1.588-3.577-2.518-.642-.441-1.221-.973-1.91-1.378s-1.354-.83-2-1.251c-2.5-1.8-5.015-3.106-6.007-4.244-.449-.508.3-.531.635-.722.084-.449,2.236.081,4.737,1.262,2.336,1.394,4.091,2.862,3.921,3.306a7.592,7.592,0,0,1,1.191.7,6.728,6.728,0,0,0-.751-.748,27.692,27.692,0,0,0,3.446,3.527l1.025.858.92.964c-.64-.085-1.244-.2-1.9-.253l-.995-.946c.118.031.33.106.319.092l-2.794-2.71a10.988,10.988,0,0,0-1.553-1.262l-1.722-1.234a24.321,24.321,0,0,0-2.994-2.14c-.8-.595-.522-.8.629-.465a10.512,10.512,0,0,1,1.642.6l-.735-.283,5.23,2.8,4.827,3.26a3.334,3.334,0,0,1,1.137,1.151C985.47,3263.477,985.192,3263.389,984.719,3263Z" fill="#fff"/>
      <g id="Group_39" data-name="Group 39">
        <path id="Path_5522" data-name="Path 5522" d="M973.663,3255.325a13.619,13.619,0,0,1-2.053-.792l-.3-.232,1.245.38C973.457,3254.954,973.811,3255.229,973.663,3255.325Z" fill="#fff"/>
        <path id="Path_5523" data-name="Path 5523" d="M971.314,3254.3l-.519-.158.378.066.087.05Z" fill="#fff"/>
        <path id="Path_5524" data-name="Path 5524" d="M972.438,3425.674a264.757,264.757,0,0,1-34.206,38.467,4,4,0,0,1-.88.692c-.051-.008.255-.344.658-.709a265.046,265.046,0,0,0,34.134-38.345,4.681,4.681,0,0,1,.713-.861C972.921,3424.914,972.734,3425.248,972.438,3425.674Z" fill="#fff"/>
        <path id="Path_5525" data-name="Path 5525" d="M876.492,3514.987c.379-.189.385-.135.019.128a11.156,11.156,0,0,1-1.265.771c-.318.158-.33.1-.017-.129A11.107,11.107,0,0,1,876.492,3514.987Z" fill="#fff"/>
        <path id="Path_5526" data-name="Path 5526" d="M974.9,3254.214c.158.052.309.112.467.177A.452.452,0,0,0,974.9,3254.214Zm.294.716.36.534s-.028-.186-.068-.435C975.389,3255,975.307,3254.963,975.192,3254.93Zm25.7,116.732q-.87,2.829-1.851,5.653c-.905,2.923-1.891,5.854-2.984,8.786-1.078,2.929-2.279,5.874-3.564,8.81A134.627,134.627,0,0,0,1000.892,3371.662Zm-.384-92.333c.2.272.4.565.638.882l.141.134a12.174,12.174,0,0,1,.966.9c-.016-.026-.044-.062-.083-.119a4.893,4.893,0,0,0-.344-.4c-.3-.325-.709-.745-1.109-1.172C1000.636,3279.467,1000.573,3279.392,1000.508,3279.329Zm-31.36-26.656c.547.512.547.512.525.577a2.814,2.814,0,0,0,.314.28c.751.434,1.06.6,1.182.68,2.081.365,2.095.362,2.095.362l.254.33c.36-.014.492-.009.539-.014-.219.052-.294.064-.329.078.2.072.369.116.488.166l-.679-.175c.533.228.936.384,1.241.534.284.161.493.279.659.378.338.2.528.319.907.553.821.46,1.462.92,1.542.967a.4.4,0,0,0-.16.056c1.055.584,1.586.879,2.1,1.164l1.9,1.338c.207.089.378.15.535.215a3.775,3.775,0,0,0,.829.74l.986.709c.064.062.123.12.181.179l-.015.015a7.7,7.7,0,0,1,.706.715c.124.163.13.168.13.168l.006,0c.452.535,1.091,1.309,2.784,3.363a15.4,15.4,0,0,1,1.464,1.345c-.149-.126-.306-.245-.448-.367-.315-.226-.241.159-.4.035-.982-.788-1.974-1.6-2.963-2.431-.486-.425-.981-.842-1.481-1.264s-1.084-.769-1.623-1.152c-.831-.577-1.666-1.171-2.509-1.758l-.012-.009a1.619,1.619,0,0,0-.189-.129l-.03-.023c-.18-.138-.362-.262-.551-.392-1.151-.711-2.387-1.337-3.571-2a8.507,8.507,0,0,0-1.412-.746,1.044,1.044,0,0,0-.49-.1c-.215.069.271.548,1.095,1.079.926.7,1.873,1.41,2.874,2.1l.024.019c.144.11.289.219.441.321,1.034.938,2.108,1.878,3.217,2.8.129.126.274.236.411.353l.012.01c.251.2.5.4.739.617a4.384,4.384,0,0,1,.468.465c.514.514,1.027,1.041,1.54,1.568.224.211.446.435.668.658l.006.005.907.9c.264.256.542.508.791.779l.713.858q1.371,1.638,2.795,3.234l.024.018.1.12c.918,1.163,1.745,2.408,2.643,3.569.446.585.877,1.174,1.316,1.754.387.623.768,1.241,1.157,1.851.777,1.221,1.546,2.407,2.3,3.58l1.9,4.034c.32.681.662,1.338.947,2.034l.791,2.148-.237-.358c.3.721.594,1.45.9,2.171l.086.244c-.295-.512-.6-1.017-.9-1.521-.163-.37-.331-.744-.492-1.127a37.674,37.674,0,0,0-2.076-4.671,31.063,31.063,0,0,0-2.367-4.29c-.873-1.348-1.7-2.719-2.607-4.035q-.866-1.11-1.743-2.229l-.012-.009c-.408-.516-.808-1.039-1.216-1.555-.28-.336-.517-.694-.814-1s-.583-.594-.876-.885c-.579-.577-1.153-1.137-1.72-1.7-.576-.548-1.116-1.122-1.715-1.646-.63-.493-1.259-1-1.9-1.513-.628-.56-1.143-.87-1.194-.689-.036.164.438.784,1.04,1.338.48.475.966.954,1.444,1.441.463.5.878,1.064,1.324,1.595q1.326,1.6,2.682,3.23c.8,1.173,1.616,2.337,2.421,3.5.392.585.85,1.125,1.2,1.745.252.439.513.869.758,1.316.006,0,0,.017.01.021.1.162.2.331.291.5.705,1.22,1.479,2.369,2.126,3.573.616,1.234,1.23,2.44,1.844,3.591.313.58.614,1.152.923,1.715.26.581.52,1.161.775,1.725q.765,1.71,1.536,3.221c.164.507.358.984.5,1.478s.278.991.419,1.467c.29.946.6,1.823.9,2.6l.027.089c-.2-.385-.395-.753-.6-1.137.444,1.528.914,2.227,1.329,3.624a3.792,3.792,0,0,0-.5-.343c1.875,7.734,2.449,16.8,2.943,24.6,0,.325,0,.618,0,.918-.194,1.782-.382,3.568-.539,5.419-.214,1.876-.513,3.851-.7,5.943.083-1.4.162-2.777.245-4.178-.221,1.542-.427,3.068-.6,4.617s-.328,3.117-.6,4.772c-.313,2.225-.595,4.514-.839,6.764-.327,2.269-.648,4.5-.946,6.614-.615,4.212-1.173,7.906-1.34,10.269a163.081,163.081,0,0,1-10.056,26.585,179.407,179.407,0,0,1-15.492,25.858,8.652,8.652,0,0,0-1.147,1.864c.024.114.521-.424,1.156-1.3a167.951,167.951,0,0,0,21.251-37.8,156.156,156.156,0,0,1-7.052,16.268A173.054,173.054,0,0,1,980,3416.855c-.934,1.369-1.869,2.738-2.805,4.119-.978,1.349-1.909,2.694-2.828,4.047A253.792,253.792,0,0,1,940.378,3463c-5.623,5.137-11.069,9.752-16.669,14.181s-11.355,8.672-17.606,13c-17.588,12.141-34.413,21.825-52.878,32.643-1.488.852-2.895,1.738-3.819,2.39a4.937,4.937,0,0,0-1.084.9c-.043.076-.007.1.1.09a18.884,18.884,0,0,0,4.025-1.947c19.409-10.933,38.343-21.887,56.436-34.766,2.278-1.592,4.493-3.259,6.745-4.9,2.2-1.689,4.452-3.346,6.632-5.095,4.417-3.427,8.672-7.032,12.919-10.725a276.494,276.494,0,0,0,24.049-23.933c1.623-1.845,3.228-3.661,4.746-5.517.774-.917,1.542-1.838,2.3-2.751.736-.931,1.478-1.858,2.214-2.79-.008.062-.017.124.015.135.112.057.51-.242,1.068-.789-.825,1.055-1.665,2.113-2.5,3.176s-1.731,2.1-2.6,3.157c-1.712,2.118-3.524,4.188-5.326,6.28a366.625,366.625,0,0,1-34.806,32.553c-8.833,7.293-17.066,13.675-25.741,19.9-11.2,7.489-22.7,14.387-34.447,21.238a7.1,7.1,0,0,0-1.106.719c-.152.144.115.032.595-.232,8.161-4.52,16.443-9.3,24.668-14.405-1.218.962-1.905,1.63-1.715,1.747.194.134,1.268-.349,2.858-1.219-1.85,1.22-3.714,2.4-5.573,3.587a7.982,7.982,0,0,0-1.942,1.465,7.337,7.337,0,0,0,2.114-1.115q11.416-7.244,22.464-15.083c8.877-6.192,17.516-12.742,25.846-19.747a17.079,17.079,0,0,0-2.083,2.41l.006.005c-1.306,1.073-2.576,2.173-3.9,3.215a457.055,457.055,0,0,1-38.148,26.633c-13.179,8.325-26.7,16.2-40.307,24.2a3.805,3.805,0,0,0-.951.658,2.781,2.781,0,0,0,.907-.432c8.216-4.834,16.4-9.612,24.5-14.479l-.023.024c-.316.225-.361.314.009.13a12.909,12.909,0,0,0,1.271-.771c.361-.259.3-.288-.015-.134,15.087-9.091,29.878-18.543,43.906-28.89-12.913,9.8-26.389,18.706-40.024,27.217-1.516.859-3.024,1.709-4.561,2.579a8.89,8.89,0,0,0-1.1.736c-.1.114.222-.023.647-.274s.855-.485,1.279-.724c-2.585,1.6-4.524,2.99-4.387,3.2.238.153,2.555-.985,5.255-2.654,7.25-4.364,14.426-8.867,21.5-13.573l2.318-1.494,2.346-1.458c-10.876,7.586-22.011,14.633-33.135,21.443a7.611,7.611,0,0,0-1.745,1.231,5.988,5.988,0,0,0,1.789-.869c19.818-11.4,39.785-23.966,58.5-38.819,6.34-4.605,12.6-9.473,18.788-14.69-.738.7-1.507,1.385-2.265,2.082a281.243,281.243,0,0,1-29.028,22.965c-4.876,3.392-9.786,6.636-14.779,9.858-5,3.2-10.095,6.374-15.357,9.623a5.1,5.1,0,0,0-1,.706c-.037.081.333-.1.868-.435,10.285-6.3,19.714-12.111,29.678-19.078,8.268-5.765,15.943-11.6,23.3-17.576-14.736,12.586-30.036,22.965-45.883,32.968-.7.43-1.382.905-1.8,1.228a1.714,1.714,0,0,0-.417.189c-2.031,1.137-4.218,2.443-6.456,3.737a8.5,8.5,0,0,0-1.167.782c-.2.174.072.055.56-.217,2.189-1.277,4.266-2.5,6.145-3.55a11.905,11.905,0,0,0,1.009-.642c-.093.148.352-.047,1.138-.516a367.733,367.733,0,0,0,47.135-33.248,3.26,3.26,0,0,0,.754-.425,46.756,46.756,0,0,0,5.387-4.427l1.561-1.481c6.314-5.938,12.378-12.081,18.083-18.415,1.261-1.23,2.711-2.685,4.161-4.333,5.131-5.374,10.033-10.977,14.706-16.891-.233.4-.347.653-.277.678a15.457,15.457,0,0,0,2.636-3.016c.6-.833,1.186-1.657,1.788-2.485-1.632,2.412-3.4,4.764-5.122,7.132-.258.338-.479.649-.685.944-2.027,2.535-4.016,5.127-6.222,7.663-2.336,2.807-4.791,5.51-7.218,8.207-2.486,2.638-4.932,5.279-7.49,7.808q-7.59,7.65-15.59,14.591a342.226,342.226,0,0,1-32.957,25.19,12.482,12.482,0,0,0-1.251.91c-.19.183-.127.2.288-.069,7.205-4.618,13.893-9.095,20.692-14.049a254.137,254.137,0,0,0,21.083-17.091,297.828,297.828,0,0,0,24.819-25.208,241.042,241.042,0,0,0,21.326-28.235A201.448,201.448,0,0,0,1013,3384.226a191.42,191.42,0,0,0,9.513-31.254,167.7,167.7,0,0,0,3.726-40.84c0-1.64-.182-3.217-.319-4.812l-.436-4.779c-.158-1.584-.476-3.112-.7-4.668-.269-1.545-.489-3.108-.793-4.639-.361-1.506-.728-3.017-1.1-4.514a42.33,42.33,0,0,0-1.215-4.468,82.4,82.4,0,0,0-3.126-8.644,44.681,44.681,0,0,0-5.945-10.665c-2.192-2.543-4.011-4.1-4.895-4.147-1.052-.02-.547,2.142,1.034,5.466-.412-.587-.81-1.177-1.221-1.764l-2.05-2.708c-1.086-1.2-2.159-2.244-3.119-3.139a14.612,14.612,0,0,0-2.641-2.063l-2.161-1.246c-2.973-1.564-7.786-3.952-10.636-4.614a4.592,4.592,0,0,1,.171.65,3.375,3.375,0,0,0-.591-.244,10.218,10.218,0,0,0-4.069-1.112l-.187.5a4.85,4.85,0,0,0,1.4,2.84c-.2.137-.188.405.016.765-1.514-.289-2.423-.188-1.962.82-.783-.295-.828-.056-.119.539.239.195.569.405.876.638-.46-.13-.593-.177-1.193-.359-.707-.36-1.11-.571-1.11-.571-1.842-1-1.842-1-3.422-1.877a16.08,16.08,0,0,0-1.873-.577c-.456-.114-.713-.173-.713-.173-2.163,0-2.151.007-2.162.436a2.55,2.55,0,0,0,.234.233c-1.337-.47-1.418-.5-1.786-.633a6.666,6.666,0,0,0-.683-.15c-.179.15-.179.15-.446.112A.255.255,0,0,0,969.148,3252.673Zm23.075,17.454c1.362,1.063,2.289,2.014,3.3,2.825.58.961,1.21,1.947,1.9,2.919.8,1.389,1.584,2.765,2.363,4.123.378.685.815,1.332,1.151,2.039s.664,1.422.986,2.132c-.314-.28.006.4.136.76.149.373.286.737.428,1.106-.728-1.485-1.4-3.012-2.2-4.463q-1.289-2.109-2.579-4.246c-.195-.326-.389-.652-.592-.97-.224-.308-.454-.619-.678-.926-.461-.611-.921-1.235-1.375-1.854A25.457,25.457,0,0,0,992.223,3270.127Zm-5.192-18.315.165.057.46,2.1Zm-8.74,4.148c.222.073.361.124.443.159A2.676,2.676,0,0,1,978.291,3255.96Z" fill="#fff"/>
      </g>
    </g>
    <g id="Group_42" data-name="Group 42">
      <g id="Group_41" data-name="Group 41">
        <path id="Path_5527" data-name="Path 5527" d="M884.586,3550.591c12.674-2.306,25.377-5.06,37.95-7.8a1.659,1.659,0,0,1,.781-.073,1.706,1.706,0,0,1-.713.244c-12.58,2.754-25.225,5.5-37.9,7.809a2.055,2.055,0,0,1-.814.05C883.88,3550.764,884.188,3550.666,884.586,3550.591Z" fill="#fff"/>
        <path id="Path_5528" data-name="Path 5528" d="M979.04,3527.343c-.281,0-.255-.061.059-.145a4.74,4.74,0,0,1,1.012-.143c.236,0,.208.074-.06.145A4.672,4.672,0,0,1,979.04,3527.343Z" fill="#fff"/>
        <path id="Path_5529" data-name="Path 5529" d="M836.684,3553.944c1.6,0,3.2,0,4.8,0l3.8-.158c.635-.037,1.267-.049,1.9-.1l1.928-.176c2.576-.257,5.15-.5,7.732-.755q-5.1.372-10.139.744C843.377,3553.616,840.04,3553.76,836.684,3553.944Zm11.638-27.831c-.043.076-.007.1.1.09l.906-.912.077-.078A4.937,4.937,0,0,0,848.322,3526.113Zm-11.638,27.831c1.6,0,3.2,0,4.8,0l3.8-.158c.635-.037,1.267-.049,1.9-.1l1.928-.176c2.576-.257,5.15-.5,7.732-.755q-5.1.372-10.139.744C843.377,3553.616,840.04,3553.76,836.684,3553.944Z" fill="#fff"/>
        <path id="Path_5530" data-name="Path 5530" d="M893.184,3452.73c.3-.439.657-.883.907-1.212-.06.05-.172.143-.382.325a19.685,19.685,0,0,0-1.619,2.012C892.136,3453.958,892.565,3453.586,893.184,3452.73Z" fill="#fff"/>
        <path id="Path_5531" data-name="Path 5531" d="M894.159,3451.46l.092-.094c.06-.1.127-.205.2-.325-.063.075-.193.25-.363.477Z" fill="#fff"/>
        <path id="Path_5532" data-name="Path 5532" d="M877.061,3464.535c-1.238,1.507-2.258,2.866-3.3,4.249.657-.937,1.341-1.922,1.992-2.863-3.619,4.787-6.732,9.123-9.1,12.767-.268.412-.751,1.043-1.15,1.588a31.712,31.712,0,0,0-2.3,3.123l-.008.008c-4.414,5.522-8.491,10.808-11.66,15.212-1.579,1.823-3.049,3.619-4.166,5.164l-.071.083c.262-.417.514-.813.784-1.237-1.139,1.405-1.622,2.187-2.644,3.462.041-.2.1-.419.143-.616-1.433,1.673-2.913,3.394-4.418,5.013l-2.253,2.487c-.75.784-1.5,1.569-2.255,2.349-1.5,1.636-2.924,2.934-4.308,4.344-.663.632-1.236,1.1-1.824,1.664-.382.422-1.685,1.428-2.607,2.259-.367.31-.7.6-1.048.886a62.608,62.608,0,0,0-7.083,6.421,32.188,32.188,0,0,0-5.547,7.767,29.518,29.518,0,0,1,3.448-5.642,28.27,28.27,0,0,0-3.995,6.156,15.576,15.576,0,0,0-1.659,6.292,9.423,9.423,0,0,0,.155,2.047l.222.962c.112.3.239.592.364.892a7.3,7.3,0,0,0,2.118,3.034,13.2,13.2,0,0,0,7.436,2.768,34.778,34.778,0,0,0,4.346.145c.691-.008,1.376-.02,2.047-.03.415-.026.83-.053,1.239-.084,1.6-.114,3.009-.27,4.137-.466,15.137.513,30.957-1.029,46.675-3.345a5.8,5.8,0,0,0,1.726-.452c.11-.122-.406-.132-1.219-.011-11.216,1.4-22.592,2.616-33.788,2.981,2.376-.2,4.751-.4,7.135-.608,1.2-.1,2.38-.187,3.577-.3l3.611-.455q3.612-.435,7.25-.876,3.648-.55,7.328-1.1c1.243-.163,2.5-.33,3.756-.5,1.24-.193,2.487-.435,3.722-.686,12.539-2.065,24.473-4.606,37.144-7.009,10.817-2.035,20.248-3.824,30.812-5.5,14.841-2.354,28.092-3.988,42.041-5a10.784,10.784,0,0,0,3.936-.7c.318-.291-.946-.459-2.8-.362a345.433,345.433,0,0,0-44.841,5.138c-15.417,2.641-31.268,5.991-47.705,9.307-3.55.693-7.038,1.365-10.514,2.047.06-.051.106-.1.111-.135.026-.144-.269-.218-.805-.229q5.922-1.182,11.92-2.441c11-1.893,22.017-3.956,33.759-6.547,8.02-1.809,15.3-3.454,22.747-5.139,4.616-.676,9.253-1.459,13.806-1.964,2.294-.28,4.582-.566,6.868-.838,2.271-.216,4.541-.418,6.819-.629a3.208,3.208,0,0,0,.89-.158c.148-.065-.032-.106-.394-.08-1.551.092-3.117.188-4.688.279s-3.151.19-4.775.377c-3.224.34-6.478.656-9.771,1.066,1.091-.361,1.761-.659,1.732-.886-.02-.247-.782-.349-2-.288,1.525-.29,3.024-.478,4.535-.711a3.9,3.9,0,0,0,1.688-.467c.011-.129-.7-.122-1.593.006-3.061.409-6.178.993-9.275,1.525l-4.647.8-4.666.9c-3.721.632-7.438,1.28-11.184,2-3.737.7-7.474,1.4-11.238,2.153a9.627,9.627,0,0,0,2.285-1.053c1.166-.235,2.327-.475,3.485-.7,10.574-1.851,21.239-3.646,31.909-5.231,10.634-1.463,21.256-2.689,31.713-3.287a1.905,1.905,0,0,0,.8-.159c.028-.061-.274-.085-.65-.056q-4.762.339-9.5.666c-3.191.337-6.385.658-9.562.992.261-.062.33-.132.06-.146a4.786,4.786,0,0,0-1.01.107c-.3.072-.29.135-.06.147-11.965,1.448-24.017,3.392-35.949,5.428,2.8-.569,5.562-1.051,8.341-1.579s5.57-1.059,8.33-1.5l8.3-1.419,8.248-1.239c1.181-.1,2.358-.217,3.539-.263a3.239,3.239,0,0,0,.9-.166c.115-.063-.12-.091-.449-.067l-.975.051c2.056-.242,3.712-.665,3.766-.966-.027-.294-1.739-.338-3.89-.085-5.782.76-11.548,1.5-17.381,2.543l-1.874.271c-.625.058-1.244.121-1.869.179l6.81-1.251,3.4-.62,3.382-.533c2.259-.363,4.509-.717,6.754-1.076,2.247-.33,4.463-.574,6.7-.87a3.653,3.653,0,0,0,1.486-.348c.041-.1-.546-.128-1.307-.049-15.519,1.236-31.653,3.975-47.84,7.111-5.245.663-10.515,1.32-15.866,1.985.682-.138,1.374-.3,2.063-.442,17.63-3.7,32.468-5.586,49.327-7.8a2.516,2.516,0,0,0,.85-.2c.062-.063-.222-.073-.648-.014-4.1.464-8.045,1.01-11.974,1.511-3.924.463-7.862,1.08-11.973,1.7-6.8,1.093-13.267,2.142-19.6,3.166,12.994-2.582,25.436-4.612,38.232-6.414a11.23,11.23,0,0,0,1.492-.289.688.688,0,0,0,.308.029c1.564-.083,3.282-.227,5.043-.393a3.867,3.867,0,0,0,.968-.194c.189-.075,0-.1-.382-.071-1.721.168-3.353.31-4.8.371a5.152,5.152,0,0,0-.812.121c.114-.1-.2-.138-.818-.088-12.281,1.236-25.73,3.65-38.881,6.017a1.1,1.1,0,0,0-.526-.086,22.338,22.338,0,0,0-4.6.673l-1.448.362c-5.808,1.344-11.6,2.654-17.344,3.94-1.153.135-2.5.341-3.979.626q-3.649.489-7.327,1c-1.224.177-2.455.349-3.694.529-1.227.147-2.456.307-3.691.462.32-.112.534-.223.538-.3a5.088,5.088,0,0,0-2.53.115l-2.034.327c1.962-.382,3.93-.76,5.887-1.146.278-.048.545-.106.778-.161,2.138-.358,4.343-.815,6.551-1.2,19.306-3.486,37.815-7.06,56.09-9.689a4.667,4.667,0,0,0,1.045-.218c.189-.075.164-.135-.166-.1-11.426,1.189-21.311,2.113-34.244,4.194-15.381,2.477-30.406,4.91-45.454,6.491-.993.133-1.981.272-2.97.423-.968.1-1.929.188-2.892.29-1.916.185-3.82.379-5.716.565-1.921.222-3.728.243-5.581.353l-5.508.257c-1.824.049-3.587-.019-5.391-.022-1.787-.032-3.608-.008-5.382-.085q-2.622-.187-5.3-.388l-.282-.023-.039,0-.07-.025a.567.567,0,0,1-.115-.033l-.108-.082a.251.251,0,0,1-.065-.309.759.759,0,0,1,.267-.3,2.617,2.617,0,0,1,.278-.144l.58-.462.673-.514.377-.288.648-.52,1.3-1.053c.858-.7,1.745-1.423,2.556-2.12l2.092-1.938,2.081-1.948.952-.959c-.108.014-.144-.014-.1-.09a4.937,4.937,0,0,1,1.084-.9c1.2-1.222,2.482-2.463,3.565-3.651l3.449-3.684,3.308-3.669c4.381-4.877,8.555-9.748,12.7-14.655,6.333-7.3,11.183-14.33,11.086-15.731-.094-.824-1.96.562-4.79,3.39.486-.6.971-1.191,1.457-1.793l2.226-2.877a60.384,60.384,0,0,0,4.619-6.694l1.246-2.158c1.444-2.979,4.342-7.493,5.391-10.007l-.681.33.345-.544a11.66,11.66,0,0,0,1.913-3.553l-.462-.023a9.554,9.554,0,0,0-3.2,1.919c-.1-.12-.379-.042-.8.238.617-1.323.724-2.063-.438-1.373.485-.739.241-.706-.54.068-.261.267-.565.6-.87.94.231-.427.308-.56.642-1.113.546-.707.867-1.119.867-1.119,1.484-1.854,1.478-1.859,2.8-3.469,1.069-1.431,1.64-2.366,1.64-2.366.782-1.867.817-1.881.349-1.8-.111.08-.221.16-.341.261,1.037-1.291,1.116-1.382,1.4-1.73.276-.378.453-.655.453-.655-.08-.143-.08-.143.066-.388.013-.1-.044-.115-.044-.115-.778.6-.778.6-.843.59-.178.139-.425.348-.425.348-.783.786-1.1,1.1-1.235,1.236-.644.987-.915,1.466-1.06,1.711l-.146.245-.446.3c-.121.3-.163.423-.176.468l.04-.3c-.179.247-.3.426-.406.553.281-.415.4-.587.439-.651-1.694,2.036-1.71,2.052-2.409,2.861-.707.858-1.352,1.558-1.43,1.648.013-.1-.017-.122-.017-.122-1.785,2.214-1.8,2.217-3.489,4.366-.128.217-.225.39-.319.551a9.139,9.139,0,0,0-.912,1c-.3.377-.6.749-.895,1.125l-.223.227c-.006,0,0-.017,0-.017-.342.37-.575.617-.845.9l-.185.188,0,.012c-.588.62-1.425,1.516-3.663,3.891-.528.666-1,1.281-1.448,1.881q.2-.3.376-.575c.236-.369-.162-.124-.017-.315,2.458-3.316,5.142-6.788,7.94-10.311.315-.321.6-.611.856-.84-.12.154-.241.309-.353.456.183-.175.367-.364.552-.552-1.488,2.029-2.991,4.074-4.521,6.167-.437.584-.555.864-.274.654a10.72,10.72,0,0,0,1.306-1.47c2.153-2.823,4.472-5.752,6.8-8.664l.007-.008c.545-.6,1.132-1.26,1.738-1.962,1.093-1.263,1.934-2.387,2.566-3.234.612-.848.882-1.368.647-1.355-.063-.267.259-.98-.512-.431a27.842,27.842,0,0,0-3.1,2.76c-.791.8-1.656,1.7-2.52,2.641.157-.224.327-.45.5-.677a22.422,22.422,0,0,0,3.088-4.835c.079-.337-.089-.423-.5-.217a10.486,10.486,0,0,0-1.961,1.451,95.468,95.468,0,0,0-12.471,14.24C876.872,3464.952,876.969,3464.725,877.061,3464.535Zm-40.377,89.409c3.356-.184,6.693-.328,10.032-.443q5.046-.369,10.139-.744c-2.582.252-5.156.5-7.732.755l-1.928.176c-.637.049-1.269.061-1.9.1l-3.8.158C839.889,3553.946,838.284,3553.943,836.684,3553.944Zm30.678-69.5c2.17-2.756,4.566-5.763,6.578-8.433-1.1,1.65-1.893,2.966-2.613,4.224-.878,1-1.771,2.06-2.653,3.141-2.363,2.909-4.663,5.743-6.931,8.534.183-.422-.358.247-.656.582s-.6.678-.893,1.017C862.581,3490.519,864.956,3487.523,867.362,3484.441Zm3.865-8.581c-3.453,4.3-6.757,8.571-9.789,12.558-2.179,2.722-4.371,5.446-6.6,8.144l.255-.421c-.554.714-1.114,1.423-1.668,2.138l-.19.225,1.106-1.7c.283-.374.565-.747.855-1.128,4.647-5.62,8.617-10.947,12.869-16.5C869.074,3478.149,870.132,3477.039,871.227,3475.86Z" fill="#fff"/>
      </g>
    </g>
  </g>
</svg>
