<svg xmlns="http://www.w3.org/2000/svg" width="274" height="135.744" viewBox="0 0 274 135.744">
  <g id="ent-arr" transform="translate(-586.42 -635.544)">
    <g id="Group_40" data-name="Group 40">
      <path id="Path_9502" data-name="Path 9502" d="M603.885,640.626c-.082.129-.162.257-.242.382a3.642,3.642,0,0,1,.291-1.081c-.278.507-.541,1.041-.791,1.594l-.184.418-.1.439c-.057.295-.114.594-.172.893-.1.6-.206,1.215-.269,1.833.036.631.087,1.266.15,1.9a13.34,13.34,0,0,0,.905,3.705c.1.295.206.586.306.871a8.42,8.42,0,0,0,.424.843c.295.551.588,1.073.873,1.561.113.349.241.689.377,1a5.257,5.257,0,0,0,.526.863,2.559,2.559,0,0,0,.912.921c.219.066.286-.158.216-.573s-.318-1.021-.5-1.714a8.856,8.856,0,0,1-.168-.881q-.039-.736-.143-1.547c-.05-.538.007-1.088-.019-1.664s-.048-1.17-.072-1.781q.084-.9.172-1.847c-.09.482-.184.985-.275,1.468a16.37,16.37,0,0,0,.094-2.275l-.2.261a17.715,17.715,0,0,1,.382-1.981c.065-.344.119-.693.162-1.043a5.239,5.239,0,0,1,.162-1.036,28.059,28.059,0,0,0,.544-3.489c.053-.876-.238-1.233-.754-1.081a2.627,2.627,0,0,0-.934.607,7.632,7.632,0,0,0-.572.584,2.84,2.84,0,0,0-.531.789Z" fill="#fff"/>
      <path id="Path_9503" data-name="Path 9503" d="M600.842,645.122c.144-.783.433-1.527.641-2.271q.173-.555.344-1.105l.545-1.061.219-.265h-.616l.028.036a8.234,8.234,0,0,1-.047,1.224c.011.459.023.956.036,1.475s-.011,1.057-.034,1.6a16.264,16.264,0,0,0,.155,1.655l.12.783a1.312,1.312,0,0,0,.345.722c.291.2.533-.444.535-1.44l0-1.15c.111-.685.323-1.453.44-2.265a10.824,10.824,0,0,1,.215-1.224c.126-.4.241-.8.342-1.2.281-1.6.876-2.98.73-3.809-.062-.373-.491-.151-.79-.136-.32-.179-1.185.731-1.845,2.049-.44,1.364-.514,2.581-.15,2.733a2.508,2.508,0,0,0-.228.692,2.5,2.5,0,0,1-.041-.576,10.374,10.374,0,0,1,.247,2.688l-.043.711.079.728c.3-.238.563-.479.9-.707l-.027-.742a1.692,1.692,0,0,1-.12.141c-.036-.712-.072-1.4-.109-2.11a3.763,3.763,0,0,1,.089-1.061c.064-.357.13-.722.2-1.1a8.135,8.135,0,0,1,.349-1.911c.081-.522-.2-.527-.63-.018a3.867,3.867,0,0,0-.541.784l.233-.358c-.386.954-.783,1.932-1.178,2.908l-.678,2.993a1.259,1.259,0,0,0,.074.881C600.718,645.574,600.818,645.447,600.842,645.122Z" fill="#fff"/>
      <g id="Group_39" data-name="Group 39">
        <path id="Path_9504" data-name="Path 9504" d="M602.267,638.171a4.9,4.9,0,0,0,.651-1l.022-.2-.456.561C602.156,637.937,602.128,638.173,602.267,638.171Z" fill="#fff"/>
        <path id="Path_9505" data-name="Path 9505" d="M602.94,636.973l.19-.233-.168.147-.018.05Z" fill="#fff"/>
        <path id="Path_9506" data-name="Path 9506" d="M706.679,715.986a345.817,345.817,0,0,0,42.3,7.054,4.893,4.893,0,0,0,.907.045,3.649,3.649,0,0,0-.8-.122,346.033,346.033,0,0,1-42.182-7.02,6.173,6.173,0,0,0-.918-.174A2.425,2.425,0,0,0,706.679,715.986Z" fill="#fff"/>
        <path id="Path_9507" data-name="Path 9507" d="M814,727.24c-.324.031-.294.057.068.065.31.006.847-.009,1.168-.039.271-.026.24-.058-.07-.064C814.8,727.194,814.272,727.214,814,727.24Z" fill="#fff"/>
        <path id="Path_9508" data-name="Path 9508" d="M600.76,638.27a2.592,2.592,0,0,1,.149-.226C600.782,638.1,600.718,638.172,600.76,638.27Zm.323.33c.129.127.227.221.227.221l-.127-.357C601.14,638.515,601.116,638.556,601.083,638.6Zm75.8,69.482c-2.5-.949-4.953-1.929-7.331-2.939s-4.717-2.047-7-3.108q-2.262-.988-4.463-2.021A172.017,172.017,0,0,0,676.881,708.082Zm-74.783-50.4c.039.32.07.639.1.881a1.857,1.857,0,0,0,.052.29c.014.038.019.063.026.08a4.347,4.347,0,0,1-.014-.712l0-.106c-.063-.218-.128-.417-.185-.6C602.077,657.561,602.088,657.615,602.1,657.681Zm.9-22.13c-.124.1-.124.1-.314.087a2.9,2.9,0,0,0-.286.28c-.124.173-.148.215-.6.844a.918.918,0,0,0-.012-.179c-.268-.193-.267-.2-1.458.47,0,0-.106.107-.288.3a6.2,6.2,0,0,0-.683.845c-.339.891-.339.891-.744,1.923,0,0-.094.221-.265.606-.22.269-.265.332-.439.535.027-.2.081-.4.094-.565.03-.493-.141-.588-.394-.211-.359-.6-.923-.37-1.581.232a.525.525,0,0,0-.457-.356,2.8,2.8,0,0,0-.96-1.736l-.408-.172a4.2,4.2,0,0,0-1.569,1.772,1.263,1.263,0,0,0-.177.295,3.351,3.351,0,0,1-.3-.351,20.233,20.233,0,0,0-3.059,5.415l-.433,1.242a4.943,4.943,0,0,0-.2,1.766,19.641,19.641,0,0,0,.19,2.407l.519,1.879c.13.4.27.791.4,1.188-1.152-2.016-2.19-3.165-2.758-2.829-.462.293-.514,1.574-.175,3.42a23,23,0,0,0,3.214,6.739,53.587,53.587,0,0,0,3.54,4.936,30.886,30.886,0,0,0,2.05,2.428c.709.8,1.426,1.609,2.144,2.412.765.8,1.6,1.583,2.388,2.376.821.784,1.576,1.584,2.454,2.36l2.669,2.329c.9.774,1.755,1.556,2.755,2.308a182.4,182.4,0,0,0,26.926,17.591,239.3,239.3,0,0,0,24.28,11.4,266.878,266.878,0,0,0,27.749,9.416c9.592,2.573,19.272,4.693,28.959,6.35s19.365,2.973,29.043,3.877c8.127.773,15.262,1.142,22.039,1.31s13.184.148,19.971.034c.4,0,.418-.033.2-.058-.336-.029-.9-.035-1.244-.03-10.834-.022-21.99-.378-33.522-1.346q-8.631-.7-17.486-1.864c-2.951-.369-5.909-.822-8.887-1.263-2.981-.485-5.982-.965-8.98-1.529-2.761-.48-5.437-1.054-8.1-1.589-.293-.072-.6-.146-.952-.221-2.394-.552-4.8-1.085-7.169-1.686.837.193,1.664.389,2.5.586a20.227,20.227,0,0,0,3.291.568c.023-.034-.2-.115-.566-.226,6.179,1.267,12.3,2.318,18.4,3.2,1.8.307,3.49.525,4.935.7,7,1.139,14.09,2.079,21.19,2.847l1.763.2c2.332.257,4.566.367,5.667.362a3.5,3.5,0,0,0,.675-.038,428.57,428.57,0,0,0,46.251.649c.719-.028,1.084-.076.942-.115.275,0,.633,0,.948-.018,1.674-.1,3.566-.183,5.551-.276.435-.026.66-.057.442-.074a9.723,9.723,0,0,0-1.12,0c-2.023.1-4.025.178-5.838.286a1.733,1.733,0,0,0-.345.042c-.429-.017-1.1-.022-1.743,0-14.834.321-29.595.3-45.39-.91,7.7.462,15.488.761,23.561.844,9.739.109,18.481-.146,27.99-.443.5-.014.814-.044.744-.069a6,6,0,0,0-.98-.015c-4.882.14-9.624.262-14.333.344s-9.4.1-14.157.056c-9.5-.113-19.3-.482-30-1.543-.842-.085-1.685-.162-2.517-.253,6.588.477,13.009.77,19.311.918a539.154,539.154,0,0,0,55.914-.317,5.936,5.936,0,0,0,1.517-.155,9.012,9.012,0,0,0-1.713-.025c-10.284.323-20.718.54-31.338.43l2.182-.059,2.189-.033c6.767-.031,13.468-.189,20.125-.433a19.386,19.386,0,0,0,4.515-.411,20.34,20.34,0,0,0-4.371-.111l1.146-.064c.388-.016.65-.054.524-.075a10.3,10.3,0,0,0-1.055,0l-4.087.23c-12.706.32-25.564.409-38.655-.086,14.04.4,27.956.155,41.815-.349-.27.028-.283.058.074.066.3,0,.891-.013,1.17-.041.316-.03.237-.057-.074-.062l-.027,0c7.433-.277,14.856-.62,22.333-.948a2.731,2.731,0,0,0,.764-.083,4.392,4.392,0,0,0-.926-.007c-12.378.545-24.632,1.124-36.973,1.388s-24.766.209-37.264-.4c-1.367-.066-2.738-.178-4.112-.266v0a22.471,22.471,0,0,0-2.617-.46c8.861.633,17.616.961,26.284,1.052,7.25.13,14.439.1,21.578-.04a7.566,7.566,0,0,0,1.845-.144,9.592,9.592,0,0,0-1.963-.07c-1.748.031-3.5.067-5.259.081a6.763,6.763,0,0,0,2.319-.327c.034-.112-.752-.206-2.01-.27,7.644-.208,15.126-.58,22.381-1.035.426-.027.641-.059.47-.078a8.072,8.072,0,0,0-1.048.013c-10.656.5-21.2.895-31.938.93-8.575-.167-17-.544-26.317-1.154-13.514-.9-26.329-2.225-39.026-4.153-2.268-.4-4.528-.789-6.762-1.231-1.119-.215-2.248-.415-3.355-.644s-2.214-.455-3.312-.684a2.588,2.588,0,0,0,1.069.031c.011-.015-.031-.041-.073-.066.973.2,1.947.394,2.92.594.976.183,1.96.368,2.945.549,1.968.381,3.96.718,5.978,1.061,9.329,1.589,18.658,2.709,27.842,3.531,4.592.379,9.135.714,13.659.918,2.268.127,4.516.191,6.761.283,2.241.055,4.478.133,6.705.158,17.824.3,34.94-.539,52.306-1.537a18.94,18.94,0,0,0,3.406-.354c.068-.027.071-.051,0-.072a6.032,6.032,0,0,0-1.146-.078c-.907-.012-2.223.017-3.563.087-16.774.758-31.953,1.529-49.05,1.409-6.086-.051-11.836-.21-17.631-.512s-11.6-.727-17.832-1.342a330.706,330.706,0,0,1-41.879-6.894c-1.331-.336-2.664-.664-4.025-.98-1.358-.344-2.707-.683-4.056-1.022-5.217-1.4-10.273-2.9-15.071-4.544s-9.387-3.417-13.8-5.281a223.591,223.591,0,0,0,34.743,10.764,4.931,4.931,0,0,0,1.427.236,11.606,11.606,0,0,0-1.768-.5,239.412,239.412,0,0,1-24.293-7.067,209.615,209.615,0,0,1-21.737-9.085c-1.532-1.034-4.089-2.556-6.993-4.3-1.451-.877-2.988-1.8-4.55-2.743-1.5-.957-3.054-1.92-4.582-2.844-1.157-.676-2.194-1.353-3.235-2.005s-2.084-1.294-3.145-1.933l2.68,1.842c-1.375-.9-2.743-1.717-4-2.512-1.214-.8-2.4-1.563-3.6-2.321-.184-.137-.358-.274-.558-.422-4.473-3.73-9.679-8.071-13.354-12.2a1.22,1.22,0,0,0-.07.313c-.621-.77-.788-1.236-1.473-2.075.123.238.239.468.363.707l-.039-.05c-.306-.453-.671-.95-1.087-1.474q-.318-.395-.662-.8c-.221-.272-.4-.551-.622-.834q-.5-.933-1.114-1.955c-.2-.338-.413-.685-.623-1.032-.173-.355-.354-.71-.535-1.074-.362-.718-.758-1.462-1.17-2.22-.376-.753-.649-1.52-1-2.3-.05-.1-.1-.211-.141-.317,0,0-.008-.01-.007-.014-.137-.28-.255-.559-.383-.838a11.974,11.974,0,0,1-.4-1.173c-.262-.782-.524-1.568-.794-2.355q-.243-1.165-.487-2.315c-.078-.381-.191-.768-.241-1.142-.033-.372-.057-.743-.081-1.109a1.461,1.461,0,0,0-.241-.937c-.138-.067-.233.235-.239.686-.04.435-.079.862-.127,1.284-.011.426.041.857.057,1.287.033.436.057.872.089,1.316.016.224.041.45.056.678s.111.471.161.712c.089.363.187.727.276,1.091v.008q.2.783.4,1.563c.3.884.68,1.771,1.019,2.66a16.159,16.159,0,0,0,1.307,2.7,22.237,22.237,0,0,0,1.7,2.788c.144.226.279.45.415.67.14.325.28.651.428.978l-.1-.139c-.274-.424-.556-.85-.829-1.274l.087.238-.871-1.232c-.267-.407-.478-.815-.716-1.226l-1.407-2.442c-.3-.771-.6-1.554-.913-2.356-.157-.4-.323-.8-.489-1.208-.111-.4-.231-.806-.342-1.213-.212-.811-.513-1.639-.715-2.458l-.016-.087,0-.016q-.186-1.174-.428-2.35l-.128-.615c-.028-.2-.028-.4-.038-.6-.015-.232-.03-.464-.045-.692v0c-.013-.172-.027-.343-.032-.509-.038-.4-.076-.8-.1-1.2a1.623,1.623,0,0,1-.026-.359,4.871,4.871,0,0,1,.033-.513v-.007c0-.1.016-.192.011-.29.048-.768.068-1.533.068-2.284.022-.094.035-.189.048-.284l0-.016c.13-.628.222-1.246.3-1.857.132-.5.108-.869-.053-.835-.066.016-.131.092-.21.2a2.878,2.878,0,0,0-.325.78c-.246.674-.547,1.344-.749,2.027-.025.118-.05.232-.066.351l0,.02a.522.522,0,0,0-.025.118v.008c-.108.53-.207,1.062-.314,1.584a9.918,9.918,0,0,0-.194,1.032c-.019.349-.038.694-.048,1.04-.037.689-.092,1.368-.154,2.034-.014.107-.208-.093-.244.108,0,.1-.018.2-.023.308a5.51,5.51,0,0,1-.012-1.071c-.317-1.468-.435-2.021-.512-2.407v0s0,0-.03-.117a2.77,2.77,0,0,1-.046-.547l-.018,0c0-.045-.006-.09-.009-.139l.112-.631a1.34,1.34,0,0,0,.007-.6c.047-.079.1-.16.164-.265.118-.6.176-.9.235-1.2.113-.292.227-.591.453-1.187a.372.372,0,0,0-.122.024,7.339,7.339,0,0,1,.261-.922c.067-.225.1-.337.164-.535.031-.1.075-.216.133-.377.077-.164.205-.361.36-.63l-.268.291c.035-.06.1-.132.168-.228-.028,0-.076.022-.229.066.029-.012.1-.055.306-.161l-.061-.23s.01,0,.935-.815c.02-.074.089-.247.238-.679a.991.991,0,0,0,0-.225c-.052-.024-.052-.024-.062-.429A.312.312,0,0,0,603,635.551Zm-1.423,17.63c.126.425.252.854.369,1.277.064.211.127.425.19.635.082.209.174.419.264.629.391.921.782,1.837,1.164,2.749.446.912,1,1.822,1.505,2.729-.146-.213-.292-.422-.437-.64s-.385-.617-.388-.391c-.255-.426-.5-.854-.754-1.284s-.4-.861-.607-1.293c-.4-.865-.8-1.739-1.207-2.625-.214-.659-.467-1.306-.732-1.927.065-.686,0-1.41.1-2.321A10.315,10.315,0,0,0,601.574,653.181Zm-7.852-11.294L592.7,640.78l.056-.077Zm6.231-1.779a2.314,2.314,0,0,1,.148-.21A.989.989,0,0,1,599.953,640.108Z" fill="#fff"/>
      </g>
    </g>
    <g id="Group_42" data-name="Group 42">
      <g id="Group_41" data-name="Group 41">
        <path id="Path_9509" data-name="Path 9509" d="M819.827,745.37c-8.623,2.84-17.543,5.482-26.382,8.089-.3.088-.515.18-.488.207a1.617,1.617,0,0,0,.557-.107c8.85-2.6,17.73-5.234,26.358-8.072a1.3,1.3,0,0,0,.493-.227A1.362,1.362,0,0,0,819.827,745.37Z" fill="#fff"/>
        <path id="Path_9510" data-name="Path 9510" d="M751.761,763.737c.159-.087.106-.107-.124-.049a3.477,3.477,0,0,0-.663.246c-.132.074-.071.1.125.049A3.324,3.324,0,0,0,751.761,763.737Z" fill="#fff"/>
        <path id="Path_9511" data-name="Path 9511" d="M843.092,735.047q-3.088,1.383-6.207,2.779c1.62-.678,3.231-1.358,4.851-2.033l1.2-.513c.392-.173.757-.362,1.14-.541l2.252-1.1q1.361-.738,2.72-1.479C847.033,733.109,845.054,734.071,843.092,735.047Zm-19.285-12.229.093.013,1.086.142c.069-.027.072-.051,0-.073A6.418,6.418,0,0,0,823.807,722.818Zm19.285,12.229q-3.088,1.383-6.207,2.779c1.62-.678,3.231-1.358,4.851-2.033l1.2-.513c.392-.173.757-.362,1.14-.541l2.252-1.1q1.361-.738,2.72-1.479C847.033,733.109,845.054,734.071,843.092,735.047Z" fill="#fff"/>
        <path id="Path_9512" data-name="Path 9512" d="M753.515,702.849c-.448-.108-.926-.205-1.275-.28.066.005.187.013.421.032.953.144,1.537.288,2.179.43C754.879,703.093,754.4,703.053,753.515,702.849Z" fill="#fff"/>
        <path id="Path_9513" data-name="Path 9513" d="M752.166,702.563l-.112-.015c-.1-.03-.2-.055-.318-.087.083.015.266.056.5.108Z" fill="#fff"/>
        <path id="Path_9514" data-name="Path 9514" d="M770.584,703.527a132.431,132.431,0,0,0-16-2.731,13.084,13.084,0,0,0-2.02-.065c-.363.032-.4.123-.148.255a31.8,31.8,0,0,0,4.784,1.28c.238.052.477.1.705.159-1.082-.169-2.137-.319-3.084-.442-1.363-.183-2.632-.293-3.487-.319-.781-.016-.152.214-.02.357-.141.065.338.223,1.217.425s2.072.456,3.484.7c.783.137,1.531.262,2.215.37h.01c3.143.628,6.295,1.266,9.287,1.906a14.9,14.9,0,0,0,1.662.276c.291.011.049-.083-.566-.218-2.18-.494-4.315-.975-6.431-1.453.223.03.445.06.659.084l-.487-.1c.289.026.632.073,1.013.124,3.8.764,7.495,1.54,10.969,2.313.2.043-.177.053.187.15q.273.074.575.15c-.633-.137-1.284-.277-2-.422-2.759-.407-3.8-.562-4.517-.667l-.009-.006-.222-.029c-.334-.049-.62-.092-1.046-.157,0,0,.009.005.008.009l-.269-.036c-.4-.083-.809-.161-1.213-.244-.46-.09-.912-.163-1.146-.182-.154-.045-.317-.1-.526-.156-2.306-.471-2.316-.468-4.717-.94,0,0,0,.02.068.062-.1-.018-.906-.142-1.845-.321-.9-.158-.922-.16-3.16-.578l.657.165c-.138-.026-.32-.071-.577-.13l.21.125c-.036-.017-.134-.058-.394-.162l-.443,0-.236-.068c-.236-.068-.69-.206-1.675-.463-.157-.021-.538-.068-1.475-.19,0,0-.271-.02-.459-.029-.031.024-.031.024-.848-.013,0,0-.022.025.048.067.236.068.236.068.281.158,0,0,.273.073.667.163.377.075.479.092,1.876.369-.131-.01-.243-.013-.356-.016-.317.107-.288.1,1.328.724,0,0,.909.255,2.413.586,1.758.337,1.757.341,3.761.74l1.194.249c.536.153.663.19,1.062.316-.388-.064-.767-.123-1.082-.165-.929-.117-1.088-.057-.349.135-1.091.039-.566.348.614.769-.415,0-.62.049-.6.136a10.921,10.921,0,0,0-3.016.1l-.247.153a16.35,16.35,0,0,0,3.314,1.05l.538.145-.593.058c2.172.837,6.646,2.027,9.334,2.958l2.061.612c1.495.463,3.926,1.056,6.818,1.667l3.066.642c.653.128,1.3.251,1.95.379-3.378-.434-5.3-.5-4.84-.089.825.676,7.981,2.425,16.154,3.845,5.427.988,10.848,1.95,16.39,2.852l4.176.675,4.266.637c1.359.215,2.864.393,4.31.587a6.418,6.418,0,0,1,1.179.082c.072.022.069.046,0,.073l1.141.149,2.4.258,2.4.25c.9.072,1.851.131,2.778.191l1.394.087.694.04.394.017.7.03.618.035c.115-.009.135-.019.248-.02a1.058,1.058,0,0,1,.342.058c.116.044.156.1.157.163l-.009.071a.253.253,0,0,1-.045.051l-.023.033-.021.013-.145.1c-.923.611-1.844,1.214-2.754,1.81-.956.582-2,1.132-2.994,1.7-1.019.558-1.974,1.132-3.038,1.672l-3.279,1.578c-1.118.52-2.154,1.067-3.381,1.556-1.19.5-2.39,1-3.59,1.5-.61.25-1.21.5-1.82.757-.655.235-1.3.476-1.947.72-9.511,3.906-19.544,7.411-29.806,11.007-8.628,3.024-14.8,5.642-22.018,8.613-.21.085-.186.121-.032.1a3.69,3.69,0,0,0,.728-.221c12-4.416,24.717-8.469,37.836-12.807,1.492-.5,3.028-.97,4.463-1.464.167-.046.353-.1.541-.165,1.351-.425,2.7-.857,4.052-1.285l-1.357.476c-.918.3-1.585.627-1.5.726a1.04,1.04,0,0,0,.495-.026c-.8.309-1.593.614-2.38.924-.814.3-1.619.6-2.424.894q-2.4.9-4.772,1.8c-1.016.324-1.908.644-2.646.937q-6.084,1.763-12.292,3.524l-1.047.28a16.146,16.146,0,0,0-3.028,1.107c-.163.087-.229.155-.244.2-8.931,2.959-18.06,5.988-25.788,9.2-.381.167-.538.28-.407.293a3.7,3.7,0,0,0-.536.194c-.859.418-1.871.855-2.951,1.308-.231.106-.326.174-.171.15a3.057,3.057,0,0,0,.67-.208c1.1-.466,2.163-.929,3.1-1.372.1-.051.153-.089.156-.109a8.582,8.582,0,0,0,1.025-.326c8.375-3.11,16.694-6.006,25.67-8.817-4.229,1.478-8.547,2.986-13.084,4.577-2.718.979-5.334,1.907-7.847,2.9-2.538.979-5.112,1.942-7.726,2.992-.279.1-.433.2-.359.206a2.105,2.105,0,0,0,.608-.169c10.935-4.171,20.521-7.87,32.821-11.595.482-.145.973-.285,1.446-.432-3.447,1.342-6.843,2.662-10.228,3.972a321.483,321.483,0,0,0-31.547,11.456c-.479.2-.8.389-.708.425a3.091,3.091,0,0,0,1.059-.3c1.452-.551,2.86-1.121,4.339-1.662q2.244-.788,4.5-1.584l2.25-.8,2.311-.759,4.641-1.52c-.391.165-.781.327-1.171.492l-1.231.453c-3.953,1.318-7.685,2.75-11.436,4.18-1.376.546-2.318,1.094-2.149,1.238a6.974,6.974,0,0,0,2.739-.714l-.584.277c-.2.09-.317.175-.212.169a2.531,2.531,0,0,0,.612-.2c.7-.343,1.438-.651,2.169-.969l5.447-1.969,5.589-1.9c1.842-.645,3.755-1.256,5.66-1.872s3.773-1.241,5.713-1.841c-8.033,2.737-16.076,5.552-23.759,8.57.124-.076.09-.109-.125-.049a3.344,3.344,0,0,0-.64.261c-.144.09-.06.1.126.049-2.008.825-4.018,1.661-6.036,2.488q-2.894,1.307-5.8,2.621c-.231.1-.387.206-.333.225a1.524,1.524,0,0,0,.552-.172c6.295-2.945,13.078-5.652,20.016-8.252,7.036-2.556,14.2-5.013,21.347-7.416.8-.252,1.606-.5,2.414-.75a10.1,10.1,0,0,0,1.955-.218c-2.6.814-5.158,1.641-7.714,2.469-2.574.821-5.085,1.666-7.588,2.521l-3.205,1.023-3.135,1.061c-2.087.709-4.218,1.4-6.208,2.153-.585.216-.992.432-.9.488a3.5,3.5,0,0,0,1.249-.3c1-.358,1.967-.733,3.013-1.069-.726.347-1.094.628-.95.748.126.114.693.045,1.537-.124-2.122.825-4.163,1.681-6.2,2.518-1.037.414-1.993.859-2.94,1.3s-1.892.88-2.829,1.315c-.221.1-.3.175-.172.159a2.512,2.512,0,0,0,.6-.2c1.421-.6,2.834-1.21,4.255-1.81q2.2-.868,4.414-1.729c2.894-1.169,6.011-2.236,9.049-3.346,5.272-1.517,10.427-3,16.1-4.636,8.273-2.422,15.8-4.862,23.221-7.378q4.19-1.26,8.28-2.546c-.3.17-.417.3-.312.354a.4.4,0,0,0,.148.028c-2.4.756-4.792,1.52-7.237,2.294-11.387,3.533-22.464,6.87-32.849,10.4a241.419,241.419,0,0,0-28.61,11.442c-1.108.525-1.719.992-1.356,1.029a8.406,8.406,0,0,0,2.669-.889c8.528-3.832,17.056-7.16,26.935-10.646,7.035-2.479,13.5-4.558,20.9-6.951,8.682-2.794,17.032-5.3,25.428-8.208.856-.264,1.714-.537,2.537-.83l2.438-.928q2.426-.879,4.841-1.748l4.654-1.83,2.33-.9c.75-.315,1.473-.642,2.215-.962,1.483-.637,2.947-1.28,4.42-1.917-6.566,3.28-13.768,6.225-21,9.033-.536.194-.822.358-.684.38a4.981,4.981,0,0,0,1.262-.323c10.352-3.773,20.275-7.935,28.522-12.835.761-.257,1.66-.621,2.634-1.059.251-.112.5-.227.754-.343.386-.2.782-.408,1.178-.617a19.588,19.588,0,0,0,2.37-1.406c1.47-1.038,2.444-2.243,2.471-3.568a3.266,3.266,0,0,0-.706-2.053c-.118-.177-.227-.349-.355-.524l-.478-.512a8.874,8.874,0,0,0-1.2-.993,19.863,19.863,0,0,0-4.889-2.393,39.863,39.863,0,0,0-6.127-1.61,41.4,41.4,0,0,1,5.494,1.541,45.345,45.345,0,0,0-8.016-1.876c-2.739-.413-5.435-.646-8.041-.782-.374-.026-.748-.056-1.15-.086-1.044-.1-2.413-.162-2.894-.239-.688-.08-1.3-.119-2.077-.206-1.669-.225-3.29-.386-5.167-.678q-1.375-.192-2.751-.39l-2.837-.454c-1.869-.283-3.786-.622-5.649-.953.15.077.319.16.468.241-1.379-.274-2.143-.486-3.67-.784.419.113.811.218,1.22.33l-.092-.017c-1.6-.368-3.562-.745-5.6-1.1-4.558-1.057-10.186-2.241-16.152-3.43h-.009c-.746-.21-1.9-.47-3.262-.733-.568-.129-1.238-.272-1.649-.379-3.628-.952-8.114-1.995-13.168-3.089.96.233,1.966.478,2.926.707-1.458-.317-2.889-.63-4.536-.944C770.225,703.39,770.423,703.465,770.584,703.527Zm75.745,30.113-2.252,1.1c-.383.179-.748.368-1.14.541l-1.2.513c-1.62.675-3.231,1.355-4.851,2.033q3.118-1.4,6.207-2.779c1.962-.976,3.941-1.938,5.957-2.886Q847.689,732.9,846.329,733.64Zm-48.536-22.133c-.379-.067-.757-.13-1.145-.194s-1.1-.205-.737-.067l-9.282-1.8c-1.177-.227-2.347-.441-3.473-.632-1.2-.359-2.471-.724-4.132-1.145,2.816.613,6.06,1.262,9.019,1.866C791.34,710.212,794.566,710.863,797.793,711.507Zm-13.455-4.19c5.892,1.252,11.484,2.488,17.643,3.65l1.192.257,1.7.446-.249-.045c-.762-.159-1.525-.314-2.287-.473l.41.115c-2.955-.558-5.907-1.14-8.849-1.725-4.221-.906-8.774-1.861-13.427-2.781C781.827,706.968,783.123,707.154,784.338,707.317Z" fill="#fff"/>
      </g>
    </g>
  </g>
</svg>
