<svg xmlns="http://www.w3.org/2000/svg" width="801.795" height="46.209" viewBox="0 0 801.795 46.209">
  <g id="m" transform="translate(-475.393 -7216.331)" opacity="0.5">
    <path id="Path_7600" data-name="Path 7600" d="M567.156,7217.285c.2-.022.685-.086.528-.154s-1.589-.013-1.478.126S566.958,7217.308,567.156,7217.285Z" fill="#47aea9"/>
    <path id="Path_7601" data-name="Path 7601" d="M540.434,7218.058a10.289,10.289,0,0,1-1.59-.078c-.415.024-.3.131-.649.162C538.669,7218.168,541.092,7218.35,540.434,7218.058Z" fill="#47aea9"/>
    <path id="Path_7602" data-name="Path 7602" d="M931.322,7261.711c-.312,0,.071.04,0,0Z" fill="#47aea9"/>
    <path id="Path_7603" data-name="Path 7603" d="M999.946,7261.786l.019,0h0Z" fill="#47aea9"/>
    <path id="Path_7604" data-name="Path 7604" d="M600.676,7260.761c-.127.006.022.023,0,0Z" fill="#47aea9"/>
    <path id="Path_7605" data-name="Path 7605" d="M1110.017,7259.316q2.754-.024,5.512-.045A27.025,27.025,0,0,0,1110.017,7259.316Z" fill="#47aea9"/>
    <path id="Path_7606" data-name="Path 7606" d="M999.965,7261.789l.008,0,0,0Z" fill="#47aea9"/>
    <path id="Path_7607" data-name="Path 7607" d="M1121.329,7259.4c.011,0-.012-.009.121-.007a.644.644,0,1,0,.072-.145q-3.009,0-5.993.022c1.556.1,3.076.218,4.224.242A3.679,3.679,0,0,0,1121.329,7259.4Z" fill="#47aea9"/>
    <path id="Path_7608" data-name="Path 7608" d="M514.542,7237.936c-.06-.013-.341.021-.144,0,.077-.008.094,0,.1,0l.033,0Z" fill="#47aea9"/>
    <path id="Path_7609" data-name="Path 7609" d="M1021.774,7261.688h0Z" fill="#47aea9"/>
    <path id="Path_7610" data-name="Path 7610" d="M569.928,7218.421h0Z" fill="#47aea9"/>
    <path id="Path_7611" data-name="Path 7611" d="M782.385,7217.484c.072-.015-.072,0-.061.007S782.314,7217.5,782.385,7217.484Z" fill="#47aea9"/>
    <path id="Path_7612" data-name="Path 7612" d="M1108.629,7218.449h0l.014,0Z" fill="#47aea9"/>
    <path id="Path_7613" data-name="Path 7613" d="M1048.79,7218.141c-.008,0,0,0,0,0a.418.418,0,0,0,.06,0c.009,0-.026-.006-.031-.006l-.02,0s.016,0,.017,0Z" fill="#47aea9"/>
    <path id="Path_7614" data-name="Path 7614" d="M510.886,7232.422c.006,0,.011,0,.007,0C510.851,7232.413,510.877,7232.418,510.886,7232.422Z" fill="#47aea9"/>
    <path id="Path_7615" data-name="Path 7615" d="M1029.095,7217.391c4.3-.065,8.56-.213,12.822-.288.331-.006.7.01.917.019s.3.024.2.069-.559.074-.692.106-.186.053-.069.09a.845.845,0,0,0,.286.054c.266.036.671.075,1.147.115s1.382.124,1.925.194a.545.545,0,0,1,.08.011c.047.009.168.026.25.041a2.464,2.464,0,0,1,.273.065,3.208,3.208,0,0,1,.3.115,1.351,1.351,0,0,0-.169.079c-.334.169.488.3.823.217l.113-.03c-.01,0-.023.008,0,0l-.011,0h0c.009,0,.019,0,.016,0h-.005l.007,0c.01,0-.006,0,0,0,.462-.04,1.039-.068,1.458-.112.089-.01-.127-.063-.089-.076.012,0,.006,0,.005,0s-.01,0,0,0-.017-.005.006,0h0c.019-.005.063-.014.2-.037.347-.06,1.414-.2,1.927-.263.038,0-.029,0,.1,0s.437,0,.651-.01a3.872,3.872,0,0,0,.6-.115,10.855,10.855,0,0,1,2.343-.212c.879,0,2.2.123,3,.12,1.264-.005,3.576-.218,4.243-.107l.162.027c.256.008-.077.006.244-.027a13.239,13.239,0,0,1,1.806.081,16.585,16.585,0,0,0,4.457-.026,32.821,32.821,0,0,0,4.143-.619c.034-.009-.072-.019-.113-.018-.662.006-1.946.04-2.484.042s-.937-.065-1.161-.069c-.183,0-.1,0-.056,0h0a6.272,6.272,0,0,0,.922-.247c.18-.088-.094-.143-.346-.14-1.788.024-3.1-.121-5.006-.1-3.031.039-6.423.139-9.556.217-1.759.043-3.218.1-5.017.253a42.25,42.25,0,0,1-5.5.086c-2.061-.078-4.689-.078-6.867-.14-.228-.006-.293.123-.61.1a12.416,12.416,0,0,0-1.786-.017,19.984,19.984,0,0,1-4.613.3c-2.319.017-4.694.1-7,.229.174.011.36.038.541.041C1025.622,7217.434,1027.408,7217.416,1029.095,7217.391Zm32.742-.169c.35-.029,1.282-.111,1.59-.128s.5-.057.615-.046.192.087.188.117c-.017.175-.691.039-1.182.044a8.509,8.509,0,0,0-1.695.138C1061.343,7217.247,1061.488,7217.251,1061.837,7217.222Zm-11-.113c-.792.121-1.392.311-2.141.456-.171.033-.149.083-.048.107l.048.01h0c.02,0,0-.007.03,0s-.036,0-.031,0,.009.006,0,0c-.321-.06-.2-.1.075-.16C1047.554,7217.12,1049.928,7217.138,1050.836,7217.109Zm-3.569,1.146.013,0C1047.245,7218.261,1047.216,7218.268,1047.267,7218.255Zm-.726-.269a.044.044,0,0,0,.012,0l0,0s0,0-.031.013.007-.008.019-.02Z" fill="#47aea9"/>
    <path id="Path_7616" data-name="Path 7616" d="M1048.681,7218.059h0c-.013,0-.006,0,0,0l0,0h-.005Z" fill="#47aea9"/>
    <path id="Path_7617" data-name="Path 7617" d="M1061.945,7217.465c-.068.02,0,.006,0,0h0c.092.015.231.036-.041-.01h-.017Z" fill="#47aea9"/>
    <path id="Path_7618" data-name="Path 7618" d="M1049.14,7218.158a.6.6,0,0,0-.254-.009C1048.883,7218.159,1049.164,7218.185,1049.14,7218.158Z" fill="#47aea9"/>
    <path id="Path_7619" data-name="Path 7619" d="M484.106,7238.414a.331.331,0,0,0-.1,0,.257.257,0,0,0,.053.007C484.071,7238.416,484.105,7238.419,484.106,7238.414Z" fill="#47aea9"/>
    <path id="Path_7620" data-name="Path 7620" d="M1106.028,7217.243c.44-.123-.859-.152-1.131-.143a8.4,8.4,0,0,0-2.009.242A12.658,12.658,0,0,0,1106.028,7217.243Z" fill="#47aea9"/>
    <path id="Path_7621" data-name="Path 7621" d="M573.422,7218.138l-.014,0h.014Z" fill="#47aea9"/>
    <path id="Path_7622" data-name="Path 7622" d="M1047.287,7218.254h0Z" fill="#47aea9"/>
    <path id="Path_7623" data-name="Path 7623" d="M997.218,7261.808c-.347-.011-.95-.035-.667.111a6.944,6.944,0,0,0,1.819.15c.387,0,.734.007.578-.1A8.777,8.777,0,0,0,997.218,7261.808Z" fill="#47aea9"/>
    <path id="Path_7624" data-name="Path 7624" d="M881,7261.73a11.529,11.529,0,0,0-2.174.053c-.147.02-.039.062.072.076a18.544,18.544,0,0,0,2.137.017c.472,0,.925-.042.792-.109A3.848,3.848,0,0,0,881,7261.73Z" fill="#47aea9"/>
    <path id="Path_7625" data-name="Path 7625" d="M1114.535,7259.819c-.108,0-.589-.014-.67,0-1.576.178-3.154.266-4.688.436-.035,0-.041,0-.017,0,1.13.075,2.288.057,3.43.035l.119,0h.057c.02,0,.016,0,.011,0h0c-.008,0-.006,0,.057,0l.054,0c.208-.017,1.031.015,1.32-.038s.5-.258.75-.32S1114.642,7259.824,1114.535,7259.819Z" fill="#47aea9"/>
    <path id="Path_7626" data-name="Path 7626" d="M1071.956,7261.056c-.112.017-.247.05-.2.068a4.889,4.889,0,0,0,.6.012c.118,0,.284-.022.174-.065A1.834,1.834,0,0,0,1071.956,7261.056Z" fill="#47aea9"/>
    <path id="Path_7627" data-name="Path 7627" d="M1117.214,7259.973c-1.023.016-.936.027-1.182.256,1.69-.032,3.325-.058,5-.1.063,0,.2-.067.087-.077C1119.97,7259.953,1118.237,7259.957,1117.214,7259.973Z" fill="#47aea9"/>
    <path id="Path_7628" data-name="Path 7628" d="M763.1,7262.345c-.737.072-.1.113.251.106C763.445,7262.449,763.223,7262.332,763.1,7262.345Z" fill="#47aea9"/>
    <path id="Path_7629" data-name="Path 7629" d="M644.994,7260.531a.578.578,0,0,0-.229-.012A.459.459,0,0,0,644.994,7260.531Z" fill="#47aea9"/>
    <path id="Path_7630" data-name="Path 7630" d="M662.8,7261.57c-4.264,0-8.537.082-12.772.093-.327,0-.65-.016-.869-.034s-.2-.041-.055-.073.651-.065.814-.088.264-.042.218-.087.02-.019-.187-.06-.534-.085-.924-.131-1.123-.142-1.549-.221a.383.383,0,0,1-.066-.014c-.028-.011-.122-.023-.165-.042s-.151-.033-.152-.069-.183-.081-.108-.123c.372-.213.054-.46-.228-.308l-.072.039c-.521.034-1.1.054-1.6.092-.083.007,0,.067-.033.076-.017,0-.013,0-.008,0s.011,0-.008,0,0,0,0,0-.056.011-.206.03c-.316.042-1.772.19-2.1.22a1.093,1.093,0,0,0-.158.016l-.042,0-.057,0c-.14.006-.432-.01-.674,0s-.511.07-.778.108a14.8,14.8,0,0,1-2.562.173c-.858-.033-1.925-.083-2.681-.167a23.032,23.032,0,0,0-4.229,0l-.218.027a.666.666,0,0,0,.1-.013l-.048.006c.069-.012.014-.005,0,0h0a.284.284,0,0,0-.068.01l-.034,0-.085.007a10.777,10.777,0,0,1-1.65-.093,17.084,17.084,0,0,0-4.373-.021c-1.651.155-3.388.275-4.893.549-.03,0,.039.019.074.02.669,0,1.878-.017,2.432-.008a7.279,7.279,0,0,1,1,.091h.021a.2.2,0,0,0-.05.016c-.092.046-.967.176-1.2.211s-.166.14.077.14c1.725,0,2.836.162,4.7.161,2.978,0,6.408-.051,9.527-.089,1.751-.021,3.352-.059,5.152-.182a42.142,42.142,0,0,1,5.4-.014c1.968.108,4.371.147,6.431.239.261.012.422-.115.758-.092a13.118,13.118,0,0,0,1.7.042,26.688,26.688,0,0,1,4.84-.221c2.361.014,4.8-.029,7.172-.119-.152-.012-.3-.044-.459-.05C666.19,7261.581,664.477,7261.57,662.8,7261.57Zm-31.486-.524c.013,0,.032,0-.033,0Zm-.221.233c-.389.025-1.4.093-1.731.106s-.565.048-.665.039-.042-.09,0-.119c.258-.163.65-.028,1.2-.028a12.747,12.747,0,0,0,1.859-.115C631.623,7261.262,631.487,7261.255,631.1,7261.279Zm13.327-.284c-.007,0-.012.008-.019,0S644.413,7260.992,644.425,7261Zm-.306.154c.557.452-1.693.375-2.635.386.959-.107,1.819-.293,2.739-.417.215-.029.285-.066.244-.107a.061.061,0,0,0-.026-.018h0C644.715,7261.08,644.38,7261.116,644.119,7261.149Zm2.579-.7h-.007l0,0h0C646.692,7260.452,646.707,7260.451,646.7,7260.452Zm0,0,0,0h0l.009-.005Z" fill="#47aea9"/>
    <path id="Path_7631" data-name="Path 7631" d="M649.2,7259.975s.056.015.056.006S649.206,7259.97,649.2,7259.975Z" fill="#47aea9"/>
    <path id="Path_7632" data-name="Path 7632" d="M648.3,7260.065l-.027.013,0,0a7.017,7.017,0,0,0-.718.083c-.074.013-.072.012.025,0l.745-.082.781-.089c.126-.014.057,0,.081-.011s-.091,0-.087,0,.028,0,.023,0-.006,0-.032,0A2.99,2.99,0,0,0,648.3,7260.065Z" fill="#47aea9"/>
    <path id="Path_7633" data-name="Path 7633" d="M645.076,7260.542c.007,0,.006,0,0,0a.264.264,0,0,0-.055,0c-.009,0,.015.006.021.006s.026,0,.023,0l-.021,0S645.071,7260.542,645.076,7260.542Z" fill="#47aea9"/>
    <path id="Path_7634" data-name="Path 7634" d="M587.427,7260.734c-.519.1.653.16.949.153a14.424,14.424,0,0,0,2.376-.217A16.3,16.3,0,0,0,587.427,7260.734Z" fill="#47aea9"/>
    <path id="Path_7635" data-name="Path 7635" d="M1120.762,7259.816a3.449,3.449,0,0,0-.444-.058c-.1-.015-.526-.038-.529.022s.282.059.411.063A3.872,3.872,0,0,0,1120.762,7259.816Z" fill="#47aea9"/>
    <path id="Path_7636" data-name="Path 7636" d="M685.775,7260.281c.172.005.174-.022.14-.026S685.6,7260.276,685.775,7260.281Z" fill="#47aea9"/>
    <path id="Path_7637" data-name="Path 7637" d="M649.273,7259.97c0,.023.114.028.108.012S649.275,7259.947,649.273,7259.97Z" fill="#47aea9"/>
    <path id="Path_7638" data-name="Path 7638" d="M832.971,7261.7c-.1-.007-.189.109-.09.108C833.421,7261.8,833.633,7261.744,832.971,7261.7Z" fill="#47aea9"/>
    <path id="Path_7639" data-name="Path 7639" d="M838.261,7261.346l.37-.435C838.029,7261.041,837.807,7261.147,838.261,7261.346Z" fill="#47aea9"/>
    <path id="Path_7640" data-name="Path 7640" d="M843.019,7261.87c-.213,0-.282.1-.289.148s.042.141.218.154a1.765,1.765,0,0,0,.776-.1C843.8,7261.98,843.233,7261.869,843.019,7261.87Z" fill="#47aea9"/>
    <path id="Path_7641" data-name="Path 7641" d="M686.016,7260.25h-.033s0,0,0,0-.027,0-.022.006a.137.137,0,0,0,.057,0h0C686.021,7260.25,686.017,7260.25,686.016,7260.25Z" fill="#47aea9"/>
    <path id="Path_7642" data-name="Path 7642" d="M652.39,7260.745c.417-.012.706-.068.264-.169a14.262,14.262,0,0,0-1.783-.1c.131.082-.045.12.237.193A5.991,5.991,0,0,0,652.39,7260.745Z" fill="#47aea9"/>
    <path id="Path_7643" data-name="Path 7643" d="M649.87,7260.416c-.54-.064-.13-.3-.474-.422-.019-.006.022.018.026.023C649.475,7260.091,649.591,7260.582,649.87,7260.416Z" fill="#47aea9"/>
    <path id="Path_7644" data-name="Path 7644" d="M844.381,7261.921l-.265,0a2.762,2.762,0,0,0-.282-.014,1.568,1.568,0,0,0,.3.066c.093.012.52.05.543.059s-.221.033-.06.049a3.566,3.566,0,0,0,.547.033c.06-.019.268-.118.236-.13-.051-.018-.675-.075-.8-.081A2.271,2.271,0,0,0,844.381,7261.921Z" fill="#47aea9"/>
    <path id="Path_7645" data-name="Path 7645" d="M659.586,7259.862c-.517.022-1.29-.115-1.762-.058-.544.066-.231.2.317.207A3.269,3.269,0,0,0,659.586,7259.862Z" fill="#47aea9"/>
    <path id="Path_7646" data-name="Path 7646" d="M889.326,7261.675l.642.018Z" fill="#47aea9"/>
    <path id="Path_7647" data-name="Path 7647" d="M958.579,7261.5c-.008.018.162-.025.118-.033A.149.149,0,0,0,958.579,7261.5Z" fill="#47aea9"/>
    <path id="Path_7648" data-name="Path 7648" d="M1069.658,7260.087c.248,0,.45.011.706.016.9.017,1.827.014,2.736,0A22.742,22.742,0,0,0,1069.658,7260.087Z" fill="#47aea9"/>
    <path id="Path_7649" data-name="Path 7649" d="M1064.3,7260.548c-.023.007.159,0,.036,0Z" fill="#47aea9"/>
    <path id="Path_7650" data-name="Path 7650" d="M694.205,7260.929l.376,0Z" fill="#47aea9"/>
    <path id="Path_7651" data-name="Path 7651" d="M1074.286,7260.06c-.339.018-.817.033-1.184.04a10.04,10.04,0,0,1,1.536.295c.022.006-.118.015.319.044a17.067,17.067,0,0,1,2.21-.052.709.709,0,0,0,.093.008l.366.064c1.861.323,7.6.154,10.973-.056,2.76-.171,6.668.036,9.609-.063a25.539,25.539,0,0,0,2.917-.134q-12.044.034-24.106.056A6.782,6.782,0,0,0,1074.286,7260.06Z" fill="#47aea9"/>
    <path id="Path_7652" data-name="Path 7652" d="M967.512,7261.469a7,7,0,0,0-1.008,0c-.137.022-.03.007-.031.008-.105.18.43.486.989.5,1.331.029.413-.314.075-.5A.08.08,0,0,0,967.512,7261.469Z" fill="#47aea9"/>
    <path id="Path_7653" data-name="Path 7653" d="M1064.12,7260.553h-.022C1064.263,7260.553,1064.2,7260.552,1064.12,7260.553Z" fill="#47aea9"/>
    <path id="Path_7654" data-name="Path 7654" d="M1064.1,7260.553h0Z" fill="#47aea9"/>
    <path id="Path_7655" data-name="Path 7655" d="M1091.671,7258.673a.1.1,0,0,0,.03,0h.007c.011,0,.018,0,.013-.006a.11.11,0,0,0-.052,0s.007,0,.005,0h-.007C1091.662,7258.672,1091.668,7258.672,1091.671,7258.673Z" fill="#47aea9"/>
    <path id="Path_7656" data-name="Path 7656" d="M1091.761,7258.666c.051,0,.243-.026.088-.028S1091.709,7258.663,1091.761,7258.666Z" fill="#47aea9"/>
    <path id="Path_7657" data-name="Path 7657" d="M664.776,7259.853c-.655.011-1.663,0-2.212-.038a11.76,11.76,0,0,0-2.264.044,12.317,12.317,0,0,0,3.106.167,10.843,10.843,0,0,0,1.543,0,.058.058,0,0,1,.026,0l.223.009c.436.019,1.67-.006,2.211.008.269.007.083.229.332.242.466.023,1.14-.049,1.63-.072.015,0,.014,0,.01,0h.041c.1,0,.269,0,.4,0s.291-.01.418,0c1.608.1,3.042.052,4.676,0a13.317,13.317,0,0,0,3.142-.126c.02-.006.034,0,.105,0s-.306.023.463-.015c.313-.016,1.487-.1,1.932-.141-.264-.005-.565-.005-.859-.009C674.718,7259.849,669.766,7259.776,664.776,7259.853Z" fill="#47aea9"/>
    <path id="Path_7658" data-name="Path 7658" d="M664.983,7260.026l.026,0C665.037,7260.029,665.005,7260.027,664.983,7260.026Z" fill="#47aea9"/>
    <path id="Path_7659" data-name="Path 7659" d="M1097,7259.889c-.568.022-1.343.035-.221.112.541.038,1.654.043,2.286.053C1099.2,7259.741,1097.57,7259.866,1097,7259.889Z" fill="#47aea9"/>
    <path id="Path_7660" data-name="Path 7660" d="M505.895,7257.523a.317.317,0,0,0-.1,0,.257.257,0,0,0,.053.007C505.86,7257.526,505.895,7257.528,505.895,7257.523Z" fill="#47aea9"/>
    <path id="Path_7661" data-name="Path 7661" d="M1091.8,7260.048a1.759,1.759,0,0,0,.416-.047c-.023-.013-.473-.015-.635-.024s-.67.006-.439.057A2.763,2.763,0,0,0,1091.8,7260.048Z" fill="#47aea9"/>
    <path id="Path_7662" data-name="Path 7662" d="M1117.956,7258.714q.934.029,1.876.054c.244-.178-.185-.2-.707-.219S1118.056,7258.515,1117.956,7258.714Z" fill="#47aea9"/>
    <path id="Path_7663" data-name="Path 7663" d="M991.779,7261.429c-.3,0-.455-.015-.738-.014-3.569.008-6.915.026-10.557.041s-7.6-.006-11.3,0c-.152,0-.312.022-.455.03l5.32.071.244,0h.169c5.577.083,11.485.119,16.961.148a5.344,5.344,0,0,0,1.973-.11C993.848,7261.4,992.078,7261.428,991.779,7261.429Z" fill="#47aea9"/>
    <path id="Path_7664" data-name="Path 7664" d="M1128.683,7258.308c.005,0-.057.008-.049.01h.01A.278.278,0,0,0,1128.683,7258.308Z" fill="#47aea9"/>
    <path id="Path_7665" data-name="Path 7665" d="M1189.9,7258.016c.042.007.017,0,.007,0S1189.9,7258.015,1189.9,7258.016Z" fill="#47aea9"/>
    <path id="Path_7666" data-name="Path 7666" d="M1189.751,7258a15.077,15.077,0,0,0-1.56-.053c-.5.019-1.293.052-1.432-.172a9.344,9.344,0,0,0-1.938-.124c-1.356.036-3.929.056-4.961.057h-.137c-.183-.015-.05-.009-.1-.035-.474-.241-.89-.193.748-.205.779,0,2.743-.088,3.661-.2-2.865-.058-5.774-.006-8.668.066-.016,0,.017.008-.025-.007s.129.052-.108-.039a2.967,2.967,0,0,0-1.531-.285c-.021,0-.01-.007-.026,0a24.815,24.815,0,0,1-4.168.078,12.305,12.305,0,0,0-3.3.053l.012-.01c0-.01-.117.011-.073.017a.112.112,0,0,0,.045,0c-.008.009.075.036-.41.086-.528.055-2.536.122-3.43.232-.013,0-.885.016-.962.009a11.263,11.263,0,0,0-3.142.1h.005l-.041,0c-.118.01.291-.03-.239.013a18.529,18.529,0,0,1-2.874.047,14.81,14.81,0,0,0-2.965-.144c-1.14.019-2.142.029-3.312.065s.8.177-1.08.137-3.917-.063-5.832.056c-.013,0,.148.031-.013,0a12.32,12.32,0,0,0-1.6-.1,34.862,34.862,0,0,1-4.558.222c-1.141.012-1.079,0-1.6.183-.051.018.035,0,.017.008a15.729,15.729,0,0,1-2.8.209,8.026,8.026,0,0,0-.979.059c-1.241.222-.178.31.961.317s3.577-.22,4.129.286a33.433,33.433,0,0,0-3.85.02c-.494.03-.96.111-1.464.119-1.976.031-3.953.089-5.94.109a43.08,43.08,0,0,0,4.821.234c.226,0,1.045-.22,1.281-.236a.289.289,0,0,0,.069-.008l.132.01a6.185,6.185,0,0,1,1.246.2,8.087,8.087,0,0,0,2.952.172c.03,0-.037,0,.013,0h.015l.095,0a6.809,6.809,0,0,0,1.485-.028c.073-.03.016.006.045,0s-.042.007.091.007a2.025,2.025,0,0,0,.611-.006,1.407,1.407,0,0,1,.586-.155,24.477,24.477,0,0,1,6.086-.054c.062.009.059-.019.088-.017.006,0,0,0,.008,0s0,0,.025,0,.059-.006.121-.006c.971,0,2-.149,2.913-.188,1.085-.046,2.4.05,3.405-.007s1.809-.3,2.538-.378a5.082,5.082,0,0,1,1.2.039,10.311,10.311,0,0,0,3.4.209c.886-.028,1.949-.03,1.576-.3l-.024,0,.215-.009c.507-.027-1.06.043,1.028-.05s7.238-.26,9.9-.23a9.8,9.8,0,0,1,1.665.156c.138.021-.069-.008.036.012-.058-.011-.179-.031.113.042a10.272,10.272,0,0,0,2.564-.013c.014,0-.05,0,.119.012s.639.053.988.066a10.626,10.626,0,0,0,1.428-.106c.289-.047.6-.074.72-.1l.029-.008.025,0c.009,0,.034,0,.1.007.247.011-.665-.03.546.027a43.587,43.587,0,0,0,5.881-.149,31.391,31.391,0,0,1,3.189-.145,20,20,0,0,0,2.342-.135C1189.893,7258.011,1189.987,7258.023,1189.751,7258Zm-49.3.967.008,0h-.008Zm27.182-.869c-1.116,0-2.291.011-3.414.039-2.693.066-5.5.127-8.153.1-2.005-.022-3.643.049-5.6.115a47.56,47.56,0,0,0-8.07.653.343.343,0,0,1-.131-.012c-.034-.006-.09-.047-.119-.051h-.01c0-.023.011.016.043-.019s.013.075.208-.082c.168-.137-.8-.323-1.47-.311,2.783-.21,5.588-.337,8.444-.4,4.153-.093,8.313-.142,12.459-.286.284-.01.534-.067.822-.067a27.6,27.6,0,0,1,4.975.32C1167.631,7258.094,1167.661,7258.1,1167.637,7258.1Zm5.636-.287a26.378,26.378,0,0,0-3.459.145,7.549,7.549,0,0,0,1.7-.436c.363.017.356.029.811.041s1.529.031,2.027.03.706-.021,1.156-.043C1175.487,7257.886,1174.253,7257.806,1173.273,7257.809Z" fill="#47aea9"/>
    <path id="Path_7667" data-name="Path 7667" d="M1134.736,7259.528h0Z" fill="#47aea9"/>
    <path id="Path_7668" data-name="Path 7668" d="M1127.382,7258.523a2.449,2.449,0,0,0-.554-.181,7.046,7.046,0,0,0-1.386-.048c-.481.033-.476.106.052.172S1126.782,7258.515,1127.382,7258.523Z" fill="#47aea9"/>
    <path id="Path_7669" data-name="Path 7669" d="M1149.882,7260.368l3.976-.178A24.5,24.5,0,0,0,1149.882,7260.368Z" fill="#47aea9"/>
    <path id="Path_7670" data-name="Path 7670" d="M1134.727,7259.529h.009c.014,0,.064.005,0,0h-.01Z" fill="#47aea9"/>
    <path id="Path_7671" data-name="Path 7671" d="M1161.893,7258.841c.257.012.712-.042.424-.093a7.733,7.733,0,0,0-1.022-.037c-.282-.006-.652.031-.35.081A8.193,8.193,0,0,0,1161.893,7258.841Z" fill="#47aea9"/>
    <path id="Path_7672" data-name="Path 7672" d="M1150.325,7259.274c-2.921.088-5.663.109-8.514.312-.5.036-1.1.027-1.627.033-3.519.041-7.2.132-10.648.191a17.459,17.459,0,0,0-3.237.236,37.332,37.332,0,0,0,3.905-.088c.633-.061,1.512-.083,2.215-.08,2.662.009,6.535-.126,8.767-.178.758-.017.792-.015.855-.015-.014,0-.03,0-.04,0a1.407,1.407,0,0,0,.153,0h.06c1.421,0,2.983-.04,4.47-.072,5.055-.107,9.732-.256,14.883-.379s10.828-.263,16.058-.355a15.253,15.253,0,0,0,1.7-.12c-2.046.015-4.288.008-6.29.036C1165.413,7258.9,1157.87,7259.047,1150.325,7259.274Z" fill="#47aea9"/>
    <path id="Path_7673" data-name="Path 7673" d="M1137.088,7259.507c.011.007.136-.039.1-.04S1137.076,7259.5,1137.088,7259.507Z" fill="#47aea9"/>
    <path id="Path_7674" data-name="Path 7674" d="M1128.6,7258.342c.116-.02.505-.08.56-.092s.042-.006-.008-.006a2.024,2.024,0,0,0-.434.063c.018.022,0,0,0,0s0,0,0,0h0l-.019,0,.019,0-.033.006s.036,0,.027,0l-.137.025C1128.57,7258.343,1128.592,7258.344,1128.6,7258.342Z" fill="#47aea9"/>
    <path id="Path_7675" data-name="Path 7675" d="M1128.567,7258.341l.115-.021a.163.163,0,0,0-.039,0c-.024,0-.08.021-.1.025Z" fill="#47aea9"/>
    <path id="Path_7676" data-name="Path 7676" d="M1128.575,7258.341h0Z" fill="#47aea9"/>
    <path id="Path_7677" data-name="Path 7677" d="M1099.148,7258.756c-.8.036-2.161.131-3.066.176.742,0,1.495-.006,2.257,0,4.882.014,9.725.022,14.6-.128.641-.02,1.671-.021,2.213.006a9.361,9.361,0,0,0,2.123-.077,15.963,15.963,0,0,0-3.275-.122,8.462,8.462,0,0,0-1.523.023c-.015,0,0,0-.06,0s.217,0-.191,0-1.685.042-2.146.018-.383-.213-.79-.238a13.668,13.668,0,0,0-1.451.094c-.043,0,.055,0-.046,0s-.264.006-.388.005-.283.014-.406.008a43.853,43.853,0,0,0-4.469.055,14.788,14.788,0,0,0-2.711.121l-.571-.174c.1.048.038.146.032.227Z" fill="#47aea9"/>
    <path id="Path_7678" data-name="Path 7678" d="M1096.073,7258.933q-1.3,0-2.6.009C1094.349,7258.981,1095.2,7258.969,1096.073,7258.933Z" fill="#47aea9"/>
    <path id="Path_7679" data-name="Path 7679" d="M1143.434,7257.149c-.028.02.033.008.021,0S1143.441,7257.145,1143.434,7257.149Z" fill="#47aea9"/>
    <path id="Path_7680" data-name="Path 7680" d="M1128.446,7258.351a1.633,1.633,0,0,0,.171-.031s-.123.008-.149.01S1128.43,7258.35,1128.446,7258.351Z" fill="#47aea9"/>
    <path id="Path_7681" data-name="Path 7681" d="M1128.6,7258.343h-.029l-.095.017c-.015,0,.082-.017.051-.012s-.02,0-.107.02.106-.018-.147.029S1128.3,7258.4,1128.6,7258.343Z" fill="#47aea9"/>
    <path id="Path_7682" data-name="Path 7682" d="M1131.038,7257.845c0,.01.267.036.243.009A.562.562,0,0,0,1131.038,7257.845Z" fill="#47aea9"/>
    <path id="Path_7683" data-name="Path 7683" d="M1130.945,7257.837c-.007,0,0,0,0,0a.273.273,0,0,0,.056,0c.009,0-.024-.006-.029,0l-.019,0s.015-.006.016,0Z" fill="#47aea9"/>
    <path id="Path_7684" data-name="Path 7684" d="M1186.544,7256.827c.43-.125-.878-.15-1.147-.14a7.833,7.833,0,0,0-1.968.251A12.305,12.305,0,0,0,1186.544,7256.827Z" fill="#47aea9"/>
    <path id="Path_7685" data-name="Path 7685" d="M1091.673,7258.405l-.173.053.385.065Z" fill="#47aea9"/>
    <path id="Path_7686" data-name="Path 7686" d="M1064.3,7260.548c-.212.014-.086.006.006,0l.056,0-.061,0Z" fill="#47aea9"/>
    <path id="Path_7687" data-name="Path 7687" d="M617.163,7260.425h0Z" fill="#47aea9"/>
    <path id="Path_7688" data-name="Path 7688" d="M1275.872,7233.78c2.016-1.085,1.905-1.119-1.654-1.174-3.746-.059-7.479.251-11.215,0l-10.966-.036c0-.079,0-.159,0-.238l9.15-.387a3.119,3.119,0,0,0-1.37-.336c-7.508.071-15.016-.023-22.529.02q-4.731.027-9.463.015c.849-.1,1.8-.129,2.819-.163-1.288-.788-3.72-1.187-6.507-1.423l.172,0c-.11-.008-.284-.015-.475-.021-.3-.024-.608-.046-.916-.067h.011c.348-.025,1.289-.015,1.783,0,2.3.059,1.506-.036,1.856-.061.277-.02-.466-.051-.275-.081,1.4-.076.955-.106-1.781-.118v-.035l.891-.015-.123,0h.038l.085,0c.747,0,1.579.014,2.228-.014,1.055-.047-.046-.062-.827-.076-1-.019-2.073-.033-3.114-.049h0c-.013-.017-.029-.039.538-.037,1.4,0,2.758-.024,4.163-.008.805.052,2.332.012,3.311.04.888.026,1.727.044,2.455-.007.681-.047.4-.148-.569-.163-1.836-.029-3.613-.066-5.595-.08-3.384-.027-6.062-.119-9.305-.159a2.366,2.366,0,0,0-.073-.264h.1c.639-.012,1.084-.028.545-.058h0c.188-.016.574-.017.941-.02a14.317,14.317,0,0,1,1.869.106,8.209,8.209,0,0,0,1.163.032c.812-.024,2.378-.006,2.524-.061a10.089,10.089,0,0,0-1.446-.052c-1.257-.006-2.276-.029-3.182-.062,0,0-.028-.009-.084-.013.189-.013.516-.014.843-.014h0c1.848,0,3.622.012,5.342.044l.242-.019-1.224-.062h0c-.1-.015-.3-.029.335-.038s.856-.027.084-.045h-1.723c-2.1.01-4.014-.024-6.012-.038h0c-.133-.005-.282-.009-.435-.012h0c4.471-.018,8.941.078,13.411.054,2.249-.011,4.651.118,6.5-.453,5.148-.583,10.461-.986,15.808-1.349h0a5.011,5.011,0,0,0,2.88-.522h0l3.62-.595c.833-.069,1.024-.271,1.105-.5h0c2.015-1.085,1.9-1.118-1.655-1.174-3.745-.059-7.479.251-11.215,0l-10.965-.037c0-.079,0-.158,0-.238l9.15-.387a3.119,3.119,0,0,0-1.37-.336c-7.509.071-15.016-.023-22.53.02-1.708.01-3.418.01-5.127.012.68-.218.64-.554.537-1.31a4.88,4.88,0,0,0-.269-.826,1.018,1.018,0,0,0-.65-.223c1.149-.72-1.077-.567-2.274-.6-.751-.025-1.5-.042-2.255-.057a50.146,50.146,0,0,0,5.062-.2c1.21-.437.619-.752-.735-1.014-7.347-.051-14.676,0-22.029.1q-13.072.175-26.171.254c-.133-.013-.266-.025-.394-.031-.214-.011-.479-.021-.68-.023s-.47,0-.618-.007-.181-.03-.273-.032c-3.061-.064-5.986-.1-9.084-.137-.527-.006-.964-.008-1.637-.014-6.269-.052-11.516-.087-18.13-.152-9.721-.1-20.685-.163-30.648-.206a5.737,5.737,0,0,0,.716-.085c0-.006.011-.007.019-.009a1.185,1.185,0,0,1-.122-.013,12.606,12.606,0,0,0-1.457-.059c-.479.013-1.237.042-1.309-.179a7.5,7.5,0,0,0-1.835-.124,45.89,45.89,0,0,1-4.9.03c-.015,0,0,.009-.014,0-.048-.022-.037-.012-.132-.051-.608-.247-.729-.2.88-.188.765.006,2.794-.084,3.72-.191-2.89-.095-5.778-.093-8.684.045l-.05-.006c-.1-.011.088.008-.218-.028s-1.073-.224-1.4-.294c-.048-.011-.072-.017-.087-.022a2.731,2.731,0,0,1-.378,0c-.742-.015-2.826.071-3.933.055a12.528,12.528,0,0,0-3.262.061l.008-.008c.005-.011-.114.008-.065.016a.07.07,0,0,0,.033,0c-.005.01.076.027-.411.081-.535.06-2.618.118-3.539.226-.014,0-.9.015-.98.007a11.8,11.8,0,0,0-3.218.089h0l-.043,0c-.117.01.3-.029-.237.013a19.3,19.3,0,0,1-2.91.04,15.654,15.654,0,0,0-3.041-.15c-1.12.016-2.385.029-3.409.058-1.439.041.916.179-1.157.136s-4.1-.067-6.179.048c-.018,0,.163.031-.01,0a13.1,13.1,0,0,0-1.666-.106,38.89,38.89,0,0,1-4.787.218,3.777,3.777,0,0,0-1.707.182c-.01,0,.008,0,.02.005s.216,0-.472.067c-.8.081-2.453-.049-3.835-.058-14.091-.087-28.514-.06-42.709-.084-1.6,0-3.209-.009-4.8-.012.184-.026.365-.107.188-.159a3.738,3.738,0,0,0-.807-.1c-.244,0-1.567.018-.98-.1s1.491-.082,2.024-.194l.022,0h.132a18.794,18.794,0,0,0,2.614-.039c.63-.133.663-.233-.193-.34a41.359,41.359,0,0,0-4.419-.263c-.944-.015-2.536-.13-3.036.265a4.665,4.665,0,0,1-1.288.044,24.876,24.876,0,0,0-5.7.245,32.423,32.423,0,0,1-4.8.351c-1.634.037-3.175.043-4.779.065-3.165.042-6.309.082-9.466.161-13.06-.034-26.175-.073-39.215-.093-1.506,0-3.087,0-4.462.034s-2.5.027-3.758.022c-5.145-.019-10.2-.056-15.329-.045h-.046q-3.934-.022-7.873-.029c-.159-.022-.317-.045-.481-.062-.419-.042-.532-.013-.326.06q-3.725-.01-7.446-.023-38.556-.18-77.119-.41c-8.4-.05-16.769-.061-25.15-.161a40.622,40.622,0,0,0-6.272.01,2.376,2.376,0,0,1-.3.04c-.911.077-1.869-.057-2.9-.062-20.832-.11-41.745-.17-62.613-.24-1.609,0-3.186,0-4.833-.016-.3,0-.427-.007-.919,0s-1.357,0-2.036,0c-3.357-.024-6.8-.1-10.2-.082-5.45.034-10.927.045-16.373.016-1.675-.009-3.2.057-4.873.085l-.327,0a16.208,16.208,0,0,0-2.468-.252c-.209.106-.31.193-.338.269-1.073,0-2.139,0-3.2.013-.4-.094-.938-.2-1.659-.336-.336.082-.2.222,0,.37-1.257.037-2.511.1-3.766.228-.015,0,.031,0-.043-.007s.222.015-.181-.027a6.065,6.065,0,0,0-1.891.147h0a1.162,1.162,0,0,0-.156,0c-.251.015-.89.057-1.234.056q-17.928-.02-35.832-.056c-1.6,0-3.162-.011-4.8-.025-.31,0-.423-.009-.914,0s-1.352.006-2.023,0c-3.325-.026-6.8-.117-10.146-.091-5.38.04-11,.069-16.284.02-1.625-.014-3.533.108-4.833.1-3.1-.013-9.493.1-11.174.3-1.645.191-.322.038-.382.044l-.178.021c.03,0,.078-.011.008-.006h-.016s-.028,0-.194,0a12.442,12.442,0,0,0-1.834.128c-.011,0,.006,0-.012,0s0,0-.021,0,.03,0,0,0c-.06.006-.078.006-.19.015-.647.052-1.8.1-2.364.132s-.442.126-.9.13h-.007s-.009,0-.005,0l.005,0,0,0s.007,0,0,.005-.009,0-.005-.006-.013-.006-.012.033c0,.058-.106-.08-.1.114,0,.024,0,.047,0,.067-4.958.065-9.866.135-14.657.218-4.572.079-9.284.149-13.461.26h0c-4.108.053-7.765.135-11.088.244-1.183.039-2.3.072-2.637.133l-.991.045h0c-4.328-.031-7.815.014-10.027.172h0c-.549.017-.964.037-1.34.059q-3.006-.051-6.01-.143a24.251,24.251,0,0,0-3.991.646c.315.007.91.031,1.607.053-1.863.074-2.376.178-1.246.282a.916.916,0,0,1,.228.048h0c-.836,0-1.564.026-2.444.019v.05c.608,0,.8.024,1.2.036.18.021.448.042.525.064.206.058,1.477.109,1.085.167s-.2.1.581.142c-.332.028-1.234.055-.032.084h0c2.864.094,2.959.13.521.2-1.519.051-1.037.1-.084.156h0c.178.053-.109.114,1.359.149h0l.415.016h0c-.036.009,0,.022-.118.024-2.892.06-3.563.131-2.473.265h0c.313.049,1.376.078,2.082.117h0c.147.03,1.281.059-.174.09-1.881.039-2.036.114-.594.195h.011c.126,0,.2.007.247.012l-.247-.012c.546.043-.875.049-1.049.077.268.02.692.021,1.124.022.493,0,1.021,0,1.472,0,1.085.013.843.038-.785.082h0l-1.5,0c-.78,0-1.758-.008-2.029.028a8.1,8.1,0,0,0,1.306.058c1.27.031,1.179.063.164.1-2.625.08-2.631.093-.135.157.207.006.282.019.418.028-.57.073-1.61.143-.712.222a1.286,1.286,0,0,1,.209.015c-.072,0-.143-.009-.209-.015-.2.033.188.057.557.085.746.056,1.6.116.667.183-.566,0-1.017.013-1.214.036-.724.056-1.493.112.14.163,1.6.05,1.351.1-.078.142-.366,0-1.034-.01-.988.012a13.819,13.819,0,0,0,1.419.036h0c2.652.063,2.843.081,1.61.152h0c-.423,0-.919,0-1.255,0-.8.017-2.319-.02-2.372.021s1.555.029,2.4.043c.11.014.657.034.114.042-1.457.023-.746.044-.09.068.41.015.837.028,1.256.043a20.872,20.872,0,0,0,3.024.118H511.5c.852.025.7.07,1.315.1.306.027.564.054.4.084-.752.037-.011.06.636.071,2.178.038,1.855.1,1.166.166h0c-.289.023-1.143,0-1.4.028h0c-.866.042-.826.083.027.124a4.18,4.18,0,0,0,1.258.157h0l.807.031h0c-.006.006.04.015-.027.016-3.04.071-3.767.155-2.457.286h0l.335.018h0c.26.028.8.047,1.339.066h0c-.13.034,1.724.059.289.1-2.006.057-2.215.12-.733.205h0l.074.007-.533.043a4.808,4.808,0,0,0-.587.034l.155,0-1.3.1c-.272,0-.494.01-.609.025-.063.007-.055.014,0,.02-.826.062-1.65.124-2.477.183h0a4.923,4.923,0,0,0-2.862.531h0l-3.6.608c-.83.071-1.014.274-1.087.5h0c-1.977,1.092-1.865,1.125,1.7,1.169,3.747.046,7.47-.277,11.214-.041h7.829a3.379,3.379,0,0,0-.449.176c-.222-.006-.483-.005-.778,0l-.086.243-.159.027-4.519.206a4,4,0,0,0,.638.229c-.279.026-.564.047-.895.048h0l.038-.108a.171.171,0,0,0,.034,0c.3-.038.136-.049-.134-.054h0c-.8.052-1.493.041-2.234.019a35.164,35.164,0,0,0-4.3.122h0c-2.3.085-4.574.179-6.492.4-.027.069.194.072.4.076.452.008,1.168-.02,1.013.082a4.984,4.984,0,0,1-1.1.107q-2.712.119-5.423.243c-1.334.034-1.37.041-.98.193-.981.173-1,.22-.157.369.706.124.621.18-.5.256-.547.037-1.148.051-1.725.075a17.414,17.414,0,0,0-2.769.17l3.57-.078-.125-.015a.558.558,0,0,1,.125.015c1.107-.028,1.944.06,3.015.048h0l5.469-.114c.224,0,.279,0,.149.029-.285.068-.944.009-1.23.09.512.034,1.221-.041,1.81.034-1.829.019-3.347.14-5.394.2,3.623.04,6.86-.2,10.411-.228a11.979,11.979,0,0,0-2.116.2q-5.354.207-10.7.418a23.846,23.846,0,0,0-2.884.266q9.08-.2,18.1-.373c-.343.014-.679.034-1.074.071-.019,0-.086-.009.121.02.119.016.435.04.768.057-4.635.138-9.28.242-13.891.457l5.792-.127c.941.073,2.082-.013,3.118-.016a8.256,8.256,0,0,1,1.358.01,7.318,7.318,0,0,0,1.63.041c.854-.011,1.746-.053,2.557-.028.631.02,1.257,0,1.885-.027a5.877,5.877,0,0,0,1.185.035h.023c.152.008.332.011.528.011h0c-.456.059-.976.055-1.482.069l-13.3.38c2.19.081,4.326.068,6.5.018,2.417-.055,4.8-.078,7.184-.1.435.038.93.047,1.448.044q1.02.03,2.043.045a1.8,1.8,0,0,1-.277.306c-.947.007-1.894.017-2.841.024.116-.025.247-.044.356-.07a17.436,17.436,0,0,0-3.377.065c-.555.1.737.16.9.153s.283.011.437,0a39.621,39.621,0,0,1-4.2.017,23.018,23.018,0,0,1-4.017.055c-2.869,0-5.395.113-8.172.2,1.823.059,3.607.036,5.44.045a3.045,3.045,0,0,1-1.1.208,8.113,8.113,0,0,0-2.036.148c1.457-.01,2.916.024,4.37.086-2.234.133-4.362.184-6.626.1-2.236.1-4.47.133-6.728.15a26.117,26.117,0,0,1-4.757.168,27.99,27.99,0,0,1-2.827.355c.669.015,1.339.016,2,.045a21.532,21.532,0,0,1-3.846.4c.238-.048.474-.093.733-.133-1.529,0-2.575.154-4.19.205-.93.03-1.564.017.574.09,3.387.116,7.824.118,11.372.413-.383-.007-.839-.008-1.247-.012-.036,0,.182.012.06.011s-.822-.015-.965-.018.066,0,.016,0c-2.141-.027-4.286-.036-6.426.022.155,0,.429.015.555.017s-.031-.015.089-.012.307.024.47.026c1.373.017,2.731.019,4.074.128-.718,0-1.438-.009-2.155-.017,1.573.031,3.183.06,4.737.086.049,0-.169-.008-.123-.008.459,0,1.046,0,1.492.009.067,0,.106.022-.081.02,2.432,0,4.9.012,7.328.029.028,0,.086.006.094.006.417.011,1.853.009,2.069.011,4.985.043,9.584.114,14.431.186-.316.167-.82.281-1.091.456a6.864,6.864,0,0,1,2.687.476,1.713,1.713,0,0,0-1.017.158l-.034.017h0l.019,0-.031,0c-.024.012-.026.009-.033,0-.352.027-.155,0-.78.017-3.392.082-7.487.146-10.947.183-.853.009-1.69.046-2.271.06-2.251.054-4.092.086-6.26.132a17.388,17.388,0,0,1-2.377.084c-.593.012-1.142.035-1.57.043-2.881.049-5.577.154-8.379.272-1.181.05-2.351.053-3.5.141a2.034,2.034,0,0,0-.41.028c-.406.046-.452.076.513.1s2.421.17,3.553.212c.359.013.827.025,1.243.029,1.169.011,2.4.022,3.586.049.218,0,.439.014.663.019s.456.01.686.013.471.007.7.009c.963.007,1.895,0,2.874-.015h0l.066,0c.157.009.79.045,1.041.055s.357.014.633.021.644.012.964.016.3,0,.745.009,1.193.008,1.8.019c3.879.074,7.851.108,11.761.122a15.635,15.635,0,0,0-2.522.845,2.053,2.053,0,0,0-1.026-.018c-.235.04-.015.052-.2.052s-.194-.073-.293-.115a1.706,1.706,0,0,0-.5-.046c-.156,0-.353.04-.291.083s.267.087.266.12-.187-.006-.143.007c1.537.452,3.626.571,5.319.947-.054-.016-1.322.012-.958.074s2.135-.058,2.021.208c-4.791-.158-9.472-.516-14.209-.795-.849.355-.334.514.415.835a10.659,10.659,0,0,1,3.79.477,28.488,28.488,0,0,1,5.984.577,72.3,72.3,0,0,1-8.317.155c-3.19.265-6.433.426-9.519.8.191.628,1.456.9,3.114,1.216,4.133.027,8.122.087,12.232-.146.851.438,3.037.136,4,.421s-.967.552.217.8a9.4,9.4,0,0,1,2.171-.08c1.294.7,1.167,1.469,1.847,2.229-2.183-.139-4.375-.171-6.6-.209a6.417,6.417,0,0,1-2.823.444.944.944,0,0,0,.248.365,12.065,12.065,0,0,0-3.079.447c-5.127.6-10.425,1.02-15.76,1.4h0a4.924,4.924,0,0,0-2.862.531h0l-3.6.608c-.831.071-1.014.274-1.087.5h0c-1.977,1.091-1.865,1.124,1.7,1.168,3.747.047,7.469-.276,11.214-.04h10.966c0,.079.005.159.007.238l-9.135.417a3.169,3.169,0,0,0,1.381.332c4.25-.054,8.5-.056,12.752-.06-.277.03-.546.063-.84.084.669.016,1.339.017,2.005.046a21.569,21.569,0,0,1-3.848.4c.239-.047.475-.093.734-.132-1.529,0-2.576.153-4.19.205-.931.029-1.565.016.573.089,3.388.117,7.825.119,11.374.414-.384-.007-.84-.008-1.247-.012-.037,0,.182.012.059.011s-.821-.015-.965-.018.066,0,.017,0c-2.142-.027-4.287-.037-6.427.021.155.006.429.016.554.018s-.031-.015.09-.013.307.024.47.026c1.373.018,2.731.02,4.074.129-.718,0-1.438-.01-2.155-.017,1.573.031,3.184.06,4.737.086.049,0-.168-.008-.123-.008.459,0,1.046,0,1.492.008.068,0,.107.026-.081.018.432.045.883-.05,1.308.02a55.272,55.272,0,0,0,5.72.927c3.11.246,6.934.2,10.239.35.724.033,1.538.1,2.24.155-2.175.044-4.722.073-6.806.1-.872.01-1.692.046-2.275.06-2.256.054-4.09.086-6.261.132a17.361,17.361,0,0,1-2.376.084c-.593.012-1.142.035-1.569.043-2.881.05-5.576.154-8.378.273-1.182.05-2.348.053-3.5.141a2,2,0,0,0-.411.027c-.4.046-.451.077.515.1s2.419.169,3.552.211c.358.014.826.026,1.242.03,1.17.011,2.4.022,3.586.049.217.005.438.014.662.018l.687.014.7.008c.962.007,1.894,0,2.873-.015h0l.067,0c.157.008.79.044,1.04.054s.358.014.633.021.644.012.965.016l.744.009c.447.006,1.189.008,1.8.019,7.278.128,14.633.119,21.944.168l2.306.014.746,0,1.068.006,2.427.017c.6,0,1.038.009,1.439.011l.756.006c1.005.009,1.566.013,2.657.021s2.588.018,3.8.029c.624.006,1.314.011,1.973.015,9.779.059,19.586.14,29.369.2,1.55.011,3.13.024,4.658.032l1.466.007c.392,0,.431,0,.765,0s.7-.006,1.05-.008c1.267-.01,2.53,0,3.8,0-.342.016-.134.066.013.067s-.038-.06.1-.066.263,0,.48,0,.553-.03.833-.024c1.483.034,3,.062,4.5.047.495,0,.986,0,1.477.01-1.012.017-2.077.049-3.073.058-.288,0-.539,0-.766.011a2.567,2.567,0,0,1-.4,0c-.237-.013-.479-.037-.808-.073a6.961,6.961,0,0,0-1.67.071l0,.02c-.052.01.01.007-.088.01s-.241.022-.41.023c-.763.007-1.514.035-2.319.029-1.589-.01-3.259-.045-4.842.06q-9.93.087-19.856.111a9.618,9.618,0,0,0-2.3.456c8.69.065,17.325.148,26.048.194.212.227-.332.123-1.387.1-.585-.01-3.037.05-3.9.145,2.873.1,5.876.094,8.8.058h0l.037.008c.078.014-.085-.016.135.028a9.874,9.874,0,0,1,.959.309.1.1,0,0,1,.034.018c.061,0,.182-.005.432,0,.861.025,2.841-.039,3.986-.008a12.239,12.239,0,0,0,3.327-.023l-.009.009c-.017.014.114-.006.061-.015a.109.109,0,0,0-.03,0c.027-.012.02-.034.323-.073,1.066-.137,2.743-.138,4.081-.182.02,0,.9-.005.96,0a14.709,14.709,0,0,0,3.221-.037l.13-.011c-.059.005-.107.009,0,0,.085-.008-.005,0,.008,0h0l.035,0c.124-.011-.316.03.223-.011a17.01,17.01,0,0,1,2.993-.006,10.845,10.845,0,0,0,2.8.186c1.065-.007,2.453.008,3.35-.017,1.42-.041-1.136-.211,1.119-.13s4.069.1,6.263.043c.005,0,0,0-.005,0a11.481,11.481,0,0,0,1.445.122c1.477-.17,3.68-.151,4.919-.15a5.819,5.819,0,0,0,1.91-.159c.059-.013-.025,0-.005-.008a24.4,24.4,0,0,1,3.135-.163c.335,0,.777-.008,1.082-.042,1.539-.174,1.067-.275-.418-.328a22.947,22.947,0,0,1-3.638-.123c7.157-.044,14.388-.088,21.558-.106.527,0,1.1-.01,1.552.015.179.01-.06.15.046.181,5.183.053,10.394.109,15.588.166-.181.011-.366.024-.544.036,1.549.025,3.159.021,4.7.042-.072,0-.1-.04-.182-.037,2.23.017,4.468.037,6.687.047a8.223,8.223,0,0,1,2.386-.176c.68,0,1.895-.063,2.593-.008.577.046.952.212,1.518.266-2.106-.017-4.236-.043-6.319-.022-.26,0-.615.012-.759.011h-.048c-.948-.068-1.829-.073-2.816-.073s-2.042-.009-3.06-.008a1.486,1.486,0,0,1,.558.186c.106.025.045,0,.081.005s.009,0,.019,0c.08.016.072.07.121.084a18.576,18.576,0,0,0,2.568.175l.147,0h.028a13.663,13.663,0,0,0,2.472.013l.066-.006.052,0c.036,0,0,0,.011,0a5.829,5.829,0,0,0,1.684-.016l.01,0h0s0,0,.005,0h0l.063,0c.129.006.543.009.676.011h.05s.01,0,.06.009c.146.017.72.079.875.073s.024,0,.031,0,.007,0,0,0l-.015.006a.425.425,0,0,0-.075.017c-.144.039-.62.181-.006.193-.579.016-1.136.019-1.707.03,1.569.015,3.11.046,4.654.135a14.879,14.879,0,0,0-1.9.02c.672.016,1.339.032,2,.071-1.059-.006-2.134-.037-3.18-.042.294,0,.332.107-.113.128s-1.339-.015-1.89-.023-1.212,0-1.354.165c-.054.062.407.1.612.107s1.466.03.783.109a13.52,13.52,0,0,0-2.338.155.093.093,0,0,0-.014.018c-.068.016-.071,0-.177-.005a19.742,19.742,0,0,0-2.49-.009c-.647.071-1.191.18-.431.331a25.134,25.134,0,0,0,3.98.34,9.044,9.044,0,0,0,3.246-.222,5.3,5.3,0,0,1,1.3-.025,31.7,31.7,0,0,0,5.914-.168,46.508,46.508,0,0,1,5.141-.278c1.656-.016,3.138,0,4.734,0,4.65,0,8.991.032,13.631-.275.491-.032,1.353-.032,2.033-.031,2.593.007,5.322-.016,7.93.115.642.032,1.38-.006,1.985-.031,2.508-.1,5.408-.133,7.777-.17,1.739-.027,2.614.186,4.2.194s3.18-.121,4.782-.036c.539.028,1.224.034,1.7.1.436.057.576.277.957.363.154-.185-.14-.274-.646-.371,1.7,0,3.394-.057,5.054-.135.273-.012.573-.035.777-.034s.174.078.328.079.168-.091.329-.1c.993-.052,2.176,0,3.2.041l-.511.011a7.255,7.255,0,0,0,1.688.118c4.5-.044,8.887-.012,13.3,0,.232.016.452.029.638.035.676.021.733.016.65-.032.542,0,1.082,0,1.626,0,2.037,0,4.041.021,6.042.041,1.056.021,2.135.032,3.316.032h.562c.894.007,1.8.009,2.7.01,1.824.01,3.7.026,5.49.042,1.042.009,2.125.01,3.209-.012,2.478.077,5.051.087,7.871-.079a9.78,9.78,0,0,1,2.222.054,19.434,19.434,0,0,0,3.829-.009,8.488,8.488,0,0,0-3.11-.235c-1.984.027-3.912.009-5.857,0,4.388-.258,8.776-.321,13.292-.326q.693,0,1.387-.008c-.1.023-.2.047-.306.07.217.008.469.033.641.019a.987.987,0,0,0,.415-.1c1.059-.017,2.115-.047,3.153-.1.572-.029,1.227-.012,1.712-.023.118,0-.365.064-.25.065.079,0,.171,0,.267-.009-.23.045-.308.1-.087.125.936.1.189.325.82.445h1.491a21.834,21.834,0,0,0,3.578-.158H835.3c-1.03-.256-3.52-.213-4.612-.459.3,0,.629.011.8.022.239.015.3.078.429.081s.065-.065.155-.061c.779.035,1.845.092,2.527.164a6.341,6.341,0,0,0,1.959-.008,6.651,6.651,0,0,1,2.52-.082,5.6,5.6,0,0,0,1.555.012,15.5,15.5,0,0,1,1.588,0c1.208-.013,2.1-.034,3.421-.043.223,0,.474,0,.719,0l-3.071.073a12.657,12.657,0,0,0,2.915.108c1.313-.037,2.63-.058,3.942-.079.006.086.005.172.013.258-1,.018-2,.032-3,.067-.1.066-.161.239.259.21.869-.058,1.791-.207,2.744-.218.013.223.026.449.036.679.482-.02.868.081,1.336.075a6.172,6.172,0,0,1,2.054.094c.962-.056,1.97-.171,2.891-.226.273-.016.211.127.224.167.918-.025,1.91.027,2.8.027.469,0,.959-.159,1.351-.17s1.027.027.585.127c2.5-.092,4.986-.256,7.495-.352a9.324,9.324,0,0,1,3.42-.113,1.159,1.159,0,0,1-.3-.09l.152-.01c-.044-.02-.077-.041-.121-.061.019,0,.032,0,.059,0,.977,0,2.028.038,3.051.021.164.011.327.023.5.031-.052.085-.244.132-.462.192.766-.02,1.534-.028,2.3-.059-.4-.025-.781-.059-1.154-.106.713.022,1.457.027,2.215.024a.1.1,0,0,0,.061.027l1.26-.036c.673-.007,1.346-.014,2.006-.014q2.066.036,4.146.064c-.241.022-.389.059-.159.116a6.777,6.777,0,0,0,1.481.025c.329,0,.79-.043.8-.116q2.517.018,5.124-.017a27.158,27.158,0,0,1-3.3.1,17.048,17.048,0,0,0,3.419-.1c.334,0,.66,0,1-.012h0l4.978.032a2.727,2.727,0,0,1-.421.082,9.912,9.912,0,0,0,1.353-.077l.7,0c.275.022.539.063.774.1a9.026,9.026,0,0,0-1.116.055,25.966,25.966,0,0,1,2.962.119c2.512-.055,4.964-.079,7.5-.1.62,0,.97.009,1.728-.051s2.1-.124,2.986-.127,1.487.032,2.416-.04l-.094.011c-.191.022.106,0,.113-.007l.011-.007c.1-.008.17-.019.346-.034a30.1,30.1,0,0,0,3.683-.108h0q.34.009.7-.017h0q2.891,0,5.793-.021c1.2.017,4.28.012,5.993-.03a38.09,38.09,0,0,1,3.875.078c-.764-.072-1.748.124-2.53.008a21,21,0,0,0-3.264.085l-.042.06h0c-.023.028,0,0-.011,0-.893.007-1.752,0-2.653.031-.037,0-.057,0-.158-.006-.764-.045-1.683,0-2.421.032a5.179,5.179,0,0,0-.9.014c-.08.018.048-.01-.106.007s-.626,0-.774.007c-.033,0-.037,0-.038,0s-.047-.007-.258-.021a10.24,10.24,0,0,0-2.289.056c-.015,0-.181-.036.009.012s-.525-.081.26.086a19.046,19.046,0,0,0,4.3-.058,21.1,21.1,0,0,1,2.613-.043c.037,0-.016.014.1,0a3.2,3.2,0,0,1,.772-.02l0,0h.185c.637.007.855.018,2.12-.013,1.923-.047,5.788-.124,7.9-.1,1.43.017,2.47.055,3.644.042,3.447-.037,6.661-.112,10.037-.116a16.02,16.02,0,0,0,1.73-.014,8.187,8.187,0,0,0,1.672-.037c.058-.016-.009-.06.518-.13a23.305,23.305,0,0,1,5.907.153c.073.014.039-.015.065-.015s0,0,.012,0c.343-.03,1.047.034,1.3-.022a2.255,2.255,0,0,1,.581-.061c.239-.012.3.056.54.059.5,0,1.1.015,1.643-.009,1.272-.057,2.682-.047,3.937-.054.728,0,1.322-.068,1.991-.066,4.871.015,9.705.046,14.566.07.447,0,.929.013,1.366.012,5.927-.011,11.783.011,17.716.05,5.409.036,10.88-.094,16.29-.156,4.966-.057,9.9-.17,14.862-.2a.22.22,0,0,1,.058.023c.077.04.075.2-.092.239a.245.245,0,0,0-.042.011l-.1,0a5.635,5.635,0,1,1-.629.038c-1.357.069-4.135.106-6.1.162-2.678.076-6.121.256-8.882.24a2.529,2.529,0,0,1-.445-.068,6.426,6.426,0,0,0-.928-.074.267.267,0,0,1-.048,0c-.022,0,.017,0,.027,0s0,0-.01,0a2.559,2.559,0,0,0-.923-.006l-.008.011-.666-.019c-1.714-.046-4.38-.048-6.7.023-1.787.055-4.71-.02-6.7-.056-.65-.012-1.216.075-1.876.076a16.689,16.689,0,0,0-3.41.065c-.024,0,.071-.016-.062.011a4.633,4.633,0,0,1-.656-.022c-.559-.02-1.231.08-1.706.03l-.043,0h0l.019,0a.027.027,0,0,1-.015,0l.009.012c.026.042.053.023.162.1a2.979,2.979,0,0,0,1.063.144c.2-.023.037,0,.046,0,.052,0,.025-.006.047,0a4.605,4.605,0,0,0,.932.009.982.982,0,0,1,.125-.011c6.11.068,12.225-.011,18.34-.065.012,0-.028,0,.009,0s-.083-.01.045.011.445-.031.616,0,.033.04.284.078a20.484,20.484,0,0,0,3.71-.05c1.9-.1,3.788-.127,5.781-.1,6.526.082,12.589.5,18.831-.323a1.179,1.179,0,0,1,.161.006c.6.02-1.145-.038.821.033,3.115.113,8-.124,11.345-.286,2.542-.123,4.751-.027,7.194-.2a27.011,27.011,0,0,0-7.222.1h-.065a6.588,6.588,0,0,0-.76,0c-2.076,0-6.527.077-8.791.125-1.54.033-1.149.012-1.946-.251-.019-.006.09.007.018,0s.141.017-.068-.018a5.243,5.243,0,0,1-1.057-.131c2.169-.046,4.331-.049,6.465-.2h.02c.07,0-.036,0,.126,0,2.334-.131,5.05-.159,7.365-.195l.52-.009c.063,0-.011,0,.087,0,.082,0-.015,0,.09,0l.079,0h0l.19-.013c.775-.05,3.875-.346,5.066-.441-.742-.026-1.881.03-2.62.048s-1.292-.024-1.939-.023c-2.508,0-4.949.031-7.439.068.724-.026,1.438-.067,2.144-.117.189-.014.315-.085.508-.087,5.318-.057,10.914-.1,16.17-.169s10.17-.082,15.372-.107c2.8-.014,5.625-.009,8.432.038.833.013,1.634-.04,2.495-.019.063,0,.1,0,.269.009,1.322.037,2.793.034,4.138,0,.06,0,.02,0,.043,0s0,0,.01,0c.215.007.406-.031.628,0a3.683,3.683,0,0,0,.98,0v-.018a3.621,3.621,0,0,1,1.212-.387c-3.557.032-7.113.063-10.693.063-9.356,0-18.736-.014-28.1.052-4.63.032-9.255-.025-13.864.146-.1,0-.188-.008-.285-.01-3.32-.075-6.34-.094-9.714.027-2.188.078-4.866.066-7.073.06-.65,0-.354-.007-.5-.133,1.416,0,2.79.031,4.194,0,4.938-.121,9.826-.233,14.788-.32,6.136-.108,12.344-.14,18.5-.184,2.985-.021,6,.007,8.955-.06.261-.006.592-.017.738-.02h.058c1.012.052,1.791.051,2.871.04s2.443-.023,3.579-.031a10.868,10.868,0,0,1-1.493-.181c-.052-.011-.03,0-.054,0s-.01,0-.02,0a2.289,2.289,0,0,1-.251-.08,8.978,8.978,0,0,0-2.785-.188c-.073.023-.1.031-.125.041,0,0,0,0,0,0l-.011,0-.016,0c-.018,0-.011,0-.006,0l-.086-.013a18.722,18.722,0,0,0-2.323.026c-.355.061.036-.008-.1.013l-.011,0s0,0-.01,0a.441.441,0,0,1-.128-.022c-.052-.019-.415-.016-.4-.052a1.107,1.107,0,0,1,.575-.109c1.74.063,3.877.042,5.557-.007a23.443,23.443,0,0,1,4.121.157,7.837,7.837,0,0,0,1.178-.248c3.456-.093,6.9-.052,10.36-.087,2.1-.021,4.2-.237,6.311-.28-.259.072-.6.1-.913.155,2.884-.08,5.741-.12,8.636-.077a11.175,11.175,0,0,1,1.707-.363c-2.12.01-4.172-.023-6.251-.157,1.054,0,2.1.018,3.151-.016-3.5-.02-6.936.084-10.407.2-.022-.056.028-.1.15-.139-1.533-.032-2.947.136-4.464.151-3.927.038-7.887.034-11.816.146q5.031-.242,10.043-.516c7.288-.057,14.524-.229,21.782-.45-.02.024.079.008-.023.041s-.529.074-.659.1-.171.055-.058.09a.853.853,0,0,0,.28.054c.259.035.653.075,1.117.115s1.346.125,1.873.195a.685.685,0,0,1,.078.011c.047.01.16.024.243.041a2.236,2.236,0,0,1,.268.066,1.224,1.224,0,0,1,.305.122c.011.01-.034,0-.054.019-.253.248.7.43.769.278l.015-.033h0c.445-.047.995-.07,1.4-.117.084-.01-.122-.063-.091-.076s-.009,0,.005,0,0,0,0,0l.194-.028c.329-.048,1.364-.2,1.817-.274.033-.006-.029,0,.1,0s.411,0,.62-.01a3.851,3.851,0,0,0,.563-.117,8.961,8.961,0,0,1,2.229-.21c.921.019,1.908.061,2.9.129a12.2,12.2,0,0,0,4.21-.094c.027-.007-.073-.008.186-.05a11.347,11.347,0,0,1,1.763.091,14.317,14.317,0,0,0,4.2-.028,28.892,28.892,0,0,0,3.894-.625c.032-.009-.064-.019-.106-.019-.665.007-1.783.044-2.358.045s-.718-.068-1.129-.07a.329.329,0,0,0-.044,0,.045.045,0,0,0,.043-.042,5.373,5.373,0,0,1,.855-.221c.161-.057-.1-.136-.344-.131-1.694.035-2.966-.116-4.777-.088-2.886.044-6.156.145-9.126.227-1.667.046-3.1.1-4.754.258a36.094,36.094,0,0,1-5.179.087c-.142-.008-.46-.017-.466-.021s-.039-.08.209-.058,1.326.066,1.735.062c.346-.211-.418-.184.927-.211.235,0,.4-.062.018-.092a12.563,12.563,0,0,0-1.392-.173,42.268,42.268,0,0,1-5.137-.07c-.319-.031-.868-.044-1.062-.055s-.08-.03-.113-.044-.161-.093-.06-.093c1.13,0,2.4.021,3.573-.005h0l.022.005c.082.016-.176-.031.111.025a9.806,9.806,0,0,0,1.429.086c3.553-.018,7.132-.013,10.689-.1.222-.006.43-.009.664,0,.734.033,1.276,0,2.069,0s1.826.026,2.67-.007h.013c-.009,0-.015,0,0,0h.651c1.093,0,2.253,0,3.347,0,.054,0-.015,0,.031,0s-.082-.012.12.012a8.885,8.885,0,0,0,1.172-.008l.035-.006s-.008,0,0,0l.059,0s.017,0,.118,0c.253,0,.825,0,1.213,0s.883,0,1.318,0c1.086,0,2.233-.007,3.323.007a4.021,4.021,0,0,0,.694,0h0s.016,0,.058,0c.107,0,.425,0,.618,0s.465-.047.685-.049.416-.017.651,0c.83.048,1.695.037,2.533,0l.144,0c.057,0,.064,0,.126,0,1.045.016,2.157.016,3.192,0,2.342-.023,4.663-.019,6.982,0,.625,0,1.164-.009,1.738-.057.022,0,0-.025-.1-.026s.13-.007.46-.006h1.562c-.413,0-.851.015-1.274.034.734.047,1.4.061,2.165.059,2.754-.007,5.624-.009,8.366.015,3.865.033,7.622,0,11.476.053.393.006.866-.006,1.272-.017,1.219-.032,2.426-.033,3.651-.039.049,0,.116-.008.124-.031s-.111-.045-.185-.047c-1.566-.05-3.128-.078-4.7-.079-.33,0-.635.044-.959.063.338-.027.519-.083.92-.089s1.738-.009,1.768-.157-.571-.043-.727-.09c3.22.007,6.388,0,9.642.006,1.1,0,2.525.044,2.807-.369.058-.084-.157-.126-.2-.189s-.408-.02-.413-.053c-.034-.217-1.3-.134-1.809-.131s-1.033-.014-1.531-.008c1.139-.043,2.57.035,3.637-.062.827-.075-.005-.2-.512-.2-5.342-.018-10.731,0-16.1.013q-6.444.012-12.872.029l.032-.024-.1.024q-3.048.007-6.1.008c.381-.181.921-.363.437-.534a.3.3,0,0,0,.128-.036c.01-.009.014-.016.013-.02l.052.011c.416.038.942.036,1.459.038.207,0,.416,0,.627,0s.425,0,.64,0c1.2-.015,2.413-.073,3.608-.075.229,0,.457-.008.687-.015,1.072-.054,2.1-.044,3.147-.054,2.31-.057,4.6-.083,6.911-.138a15.284,15.284,0,0,0,2.317-.148c.112,0,.228,0,.349,0l.016,0a1.071,1.071,0,0,0,.4,0l.876-.009c1.328-.015,2.677-.1,4-.09h0c.561-.01.906-.038.364-.094-.5-.051-1.446.022-1.845-.067l3.968-.083h0a10.339,10.339,0,0,0,2.346-.124c2.326-.034,4.671-.029,6.972-.114q3.033-.111,6.073-.214c1.384-.048,2.081-.251,3.325-.341.625-.045.533-.145.676-.222h0l-.229-.128c.273-.147.539-.28-.483-.379-.606-.058.1-.131.767-.157h0c.562-.052,1.019-.11.6-.192-.094-.018-.133-.038-.146-.058a7.2,7.2,0,0,0,1.652-.064c0-.006,1.008-.01.569-.038-.241-.015-.725-.023-1.122-.018-.343,0-.669,0-1,.006.021-.018.037-.035.033-.052h0c.072-.05.02-.092-.247-.12h0a3.439,3.439,0,0,0-.779-.062c1.553-.125,1.529-.122.77-.261a11.182,11.182,0,0,0-2.234-.141c-.941.014-1.868.011-2.8.015h0l-.829,0a9.346,9.346,0,0,1-.944-.023l1.121-.091h0c.79-.023,1.6.019,2.726-.1-1.52-.069-2.96-.015-4.281-.02h0a5.442,5.442,0,0,1-1.6-.114h0c.358-.01.723,0,1.205-.018.912,0,1.815.013,2.717.022.458,0,1.029,0,1.3-.018.154-.012-.048-.022-.335-.025-.9-.01-1.813-.019-2.722-.028h-.033l-.621-.007c-1.1.008-1.936-.009-2.382-.047s.554-.059,1.045-.073c1.36-.038,1.475-.053-.288-.072-1.744-.019-3.485-.03-5.283-.03-.1,0-.211,0-.325,0h0c-1.221-.028-2.772,0-3.935-.037-.171-.027.016-.045.79-.042,1.754.006,3.155-.018,4.3-.069,1.538.034,3.138.035,4.779.014.308.006.79.007.611.027-.229.025-.322.047.616.042.727,0,1.163-.026.956-.055-.232-.033-.858-.051-1.767-.05-1.635-.039-.07-.046.405-.064h0c.444-.006,1.3-.008,1.112-.027a10.862,10.862,0,0,0-2.583-.132c-1.152,0-2.162-.023-3.151-.045-.174-.009-.263-.017-.309-.024l.309.024c-.236-.045.27-.056,1.3-.044.455.005,1.148.019,1.263-.007a8.7,8.7,0,0,0-1.313-.034h-.027c0-.012,0-.022,0-.033.1,0,.232,0,.418-.007.59-.006,1.3,0,1.761-.02h0l2.354-.042c-.469-.037-2.066-.041-1.381-.09.349-.025,1.29-.015,1.783,0,2.3.059,1.507-.036,1.856-.061.278-.02-.465-.051-.275-.081,1.405-.076.956-.106-1.781-.118v-.034l.89-.015-.123,0h.039l.084,0c.688,0,1.442.009,2.066-.01l1.258,0c.147-.047.28-.1.409-.148.812.011,1.84-.005,2.566.016.889.025,1.728.043,2.455-.008.681-.047.4-.147-.568-.163-1.314-.021-2.6-.045-3.95-.063a17.067,17.067,0,0,1,2.346-1.167c-7.259.126-14,.03-20.833-.445a10.779,10.779,0,0,0,1.327-.048h0c.821-.055,2.177-.039,3.4-.039,1.678-.018,3.315.059,5.179.012-.894-.055-2.77-.027-3.425-.088a2.212,2.212,0,0,0-.464.039c-1.147,0-1.533-.039-2.168-.065h0c.232-.02.372-.043.712-.059,1.326-.064,1.26-.074-.889-.091-.607,0-1.25,0-1.876,0-.976-.022-2.05-.016-3.1-.017h.008c-.934-.025-2.038-.006-3.027-.018h0l-.344-.008c-.156-.014-.31-.027-.466-.042.18-.014.755-.012,1.284-.016,1.057-.008,2.487.014,2.957-.049l.85-.015q2.313.042,4.769.014a3.5,3.5,0,0,1,.649.025c-.108.017-.514.037.281.044.569.006,1.043-.008,1.241-.024.98-.075-.655-.07-1.736-.082-1.62-.039-.127-.045.422-.061l.959-.018h0c-.046-.057.231-.124-1.812-.136-1.369-.008-2.531-.032-3.744-.053-.136-.039.328-.051,1.254-.043.5,0,1.284.025,1.376-.009a13.3,13.3,0,0,0-1.452-.032c-.154-.031.35-.037.954-.038.641,0,1.211-.006,1.608-.028l2.014-.03c-.189-.042-1.809-.041-1.493-.086.228-.033,1.027-.02,1.63-.019a8.151,8.151,0,0,0,2.181-.034h0l-.317-.1h0c1.058-.036,1.273-.071-.1-.1a.22.22,0,0,0-.052-.013l-.886-.04h0c.337,0,.67-.011,1.012-.011a17.2,17.2,0,0,0,1.818-.04,16.017,16.017,0,0,0-1.907-.05l-1.718-.031c-.321-.02-1.685-.045.188-.055,1.529-.008,3.05-.024,4.533.007.786.024,1.853,0,2.656.025.783.024,1.61.043,2.331,0,.664-.044.475-.155-.389-.166-1.968-.026-3.745-.073-5.864-.081-2.386-.026-4.58-.067-6.6-.123-.17-.005-.363-.01-.563-.013,5.645-.031,11.273-.128,16.925-.306.272-.276,1.4-.341,1.889-.58a27.192,27.192,0,0,1-5.554-.4c1.767.02,1.605-.2,1.776-.665,2.217-.068,4.694-.08,4.879-.906a45.8,45.8,0,0,0,9.365-1.5,7.847,7.847,0,0,0,2.289-.079c.053-.008.031-.057.222-.047a4.064,4.064,0,0,1,.646.1,5.867,5.867,0,0,0,1,.015c.239-.009.635-.035.578-.106s-.468-.075-.553-.112.258.007.267-.012c-3.757-.4-7.774-.336-11.589-.63-.044,0,2.508-.119,1.944-.141s-4.041.2-4.424-.119c9.815-.069,19.713-.028,29.56-.085,1.766-.471.358-.565-1.2-.807a38.007,38.007,0,0,1-7.828-.215,110.32,110.32,0,0,1-12.966-.255c5.733-.4,11.486-.53,17.343-.638,6.267-.475,12.589-.851,18.741-1.459a2.163,2.163,0,0,0-.623-.346c.9-.064,1.791-.129,2.69-.19h0a5.014,5.014,0,0,0,2.881-.521h0l3.62-.6c.832-.068,1.023-.27,1.1-.5h0Zm-50.925-4.168.025,0h-.032C1224.95,7229.615,1224.943,7229.613,1224.947,7229.612Zm-717.4-8.042.137-.006h.027Zm.091,1.414H507.6l.016,0,.023,0Zm2.157.418.414,0,.047.008ZM507,7254.661c.381-.041.764-.065,1.165-.079C507.762,7254.6,507.379,7254.62,507,7254.661Zm6.419-.757a20.976,20.976,0,0,0-7.1,0c-1.1.176-3.686.175-2.822-.726h0l3.661-.02h6.118c.764.241,1.588.468,2.278.726C514.845,7253.891,514.13,7253.9,513.417,7253.9Zm90.271,6.355c-.263.02-.321-.034-.737-.042s-1.52-.052-1.992-.057-.838.018-1.185.023c-.087,0,0-.075.084-.076,1.454,0,3.007,0,4.5,0C604.056,7260.125,603.952,7260.24,603.688,7260.259Zm87.456-.209h.009c-.005,0,.011,0,.005,0Zm-.761,1.573a22.252,22.252,0,0,0,2.869.092A16.856,16.856,0,0,1,690.383,7261.623Zm6.3-.552c-.041,0-.109-.029-.082-.031s.4.025.406.03S696.72,7261.072,696.679,7261.071Zm236.434.624-.152,0Zm88.673-.006h0a.01.01,0,0,0-.014,0h0s-.01,0,0,0h.015Zm.007,0h0Zm0,0h0Zm87.013-1.986s0,.01,0,0,0,0,0,0Zm-57.676.58.287,0c1.207-.025,2.508-.04,3.683-.051-.96.018-3.2.048-3.857.056C1050.728,7260.289,1051.128,7260.284,1051.128,7260.283Zm92.206-3.381c.338-.029,1.22-.113,1.515-.13s.471-.058.585-.047.191.087.19.117c0,.176-.651.04-1.128.045a7.741,7.741,0,0,0-1.615.141C1142.862,7256.93,1143,7256.932,1143.334,7256.9Zm-12.511.475h0c.019,0,0-.006.028,0S1130.823,7257.375,1130.823,7257.377Zm1.989-.579c-.75.123-1.3.314-2,.46-.161.034-.133.085-.036.108l.047.01h0s.011.007,0,0c-.3-.059-.206-.1.058-.162C1129.7,7256.819,1131.889,7256.831,1132.812,7256.8Zm-3.292,1.153Zm0,0h0l0,.007C1129.519,7257.952,1129.517,7257.953,1129.516,7257.951Zm-.71-.262c.005,0,.028-.009-.013,0s.005,0,.007-.006Zm-1.577-1.471a1.7,1.7,0,0,1,.175,0c-.011,0-.29.044-.3.045A1.157,1.157,0,0,1,1127.229,7256.218Zm71.113-1.613q1.372,0,2.748,0l-3.956,0Zm-22.558,1.078-.014-.007C1175.735,7255.663,1175.8,7255.669,1175.784,7255.683Zm-.3.012c.085,0,.267,0,.193,0s-.189.008-.505.01-1.285,0-1.713-.01Zm43.476-5.054-.058,0h0Zm11.949-18.7c-.621,0-1.235,0-1.837,0A8.192,8.192,0,0,1,1230.913,7231.942Zm-35.562,13.122-.021,0,.034,0h-.013Zm7.781,4.5h0Zm-685.141-24.56h0Zm-1.723.523Zm3.845-3.916h.039l0,0h-.043Zm127.51-2.547-.114,0-.015,0Zm-6.9.084Zm-.363-.069h-.208l.2,0Zm7.565-.268h.084l-.027,0Zm-24.144.252h0Zm-5.965.22-.036,0-.07,0h.106Zm-6.158-.459c.006,0,0,0,.007,0h-.122Zm-12.5.019h0Zm.416.3h0Zm12.534.287h0l-.165,0-.018,0Zm15.962-.237h0Zm32.642-.627a16.529,16.529,0,0,1,2.2,0Zm-114.036,5.4c.1,0,.19,0,.242.008h-.145Zm645.817,26.786h0Zm-479.727,9.39c.032,0,.242,0,.234,0l-.283,0,.024,0h.025Zm-8.754-.041c1.82-.025,3.649-.052,5.468-.058l2.585-.01c-.078.043-.1.079.048.108Zm.445.366-.011.009c-.034.024-.057.041-.021.014Zm-5.423-41.894s-.011,0-.015,0l-.011,0h0A.077.077,0,0,1,699.032,7218.578Zm117.316-.057h-.006a.487.487,0,0,1-.074.012.377.377,0,0,1-.087-.013c.009,0,.13,0,.158,0ZM704.322,7260.57l.124-.089c1.493,0,3.084-.066,4.518-.032s2.717.093,4.09.1c.048,0-.022.032-.068.033-2.842.069-5.687.111-8.572.115h-.492A1.106,1.106,0,0,0,704.322,7260.57Zm501.708-40.63c1.25-.02,2.5,0,3.758.018-1.813-.012-3.617-.009-5.408,0C1204.93,7219.952,1205.479,7219.949,1206.03,7219.94Zm3.365,3.537q1.573.081,3.136.2a3.459,3.459,0,0,0,.819-.093q.294-.059.585-.109h.8c.744-.072,1.35-.131,1.847-.188a5.212,5.212,0,0,1,1.756.43,22.382,22.382,0,0,1,5.486-.392c.3.018.673-.01.9.035a20.914,20.914,0,0,0,7.521.1c1.11-.172,3.692-.162,2.8.736h0l-3.662.007-27.894-.1a2.983,2.983,0,0,0-.783-.271c-.005-.008,0-.014-.006-.022a1.889,1.889,0,0,0-1.151-.333Zm-9.09-3.5c-1.8,0-3.575,0-5.317-.023C1196.669,7219.955,1198.461,7219.968,1200.305,7219.972Zm-89.523-1.115-.024,0s-.014,0-.01,0A.171.171,0,0,1,1110.782,7218.857Zm-19.984-.964c.368.017.361.029.824.042s1.558.035,2.064.035.713-.019,1.171-.04c-.069.34-1.287.256-2.285.258a27.571,27.571,0,0,0-3.545.137A8.493,8.493,0,0,0,1090.8,7217.893Zm-9.922.3c.287-.007.556-.068.843-.067a28.462,28.462,0,0,1,5.055.332c.013,0,.036,0,.021,0-.579-.006-1.186,0-1.773,0q-6.841-.019-13.677-.043C1074.526,7218.356,1077.7,7218.27,1080.876,7218.192Zm-80.221-.518a28.517,28.517,0,0,0-3.056-.051A21.937,21.937,0,0,1,1000.655,7217.674Zm-86.548.651.054,0c.012,0,0,0,0,0h-.007a1.088,1.088,0,0,1-.113,0C914.032,7218.327,914.1,7218.325,914.107,7218.325Zm-5.65-.089.039,0h0a.44.44,0,0,1-.057,0C908.431,7218.239,908.451,7218.236,908.457,7218.236Zm.026.126h0a.458.458,0,0,1-.075.011.517.517,0,0,1-.087-.011C908.333,7218.36,908.455,7218.362,908.483,7218.362Zm-79.849-.373c.036,0,.593.008.589.01s-.578.031-.613.032S828.6,7217.992,828.634,7217.989Zm-36.952-.2c.056,0,.379,0,.458,0s.044,0,.023,0,.016,0-.044,0-.433.037-.477.035S791.626,7217.789,791.682,7217.784Zm-2.379-.145h0Zm-248.912,1.751h.051l-.063,0Zm-10.729,1.216h-.079C529.406,7220.6,529.7,7220.6,529.662,7220.606Zm-5.408-.309h0Zm-1.508.341h0Zm-11.69,3.377.006,0h.031Zm.464.184Zm0-.421h0Zm1.282-3.358h0Zm.453,2.5h0Zm103.918,37.508c.133-.011.068,0,0,0Zm9.868-.433c-4.338.029-8.681.02-13.02.1-.324.006-.622.054-.951.055-.853,0-1.709-.029-2.578-.063,1.971-.019,3.45-.023,5.534-.053s4.62-.173,6.862-.214c.7-.013,1.529-.023,2.306-.033,3.456-.044,7.005-.071,10.479-.1.274,0,.514.025.784.031C633.336,7259.864,630.206,7259.97,627.043,7259.991Zm103.664.974c-4.3,0-8.592.02-12.846.266-.492.029-1.014.023-1.468.017s-.574-.018-1.063-.017-1.486-.02-1.958-.041-.652-.034-1.041-.033a8.965,8.965,0,0,0-.918.05,11.289,11.289,0,0,1-1.4.1c-1.3-.031-2.3-.219-3.719-.257-2.177-.06-4.661-.018-6.927-.007,2.252-.1,3.986-.168,6.4-.185s5.45-.051,7.988-.115a5.683,5.683,0,0,1,.684.032c.225.023.449.036.709.046.664.026,1.327.078,2.016.084.12,0,.275,0,.411,0s.227.048.378.05.326-.048.5-.047c1.63,0,3.271.012,4.909.018s3.291-.024,4.926-.029c.878,0,1.769.031,2.632.023a2.87,2.87,0,0,1,.4.036C731.273,7260.966,730.919,7260.965,730.707,7260.965Zm4.557-.006c-.733,0-1.664.008-2.373,0-.046,0-.114-.018.1-.05s1.211-.006,1.555,0,.8.04,1.028.043C735.638,7260.95,735.359,7260.96,735.264,7260.959Zm56.342.119c-.747-.011-1.5-.019-2.257-.026.415-.079.864-.134,1.3-.2a16.164,16.164,0,0,0,3.271,0,17.35,17.35,0,0,0,1.907.246C794.42,7261.107,793.013,7261.092,791.606,7261.078Zm71.539.363c-.025.006-.01,0,0,0a1.074,1.074,0,0,1,.175,0C863.318,7261.437,863.17,7261.434,863.145,7261.441Zm2.146-.243c-.036,0-.007,0,0-.017a1.324,1.324,0,0,1,.4-.116C865.737,7261.087,865.468,7261.2,865.291,7261.2Zm19.708.179c.909-.029,1.821-.057,2.725-.091a8.514,8.514,0,0,1,1.178.067Q886.951,7261.366,885,7261.377Zm7.036-.045c-.907.008-1.81.012-2.714.018-.176-.035-.431-.07-.341-.074.193-.008,3.636.138,3.035-.03l1.183.043C892.934,7261.311,892.562,7261.327,892.035,7261.332Zm15.69-.49c-.006,0,0-.018.007-.019S907.732,7260.843,907.725,7260.842Zm.572-.067c-.111-.025.427-.068.6-.072s.827.029,1.045.057A10.393,10.393,0,0,1,908.3,7260.775Zm153.256-2.034a.911.911,0,0,1,.191-.015c.066,0,.727,0,.7,0S1061.615,7258.741,1061.553,7258.741Zm11.862-.07-.291,0c-1.1.009-2.823.086-4.119.082-.275,0-.739-.028-1.04-.03,1.942-.037,3.713-.076,5.7-.112,2.592-.047,5.381-.076,8.016-.092.054,0,.085.017.131.02Zm11.157-.071c.017.008.005,0-.009,0h-.069c-.133,0-.531-.006-.69,0-.069,0,.034,0-.118-.007s-.794-.054-.933-.059l-.076,0h0c.007,0-.012-.009.011-.009.644,0,1.446,0,2.037.006C1084.808,7258.526,1084.55,7258.589,1084.572,7258.6Zm41.631-2.831-.051,0a.35.35,0,0,1,.052,0S1126.208,7255.769,1126.2,7255.769Zm44.966-1.583c-.157.082-.133.156-.006.227q-2.6,0-5.206.007a48.142,48.142,0,0,0-5.979-.3,4.676,4.676,0,0,0-1.272.3h-.015c.132-.153.627-.213.949-.314.569-.012,1.136-.033,1.7-.063,1.713-.109,3.326-.044,5-.089.244,0,.486-.012.729-.022.338-.018.674-.027,1.01-.031h.026c.384.042.887.045,1.4.045.2,0,.4,0,.608,0q.456,0,.92-.011c.09,0,.179,0,.267-.007C1171.437,7254.009,1171.339,7254.1,1171.169,7254.186Zm.89-.388.019,0h-.017Zm31.138-3.773c-.038-.006.034,0,.045,0h-.045Zm.675-.352c-.406.007-.851.008-1.306.009l1.479-.031A.4.4,0,0,1,1203.872,7249.673Zm-6.837-3.477-.041,0h.094Zm52.055-13.38h0l-3.661.007-25.58-.088,1.252-.043c.382-.014,1.122-.031.636-.066-.862,0-1.381.041-2.307.03-2.311-.026-2.485-.023-2.26.036.078.012.3.023.156.034l-1.548,0c-1.21-.025-1.916-.066-2.377-.115h0a19.879,19.879,0,0,1,2.225-.05c1.247,0,2.442,0,2.986-.058.181-.019.463-.038-.049-.053-.537-.014-.964,0-1.195.019-.683.054-1.532.034-2.408.01l1.339-.037h0c.057,0,.068-.01.033-.015h0c.316-.031,1.226-.059.508-.1,2.747-.007,5.488-.047,8.241-.124.5.032,1,.057,1.5.095a3.517,3.517,0,0,0,.82-.092c.251-.051.5-.1.748-.137q1.212-.006,2.422-.015c.355,0,.679,0,.967,0a4.845,4.845,0,0,1,.85.28,22.4,22.4,0,0,1,5.486-.391c.3.018.673-.011.9.034a20.885,20.885,0,0,0,7.52.1C1247.4,7231.908,1249.985,7231.917,1249.09,7232.816Z" fill="#47aea9"/>
    <path id="Path_7689" data-name="Path 7689" d="M647.258,7216.958l-.383-.066.207.119Z" fill="#47aea9"/>
    <path id="Path_7690" data-name="Path 7690" d="M898.252,7217.445l-1.851.276a4.126,4.126,0,0,0,1.831.288Z" fill="#47aea9"/>
    <path id="Path_7691" data-name="Path 7691" d="M638.6,7216.582l.913.285C639.278,7216.751,639.989,7216.351,638.6,7216.582Z" fill="#47aea9"/>
    <path id="Path_7692" data-name="Path 7692" d="M520.505,7229.32a.3.3,0,0,0-.14-.045c-.086,0-.248.016-.376.025a.3.3,0,0,0,.141.045C520.214,7229.348,520.376,7229.329,520.505,7229.32Z" fill="#47aea9"/>
    <path id="Path_7693" data-name="Path 7693" d="M827.441,7261.092a25.1,25.1,0,0,0-4.083.24c-.113.022.086.078.142.118l4.951-.019C828.7,7261.257,828.442,7261.076,827.441,7261.092Z" fill="#47aea9"/>
    <path id="Path_7694" data-name="Path 7694" d="M792.036,7262.4l3.926.143A12.222,12.222,0,0,0,792.036,7262.4Z" fill="#47aea9"/>
    <path id="Path_7695" data-name="Path 7695" d="M513.734,7224.732c-.156-.008-.259-.018-.4-.019s-.387.007-.435.013c-.1.011-.012.023.377.022C513.426,7224.747,513.556,7224.738,513.734,7224.732Z" fill="#47aea9"/>
    <path id="Path_7696" data-name="Path 7696" d="M1229.045,7229.651c-.005.052,1.2.035,1.977.046a9.329,9.329,0,0,0,1.1-.022c-.056-.045-1.212-.039-1.96-.05A8.576,8.576,0,0,0,1229.045,7229.651Z" fill="#47aea9"/>
    <path id="Path_7697" data-name="Path 7697" d="M1217.59,7248.773c-.006.052,1.2.035,1.977.046a9.537,9.537,0,0,0,1.1-.021c-.056-.046-1.212-.04-1.96-.05A8.365,8.365,0,0,0,1217.59,7248.773Z" fill="#47aea9"/>
    <path id="Path_7698" data-name="Path 7698" d="M1211.332,7245.4c.073.048,1.162.028,1.8.036a7.478,7.478,0,0,0,1.1-.022c-.137-.039-1.181-.034-1.877-.044A5.864,5.864,0,0,0,1211.332,7245.4Z" fill="#47aea9"/>
  </g>
</svg>
