<svg xmlns="http://www.w3.org/2000/svg" width="20.594" height="19.067" viewBox="0 0 20.594 19.067">
  <g id="ok-k" transform="translate(-154.167 -6934.393)">
    <path id="Path_13803" data-name="Path 13803" d="M158.055,6949.76c-.04-.024-.1-.084-.115-.06l.083.061a.234.234,0,0,0,.049.025C158.083,6949.788,158.067,6949.768,158.055,6949.76Z" fill="#47aea9"/>
    <path id="Path_13804" data-name="Path 13804" d="M171.923,6936.1a.093.093,0,0,0,.037-.03.16.16,0,0,0,.057-.1l-.083.073-.02.034C171.9,6936.1,171.908,6936.1,171.923,6936.1Z" fill="#47aea9"/>
    <path id="Path_13805" data-name="Path 13805" d="M154.495,6945.856c0-.018-.03-.055-.077-.084-.017-.011-.035-.029-.053-.043-.04-.026-.083-.057-.121-.076s-.072-.023-.077-.006a.15.15,0,0,0,.045.079c.033.034.047.015.077.031.022-.025.074.038.113.064S154.492,6945.88,154.495,6945.856Z" fill="#47aea9"/>
    <path id="Path_13806" data-name="Path 13806" d="M161.564,6948.68l.005-.008c0-.012,0-.014-.006-.019l0,0,0,.007C161.558,6948.669,161.554,6948.683,161.564,6948.68Z" fill="#47aea9"/>
    <path id="Path_13807" data-name="Path 13807" d="M160.5,6947.84h0l.049.039h0a.08.08,0,0,0,.019.02c.025.048-.015.053.018.106h0c.035.044.069.076.1.069l.014-.033h0l.019-.016c.033-.01-.056-.1-.011-.1l-.015,0a.03.03,0,0,1,.015,0c.072.007.093-.015-.044-.131a.343.343,0,0,1-.087-.093.088.088,0,0,0-.052-.067c-.039-.019-.046,0-.027.035h0l0,.007c-.076-.014-.141-.018-.1.075C160.43,6947.779,160.433,6947.835,160.5,6947.84Z" fill="#47aea9"/>
    <path id="Path_13808" data-name="Path 13808" d="M173.725,6934.774c.043-.028.039.024.115-.054-.042.015-.056-.007-.123.047Z" fill="#47aea9"/>
    <path id="Path_13809" data-name="Path 13809" d="M174.017,6934.611c.036-.035.041-.053.031-.064s-.024-.012-.058.018-.048.061-.04.074S173.986,6934.635,174.017,6934.611Z" fill="#47aea9"/>
    <path id="Path_13810" data-name="Path 13810" d="M156.082,6947.865c.073.055.035.073.081.119.134.124.217.151.271.125l-.011-.016a1.649,1.649,0,0,0-.22-.152l-.054-.048a.148.148,0,0,0-.072-.055c-.021-.01-.012.007.005.027Z" fill="#47aea9"/>
    <path id="Path_13811" data-name="Path 13811" d="M156.988,6948.559h0Z" fill="#47aea9"/>
    <path id="Path_13812" data-name="Path 13812" d="M154.795,6946.033a.161.161,0,0,0-.1-.08C154.72,6946,154.761,6946.01,154.795,6946.033Z" fill="#47aea9"/>
    <path id="Path_13813" data-name="Path 13813" d="M174.521,6934.393h0Z" fill="#47aea9"/>
    <path id="Path_13814" data-name="Path 13814" d="M174.3,6934.658h0c.029-.072.093-.089.149-.118,0-.031.048-.082.082-.127l-.013-.02a.665.665,0,0,1-.12.081c-.027.034-.077.077-.063.1h0l-.027.023a.206.206,0,0,0-.061.066l-.017.012.007.009-.016.028C174.249,6934.7,174.272,6934.714,174.3,6934.658Z" fill="#47aea9"/>
    <path id="Path_13815" data-name="Path 13815" d="M157.531,6949.266c0-.011-.016-.028-.033-.043s-.049-.041-.05-.024.023.029.039.044S157.523,6949.273,157.531,6949.266Z" fill="#47aea9"/>
    <path id="Path_13816" data-name="Path 13816" d="M154.666,6946.236a.129.129,0,0,0,.049.065c.034.024.03,0,.045,0l.036,0a.3.3,0,0,0-.021-.052.115.115,0,0,0,.05.027l.007-.01a.212.212,0,0,0-.135-.1l-.026.023h0Z" fill="#47aea9"/>
    <path id="Path_13817" data-name="Path 13817" d="M154.486,6946.019c-.048-.025-.047,0-.054.014l.009.008.01.008.046.01.106.045c.008-.014.005-.034-.032-.071-.028,0-.072-.028-.085-.014Z" fill="#47aea9"/>
    <path id="Path_13818" data-name="Path 13818" d="M154.616,6945.9a.2.2,0,0,0-.079-.058s-.006.006,0,.008A.231.231,0,0,0,154.616,6945.9Z" fill="#47aea9"/>
    <path id="Path_13819" data-name="Path 13819" d="M173.939,6934.889c.03-.027.063-.054.047-.066l-.061.047-.059.034h0C173.855,6934.946,173.9,6934.92,173.939,6934.889Z" fill="#47aea9"/>
    <path id="Path_13820" data-name="Path 13820" d="M166.192,6947c.064-.014.1-.071.125-.162a.4.4,0,0,0,.138-.284l-.078.113h0l-.066.077.006.01h0C166.245,6946.839,166.273,6946.9,166.192,6947Z" fill="#47aea9"/>
    <path id="Path_13821" data-name="Path 13821" d="M165.833,6947.722l.04-.1a.606.606,0,0,1-.085.11C165.777,6947.779,165.785,6947.791,165.833,6947.722Z" fill="#47aea9"/>
    <path id="Path_13822" data-name="Path 13822" d="M165.089,6948.882l.03-.054c-.01-.017-.031,0-.06.036C165.056,6948.892,165.014,6948.984,165.089,6948.882Z" fill="#47aea9"/>
    <path id="Path_13823" data-name="Path 13823" d="M157.238,6948.87a.429.429,0,0,0-.083-.061.1.1,0,0,0-.032-.023c-.005.031.013.086-.1,0-.024-.051-.078-.069-.113-.092-.019-.013-.016.016.011.048l.027.023h0c.091.107.176.1.266.184l.032.012c.016,0,.006-.013-.008-.03l-.013-.012C157.249,6948.913,157.379,6948.989,157.238,6948.87Z" fill="#47aea9"/>
    <path id="Path_13824" data-name="Path 13824" d="M174.562,6934.883c.008-.009.012-.025.006-.025-.037,0-.071.044-.11.078A.13.13,0,0,0,174.562,6934.883Z" fill="#47aea9"/>
    <path id="Path_13825" data-name="Path 13825" d="M174.464,6935.15c.026-.021.018-.027.014-.039a.051.051,0,0,0-.03.006c-.035.024-.028.034-.022.041S174.439,6935.169,174.464,6935.15Z" fill="#47aea9"/>
    <path id="Path_13826" data-name="Path 13826" d="M163.78,6947.009Z" fill="#47aea9"/>
    <path id="Path_13827" data-name="Path 13827" d="M174.7,6935.562c-.007-.008-.014-.026-.021-.022a.144.144,0,0,0-.05.063h0l-.05.044h0a.608.608,0,0,1-.142.1h0c.01-.012.054-.041.015-.03h0l-.008,0-.124.067c-.014,0-.021.008-.022.018a.164.164,0,0,1-.046.066.078.078,0,0,0-.02.014h0a2.008,2.008,0,0,0-.334.217l-.036.016c-.042,0-.109.072-.154.084a.523.523,0,0,1,.1-.148.289.289,0,0,1,.072-.072h0c.056-.031.118-.054.142-.122-.005,0-.008,0-.009-.006a.43.43,0,0,0-.117.078.5.5,0,0,0-.085.059c-.006,0-.016.017-.021.013a.586.586,0,0,0,.153-.159c.015-.024.023-.044-.007-.033-.067.026-.106.095-.164.136h0c-.088.051-.126.046-.131,0,.016-.031.015-.05,0-.056h0l0,0h0c.007.009.023.006.046-.01-.02.023-.039.045-.017.047.075-.07.212-.149.163-.2h0a.3.3,0,0,1,.087-.069.134.134,0,0,0,.069-.076l-.008-.008h0c.028-.033.018-.043.009-.053h0l.013-.028h0l0-.059-.046.051c-.022.023-.019.032-.015.041h0c-.061.053-.064.016-.1.039h0l-.016-.02a.138.138,0,0,0-.049.041c0-.006-.021,0,.015-.031a.979.979,0,0,0,.1-.085l.007-.008c.007.014.029,0,.055-.032h0c.012.016.051-.021.077-.035l.084-.066.034-.012.056-.045h0a.472.472,0,0,0,.176-.126h0l.019-.042c.032-.03.057-.06.03-.058s-.053.04-.078.064h0l-.224.178-.12.083h0l-.092.059h0a.82.82,0,0,0-.169.118h0c-.016,0-.039,0-.072.031h0l-.008-.007-.038.015c-.059.048-.078.08-.061.1h0l-.138.11-.19.173h0c-.051-.021-.124.112-.18.12a.174.174,0,0,0-.026.021h0l-.037.015h0l-.01-.007-.065.026c-.056.034-.122.061-.134.122-.068.056-.136.07-.2.15h0l-.112.084-.03.029h0a.794.794,0,0,1-.142.112h0l-.008-.009a.762.762,0,0,0,.14-.125c.03-.029.077-.065.038-.066a.274.274,0,0,1-.062-.01h0c.058-.057.06-.075,0-.051a.255.255,0,0,1-.088.062l-.023-.027a.362.362,0,0,0-.079.051l-.016.013a.267.267,0,0,0-.053.036.192.192,0,0,0-.063.054c.005-.012.006-.022-.01-.019l-.027.024h0c-.009-.014,0-.039.032-.076a.572.572,0,0,0,.136-.107v0s.006,0,.015,0a.535.535,0,0,0,.126-.127c-.005-.013.072-.084,0-.052h0v0c-.01-.012.006-.036.04-.068a.2.2,0,0,0,.067-.09l.025-.021h0l.008.006h0c0,.03.048.022.072.033l.056-.047c.015,0,0,.038.059.006.022-.052.039-.1-.029-.078h0l.022-.034c-.019-.021-.08.035-.122.055l.016-.016.089-.057,0,0a.076.076,0,0,0,.029-.027l.028-.025c.036-.054.186-.136.129-.167a.088.088,0,0,0-.03.008c-.058.023-.092.077-.138.116a1.21,1.21,0,0,1-.166.142l-.086.064c-.029.022-.057.044-.084.068-.005.009-.006.015,0,.019l-.071.064.007.009h0a.653.653,0,0,0-.181.178l.008.008a.325.325,0,0,0,.089-.062h0l.011,0h0l.006.014h0l-.026.024c-.03.021-.066.029-.086.072h0l-.024.023a.152.152,0,0,0-.092.054c-.029.032.006.014.015.017h0l-.06.056h0l-.052.043-.132.121c-.009.021.006.021.019.023.041,0,.068-.039.1-.077.005.006.022,0,.039,0l.024-.011.009.01-.055.05h0c-.018-.016-.057.019-.1.055l-.007-.006q.009-.016-.009-.012l-.075.054v0a.014.014,0,0,0-.005-.011c.011-.011.012-.018,0-.02h-.051c-.04.05,0,.024.02.026h0l-.048.047h0l-.054.045-.055-.044h0l.012-.042h0l0-.016a.369.369,0,0,0-.115.09h0l-.027.023c-.073.051-.149.1-.116.143h0l-.024.036a.3.3,0,0,1-.081.063h0c.013-.047-.028-.017-.074.024l-.072.085h0a.932.932,0,0,1-.135.13h0c-.066.047-.126.121-.193.163l.008.008h0l-.106.1a.244.244,0,0,0-.085.067.378.378,0,0,1-.081.076h0l-.038.02-.074.078-.075.074h0c-.127.132-.262.253-.395.377,0,.007,0,.011,0,.011l-.1.1h0l-.008-.009c-.015-.008-.033.01-.063.043a.543.543,0,0,1-.14.126c0-.011-.014-.014-.037,0a.134.134,0,0,0-.019.021c0,.017.01.017.036,0-.015.042-.052.054-.079.079-.044.058-.109.1-.148.159l-.027.077a.181.181,0,0,1-.022.026c-.052,0-.086.092-.132.121h0l-.011,0c-.064.051-.117.13-.183.176h0l0,0h0a.329.329,0,0,1,.13-.2c.033-.034.07-.069.067-.092a.345.345,0,0,0,.137-.114v-.005a.165.165,0,0,0,.056-.074l0,0,.031-.027.021.02a.178.178,0,0,0,.076-.076.027.027,0,0,1-.014-.033l.025-.028c.022-.023.045-.046.066-.071l.014-.017a.61.61,0,0,0,.121-.1c-.016-.016.012-.052.04-.089.015-.014.029-.028.043-.043a.252.252,0,0,0,.04-.059l0-.006,0,0a.207.207,0,0,0,.036-.03.233.233,0,0,0,.071-.048c.042-.043.082-.087.119-.131l.013-.017a.168.168,0,0,0,.069-.047l.006,0a.152.152,0,0,0,.034-.029.034.034,0,0,0,.007-.032.191.191,0,0,0,.037-.021.516.516,0,0,1,.206-.133.172.172,0,0,0,.1-.041c.031-.031.033-.048.03-.062l0,0,.085-.079c0-.011.055-.045.015-.032h0c-.028,0,0-.037.022-.072l.028-.024a.706.706,0,0,0,.054-.057l.011-.015a.5.5,0,0,0,.113-.1.207.207,0,0,0,.047-.074.214.214,0,0,1,.025-.067l.009-.007a.265.265,0,0,0,.047-.052c0,.006.005.008.014,0a1.287,1.287,0,0,0,.174-.131,2.271,2.271,0,0,0,.176-.162,1.728,1.728,0,0,1,.179-.157.546.546,0,0,0,.084-.1l.02-.01a.573.573,0,0,0,.112-.09h0c.063-.012.1-.086.154-.133l.008-.012a.072.072,0,0,0,.048-.032h0a1.267,1.267,0,0,0,.153-.11c.072-.065.149-.127.222-.191l.054-.048c.018-.016.035-.033.052-.049a.893.893,0,0,0,.09-.106c.011.007.036-.008.063-.026a.453.453,0,0,0,.093-.08l.014,0c.013-.007.026-.015.04-.025l.038-.031a.666.666,0,0,0,.12-.1l.04-.036.036-.034a.553.553,0,0,1,.045-.04l.042-.032c.033-.025.067-.047.1-.071l.049-.036a.248.248,0,0,0,.127-.111h0a.338.338,0,0,0,.057-.04h0c.006.03.036.03.119-.027l.058-.05.064-.1h0c.045-.034.083-.066.073-.089l-.015,0h0c-.061.041-.09.018-.168.085-.059.05-.119.1-.179.148l-.177.151-.081.07h0a2.293,2.293,0,0,0-.259.2h0a.739.739,0,0,0-.191.158l-.008.011-.024.018c-.007.008-.015.015-.023.022a1.233,1.233,0,0,0-.205.162h0c-.031.02-.061.041-.091.062h0c-.077.033-.148.136-.225.172l-.045.069h0l-.115.089h0l-.063.039a.3.3,0,0,0-.09.068l-.108.094h0a.885.885,0,0,0-.206.151.3.3,0,0,0-.1.091c0-.011-.015-.01-.028-.01-.041.021-.01-.067-.1.038l-.026.028c-.043.046-.1.068-.135.125h0l-.069.082h0a.17.17,0,0,0-.062.043h0l-.036.018h0l-.03-.036a.637.637,0,0,1-.131.124c-.023.041.007.036.019.047l-.069.065h0l-.03.026-.129.125h0l-.107.1c0,.024,0,.039.019.045l.007,0a.849.849,0,0,1-.1.094h0l-.1.1h0l-.052.048c-.016-.019.025-.057.06-.093l.078-.077h0c.052-.05.068-.083.057-.1l-.034.019-.011.041h0c-.063.059-.164.077-.183.181h0l0,0h0v0l-.1.1h0a.7.7,0,0,0-.246.177l-.022.027-.1.1h0l-.078.078h0l-.1.111a.841.841,0,0,0-.162.148h0l-.027.024-.124.135h0a2.215,2.215,0,0,1-.17.193,1.854,1.854,0,0,0-.194.171l-.057.044h0c-.008.014-.019.03-.025.042a.69.69,0,0,0-.069.078,1.3,1.3,0,0,0-.217.236.983.983,0,0,1-.167.205l-.049.054h0c0-.087-.085.006-.152.09-.1.13-.214.248-.325.37-.069.083-.135.176-.207.248-.058.056-.111.115-.165.175s-.105.12-.157.182c-.1.122-.206.245-.312.366-.025.05-.1.108-.1.156l-.07.087h0l-.025.024h0a.551.551,0,0,0-.1.1c-.031.04-.06.082-.093.118h0a.755.755,0,0,0-.13.178l.028-.018h0c-.11.146-.239.282-.335.435h0l-.089.113h0a.166.166,0,0,1-.072.088h0l-.031.02-.06.092.011,0,.007.01h0l-.062.078c0-.013-.005-.017-.024,0a.886.886,0,0,0-.1.147v.007h0v-.007a.3.3,0,0,0-.092.123h0a.833.833,0,0,1-.118.137.409.409,0,0,0-.072.188.421.421,0,0,0-.156.244l-.064.085c-.045,0-.074.054-.1.114a.009.009,0,0,1,.009.006l-.007.03a.15.15,0,0,1,.05-.047l.024-.021a.019.019,0,0,0,.027.015c.008.006.019.005.04-.014l.009.007h0c-.093.115-.086.137-.006.087l.025-.028a.147.147,0,0,0,.034-.048.263.263,0,0,0,.027-.028,2.355,2.355,0,0,0,.152-.216c.013-.027.019-.048.01-.055a.176.176,0,0,0,.068-.066l.023-.04c.014-.022.023-.046.037-.068l.006.009c.021-.019.033-.02.04-.012.024-.012.03-.038.044-.058a.05.05,0,0,0,.024-.016.561.561,0,0,0,.092-.126,1.592,1.592,0,0,1,.117-.232c.01.012.037-.011.066-.04a.614.614,0,0,0,.066-.082.178.178,0,0,0,.026-.056v0l.013-.016c.026-.036.052-.071.079-.106l.025-.036a.619.619,0,0,0,.075-.108l0-.013.017-.006a.615.615,0,0,0,.159-.17c.03-.037.036-.061.012-.056a.487.487,0,0,0,.055-.055l.008,0c.029-.035.061-.07.05-.088l0-.007c0-.019,0-.026-.021-.015h0l.148-.123a.617.617,0,0,0,.1-.091l.029-.04.03-.047a1.49,1.49,0,0,0,.1-.131c.016,0,.018.015.039.006l-.019.021c-.026.029-.032.048-.017.048s.05-.033.077-.069.033-.059.016-.062l.008-.012a.148.148,0,0,0,.031-.065c.007-.047.064-.122.081-.175v0a.911.911,0,0,0,.266-.247.1.1,0,0,0,.016-.033.01.01,0,0,1-.01,0,.209.209,0,0,0,.064-.075h0a1.007,1.007,0,0,0,.174-.13,1.864,1.864,0,0,1,.181-.14c-.055.062-.051.127-.122.175a.277.277,0,0,0-.1.133.806.806,0,0,1-.127.2v.007l-.237.275-.066.041a.274.274,0,0,0-.068.064l-.005.007-.009-.047-.023.027c-.031.038-.066.078-.063.1h.021a.478.478,0,0,1-.079.127h0c-.045.036-.033-.046-.11.057l-.015.019a.211.211,0,0,1-.09.144l.012-.02a1.1,1.1,0,0,0,.058-.119c-.037,0-.067.051-.1.1-.144.143-.048.1-.027.108h0l-.089.129.027.023-.023.032h0l-.044.049h0l-.011,0c-.037.015-.073.032-.069.085h0c-.025.041-.029.066-.02.081l-.021.024h0c-.021-.017-.047-.011-.088.072-.079.063-.15.164-.227.236l-.019.021c0-.022-.015-.028-.022-.043s-.037.008-.066.032l-.046.056c-.006.024,0,.033.063.054h0l-.156.247c0,.007,0,.011,0,.012a.5.5,0,0,1-.089.1v-.008c0-.128-.1.051-.159.113l-.015.03v.009h.016a.284.284,0,0,1-.058.1c-.006.018,0,.019.009.02-.017.013-.038.047-.053.055-.067.064-.122.171-.194.214,0-.024-.018-.008-.042.015-.043.039-.077.1-.121.141a.207.207,0,0,1-.037.128.062.062,0,0,0-.018.011c0-.027-.014-.031-.007-.06h-.01l-.13.177a.256.256,0,0,0-.047.1c-.006.038.016.029.05,0l.007-.007.024.018.039-.053a.165.165,0,0,1,.051-.089.181.181,0,0,0,.055-.082.037.037,0,0,0,.033-.011l.011.012-.01.012,0,.014a.2.2,0,0,0-.084.075c-.045.081-.112.152-.158.232l-.005,0-.01,0c.012-.031.008-.045-.008-.045s-.02-.006-.043.017l-.013.079-.067.037c-.018.08-.082.191-.09.265,0,.011-.021.016-.029.016-.074.086-.049.088-.023.09l-.031.042c0-.022-.016-.03-.042-.019l-.063.085.008-.032c0-.02-.013-.006-.03.021s-.03.019-.04.019c-.028.041.023.018-.019.07s-.052.077-.037.092a.073.073,0,0,0,.045-.034.1.1,0,0,0,0,.051c-.061.044-.107.15-.165.2l-.021.033s-.009,0-.019.008l-.019.029h0c0-.022,0-.043-.008-.052h0a.29.29,0,0,0,.009-.034l.013-.039h0a.383.383,0,0,0,.061-.124c0,.011.01.019.029.006a.206.206,0,0,0,.073-.108c0-.021,0-.037-.017-.029s-.02-.019-.05.009l-.03.067a.092.092,0,0,0-.009.031.272.272,0,0,1-.074.089.116.116,0,0,0,.026-.064.3.3,0,0,0,.014-.038l-.048.008a.218.218,0,0,0,.031-.061l.013-.008a.338.338,0,0,0,.065-.058.476.476,0,0,0,.064-.118v0l.006,0a.419.419,0,0,0,.046-.053.391.391,0,0,0,.027-.039.591.591,0,0,0,.06-.142c.042-.078.106-.1.15-.181.019-.059.014-.087-.019-.079l.012-.016c.011-.013.021-.027.031-.041.04-.023.087-.1.129-.136a.205.205,0,0,0,.026-.042l-.016-.064a.4.4,0,0,1-.072.082h0c-.065.042-.029.084-.076.125a.374.374,0,0,1-.116.1l-.021.028-.009-.008c-.065.06-.041.072-.043.1l-.008.051-.018.025h0a.31.31,0,0,0-.109.1c-.04.055.021.013,0,.053l-.044.061h0l-.022.029c-.005.041-.049.086-.072.128h0c-.1.068-.091.168-.156.245l-.021-.008a.206.206,0,0,0-.063.09l-.08.113h0c-.047.036-.073.108-.115.153a.786.786,0,0,1-.1.157.319.319,0,0,0-.053.1h0c-.026.042-.053.083-.081.123s-.057.08-.085.12a2.3,2.3,0,0,0-.158.249l-.1.153h0l-.269.4h0a.009.009,0,0,1-.011,0c-.022,0-.038.014-.066.074s-.055.113-.083.17l-.083.174h0l-.113.187a1.572,1.572,0,0,0-.213.382.069.069,0,0,0,0,.013l-.037.06h0l-.075.12h0l-.031.029c-.027.038-.052.075-.075.114-.012.02-.024.039-.035.06s-.021.043-.031.066c-.059.134-.137.273-.207.41l-.018.05-.009.025-.005.012,0,0h0a.075.075,0,0,1,0,.015.062.062,0,0,1-.008.026.374.374,0,0,0-.028.041c0,.017,0,.022,0,.049l-.019.026.006.014c-.014,0-.022.02-.031.035a.132.132,0,0,1-.013.021l0,0h0l0,0-.012-.02-.021-.024c-.009,0-.021-.033-.029-.024h0c-.008.006-.017-.006-.024-.018s-.014-.025-.024-.024l-.013-.008-.007,0-.008,0a.022.022,0,0,1-.034,0c-.01-.007-.019-.016-.032-.014a.016.016,0,0,0-.008.01c-.014.007-.02-.006-.027-.014v0c-.006-.007-.01-.016-.024-.009l-.1-.09c-.026-.019-.044-.026-.043-.011h0l-.045-.04h0l-.024-.034c-.152-.112-.293-.25-.447-.356l-.012,0-.076-.066,0,0-.077-.07a.163.163,0,0,0-.059-.053.776.776,0,0,0-.206-.148h0l-.016-.015a.141.141,0,0,0-.1-.066l-.023.028a.155.155,0,0,0-.062-.039.6.6,0,0,0-.143-.107h0a1.037,1.037,0,0,1-.155-.15c-.067-.069-.135-.084-.2-.144h0l-.026-.027a.451.451,0,0,0-.171-.1l.141.128a.127.127,0,0,0,.07.052l0,0c.083.082-.02.024-.015.048h0l-.107-.094-.062-.039h0a1.7,1.7,0,0,1-.132-.115c-.1-.108-.17-.149-.22-.128-.014.006-.059-.027-.057,0a.33.33,0,0,0,.094.07c.007.024.039.05.065.076s-.035.013.029.057.068.03.043-.014h0c0-.01,0-.021-.015-.044h0a.437.437,0,0,1,.17.134c.021.021.034.027.045.026l.036.042a.548.548,0,0,1,.117.087.139.139,0,0,0,.072.023l.013.011a.09.09,0,0,0,.022.013l.017.028-.011,0a.316.316,0,0,0,.073.091l-.121-.08c-.04-.013.022.036.011.041-.025-.02-.051-.049-.074-.052,0,0,0,.014.007.023a.113.113,0,0,0,.06.037h0c.041.041.064.033.1.054h0l.023.03c.025.037,0,.064.088.113h0c.031.052.059.07.087.06l.038.018.022.023.029.018h0l.025.026h0a.3.3,0,0,0,.157.148h0l.065.09h0c-.006,0-.045-.018-.017.017a.241.241,0,0,0,.066.078.14.14,0,0,1-.038-.022h0a.158.158,0,0,0-.039-.045c-.085-.057-.069-.013-.063.02l.01.016c.046.049.085.073.117.072l0-.01c.038.026.071.045.073.023l.014.01a.053.053,0,0,0,.009.027.124.124,0,0,0,.059.055l.055.021a.142.142,0,0,0,.008.047v0l-.042-.018a.221.221,0,0,1-.077-.081l-.023-.019a1.243,1.243,0,0,0-.173-.073c.014.018.01.019,0,.013-.034-.043-.069-.044-.1-.074a.125.125,0,0,0-.065-.032s0,.01.006.019l-.014-.008h0c-.022-.036-.07-.074-.1-.111a.191.191,0,0,0-.106-.076.689.689,0,0,0-.23-.143.4.4,0,0,1-.132-.094.12.12,0,0,0-.08-.066.051.051,0,0,1,.011.016l-.011-.016c-.03-.009-.035-.036-.057-.052h0c-.037-.037-.107-.081-.086-.107a.158.158,0,0,0-.06-.051l-.049.006h0l-.116-.085c-.053-.018-.041.01-.006.057l.045.056.127.125a.331.331,0,0,0,.117.087c0,.022-.069-.007-.042.033.04.059.1.075.151.109a.281.281,0,0,1,.026.022l-.093.018c.082.034.181.14.244.144l0-.008.008,0,.007.01c.024.02.045.043.07.063-.008.007-.017.012-.042,0l-.023.011c-.1-.084-.116-.077-.082-.008-.021,0-.008.011.01.028l.007.005-.041-.007h0l0,0a.121.121,0,0,0-.049-.045,1.318,1.318,0,0,0-.2-.142l-.011-.006-.2-.146-.03-.018h0c-.049-.035-.071-.121-.141-.117a1.245,1.245,0,0,1-.126-.118.162.162,0,0,0-.064-.043c-.005.02-.031.006-.068-.025a1.334,1.334,0,0,0-.258-.193h0l-.083-.072h0c-.046-.046-.079-.046-.121-.075h0l-.029-.025h0l-.2-.145h0l-.025-.026-.063-.038a1.241,1.241,0,0,0-.21-.153l-.135-.1h0l-.093-.065h0l-.072-.079-.044-.008-.011.041a.231.231,0,0,0,.115.112l.007-.01c.031.021.055.021.089.054l.048.047a.374.374,0,0,0,.1.073c.018,0,.009-.018-.005-.038a.043.043,0,0,0,.024.008h0a.738.738,0,0,0,.117.121c.038.026.073.043.11.066a.154.154,0,0,0,.048.018.484.484,0,0,0,.164.122l.009,0a.242.242,0,0,0,.027.037c-.039-.018-.063-.021-.04.023h0l-.093-.012,0,0a.811.811,0,0,0-.177-.111v0l-.035-.018a.653.653,0,0,0-.083-.027c-.022.006-.064-.02-.1-.041h0c-.107-.087-.215-.164-.323-.237h0a.163.163,0,0,0-.024-.019l-.053-.047-.233-.166c-.055-.038-.11-.075-.164-.114-.078-.057-.013.045-.079,0,.008.029.05.051.073.077a.068.068,0,0,0,.048.03c.012-.02.062.008.1.019a.6.6,0,0,0,.071.093c-.018.007.021.032.035.046s.032.028.039.024l0,0a.541.541,0,0,0,.074.038.154.154,0,0,0,.032.011h0a1.691,1.691,0,0,0,.229.219h0a.51.51,0,0,0,.163.146h0l.076.065a.19.19,0,0,0,.052.029l.016.008a1.615,1.615,0,0,0,.241.152.381.381,0,0,1,.164.142c-.021.01.044.073.021.081l-.061-.037a.432.432,0,0,0-.117-.086.328.328,0,0,0-.089-.063h0l-.028-.024c-.058-.032-.118-.085-.176-.121l-.01,0h0l-.025-.022a.217.217,0,0,1-.026-.017c-.024.007-.02.031.021.078h0l.056.056-.045-.017-.02-.017a1.007,1.007,0,0,1-.084-.075s.005,0,0-.009l-.043-.053h0c0-.009,0-.021-.014-.044a1.573,1.573,0,0,0-.326-.237h0l-.017-.014h0l-.1-.116-.072-.036h0l-.1-.092h0a.681.681,0,0,0-.205-.149c-.02-.022-.037-.055-.063-.062s.006.032.02.055h0l.02.046h0a.246.246,0,0,0,.036.111.16.16,0,0,0,.042.054h0c.064.049.058.041.063.011s-.1-.124-.022-.1h0l.052.044.044.055h0l.019.031h0c0,.028-.057.015,0,.085.03,0,.049-.028.118.06h0c.044.043-.034.034.049.09s.039-.007.035-.032h0l.038.017.048.047c.016.038,0,.051-.037.041h0c-.015.007,0,.028.015.052-.014,0-.027-.006-.04-.009l-.013,0,.008.005c.058.1.149.112.22.176-.047,0-.106-.013-.123.017h0c-.014,0-.035-.017-.04-.014s.017.025.031.039h0c.037.046.018.072.122.171-.112-.155.007-.063.051-.052h0c.038.024.042.009.053,0a.169.169,0,0,1,.027.022c.039.015.085.05.086.075,0,.059.073.088.126.126.085.063.037-.01.057-.013h0l.086.057h0l.028.025a.134.134,0,0,0,.081.07h0a.7.7,0,0,1,.107.094v0a.7.7,0,0,1,.076.057l.028.025a3.149,3.149,0,0,0,.246.211c-.036-.015-.093-.054-.078-.007a.694.694,0,0,1,.158.2.362.362,0,0,0,.048.052c-.009.016-.036.021.026.079l.082.069h0a.131.131,0,0,0,.061.038.223.223,0,0,0-.063-.071c.014,0,.014-.029.061.032a.135.135,0,0,0,.06.042l.074.064c.018.022.018.033.013.042a.35.35,0,0,0,.175.164c.044.014.114.05.132.027h0a.177.177,0,0,1,.026.025.169.169,0,0,0,.047.039.238.238,0,0,0,.067.057.152.152,0,0,1,.028.01c.019.022.023.041.041.063v0c.035.029.059.04.07.029a.229.229,0,0,0,.088.1s0,.01,0,.019h0c-.013,0-.032,0-.064-.03l-.056-.05c-.016,0-.016.008-.016.018h-.053l.009.016a.407.407,0,0,0,.044.044c0,.018.036.048.061.074l0,0a.315.315,0,0,1-.093-.068v0a.084.084,0,0,0-.038-.047c-.012.024-.045.011-.1-.039h0c.017-.006-.021-.048-.02-.065.04.036.082.077.111.064l0-.011-.108-.079a.077.077,0,0,0-.014-.022.334.334,0,0,0-.1-.079c-.056-.042-.145-.132-.084-.018.03.057-.039-.006-.066-.016l0-.009c-.021-.031-.036-.059-.052-.087a.126.126,0,0,0-.033-.028c-.073-.061-.073.021-.165-.08l-.019.014h0l-.065-.039-.02-.011.02.011a.558.558,0,0,0-.131-.112l.019.029a.1.1,0,0,0,.029.032c-.023-.007-.058-.029-.055-.007l-.049-.04a.023.023,0,0,0-.014,0h0a.193.193,0,0,0-.025-.02l-.027-.027a.793.793,0,0,0-.117-.084h0l-.1-.089c.01-.028-.008-.055-.076-.082a1.085,1.085,0,0,1-.231-.169c-.083-.058-.131-.136-.21-.2a.358.358,0,0,0-.1-.1h0c-.081-.036-.154-.14-.235-.175-.037-.022-.038,0-.05,0h0a1.733,1.733,0,0,0-.22-.193,2.768,2.768,0,0,1-.3-.242c-.029-.017-.06-.051-.086-.056h0c-.07-.038-.137-.115-.207-.151h0a2.719,2.719,0,0,1-.268-.242l-.031-.017h0l-.08-.067h0a.472.472,0,0,0-.134-.114h0l-.185-.161c-.015.012-.052-.024-.081-.044-.114-.076-.145-.07-.1.024a.517.517,0,0,0,.114.084c.062.05.124.142.185.13h0c.028.027.034.044.034.059h0c.021.054,0,.068-.128-.015a.691.691,0,0,1,.169.177c0,.009-.032-.006-.017.018a.3.3,0,0,0,.134.135l.011.022a.651.651,0,0,0,.13.125c.027.018.046.026.045.011l.02.015.024.029.034.03.023.016-.03,0-.011-.008a.172.172,0,0,0-.1-.042h0a.256.256,0,0,0-.023-.024.4.4,0,0,0-.059-.042l-.008,0a.047.047,0,0,0-.022-.016l-.077-.022h0l-.092-.112-.009.011h0l-.08-.072a2.413,2.413,0,0,0-.191-.15h0a.086.086,0,0,0-.034-.03.918.918,0,0,0-.195-.148.1.1,0,0,1-.025-.011c-.114-.107-.238-.156-.357-.27-.059-.057-.062-.019-.072,0a.065.065,0,0,1-.051-.015c-.049-.039-.1-.076-.1-.037s.072.054.1.089h0l.042.067a.131.131,0,0,1,.044.055h0c-.1-.038,0,.043.02.079l-.009.007c-.04-.017-.063-.015-.034.026a.055.055,0,0,0,.05.023h0l.131.11-.012.034c-.005.022.036.047.062.071h0l.025.027c.079.062.033-.024.087.009h0l.063.035h0l.072.081c-.013.031.015.068.093.11h0l.026.023h0c.058.059.156.111.172.177.052.022.068.068.108.1s.046.084.1.09h0c.026.017.039.017.05.014l0-.007h0l0,.006a.482.482,0,0,0,.155.135h.009l-.009,0c.039.056.113.131.044.127-.016,0,.012.036.031.06l.088.057a.265.265,0,0,0,.089.042.148.148,0,0,0,.039.037l.032.016h0c.038.054.038.08-.008.072l.043.037a.169.169,0,0,1,.084.068h0c-.006,0-.007.007,0,.017a.568.568,0,0,0,.143.106h0a.352.352,0,0,1,.079.085l.153.135h0a.184.184,0,0,0,.073.076c.024.017.019,0,.022-.007h0l.022.016h0c.031.03.089.07.042.07.012.035-.058.006-.018.063.047.035.089.06.115.055l.036.044,0,0h0l.032.018h0c.027.025.043.045.042.062,0,.035.038.07.1.1l.02.035-.01.005h0c-.034-.029-.057-.038-.069-.029a1.289,1.289,0,0,0,.279.224c.037.035.074.07.093.054l-.107-.092h0l-.022-.022h0l.013-.019h0l.177.122.036.016.05.044c0,.016-.022.017,0,.051l.015.013a.021.021,0,0,0,0,.011c-.022-.018-.044-.036-.067-.052a.128.128,0,0,0-.04-.02c.032.053.107.107.142.164s.06.035.09.052l.054.046c.052.055.114.084.168.134l.005,0h0l.059.04h0a1.128,1.128,0,0,1,.135.117h0l-.014.018.024.023-.016.016h0c-.04-.011,0,.033,0,.053a.463.463,0,0,0-.158-.142c-.056-.03-.022.013-.015.034h0c-.043-.021-.087-.044-.1-.024l.016.045c.038.034.076.068.092.049.011,0,.028,0,.038,0,.032.031.063.054.077.037h0l.032.023h0c.055.047.1.125.168.135.024.014.048.028.043.007h0l.088.015,0-.01.02-.019a.485.485,0,0,0,.069.042l.025.017c.031.036.043.059.007.051a.046.046,0,0,0,.017.026c-.021,0-.028.016-.053.014l-.018.022a1.385,1.385,0,0,0,.288.208.022.022,0,0,0,0,.012c-.017.007,0,.029.033.061a.116.116,0,0,0,.07.029h0c0-.043.061-.008.114.015l0,.006c.007.021,0,.032.011.056.061.053.064.022.092.029s.035-.013.086.034h0c-.036.03.058.073.092.109.019,0,.007-.02-.009-.04a.073.073,0,0,0,.035.017h0l.013.011.012.01a.048.048,0,0,0-.017-.007c-.015,0-.019.011,0,.036l.019.016.022.018.043.038.085.077a1.378,1.378,0,0,0,.179.142l.174.1h0l.047.04,0,0,.012.019a.827.827,0,0,0,.141.111,1.15,1.15,0,0,1,.233.178c.075.069.15.144.229.207h0a.36.36,0,0,0,.159.13,1.35,1.35,0,0,0,.268.238l.107.058c.214.167.177.216.353.369.007-.024.064,0,.125.025l0,0a2,2,0,0,1,.215.162l0,0c.122.1.09.094.047.079s-.161-.1-.192-.089a2.594,2.594,0,0,0,.472.325l-.009-.024h0a.384.384,0,0,1,.1.07.649.649,0,0,0,.122.114c.063.042-.012-.029-.007-.036h0c.03.025.056.05.081.075l.035.038.009.01h0l0,0,.011-.013a.621.621,0,0,0,.1-.183c.011.027.032.018.1-.118s.156-.29.234-.435l.022-.1h0c.025-.058.031-.087.023-.095h0l-.008-.011c-.014,0-.03.007-.008-.058l-.008.011h0l.008-.01.122-.232c.028-.021.049-.025.053,0,.018,0-.032.142.033.023s0-.051.009-.1h0l.023-.046c.029-.082.1-.223.042-.178l.007-.018.084-.158h0c-.014.058-.019.1-.006.117a.219.219,0,0,0,.059-.123c0-.031-.006-.055.049-.16l.006.014c0,.035.013.009.041-.049l.057-.114a.763.763,0,0,1,.065-.218,1.405,1.405,0,0,1,.149-.234c.01,0,.019,0,.049-.043l.016-.007h0c-.02.116.048-.038.082-.114.025-.055.041-.1.058-.151a1.294,1.294,0,0,1,.07-.158c-.023-.039.1-.249.129-.351l-.007.005h0l.007-.005a.68.68,0,0,1,.041-.075l.011-.018.006-.009,0-.008.013-.018a.211.211,0,0,0,.039-.076h0a3.5,3.5,0,0,1,.2-.366c.021-.028.041-.055.063-.082.036-.094.1-.194.133-.287.015-.029.041-.075.022-.07s-.039.057-.059.087h0c-.02.024-.031.026-.038.016a.229.229,0,0,0,.042-.093c0-.026.023-.078.024-.108l.023-.107-.008-.008.015-.027h0a1.348,1.348,0,0,0,.223-.337s.008,0,.016,0a1.458,1.458,0,0,0,.1-.167c.031-.056.06-.112.09-.168a.165.165,0,0,1,.03-.064c.006-.02,0-.033,0-.039h0l.032-.065h0l.019.009v.009l.022,0a.135.135,0,0,0,.042-.061.1.1,0,0,1,.053-.035c.038,0,.062-.038.087-.116.006-.029.005-.051-.007-.059s-.028,0-.048.02l0,0,0,0h0a.429.429,0,0,0,.085-.153l.029-.022h0a.331.331,0,0,0,.078-.1c0,.023,0,.044.008.051h0a.225.225,0,0,0-.033.063v0a.313.313,0,0,0-.064.1c0,.012,0,.015.013.009a.141.141,0,0,0,.048-.056h0l.039-.055c.023-.039.053-.083.038-.1h0c.034-.062.089-.1.117-.166s-.02-.074.019-.155h0c.029-.033.07-.067.053-.1h0l.013-.025.073-.08h0l.033-.066,0,0,.088-.129.006,0,.021-.03.019-.071h0l-.028-.021-.04.055c-.015.019-.021.032-.016.036a.194.194,0,0,0-.019.034v.01a.444.444,0,0,0-.034.086c-.015-.014-.034-.017-.075.021h0l.053-.081.038-.069h0a.086.086,0,0,0,.043-.044c.03-.042.022-.046.009-.044l0,0c.023-.021.049-.049.057-.03l.019.014a.048.048,0,0,0,.005.018,1.019,1.019,0,0,0,.179-.227l.017-.028-.006-.008h0c.017-.04,0-.079.068-.121a.111.111,0,0,0,.039-.057l.012-.024.008,0c.028-.046.081-.1.059-.127s.039-.06.052-.09l.082-.11h0c.014.01.014.053.068-.036a.5.5,0,0,1,.132-.21.357.357,0,0,0,.09-.13c.009-.038-.026-.022-.052-.011a1,1,0,0,0-.124.2c-.03.048-.066.094-.1.142h-.005a.049.049,0,0,0-.019-.05h0l.058-.083-.006-.009h0l.087-.122a.188.188,0,0,0,.031-.025.46.46,0,0,0,.088-.136c.05-.026.112-.141.158-.142a1.1,1.1,0,0,0,.1-.137c.049-.059.057-.091.037-.106a.729.729,0,0,1,.075-.124.026.026,0,0,0,.019,0l.006,0c-.008.018,0,.026,0,.031a.194.194,0,0,0,.073-.113h0a.178.178,0,0,1,.1-.146,1.829,1.829,0,0,0,.16-.27h0a.147.147,0,0,0,.032-.063h0l.087-.11h0c.035,0,.014.091.066.04s.01-.082.049-.15l.008-.013c.057-.1.073-.065.08-.048.018.043.041-.016.064-.055a.509.509,0,0,0,.022-.075l.019-.033a.246.246,0,0,0,.018-.031l.008-.021.009-.01c.051-.065.055-.117.1-.181l.079-.115a.859.859,0,0,0,.08-.086c.058-.076.11-.157.166-.235.028-.039.057-.077.089-.114a1.019,1.019,0,0,1,.1-.1c.027-.035.064-.073.053-.095h0l.384-.447.2-.24h0c.085-.094.175-.184.264-.275l.161-.231a.117.117,0,0,0,.053-.073v0a.352.352,0,0,0,.072-.1h0l.067-.075h0c0,.021,0,.032.028.021l.057-.081-.024-.024h0l.068-.076-.06.032h0l.021-.025c.042-.057.128-.114.124-.171h0a1.016,1.016,0,0,0,.149-.143h0l.148-.151c.071-.077.145-.153.213-.231.032-.036.043-.065-.015-.015h0c-.018-.007,0-.032.029-.063l.143-.151h0l.058-.043c.028-.037.093-.082.075-.119-.033.035-.057.081-.1.1l0,0-.143.147h0c-.053.025-.052-.014-.073-.026a.156.156,0,0,0-.038.027.557.557,0,0,0-.126.169l.008,0h0l-.021.029h0l-.1.094-.02.024-.045.044a.313.313,0,0,1-.07.046h0a.489.489,0,0,0-.111.133l0,0c-.024.025-.046.051-.069.078h0c-.06.036-.09.106-.141.153a.084.084,0,0,0-.028.032l-.019.02h0c-.013-.008-.031-.011-.071.025h0l-.015-.015h0l.014-.017h0a.09.09,0,0,0,.032-.033l.2-.241c0-.02,0-.033-.018-.028.033-.066.107-.078.142-.141l.228-.259,0-.014h0a.24.24,0,0,0,.067-.072l.02-.024c.026-.034.035-.058.024-.07-.035.006.009-.06-.012-.067h0a1.09,1.09,0,0,1,.1-.108l.019-.036.033-.053c0-.02-.011-.01-.027,0l-.032.026.005-.009c.015-.03,0-.049.054-.1.025-.019.048-.03.073-.05h0a.038.038,0,0,0,.024,0,.11.11,0,0,0-.045.071c0,.005,0,.007.01.006h0l.025.011c-.028.049-.038.08.022.043l.025-.027h0c.063-.05.034-.076.078-.121l.114-.077.007-.012s0,0-.013,0l-.071.021h0l-.013,0h0c-.005-.018.037-.074-.006-.06a.607.607,0,0,0,.091-.112l.049-.044c.027-.045.019-.061-.01-.058h0l.01-.043.028-.026.04-.041h0c.009,0,.019,0,.04-.024a.931.931,0,0,0,.247-.3c0-.009,0-.014,0-.014l.046-.047c.026-.023.051-.048.076-.072-.01.017-.018.034-.028.052s-.017.039.006.032c.053,0,.111-.1.165-.129,0-.043-.073.007-.077-.027h0a1.369,1.369,0,0,1,.159-.148.838.838,0,0,0,.148-.157h0l.045-.044h0a1.089,1.089,0,0,0,.141-.148c-.064.007-.169.143-.214.123-.028-.012-.028-.012.085-.119h0a.7.7,0,0,0,.138-.109l.02-.038h0a.221.221,0,0,0,.017-.021h0l.187-.172c-.017-.073-.084,0-.161.1a.789.789,0,0,1-.071.071h0l-.034.016-.076.06-.027.018-.012.011a.213.213,0,0,0-.056.04h0c-.025.04-.08.069-.109.108l0,0-.037.03-.005,0a.865.865,0,0,0-.136.111l.015-.031c.057-.051.1-.1.08-.123h0l.046-.043c0,.008.008.009.022,0a.717.717,0,0,0,.229-.208,3.659,3.659,0,0,1,.316-.332h0a.364.364,0,0,0,.1-.1.326.326,0,0,1,.106-.092l.044-.057h0a1.214,1.214,0,0,0,.154-.153c-.044-.008-.1.067-.151.1h0l-.047.013-.022.017c-.04.038-.038.046-.015.04l0,0c-.033.032-.065.064-.1.1l0,.006-.042,0-.1.1h0l-.063.049c0-.029.044-.062.074-.094l.088-.083c.03-.028.061-.055.091-.082h0l.169-.182-.006-.01.025-.024a.107.107,0,0,0,.087-.062l.005-.008-.005.008.124-.124h0c.029-.022.058-.012.087-.064.047-.087.13-.1.191-.161h0c.074-.062.117-.108.046-.1-.027.009,0-.032-.017-.035l.022-.02h0l.013-.01,0,0a.05.05,0,0,0,.025-.011l.047-.05h0c.093-.063.177-.145.266-.215h0c.018,0,.04-.022.062-.038.128-.13.008-.1.033-.168l-.008-.024h0a.792.792,0,0,0,.215-.234.1.1,0,0,1,.082-.083l.053-.045.131-.11c.014-.02.027-.041.04-.061a.243.243,0,0,0-.113.1c0-.02-.006-.028-.03-.025l-.01.005a.049.049,0,0,0,.016-.025l.009-.006a.2.2,0,0,0,.035-.04.348.348,0,0,0,.047-.037.022.022,0,0,0,0,.014.079.079,0,0,0,.054.009.1.1,0,0,0,.051-.029v.008c.006,0,.015,0,.029-.006a.756.756,0,0,0,.144-.112.421.421,0,0,1,.027-.036l.034-.023.136-.116h0a.309.309,0,0,0,.118-.122C174.721,6935.578,174.719,6935.557,174.7,6935.562Zm-3.584,1.271Zm-.143.155h0l0,0Zm-.548.653a1.042,1.042,0,0,0,.084-.073c0,.014-.018.04-.01.047a.118.118,0,0,0-.039.034h0c-.022,0-.042.006-.066.012Zm-1.054,1Zm-.241.166h0l-.006,0Zm.015.072-.007.009-.016,0A.078.078,0,0,1,169.14,6938.879Zm-3.837,4.466h0l-.044.059h0c-.025.009-.031.037-.045.057l-.029.011a.157.157,0,0,0,.013-.052.169.169,0,0,0,.086-.1v0c.046-.018.076-.082.111-.133l.009.007A.7.7,0,0,0,165.3,6943.345Zm.105-.2h0l0,0h0Zm.222-.386h0l-.03.056a.263.263,0,0,0-.061.047.238.238,0,0,0,.022-.068.108.108,0,0,0,.051-.046l0,0,.026-.019h0Zm.719-.77-.048.059c.01-.025.013-.042,0-.039l.009-.012.023-.022.026-.03,0,0A.28.28,0,0,1,166.349,6941.991Zm.39-.647v0h0Zm.055.119h0c-.029.033-.027.021-.024.009l.037-.042a.008.008,0,0,0,.006.009h0Zm.028-.143Zm.038-.147a.138.138,0,0,1-.027.024.34.34,0,0,0,.031-.029Zm.1-.107,0,0,.006-.007h0Zm-6.834,6.733v0l-.038-.017,0-.006a.6.6,0,0,0-.057-.049.25.25,0,0,0-.037-.021h0c.018,0,.007-.033.034-.028l.014.017a.367.367,0,0,0,.09.093l.008,0Q160.129,6947.792,160.129,6947.8Zm.142.231-.019-.031h0l.009.006c.017,0,.021-.006.018-.017a.249.249,0,0,0,.094.1.047.047,0,0,0,0,.033Zm.269.015v0l0,0Zm0,0Zm-1.2-.348,0-.006.016.007,0,0A.032.032,0,0,0,159.341,6947.7Zm-1.674-.627,0,0v0Zm-.24.263Zm.375.279Zm.108-.05,0-.016a.007.007,0,0,0,.01,0C157.928,6947.562,157.924,6947.568,157.91,6947.565Zm.115.019a.35.35,0,0,0-.075-.05l-.009,0-.021-.018c.032.012.039,0,.054-.01a.265.265,0,0,0,.058.057A.085.085,0,0,0,158.025,6947.584Zm.166.205a.181.181,0,0,0-.061-.049l0,0h.006l0-.009a.09.09,0,0,0,.04.012l.012,0,.01.008C158.184,6947.757,158.182,6947.769,158.191,6947.789Zm.1-.409a.022.022,0,0,0,0-.016l.023.015Zm.212.519h0l0,0Zm.173.5v0l0,0Zm.09-.633h0a.11.11,0,0,0-.06-.02.437.437,0,0,0-.046-.027,2.093,2.093,0,0,1-.212-.172c.006-.023,0-.057.087,0,.024.018.038.023.047.02s-.006.012.009.029a2.223,2.223,0,0,1,.21.137h0a.133.133,0,0,1,.047.058Zm.1.491.008.007h0Zm.3.249h0v0Zm.235-.047h0Zm-4.062-1.575h-.005v0c-.061-.071-.117-.119-.162-.106a.325.325,0,0,0-.093-.106c.05.021.091.033.055-.029l0-.005.015.005c.014,0,.021,0,.018-.017a.326.326,0,0,0,.059.058l0,0-.012.01c-.017.027.041.073.086.116a.177.177,0,0,0,.048.037C155.376,6946.894,155.374,6946.9,155.341,6946.881Zm.37.115h0Zm.028.023Zm.445.682Zm.53-.364,0,0-.007-.009Zm.066.733,0,0,.01.006v0C156.8,6948.092,156.794,6948.086,156.78,6948.07Zm.141.037h0l0,0Zm.011-.383-.009-.006c-.02-.007-.039-.014-.044-.006a.5.5,0,0,0-.173-.131c-.029-.011-.066-.032-.073-.016a.256.256,0,0,1-.048-.036c.071.017.027-.029-.015-.075.072,0-.021-.057-.066-.1l-.027-.016a.115.115,0,0,0-.012-.03.431.431,0,0,0,.1.1.133.133,0,0,0,.07.028l.006-.006a.158.158,0,0,1,.036.046.789.789,0,0,0,.146.113l.02.017c.005.033.056.079.086.12h0Zm.068.84h0l.018.007.01.014A.272.272,0,0,0,157,6948.564Zm.118-.471.005,0v0h0Zm.011.417h0l0,0Zm.125.186h0l0,0,0,0h0Zm-.037-.65a.2.2,0,0,0,.037.021h0l.012.012A.394.394,0,0,1,157.217,6948.046Zm.346-.01h0Zm.032.39Zm.22.771a.411.411,0,0,0-.1-.052.087.087,0,0,0-.024-.02c.006-.01-.006-.032-.031-.06l-.013-.011,0,0,0,0,.032.016a.59.59,0,0,0,.107.1.253.253,0,0,1,.044.032l0,.011Zm.178.288v0l0,0h0l0,0,0,0Zm.018-.509h0v0Zm.032-.3v0h0l0,0Zm.136.052.005,0,0,0Zm.185,1.027-.015.017c-.022-.012-.033-.013-.037,0l-.011,0,0,.008h0a.214.214,0,0,0-.074-.061.216.216,0,0,0-.035-.044.012.012,0,0,0,.009-.01l.036.03c.03.015.057.026.054,0l.077.067Zm.149-.959h0l0,0Zm-.014.068Zm0,.734,0,0Zm0,0s0-.006.008,0l.015.014Zm.078.341c-.007,0-.011,0-.012,0l-.013-.011c0-.009-.006-.024-.017-.041l.048.051Zm.01-.745v0l.006,0Zm.073-.344h0l0,0Zm.064-.01h0v0l0,0Zm.026.283,0,0,.007.01Zm.288,1.329,0-.006.007.006Zm.237-.964.008.009h0l-.011,0Zm-.022.2h0l0,0Zm-.022.076Zm-.047.7-.013-.008a.094.094,0,0,1,.015-.042l.026.011a.7.7,0,0,0,.087.106.049.049,0,0,0,.013.028Zm.135-.037,0-.008.008.007Zm.021-.834h0l0,0Zm.017.832h0l-.006-.006,0-.01a.018.018,0,0,1,0,.016Zm.205-.226v0l.016.012Zm.418-1.53,0,0,0,0Zm-.117-.089h0v0C159.861,6948.6,159.843,6948.568,159.858,6948.579Zm-.24,1.85h0l.018.021Zm.048.446-.005-.006-.019-.023a.249.249,0,0,0,.029.022Zm.02-.176v0l0,0Zm.009-1.236h0Zm0,1.278h0l.006.007Zm-.026-2.488a.231.231,0,0,1,.073.02h0l.006.007.047.041a.325.325,0,0,1-.039-.023A.549.549,0,0,0,159.674,6948.253Zm.1.223Zm0,0-.006,0v0Zm-.011-.042,0,0h0Zm.06,1.531h0l0,0Zm.112.286Zm.019.471,0,0,.005,0Zm.046-.369h0Zm.024-.608c0,.028-.059-.009-.088-.012l-.031-.01h0a.182.182,0,0,1-.068-.045l-.055-.1h0l-.026-.023h0a.878.878,0,0,1,.114.042h0a.309.309,0,0,0,.123.106.085.085,0,0,0,.015.022l.013.015Zm0-.86h0v0Zm.007,2.105h0Zm.254-1.715-.021-.019.026.021Zm.069.416h0Zm.072-.406v0l.005,0Zm.048-.791-.027-.02-.005-.006a.473.473,0,0,0,.058.035l.007.016Zm.039,1.708h0v0Zm.151-1.014h0Zm.024.093-.036-.03c.014.01.029.022.044.035Zm.08.467v0h0l0,0Zm.042-.714h0l0,0Zm.526-.018,0,.014h0c-.006.011-.015.02-.006.038h0C161.3,6949.036,161.328,6949.03,161.336,6949.016Zm-.028-.33.008.008-.008,0Zm0,.2v0l0,0Zm-.007.033h.005l0,0v.006l0,0,0,0v0l-.005-.006Zm-.015.228h0Zm-.07-.12.006.005,0,0,.006.008-.01,0-.005,0h0l-.005,0C161.211,6949.035,161.212,6949.033,161.212,6949.028Zm.014.371,0,0,0-.009Zm-.051.274a.054.054,0,0,1,.01.019h0l-.01-.008Zm0,1.259,0,.006-.007-.006Zm-.039-1.129h0l-.006,0v0l.006.007Zm-.009-.623,0,0C161.13,6949.19,161.123,6949.182,161.125,6949.18Zm0,1.844-.007,0a.325.325,0,0,1-.03-.028Zm-.262.418Zm.028-1.381h0Zm.014-1.56Zm.023,1.044h0Zm.019-.67.006,0v0Zm.072,1.157h0l0,0Zm.027,1.414-.007-.011.013.012Zm-.006-2.154.005,0Zm-.042-.41-.015-.011,0-.006a.1.1,0,0,0-.008-.059.21.21,0,0,0,.027.024.266.266,0,0,0,.04.044l0,.007.007.02C161.032,6948.888,161.011,6948.877,161,6948.882Zm.312,3.379-.011-.009c-.075-.052-.154-.128-.23-.187.06.03.148.091.209.123l.038.043h0Zm.015-1.2.015.011.014.02Zm.07-1.9a.159.159,0,0,0-.034-.036.022.022,0,0,0,.02-.015.053.053,0,0,0,.028.03A.021.021,0,0,0,161.4,6949.161Zm.016.06h0v0Zm.141-.294h0Zm0,1.515v0h0l0,0Zm-.01,1.806.009.008-.008,0v0Zm-.056-1.493h0Zm.033,1.65h0l-.026-.033.065.058Zm.05-3.241Zm.036-.045a.1.1,0,0,0-.018-.037l0,0,.008.008c.007.006.013.015.02.021S161.607,6949.112,161.6,6949.119Zm.02.068Zm0,.087v0l0,0Zm.055-.166Zm.026,1.059Zm0-1.165h0Zm.008,2.68,0,0,0,0Zm.005-1.76Zm.007.25h0v0l0,0Zm0-.363-.009-.027h0l0,0C161.733,6949.8,161.734,6949.808,161.731,6949.809Zm.03-.712h0v0Zm0,.376h0Zm.009-.363,0-.01,0,.009Zm.071,3.527h0l0,0Zm0-3.408h0v0Zm.184-.148,0,0h0Zm-.056,1.245,0,0,0-.006Zm-.021-1.391,0,.01h0Zm-.077.881v0l0,0Zm.013-.839v0l.008,0Zm.017,0H161.9l.006,0Zm.017.4,0,0,0,0Zm.009,2.934,0,0h0l0,0Zm.015.421-.014-.017c.026.022.052.042.079.062Zm.078-4.261,0,0h0C162.018,6948.489,162.02,6948.485,162.026,6948.474Zm-.005,1.933h.005l.005.01Zm.024-1.383Zm.005.073Zm0,3.783Zm0,0h0Zm0-3.311v-.008l0,0Zm.032-.274v0h0Zm.013,1.768.007,0v0Zm.034-2.3-.019.032-.007.01-.013.021-.012-.007v-.009c.009,0,.015-.006.02-.013l0,0,0,0,.005-.008a.131.131,0,0,1,.022-.023Zm.01.925v0h0Zm.019-1.642s0,0,0-.007l.01-.007Zm.022.816Zm.027-.354h0Zm.043,2.8-.014-.011,0,0,.006,0h0l.006-.013Zm.014-.458h0v0Zm.021-.421Zm.022-1.139Zm.022.38Zm.014-1.772h0Zm0,1.644Zm0,1.77h0Zm.312-.532Zm-.013-2.533,0,.006S162.646,6948.254,162.65,6948.251Zm-.006,2.953,0,0Zm-.074-2.126v0h0Zm-.186.407,0,0Zm0,0,0,0h0v0l0-.007S162.39,6949.484,162.388,6949.489Zm.007-.376Zm.015,1.632,0,.008h0l.005-.008Zm0-.979,0,0h0v0Zm.005-1.191,0,0,.005-.008Zm0,.553h0Zm0,1.068Zm0,0h0Zm.06-.8h0Zm.041,1.349v0h0Zm0-2.9s.006.006.012,0l-.1.189c-.031.02-.036,0-.012-.049l.047-.1-.007,0a.342.342,0,0,0,.1-.13C162.574,6947.761,162.512,6947.834,162.521,6947.848Zm.026,1.669,0,0v0Zm.146,3.754-.011.017,0,0h0l-.009-.008-.035-.029c-.023-.019-.046-.037-.069-.054l0,0c-.014-.028.01-.025,0-.052l.008.006,0,0h0l.106.1h0l0,0h.032Zm.043-2.285v0l0-.007Zm.012-.321v0l.011-.02Zm.014-1.041v0h0v0Zm0,2.062h0Zm.037-3.412h0l.006-.007Zm.025,1.331Zm0-.271,0-.007h0l0,0Zm.014.288-.007.015v0l.007-.011Zm.026.026Zm.015-.934v0h0Zm.005-1.639Zm.014,3.272.012-.03.009,0Zm.026-2.378h0Zm.009,1.75,0,0h0Zm.018-.079h0Zm.034,2.366h0Zm0-.731,0-.01S163,6951.263,162.992,6951.275Zm.014-2.831,0,0v0l-.015.015a.116.116,0,0,1,.017-.019l0,0Zm0-1.032h0Zm.019,5.216,0,0,.009-.018Zm.022-4.456h0l0,0Zm.01.152h0l0,0Zm.013-1.118h0l.005-.011Zm.048.366Zm.023,3.747h0l0-.006h0Zm.015-.828Zm.035-1.089h0l-.009.016-.018.013a.112.112,0,0,1,.027-.029Zm.045-2.775-.068.1h0l-.012-.006h0l-.008-.01a.357.357,0,0,0,.026-.052c.011.031.048-.036.076-.07l-.009.017Zm.022,2.017a.085.085,0,0,1-.009.03l0-.011.012-.019Zm.026-.067-.005.009,0-.007,0,0h0Zm.008,1.2,0,0v0Zm0-1.879v0h0Zm.01,2.328Zm.019.338c0,.006,0,.009,0,.01s-.014.02,0-.015l.01-.015Zm0-3.718.009-.014h0Zm.024,2.064Zm.03-2.354v0Zm.03-.213c-.01-.006-.018-.017-.035-.012a.4.4,0,0,0,.027-.044.02.02,0,0,0,.014,0h0Zm.086,1.727Zm0-.992Zm0,1.629Zm.11-.523h0Zm.018,1.683h0Zm.048,1.708Zm.034-1.95Zm.012-1.624h0Zm.033-.839h0Zm.029-.155h0a.014.014,0,0,1-.013,0h.016Zm.008,1.335h0Zm0-1.416.01-.021.014-.022Zm.034-.916,0-.007S163.831,6946,163.823,6946.012Zm.01,2.99h0Zm0,1.755,0-.02a.121.121,0,0,1,.021-.025Zm.017-3.618a.019.019,0,0,1,.013,0l-.007.01h0C163.853,6947.149,163.851,6947.145,163.852,6947.139Zm.008,1.316,0-.014.012,0Zm-.113-2.571.006,0a.363.363,0,0,0-.046.077.163.163,0,0,0-.062.071c-.05.065-.05.09-.038.1-.025.034-.051.068-.075.1l-.01.019-.015-.008,0,0c-.035.011,0-.022.016-.046a.063.063,0,0,0,.013-.025.2.2,0,0,0,.044-.078h0a.429.429,0,0,0,.061-.07.718.718,0,0,0,.062-.1.134.134,0,0,0,.021-.079.1.1,0,0,0,.026-.042h0a.187.187,0,0,0,.029-.023c.05-.067.079-.061.118-.089A2.217,2.217,0,0,0,163.747,6945.884Zm.155,2.067v-.007l.01-.009Zm.009,1.677v0l-.006,0Zm0,.628.008-.018a.076.076,0,0,1,.015-.018Zm.057-.3h0l.014-.029Zm.022-2.977h0l0,0v0h0Zm0-1.593h0l-.02.027h0l-.02-.012-.042.061-.024.052c.021,0,.043-.069.066-.07a.431.431,0,0,1-.075.129h0l-.031.025c-.019.053-.077.1-.093.157h0l-.056.053.006-.02v-.009l.092-.172.021-.028c.025-.027.044-.05.038-.063a.314.314,0,0,0,.014-.035l.011-.007a.408.408,0,0,0,.036-.039.644.644,0,0,0,.094-.155h0a.012.012,0,0,0,.011,0l-.029.064c.027,0,.048-.034.069-.077a.007.007,0,0,0,.008.006l-.016.024h0Zm.032,3.984v0h0Zm.037-3.834v-.006l0,0Zm.02,4.872h0v0Zm0-1.666h0Zm-.013-3.3a.539.539,0,0,0-.062.069v0c.017-.05.029-.1.083-.124A.127.127,0,0,0,164.064,6945.433Zm.021,3.518Zm.012-3.9-.005.007,0-.01v0Zm.028,2.721v0h0v0l0-.006h0Zm.005-.015h0v0Zm.034-1.547h0l-.005.008Zm0,.007Zm0,2.946.005-.006v0Zm.022-.2h0l0,0h-.005l.013-.011Zm.08-.494,0,0h0l-.006.006.007-.007h0Zm0,.87-.008.012.01-.018Zm.006-.792-.007.014h0C164.263,6948.563,164.281,6948.541,164.274,6948.554Zm.007-.521a.271.271,0,0,0-.038.033.079.079,0,0,1,.038-.033Zm.022-2.469h0l0,0Zm.008.228h0l0,0v-.008l.005,0Zm0,3.468a.153.153,0,0,0,0-.025l.007-.012A.109.109,0,0,1,164.312,6949.26Zm.008-.876,0-.007Zm.011.508,0,0,0-.009Zm.027-3.337h0Zm.058-.358-.012.017,0-.009a.024.024,0,0,1,.014-.008Zm.006.1Zm.013,3.014h0l.008-.007Zm.005-1.061h0l.009-.013Zm.067,1.63h0Zm.037.83a.161.161,0,0,0,.011-.046.288.288,0,0,0,.038-.052A.274.274,0,0,1,164.544,6949.706Zm.048-3.469-.018.027s0,.008,0,.009h0c.011,0-.014.014,0-.006l.039-.064Zm.041.77,0,0h0C164.647,6946.988,164.643,6947,164.633,6947.007Zm0-1.052,0,0,.008-.013Zm.042,2.16h0Zm.012-.2h0v0h0Zm.039.695,0,0,.006-.008A.054.054,0,0,1,164.73,6948.613Zm.043-2.908h0c.008,0,0,0,0,0Zm.005,2.144h0v0l0,0,0,0Zm0-1.726h0a.056.056,0,0,1,.006-.023l.011,0Zm.022,1.74h0v0h0Zm.1-2.062,0,.007h0Zm-.031-1.318h0Zm0,1.1v0l.007-.01Zm.016,2.92h0l0,0Zm.018-2.18a.2.2,0,0,1-.026.022l.029-.027Zm.008-.108h0Zm.039-.373,0,0h0Zm-.023,2.078v0l.009-.009Zm.012-1.293,0-.012.009-.009Zm.077-.778Zm.008-.82v0Zm.021,2.992Zm.11-1.724v0h0Zm.023-.243Zm0,0h0l0,0h0Zm.1.067h0v0Zm0,0v0h0Zm.007,2.053h0Zm0-2.8h0v0h0Zm.024,2.525v0h0Zm.011-1.652Zm.059.293v0h0Zm.064-2.356,0,0h0Zm-.027,3.068h0Zm0-1.122,0,0,0,0Zm.016-1.181v0Zm0,1.552.008-.012h0l0-.005h0C165.444,6946.487,165.419,6946.5,165.418,6946.5Zm.018-2.818,0,0,0,0Zm.041.537Zm.174-.69h0Zm.142.11Zm-.1-.36h0l-.009.006A.023.023,0,0,1,165.7,6943.282Zm.1,4.154,0,0a.318.318,0,0,0-.028.06v.008a.29.29,0,0,0-.068.1.285.285,0,0,1,.05-.122.129.129,0,0,0-.059.047h0l-.007-.009.015-.025h0a.191.191,0,0,0,.045-.052.541.541,0,0,1,.049-.081c-.016.026-.042.061-.017.058a.074.074,0,0,0,.017-.023s0,0,.008,0l0,0Zm.007-1.486,0-.006,0,0Zm.043-1.942h0l0,0Zm.007,3.127v0h0l.005-.015Zm.007-.017v0l0,0Zm.027-3.5h0Zm.008,2.55h0Zm.124-3.121-.008.012Zm-.042-.021-.009.013C165.97,6943.03,165.972,6943.028,165.974,6943.029Zm-.011.331Zm.027,3.717-.04.029-.012.01h0l.066-.1A.127.127,0,0,0,165.99,6947.077Zm.02-3.432.01-.007-.012.017Zm.007,1.087v0h0Zm.009-1.043-.01.014,0,0,.014-.012Zm.031.623,0,0h0Zm0,0h-.005l.009-.007Zm.009.007Zm.041-.014h0l0,0v0h0Zm0-1.535,0,0,.012-.015Zm.068.063h0Zm.1,1.916h0l0,0Zm.026-.3v0h0l0,0Zm.051,1.242,0,0Zm.064-1.2v0l0,0,0,0h0Zm.01-.814Zm-.005,1.532v0h0Zm0,.365h0l.006-.008Zm.129-.3a.376.376,0,0,1,.036-.04.518.518,0,0,0-.033.046Zm.056.723a.1.1,0,0,0,0,.023l-.03.017A.182.182,0,0,0,166.6,6946Zm-.022.117s-.009,0-.024.008l0,0a.206.206,0,0,1,.059-.077h0l.011,0C166.61,6946.07,166.6,6946.093,166.578,6946.116Zm.093-3.3h0l0-.007,0,0Zm.014.058,0-.007h0Zm.023,1.891.02-.025v0Zm.068-1.315,0,0C166.767,6943.46,166.772,6943.455,166.776,6943.453Zm-.005.211.022-.04-.017.033Zm.124-.555,0,0h0Zm0,1.591h0l0,0h0Zm0-1.235,0,.005h0l.006-.013Zm.009.347,0-.007h.005Zm.017-.78Zm.021,1.524h0v0l-.005,0,.005,0Zm.014-1.033h0Zm.036-.96h0l.008,0Zm.006,1.315Zm.031.838v0h0Zm.065.227,0,0h0Zm.021.149h0Zm.035-3.574h0l0,0Zm.037,3.5,0,0h0Zm.039-2.578-.016.014.029-.031Zm.049.266s0,0,0,.006l-.01.006Zm.008.239v.009l-.007,0Zm0,.913,0,0,0,0Zm.012-.1.005-.006h0Zm.016-1.419h0l.005-.007h0Zm.058.324h0l.007-.009,0,.008Zm.057.514,0-.008h0Zm.058-.619h0Zm.005.335-.006.007.006-.008Zm.01-.22,0,0,0,0Zm.058,1.66Zm.006-1.142h0l0,0Zm0-1.348v0h0Zm.035,1.492v0l.005,0Zm.011.138a.059.059,0,0,0,0,.012l0,0,.006-.01Zm.039-1.455,0,0h0Zm.1-.149s-.006,0-.006,0l.01-.008Zm.5-2.159-.008.015,0,0Zm-.414.317h0c-.017.014-.024.017-.026.015Zm-.03,3.59.011-.007Zm.027-.7h-.005l.005,0Zm.089.451Zm.013-1.487h0Zm.03.64,0,0,0,0v0Zm0-1.982,0,0h0l0,0Zm.016,1.286Zm.072,1.247v0l0,0Zm.124-1.411a.189.189,0,0,1-.032.036l.056-.065,0,0Zm-.019-.611c-.008,0,.014-.011,0,0l-.013.011.007-.008S168.175,6941.053,168.173,6941.052Zm.015.513v0h0Zm.027-1.2h0v0h0v0Zm.061,1.992,0-.014,0,0Zm.021,1.131h0v0Zm.019-1.616v0h0Zm.015,1.594,0,0,0-.005Zm.016-2.079,0,0,.013-.018Zm.009-.019h0c-.005,0,0-.005,0,0Zm.011,1.176,0,0a.208.208,0,0,1,.046-.045Zm0-1.062.009-.01,0,0Zm.015-1.106,0,0h0Zm.051,1-.009.011.01-.015Zm0-.013Zm.017-.48-.008.009,0-.006.005,0Zm.017,2.015h0l0,0v0Zm.009.008,0,0h.006Zm.024-3.072h0Zm.049,2.627v0l0,0Zm0,0h0Zm.046.183Zm.015-.3h0l.008-.01Zm.024-1.48,0,0,.007-.007Zm0-.744h0Zm.006.039a.064.064,0,0,1,.021-.015h0Zm.016.132Zm0-.146h0l.007,0Zm.01,2.472h0s0-.007,0-.013l0,.006Zm.023-3.18c-.051.073-.017.074,0,.092a.407.407,0,0,0-.1.1.119.119,0,0,0-.016.035l-.035.054.014.019h0a.252.252,0,0,1-.073.068l0,0c.013-.019.022-.034.005-.029a2.042,2.042,0,0,1-.272.2l0-.009s0,0-.012,0l-.024.026a.14.14,0,0,0-.055.067.2.2,0,0,1-.048.109.123.123,0,0,0-.031.067l.008,0a.727.727,0,0,1-.118.08h0c-.029.039-.049.086-.1.107l-.014.012.01-.014c.04-.053-.005-.064.068-.134a.046.046,0,0,0,.006-.028c-.005-.006-.014,0-.025,0,.06-.064.12-.127.179-.192a.858.858,0,0,0,.077-.1l0-.014h0c.033.009.086-.065.128-.1a.874.874,0,0,0,.13-.143c.029-.03.058-.06.083-.091.012-.015.023-.03.033-.045a.352.352,0,0,0,.025-.046c.009.012.035,0,.067-.03a.448.448,0,0,1,.1-.082Zm.051,1.244-.01.013c.007-.01.009-.013,0-.011S168.759,6940.658,168.743,6940.676Zm.04-.319v0h0l0,0Zm0,.936,0,0h0Zm.01,1.571h0l0,0Zm.076.007-.009.006h0l.01-.011Zm.041-.329Zm-.006-2.92h0Zm.015,2.917-.011.007h0l.012-.014Zm.06-1.942.007-.008v0Zm.044.454-.006.005.011-.013Zm.019-1.09.006-.011.007,0Zm.034,2.69h0Zm.012-2.15,0,0,.011-.013Zm.022-.026h0C169.106,6940.473,169.118,6940.467,169.114,6940.475Zm0-1.308h0Zm.045,2.564.01-.014h0Zm.04.459h0C169.211,6942.188,169.185,6942.209,169.2,6942.19Zm.009-1.381h0Zm.052.1h0Zm.013.252Zm.045-1.8Zm.025.184v0l.019-.019Zm.026,2.521,0,0,.009-.009Zm.056-1.357-.006,0h0l.007-.008Zm.014-.373Zm.011-1.149,0,0h0Zm.085,1.628,0,0h0Zm0,1.138s-.006.007-.005,0l.009-.01Zm.1-3.079,0,.015-.015,0Zm-.007,2.136.005-.005h0Zm.079-1.009h0Zm0-.6v0l.006,0Zm.117.308h0Zm.065,1.83c-.009.011.014,0,0,.017l-.014.017-.024.011h0l.029-.063h0l.039-.042h0c0,.006,0,.008.008.006A.244.244,0,0,0,169.885,6941.545Zm1.133-1.175h0a.177.177,0,0,1-.017.023Zm-.509.519h0l.122-.12h0a1,1,0,0,1,.084-.1h0c.013.007,0,.036.005.051l-.042.043a.61.61,0,0,0-.063.049.76.76,0,0,0-.1.108c-.011.015-.021.03-.03.045l-.023.023h0a.023.023,0,0,0-.012,0C170.449,6940.959,170.5,6940.919,170.509,6940.889Zm-.226.17h0Zm-.28-1.089,0-.005C170.014,6939.965,170.007,6939.97,170,6939.97Zm.042,1.172,0,0a.137.137,0,0,0,.027-.013A.062.062,0,0,1,170.045,6941.142Zm.039-.568h0l0,0,0,0Zm.008.009.011-.012,0,.005Zm.037-1.5-.007,0a.055.055,0,0,1,.019-.009Zm.065,1.6h0l0,0Zm0-1.66h0l.007-.006Zm.14.3h0C170.32,6939.32,170.342,6939.307,170.333,6939.319Zm.089,1.193h0l0,0Zm.136-1.369Zm.114.322h0Zm.009.309h0l0-.008h.005Zm.039-.978a.029.029,0,0,1-.011.015l.011-.015h0Zm.086.5Zm0,0,0,0h0Zm0-.254h0Zm0-1.152Zm.12.132h0Zm.1.164Zm.032-.093,0,0,.005-.005Zm.072.306h0l0,0Zm.019-.4h0Zm.109.587h0v0Zm.018.382h0l0,0h0Zm-.008-1.741a.072.072,0,0,1,.018-.02l.042-.023Zm.1,1.943v0h0l0,0Zm.009-1.433.007,0-.008.007Zm0,.649,0,0h0Zm.033.314,0,0v0Zm.092-1.114v0h0Zm.2-.483,0,0v0Zm.015.23,0,0h0l0,0v0Zm.071.784h0l0,0Zm.091-.169.006-.007.005,0Zm.043,0h0l0,0Zm0-.154h0l0,0h0Zm.037-.6a.031.031,0,0,0,0,.02l-.014,0,.013-.013.005-.009Zm.026.882h0l.011-.011v.006Zm.066-.841,0,0h0l.005-.006Zm.168.609.009-.012,0,0Zm0-.25,0-.007h0l-.006.006Zm-.006-.933h0l-.061.037h0c-.013-.006-.09.059-.05-.005h0l.083-.073v.007c.006.013.016.022.04.019l0,0Zm.024.136Zm.149.059h0l0,0h0C172.379,6936.866,172.412,6936.843,172.4,6936.859Zm.04.378h0Zm.212-.795h0l0,0Zm.05.224,0,0h0Zm.076-.353h0Zm.02.411h0Zm.17.422,0,0h0l-.006.006Zm-.041-.168-.006,0,.009-.008Zm.048.177v.007l-.013,0,.013-.012Zm.125-.524.041-.035a.4.4,0,0,1,.048-.03l.017-.012A.215.215,0,0,1,173.1,6936.631Zm.165-.064h0l0,0Zm.007-.393Zm.433-.537c-.013.014-.021.025-.021.032a.212.212,0,0,0-.042.021C173.655,6935.667,173.667,6935.64,173.7,6935.637Zm-.307.5.012,0Zm.032-.05,0,0h0l0,0,0,0Zm.09.562,0,0,.01,0Zm.061-.752-.01,0a2.032,2.032,0,0,1-.232.181l-.005.006-.036,0c.019-.025.013-.032.009-.041.046-.04.071-.071.059-.086l.007-.009c.011-.018.017-.033.026-.05l0,0,.074-.038h0c0,.017.019.019.051,0a.33.33,0,0,0,.1-.094l.011-.016.01,0a.231.231,0,0,0,.066-.047c0,.022.029.006.059-.01a.133.133,0,0,0-.038.07l-.092.076A.1.1,0,0,0,173.577,6935.9Zm.205.292h0l.009-.008,0,0Zm.835-.547Zm0,0h0Z" fill="#47aea9"/>
    <path id="Path_13828" data-name="Path 13828" d="M155.123,6946.348a.062.062,0,0,0-.018-.028c-.017-.016-.037-.03-.038-.017s.016.021.027.035Z" fill="#47aea9"/>
    <path id="Path_13829" data-name="Path 13829" d="M159.593,6947.187h0l.1.1.026.021a.025.025,0,0,1-.012,0c.009.033.049.065.087.1a.253.253,0,0,1,.037.027,1.076,1.076,0,0,0,.087.084h0l.022.024a.106.106,0,0,0,.065.034c-.069-.079-.074-.141-.169-.226h0c0-.035-.06-.074-.1-.111l-.01,0h0l-.027-.022c-.047-.039-.1-.1-.141-.1s-.018.03.024.076Z" fill="#47aea9"/>
    <path id="Path_13830" data-name="Path 13830" d="M174.328,6935.555l.022.026a.053.053,0,0,0,.031-.011l.029-.024.025-.016h0c.008.007.015.025.042,0,.056-.049,0-.038.008-.06-.014-.007.011-.049-.063,0C174.374,6935.5,174.344,6935.518,174.328,6935.555Z" fill="#47aea9"/>
    <path id="Path_13831" data-name="Path 13831" d="M174.521,6935.587c-.018.019-.007.023.01.016.065-.026.1-.085.147-.124A.421.421,0,0,0,174.521,6935.587Z" fill="#47aea9"/>
    <path id="Path_13832" data-name="Path 13832" d="M155.555,6946.533c.047.034.124.109.127.074s-.07-.064-.111-.093C155.558,6946.514,155.528,6946.5,155.555,6946.533Z" fill="#47aea9"/>
    <path id="Path_13833" data-name="Path 13833" d="M155.351,6946.23l.061.037h0c.039.033.077.066.1.052l.048.008c-.054-.08-.071-.04-.107-.063h0a.368.368,0,0,0-.11-.076h0l-.025-.021-.037-.015C155.287,6946.179,155.324,6946.2,155.351,6946.23Z" fill="#47aea9"/>
    <path id="Path_13834" data-name="Path 13834" d="M155.585,6946.189c-.047-.055.147.041-.024-.089l-.033-.018C155.463,6946.078,155.538,6946.139,155.585,6946.189Z" fill="#47aea9"/>
    <path id="Path_13835" data-name="Path 13835" d="M164.552,6944.515l.021.026a.194.194,0,0,0,.078-.128.149.149,0,0,0-.063.046Z" fill="#47aea9"/>
    <path id="Path_13836" data-name="Path 13836" d="M173.819,6935.078c.011.01.012.028.051.009s.041-.056.062-.084l0-.012c-.008,0-.021,0-.039.009-.042-.006-.1.042-.151.1l-.036.014h0l.014-.04a1.748,1.748,0,0,0-.189.165c-.011.02-.007.026.016.017l.026-.019a.726.726,0,0,1,.107-.1l-.042.064a.384.384,0,0,0,.122-.085h0l.048-.036v0S173.81,6935.082,173.819,6935.078Z" fill="#47aea9"/>
    <path id="Path_13837" data-name="Path 13837" d="M172.1,6936.285a.424.424,0,0,0,.083-.063.24.24,0,0,0,.045-.056l-.015-.017-.05.041h0l-.072.037a.174.174,0,0,0-.065.088.272.272,0,0,0,.062-.035C172.084,6936.285,172.089,6936.286,172.1,6936.285Z" fill="#47aea9"/>
    <path id="Path_13838" data-name="Path 13838" d="M173.147,6935.514c.02-.037.085-.079.1-.116l.017-.031c-.062.058-.136.1-.193.165h0a.222.222,0,0,1-.1.055.062.062,0,0,0-.028.018c-.012.015-.018.027-.014.033a.522.522,0,0,0,.152-.071h.006A.162.162,0,0,0,173.147,6935.514Z" fill="#47aea9"/>
    <path id="Path_13839" data-name="Path 13839" d="M173.3,6935.462l-.01-.007a.69.69,0,0,1-.122.086l-.01.016a.035.035,0,0,0,0,.02c.006.009.017.014.042,0C173.244,6935.538,173.3,6935.5,173.3,6935.462Z" fill="#47aea9"/>
    <path id="Path_13840" data-name="Path 13840" d="M159.444,6947.45c.032.014.037,0,.023-.022s-.063-.05-.075-.079C159.312,6947.337,159.4,6947.4,159.444,6947.45Z" fill="#47aea9"/>
    <path id="Path_13841" data-name="Path 13841" d="M156.429,6946.19h0a.759.759,0,0,0,.214.195.064.064,0,0,0,.034.017v-.048c-.06-.037-.108-.094-.164-.137h0l-.149-.1h0l-.063-.043c-.029-.006-.1-.066-.1-.014l.174.081Z" fill="#47aea9"/>
    <path id="Path_13842" data-name="Path 13842" d="M174.182,6936.155c-.008.024-.07.069-.047.076a.169.169,0,0,0,.065-.03C174.239,6936.155,174.208,6936.157,174.182,6936.155Z" fill="#47aea9"/>
    <path id="Path_13843" data-name="Path 13843" d="M156.6,6946.443a.454.454,0,0,0-.091-.069.5.5,0,0,0,.082.079C156.61,6946.465,156.613,6946.462,156.6,6946.443Z" fill="#47aea9"/>
    <path id="Path_13844" data-name="Path 13844" d="M172.009,6936.343c-.029-.007-.058.023-.089.064l.012.022c-.018.032,0,.028.032.011l.006,0-.009.029a.091.091,0,0,0,.082-.072l-.025,0a.217.217,0,0,0,.058-.078C172.08,6936.288,172.037,6936.327,172.009,6936.343Z" fill="#47aea9"/>
    <path id="Path_13845" data-name="Path 13845" d="M171.789,6936.541a.166.166,0,0,0-.139.123.154.154,0,0,0,.067-.043C171.725,6936.593,171.762,6936.567,171.789,6936.541Z" fill="#47aea9"/>
    <path id="Path_13846" data-name="Path 13846" d="M172.789,6935.99a1.4,1.4,0,0,0-.2.144l-.008.007-.007,0c-.026.021-.051.044-.077.066a.121.121,0,0,0-.051.05l.005.009h0a.655.655,0,0,0-.08.08c-.011.02.027,0,.047-.016.03-.034.083-.05.1-.094l.056-.048h0c.027-.009.055-.017.082-.025l.019-.016C172.683,6936.1,172.8,6936.028,172.789,6935.99Z" fill="#47aea9"/>
    <path id="Path_13847" data-name="Path 13847" d="M173.092,6935.732c.036-.013.052-.051.082-.071l-.007-.008-.009-.006a.106.106,0,0,0-.069.029l-.052.041C173.04,6935.737,173.065,6935.735,173.092,6935.732Z" fill="#47aea9"/>
    <path id="Path_13848" data-name="Path 13848" d="M172.742,6936.153c.026-.023.053-.045.08-.067a.135.135,0,0,0,.06-.039c-.01-.006-.005-.029-.048,0h0c-.054.042-.112.1-.156.1l-.019.016C172.613,6936.244,172.638,6936.244,172.742,6936.153Z" fill="#47aea9"/>
    <path id="Path_13849" data-name="Path 13849" d="M171.073,6940.223c-.018-.028-.063.049-.091.063a.038.038,0,0,0-.022.023h.048l.055-.039C171.108,6940.224,171.1,6940.22,171.073,6940.223Z" fill="#47aea9"/>
    <path id="Path_13850" data-name="Path 13850" d="M171.232,6940.144c-.026.033-.083.06-.084.106.034-.031.069-.059.1-.088.019-.017.031-.033.026-.041S171.256,6940.118,171.232,6940.144Z" fill="#47aea9"/>
    <path id="Path_13851" data-name="Path 13851" d="M170.226,6941.345h0Z" fill="#47aea9"/>
    <path id="Path_13852" data-name="Path 13852" d="M159.045,6947.469c.031,0,.011-.024-.006-.051-.034-.034-.068-.082-.107-.08s0,.035.018.067C158.986,6947.457,159.016,6947.47,159.045,6947.469Z" fill="#47aea9"/>
    <path id="Path_13853" data-name="Path 13853" d="M160.016,6948l-.078-.021a.137.137,0,0,0,.044.051c.022.021.047.06.063.042l.007-.009h0c.052.027.04-.014.073-.008.015,0,.055.046.05.024a.158.158,0,0,0-.062-.067l-.067-.05C160.005,6947.947,160.071,6948.024,160.016,6948Z" fill="#47aea9"/>
    <path id="Path_13854" data-name="Path 13854" d="M159.575,6947.563c.023,0,0-.029-.032-.056-.014-.007-.053-.052-.035-.012C159.535,6947.517,159.536,6947.554,159.575,6947.563Z" fill="#47aea9"/>
    <path id="Path_13855" data-name="Path 13855" d="M173.425,6936.087h0Z" fill="#47aea9"/>
    <path id="Path_13856" data-name="Path 13856" d="M173.425,6936.087h0Z" fill="#47aea9"/>
    <path id="Path_13857" data-name="Path 13857" d="M157.278,6946.59l.024-.023a.243.243,0,0,0-.1-.092c-.042-.021-.046,0-.029.028A.39.39,0,0,0,157.278,6946.59Z" fill="#47aea9"/>
    <path id="Path_13858" data-name="Path 13858" d="M156.607,6946.581s-.011-.019-.02-.034c-.011,0-.023,0-.025,0s.005.023.027.037S156.607,6946.587,156.607,6946.581Z" fill="#47aea9"/>
    <path id="Path_13859" data-name="Path 13859" d="M173.727,6936.795a.268.268,0,0,0-.042.025.125.125,0,0,0-.018.031.181.181,0,0,0,.033-.019A.281.281,0,0,0,173.727,6936.795Z" fill="#47aea9"/>
    <path id="Path_13860" data-name="Path 13860" d="M156.6,6946.707c-.031-.027-.066-.076-.108-.081A.242.242,0,0,0,156.6,6946.707Z" fill="#47aea9"/>
    <path id="Path_13861" data-name="Path 13861" d="M171.866,6936.6a.143.143,0,0,0,.051-.087c-.007-.007-.019-.007-.045.021-.049.078-.179.114-.208.2l.01.006A.955.955,0,0,0,171.866,6936.6Z" fill="#47aea9"/>
    <path id="Path_13862" data-name="Path 13862" d="M172.4,6938.586a.108.108,0,0,0,.029-.032c.052-.048.074-.082.047-.093a.251.251,0,0,0-.111.122C172.351,6938.609,172.373,6938.6,172.4,6938.586Z" fill="#47aea9"/>
    <path id="Path_13863" data-name="Path 13863" d="M171.276,6939.681l.049-.046c.02-.032.008-.04,0-.05a.117.117,0,0,1-.024.023C171.22,6939.677,171.235,6939.687,171.276,6939.681Z" fill="#47aea9"/>
    <rect id="Rectangle_11" data-name="Rectangle 11" transform="translate(157.123 6948.095) rotate(-42.51)" fill="#47aea9"/>
    <path id="Path_13864" data-name="Path 13864" d="M159.036,6947.624c.08.143.142.12.207.158l.015-.018C159.173,6947.685,159.139,6947.742,159.036,6947.624Z" fill="#47aea9"/>
    <path id="Path_13865" data-name="Path 13865" d="M160.286,6948.279h0Z" fill="#47aea9"/>
    <path id="Path_13866" data-name="Path 13866" d="M160.228,6948.291l.016.018a.118.118,0,0,0,.053.027c.018,0,.006-.029-.011-.056l-.027-.022C160.22,6948.244,160.238,6948.28,160.228,6948.291Z" fill="#47aea9"/>
    <path id="Path_13867" data-name="Path 13867" d="M160.172,6948.195c0-.017.044-.016-.04-.065l0,.05h0c-.048-.031-.062-.027-.052,0l.115.082-.037-.062h0Z" fill="#47aea9"/>
    <path id="Path_13868" data-name="Path 13868" d="M173.417,6937.094a.18.18,0,0,0,.086-.077h0c.034-.035.041-.056.023-.064h0c-.013-.055-.1,0-.2.075.045.008.132-.058.127-.014l-.022.032C173.373,6937.1,173.4,6937.1,173.417,6937.094Z" fill="#47aea9"/>
    <path id="Path_13869" data-name="Path 13869" d="M173.274,6937.2h0l-.025.006a.233.233,0,0,0-.081.069.123.123,0,0,1-.025.023c-.082.067-.12.14-.191.209h0l-.027.023c-.039.037-.1.075-.089.107.027-.02.061-.031.077-.067h0c.076-.039.117-.115.182-.165v0c.06-.069.17-.13.187-.2h0C173.283,6937.2,173.281,6937.2,173.274,6937.2Z" fill="#47aea9"/>
    <path id="Path_13870" data-name="Path 13870" d="M167.149,6941.266l.07-.083-.009,0a.208.208,0,0,0-.085.07C167.088,6941.309,167.115,6941.292,167.149,6941.266Z" fill="#47aea9"/>
    <path id="Path_13871" data-name="Path 13871" d="M168.4,6939.737c.008.016.035,0,.07-.026l.051-.057C168.5,6939.621,168.449,6939.684,168.4,6939.737Z" fill="#47aea9"/>
    <path id="Path_13872" data-name="Path 13872" d="M172.824,6937.841c-.024-.007-.062.008-.111.041-.013.018-.029.037-.039.054s-.025.036-.037.053l0,.011.04-.006.1-.088h0l.047-.012a.245.245,0,0,0,.11-.081l-.007-.011h0a.821.821,0,0,0,.192-.136.459.459,0,0,0-.206.12l-.063.037-.023.018Z" fill="#47aea9"/>
    <path id="Path_13873" data-name="Path 13873" d="M173.024,6937.821c.009.015.057-.016.091-.063l-.014-.017C173.073,6937.769,173.014,6937.806,173.024,6937.821Z" fill="#47aea9"/>
    <path id="Path_13874" data-name="Path 13874" d="M157.473,6947.756c-.009-.008-.024-.015-.036-.023a.136.136,0,0,0,.015.029.327.327,0,0,0,.044.031A.193.193,0,0,0,157.473,6947.756Z" fill="#47aea9"/>
    <path id="Path_13875" data-name="Path 13875" d="M158.3,6948.5a.565.565,0,0,0-.117-.087c.019.042.08.067.109.106h0l.015.014.078.055a.078.078,0,0,0,.02.01l-.026-.032Z" fill="#47aea9"/>
    <path id="Path_13876" data-name="Path 13876" d="M158.431,6948.458l.033-.035c-.038-.029-.062-.037-.072-.024S158.4,6948.431,158.431,6948.458Z" fill="#47aea9"/>
    <path id="Path_13877" data-name="Path 13877" d="M168.215,6940.367h0Z" fill="#47aea9"/>
    <path id="Path_13878" data-name="Path 13878" d="M166.947,6944.556h0Z" fill="#47aea9"/>
    <path id="Path_13879" data-name="Path 13879" d="M166.947,6944.556h0Z" fill="#47aea9"/>
    <rect id="Rectangle_12" data-name="Rectangle 12" transform="matrix(0.504, -0.864, 0.864, 0.504, 164.262, 6948.479)" fill="#47aea9"/>
    <path id="Path_13880" data-name="Path 13880" d="M164.262,6948.479Z" fill="#47aea9"/>
    <path id="Path_13881" data-name="Path 13881" d="M164.262,6948.479Z" fill="#47aea9"/>
  </g>
</svg>
