<svg xmlns="http://www.w3.org/2000/svg" width="369.302" height="436.274" viewBox="0 0 369.302 436.274">
  <g id="Group_20" data-name="Group 20" transform="translate(0.751 -300.475)">
    <g id="Group_16" data-name="Group 16" opacity="0.5">
      <g id="Group_6" data-name="Group 6" opacity="0.49">
        <path id="Path_14" data-name="Path 14" d="M189.432,449.45c2.549,1.349,3.591,4.6,3.207,7.462s-1.9,5.422-3.376,7.9l-6.045,10.1c-1.86,3.109-4.135,6.518-7.7,7.18a7.08,7.08,0,0,1-6.275-2.134,8.464,8.464,0,0,1-2.191-6.346,15.4,15.4,0,0,1,1.052-4.271,44.69,44.69,0,0,1,10.684-16.451,15.725,15.725,0,0,1,4.838-3.475A6.935,6.935,0,0,1,189.432,449.45Z" fill="#47aea9"/>
        <path id="Path_15" data-name="Path 15" d="M215.705,453.1c3.141,1.633,4.426,5.573,3.953,9.031s-2.337,6.561-4.162,9.556l-7.449,12.226c-2.293,3.762-5.1,7.889-9.486,8.689a8.821,8.821,0,0,1-7.734-2.582,10.138,10.138,0,0,1-2.7-7.681,18.418,18.418,0,0,1,1.3-5.168,54,54,0,0,1,13.167-19.91,19.373,19.373,0,0,1,5.963-4.206A8.685,8.685,0,0,1,215.705,453.1Z" fill="#47aea9"/>
        <path id="Path_16" data-name="Path 16" d="M244.735,452.427c2.327,2.756,2.407,8.322,1.07,12.932s-3.8,8.495-6.2,12.242l-9.8,15.3c-3.018,4.707-6.581,9.82-10.654,10.148-2.59.209-4.931-1.76-6.113-4.837a19.123,19.123,0,0,1-.329-10.884,37.11,37.11,0,0,1,2.517-6.786A85.544,85.544,0,0,1,232.1,455.806a19.812,19.812,0,0,1,6.363-4.675A5.357,5.357,0,0,1,244.735,452.427Z" fill="#47aea9"/>
        <path id="Path_17" data-name="Path 17" d="M200.361,459.531a53.943,53.943,0,0,0-10.937,17.639,18.418,18.418,0,0,0-1.3,5.168,10.138,10.138,0,0,0,2.7,7.681,8.821,8.821,0,0,0,7.734,2.582,9.4,9.4,0,0,0,4.371-2.149A61.27,61.27,0,0,1,200.361,459.531Z" fill="#2b7a78"/>
        <path id="Path_18" data-name="Path 18" d="M229.008,494.11a58.8,58.8,0,0,1-.562-34.355,88.919,88.919,0,0,0-13.229,20.783,37.11,37.11,0,0,0-2.517,6.786,19.123,19.123,0,0,0,.329,10.884c1.182,3.077,3.523,5.046,6.113,4.837C222.866,502.745,226.163,498.443,229.008,494.11Z" fill="#2b7a78"/>
        <path id="Path_19" data-name="Path 19" d="M178.791,452.888a44.69,44.69,0,0,0-10.684,16.451,15.4,15.4,0,0,0-1.052,4.271,8.464,8.464,0,0,0,2.191,6.346,7.077,7.077,0,0,0,6.275,2.133,6.671,6.671,0,0,0,1.2-.343,46.527,46.527,0,0,1,2.774-29.511C179.257,452.451,179.019,452.666,178.791,452.888Z" fill="#2b7a78"/>
        <path id="Path_20" data-name="Path 20" d="M216.909,515.325c-3.12-2.31-55.87-32.52-61.47-35.73,2.02-4.24,18.869-39.35,26.5-48.08,5.869-6.72,5.01-10.12,4.61-11a2.165,2.165,0,0,0-2.04-1.34,3.946,3.946,0,0,0-2.54,1.15c-1.641,1.49-11.25,16.32-19.2,30.03-11.03,19.02-15.61,29.78-13.61,31.99,4.04,4.45,59.63,37.7,64.66,38.67a8.044,8.044,0,0,0,1.57.16,4.6,4.6,0,0,0,2.21-.5,2.484,2.484,0,0,0,1.19-1.39C219.209,518.015,218.489,516.495,216.909,515.325Zm.93,3.65c-.24.75-1.16,1.2-2.45,1.2a7.685,7.685,0,0,1-1.38-.14c-4.98-.97-60.1-33.95-64.11-38.37-3.79-4.18,29.48-57.65,32.74-60.6a2.954,2.954,0,0,1,1.87-.89,1.175,1.175,0,0,1,1.13.75c.669,1.47-.1,4.95-4.45,9.93-8.17,9.36-26.09,47.13-26.85,48.73a.488.488,0,0,0,.2.65c.59.33,58.6,33.54,61.78,35.9C217.539,517.035,218.129,518.125,217.839,518.975Z" fill="#4c5f7b"/>
        <path id="Path_21" data-name="Path 21" d="M192.359,451.955c-2.36-2.81-6.66-5.37-9.031-5.37a2.024,2.024,0,0,0-1.309.39c-1.65,1.31-18.95,22.53-18.48,28.51a1.853,1.853,0,0,0,.9,1.56c1.139.64,2.97,1.78,4.91,3.01.01,0,.01.01.02.01.61.39,1.23.79,1.84,1.18.27.18.55.35.82.52.01.01.02.02.029.02,1.951,1.25,3.711,2.37,4.651,2.89a.926.926,0,0,0,.44.11c3.42,0,16.35-24.35,17.01-28.05C194.409,455.315,193.789,453.665,192.359,451.955Zm.81,4.6c-.9,5.03-13.841,27.04-16,27.23-.591-.34-1.52-.91-2.62-1.6-.86-.54-1.82-1.16-2.8-1.78-1.32-.84-2.671-1.7-3.87-2.45-1.17-.73-2.2-1.37-2.95-1.78-.14-.08-.351-.25-.39-.77-.42-5.29,15.87-25.88,18.1-27.65a1.144,1.144,0,0,1,.689-.17,8.277,8.277,0,0,1,3.511,1.22h.02a16.89,16.89,0,0,1,4.73,3.79,8.591,8.591,0,0,1,.94,1.34.01.01,0,0,0,.01.01A3.957,3.957,0,0,1,193.169,456.555Z" fill="#4c5f7b"/>
        <path id="Path_22" data-name="Path 22" d="M218.219,454.225c-2.161-2.78-5.78-4.96-8.24-4.96a2.559,2.559,0,0,0-1.83.63c-.65.61-3.16,3.8-6.321,8.11-.009,0-.009.01-.02.02s-.009.01-.009.02c-.5.67-1.02,1.39-1.54,2.12-3.29,4.58-7.02,10.02-9.98,14.92a.052.052,0,0,0-.02.04c0,.01-.01.01-.01.02a.01.01,0,0,1-.01.01c-3.29,5.44-5.63,10.19-5.37,12.31a1.614,1.614,0,0,0,.78,1.3c1.48.83,4.13,2.58,6.7,4.28,2.26,1.49,4.4,2.9,5.47,3.5a.668.668,0,0,0,.4.11c1.089,0,3.77-3.55,6.89-8.44v-.01c5.81-9.1,13.13-22.87,14.63-27.25v-.02c.089-.24.15-.44.2-.62C220.429,458.4,219.828,456.3,218.219,454.225Zm.76,5.84c-1.171,4.58-10.38,21.08-16.21,29.91-.29.43-.56.82-.82,1.21v.01a.01.01,0,0,0-.01.01l-.01.01c-1.76,2.58-3.11,4.28-3.68,4.43-1.07-.61-3.15-1.98-5.35-3.44-2.58-1.7-5.24-3.46-6.76-4.32-.061-.03-.23-.12-.28-.54-.16-1.32.89-3.94,2.62-7.19v-.01a.01.01,0,0,1,.01-.01,183.157,183.157,0,0,1,11.46-17.92.01.01,0,0,0,.01-.01v-.01c1.94-2.74,3.77-5.23,5.29-7.22a18.551,18.551,0,0,0,.02-.02,50.344,50.344,0,0,1,3.559-4.33,1.639,1.639,0,0,1,1.151-.36c1.66,0,4.04,1.23,5.94,2.95l.01.01a13.318,13.318,0,0,1,1.5,1.61C218.419,456.105,219.489,458.045,218.979,460.065Z" fill="#4c5f7b"/>
        <path id="Path_23" data-name="Path 23" d="M246.139,452.495c-1.88-2.59-4.86-4.39-7.25-4.39a3.32,3.32,0,0,0-2.52,1.01c-.76.82-3.48,4.51-7,9.56-.33.49-.68.98-1.03,1.49-3.85,5.58-8.47,12.52-12.49,19.04v.01c-.01.02-.021.03-.03.05-5.6,9.09-10.03,17.37-9.6,20.08a1.393,1.393,0,0,0,.67,1.06c1.48.84,4.09,2.65,6.62,4.4,2.23,1.55,4.34,3.02,5.42,3.62a.74.74,0,0,0,.36.09c1.83,0,8.51-10.7,14.93-22.06.68-1.21,1.359-2.41,2.03-3.62.01-.01.01-.03.02-.04,4.09-7.38,7.85-14.6,9.9-18.88,0-.01.01-.01.01-.02v-.02a34.19,34.19,0,0,0,1.48-3.42A8.734,8.734,0,0,0,246.139,452.495Zm.57,7.66a.661.661,0,0,0-.05.15l-.01.01v.01c-1.821,5.43-10.6,21.46-17.78,33.35-.98,1.61-1.92,3.14-2.811,4.55,0,.01-.009.01-.009.02a.01.01,0,0,0-.01.01.01.01,0,0,1-.01.01c-3.26,5.18-5.84,8.86-6.71,9.23-1.06-.61-3.1-2.02-5.241-3.51-2.549-1.77-5.179-3.59-6.7-4.45-.09-.05-.14-.16-.17-.34-.29-1.86,2.24-7.08,5.94-13.48,4.13-7.12,9.71-15.69,14.47-22.7,2.3-3.39,4.42-6.42,6.08-8.73,1.68-2.34,2.9-3.96,3.4-4.5a2.366,2.366,0,0,1,1.79-.68c2.05,0,4.76,1.67,6.439,3.98A7.756,7.756,0,0,1,246.709,460.155Z" fill="#4c5f7b"/>
        <path id="Path_24" data-name="Path 24" d="M167.641,472.739c-.165-.249-.6-.1-.5.21a16.564,16.564,0,0,0,.724,2.847.338.338,0,0,0,.626-.169A5.968,5.968,0,0,0,167.641,472.739Z" fill="#4c5f7b"/>
        <path id="Path_25" data-name="Path 25" d="M170,473.892a1.493,1.493,0,0,0,.125,2.011c.284.22.777.032.653-.38-.139-.46-.259-.721.025-1.162C171.132,473.855,170.327,473.39,170,473.892Z" fill="#2b7a78"/>
        <path id="Path_26" data-name="Path 26" d="M189.926,482.8a.283.283,0,0,0-.542,0,12.774,12.774,0,0,0-.06,4.416.346.346,0,0,0,.663,0A12.774,12.774,0,0,0,189.926,482.8Z" fill="#4c5f7b"/>
        <path id="Path_27" data-name="Path 27" d="M191.4,485.486a4.906,4.906,0,0,0-.156,2.755c.111.375.763.444.829,0a22.364,22.364,0,0,1,.344-2.474A.528.528,0,0,0,191.4,485.486Z" fill="#4c5f7b"/>
        <path id="Path_28" data-name="Path 28" d="M212.118,497.392a4.308,4.308,0,0,1-.139-1.265c-.02-.3-.449-.474-.6-.164-.394.786-.355,2.484.678,2.783a.387.387,0,0,0,.471-.471A6.271,6.271,0,0,0,212.118,497.392Z" fill="#4c5f7b"/>
        <path id="Path_29" data-name="Path 29" d="M214.3,497.061c-.143-1.086-.164-2.188-.342-3.267-.061-.372-.585-.244-.613.083-.171,1.949-.271,4.687.752,6.431a.362.362,0,0,0,.67-.181C214.689,499.1,214.433,498.085,214.3,497.061Z" fill="#4c5f7b"/>
        <path id="Path_30" data-name="Path 30" d="M189.014,453.68c-1.434-.571-3.366-.108-4.859.032a.665.665,0,0,0,0,1.329c1.493.14,3.425.6,4.859.032A.729.729,0,0,0,189.014,453.68Z" fill="#fff"/>
        <path id="Path_31" data-name="Path 31" d="M188.009,456.7a5.338,5.338,0,0,0-1.854-.182.86.86,0,0,0,0,1.719,5.361,5.361,0,0,0,1.854-.181A.71.71,0,0,0,188.009,456.7Z" fill="#fff"/>
        <path id="Path_32" data-name="Path 32" d="M212.035,458.6c-1.274-.314-2.779.266-4.041.522-.688.14-.5,1.177.161,1.189,1.319.026,2.846.3,4.071-.247A.807.807,0,0,0,212.035,458.6Z" fill="#fff"/>
        <path id="Path_33" data-name="Path 33" d="M212.958,462.327a15.282,15.282,0,0,1-3.136.249c-1.052-.057-1,1.481,0,1.6a6.687,6.687,0,0,0,3.708-.493C214.362,463.31,213.717,462.211,212.958,462.327Z" fill="#fff"/>
        <path id="Path_34" data-name="Path 34" d="M241.045,457.233a6.826,6.826,0,0,0-2.89-.069.88.88,0,0,0,0,1.758,6.794,6.794,0,0,0,2.89-.069A.847.847,0,0,0,241.045,457.233Z" fill="#fff"/>
        <path id="Path_35" data-name="Path 35" d="M241.394,460.51a6.73,6.73,0,0,0-2.572-.325,1.192,1.192,0,0,0,0,2.383,6.73,6.73,0,0,0,2.572-.325A.907.907,0,0,0,241.394,460.51Z" fill="#fff"/>
      </g>
      <g id="Group_7" data-name="Group 7" opacity="0.49">
        <path id="Path_36" data-name="Path 36" d="M.019,549.865a82.39,82.39,0,0,1,8.61,14.3c.34.72.67,1.43.97,2.15q.96,2.16,1.77,4.37.855,2.31,1.58,4.68c.12.38.23.77.34,1.16a.185.185,0,0,1,.02.07c.12.4.23.8.34,1.21.18.63.34,1.26.49,1.9.19.76.37,1.53.53,2.3.18.86.36,1.74.59,2.61.05.2.1.39.15.58.07.24.14.48.22.71a13,13,0,0,0,.47,1.23v.01c.13.28.26.55.41.81a7.572,7.572,0,0,0,.49.76,6.111,6.111,0,0,0,.65.78c.17.17.34.33.52.48h.01a6.618,6.618,0,0,0,.61.47q.315.21.63.39c.01.01.02.02.03.02a11.469,11.469,0,0,0,1.23.58c.17.06.34.13.51.18a15.8,15.8,0,0,0,1.66.49c.29.08.58.14.87.2.32.07.64.14.96.2a137.2,137.2,0,0,0,26.12,2.36c1.01,0,2.03-.01,3.04-.03h.42c.77-.02,1.54-.04,2.31-.07.38-.01.77-.02,1.15-.04.9-.03,1.8-.08,2.7-.12q3.855-.21,7.71-.56c.88-.08,1.77-.17,2.65-.26q1.665-.165,3.33-.36c1.03-.11,2.05-.24,3.07-.37.19-.02.38-.05.57-.07.93-.12,1.85-.24,2.78-.37l1.06-.15h.01q2.835-.405,5.67-.85h.01l.17-.03c1.52-.24,3.03-.49,4.55-.75,1.88-.32,3.77-.66,5.64-1,.4-.07.79-.14,1.18-.22q2.535-.465,5.07-.95a5.388,5.388,0,0,0,.86-.21,1.974,1.974,0,0,0,.26-.08c.09-.03.17-.07.26-.11a1.431,1.431,0,0,0,.3-.16h.01a1.894,1.894,0,0,0,.27-.2,1.044,1.044,0,0,0,.23-.24,1.27,1.27,0,0,0,.18-.27v-.01c.02-.01.03-.01.02-.02a.369.369,0,0,0,.07-.14,3.016,3.016,0,0,0-.26-2.01c-.14-.37-.28-.73-.42-1.1a.369.369,0,0,1-.05-.11c-1.18-3.08-2.37-6.16-3.62-9.21-.45-1.11-.92-2.22-1.4-3.33a123.527,123.527,0,0,0-7.12-14.35c-.14-.26-.3-.52-.45-.77-4.61-7.64-7.21-16.63-11.5-24.46-1.27-2.31-2.55-4.58-3.84-6.83-4.46-7.82-8.88-15.45-12.22-23.97-.58-1.48-1.19-2.96-1.85-4.43a73.789,73.789,0,0,0-5.77-10.78c-.01-.01-.01-.02-.02-.03a43.537,43.537,0,0,0-12.63-13.01,698.192,698.192,0,0,0-45.18,58.89v18.14Z" fill="#47aea9"/>
        <path id="Path_37" data-name="Path 37" d="M.019,606.435v41.28a19.1,19.1,0,0,0,4.07-.27,30.023,30.023,0,0,0,13.24-5.71c2.3-1.76,4.42-3.97,5.19-6.76a10.763,10.763,0,0,0,.02-5.26,24.252,24.252,0,0,0-1.79-5c-.16-.35-.33-.7-.5-1.04a58.611,58.611,0,0,0-5.03-8.41c-.15-.22-.32-.45-.49-.67-.82-1.12-1.69-2.22-2.59-3.28-.4-.46-.8-.92-1.22-1.36-.36-.38-.72-.74-1.1-1.09a13.778,13.778,0,0,0-1.81-1.44c-.1-.08-.21-.15-.31-.22a.031.031,0,0,0-.02-.01,10.352,10.352,0,0,0-1.23-.65c-.2-.1-.41-.19-.62-.27a5.826,5.826,0,0,0-.63-.22,9.789,9.789,0,0,0-3.44-.37,12.931,12.931,0,0,0-1.74.22Z" fill="#47aea9"/>
        <path id="Path_38" data-name="Path 38" d="M102.467,527.522a3.058,3.058,0,0,0,1.53,1.61c1.223.39,2.364-.812,2.906-1.966,1.44-3.066,1.3-6.621.762-9.955-.856-5.269-2.756-10.551-6.516-14.376s-9.648-5.9-14.755-4.15Z" fill="#47aea9"/>
        <path id="Path_39" data-name="Path 39" d="M.019,606.435v5.52a20.618,20.618,0,0,1,7.6-4.77,13.279,13.279,0,0,0-1.17-.64c-.2-.1-.41-.19-.62-.27a5.826,5.826,0,0,0-.63-.22,9.789,9.789,0,0,0-3.44-.37,12.931,12.931,0,0,0-1.74.22Z" fill="#2b7a78"/>
        <path id="Path_40" data-name="Path 40" d="M103.884,588.669c.98-.188,2.119-.507,2.46-1.444a2.946,2.946,0,0,0-.26-2.011c-3.525-9.205-7.093-18.452-11.98-27-6.3,2.082-12.624,4.055-19.073,5.594a147.566,147.566,0,0,1-66.414.354A81.838,81.838,0,0,1,14.667,582c.569,2.666,1.089,5.53,2.985,7.489,1.8,1.86,4.481,2.518,7.023,3.01C50.792,597.547,77.761,593.686,103.884,588.669Z" fill="#2b7a78"/>
        <path id="Path_41" data-name="Path 41" d="M97.413,518.455q2.527,4.533,5.054,9.066a3.056,3.056,0,0,0,1.53,1.611c1.223.39,2.364-.812,2.906-1.966,1.44-3.066,1.3-6.621.762-9.955a32.767,32.767,0,0,0-2.371-8.155A52.441,52.441,0,0,1,97.413,518.455Z" fill="#2b7a78"/>
        <path id="Path_42" data-name="Path 42" d="M15.578,596.005a4.584,4.584,0,0,1-2.209,2.88c-.08.06-.16.12-.24.17-.15.09-.29.19-.44.28-.43.27-.87.54-1.31.81a61.293,61.293,0,0,1-9.44,4.57c-.64.24-1.28.48-1.92.7v-10.58a46.785,46.785,0,0,0,9.38-.62c.31-.05.61-.1.91-.16l.46-.09c.34-.07.7-.12,1.07-.16a5.948,5.948,0,0,1,.73-.05,2.856,2.856,0,0,1,2.72,1.05,1.494,1.494,0,0,1,.14.24A1.792,1.792,0,0,1,15.578,596.005Z" fill="#f1f1f1"/>
        <path id="Path_43" data-name="Path 43" d="M11.957,608.362a1.775,1.775,0,0,1-2.049.543,5.194,5.194,0,0,1-1.839-1.324c-.974-.946-2.035-2.248-1.53-3.509a3.14,3.14,0,0,1,1.173-1.284,16.294,16.294,0,0,1,5.019-2.44q-.237,3.383-.473,6.766A2.593,2.593,0,0,1,11.957,608.362Z" fill="#f1f1f1"/>
        <path id="Path_44" data-name="Path 44" d="M116.55,588.989a3.964,3.964,0,0,1-4.247-.152,10.949,10.949,0,0,1-3.037-3.277,117.186,117.186,0,0,1-13.582-26.3c5.054.148,8.854-6.236,13.829-5.332a6.9,6.9,0,0,1,4.578,3.683,20.437,20.437,0,0,1,1.774,5.789c1.4,6.969,2.8,14.027,2.431,21.125C118.21,586.177,117.909,588.04,116.55,588.989Z" fill="#f1f1f1"/>
        <path id="Path_45" data-name="Path 45" d="M21.509,609.1a1.114,1.114,0,0,1-.02.98c-.95,1.27-4.01,3.06-6.76,4.51-.1.05-.19.1-.29.15-1.17-1.65-2.361-3.27-3.52-4.79-.25-.34-.5-.66-.75-.98-1.3-1.69-2.56-3.27-3.7-4.65-.19-.23-.38-.46-.57-.68a43.093,43.093,0,0,0,5.48-3.5c.4-.31.79-.62,1.16-.93l.15.12C16.139,602.175,20.749,606.655,21.509,609.1Zm67.04-111.39c7.61,0,13.45,3.66,17.36,10.88,3.1,5.75,3.21,10.84,2,15.05v.02c0,.01,0,.01-.01.02a20.877,20.877,0,0,1-2.28,5.11,24.867,24.867,0,0,1-1.7,2.46c-.99-2.13-2.02-4.3-3.1-6.53-.21-.43-.41-.84-.62-1.26v-.01l-.03-.06c-.01-.01-.02-.03-.03-.04a.536.536,0,0,1-.05-.11c-.83-1.68-1.66-3.35-2.49-4.97-3.61-7.05-7.28-13.64-10.87-19.69-.151-.26-.3-.51-.45-.76C87.019,497.755,87.769,497.715,88.549,497.715ZM120,590.205a7.265,7.265,0,0,1-6.08,3.22,5.96,5.96,0,0,1-4.89-2.26c-.34-.48-1.55-3.06-3.36-7.05a.369.369,0,0,1-.05-.11c-1.26-2.76-2.8-6.19-4.541-10.06-2.039-4.55-4.439-9.88-7.079-15.7-.171-.38-.34-.75-.52-1.13-14.01-30.84-34.64-74.81-47.07-91.19a3.136,3.136,0,0,1-.21-3.43,8.5,8.5,0,0,1,7.15-4.14,5.846,5.846,0,0,1,3.19.89c4.73,3.01,24.62,27.01,43.539,65.84a323.041,323.041,0,0,1,13.721,32.03v.01c.009.01.009.01.009.02q1.066,2.925,1.931,5.61c0,.01,0,.01.01.02C120.808,578.205,121.709,587.635,120,590.205ZM.019,650.685c-.27.01-.52.02-.77.02l.77.8c3.63-.23,8.55-1.96,13.11-4.34,4.88-2.55,9.33-5.83,11.3-8.78,1.75-2.63-.49-8.37-4.18-14.71-1.58-2.71-3.42-5.52-5.33-8.25.1-.05.2-.1.3-.16,2.81-1.48,5.91-3.32,6.93-4.69a1.853,1.853,0,0,0,.15-1.72c-.82-2.62-5.39-7.06-8.93-9.97-.08-.07-.15-.13-.23-.19a22.574,22.574,0,0,0,1.7-1.68,6.092,6.092,0,0,0,.74-1.01,11.3,11.3,0,0,0,1.41-5.26c.78.04,1.6.07,2.46.11,14.35.62,40.37,1.61,61.36,1.61h.79c14.02-.02,22.03-.47,26.61-1.07a2.746,2.746,0,0,0,.15.24,6.746,6.746,0,0,0,5.56,2.61,8.1,8.1,0,0,0,6.77-3.59c2.74-4.12-.77-24.81-16.42-58.65,4.05-5.09,7.94-13.48,2.36-23.8-5.05-9.35-12.62-11.32-18.08-11.32a23.861,23.861,0,0,0-2.73.16c-12.87-21.47-24.6-35.8-28.83-38.49a6.665,6.665,0,0,0-3.64-1.03,9.355,9.355,0,0,0-7.88,4.6,3.909,3.909,0,0,0,.29,4.3c.13.17.26.35.38.52-10.19,10.45-31.89,39.92-46.12,59.68v1.43c14.19-19.7,36.4-49.92,46.61-60.45a186.909,186.909,0,0,1,11.2,18.24c.01.01.01.02.02.03,1.87,3.38,3.81,7,5.77,10.78,4.62,8.88,9.42,18.64,14.07,28.4,5.56,11.65,10.92,23.3,15.53,33.45,2.65,5.85,5.06,11.21,7.11,15.78,2.56,5.69,4.55,10.13,5.93,13.1v.01c.65,1.42,1.17,2.5,1.54,3.23a200.534,200.534,0,0,1-20.52.99h-.01c-2,.02-4.14.03-6.46.03-21.63,0-48.61-1.05-62.63-1.67h-.01c-.4-.02-.77-.03-1.15-.05.01-.4,0-.8-.02-1.21a40.668,40.668,0,0,0-1.35-8.57,89.941,89.941,0,0,0-5.91-15.73,91.877,91.877,0,0,0-9.72-16.25v1.34a90.2,90.2,0,0,1,8.77,14.7,89.761,89.761,0,0,1,6.06,16.14,43.383,43.383,0,0,1,1.25,6.79v.01a15.284,15.284,0,0,1-.81,7.66,6.208,6.208,0,0,1-1.06,1.66c-2.72,3.02-7.13,5.9-12.29,8.25q-.945.435-1.92.84v.88q.885-.36,1.74-.75c1.19-.53,2.35-1.1,3.46-1.68.45.53.91,1.08,1.4,1.68l.01.01v.01c.45.55.91,1.12,1.38,1.72.1.12.21.26.31.39,0,.01.01.01.01.02,5.12,6.48,11.28,15.27,14.21,21.88,1.62,3.64,2.26,6.63,1.2,8.21-3.33,4.99-16.05,12.28-23.72,12.76Z" fill="#4c5f7b"/>
        <path id="Path_46" data-name="Path 46" d="M19.065,632.743c-.048-.23-.439-.243-.476,0-.067.433-.087.87-.138,1.3a5.882,5.882,0,0,0-.1,1.507.285.285,0,0,0,.517.068A5.275,5.275,0,0,0,19.065,632.743Z" fill="#4c5f7b"/>
        <path id="Path_47" data-name="Path 47" d="M20.432,634.385a.867.867,0,0,1-.33.521.232.232,0,0,0,.164.394c.455-.045.613-.438.664-.847C20.966,634.169,20.487,634.107,20.432,634.385Z" fill="#4c5f7b"/>
        <path id="Path_48" data-name="Path 48" d="M10.159,604.6a6.9,6.9,0,0,1-.03-1.793.139.139,0,0,0-.236-.1,1.8,1.8,0,0,0-.373,1.366,6.877,6.877,0,0,0,.235,1.879.246.246,0,0,0,.471,0A3.426,3.426,0,0,0,10.159,604.6Z" fill="#4c5f7b"/>
        <path id="Path_49" data-name="Path 49" d="M11.408,605.209a5.384,5.384,0,0,0-.188,1.5.21.21,0,0,0,.41.055,8.59,8.59,0,0,0,.231-1.431C11.9,605.042,11.468,604.908,11.408,605.209Z" fill="#4c5f7b"/>
        <path id="Path_50" data-name="Path 50" d="M10.7,589.981c-.072-.282-.551-.313-.6,0a27.71,27.71,0,0,0-.7,4.4.384.384,0,0,0,.75.1A7.956,7.956,0,0,0,10.7,589.981Z" fill="#4c5f7b"/>
        <path id="Path_51" data-name="Path 51" d="M12.533,593.069a.294.294,0,0,0-.564,0c-.073.439-.178.869-.232,1.311-.039.324.426.392.575.155A1.95,1.95,0,0,0,12.533,593.069Z" fill="#4c5f7b"/>
        <path id="Path_52" data-name="Path 52" d="M21.2,584.184a3.181,3.181,0,0,0-1.12.808q-.212.2-.42.407a.453.453,0,0,0-.1.186l-.01.069a.135.135,0,0,0,.008.051.107.107,0,0,0,.054.155c.27.108.479-.017.724-.173a4.247,4.247,0,0,0,1.248-1A.346.346,0,0,0,21.2,584.184Z" fill="#4c5f7b"/>
        <path id="Path_53" data-name="Path 53" d="M25.2,583.966a11.893,11.893,0,0,0-2.131,1.842q-1.221,1.182-2.368,2.433a.254.254,0,0,0,.358.359c.752-.692,1.522-1.359,2.306-2.013a17.28,17.28,0,0,0,2.318-1.995C25.964,584.257,25.613,583.726,25.2,583.966Z" fill="#4c5f7b"/>
        <path id="Path_54" data-name="Path 54" d="M25.778,586.841a5.805,5.805,0,0,1-.817,1.137.335.335,0,0,0,.473.473,2.657,2.657,0,0,0,.855-1.395A.281.281,0,0,0,25.778,586.841Z" fill="#4c5f7b"/>
        <path id="Path_55" data-name="Path 55" d="M94.275,585.241a8.722,8.722,0,0,0-1.44,1.428c-.467.541-.973,1.03-1.478,1.533a.309.309,0,0,0,.373.484,9.724,9.724,0,0,0,3.024-2.966C94.961,585.442,94.553,585.039,94.275,585.241Z" fill="#4c5f7b"/>
        <path id="Path_56" data-name="Path 56" d="M98.592,584.422c-1.906.865-3.271,3.019-4.6,4.566-.3.348.18.844.509.508.747-.763,1.484-1.536,2.245-2.286a25.146,25.146,0,0,0,2.267-2.244A.348.348,0,0,0,98.592,584.422Z" fill="#4c5f7b"/>
        <path id="Path_57" data-name="Path 57" d="M99.983,586.759a5.392,5.392,0,0,0-1.127,1.38,22.471,22.471,0,0,1-1.364,1.883c-.28.342.181.83.5.5a11.285,11.285,0,0,0,2.522-3.452C100.629,586.734,100.2,586.589,99.983,586.759Z" fill="#4c5f7b"/>
        <path id="Path_58" data-name="Path 58" d="M101.392,589.506a4.962,4.962,0,0,1-.6.735c-.305.3.152.75.468.468a2.252,2.252,0,0,0,.664-.978C102.044,589.4,101.568,589.246,101.392,589.506Z" fill="#4c5f7b"/>
        <path id="Path_59" data-name="Path 59" d="M116.749,587.843c-1.528.522-2.759,1.595-4.418,1.768a.248.248,0,0,0,0,.495,7.718,7.718,0,0,0,4.715-1.559C117.374,588.307,117.193,587.691,116.749,587.843Z" fill="#4c5f7b"/>
        <path id="Path_60" data-name="Path 60" d="M54.212,460.929a16.873,16.873,0,0,0-2.18,1.587,7.4,7.4,0,0,0-1.977,2.067.249.249,0,0,0,.389.3,16.337,16.337,0,0,1,2.022-1.8,13.752,13.752,0,0,0,2.147-1.631A.332.332,0,0,0,54.212,460.929Z" fill="#4c5f7b"/>
        <path id="Path_61" data-name="Path 61" d="M63.032,469.738a19.206,19.206,0,0,0-5.549,4.65.26.26,0,0,0,.368.368c1.789-1.607,3.781-2.915,5.621-4.449C63.8,470.034,63.381,469.548,63.032,469.738Z" fill="#4c5f7b"/>
        <path id="Path_62" data-name="Path 62" d="M73.186,486.132c-2.212.6-4,2.193-6.124,3.026-.181.07-.234.374,0,.421a4.288,4.288,0,0,0,2.6-.693c1.307-.63,2.54-1.386,3.815-2.073A.374.374,0,0,0,73.186,486.132Z" fill="#4c5f7b"/>
        <path id="Path_63" data-name="Path 63" d="M81.81,504.4c-.952.353-1.794.946-2.754,1.308a18.771,18.771,0,0,1-2.945.739c-.233.048-.145.353.051.379,1.781.234,4.811-.343,6.036-1.761C82.434,504.788,82.216,504.246,81.81,504.4Z" fill="#4c5f7b"/>
        <path id="Path_64" data-name="Path 64" d="M93.318,522.684a7.841,7.841,0,0,0-2.364,1.463c-.956.739-1.922,1.465-2.872,2.213-.273.215.075.586.351.453a23.216,23.216,0,0,0,2.8-1.707,15.527,15.527,0,0,0,2.474-1.752A.4.4,0,0,0,93.318,522.684Z" fill="#4c5f7b"/>
        <path id="Path_65" data-name="Path 65" d="M101.867,538.778c-2.226,1.377-4.367,2.841-6.713,4.021a.238.238,0,0,0,.183.434,17.044,17.044,0,0,0,6.982-3.87A.374.374,0,0,0,101.867,538.778Z" fill="#4c5f7b"/>
        <path id="Path_66" data-name="Path 66" d="M110.571,562.725c-1.793.427-3.376,1.526-5.118,2.123a.363.363,0,0,0,.193.7,21.054,21.054,0,0,0,5.259-2.03A.436.436,0,0,0,110.571,562.725Z" fill="#4c5f7b"/>
        <path id="Path_67" data-name="Path 67" d="M104.128,522.8a.233.233,0,0,0-.446,0c-.11.578-.149,1.164-.273,1.741s-.314,1.147-.4,1.738c-.041.294.36.533.522.22A6.249,6.249,0,0,0,104.128,522.8Z" fill="#4c5f7b"/>
        <path id="Path_68" data-name="Path 68" d="M105.043,524.015a7.2,7.2,0,0,0-.374,2.138.264.264,0,0,0,.517.07c.205-.666.289-1.366.458-2.042A.312.312,0,0,0,105.043,524.015Z" fill="#4c5f7b"/>
        <path id="Path_69" data-name="Path 69" d="M6.049,636.275A30.617,30.617,0,0,1,.019,626.2v-5.86c2.38,4.99,4.86,9.88,7.49,14.81A.935.935,0,0,1,6.049,636.275Z" fill="#fff"/>
        <path id="Path_70" data-name="Path 70" d="M9.638,624.178a50.457,50.457,0,0,1-2.374-6.054.868.868,0,0,0-1.672.461,14.551,14.551,0,0,0,2.758,6.343C8.833,625.5,9.929,624.891,9.638,624.178Z" fill="#fff"/>
        <path id="Path_71" data-name="Path 71" d="M47.715,483.458c-.852.73-1.681,1.465-2.472,2.26s-2.018,1.787-1.852,3.034a1.152,1.152,0,0,0,1.423,1.083c1.138-.2,1.691-1.393,2.283-2.265.683-1.005,1.374-2,2.03-3.023C49.708,483.64,48.454,482.824,47.715,483.458Z" fill="#fff"/>
        <path id="Path_72" data-name="Path 72" d="M54.126,493.879c-1.553.944-3.927,1.819-4.6,3.633a1.067,1.067,0,0,0,1.022,1.341c1.932.065,3.591-2.107,4.848-3.335A1.048,1.048,0,0,0,54.126,493.879Z" fill="#fff"/>
        <path id="Path_73" data-name="Path 73" d="M60.307,510.385c-1.865,1.016-4.5,1.843-5.584,3.8-.392.708.085,1.9,1.026,1.788,2.307-.282,4.4-2.094,6.114-3.568C63.005,511.419,61.547,509.709,60.307,510.385Z" fill="#fff"/>
        <path id="Path_74" data-name="Path 74" d="M83.971,553.84a15.851,15.851,0,0,0-5.552.788,1.311,1.311,0,0,0,0,2.508c2.034.476,3.927-.406,5.877-.9A1.226,1.226,0,0,0,83.971,553.84Z" fill="#fff"/>
        <path id="Path_75" data-name="Path 75" d="M91.863,570.864a1.4,1.4,0,0,0-1.678-.953c-1.178.162-2.328.278-3.49.537a1.1,1.1,0,0,0,0,2.1,8.383,8.383,0,0,0,4.215-.011A1.369,1.369,0,0,0,91.863,570.864Z" fill="#fff"/>
      </g>
      <g id="Group_8" data-name="Group 8" opacity="0.49">
        <path id="Path_76" data-name="Path 76" d="M303.4,519.05c-3.753-1.489-8.066-2.782-11.708-1.041-2.732,1.305-4.447,4.036-5.99,6.64q-5.5,9.288-10.627,18.793c-1.13,2.1-2.281,4.381-1.955,6.74a12.386,12.386,0,0,0,2.339,4.894,9.476,9.476,0,0,1,1.982,5.014c0,1.824-1.4,3.766-3.219,3.69,1.879,1.876,4.919,1.9,7.51,1.319s5.134-1.643,7.785-1.509a16.329,16.329,0,0,1,6.7,2.314c4.215,2.25,8.32,4.787,12.848,6.312s9.651,1.948,13.993-.046c5.527-2.538,8.673-8.333,11.436-13.751,2.786-5.463,5.607-11.924,2.991-17.47-1.337-2.833-3.895-4.873-6.432-6.711A127.052,127.052,0,0,0,303.4,519.05Z" fill="#47aea9"/>
        <path id="Path_77" data-name="Path 77" d="M323.058,572.17c4.631-2.127,7.588-6.54,10.051-11.1a98.681,98.681,0,0,1-57.182-19.161c-.279.514-.57,1.02-.847,1.534-1.13,2.1-2.281,4.381-1.955,6.74a12.386,12.386,0,0,0,2.339,4.894,9.476,9.476,0,0,1,1.982,5.014c0,1.824-1.4,3.766-3.219,3.69,1.879,1.876,4.919,1.9,7.51,1.319s5.134-1.643,7.785-1.509a16.329,16.329,0,0,1,6.7,2.314c4.215,2.25,8.32,4.787,12.848,6.312S318.716,574.164,323.058,572.17Z" fill="#2b7a78"/>
        <path id="Path_78" data-name="Path 78" d="M340.159,539.345a168.229,168.229,0,0,0-14.75-8.97.322.322,0,0,1-.081-.04,243.433,243.433,0,0,0-24.629-12.26c-.01,0-.02-.01-.03-.01s-.02-.01-.03-.01c-3.92-1.58-7.16-2.57-9.1-2.57a4.448,4.448,0,0,0-.53.03c-4.7.5-11.24,13.94-13.14,18.05-2.47,5.37-6.77,16.06-5.35,18.13a12.268,12.268,0,0,0,2.33,2.45l.01.01a24.142,24.142,0,0,0,3.949,2.58,21.27,21.27,0,0,1-1.419,2.55,19.184,19.184,0,0,1-4.73,5.08.522.522,0,0,0-.21.44.528.528,0,0,0,.27.42,13.355,13.355,0,0,0,5.92,1.32,14.546,14.546,0,0,0,8.47-2.79c.16-.12.33-.24.49-.36.13.06.3.14.5.22h.02c4.28,1.94,23.89,10.71,31.17,12.39a3.331,3.331,0,0,0,.78.09c6.11,0,15.989-15.98,19.68-26.76C341.019,545.615,342.119,540.865,340.159,539.345Zm-1.37,9.66c-3.93,11.5-13.53,26.08-18.72,26.08a2.6,2.6,0,0,1-.56-.06,53.552,53.552,0,0,1-5.35-1.65c-.01,0-.01,0-.02-.01-4.78-1.71-10.95-4.26-16.11-6.47-.02-.01-.03-.01-.05-.02l-.01-.01c-2.8-1.2-5.3-2.3-7.13-3.12-1.88-.83-3.05-1.36-3.1-1.39a.538.538,0,0,0-.21-.05.508.508,0,0,0-.31.11,15.427,15.427,0,0,1-4.21,2.37H283c-.01,0-.02.01-.03.01a13.049,13.049,0,0,1-4.33.74,13.283,13.283,0,0,1-4.7-.87c.23-.18.45-.37.66-.56.17-.15.34-.3.5-.45h.01l.01-.01a19.66,19.66,0,0,0,2.16-2.45,20.446,20.446,0,0,0,2.65-4.52.5.5,0,0,0-.25-.63c-.05-.03-4.42-2.13-6.33-4.92,0-.01-.01-.01-.01-.02a.571.571,0,0,1-.08-.26.5.5,0,0,1-.02-.12.127.127,0,0,1-.01-.06c-.08-1.03.44-3.37,1.48-6.52a.037.037,0,0,0,.01-.03,103.252,103.252,0,0,1,4.07-10.13c4.76-10.32,9.6-17.17,12.33-17.47a11.653,11.653,0,0,1,4.09.67h.02c9.45,2.78,28.84,13.34,38.76,19.36,2.64,1.59,4.61,2.87,5.55,3.6C340.669,541.015,340.389,544.335,338.789,549.005Z" fill="#255f67"/>
        <path id="Path_79" data-name="Path 79" d="M286.429,548.44a2.553,2.553,0,1,0,2.553,2.553A2.577,2.577,0,0,0,286.429,548.44Z" fill="#fff"/>
        <path id="Path_80" data-name="Path 80" d="M298.105,555.437l-.1-.078a2.844,2.844,0,0,0-4.022,0l-.1.078a2.928,2.928,0,0,0-.767,2.9,2.985,2.985,0,0,0,5.454.713A2.967,2.967,0,0,0,298.105,555.437Z" fill="#fff"/>
        <path id="Path_81" data-name="Path 81" d="M311.485,561.64a3.31,3.31,0,0,0-1.617-.451l-.422.056a2.988,2.988,0,0,0-2.235,4.574,3.329,3.329,0,0,0,1.839,1.414,3.069,3.069,0,0,0,2.994-.792l.052-.056C313.329,565.046,313.31,562.526,311.485,561.64Z" fill="#fff"/>
      </g>
      <g id="Group_9" data-name="Group 9" opacity="0.49">
        <path id="Path_82" data-name="Path 82" d="M153.039,591.672a47.22,47.22,0,0,0,65.323,4.118,33.014,33.014,0,1,1-65.323-4.118Z" fill="#e8ede1"/>
        <path id="Path_83" data-name="Path 83" d="M180.143,621.2c10.135,2,21.436-1.636,27.707-9.4s6.861-19.35.947-27.358c-3.626-4.909-9.227-8.239-15.068-10.581-5.559-2.23-11.807-3.686-17.632-2.172-6.361,1.654-11.31,6.753-13.606,12.581s-2.206,12.291-.952,18.4a25.891,25.891,0,0,0,3.466,9.151C168.278,616.784,174.066,620,180.143,621.2Z" fill="#47aea9"/>
        <path id="Path_84" data-name="Path 84" d="M157.41,660.209a11.174,11.174,0,0,0,7.042-2.073A29,29,0,0,0,174.5,646.247a74.405,74.405,0,0,0,4.98-14.923l-15.592-6.785c-1.768,4.518-5.13,8.186-8.131,12s-5.795,8.13-6.063,12.974S152.587,659.684,157.41,660.209Z" fill="#47aea9"/>
        <path id="Path_85" data-name="Path 85" d="M185.029,605.205c-8.894.032-18.23-3.18-24.337-9.372a41.821,41.821,0,0,0,.847,6.83,25.891,25.891,0,0,0,3.466,9.151c3.273,4.97,9.061,8.183,15.138,9.383,10.135,2,21.436-1.636,27.707-9.4a23.137,23.137,0,0,0,5.038-13.523C203.945,602.057,194.673,605.17,185.029,605.205Z" fill="#2b7a78"/>
        <path id="Path_86" data-name="Path 86" d="M178.575,634.825q.471-1.746.9-3.5l-15.592-6.785c-1.768,4.518-5.13,8.186-8.131,12q-.208.266-.415.534A57.046,57.046,0,0,0,178.575,634.825Z" fill="#2b7a78"/>
        <path id="Path_87" data-name="Path 87" d="M217.819,585.245c-4.63-13.49-16.3-21.87-30.46-21.87a36.094,36.094,0,0,0-22.69,8.24c-10.57,8.63-15.02,21.64-11.611,33.95a38.844,38.844,0,0,0,10.921,18.01,129,129,0,0,0-10.98,16.8c-.01.01-.01.02-.02.03s-.01.03-.02.04a36.45,36.45,0,0,0-1.75,3.99c-1.62,4.58-1.151,9.17,1.27,12.59a10.573,10.573,0,0,0,2.28,2.34.01.01,0,0,1,.01.01,8.682,8.682,0,0,0,5.13,1.77c3.4,0,6.48-2.12,8.67-5.98.16-.28.31-.55.47-.85v-.01a192.143,192.143,0,0,0,8.45-19.15c.52-1.33,1.04-2.66,1.55-3.99.039.01.07.01.11.02h.01a33.906,33.906,0,0,0,5.94.52,40.275,40.275,0,0,0,17.959-4.39,35.949,35.949,0,0,0,13.541-11.53C221.959,607.885,221.078,594.755,217.819,585.245Zm-41.54,50.24c-3.01,7.58-6.12,14.85-8.58,19.18a13.556,13.556,0,0,1-1.621,2.32l-.02.02a8.127,8.127,0,0,1-6.159,3.13,2.164,2.164,0,0,1-.26-.01,8.317,8.317,0,0,1-6.331-3.68c-2.23-3.15-2.649-7.41-1.149-11.68a45.247,45.247,0,0,1,3.81-7.63c.77-1.29,1.62-2.64,2.53-4.01.01-.01.01-.02.02-.03,1.289-1.97,2.7-3.98,4.16-6a.01.01,0,0,0,.01-.01c0-.01.01-.02.02-.03.55-.77,1.119-1.54,1.68-2.3.12-.17.25-.33.37-.5.56.49,1.14.96,1.73,1.41a.01.01,0,0,1,.01.01,30.643,30.643,0,0,0,5.28,3.21,29.519,29.519,0,0,0,6.26,2.09C177.459,632.475,176.869,633.985,176.279,635.485Zm39.48-20.27a35.33,35.33,0,0,1-14.82,11.99c-.01,0-.02.01-.03.01a38.8,38.8,0,0,1-15.81,3.48,30.163,30.163,0,0,1-12.89-2.73c-8.43-3.94-15.39-12.63-18.18-22.67a29.667,29.667,0,0,1-.62-13.23,32.993,32.993,0,0,1,11.9-19.67,35.094,35.094,0,0,1,22.051-8.01c13.719,0,25.02,8.12,29.5,21.19C220.039,594.845,220.929,607.6,215.759,615.215Z" fill="#255f67"/>
        <path id="Path_88" data-name="Path 88" d="M212.578,598.405a38.047,38.047,0,0,0-1.969-10.35c-.26-.76-.551-1.5-.88-2.22-.01-.01-.01-.03-.02-.04l-.01-.01a24.165,24.165,0,0,0-22.61-14.62,24.583,24.583,0,0,0-2.57.13h-.02a27.964,27.964,0,0,0-14.93,6.23,26.8,26.8,0,0,0-8.491,11.94c-.009.01-.009.01-.009.02v.01a23.985,23.985,0,0,0-1.33,8.18v.01a24.321,24.321,0,0,0,.87,6.06c2.21,7.96,7.75,14.85,14.46,17.99a24.008,24.008,0,0,0,10.28,2.18,31.17,31.17,0,0,0,13.87-3.39,27.715,27.715,0,0,0,10.44-8.9,19.938,19.938,0,0,0,2.95-10.57v-.02c0-.01.01-.03,0-.05.02-.35.02-.7.02-1.05v-.01C212.629,599.415,212.609,598.915,212.578,598.405Zm-2.079,9.23c0,.01-.01.02-.01.03a.031.031,0,0,0-.01.02,14.139,14.139,0,0,1-1.66,3.37c-4.81,7.09-14.241,11.85-23.47,11.85a22.179,22.179,0,0,1-16.61-6.96c-.01-.01-.02-.01-.03-.02l-.03-.03c-.01-.01-.01-.01-.01-.02a28.789,28.789,0,0,1-6.5-10.59c0-.01-.01-.03-.01-.04a1.39,1.39,0,0,1-.06-.19c-.2-.53-.36-1.04-.51-1.58a23.3,23.3,0,0,1-.81-5.06c-.02-.47-.03-.94-.02-1.41a.03.03,0,0,1,0-.04v-.03c0-.33.01-.67.04-1a24.844,24.844,0,0,1,9.41-17.63,26.868,26.868,0,0,1,16.88-6.13c.65,0,1.29.02,1.93.07h.02a23.032,23.032,0,0,1,16.67,8.79c0,.01.01.01.02.02a25.183,25.183,0,0,1,3.92,7.32,36.683,36.683,0,0,1,1.95,10.44c.03.58.04,1.15.02,1.72A22.912,22.912,0,0,1,210.5,607.635Z" fill="#255f67"/>
        <path id="Path_89" data-name="Path 89" d="M166.657,629.3a16.068,16.068,0,0,1-1.867-.238c-.238-.061-.413.306-.173.41a3.211,3.211,0,0,0,2.04.316C166.887,629.737,166.912,629.338,166.657,629.3Z" fill="#255f67"/>
        <path id="Path_90" data-name="Path 90" d="M166.926,630.885a7.185,7.185,0,0,0-1.4-.071.328.328,0,0,0,0,.656,7.268,7.268,0,0,0,1.4-.072A.268.268,0,0,0,166.926,630.885Z" fill="#255f67"/>
        <path id="Path_91" data-name="Path 91" d="M197.461,616.154c-4.114,1.985-8.216,2.918-12.732,1.711a.266.266,0,0,0-.141.513c4.283,1.431,9.547,1.234,13.309-1.478A.432.432,0,0,0,197.461,616.154Z" fill="#255f67"/>
        <path id="Path_92" data-name="Path 92" d="M198.846,614.125a20.757,20.757,0,0,1-3.091,1.373.241.241,0,0,0,.128.464,7.717,7.717,0,0,0,3.286-1.284A.32.32,0,0,0,198.846,614.125Z" fill="#255f67"/>
        <path id="Path_93" data-name="Path 93" d="M187.067,577.038c-3.707-2.506-8.519-.207-11.883,1.848-3.129,1.912-7.534,5.535-6.955,9.612.151,1.061,1.441,1.258,2.226.906a10.451,10.451,0,0,0,2.849-2.3,20.816,20.816,0,0,1,4.787-3.247c2.84-1.5,6.155-1.606,8.976-3.129A2.162,2.162,0,0,0,187.067,577.038Z" fill="#fff"/>
        <path id="Path_94" data-name="Path 94" d="M196.8,581.631c-.5-2.245-2.983-2.648-4.916-2.363a1.794,1.794,0,0,0-1.325,1.742,1.834,1.834,0,0,0,1.806,1.806l.116.009c.086.017.172.035.256.058s.135.044.2.067l.118.06c.2.108.408.2.6.319a3.412,3.412,0,0,0,.619.28l.449.06.027.005h.019l.024,0-.016,0A1.681,1.681,0,0,0,196.8,581.631Z" fill="#fff"/>
      </g>
      <g id="Group_10" data-name="Group 10" opacity="0.49">
        <path id="Path_95" data-name="Path 95" d="M140.328,390.175a33.128,33.128,0,0,0-11.75-24.67c-11.069-9.19-28.729-10.72-41.239-3.33a32.567,32.567,0,0,0-9.82,8.96v.01c-.26.35-.51.71-.76,1.08-.23.35-.451.7-.67,1.05-.18.3-.36.6-.531.9-.109.2-.219.39-.319.59-.161.28-.3.56-.44.84-.15.31-.3.61-.44.92-.16.35-.32.71-.47,1.07-.22.53-.42,1.07-.6,1.61-.15.41-.29.83-.41,1.25s-.25.86-.36,1.3c-.01.05-.03.11-.04.17-.04.18-.08.35-.12.53-.13.55-.23,1.1-.32,1.66a34.953,34.953,0,0,0,1.98,17.45,26.45,26.45,0,0,0,7.39,11.29c4.75,4.02,11.24,5.69,17.53,6.86,6.69,1.25,13.71,2.08,20.26.3,8.51-2.31,15.23-8.92,18.58-16.58.15-.35.3-.7.44-1.05.17-.44.33-.89.48-1.33.14-.41.27-.81.39-1.22.02-.07.04-.13.06-.2.09-.34.179-.68.27-1.03.08-.33.159-.66.23-.99.08-.37.15-.74.22-1.11.05-.3.1-.6.14-.89.069-.5.13-1,.18-1.5.03-.36.06-.71.08-1.07.01-.13.02-.26.02-.38.039-.76.06-1.53.05-2.29v-.2Zm-11.819,4.73a16.524,16.524,0,0,1-.53,1.95,18.738,18.738,0,0,1-.71,1.89,19.563,19.563,0,0,1-12.43,11.1,21.476,21.476,0,0,1-6.14.67h-.01a36.622,36.622,0,0,1-4.42-.38c-.33-.04-.67-.09-1-.15-.16-.02-.31-.05-.47-.07-.51-.08-1.02-.17-1.52-.27-4.21-.79-8.55-1.9-11.73-4.59a17.779,17.779,0,0,1-4.95-7.56,26.866,26.866,0,0,1-1.15-4.1v-.03a21.471,21.471,0,0,1-.391-3.37q-.028-.45-.029-.9a19.074,19.074,0,0,1,.25-3.28,19.518,19.518,0,0,1,1.25-4.4,21.741,21.741,0,0,1,8.99-10.28c8.37-4.95,20.19-3.92,27.59,2.23A22.187,22.187,0,0,1,128.509,394.9Z" fill="#47aea9"/>
        <path id="Path_96" data-name="Path 96" d="M121.629,390.535c-.01-.14-.02-.29-.03-.43a11.545,11.545,0,0,0-.291-1.77,13.986,13.986,0,0,0-2.569-5.27.116.116,0,0,0-.05-.07,16.282,16.282,0,0,0-5.85-4.69,16.649,16.649,0,0,0-8.88-1.46,14.942,14.942,0,0,0-8.66,3.88,12.812,12.812,0,0,0-2.86,4.08v.01a4.656,4.656,0,0,0-.26.61c-.121.3-.22.6-.32.9-.01.04-.02.08-.031.11-.1.29-.179.58-.25.88-.049.22-.089.43-.129.65s-.08.43-.11.65-.06.44-.08.66c-.02.2-.03.41-.04.61a.284.284,0,0,0,0,.13,2.644,2.644,0,0,0-.02.27v.28c0,.25,0,.5.02.74.01.16.02.31.03.47,0,.02.01.05.01.07a2.128,2.128,0,0,0,.03.25.06.06,0,0,0,.01.04,3.576,3.576,0,0,0,.06.48.676.676,0,0,0,.02.14c.03.21.07.41.11.62.05.19.089.37.15.56a.833.833,0,0,0,.04.15v.01c.05.16.1.33.149.49a.056.056,0,0,0,.011.04c.04.15.1.29.15.43.13.34.27.67.43.99a1.731,1.731,0,0,0,.139.26.359.359,0,0,0,.061.12,3.808,3.808,0,0,0,.29.52,1.4,1.4,0,0,0,.1.16c.15.24.319.48.49.71,3.05,4.06,8.4,5.76,13.47,5.85a21.283,21.283,0,0,0,3.56-.22c.3-.04.59-.09.88-.15a13.884,13.884,0,0,0,4.78-1.79c.18-.11.36-.22.53-.34s.359-.26.53-.39c.07-.05.14-.1.21-.16a10.217,10.217,0,0,0,.96-.9,1.541,1.541,0,0,1,.12-.13c.11-.12.22-.24.32-.37.14-.16.28-.34.41-.51a11.555,11.555,0,0,0,.72-1.1,12.3,12.3,0,0,0,1.05-2.41c.019-.06.03-.11.05-.16a.833.833,0,0,0,.04-.15,5.118,5.118,0,0,0,.15-.56c.04-.14.07-.28.1-.43.04-.18.07-.36.1-.55,0-.01.01-.02.01-.03v-.01a.075.075,0,0,0,.01-.05v-.01c.03-.2.05-.39.07-.59a10.954,10.954,0,0,0,.08-1.4C121.649,391.015,121.639,390.775,121.629,390.535Zm-21.51-2.81c0-.01,0-.01.01-.02a5.753,5.753,0,0,1,1.26-1.79,7.005,7.005,0,0,1,5.76-1.73,7.394,7.394,0,0,1,2.179.64,7.164,7.164,0,0,1,3.831,4.53,5.848,5.848,0,0,1-.05,2.88,5.278,5.278,0,0,1-.98,1.95,2.5,2.5,0,0,1-.34.39,3.183,3.183,0,0,1-.37.35,7.274,7.274,0,0,1-4.75,1.38,7.731,7.731,0,0,1-6.1-2.65,4.045,4.045,0,0,1-.23-.34,3.234,3.234,0,0,1-.2-.36,4.532,4.532,0,0,1-.331-.78A6.137,6.137,0,0,1,100.119,387.725Z" fill="#47aea9"/>
        <path id="Path_97" data-name="Path 97" d="M121.6,390.108a21.136,21.136,0,0,1-9.471,4.073,4.849,4.849,0,0,1-.707.74,7.244,7.244,0,0,1-4.746,1.38,7.7,7.7,0,0,1-6.1-2.647,5.026,5.026,0,0,1-.73-1.456,21.148,21.148,0,0,1-7.659-6.773A12.942,12.942,0,0,0,93.5,397.819c3.046,4.053,8.4,5.756,13.473,5.844,3.716.065,7.61-.689,10.483-3.047A12.255,12.255,0,0,0,121.6,390.108Z" fill="#2b7a78"/>
        <path id="Path_98" data-name="Path 98" d="M140.334,390.179a45.931,45.931,0,0,1-11.836,4.727,20.272,20.272,0,0,1-1.226,3.839,19.569,19.569,0,0,1-12.438,11.1c-4.383,1.189-9.079.637-13.555-.2-4.211-.786-8.549-1.9-11.732-4.593a17.725,17.725,0,0,1-4.944-7.559,23.349,23.349,0,0,1-1.328-11.676,19.473,19.473,0,0,1,1.255-4.4,45.482,45.482,0,0,1-7.015-10.285,30.374,30.374,0,0,0-5.48,12.981A34.877,34.877,0,0,0,74.02,401.56a26.457,26.457,0,0,0,7.387,11.3c4.756,4.022,11.24,5.689,17.532,6.863,6.689,1.248,13.707,2.074,20.257.3,8.514-2.309,15.228-8.922,18.587-16.583A31.222,31.222,0,0,0,140.334,390.179Z" fill="#2b7a78"/>
        <path id="Path_99" data-name="Path 99" d="M109.242,402.491c1.778-.463,3.467-1.249,5.268-1.61a6.222,6.222,0,0,1,5.238.961c1.4,1.188,1.749,3.65.337,4.826a32.058,32.058,0,0,1-18.062,4.02c-6.227-.629-12.326-3.778-15.791-8.99s-3.9-12.505-.412-17.7l4.609,1.843a15.13,15.13,0,0,0,18.813,16.655Z" fill="#e8ede1"/>
        <path id="Path_100" data-name="Path 100" d="M110.016,390.138a4.572,4.572,0,1,1-9.048-.114,2.917,2.917,0,0,1,1.918-2.456A7.7,7.7,0,0,0,110.016,390.138Z" fill="#e8ede1"/>
        <path id="Path_101" data-name="Path 101" d="M126.759,361.685a36.355,36.355,0,0,0-19.97-5.74,41.616,41.616,0,0,0-22.99,6.98c-11.01,7.42-16.1,22.27-12.37,36.11,3.95,14.66,17.629,24.13,34.86,24.13a41.939,41.939,0,0,0,24.11-7.35,30.165,30.165,0,0,0,12.8-22.97C144.1,381.035,137.649,368.8,126.759,361.685Zm15.44,31.09c-1.54,20.19-19.69,29.38-35.91,29.38-12.731,0-29.24-6.12-33.88-23.38-3.62-13.43,1.3-27.83,11.96-35.01a40.536,40.536,0,0,1,22.42-6.81,35.375,35.375,0,0,1,19.42,5.58C136.789,369.455,143.069,381.325,142.2,392.775Z" fill="#255f67"/>
        <path id="Path_102" data-name="Path 102" d="M120.739,370.065a25.391,25.391,0,0,0-13.96-4.02,29.013,29.013,0,0,0-16.06,4.88,21.134,21.134,0,0,0-7.45,9.03,24.437,24.437,0,0,0-1.211,16.23c2.761,10.25,12.331,16.88,24.371,16.88a29.328,29.328,0,0,0,16.86-5.14,20.964,20.964,0,0,0,8.7-14.03,18.953,18.953,0,0,0,.25-2.04C132.859,383.6,128.349,375.035,120.739,370.065Zm-14.31,41.99c-8.79,0-20.19-4.23-23.39-16.13A23.529,23.529,0,0,1,84,380.8a20.28,20.28,0,0,1,7.28-9.04,28.015,28.015,0,0,1,15.5-4.71,24.43,24.43,0,0,1,13.41,3.85c7.31,4.78,11.639,12.97,11.04,20.87a21.38,21.38,0,0,1-.32,2.46C128.649,406.465,116.949,412.055,106.429,412.055Z" fill="#255f67"/>
        <path id="Path_103" data-name="Path 103" d="M115.049,377.975a15.08,15.08,0,0,0-8.28-2.39,17.148,17.148,0,0,0-9.51,2.9,12.817,12.817,0,0,0-4.82,6.32v.01c-.08.22-.15.44-.22.67a14.666,14.666,0,0,0-.12,8,12.969,12.969,0,0,0,2.88,5.3l.01.01.01.01a15.382,15.382,0,0,0,11.57,4.72,17.465,17.465,0,0,0,9.65-2.82h.01c.12-.08.23-.16.34-.24a12.4,12.4,0,0,0,4.91-7.12c0-.01.01-.02.01-.03v-.01a.075.075,0,0,0,.01-.05v-.01a13.031,13.031,0,0,0,.38-2.33A14.594,14.594,0,0,0,115.049,377.975Zm5.82,12.86a11.972,11.972,0,0,1-8.03,10.49c-.011.01-.031.01-.04.02a14.65,14.65,0,0,1-1.58.53c-.01.01-.03.01-.05.02s-.03.01-.05.01a17.306,17.306,0,0,1-4.55.61c-5.07,0-11.65-2.44-13.491-9.29a13.643,13.643,0,0,1-.1-6.71,12,12,0,0,1,4.84-7.2,16.086,16.086,0,0,1,6.14-2.47,15.608,15.608,0,0,1,2.81-.25,14.092,14.092,0,0,1,7.73,2.22,14.636,14.636,0,0,1,4.19,4.18.116.116,0,0,1,.05.07,12.549,12.549,0,0,1,2.14,7.56A1.477,1.477,0,0,1,120.869,390.835Z" fill="#255f67"/>
        <path id="Path_104" data-name="Path 104" d="M110.539,384.255a7.627,7.627,0,0,0-8.1.22,5.924,5.924,0,0,0-2.31,3.23c-.01.01-.01.01-.01.02a6.646,6.646,0,0,0-.041,3.62c.75,2.8,3.341,4.6,6.591,4.6a7.771,7.771,0,0,0,4.6-1.46,5.707,5.707,0,0,0,1.84-2.25,5.846,5.846,0,0,0,.54-2.06A6.674,6.674,0,0,0,110.539,384.255Zm2.1,5.84c-.23,3.09-2.85,4.62-5.39,4.81h-.01a5.444,5.444,0,0,1-.57.03c-2.111,0-4.85-1.01-5.62-3.85-.05-.18-.09-.37-.13-.55v-.04a5.259,5.259,0,0,1,2.09-5.18,6.729,6.729,0,0,1,3.75-1.14c.13,0,.26,0,.39.01a5.889,5.889,0,0,1,2.84.91,5.754,5.754,0,0,1,.93.76A5.443,5.443,0,0,1,112.639,390.1Z" fill="#255f67"/>
        <path id="Path_105" data-name="Path 105" d="M91.586,364.661a2.2,2.2,0,0,1-.251-.982.308.308,0,0,0-.6-.082A1.164,1.164,0,0,0,91.141,365C91.347,365.145,91.69,364.906,91.586,364.661Z" fill="#255f67"/>
        <path id="Path_106" data-name="Path 106" d="M80.587,376.245a2.087,2.087,0,0,0-.832-.6c-.35-.15-.663.351-.306.523a5.4,5.4,0,0,1,.816.5C80.525,376.852,80.769,376.46,80.587,376.245Z" fill="#255f67"/>
        <path id="Path_107" data-name="Path 107" d="M80.215,400.848a5.363,5.363,0,0,0-2.827.508c-.386.156-.24.774.177.64.87-.278,1.775-.32,2.65-.555C80.492,401.366,80.526,400.9,80.215,400.848Z" fill="#255f67"/>
        <path id="Path_108" data-name="Path 108" d="M82.132,403.849a1.918,1.918,0,0,1-1.114.168c-.407-.059-.6.54-.174.633a1.645,1.645,0,0,0,1.6-.4C82.662,404.041,82.379,403.73,82.132,403.849Z" fill="#255f67"/>
        <path id="Path_109" data-name="Path 109" d="M103.587,417.1c-.514-.075-.593-.327-.577-.807.012-.351-.458-.363-.571-.077a.965.965,0,0,0,1.078,1.406C103.793,417.594,103.9,417.143,103.587,417.1Z" fill="#255f67"/>
        <path id="Path_110" data-name="Path 110" d="M118.314,414.852c-.173-.423-.282-.865-.414-1.3-.1-.327-.635-.279-.612.082a6.847,6.847,0,0,0,.275,1.426,2.3,2.3,0,0,0,.6,1.2.339.339,0,0,0,.574-.237A3.558,3.558,0,0,0,118.314,414.852Z" fill="#255f67"/>
        <path id="Path_111" data-name="Path 111" d="M120.756,412.7a6.253,6.253,0,0,1-.5-.814c-.153-.3-.685-.085-.554.234a2.125,2.125,0,0,0,.633.907C120.551,413.209,120.946,412.967,120.756,412.7Z" fill="#255f67"/>
        <path id="Path_112" data-name="Path 112" d="M137.616,392.325a12.9,12.9,0,0,0-3.01.039.278.278,0,0,0,0,.556,12.962,12.962,0,0,0,3.01.038A.33.33,0,0,0,137.616,392.325Z" fill="#255f67"/>
        <path id="Path_113" data-name="Path 113" d="M137.2,386.032a5.06,5.06,0,0,1-1.992-.02.262.262,0,0,0-.14.505,2.659,2.659,0,0,0,2.366-.082C137.646,386.265,137.4,386,137.2,386.032Z" fill="#255f67"/>
        <path id="Path_114" data-name="Path 114" d="M122.058,365.061c-1.09.41-1.835,1.8-2.231,2.824-.07.18.227.3.311.131a6.626,6.626,0,0,1,.957-1.454c.358-.412.839-.713,1.178-1.133C122.395,365.277,122.288,364.975,122.058,365.061Z" fill="#255f67"/>
        <path id="Path_115" data-name="Path 115" d="M123.445,366.647a.782.782,0,0,0-.713.3c-.218.246.13.6.364.364a.714.714,0,0,1,.408-.235A.221.221,0,0,0,123.445,366.647Z" fill="#255f67"/>
        <path id="Path_116" data-name="Path 116" d="M103.84,361.761c-.146.629-.439,1.222-.563,1.851a.25.25,0,0,0,.455.192,4.411,4.411,0,0,0,.532-1.985C104.291,361.574,103.894,361.527,103.84,361.761Z" fill="#255f67"/>
        <path id="Path_117" data-name="Path 117" d="M96.2,386.857a5.7,5.7,0,0,1-1.31-1c-.145-.167-.43.053-.306.236a2.636,2.636,0,0,0,1.434,1.193A.238.238,0,0,0,96.2,386.857Z" fill="#255f67"/>
        <path id="Path_118" data-name="Path 118" d="M98.062,385.252a1.925,1.925,0,0,1-.956-.912.241.241,0,0,0-.464.129,1.366,1.366,0,0,0,1.295,1.247A.25.25,0,0,0,98.062,385.252Z" fill="#255f67"/>
        <path id="Path_119" data-name="Path 119" d="M103.777,397.619a.271.271,0,0,0-.52,0c-.1.432-.227.885-.286,1.323-.036.26.266.52.486.282A1.661,1.661,0,0,0,103.777,397.619Z" fill="#255f67"/>
        <path id="Path_120" data-name="Path 120" d="M116.88,394.314a1.341,1.341,0,0,1-1.552-.017.237.237,0,0,0-.239.409,2.352,2.352,0,0,0,1.279.544.964.964,0,0,0,.93-.614C117.462,394.358,117.105,394.136,116.88,394.314Z" fill="#255f67"/>
        <path id="Path_121" data-name="Path 121" d="M117.738,392.671a2.621,2.621,0,0,0-1.2-.332c-.339-.036-.417.543-.081.6.364.056.709.185,1.071.238A.275.275,0,0,0,117.738,392.671Z" fill="#255f67"/>
        <path id="Path_122" data-name="Path 122" d="M114.065,380.392a5.515,5.515,0,0,0-1.985,1.681c-.236.284.137.676.411.411.588-.568,1.3-1.005,1.869-1.585C114.557,380.7,114.359,380.269,114.065,380.392Z" fill="#255f67"/>
        <path id="Path_123" data-name="Path 123" d="M114.94,382.471a3.018,3.018,0,0,1-.288.7.337.337,0,0,0,.581.339,1.608,1.608,0,0,0,.253-.966A.279.279,0,0,0,114.94,382.471Z" fill="#255f67"/>
        <path id="Path_124" data-name="Path 124" d="M78.3,383.4a2.777,2.777,0,0,1-1.053-.2c-.844-.268-1.421,1.057-.607,1.442a1.733,1.733,0,0,0,2.226-.27C79.346,383.94,78.812,383.329,78.3,383.4Z" fill="#fff"/>
        <path id="Path_125" data-name="Path 125" d="M87.581,367.652a7.262,7.262,0,0,0-1.088-1.3.852.852,0,0,0-1.2,1.2,7.3,7.3,0,0,0,1.3,1.088A.731.731,0,0,0,87.581,367.652Z" fill="#fff"/>
        <path id="Path_126" data-name="Path 126" d="M98.677,363.563a6.238,6.238,0,0,1-.243-1.213.852.852,0,0,0-1.7,0,2.41,2.41,0,0,0,.663,1.96A.772.772,0,0,0,98.677,363.563Z" fill="#fff"/>
        <path id="Path_127" data-name="Path 127" d="M113.042,360.933a.935.935,0,0,0-1.868,0,2.663,2.663,0,0,0,.164,1.868.9.9,0,0,0,1.541,0A2.663,2.663,0,0,0,113.042,360.933Z" fill="#fff"/>
        <path id="Path_128" data-name="Path 128" d="M132.186,371.409a3.035,3.035,0,0,0-2.533.673c-.943.621-.364,2.291.8,1.9a4.249,4.249,0,0,0,2.127-1.079A.9.9,0,0,0,132.186,371.409Z" fill="#fff"/>
        <path id="Path_129" data-name="Path 129" d="M135.363,381.37l-.664-.161a1.018,1.018,0,1,0,0,1.962l.664-.16A.857.857,0,0,0,135.363,381.37Z" fill="#fff"/>
        <path id="Path_130" data-name="Path 130" d="M133.3,399.613c-.816-.978-2.3.7-1.107,1.435a.643.643,0,0,1,.206.276.713.713,0,0,0,1.29-.169A1.489,1.489,0,0,0,133.3,399.613Z" fill="#fff"/>
        <path id="Path_131" data-name="Path 131" d="M129.777,408.728a2.6,2.6,0,0,0-1.837-1.2.914.914,0,0,0-.486,1.761,9.462,9.462,0,0,0,1.456.569A.776.776,0,0,0,129.777,408.728Z" fill="#fff"/>
      </g>
      <g id="Group_11" data-name="Group 11" opacity="0.49">
        <path id="Path_132" data-name="Path 132" d="M296.045,447.114c2.743,2.64,7.272,2.663,10.662.93s5.833-4.871,7.851-8.1a60.151,60.151,0,0,0,5.712-11.872c1.184-3.363,2.071-7.014,1.2-10.472s-4.005-6.568-7.56-6.3c-2.94.221-5.247,2.533-7.144,4.79a88.212,88.212,0,0,0-10.188,15.016,23.2,23.2,0,0,0-2.96,8.048A9.5,9.5,0,0,0,296.045,447.114Z" fill="#47aea9"/>
        <path id="Path_133" data-name="Path 133" d="M309.2,437.558a19.669,19.669,0,0,1-10.967-9.38c-.568.966-1.123,1.94-1.654,2.927a23.2,23.2,0,0,0-2.96,8.048,9.5,9.5,0,0,0,2.426,7.961c2.743,2.64,7.272,2.663,10.662.93s5.833-4.871,7.851-8.1c.3-.489.583-.993.874-1.49A18.644,18.644,0,0,1,309.2,437.558Z" fill="#2b7a78"/>
        <path id="Path_134" data-name="Path 134" d="M302.913,387.284a17.689,17.689,0,0,0-6.494,12.78,13.731,13.731,0,0,1-.28,3.036,3.061,3.061,0,0,1-1.909,2.214,2.827,2.827,0,0,1-3.083-1.525,6.021,6.021,0,0,1-.449-3.63C291.35,395.033,298.114,389.2,302.913,387.284Z" fill="#e8ede1"/>
        <path id="Path_135" data-name="Path 135" d="M273.171,402.057a5.021,5.021,0,0,1,.127-2.154,1.788,1.788,0,0,1,1.594-1.265c-.317,1.434.941,2.679,2.021,3.675s2.176,2.493,1.509,3.8c-.684,1.339-2.813,1.223-3.851.136A6.792,6.792,0,0,1,273.171,402.057Z" fill="#e8ede1"/>
        <path id="Path_136" data-name="Path 136" d="M267.959,415.234a5.39,5.39,0,0,1-.4-6.41c1.757.6,3.623,1.27,4.734,2.756s.96,4.044-.744,4.78A3.3,3.3,0,0,1,267.959,415.234Z" fill="#e8ede1"/>
        <path id="Path_137" data-name="Path 137" d="M292.645,438.051c-1.571.663-3.37.283-5.011-.18a56.908,56.908,0,0,1-21.5-11.518,9.276,9.276,0,0,1-2.949-3.678,3.558,3.558,0,0,1,1.188-4.232c3.6,5.545,10.25,8.62,16.847,9.065s13.157-1.454,19.2-4.138a29.949,29.949,0,0,1-4.858,11.935A7.2,7.2,0,0,1,292.645,438.051Z" fill="#e8ede1"/>
        <path id="Path_138" data-name="Path 138" d="M316.869,408.985a6.144,6.144,0,0,0-6.23,2.09c-.28.33-.581.69-.89,1.08-2.23-2.06-4.15-5.02-3.3-8.81a48.724,48.724,0,0,1,2.07-6.6c1.63-4.38,2.809-7.55-.89-10.28-2.41-1.77-6.35-1.12-9.95,1.63a18.545,18.545,0,0,0-7.17,12.71c-1.6-1.09-5.91-3.81-9.89-4.67-2.47-.53-4.4-.23-5.74.87a5.816,5.816,0,0,0-2.27,6.07,7.943,7.943,0,0,0,.99,2.36c-1.36.28-4.35,1.13-5.91,3.43a5.647,5.647,0,0,0-.82,1.85,6.549,6.549,0,0,0-.17.91v.04a5.366,5.366,0,0,0,1.71,4.72,7.515,7.515,0,0,0-4.54,1.72,3.279,3.279,0,0,0-.91,2.56c0,.05.01.1.01.15v.02a8.127,8.127,0,0,0,1.21,3.56c0,.01.01.01.01.02,2.88,4.84,10.34,8.84,17.55,11.44.03.01.05.02.08.03a69.316,69.316,0,0,0,8.45,2.43c.15.03.27.06.41.09h.02c1.04.21,2.02.39,2.95.51.159.03.31.05.47.07-.28,4.44,3.95,8.73,8.51,10.21.39.12.77.23,1.16.31,2.55.55,4.67.02,5.97-1.49,4.049-4.7,14.42-25.72,14.68-30.72C324.609,413.895,320.929,409.855,316.869,408.985Zm-22.25,27.55a12.461,12.461,0,0,0-.4,1.58l-.42-.06c-.28-.04-.57-.08-.87-.14-.78-.12-1.61-.27-2.47-.46a66.663,66.663,0,0,1-16.881-6.15c-5.339-2.91-9.489-6.59-9.739-10.7a2.366,2.366,0,0,1,.66-1.89c.01-.01.02-.03.04-.03,1.57-1.56,5.12-1.47,5.15-1.47a.441.441,0,0,0,.45-.34.428.428,0,0,0-.11-.39.526.526,0,0,0-.14-.11c-.12-.06-3.11-1.49-2.16-5.45a4.823,4.823,0,0,1,.829-1.75c1.881-2.48,5.811-2.97,5.861-2.98a.188.188,0,0,0,.08-.02.439.439,0,0,0,.2-.7,7.056,7.056,0,0,1-1.23-2.6,4.648,4.648,0,0,1,.95-4.16,7.159,7.159,0,0,1,1.03-1.03c1.109-.92,2.79-1.15,4.99-.68,4.71,1.01,10.139,4.91,10.19,4.95h.01a.413.413,0,0,0,.439.04.427.427,0,0,0,.25-.37,17.111,17.111,0,0,1,1.881-6.82,17.875,17.875,0,0,1,5-6.01c3.24-2.47,6.82-3.14,8.9-1.62,3.16,2.34,2.19,4.95.59,9.27a48.664,48.664,0,0,0-2.11,6.71c-.94,4.21,1.19,7.46,3.61,9.68-.97,1.22-2.08,2.66-3.24,4.24-2.02,2.75-4.21,5.91-6.151,9.05-.489.79-.959,1.58-1.409,2.35a41.729,41.729,0,0,0-3.77,8.05ZM321.4,424.2c-1.76,4.32-4.33,9.69-6.78,14.27-1.26,2.34-2.48,4.48-3.541,6.16,0,.01-.009.01-.009.02l-.011.01a23.754,23.754,0,0,1-1.969,2.78,4.664,4.664,0,0,1-4.25,1.35h-.02c-.28-.03-.56-.08-.85-.14-4.7-1.01-9.63-5.65-8.93-10.12a20.941,20.941,0,0,1,1.93-5.5c0-.01.01-.01.01-.02.349-.72.73-1.47,1.15-2.24.25-.46.52-.94.79-1.42a143.272,143.272,0,0,1,11.7-16.87l.01-.01c.25-.3.47-.57.679-.82a5.25,5.25,0,0,1,5.371-1.8c3.62.78,7.03,4.45,6.879,7.4a27.9,27.9,0,0,1-2.149,6.93C321.409,424.185,321.4,424.185,321.4,424.2Z" fill="#255f67"/>
        <path id="Path_139" data-name="Path 139" d="M293.46,433.725a8.325,8.325,0,0,0-2.052.449c-.747.2-1.5.374-2.251.583a.247.247,0,0,0,.092.48,14.292,14.292,0,0,0,2.08-.368,11.177,11.177,0,0,0,2.234-.6A.281.281,0,0,0,293.46,433.725Z" fill="#255f67"/>
        <path id="Path_140" data-name="Path 140" d="M293.356,435.671a6.056,6.056,0,0,0-1.512.128c-.285.045-.273.475.026.456a6.1,6.1,0,0,0,1.506-.2C293.552,436,293.561,435.689,293.356,435.671Z" fill="#255f67"/>
        <path id="Path_141" data-name="Path 141" d="M301.812,435.666a2.517,2.517,0,1,0,1.934,2.989A2.541,2.541,0,0,0,301.812,435.666Z" fill="#fff"/>
      </g>
      <g id="Group_13" data-name="Group 13" opacity="0.49">
        <path id="Path_142" data-name="Path 142" d="M263.029,325.725c-.36-7.92-4.78-16.11-11.5-19.18-12.42-5.68-29.28-.71-39.31,7.51-.27.22-.55.45-.82.69a.022.022,0,0,1-.02.02,41.584,41.584,0,0,0-12.02,17.85c-1.63,5.13-1.86,10.5.219,15.42a17.358,17.358,0,0,0,10.221,9.49,32.755,32.755,0,0,0,8.62,1.94c7.8.78,16.31-.44,22.59-1.73.42-.08.819-.17,1.21-.25a3.859,3.859,0,0,0,2.65-1.78,4.867,4.867,0,0,0-.98-5.77,4.2,4.2,0,0,0-1.811-1.04,4.583,4.583,0,0,0-2.25-.05,68.865,68.865,0,0,1-16.049,1.86,44.984,44.984,0,0,1-5.971-.49,24.162,24.162,0,0,1-4.069-.98,9.929,9.929,0,0,1-5.57-4.03c-2.72-4.62-.97-10.48,2.23-15.58a37.831,37.831,0,0,1,9.05-9.93c.15-.11.31-.22.47-.33a33.584,33.584,0,0,1,13.909-5.58c4.6-.75,12.661-1.37,16.161,2.4a17.613,17.613,0,0,1,4.19,9.92,10.742,10.742,0,0,1-.17,2.91,7.331,7.331,0,0,1-1.14,2.76c-1.13,1.63-3.84,3.24-5.63,1.37a3.883,3.883,0,0,1-.87-2.13,41.254,41.254,0,0,0,.08-6.17c-.01-.18-.02-.35-.03-.52a4.414,4.414,0,0,0-1.22-2.86,4.357,4.357,0,0,0-1.57-1.04,4.929,4.929,0,0,0-4.31.27,3.878,3.878,0,0,0-1.09,1.01,3.67,3.67,0,0,0-.58,1.4c-.03.13-.05.27-.071.41a9.789,9.789,0,0,0-3.259-1.06c-9.15-1.34-17.761,10.76-9.55,19.16.14.15.289.29.44.43,0,.01.01.01.02.02a12.2,12.2,0,0,0,7.39,3.09h.02a11.979,11.979,0,0,0,7.439-1.93,9.64,9.64,0,0,0,.98-.72,12.97,12.97,0,0,0,1.081-1.02c.189-.2.37-.4.55-.61l.09.06a12.739,12.739,0,0,0,15.43-1.67C261.8,335.825,263.249,330.835,263.029,325.725Zm-26.67,3.92c.28.14.56.3.86.48a2.623,2.623,0,0,0,.48.23,10.2,10.2,0,0,1-1.07,4.24,3.916,3.916,0,0,1-2.54,1.99c-5.6,1.38-5-8,.25-7.53a4.037,4.037,0,0,1,.92.18A6.227,6.227,0,0,1,236.359,329.645Z" fill="#47aea9"/>
        <g id="Group_12" data-name="Group 12">
          <path id="Path_143" data-name="Path 143" d="M256.879,304.7c-6.37-4.64-15.76-4.73-23.23-3.69-15.071,2.1-31.12,15.24-34.11,30.58q-.105.51-.18,1.02c-1.72,10.67,2.51,19.74,10.44,24.91a28.669,28.669,0,0,0,11.67,4.28c8.33,1.22,17.839-.03,24.8-5.1,2-1.46,4.17-3.56,3.78-6.3a3.29,3.29,0,0,0-3.53-3.04.745.745,0,0,0-1.18-.52c-1.05.72-2.14,1.41-3.261,2.05-7.329,4.18-16.079,6.3-23.819,1.61-.15-.09-.3-.19-.451-.29-9.719-6.23-8.75-17.19-2.409-25.67a44.007,44.007,0,0,1,4.52-5.18c5.47-5.35,12.51-9.2,20.37-8.35a15.781,15.781,0,0,1,11.97,7.22,14.374,14.374,0,0,1,1.92,7.87c-.01.97-.08,1.94-.17,2.91-.11,1.18-.27,2.36-.41,3.53-.18.39-.36.77-.57,1.13-1.2,2.06-2.63,3.22-4.86,2.37-1.79-.69-1.88-.97-2.111-2.73a14.349,14.349,0,0,1-.019-2.53c.1-1.98.28-3.96.41-5.94a50.689,50.689,0,0,0,.1-5.65.527.527,0,0,0-.67-.45.679.679,0,0,0-.45-.08,19.565,19.565,0,0,0-3.92.98,5.3,5.3,0,0,0-2.19,1.05,1.15,1.15,0,0,0-.14.17,1.511,1.511,0,0,0-.18,1.22,6.887,6.887,0,0,0-.77-.38,11.841,11.841,0,0,0-8.09-.12c-5.92,2-9.24,8.46-9.081,14.49.291,10.23,13.111,13.96,19.02,7.15a10.029,10.029,0,0,0,1.511-2.25c.18.18.36.35.55.51,4.18,3.64,10.09,2.71,14.43-.7,5.489-4.32,8.41-11.51,8.46-18.38C265.078,315.755,262.379,308.715,256.879,304.7Zm-15.49,34.3a.735.735,0,0,0-.74.35c-1.78,3.04-4.56,5.5-8.01,5.8h-.02a8.35,8.35,0,0,1-2.37-.14,8.942,8.942,0,0,1-5.02-2.95c-.01-.01-.02-.01-.02-.02a9.922,9.922,0,0,1-2.41-6.75c.17-6.29,5.71-12.7,11.52-12.84a7.584,7.584,0,0,1,3.33.65,9.223,9.223,0,0,1,1.96,1.18,14.2,14.2,0,0,0,.78,2.09.367.367,0,0,0,.68-.18c-.011-.2-.04-.39-.06-.59.04.04.069.08.11.12.27.31.86-.01.709-.41a6.1,6.1,0,0,0-1.209-1.95c-.05-.22-.1-.44-.14-.65-.16-.69-.37-.86.45-1.36a8.793,8.793,0,0,1,2.7-.93c.62-.13,1.23-.23,1.8-.34-.08.46-.16.92-.23,1.38-.47,3.09-.69,6.23-.86,9.32-.13,2.08-.21,4.61,1.33,6.27,3.76,4.05,8.48-1,9.67-4.67a.648.648,0,0,0-.22-.71,5.967,5.967,0,0,0,.05-1.12c1.62-9.33-1.68-18.38-12.15-20.91-11.65-2.82-22.47,5.01-29.11,13.89a28.5,28.5,0,0,0-3.51,6.09c-2.81,6.74-2.42,14.07,3.34,19.61a15.866,15.866,0,0,0,1.21,1.09c8.53,6.99,20.21,5.22,28.94-.39.78-.51,1.55-1.05,2.28-1.61,1.28,3.5.85,5.97-1.3,7.38a5.133,5.133,0,0,1-.77.43c-.46.26-.91.51-1.37.77-.56.3-1.14.58-1.72.83a29.194,29.194,0,0,1-3.92,1.43,35.91,35.91,0,0,1-10.77,1.31,37.1,37.1,0,0,1-7.9-1.01,24.51,24.51,0,0,1-11.78-6.24c-11.34-11.47-5.1-28.45,4.74-38.46a.022.022,0,0,0,.02-.02c.63-.64,1.28-1.25,1.94-1.83,5.56-4.89,11.7-8.67,19.08-9.98,7.77-1.38,18.47-1.52,24.659,4.15,5.081,4.64,6.961,11.94,5.951,18.64a23.407,23.407,0,0,1-.67,3.01c-2.22,7.57-12.32,19.12-20.06,10.47A.725.725,0,0,0,241.389,339.005Z" fill="#173032"/>
          <path id="Path_144" data-name="Path 144" d="M237.849,328.435a2.439,2.439,0,0,0-3.38-.65c-.01.01-.01.02-.02.03-7.42-2.18-11.59,12.44-2.82,13.2,4.14.36,6.429-3.29,6.8-6.94C238.6,332.415,238.939,329.895,237.849,328.435Zm-1.35,7.19c-.72,2.67-3.46,4.81-6.25,3.34-2.68-1.41-2.5-4.88-1.2-7.21a5.738,5.738,0,0,1,5.11-2.99.789.789,0,0,0,.18.29.716.716,0,0,0,.92.18c.01-.01.03-.02.04-.03.509-.3.85-.07,1.06.44.48,1.1.39,3.54.27,4.95C236.578,335.125,236.529,335.505,236.5,335.625Z" fill="#173032"/>
          <path id="Path_145" data-name="Path 145" d="M230.975,326.381a8.572,8.572,0,0,0-5.837,4.189.318.318,0,0,0,.5.383,21.734,21.734,0,0,1,2.574-2.155,17.458,17.458,0,0,1,3.076-1.292A.584.584,0,0,0,230.975,326.381Z" fill="#173032"/>
          <path id="Path_146" data-name="Path 146" d="M254.641,313.313a7.035,7.035,0,0,0-2.24-2.649,9.789,9.789,0,0,0-2.949-1.739c-.387-.134-.615.449-.274.649a13.809,13.809,0,0,1,2.66,1.86c.755.719,1.229,1.652,1.95,2.375C254.129,314.151,254.822,313.807,254.641,313.313Z" fill="#173032"/>
          <path id="Path_147" data-name="Path 147" d="M256.92,312.062a7.465,7.465,0,0,0-4.619-4.9c-.482-.195-.819.61-.355.841a8.32,8.32,0,0,1,3.875,4.526C256.108,313.173,257.062,312.7,256.92,312.062Z" fill="#173032"/>
          <path id="Path_148" data-name="Path 148" d="M217.838,353.358c-.908-.591-1.984-.936-2.932-1.472-.626-.353-3.026-1.525-2.822-2.4a.276.276,0,0,0-.5-.212c-.624,1.031.705,1.891,1.415,2.435a12.371,12.371,0,0,0,4.474,2.514A.477.477,0,0,0,217.838,353.358Z" fill="#173032"/>
          <path id="Path_149" data-name="Path 149" d="M216.927,355.7a36.554,36.554,0,0,1-6.169-3.215c-.282-.191-.6.237-.362.47a16.575,16.575,0,0,0,6.1,3.773C217.088,356.913,217.518,355.953,216.927,355.7Z" fill="#173032"/>
        </g>
      </g>
      <g id="Group_15" data-name="Group 15" opacity="0.49">
        <path id="Path_150" data-name="Path 150" d="M294.824,715.4a4.258,4.258,0,0,0-2.471.148,4.437,4.437,0,0,0-.895,8.251,4.5,4.5,0,0,0,6.521-2.647,4.85,4.85,0,0,0-.375-3.516A4.368,4.368,0,0,0,294.824,715.4Z" fill="#47aea9"/>
        <path id="Path_151" data-name="Path 151" d="M301.965,691.44q-4.5-8.268-9.024-16.527-4.273-7.829-8.6-15.631c-1.912-3.451-3.658-8.527-7.912-9.62-4.281-1.1-8.484,2.306-11.97,4.283-5.67,3.217-11.367,6.391-17,9.677a4.107,4.107,0,0,0-2,4.461,153.054,153.054,0,0,0,25.189,49.3,3.614,3.614,0,0,0,.39.429,3.019,3.019,0,0,0,4.367,2.284c5.633-2.5,11.136-5.254,16.583-8.134,3.927-2.076,11-4.3,13.1-8.605C307.121,699.191,303.887,694.968,301.965,691.44Z" fill="#47aea9"/>
        <path id="Path_152" data-name="Path 152" d="M318.609,714.205v-.01a4.458,4.458,0,0,0-.38-1.45q-4.14-9.57-8.95-18.85c-.03-.06-.07-.13-.11-.2q-3.27-6.33-6.8-12.51a.362.362,0,0,0-.07-.12c-3.491-6.09-7.16-12.1-10.94-17.98q-3.69-5.73-7.6-11.33c-1.931-2.77-3.81-6.31-6.61-8.35a7.971,7.971,0,0,0-2.98-1.35h-.01c-5.81-1.25-12.65,4.01-17.28,6.67-4.03,2.32-7.94,4.81-11.73,7.51-2.29,1.63-5.51,3.27-6.31,6.2,0,.01-.011.02-.011.03a5.658,5.658,0,0,0-.129,2.23,3.033,3.033,0,0,0,.06.42v.01c.04.23.1.46.16.68,0,.01.01.03.01.04a16.331,16.331,0,0,0,1.56,3.44.25.25,0,0,0,.04.07c.37.64.74,1.25,1.049,1.85,2.181,4.05,4.321,8.13,6.471,12.2,4.5,8.51,8.89,17.13,13.45,25.63.059.11.13.23.18.34q2.745,5.115,5.6,10.17c.01.02.029.05.04.07,2.66,4.7,5.4,9.34,8.3,13.9a3.017,3.017,0,0,0,2.22,1.48,1.092,1.092,0,0,0,.13.17,3.811,3.811,0,0,0,3.05,1.58c3.93-.21,7.99-2.21,11.6-3.72a110.142,110.142,0,0,0,13.37-6.75c2.85-1.68,7.16-3.55,8.21-7.04A4.764,4.764,0,0,0,318.609,714.205Zm-26.69,10a1.917,1.917,0,0,1-.841-.25h-.009a2.333,2.333,0,0,1-.97-1.19,2.151,2.151,0,0,1-.1-.28v-.01a3.056,3.056,0,0,1-.07-1.47,5.9,5.9,0,0,1,.77-1.97c.17-.3.359-.59.54-.87.08-.11.15-.21.22-.32a2.724,2.724,0,0,0,.48-2.12c.07-.04.13-.08.2-.12.01,0,.01-.01.02-.01h.01c.15-.09.31-.17.47-.26a.665.665,0,0,0,.2.06,1.808,1.808,0,0,0,.58.09c4.31-.01,3.23,4.92,1.24,7.29-.06.07-.13.14-.19.21-.78.38-1.55.76-2.33,1.12-.05.02-.1.05-.15.07C291.969,724.185,291.939,724.2,291.919,724.205Zm-31.611-35.12c-3.5-6.7-7.039-13.39-10.509-20.1-.07-.14-.41-.7-.83-1.42-.161-.27-.33-.57-.5-.87-.43-.75-.87-1.55-1.13-2.13a18.325,18.325,0,0,0,3.489-1.74c3.1-2.04,6.25-4.01,9.471-5.88.89-.51,1.81-1.08,2.759-1.66a34.4,34.4,0,0,1,7.061-3.6c.6-.2.959-.36,1.22-.44l.01-.01c.59-.21.65-.08,1.76.77,1.37,1.04,2.4,3.38,3.38,4.8q6.36,9.225,12.2,18.8c4.56,7.5,8.77,15.16,12.78,22.93.15.28.29.56.43.85.19.36.38.72.57,1.09.15.3.31.61.46.91l.03.06c-.16.08-.33.15-.49.24-.01.01-.02.02-.03.01-1.04.5-2.06,1.03-3.07,1.58-.01.01-.02.02-.03.01-3.35,1.86-6.59,3.96-9.79,5.96-4.45,2.76-8.86,5.69-13.04,8.87-.31.23-.63.47-.94.71-.02-.05-.05-.1-.07-.15C270.7,708.675,265.439,698.915,260.308,689.085Z" fill="#2b7a78"/>
        <g id="Group_14" data-name="Group 14">
          <path id="Path_153" data-name="Path 153" d="M310.692,696.454c-9.194-16.639-17.831-33.859-29.062-49.249-1.753-2.4-3.143-5.3-6.376-5.256-3.376.043-8.153,3.059-11.121,4.456A124.512,124.512,0,0,0,237.9,663.2c-.885.732.356,2.017,1.239,1.287a122.68,122.68,0,0,1,25-16.112q3.387-1.626,6.872-3.04c5.513-2.232,7.126.009,10.172,4.275,2.6,3.636,5.03,7.386,7.368,11.192,5,8.146,9.553,16.563,14.175,24.928l7.311,13.231q1.827,3.309,3.655,6.616c1.868,3.381,2.7,3.8,1.461,7.721q.16,3.276-2.671,4.124-1.67.938-3.346,1.859-3.354,1.842-6.741,3.626-6.35,3.342-12.81,6.467c-2.005.971-4,1.992-6.051,2.871-3.705,1.591-5.6,1.568-8.271-1.838-2.882-3.67-4.806-8.78-7.039-12.887-9.472-17.422-18.049-35.618-28.385-52.538a.591.591,0,0,0-1.038.564c8.024,18.106,18.393,35.44,27.849,52.829,2.328,4.282,4.506,8.722,7.039,12.887,1.075,1.769,2.045,3.326,4.158,3.874,2.244.582,4.528-.446,6.542-1.317,4.671-2.02,9.23-4.391,13.763-6.7q6.395-3.257,12.676-6.728c2.275-1.257,6.139-2.641,7.425-5.205.982-1.958.307-4.062-.523-5.926C315.77,704.859,313.021,700.669,310.692,696.454Z" fill="#173032"/>
          <path id="Path_154" data-name="Path 154" d="M297.379,717.255c0-.01,0-.01-.01-.02a3.3,3.3,0,0,0-1.34-1.63,4.046,4.046,0,0,0-4.09-.05.374.374,0,0,0-.41-.15,3.29,3.29,0,0,0-2.37,3.34v.01a3.869,3.869,0,0,0,.77,2.25.469.469,0,0,0,.06.09,4.552,4.552,0,0,0,4.67,1.68,3.8,3.8,0,0,0,1.649-.93A4.358,4.358,0,0,0,297.379,717.255Zm-6.68,1.78a2.419,2.419,0,0,1-.17-1.26.847.847,0,0,0,.71.39.8.8,0,0,0,.72-.35,2.322,2.322,0,0,1,2.81-.89c1.49.63,1.36,2.66.33,3.67C293.489,722.175,291.328,720.735,290.7,719.035Z" fill="#173032"/>
          <path id="Path_155" data-name="Path 155" d="M307.139,700.985a204.453,204.453,0,0,0-13.97-28.5,187.916,187.916,0,0,0-10.96-17.32c-1.09-1.48-2.22-2.93-3.4-4.33-.7-.83-1.419-1.65-2.149-2.45a.892.892,0,0,0-1.23-.83,219.1,219.1,0,0,0-27.01,13.99c-1.38.85-4.54,2.07-4.861,4.04-.389,2.39,2.27,6.07,3.851,8.55a.01.01,0,0,0,.01.01c.3.48.57.91.76,1.28q7.335,14,14.64,28c2.04,3.9,4.04,7.83,6.14,11.7.4.76.81,1.52,1.23,2.27.69,1.25,1.24,3.35,2.95,3.05a.49.49,0,0,0,.66.27c.279-.12.56-.25.84-.37l.01-.01a239.715,239.715,0,0,0,30-16.22c.27-.16.54-.33.81-.5a.872.872,0,0,0,.41-.64c.28-.19.56-.38.85-.55a.468.468,0,0,0,.24-.48A.932.932,0,0,0,307.139,700.985Zm-1.59,1.15h-.01a.741.741,0,0,0-.92-.07c-9.24,5.61-18.68,10.8-28.11,16.05-.34.19-.67.37-1.01.56-.66.37-1.33.74-1.99,1.11,0-.03-.01-.06-.01-.1a.361.361,0,0,0-.65-.1c.65-1.38-4.66-9.43-5.38-10.82q-2.73-5.265-5.48-10.51-5.475-10.5-10.95-21.02-1.365-2.625-2.731-5.25c-.629-1.23-2.879-4.07-2.739-5.26.39-3.16,7.759-6.13,10.23-7.53,2.4-1.35,4.82-2.66,7.259-3.91q4.1-2.115,8.281-4.04l.01-.01c1.29-.6,2.58-1.19,3.88-1.76.22-.1.45-.2.67-.3.09.14.179.29.27.43,5.12,8.31,11.03,16.08,15.909,24.57a293.221,293.221,0,0,1,13.551,27.58c.01.01.01.03.02.04.02.07.07.1.1.15C305.679,702.005,305.619,702.075,305.549,702.135Z" fill="#173032"/>
          <path id="Path_156" data-name="Path 156" d="M303.156,700a27.545,27.545,0,0,1-6.375,3.455c-.393.148-.278.774.153.657a20.138,20.138,0,0,0,6.811-3.308C304.193,700.464,303.619,699.669,303.156,700Z" fill="#173032"/>
          <path id="Path_157" data-name="Path 157" d="M301.839,698.318a40.717,40.717,0,0,1-4.186,2.063c-.4.188-.071.746.318.587a39.73,39.73,0,0,1,4.237-1.68C302.972,699.074,302.466,697.923,301.839,698.318Z" fill="#173032"/>
          <path id="Path_158" data-name="Path 158" d="M254.381,663.322a35.164,35.164,0,0,0-6.907,4.073c-.452.329-.079,1.1.43.791,2.3-1.4,4.666-2.574,7.034-3.838C255.613,663.987,255.06,663.037,254.381,663.322Z" fill="#173032"/>
          <path id="Path_159" data-name="Path 159" d="M255.83,664.552a18.788,18.788,0,0,0-4.938,3.079c-.512.431.2,1.115.707.734a26.256,26.256,0,0,1,4.808-2.75C257.124,665.286,256.536,664.265,255.83,664.552Z" fill="#173032"/>
          <path id="Path_160" data-name="Path 160" d="M291.547,723.89a4.219,4.219,0,0,1-2.624-.308,5.028,5.028,0,0,1-1.837-1.7c-.418-.549-1.154.122-.917.671.9,2.079,3.678,2.771,5.638,2.024C292.207,724.421,291.938,723.81,291.547,723.89Z" fill="#173032"/>
          <path id="Path_161" data-name="Path 161" d="M288.53,725.247a3.874,3.874,0,0,1-3.217-2.221c-.312-.526-1.291-.232-1.062.4a4.243,4.243,0,0,0,4.255,2.577A.38.38,0,0,0,288.53,725.247Z" fill="#173032"/>
        </g>
      </g>
    </g>
    <g id="Group_19" data-name="Group 19">
      <path id="Path_162" data-name="Path 162" d="M365.882,531.319c-3.528-.652-6.918,3.744-8.959,6.057-.48.544.142,1.474.807,1.045a38.592,38.592,0,0,0,3.781-3.139,19.362,19.362,0,0,1,4.571-2.438A.84.84,0,0,0,365.882,531.319Z" fill="#e1f1f0"/>
      <path id="Path_163" data-name="Path 163" d="M366.719,534.806a11.422,11.422,0,0,1-1.294,1.533c-1.146,1.126.723,2.944,1.743,1.743a5.842,5.842,0,0,0,1.349-2.518A.988.988,0,0,0,366.719,534.806Z" fill="#e1f1f0"/>
      <g id="Group_17" data-name="Group 17">
        <path id="Path_164" data-name="Path 164" d="M160.346,346.814c-.833-1.05-2.15.138-1.992,1.16a44.817,44.817,0,0,1,.914,7.335c-.019,2.316-.21,4.637-.342,6.95-.106,1.871,2.679,2.143,3.182.431C163.584,357.654,163.771,351.133,160.346,346.814Z" fill="#e1f1f0"/>
        <path id="Path_165" data-name="Path 165" d="M152.844,392.108c-1.073,5.482-3.724,10.309-5.975,15.365-.57,1.281,1.063,2.9,2.112,1.629a32.021,32.021,0,0,0,6.8-16.6C156.006,390.831,153.166,390.464,152.844,392.108Z" fill="#e1f1f0"/>
        <path id="Path_166" data-name="Path 166" d="M140.268,423.961c-3.213,4.576-6.805,9.642-8.431,15.042-.585,1.94,1.952,2.652,3.015,1.272,3.384-4.394,5.432-9.868,8.424-14.556C144.5,423.8,141.539,422.15,140.268,423.961Z" fill="#e1f1f0"/>
        <path id="Path_167" data-name="Path 167" d="M123.9,452.307c-1.8,4.082-3.807,8.663-3.347,13.21.148,1.463,2.441,2.047,2.761.374a70.453,70.453,0,0,1,3.1-12.524C126.968,451.916,124.523,450.886,123.9,452.307Z" fill="#e1f1f0"/>
        <path id="Path_168" data-name="Path 168" d="M122.208,477.676c-.314-1.466-2.842-1.152-2.641.357a40.986,40.986,0,0,0,1.268,7.61,1.167,1.167,0,0,0,2.281-.309A25,25,0,0,0,122.208,477.676Z" fill="#e1f1f0"/>
      </g>
      <g id="Group_18" data-name="Group 18">
        <path id="Path_169" data-name="Path 169" d="M53.14,405.7a21.436,21.436,0,0,0-12.651,6.416,5.618,5.618,0,0,0-1.135,3.642c-.315,4.134-.1,6.636-4.319,8.244-2.694,1.026-5.5,1.4-7.453,3.71-2.321,2.749-1.451,6.943-.653,10.057.336,1.315,2.507,1.07,2.4-.324-.324-4.221-.724-7.956,3.975-9.332,2.449-.717,4.991-1.256,7.025-2.908a7.231,7.231,0,0,0,3.006-6.69c-.31-7.034,5.787-6.724,10.559-10.025C54.974,407.745,54.76,405.483,53.14,405.7Z" fill="#e1f1f0"/>
        <path id="Path_170" data-name="Path 170" d="M49.194,387.754a21.435,21.435,0,0,0-12.651,6.416,5.617,5.617,0,0,0-1.135,3.641c-.315,4.135-.1,6.636-4.319,8.245-2.694,1.026-5.5,1.4-7.453,3.709-2.321,2.749-1.451,6.944-.653,10.058.336,1.315,2.507,1.07,2.4-.325-.324-4.22-.724-7.956,3.975-9.331,2.449-.717,4.991-1.257,7.025-2.909a7.229,7.229,0,0,0,3.006-6.689c-.31-7.034,5.786-6.724,10.559-10.025C51.028,389.8,50.814,387.536,49.194,387.754Z" fill="#e1f1f0"/>
      </g>
      <path id="Path_171" data-name="Path 171" d="M218.045,543.4a2.281,2.281,0,0,0-3.093-.811c-1.564.821-2.542,3-3.551,4.4a5.267,5.267,0,0,1-.432.5q-.7-.309-1.4-.621c-1.594-.708-3.322-1.781-5.088-1.489a2.813,2.813,0,0,0-2.09,2.745c.085,1.522,1.2,2.678,2.053,3.869q.493.69.987,1.378a4.9,4.9,0,0,0,4.2,2.2,3.559,3.559,0,0,0,2.7-1.133,5.307,5.307,0,0,0,2.185-.582,6.458,6.458,0,0,0,2.36-3.181C217.861,548.54,219.185,545.689,218.045,543.4Z" fill="#e1f1f0"/>
      <path id="Path_172" data-name="Path 172" d="M316.089,585.775a8.51,8.51,0,0,0-7.31-2.37,7.165,7.165,0,0,0-5.29,4.48c-2.69,2.16-2.95,6.4-1.08,9.54,2.55,4.27,8.24,6.22,12.45,3.18A9.689,9.689,0,0,0,316.089,585.775Zm-3.261,12.2c-2.539,1.95-5.859.54-7.609-1.77a5.745,5.745,0,0,1-1.24-3.85,3.075,3.075,0,0,1,.36-1.25,1.123,1.123,0,0,0,1.06-.18c1.46-1.11,2.2-3.01,4.05-3.62a4.321,4.321,0,0,1,3.97,1.14C316.489,591.045,315.909,595.625,312.828,597.975Z" fill="#e1f1f0"/>
      <path id="Path_173" data-name="Path 173" d="M132.519,632.715a8.488,8.488,0,0,0-7.31-2.38,7.16,7.16,0,0,0-5.29,4.49c-2.68,2.16-2.95,6.39-1.08,9.54,2.55,4.27,8.239,6.21,12.45,3.18A9.689,9.689,0,0,0,132.519,632.715Zm-3.26,12.2c-2.54,1.94-5.86.53-7.61-1.77a5.749,5.749,0,0,1-1.24-3.86,2.985,2.985,0,0,1,.36-1.24,1.1,1.1,0,0,0,1.059-.19c1.461-1.11,2.2-3,4.051-3.61a4.316,4.316,0,0,1,3.97,1.13C132.919,637.985,132.339,642.565,129.259,644.915Z" fill="#e1f1f0"/>
      <path id="Path_174" data-name="Path 174" d="M338.856,466.482a3.856,3.856,0,0,0-5.359,0,4.574,4.574,0,0,0-1.368,3.461,4.048,4.048,0,1,0,8.1,0A4.574,4.574,0,0,0,338.856,466.482Z" fill="#e1f1f0"/>
    </g>
  </g>
</svg>
